%TF.GenerationSoftware,KiCad,Pcbnew,8.0.1*%
%TF.CreationDate,2024-04-20T13:07:57+02:00*%
%TF.ProjectId,proto_board,70726f74-6f5f-4626-9f61-72642e6b6963,rev?*%
%TF.SameCoordinates,Original*%
%TF.FileFunction,Drillmap*%
%TF.FilePolarity,Positive*%
%FSLAX45Y45*%
G04 Gerber Fmt 4.5, Leading zero omitted, Abs format (unit mm)*
G04 Created by KiCad (PCBNEW 8.0.1) date 2024-04-20 13:07:57*
%MOMM*%
%LPD*%
G01*
G04 APERTURE LIST*
%ADD10C,0.050000*%
%ADD11C,0.200000*%
%ADD12C,0.100000*%
G04 APERTURE END LIST*
D10*
X4545000Y-4645000D02*
X15045000Y-4645000D01*
X15045000Y-11082500D01*
X4545000Y-11082500D01*
X4545000Y-4645000D01*
D11*
D12*
X4789500Y-4894500D02*
X4889500Y-4994500D01*
X4889500Y-4894500D02*
X4789500Y-4994500D01*
X4789500Y-5148500D02*
X4889500Y-5248500D01*
X4889500Y-5148500D02*
X4789500Y-5248500D01*
X4789500Y-5656500D02*
X4889500Y-5756500D01*
X4889500Y-5656500D02*
X4789500Y-5756500D01*
X4789500Y-5910500D02*
X4889500Y-6010500D01*
X4889500Y-5910500D02*
X4789500Y-6010500D01*
X4789500Y-6164500D02*
X4889500Y-6264500D01*
X4889500Y-6164500D02*
X4789500Y-6264500D01*
X4789500Y-6418500D02*
X4889500Y-6518500D01*
X4889500Y-6418500D02*
X4789500Y-6518500D01*
X4789500Y-6672500D02*
X4889500Y-6772500D01*
X4889500Y-6672500D02*
X4789500Y-6772500D01*
X4789500Y-6926500D02*
X4889500Y-7026500D01*
X4889500Y-6926500D02*
X4789500Y-7026500D01*
X4789500Y-7180500D02*
X4889500Y-7280500D01*
X4889500Y-7180500D02*
X4789500Y-7280500D01*
X4789500Y-7434500D02*
X4889500Y-7534500D01*
X4889500Y-7434500D02*
X4789500Y-7534500D01*
X4790000Y-4894000D02*
X4890000Y-4994000D01*
X4890000Y-4894000D02*
X4790000Y-4994000D01*
X4790000Y-5148000D02*
X4890000Y-5248000D01*
X4890000Y-5148000D02*
X4790000Y-5248000D01*
X4790000Y-5656000D02*
X4890000Y-5756000D01*
X4890000Y-5656000D02*
X4790000Y-5756000D01*
X4790000Y-5910000D02*
X4890000Y-6010000D01*
X4890000Y-5910000D02*
X4790000Y-6010000D01*
X4790000Y-6164000D02*
X4890000Y-6264000D01*
X4890000Y-6164000D02*
X4790000Y-6264000D01*
X4790000Y-6418000D02*
X4890000Y-6518000D01*
X4890000Y-6418000D02*
X4790000Y-6518000D01*
X4790000Y-6672000D02*
X4890000Y-6772000D01*
X4890000Y-6672000D02*
X4790000Y-6772000D01*
X4790000Y-6926000D02*
X4890000Y-7026000D01*
X4890000Y-6926000D02*
X4790000Y-7026000D01*
X4790000Y-7180000D02*
X4890000Y-7280000D01*
X4890000Y-7180000D02*
X4790000Y-7280000D01*
X4790000Y-7434000D02*
X4890000Y-7534000D01*
X4890000Y-7434000D02*
X4790000Y-7534000D01*
X4790500Y-8196500D02*
X4890500Y-8296500D01*
X4890500Y-8196500D02*
X4790500Y-8296500D01*
X4790500Y-8450500D02*
X4890500Y-8550500D01*
X4890500Y-8450500D02*
X4790500Y-8550500D01*
X4790500Y-8704500D02*
X4890500Y-8804500D01*
X4890500Y-8704500D02*
X4790500Y-8804500D01*
X4790500Y-8958500D02*
X4890500Y-9058500D01*
X4890500Y-8958500D02*
X4790500Y-9058500D01*
X4790500Y-9212500D02*
X4890500Y-9312500D01*
X4890500Y-9212500D02*
X4790500Y-9312500D01*
X4790500Y-9466500D02*
X4890500Y-9566500D01*
X4890500Y-9466500D02*
X4790500Y-9566500D01*
X4790500Y-9720500D02*
X4890500Y-9820500D01*
X4890500Y-9720500D02*
X4790500Y-9820500D01*
X4790500Y-9974500D02*
X4890500Y-10074500D01*
X4890500Y-9974500D02*
X4790500Y-10074500D01*
X4790500Y-10482500D02*
X4890500Y-10582500D01*
X4890500Y-10482500D02*
X4790500Y-10582500D01*
X4790500Y-10736500D02*
X4890500Y-10836500D01*
X4890500Y-10736500D02*
X4790500Y-10836500D01*
X4791000Y-8196000D02*
X4891000Y-8296000D01*
X4891000Y-8196000D02*
X4791000Y-8296000D01*
X4791000Y-8450000D02*
X4891000Y-8550000D01*
X4891000Y-8450000D02*
X4791000Y-8550000D01*
X4791000Y-8704000D02*
X4891000Y-8804000D01*
X4891000Y-8704000D02*
X4791000Y-8804000D01*
X4791000Y-8958000D02*
X4891000Y-9058000D01*
X4891000Y-8958000D02*
X4791000Y-9058000D01*
X4791000Y-9212000D02*
X4891000Y-9312000D01*
X4891000Y-9212000D02*
X4791000Y-9312000D01*
X4791000Y-9466000D02*
X4891000Y-9566000D01*
X4891000Y-9466000D02*
X4791000Y-9566000D01*
X4791000Y-9720000D02*
X4891000Y-9820000D01*
X4891000Y-9720000D02*
X4791000Y-9820000D01*
X4791000Y-9974000D02*
X4891000Y-10074000D01*
X4891000Y-9974000D02*
X4791000Y-10074000D01*
X4791000Y-10482000D02*
X4891000Y-10582000D01*
X4891000Y-10482000D02*
X4791000Y-10582000D01*
X4791000Y-10736000D02*
X4891000Y-10836000D01*
X4891000Y-10736000D02*
X4791000Y-10836000D01*
X5043500Y-4894500D02*
X5143500Y-4994500D01*
X5143500Y-4894500D02*
X5043500Y-4994500D01*
X5043500Y-5148500D02*
X5143500Y-5248500D01*
X5143500Y-5148500D02*
X5043500Y-5248500D01*
X5043500Y-5656500D02*
X5143500Y-5756500D01*
X5143500Y-5656500D02*
X5043500Y-5756500D01*
X5043500Y-5910500D02*
X5143500Y-6010500D01*
X5143500Y-5910500D02*
X5043500Y-6010500D01*
X5043500Y-6164500D02*
X5143500Y-6264500D01*
X5143500Y-6164500D02*
X5043500Y-6264500D01*
X5043500Y-6418500D02*
X5143500Y-6518500D01*
X5143500Y-6418500D02*
X5043500Y-6518500D01*
X5043500Y-6672500D02*
X5143500Y-6772500D01*
X5143500Y-6672500D02*
X5043500Y-6772500D01*
X5043500Y-6926500D02*
X5143500Y-7026500D01*
X5143500Y-6926500D02*
X5043500Y-7026500D01*
X5043500Y-7180500D02*
X5143500Y-7280500D01*
X5143500Y-7180500D02*
X5043500Y-7280500D01*
X5043500Y-7434500D02*
X5143500Y-7534500D01*
X5143500Y-7434500D02*
X5043500Y-7534500D01*
X5044000Y-4894000D02*
X5144000Y-4994000D01*
X5144000Y-4894000D02*
X5044000Y-4994000D01*
X5044000Y-5148000D02*
X5144000Y-5248000D01*
X5144000Y-5148000D02*
X5044000Y-5248000D01*
X5044000Y-5656000D02*
X5144000Y-5756000D01*
X5144000Y-5656000D02*
X5044000Y-5756000D01*
X5044000Y-5910000D02*
X5144000Y-6010000D01*
X5144000Y-5910000D02*
X5044000Y-6010000D01*
X5044000Y-6164000D02*
X5144000Y-6264000D01*
X5144000Y-6164000D02*
X5044000Y-6264000D01*
X5044000Y-6418000D02*
X5144000Y-6518000D01*
X5144000Y-6418000D02*
X5044000Y-6518000D01*
X5044000Y-6672000D02*
X5144000Y-6772000D01*
X5144000Y-6672000D02*
X5044000Y-6772000D01*
X5044000Y-6926000D02*
X5144000Y-7026000D01*
X5144000Y-6926000D02*
X5044000Y-7026000D01*
X5044000Y-7180000D02*
X5144000Y-7280000D01*
X5144000Y-7180000D02*
X5044000Y-7280000D01*
X5044000Y-7434000D02*
X5144000Y-7534000D01*
X5144000Y-7434000D02*
X5044000Y-7534000D01*
X5044500Y-8196500D02*
X5144500Y-8296500D01*
X5144500Y-8196500D02*
X5044500Y-8296500D01*
X5044500Y-8450500D02*
X5144500Y-8550500D01*
X5144500Y-8450500D02*
X5044500Y-8550500D01*
X5044500Y-8704500D02*
X5144500Y-8804500D01*
X5144500Y-8704500D02*
X5044500Y-8804500D01*
X5044500Y-8958500D02*
X5144500Y-9058500D01*
X5144500Y-8958500D02*
X5044500Y-9058500D01*
X5044500Y-9212500D02*
X5144500Y-9312500D01*
X5144500Y-9212500D02*
X5044500Y-9312500D01*
X5044500Y-9466500D02*
X5144500Y-9566500D01*
X5144500Y-9466500D02*
X5044500Y-9566500D01*
X5044500Y-9720500D02*
X5144500Y-9820500D01*
X5144500Y-9720500D02*
X5044500Y-9820500D01*
X5044500Y-9974500D02*
X5144500Y-10074500D01*
X5144500Y-9974500D02*
X5044500Y-10074500D01*
X5044500Y-10482500D02*
X5144500Y-10582500D01*
X5144500Y-10482500D02*
X5044500Y-10582500D01*
X5044500Y-10736500D02*
X5144500Y-10836500D01*
X5144500Y-10736500D02*
X5044500Y-10836500D01*
X5045000Y-8196000D02*
X5145000Y-8296000D01*
X5145000Y-8196000D02*
X5045000Y-8296000D01*
X5045000Y-8450000D02*
X5145000Y-8550000D01*
X5145000Y-8450000D02*
X5045000Y-8550000D01*
X5045000Y-8704000D02*
X5145000Y-8804000D01*
X5145000Y-8704000D02*
X5045000Y-8804000D01*
X5045000Y-8958000D02*
X5145000Y-9058000D01*
X5145000Y-8958000D02*
X5045000Y-9058000D01*
X5045000Y-9212000D02*
X5145000Y-9312000D01*
X5145000Y-9212000D02*
X5045000Y-9312000D01*
X5045000Y-9466000D02*
X5145000Y-9566000D01*
X5145000Y-9466000D02*
X5045000Y-9566000D01*
X5045000Y-9720000D02*
X5145000Y-9820000D01*
X5145000Y-9720000D02*
X5045000Y-9820000D01*
X5045000Y-9974000D02*
X5145000Y-10074000D01*
X5145000Y-9974000D02*
X5045000Y-10074000D01*
X5045000Y-10482000D02*
X5145000Y-10582000D01*
X5145000Y-10482000D02*
X5045000Y-10582000D01*
X5045000Y-10736000D02*
X5145000Y-10836000D01*
X5145000Y-10736000D02*
X5045000Y-10836000D01*
X5297500Y-4894500D02*
X5397500Y-4994500D01*
X5397500Y-4894500D02*
X5297500Y-4994500D01*
X5297500Y-5148500D02*
X5397500Y-5248500D01*
X5397500Y-5148500D02*
X5297500Y-5248500D01*
X5297500Y-5656500D02*
X5397500Y-5756500D01*
X5397500Y-5656500D02*
X5297500Y-5756500D01*
X5297500Y-5910500D02*
X5397500Y-6010500D01*
X5397500Y-5910500D02*
X5297500Y-6010500D01*
X5297500Y-6164500D02*
X5397500Y-6264500D01*
X5397500Y-6164500D02*
X5297500Y-6264500D01*
X5297500Y-6418500D02*
X5397500Y-6518500D01*
X5397500Y-6418500D02*
X5297500Y-6518500D01*
X5297500Y-6672500D02*
X5397500Y-6772500D01*
X5397500Y-6672500D02*
X5297500Y-6772500D01*
X5297500Y-6926500D02*
X5397500Y-7026500D01*
X5397500Y-6926500D02*
X5297500Y-7026500D01*
X5297500Y-7180500D02*
X5397500Y-7280500D01*
X5397500Y-7180500D02*
X5297500Y-7280500D01*
X5297500Y-7434500D02*
X5397500Y-7534500D01*
X5397500Y-7434500D02*
X5297500Y-7534500D01*
X5298000Y-4894000D02*
X5398000Y-4994000D01*
X5398000Y-4894000D02*
X5298000Y-4994000D01*
X5298000Y-5148000D02*
X5398000Y-5248000D01*
X5398000Y-5148000D02*
X5298000Y-5248000D01*
X5298000Y-5656000D02*
X5398000Y-5756000D01*
X5398000Y-5656000D02*
X5298000Y-5756000D01*
X5298000Y-5910000D02*
X5398000Y-6010000D01*
X5398000Y-5910000D02*
X5298000Y-6010000D01*
X5298000Y-6164000D02*
X5398000Y-6264000D01*
X5398000Y-6164000D02*
X5298000Y-6264000D01*
X5298000Y-6418000D02*
X5398000Y-6518000D01*
X5398000Y-6418000D02*
X5298000Y-6518000D01*
X5298000Y-6672000D02*
X5398000Y-6772000D01*
X5398000Y-6672000D02*
X5298000Y-6772000D01*
X5298000Y-6926000D02*
X5398000Y-7026000D01*
X5398000Y-6926000D02*
X5298000Y-7026000D01*
X5298000Y-7180000D02*
X5398000Y-7280000D01*
X5398000Y-7180000D02*
X5298000Y-7280000D01*
X5298000Y-7434000D02*
X5398000Y-7534000D01*
X5398000Y-7434000D02*
X5298000Y-7534000D01*
X5298500Y-8196500D02*
X5398500Y-8296500D01*
X5398500Y-8196500D02*
X5298500Y-8296500D01*
X5298500Y-8450500D02*
X5398500Y-8550500D01*
X5398500Y-8450500D02*
X5298500Y-8550500D01*
X5298500Y-8704500D02*
X5398500Y-8804500D01*
X5398500Y-8704500D02*
X5298500Y-8804500D01*
X5298500Y-8958500D02*
X5398500Y-9058500D01*
X5398500Y-8958500D02*
X5298500Y-9058500D01*
X5298500Y-9212500D02*
X5398500Y-9312500D01*
X5398500Y-9212500D02*
X5298500Y-9312500D01*
X5298500Y-9466500D02*
X5398500Y-9566500D01*
X5398500Y-9466500D02*
X5298500Y-9566500D01*
X5298500Y-9720500D02*
X5398500Y-9820500D01*
X5398500Y-9720500D02*
X5298500Y-9820500D01*
X5298500Y-9974500D02*
X5398500Y-10074500D01*
X5398500Y-9974500D02*
X5298500Y-10074500D01*
X5298500Y-10482500D02*
X5398500Y-10582500D01*
X5398500Y-10482500D02*
X5298500Y-10582500D01*
X5298500Y-10736500D02*
X5398500Y-10836500D01*
X5398500Y-10736500D02*
X5298500Y-10836500D01*
X5299000Y-8196000D02*
X5399000Y-8296000D01*
X5399000Y-8196000D02*
X5299000Y-8296000D01*
X5299000Y-8450000D02*
X5399000Y-8550000D01*
X5399000Y-8450000D02*
X5299000Y-8550000D01*
X5299000Y-8704000D02*
X5399000Y-8804000D01*
X5399000Y-8704000D02*
X5299000Y-8804000D01*
X5299000Y-8958000D02*
X5399000Y-9058000D01*
X5399000Y-8958000D02*
X5299000Y-9058000D01*
X5299000Y-9212000D02*
X5399000Y-9312000D01*
X5399000Y-9212000D02*
X5299000Y-9312000D01*
X5299000Y-9466000D02*
X5399000Y-9566000D01*
X5399000Y-9466000D02*
X5299000Y-9566000D01*
X5299000Y-9720000D02*
X5399000Y-9820000D01*
X5399000Y-9720000D02*
X5299000Y-9820000D01*
X5299000Y-9974000D02*
X5399000Y-10074000D01*
X5399000Y-9974000D02*
X5299000Y-10074000D01*
X5299000Y-10482000D02*
X5399000Y-10582000D01*
X5399000Y-10482000D02*
X5299000Y-10582000D01*
X5299000Y-10736000D02*
X5399000Y-10836000D01*
X5399000Y-10736000D02*
X5299000Y-10836000D01*
X5551500Y-4894500D02*
X5651500Y-4994500D01*
X5651500Y-4894500D02*
X5551500Y-4994500D01*
X5551500Y-5148500D02*
X5651500Y-5248500D01*
X5651500Y-5148500D02*
X5551500Y-5248500D01*
X5551500Y-5656500D02*
X5651500Y-5756500D01*
X5651500Y-5656500D02*
X5551500Y-5756500D01*
X5551500Y-5910500D02*
X5651500Y-6010500D01*
X5651500Y-5910500D02*
X5551500Y-6010500D01*
X5551500Y-6164500D02*
X5651500Y-6264500D01*
X5651500Y-6164500D02*
X5551500Y-6264500D01*
X5551500Y-6418500D02*
X5651500Y-6518500D01*
X5651500Y-6418500D02*
X5551500Y-6518500D01*
X5551500Y-6672500D02*
X5651500Y-6772500D01*
X5651500Y-6672500D02*
X5551500Y-6772500D01*
X5551500Y-6926500D02*
X5651500Y-7026500D01*
X5651500Y-6926500D02*
X5551500Y-7026500D01*
X5551500Y-7180500D02*
X5651500Y-7280500D01*
X5651500Y-7180500D02*
X5551500Y-7280500D01*
X5551500Y-7434500D02*
X5651500Y-7534500D01*
X5651500Y-7434500D02*
X5551500Y-7534500D01*
X5552000Y-4894000D02*
X5652000Y-4994000D01*
X5652000Y-4894000D02*
X5552000Y-4994000D01*
X5552000Y-5148000D02*
X5652000Y-5248000D01*
X5652000Y-5148000D02*
X5552000Y-5248000D01*
X5552000Y-5656000D02*
X5652000Y-5756000D01*
X5652000Y-5656000D02*
X5552000Y-5756000D01*
X5552000Y-5910000D02*
X5652000Y-6010000D01*
X5652000Y-5910000D02*
X5552000Y-6010000D01*
X5552000Y-6164000D02*
X5652000Y-6264000D01*
X5652000Y-6164000D02*
X5552000Y-6264000D01*
X5552000Y-6418000D02*
X5652000Y-6518000D01*
X5652000Y-6418000D02*
X5552000Y-6518000D01*
X5552000Y-6672000D02*
X5652000Y-6772000D01*
X5652000Y-6672000D02*
X5552000Y-6772000D01*
X5552000Y-6926000D02*
X5652000Y-7026000D01*
X5652000Y-6926000D02*
X5552000Y-7026000D01*
X5552000Y-7180000D02*
X5652000Y-7280000D01*
X5652000Y-7180000D02*
X5552000Y-7280000D01*
X5552000Y-7434000D02*
X5652000Y-7534000D01*
X5652000Y-7434000D02*
X5552000Y-7534000D01*
X5552500Y-8196500D02*
X5652500Y-8296500D01*
X5652500Y-8196500D02*
X5552500Y-8296500D01*
X5552500Y-8450500D02*
X5652500Y-8550500D01*
X5652500Y-8450500D02*
X5552500Y-8550500D01*
X5552500Y-8704500D02*
X5652500Y-8804500D01*
X5652500Y-8704500D02*
X5552500Y-8804500D01*
X5552500Y-8958500D02*
X5652500Y-9058500D01*
X5652500Y-8958500D02*
X5552500Y-9058500D01*
X5552500Y-9212500D02*
X5652500Y-9312500D01*
X5652500Y-9212500D02*
X5552500Y-9312500D01*
X5552500Y-9466500D02*
X5652500Y-9566500D01*
X5652500Y-9466500D02*
X5552500Y-9566500D01*
X5552500Y-9720500D02*
X5652500Y-9820500D01*
X5652500Y-9720500D02*
X5552500Y-9820500D01*
X5552500Y-9974500D02*
X5652500Y-10074500D01*
X5652500Y-9974500D02*
X5552500Y-10074500D01*
X5552500Y-10482500D02*
X5652500Y-10582500D01*
X5652500Y-10482500D02*
X5552500Y-10582500D01*
X5552500Y-10736500D02*
X5652500Y-10836500D01*
X5652500Y-10736500D02*
X5552500Y-10836500D01*
X5553000Y-8196000D02*
X5653000Y-8296000D01*
X5653000Y-8196000D02*
X5553000Y-8296000D01*
X5553000Y-8450000D02*
X5653000Y-8550000D01*
X5653000Y-8450000D02*
X5553000Y-8550000D01*
X5553000Y-8704000D02*
X5653000Y-8804000D01*
X5653000Y-8704000D02*
X5553000Y-8804000D01*
X5553000Y-8958000D02*
X5653000Y-9058000D01*
X5653000Y-8958000D02*
X5553000Y-9058000D01*
X5553000Y-9212000D02*
X5653000Y-9312000D01*
X5653000Y-9212000D02*
X5553000Y-9312000D01*
X5553000Y-9466000D02*
X5653000Y-9566000D01*
X5653000Y-9466000D02*
X5553000Y-9566000D01*
X5553000Y-9720000D02*
X5653000Y-9820000D01*
X5653000Y-9720000D02*
X5553000Y-9820000D01*
X5553000Y-9974000D02*
X5653000Y-10074000D01*
X5653000Y-9974000D02*
X5553000Y-10074000D01*
X5553000Y-10482000D02*
X5653000Y-10582000D01*
X5653000Y-10482000D02*
X5553000Y-10582000D01*
X5553000Y-10736000D02*
X5653000Y-10836000D01*
X5653000Y-10736000D02*
X5553000Y-10836000D01*
X5805500Y-4894500D02*
X5905500Y-4994500D01*
X5905500Y-4894500D02*
X5805500Y-4994500D01*
X5805500Y-5148500D02*
X5905500Y-5248500D01*
X5905500Y-5148500D02*
X5805500Y-5248500D01*
X5805500Y-5656500D02*
X5905500Y-5756500D01*
X5905500Y-5656500D02*
X5805500Y-5756500D01*
X5805500Y-5910500D02*
X5905500Y-6010500D01*
X5905500Y-5910500D02*
X5805500Y-6010500D01*
X5805500Y-6164500D02*
X5905500Y-6264500D01*
X5905500Y-6164500D02*
X5805500Y-6264500D01*
X5805500Y-6418500D02*
X5905500Y-6518500D01*
X5905500Y-6418500D02*
X5805500Y-6518500D01*
X5805500Y-6672500D02*
X5905500Y-6772500D01*
X5905500Y-6672500D02*
X5805500Y-6772500D01*
X5805500Y-6926500D02*
X5905500Y-7026500D01*
X5905500Y-6926500D02*
X5805500Y-7026500D01*
X5805500Y-7180500D02*
X5905500Y-7280500D01*
X5905500Y-7180500D02*
X5805500Y-7280500D01*
X5805500Y-7434500D02*
X5905500Y-7534500D01*
X5905500Y-7434500D02*
X5805500Y-7534500D01*
X5806000Y-4894000D02*
X5906000Y-4994000D01*
X5906000Y-4894000D02*
X5806000Y-4994000D01*
X5806000Y-5148000D02*
X5906000Y-5248000D01*
X5906000Y-5148000D02*
X5806000Y-5248000D01*
X5806000Y-5656000D02*
X5906000Y-5756000D01*
X5906000Y-5656000D02*
X5806000Y-5756000D01*
X5806000Y-5910000D02*
X5906000Y-6010000D01*
X5906000Y-5910000D02*
X5806000Y-6010000D01*
X5806000Y-6164000D02*
X5906000Y-6264000D01*
X5906000Y-6164000D02*
X5806000Y-6264000D01*
X5806000Y-6418000D02*
X5906000Y-6518000D01*
X5906000Y-6418000D02*
X5806000Y-6518000D01*
X5806000Y-6672000D02*
X5906000Y-6772000D01*
X5906000Y-6672000D02*
X5806000Y-6772000D01*
X5806000Y-6926000D02*
X5906000Y-7026000D01*
X5906000Y-6926000D02*
X5806000Y-7026000D01*
X5806000Y-7180000D02*
X5906000Y-7280000D01*
X5906000Y-7180000D02*
X5806000Y-7280000D01*
X5806000Y-7434000D02*
X5906000Y-7534000D01*
X5906000Y-7434000D02*
X5806000Y-7534000D01*
X5806500Y-8196500D02*
X5906500Y-8296500D01*
X5906500Y-8196500D02*
X5806500Y-8296500D01*
X5806500Y-8450500D02*
X5906500Y-8550500D01*
X5906500Y-8450500D02*
X5806500Y-8550500D01*
X5806500Y-8704500D02*
X5906500Y-8804500D01*
X5906500Y-8704500D02*
X5806500Y-8804500D01*
X5806500Y-8958500D02*
X5906500Y-9058500D01*
X5906500Y-8958500D02*
X5806500Y-9058500D01*
X5806500Y-9212500D02*
X5906500Y-9312500D01*
X5906500Y-9212500D02*
X5806500Y-9312500D01*
X5806500Y-9466500D02*
X5906500Y-9566500D01*
X5906500Y-9466500D02*
X5806500Y-9566500D01*
X5806500Y-9720500D02*
X5906500Y-9820500D01*
X5906500Y-9720500D02*
X5806500Y-9820500D01*
X5806500Y-9974500D02*
X5906500Y-10074500D01*
X5906500Y-9974500D02*
X5806500Y-10074500D01*
X5806500Y-10482500D02*
X5906500Y-10582500D01*
X5906500Y-10482500D02*
X5806500Y-10582500D01*
X5806500Y-10736500D02*
X5906500Y-10836500D01*
X5906500Y-10736500D02*
X5806500Y-10836500D01*
X5807000Y-8196000D02*
X5907000Y-8296000D01*
X5907000Y-8196000D02*
X5807000Y-8296000D01*
X5807000Y-8450000D02*
X5907000Y-8550000D01*
X5907000Y-8450000D02*
X5807000Y-8550000D01*
X5807000Y-8704000D02*
X5907000Y-8804000D01*
X5907000Y-8704000D02*
X5807000Y-8804000D01*
X5807000Y-8958000D02*
X5907000Y-9058000D01*
X5907000Y-8958000D02*
X5807000Y-9058000D01*
X5807000Y-9212000D02*
X5907000Y-9312000D01*
X5907000Y-9212000D02*
X5807000Y-9312000D01*
X5807000Y-9466000D02*
X5907000Y-9566000D01*
X5907000Y-9466000D02*
X5807000Y-9566000D01*
X5807000Y-9720000D02*
X5907000Y-9820000D01*
X5907000Y-9720000D02*
X5807000Y-9820000D01*
X5807000Y-9974000D02*
X5907000Y-10074000D01*
X5907000Y-9974000D02*
X5807000Y-10074000D01*
X5807000Y-10482000D02*
X5907000Y-10582000D01*
X5907000Y-10482000D02*
X5807000Y-10582000D01*
X5807000Y-10736000D02*
X5907000Y-10836000D01*
X5907000Y-10736000D02*
X5807000Y-10836000D01*
X6059500Y-4894500D02*
X6159500Y-4994500D01*
X6159500Y-4894500D02*
X6059500Y-4994500D01*
X6059500Y-5148500D02*
X6159500Y-5248500D01*
X6159500Y-5148500D02*
X6059500Y-5248500D01*
X6059500Y-5656500D02*
X6159500Y-5756500D01*
X6159500Y-5656500D02*
X6059500Y-5756500D01*
X6059500Y-5910500D02*
X6159500Y-6010500D01*
X6159500Y-5910500D02*
X6059500Y-6010500D01*
X6059500Y-6164500D02*
X6159500Y-6264500D01*
X6159500Y-6164500D02*
X6059500Y-6264500D01*
X6059500Y-6418500D02*
X6159500Y-6518500D01*
X6159500Y-6418500D02*
X6059500Y-6518500D01*
X6059500Y-6672500D02*
X6159500Y-6772500D01*
X6159500Y-6672500D02*
X6059500Y-6772500D01*
X6059500Y-6926500D02*
X6159500Y-7026500D01*
X6159500Y-6926500D02*
X6059500Y-7026500D01*
X6059500Y-7180500D02*
X6159500Y-7280500D01*
X6159500Y-7180500D02*
X6059500Y-7280500D01*
X6059500Y-7434500D02*
X6159500Y-7534500D01*
X6159500Y-7434500D02*
X6059500Y-7534500D01*
X6060000Y-4894000D02*
X6160000Y-4994000D01*
X6160000Y-4894000D02*
X6060000Y-4994000D01*
X6060000Y-5148000D02*
X6160000Y-5248000D01*
X6160000Y-5148000D02*
X6060000Y-5248000D01*
X6060000Y-5656000D02*
X6160000Y-5756000D01*
X6160000Y-5656000D02*
X6060000Y-5756000D01*
X6060000Y-5910000D02*
X6160000Y-6010000D01*
X6160000Y-5910000D02*
X6060000Y-6010000D01*
X6060000Y-6164000D02*
X6160000Y-6264000D01*
X6160000Y-6164000D02*
X6060000Y-6264000D01*
X6060000Y-6418000D02*
X6160000Y-6518000D01*
X6160000Y-6418000D02*
X6060000Y-6518000D01*
X6060000Y-6672000D02*
X6160000Y-6772000D01*
X6160000Y-6672000D02*
X6060000Y-6772000D01*
X6060000Y-6926000D02*
X6160000Y-7026000D01*
X6160000Y-6926000D02*
X6060000Y-7026000D01*
X6060000Y-7180000D02*
X6160000Y-7280000D01*
X6160000Y-7180000D02*
X6060000Y-7280000D01*
X6060000Y-7434000D02*
X6160000Y-7534000D01*
X6160000Y-7434000D02*
X6060000Y-7534000D01*
X6060500Y-8196500D02*
X6160500Y-8296500D01*
X6160500Y-8196500D02*
X6060500Y-8296500D01*
X6060500Y-8450500D02*
X6160500Y-8550500D01*
X6160500Y-8450500D02*
X6060500Y-8550500D01*
X6060500Y-8704500D02*
X6160500Y-8804500D01*
X6160500Y-8704500D02*
X6060500Y-8804500D01*
X6060500Y-8958500D02*
X6160500Y-9058500D01*
X6160500Y-8958500D02*
X6060500Y-9058500D01*
X6060500Y-9212500D02*
X6160500Y-9312500D01*
X6160500Y-9212500D02*
X6060500Y-9312500D01*
X6060500Y-9466500D02*
X6160500Y-9566500D01*
X6160500Y-9466500D02*
X6060500Y-9566500D01*
X6060500Y-9720500D02*
X6160500Y-9820500D01*
X6160500Y-9720500D02*
X6060500Y-9820500D01*
X6060500Y-9974500D02*
X6160500Y-10074500D01*
X6160500Y-9974500D02*
X6060500Y-10074500D01*
X6060500Y-10482500D02*
X6160500Y-10582500D01*
X6160500Y-10482500D02*
X6060500Y-10582500D01*
X6060500Y-10736500D02*
X6160500Y-10836500D01*
X6160500Y-10736500D02*
X6060500Y-10836500D01*
X6061000Y-8196000D02*
X6161000Y-8296000D01*
X6161000Y-8196000D02*
X6061000Y-8296000D01*
X6061000Y-8450000D02*
X6161000Y-8550000D01*
X6161000Y-8450000D02*
X6061000Y-8550000D01*
X6061000Y-8704000D02*
X6161000Y-8804000D01*
X6161000Y-8704000D02*
X6061000Y-8804000D01*
X6061000Y-8958000D02*
X6161000Y-9058000D01*
X6161000Y-8958000D02*
X6061000Y-9058000D01*
X6061000Y-9212000D02*
X6161000Y-9312000D01*
X6161000Y-9212000D02*
X6061000Y-9312000D01*
X6061000Y-9466000D02*
X6161000Y-9566000D01*
X6161000Y-9466000D02*
X6061000Y-9566000D01*
X6061000Y-9720000D02*
X6161000Y-9820000D01*
X6161000Y-9720000D02*
X6061000Y-9820000D01*
X6061000Y-9974000D02*
X6161000Y-10074000D01*
X6161000Y-9974000D02*
X6061000Y-10074000D01*
X6061000Y-10482000D02*
X6161000Y-10582000D01*
X6161000Y-10482000D02*
X6061000Y-10582000D01*
X6061000Y-10736000D02*
X6161000Y-10836000D01*
X6161000Y-10736000D02*
X6061000Y-10836000D01*
X6313500Y-4894500D02*
X6413500Y-4994500D01*
X6413500Y-4894500D02*
X6313500Y-4994500D01*
X6313500Y-5148500D02*
X6413500Y-5248500D01*
X6413500Y-5148500D02*
X6313500Y-5248500D01*
X6313500Y-5656500D02*
X6413500Y-5756500D01*
X6413500Y-5656500D02*
X6313500Y-5756500D01*
X6313500Y-5910500D02*
X6413500Y-6010500D01*
X6413500Y-5910500D02*
X6313500Y-6010500D01*
X6313500Y-6164500D02*
X6413500Y-6264500D01*
X6413500Y-6164500D02*
X6313500Y-6264500D01*
X6313500Y-6418500D02*
X6413500Y-6518500D01*
X6413500Y-6418500D02*
X6313500Y-6518500D01*
X6313500Y-6672500D02*
X6413500Y-6772500D01*
X6413500Y-6672500D02*
X6313500Y-6772500D01*
X6313500Y-6926500D02*
X6413500Y-7026500D01*
X6413500Y-6926500D02*
X6313500Y-7026500D01*
X6313500Y-7180500D02*
X6413500Y-7280500D01*
X6413500Y-7180500D02*
X6313500Y-7280500D01*
X6313500Y-7434500D02*
X6413500Y-7534500D01*
X6413500Y-7434500D02*
X6313500Y-7534500D01*
X6314000Y-4894000D02*
X6414000Y-4994000D01*
X6414000Y-4894000D02*
X6314000Y-4994000D01*
X6314000Y-5148000D02*
X6414000Y-5248000D01*
X6414000Y-5148000D02*
X6314000Y-5248000D01*
X6314000Y-5656000D02*
X6414000Y-5756000D01*
X6414000Y-5656000D02*
X6314000Y-5756000D01*
X6314000Y-5910000D02*
X6414000Y-6010000D01*
X6414000Y-5910000D02*
X6314000Y-6010000D01*
X6314000Y-6164000D02*
X6414000Y-6264000D01*
X6414000Y-6164000D02*
X6314000Y-6264000D01*
X6314000Y-6418000D02*
X6414000Y-6518000D01*
X6414000Y-6418000D02*
X6314000Y-6518000D01*
X6314000Y-6672000D02*
X6414000Y-6772000D01*
X6414000Y-6672000D02*
X6314000Y-6772000D01*
X6314000Y-6926000D02*
X6414000Y-7026000D01*
X6414000Y-6926000D02*
X6314000Y-7026000D01*
X6314000Y-7180000D02*
X6414000Y-7280000D01*
X6414000Y-7180000D02*
X6314000Y-7280000D01*
X6314000Y-7434000D02*
X6414000Y-7534000D01*
X6414000Y-7434000D02*
X6314000Y-7534000D01*
X6314500Y-8196500D02*
X6414500Y-8296500D01*
X6414500Y-8196500D02*
X6314500Y-8296500D01*
X6314500Y-8450500D02*
X6414500Y-8550500D01*
X6414500Y-8450500D02*
X6314500Y-8550500D01*
X6314500Y-8704500D02*
X6414500Y-8804500D01*
X6414500Y-8704500D02*
X6314500Y-8804500D01*
X6314500Y-8958500D02*
X6414500Y-9058500D01*
X6414500Y-8958500D02*
X6314500Y-9058500D01*
X6314500Y-9212500D02*
X6414500Y-9312500D01*
X6414500Y-9212500D02*
X6314500Y-9312500D01*
X6314500Y-9466500D02*
X6414500Y-9566500D01*
X6414500Y-9466500D02*
X6314500Y-9566500D01*
X6314500Y-9720500D02*
X6414500Y-9820500D01*
X6414500Y-9720500D02*
X6314500Y-9820500D01*
X6314500Y-9974500D02*
X6414500Y-10074500D01*
X6414500Y-9974500D02*
X6314500Y-10074500D01*
X6314500Y-10482500D02*
X6414500Y-10582500D01*
X6414500Y-10482500D02*
X6314500Y-10582500D01*
X6314500Y-10736500D02*
X6414500Y-10836500D01*
X6414500Y-10736500D02*
X6314500Y-10836500D01*
X6315000Y-8196000D02*
X6415000Y-8296000D01*
X6415000Y-8196000D02*
X6315000Y-8296000D01*
X6315000Y-8450000D02*
X6415000Y-8550000D01*
X6415000Y-8450000D02*
X6315000Y-8550000D01*
X6315000Y-8704000D02*
X6415000Y-8804000D01*
X6415000Y-8704000D02*
X6315000Y-8804000D01*
X6315000Y-8958000D02*
X6415000Y-9058000D01*
X6415000Y-8958000D02*
X6315000Y-9058000D01*
X6315000Y-9212000D02*
X6415000Y-9312000D01*
X6415000Y-9212000D02*
X6315000Y-9312000D01*
X6315000Y-9466000D02*
X6415000Y-9566000D01*
X6415000Y-9466000D02*
X6315000Y-9566000D01*
X6315000Y-9720000D02*
X6415000Y-9820000D01*
X6415000Y-9720000D02*
X6315000Y-9820000D01*
X6315000Y-9974000D02*
X6415000Y-10074000D01*
X6415000Y-9974000D02*
X6315000Y-10074000D01*
X6315000Y-10482000D02*
X6415000Y-10582000D01*
X6415000Y-10482000D02*
X6315000Y-10582000D01*
X6315000Y-10736000D02*
X6415000Y-10836000D01*
X6415000Y-10736000D02*
X6315000Y-10836000D01*
X6567500Y-4894500D02*
X6667500Y-4994500D01*
X6667500Y-4894500D02*
X6567500Y-4994500D01*
X6567500Y-5148500D02*
X6667500Y-5248500D01*
X6667500Y-5148500D02*
X6567500Y-5248500D01*
X6567500Y-5656500D02*
X6667500Y-5756500D01*
X6667500Y-5656500D02*
X6567500Y-5756500D01*
X6567500Y-5910500D02*
X6667500Y-6010500D01*
X6667500Y-5910500D02*
X6567500Y-6010500D01*
X6567500Y-6164500D02*
X6667500Y-6264500D01*
X6667500Y-6164500D02*
X6567500Y-6264500D01*
X6567500Y-6418500D02*
X6667500Y-6518500D01*
X6667500Y-6418500D02*
X6567500Y-6518500D01*
X6567500Y-6672500D02*
X6667500Y-6772500D01*
X6667500Y-6672500D02*
X6567500Y-6772500D01*
X6567500Y-6926500D02*
X6667500Y-7026500D01*
X6667500Y-6926500D02*
X6567500Y-7026500D01*
X6567500Y-7180500D02*
X6667500Y-7280500D01*
X6667500Y-7180500D02*
X6567500Y-7280500D01*
X6567500Y-7434500D02*
X6667500Y-7534500D01*
X6667500Y-7434500D02*
X6567500Y-7534500D01*
X6568000Y-4894000D02*
X6668000Y-4994000D01*
X6668000Y-4894000D02*
X6568000Y-4994000D01*
X6568000Y-5148000D02*
X6668000Y-5248000D01*
X6668000Y-5148000D02*
X6568000Y-5248000D01*
X6568000Y-5656000D02*
X6668000Y-5756000D01*
X6668000Y-5656000D02*
X6568000Y-5756000D01*
X6568000Y-5910000D02*
X6668000Y-6010000D01*
X6668000Y-5910000D02*
X6568000Y-6010000D01*
X6568000Y-6164000D02*
X6668000Y-6264000D01*
X6668000Y-6164000D02*
X6568000Y-6264000D01*
X6568000Y-6418000D02*
X6668000Y-6518000D01*
X6668000Y-6418000D02*
X6568000Y-6518000D01*
X6568000Y-6672000D02*
X6668000Y-6772000D01*
X6668000Y-6672000D02*
X6568000Y-6772000D01*
X6568000Y-6926000D02*
X6668000Y-7026000D01*
X6668000Y-6926000D02*
X6568000Y-7026000D01*
X6568000Y-7180000D02*
X6668000Y-7280000D01*
X6668000Y-7180000D02*
X6568000Y-7280000D01*
X6568000Y-7434000D02*
X6668000Y-7534000D01*
X6668000Y-7434000D02*
X6568000Y-7534000D01*
X6568500Y-8196500D02*
X6668500Y-8296500D01*
X6668500Y-8196500D02*
X6568500Y-8296500D01*
X6568500Y-8450500D02*
X6668500Y-8550500D01*
X6668500Y-8450500D02*
X6568500Y-8550500D01*
X6568500Y-8704500D02*
X6668500Y-8804500D01*
X6668500Y-8704500D02*
X6568500Y-8804500D01*
X6568500Y-8958500D02*
X6668500Y-9058500D01*
X6668500Y-8958500D02*
X6568500Y-9058500D01*
X6568500Y-9212500D02*
X6668500Y-9312500D01*
X6668500Y-9212500D02*
X6568500Y-9312500D01*
X6568500Y-9466500D02*
X6668500Y-9566500D01*
X6668500Y-9466500D02*
X6568500Y-9566500D01*
X6568500Y-9720500D02*
X6668500Y-9820500D01*
X6668500Y-9720500D02*
X6568500Y-9820500D01*
X6568500Y-9974500D02*
X6668500Y-10074500D01*
X6668500Y-9974500D02*
X6568500Y-10074500D01*
X6568500Y-10482500D02*
X6668500Y-10582500D01*
X6668500Y-10482500D02*
X6568500Y-10582500D01*
X6568500Y-10736500D02*
X6668500Y-10836500D01*
X6668500Y-10736500D02*
X6568500Y-10836500D01*
X6569000Y-8196000D02*
X6669000Y-8296000D01*
X6669000Y-8196000D02*
X6569000Y-8296000D01*
X6569000Y-8450000D02*
X6669000Y-8550000D01*
X6669000Y-8450000D02*
X6569000Y-8550000D01*
X6569000Y-8704000D02*
X6669000Y-8804000D01*
X6669000Y-8704000D02*
X6569000Y-8804000D01*
X6569000Y-8958000D02*
X6669000Y-9058000D01*
X6669000Y-8958000D02*
X6569000Y-9058000D01*
X6569000Y-9212000D02*
X6669000Y-9312000D01*
X6669000Y-9212000D02*
X6569000Y-9312000D01*
X6569000Y-9466000D02*
X6669000Y-9566000D01*
X6669000Y-9466000D02*
X6569000Y-9566000D01*
X6569000Y-9720000D02*
X6669000Y-9820000D01*
X6669000Y-9720000D02*
X6569000Y-9820000D01*
X6569000Y-9974000D02*
X6669000Y-10074000D01*
X6669000Y-9974000D02*
X6569000Y-10074000D01*
X6569000Y-10482000D02*
X6669000Y-10582000D01*
X6669000Y-10482000D02*
X6569000Y-10582000D01*
X6569000Y-10736000D02*
X6669000Y-10836000D01*
X6669000Y-10736000D02*
X6569000Y-10836000D01*
X6821500Y-4894500D02*
X6921500Y-4994500D01*
X6921500Y-4894500D02*
X6821500Y-4994500D01*
X6821500Y-5148500D02*
X6921500Y-5248500D01*
X6921500Y-5148500D02*
X6821500Y-5248500D01*
X6821500Y-5656500D02*
X6921500Y-5756500D01*
X6921500Y-5656500D02*
X6821500Y-5756500D01*
X6821500Y-5910500D02*
X6921500Y-6010500D01*
X6921500Y-5910500D02*
X6821500Y-6010500D01*
X6821500Y-6164500D02*
X6921500Y-6264500D01*
X6921500Y-6164500D02*
X6821500Y-6264500D01*
X6821500Y-6418500D02*
X6921500Y-6518500D01*
X6921500Y-6418500D02*
X6821500Y-6518500D01*
X6821500Y-6672500D02*
X6921500Y-6772500D01*
X6921500Y-6672500D02*
X6821500Y-6772500D01*
X6821500Y-6926500D02*
X6921500Y-7026500D01*
X6921500Y-6926500D02*
X6821500Y-7026500D01*
X6821500Y-7180500D02*
X6921500Y-7280500D01*
X6921500Y-7180500D02*
X6821500Y-7280500D01*
X6821500Y-7434500D02*
X6921500Y-7534500D01*
X6921500Y-7434500D02*
X6821500Y-7534500D01*
X6822000Y-4894000D02*
X6922000Y-4994000D01*
X6922000Y-4894000D02*
X6822000Y-4994000D01*
X6822000Y-5148000D02*
X6922000Y-5248000D01*
X6922000Y-5148000D02*
X6822000Y-5248000D01*
X6822000Y-5656000D02*
X6922000Y-5756000D01*
X6922000Y-5656000D02*
X6822000Y-5756000D01*
X6822000Y-5910000D02*
X6922000Y-6010000D01*
X6922000Y-5910000D02*
X6822000Y-6010000D01*
X6822000Y-6164000D02*
X6922000Y-6264000D01*
X6922000Y-6164000D02*
X6822000Y-6264000D01*
X6822000Y-6418000D02*
X6922000Y-6518000D01*
X6922000Y-6418000D02*
X6822000Y-6518000D01*
X6822000Y-6672000D02*
X6922000Y-6772000D01*
X6922000Y-6672000D02*
X6822000Y-6772000D01*
X6822000Y-6926000D02*
X6922000Y-7026000D01*
X6922000Y-6926000D02*
X6822000Y-7026000D01*
X6822000Y-7180000D02*
X6922000Y-7280000D01*
X6922000Y-7180000D02*
X6822000Y-7280000D01*
X6822000Y-7434000D02*
X6922000Y-7534000D01*
X6922000Y-7434000D02*
X6822000Y-7534000D01*
X6822500Y-8196500D02*
X6922500Y-8296500D01*
X6922500Y-8196500D02*
X6822500Y-8296500D01*
X6822500Y-8450500D02*
X6922500Y-8550500D01*
X6922500Y-8450500D02*
X6822500Y-8550500D01*
X6822500Y-8704500D02*
X6922500Y-8804500D01*
X6922500Y-8704500D02*
X6822500Y-8804500D01*
X6822500Y-8958500D02*
X6922500Y-9058500D01*
X6922500Y-8958500D02*
X6822500Y-9058500D01*
X6822500Y-9212500D02*
X6922500Y-9312500D01*
X6922500Y-9212500D02*
X6822500Y-9312500D01*
X6822500Y-9466500D02*
X6922500Y-9566500D01*
X6922500Y-9466500D02*
X6822500Y-9566500D01*
X6822500Y-9720500D02*
X6922500Y-9820500D01*
X6922500Y-9720500D02*
X6822500Y-9820500D01*
X6822500Y-9974500D02*
X6922500Y-10074500D01*
X6922500Y-9974500D02*
X6822500Y-10074500D01*
X6822500Y-10482500D02*
X6922500Y-10582500D01*
X6922500Y-10482500D02*
X6822500Y-10582500D01*
X6822500Y-10736500D02*
X6922500Y-10836500D01*
X6922500Y-10736500D02*
X6822500Y-10836500D01*
X6823000Y-8196000D02*
X6923000Y-8296000D01*
X6923000Y-8196000D02*
X6823000Y-8296000D01*
X6823000Y-8450000D02*
X6923000Y-8550000D01*
X6923000Y-8450000D02*
X6823000Y-8550000D01*
X6823000Y-8704000D02*
X6923000Y-8804000D01*
X6923000Y-8704000D02*
X6823000Y-8804000D01*
X6823000Y-8958000D02*
X6923000Y-9058000D01*
X6923000Y-8958000D02*
X6823000Y-9058000D01*
X6823000Y-9212000D02*
X6923000Y-9312000D01*
X6923000Y-9212000D02*
X6823000Y-9312000D01*
X6823000Y-9466000D02*
X6923000Y-9566000D01*
X6923000Y-9466000D02*
X6823000Y-9566000D01*
X6823000Y-9720000D02*
X6923000Y-9820000D01*
X6923000Y-9720000D02*
X6823000Y-9820000D01*
X6823000Y-9974000D02*
X6923000Y-10074000D01*
X6923000Y-9974000D02*
X6823000Y-10074000D01*
X6823000Y-10482000D02*
X6923000Y-10582000D01*
X6923000Y-10482000D02*
X6823000Y-10582000D01*
X6823000Y-10736000D02*
X6923000Y-10836000D01*
X6923000Y-10736000D02*
X6823000Y-10836000D01*
X7075500Y-4894500D02*
X7175500Y-4994500D01*
X7175500Y-4894500D02*
X7075500Y-4994500D01*
X7075500Y-5148500D02*
X7175500Y-5248500D01*
X7175500Y-5148500D02*
X7075500Y-5248500D01*
X7075500Y-5656500D02*
X7175500Y-5756500D01*
X7175500Y-5656500D02*
X7075500Y-5756500D01*
X7075500Y-5910500D02*
X7175500Y-6010500D01*
X7175500Y-5910500D02*
X7075500Y-6010500D01*
X7075500Y-6164500D02*
X7175500Y-6264500D01*
X7175500Y-6164500D02*
X7075500Y-6264500D01*
X7075500Y-6418500D02*
X7175500Y-6518500D01*
X7175500Y-6418500D02*
X7075500Y-6518500D01*
X7075500Y-6672500D02*
X7175500Y-6772500D01*
X7175500Y-6672500D02*
X7075500Y-6772500D01*
X7075500Y-6926500D02*
X7175500Y-7026500D01*
X7175500Y-6926500D02*
X7075500Y-7026500D01*
X7075500Y-7180500D02*
X7175500Y-7280500D01*
X7175500Y-7180500D02*
X7075500Y-7280500D01*
X7075500Y-7434500D02*
X7175500Y-7534500D01*
X7175500Y-7434500D02*
X7075500Y-7534500D01*
X7076000Y-4894000D02*
X7176000Y-4994000D01*
X7176000Y-4894000D02*
X7076000Y-4994000D01*
X7076000Y-5148000D02*
X7176000Y-5248000D01*
X7176000Y-5148000D02*
X7076000Y-5248000D01*
X7076000Y-5656000D02*
X7176000Y-5756000D01*
X7176000Y-5656000D02*
X7076000Y-5756000D01*
X7076000Y-5910000D02*
X7176000Y-6010000D01*
X7176000Y-5910000D02*
X7076000Y-6010000D01*
X7076000Y-6164000D02*
X7176000Y-6264000D01*
X7176000Y-6164000D02*
X7076000Y-6264000D01*
X7076000Y-6418000D02*
X7176000Y-6518000D01*
X7176000Y-6418000D02*
X7076000Y-6518000D01*
X7076000Y-6672000D02*
X7176000Y-6772000D01*
X7176000Y-6672000D02*
X7076000Y-6772000D01*
X7076000Y-6926000D02*
X7176000Y-7026000D01*
X7176000Y-6926000D02*
X7076000Y-7026000D01*
X7076000Y-7180000D02*
X7176000Y-7280000D01*
X7176000Y-7180000D02*
X7076000Y-7280000D01*
X7076000Y-7434000D02*
X7176000Y-7534000D01*
X7176000Y-7434000D02*
X7076000Y-7534000D01*
X7076500Y-8196500D02*
X7176500Y-8296500D01*
X7176500Y-8196500D02*
X7076500Y-8296500D01*
X7076500Y-8450500D02*
X7176500Y-8550500D01*
X7176500Y-8450500D02*
X7076500Y-8550500D01*
X7076500Y-8704500D02*
X7176500Y-8804500D01*
X7176500Y-8704500D02*
X7076500Y-8804500D01*
X7076500Y-8958500D02*
X7176500Y-9058500D01*
X7176500Y-8958500D02*
X7076500Y-9058500D01*
X7076500Y-9212500D02*
X7176500Y-9312500D01*
X7176500Y-9212500D02*
X7076500Y-9312500D01*
X7076500Y-9466500D02*
X7176500Y-9566500D01*
X7176500Y-9466500D02*
X7076500Y-9566500D01*
X7076500Y-9720500D02*
X7176500Y-9820500D01*
X7176500Y-9720500D02*
X7076500Y-9820500D01*
X7076500Y-9974500D02*
X7176500Y-10074500D01*
X7176500Y-9974500D02*
X7076500Y-10074500D01*
X7076500Y-10482500D02*
X7176500Y-10582500D01*
X7176500Y-10482500D02*
X7076500Y-10582500D01*
X7076500Y-10736500D02*
X7176500Y-10836500D01*
X7176500Y-10736500D02*
X7076500Y-10836500D01*
X7077000Y-8196000D02*
X7177000Y-8296000D01*
X7177000Y-8196000D02*
X7077000Y-8296000D01*
X7077000Y-8450000D02*
X7177000Y-8550000D01*
X7177000Y-8450000D02*
X7077000Y-8550000D01*
X7077000Y-8704000D02*
X7177000Y-8804000D01*
X7177000Y-8704000D02*
X7077000Y-8804000D01*
X7077000Y-8958000D02*
X7177000Y-9058000D01*
X7177000Y-8958000D02*
X7077000Y-9058000D01*
X7077000Y-9212000D02*
X7177000Y-9312000D01*
X7177000Y-9212000D02*
X7077000Y-9312000D01*
X7077000Y-9466000D02*
X7177000Y-9566000D01*
X7177000Y-9466000D02*
X7077000Y-9566000D01*
X7077000Y-9720000D02*
X7177000Y-9820000D01*
X7177000Y-9720000D02*
X7077000Y-9820000D01*
X7077000Y-9974000D02*
X7177000Y-10074000D01*
X7177000Y-9974000D02*
X7077000Y-10074000D01*
X7077000Y-10482000D02*
X7177000Y-10582000D01*
X7177000Y-10482000D02*
X7077000Y-10582000D01*
X7077000Y-10736000D02*
X7177000Y-10836000D01*
X7177000Y-10736000D02*
X7077000Y-10836000D01*
X7329500Y-4894500D02*
X7429500Y-4994500D01*
X7429500Y-4894500D02*
X7329500Y-4994500D01*
X7329500Y-5148500D02*
X7429500Y-5248500D01*
X7429500Y-5148500D02*
X7329500Y-5248500D01*
X7329500Y-5656500D02*
X7429500Y-5756500D01*
X7429500Y-5656500D02*
X7329500Y-5756500D01*
X7329500Y-5910500D02*
X7429500Y-6010500D01*
X7429500Y-5910500D02*
X7329500Y-6010500D01*
X7329500Y-6164500D02*
X7429500Y-6264500D01*
X7429500Y-6164500D02*
X7329500Y-6264500D01*
X7329500Y-6418500D02*
X7429500Y-6518500D01*
X7429500Y-6418500D02*
X7329500Y-6518500D01*
X7329500Y-6672500D02*
X7429500Y-6772500D01*
X7429500Y-6672500D02*
X7329500Y-6772500D01*
X7329500Y-6926500D02*
X7429500Y-7026500D01*
X7429500Y-6926500D02*
X7329500Y-7026500D01*
X7329500Y-7180500D02*
X7429500Y-7280500D01*
X7429500Y-7180500D02*
X7329500Y-7280500D01*
X7329500Y-7434500D02*
X7429500Y-7534500D01*
X7429500Y-7434500D02*
X7329500Y-7534500D01*
X7330000Y-4894000D02*
X7430000Y-4994000D01*
X7430000Y-4894000D02*
X7330000Y-4994000D01*
X7330000Y-5148000D02*
X7430000Y-5248000D01*
X7430000Y-5148000D02*
X7330000Y-5248000D01*
X7330000Y-5656000D02*
X7430000Y-5756000D01*
X7430000Y-5656000D02*
X7330000Y-5756000D01*
X7330000Y-5910000D02*
X7430000Y-6010000D01*
X7430000Y-5910000D02*
X7330000Y-6010000D01*
X7330000Y-6164000D02*
X7430000Y-6264000D01*
X7430000Y-6164000D02*
X7330000Y-6264000D01*
X7330000Y-6418000D02*
X7430000Y-6518000D01*
X7430000Y-6418000D02*
X7330000Y-6518000D01*
X7330000Y-6672000D02*
X7430000Y-6772000D01*
X7430000Y-6672000D02*
X7330000Y-6772000D01*
X7330000Y-6926000D02*
X7430000Y-7026000D01*
X7430000Y-6926000D02*
X7330000Y-7026000D01*
X7330000Y-7180000D02*
X7430000Y-7280000D01*
X7430000Y-7180000D02*
X7330000Y-7280000D01*
X7330000Y-7434000D02*
X7430000Y-7534000D01*
X7430000Y-7434000D02*
X7330000Y-7534000D01*
X7330500Y-8196500D02*
X7430500Y-8296500D01*
X7430500Y-8196500D02*
X7330500Y-8296500D01*
X7330500Y-8450500D02*
X7430500Y-8550500D01*
X7430500Y-8450500D02*
X7330500Y-8550500D01*
X7330500Y-8704500D02*
X7430500Y-8804500D01*
X7430500Y-8704500D02*
X7330500Y-8804500D01*
X7330500Y-8958500D02*
X7430500Y-9058500D01*
X7430500Y-8958500D02*
X7330500Y-9058500D01*
X7330500Y-9212500D02*
X7430500Y-9312500D01*
X7430500Y-9212500D02*
X7330500Y-9312500D01*
X7330500Y-9466500D02*
X7430500Y-9566500D01*
X7430500Y-9466500D02*
X7330500Y-9566500D01*
X7330500Y-9720500D02*
X7430500Y-9820500D01*
X7430500Y-9720500D02*
X7330500Y-9820500D01*
X7330500Y-9974500D02*
X7430500Y-10074500D01*
X7430500Y-9974500D02*
X7330500Y-10074500D01*
X7330500Y-10482500D02*
X7430500Y-10582500D01*
X7430500Y-10482500D02*
X7330500Y-10582500D01*
X7330500Y-10736500D02*
X7430500Y-10836500D01*
X7430500Y-10736500D02*
X7330500Y-10836500D01*
X7331000Y-8196000D02*
X7431000Y-8296000D01*
X7431000Y-8196000D02*
X7331000Y-8296000D01*
X7331000Y-8450000D02*
X7431000Y-8550000D01*
X7431000Y-8450000D02*
X7331000Y-8550000D01*
X7331000Y-8704000D02*
X7431000Y-8804000D01*
X7431000Y-8704000D02*
X7331000Y-8804000D01*
X7331000Y-8958000D02*
X7431000Y-9058000D01*
X7431000Y-8958000D02*
X7331000Y-9058000D01*
X7331000Y-9212000D02*
X7431000Y-9312000D01*
X7431000Y-9212000D02*
X7331000Y-9312000D01*
X7331000Y-9466000D02*
X7431000Y-9566000D01*
X7431000Y-9466000D02*
X7331000Y-9566000D01*
X7331000Y-9720000D02*
X7431000Y-9820000D01*
X7431000Y-9720000D02*
X7331000Y-9820000D01*
X7331000Y-9974000D02*
X7431000Y-10074000D01*
X7431000Y-9974000D02*
X7331000Y-10074000D01*
X7331000Y-10482000D02*
X7431000Y-10582000D01*
X7431000Y-10482000D02*
X7331000Y-10582000D01*
X7331000Y-10736000D02*
X7431000Y-10836000D01*
X7431000Y-10736000D02*
X7331000Y-10836000D01*
X7583500Y-4894500D02*
X7683500Y-4994500D01*
X7683500Y-4894500D02*
X7583500Y-4994500D01*
X7583500Y-5148500D02*
X7683500Y-5248500D01*
X7683500Y-5148500D02*
X7583500Y-5248500D01*
X7583500Y-5656500D02*
X7683500Y-5756500D01*
X7683500Y-5656500D02*
X7583500Y-5756500D01*
X7583500Y-5910500D02*
X7683500Y-6010500D01*
X7683500Y-5910500D02*
X7583500Y-6010500D01*
X7583500Y-6164500D02*
X7683500Y-6264500D01*
X7683500Y-6164500D02*
X7583500Y-6264500D01*
X7583500Y-6418500D02*
X7683500Y-6518500D01*
X7683500Y-6418500D02*
X7583500Y-6518500D01*
X7583500Y-6672500D02*
X7683500Y-6772500D01*
X7683500Y-6672500D02*
X7583500Y-6772500D01*
X7583500Y-6926500D02*
X7683500Y-7026500D01*
X7683500Y-6926500D02*
X7583500Y-7026500D01*
X7583500Y-7180500D02*
X7683500Y-7280500D01*
X7683500Y-7180500D02*
X7583500Y-7280500D01*
X7583500Y-7434500D02*
X7683500Y-7534500D01*
X7683500Y-7434500D02*
X7583500Y-7534500D01*
X7584000Y-4894000D02*
X7684000Y-4994000D01*
X7684000Y-4894000D02*
X7584000Y-4994000D01*
X7584000Y-5148000D02*
X7684000Y-5248000D01*
X7684000Y-5148000D02*
X7584000Y-5248000D01*
X7584000Y-5656000D02*
X7684000Y-5756000D01*
X7684000Y-5656000D02*
X7584000Y-5756000D01*
X7584000Y-5910000D02*
X7684000Y-6010000D01*
X7684000Y-5910000D02*
X7584000Y-6010000D01*
X7584000Y-6164000D02*
X7684000Y-6264000D01*
X7684000Y-6164000D02*
X7584000Y-6264000D01*
X7584000Y-6418000D02*
X7684000Y-6518000D01*
X7684000Y-6418000D02*
X7584000Y-6518000D01*
X7584000Y-6672000D02*
X7684000Y-6772000D01*
X7684000Y-6672000D02*
X7584000Y-6772000D01*
X7584000Y-6926000D02*
X7684000Y-7026000D01*
X7684000Y-6926000D02*
X7584000Y-7026000D01*
X7584000Y-7180000D02*
X7684000Y-7280000D01*
X7684000Y-7180000D02*
X7584000Y-7280000D01*
X7584000Y-7434000D02*
X7684000Y-7534000D01*
X7684000Y-7434000D02*
X7584000Y-7534000D01*
X7584500Y-8196500D02*
X7684500Y-8296500D01*
X7684500Y-8196500D02*
X7584500Y-8296500D01*
X7584500Y-8450500D02*
X7684500Y-8550500D01*
X7684500Y-8450500D02*
X7584500Y-8550500D01*
X7584500Y-8704500D02*
X7684500Y-8804500D01*
X7684500Y-8704500D02*
X7584500Y-8804500D01*
X7584500Y-8958500D02*
X7684500Y-9058500D01*
X7684500Y-8958500D02*
X7584500Y-9058500D01*
X7584500Y-9212500D02*
X7684500Y-9312500D01*
X7684500Y-9212500D02*
X7584500Y-9312500D01*
X7584500Y-9466500D02*
X7684500Y-9566500D01*
X7684500Y-9466500D02*
X7584500Y-9566500D01*
X7584500Y-9720500D02*
X7684500Y-9820500D01*
X7684500Y-9720500D02*
X7584500Y-9820500D01*
X7584500Y-9974500D02*
X7684500Y-10074500D01*
X7684500Y-9974500D02*
X7584500Y-10074500D01*
X7584500Y-10482500D02*
X7684500Y-10582500D01*
X7684500Y-10482500D02*
X7584500Y-10582500D01*
X7584500Y-10736500D02*
X7684500Y-10836500D01*
X7684500Y-10736500D02*
X7584500Y-10836500D01*
X7585000Y-8196000D02*
X7685000Y-8296000D01*
X7685000Y-8196000D02*
X7585000Y-8296000D01*
X7585000Y-8450000D02*
X7685000Y-8550000D01*
X7685000Y-8450000D02*
X7585000Y-8550000D01*
X7585000Y-8704000D02*
X7685000Y-8804000D01*
X7685000Y-8704000D02*
X7585000Y-8804000D01*
X7585000Y-8958000D02*
X7685000Y-9058000D01*
X7685000Y-8958000D02*
X7585000Y-9058000D01*
X7585000Y-9212000D02*
X7685000Y-9312000D01*
X7685000Y-9212000D02*
X7585000Y-9312000D01*
X7585000Y-9466000D02*
X7685000Y-9566000D01*
X7685000Y-9466000D02*
X7585000Y-9566000D01*
X7585000Y-9720000D02*
X7685000Y-9820000D01*
X7685000Y-9720000D02*
X7585000Y-9820000D01*
X7585000Y-9974000D02*
X7685000Y-10074000D01*
X7685000Y-9974000D02*
X7585000Y-10074000D01*
X7585000Y-10482000D02*
X7685000Y-10582000D01*
X7685000Y-10482000D02*
X7585000Y-10582000D01*
X7585000Y-10736000D02*
X7685000Y-10836000D01*
X7685000Y-10736000D02*
X7585000Y-10836000D01*
X7837500Y-4894500D02*
X7937500Y-4994500D01*
X7937500Y-4894500D02*
X7837500Y-4994500D01*
X7837500Y-5148500D02*
X7937500Y-5248500D01*
X7937500Y-5148500D02*
X7837500Y-5248500D01*
X7837500Y-5656500D02*
X7937500Y-5756500D01*
X7937500Y-5656500D02*
X7837500Y-5756500D01*
X7837500Y-5910500D02*
X7937500Y-6010500D01*
X7937500Y-5910500D02*
X7837500Y-6010500D01*
X7837500Y-6164500D02*
X7937500Y-6264500D01*
X7937500Y-6164500D02*
X7837500Y-6264500D01*
X7837500Y-6418500D02*
X7937500Y-6518500D01*
X7937500Y-6418500D02*
X7837500Y-6518500D01*
X7837500Y-6672500D02*
X7937500Y-6772500D01*
X7937500Y-6672500D02*
X7837500Y-6772500D01*
X7837500Y-6926500D02*
X7937500Y-7026500D01*
X7937500Y-6926500D02*
X7837500Y-7026500D01*
X7837500Y-7180500D02*
X7937500Y-7280500D01*
X7937500Y-7180500D02*
X7837500Y-7280500D01*
X7837500Y-7434500D02*
X7937500Y-7534500D01*
X7937500Y-7434500D02*
X7837500Y-7534500D01*
X7838000Y-4894000D02*
X7938000Y-4994000D01*
X7938000Y-4894000D02*
X7838000Y-4994000D01*
X7838000Y-5148000D02*
X7938000Y-5248000D01*
X7938000Y-5148000D02*
X7838000Y-5248000D01*
X7838000Y-5656000D02*
X7938000Y-5756000D01*
X7938000Y-5656000D02*
X7838000Y-5756000D01*
X7838000Y-5910000D02*
X7938000Y-6010000D01*
X7938000Y-5910000D02*
X7838000Y-6010000D01*
X7838000Y-6164000D02*
X7938000Y-6264000D01*
X7938000Y-6164000D02*
X7838000Y-6264000D01*
X7838000Y-6418000D02*
X7938000Y-6518000D01*
X7938000Y-6418000D02*
X7838000Y-6518000D01*
X7838000Y-6672000D02*
X7938000Y-6772000D01*
X7938000Y-6672000D02*
X7838000Y-6772000D01*
X7838000Y-6926000D02*
X7938000Y-7026000D01*
X7938000Y-6926000D02*
X7838000Y-7026000D01*
X7838000Y-7180000D02*
X7938000Y-7280000D01*
X7938000Y-7180000D02*
X7838000Y-7280000D01*
X7838000Y-7434000D02*
X7938000Y-7534000D01*
X7938000Y-7434000D02*
X7838000Y-7534000D01*
X7838500Y-8196500D02*
X7938500Y-8296500D01*
X7938500Y-8196500D02*
X7838500Y-8296500D01*
X7838500Y-8450500D02*
X7938500Y-8550500D01*
X7938500Y-8450500D02*
X7838500Y-8550500D01*
X7838500Y-8704500D02*
X7938500Y-8804500D01*
X7938500Y-8704500D02*
X7838500Y-8804500D01*
X7838500Y-8958500D02*
X7938500Y-9058500D01*
X7938500Y-8958500D02*
X7838500Y-9058500D01*
X7838500Y-9212500D02*
X7938500Y-9312500D01*
X7938500Y-9212500D02*
X7838500Y-9312500D01*
X7838500Y-9466500D02*
X7938500Y-9566500D01*
X7938500Y-9466500D02*
X7838500Y-9566500D01*
X7838500Y-9720500D02*
X7938500Y-9820500D01*
X7938500Y-9720500D02*
X7838500Y-9820500D01*
X7838500Y-9974500D02*
X7938500Y-10074500D01*
X7938500Y-9974500D02*
X7838500Y-10074500D01*
X7838500Y-10482500D02*
X7938500Y-10582500D01*
X7938500Y-10482500D02*
X7838500Y-10582500D01*
X7838500Y-10736500D02*
X7938500Y-10836500D01*
X7938500Y-10736500D02*
X7838500Y-10836500D01*
X7839000Y-8196000D02*
X7939000Y-8296000D01*
X7939000Y-8196000D02*
X7839000Y-8296000D01*
X7839000Y-8450000D02*
X7939000Y-8550000D01*
X7939000Y-8450000D02*
X7839000Y-8550000D01*
X7839000Y-8704000D02*
X7939000Y-8804000D01*
X7939000Y-8704000D02*
X7839000Y-8804000D01*
X7839000Y-8958000D02*
X7939000Y-9058000D01*
X7939000Y-8958000D02*
X7839000Y-9058000D01*
X7839000Y-9212000D02*
X7939000Y-9312000D01*
X7939000Y-9212000D02*
X7839000Y-9312000D01*
X7839000Y-9466000D02*
X7939000Y-9566000D01*
X7939000Y-9466000D02*
X7839000Y-9566000D01*
X7839000Y-9720000D02*
X7939000Y-9820000D01*
X7939000Y-9720000D02*
X7839000Y-9820000D01*
X7839000Y-9974000D02*
X7939000Y-10074000D01*
X7939000Y-9974000D02*
X7839000Y-10074000D01*
X7839000Y-10482000D02*
X7939000Y-10582000D01*
X7939000Y-10482000D02*
X7839000Y-10582000D01*
X7839000Y-10736000D02*
X7939000Y-10836000D01*
X7939000Y-10736000D02*
X7839000Y-10836000D01*
X8091500Y-4894500D02*
X8191500Y-4994500D01*
X8191500Y-4894500D02*
X8091500Y-4994500D01*
X8091500Y-5148500D02*
X8191500Y-5248500D01*
X8191500Y-5148500D02*
X8091500Y-5248500D01*
X8091500Y-5656500D02*
X8191500Y-5756500D01*
X8191500Y-5656500D02*
X8091500Y-5756500D01*
X8091500Y-5910500D02*
X8191500Y-6010500D01*
X8191500Y-5910500D02*
X8091500Y-6010500D01*
X8091500Y-6164500D02*
X8191500Y-6264500D01*
X8191500Y-6164500D02*
X8091500Y-6264500D01*
X8091500Y-6418500D02*
X8191500Y-6518500D01*
X8191500Y-6418500D02*
X8091500Y-6518500D01*
X8091500Y-6672500D02*
X8191500Y-6772500D01*
X8191500Y-6672500D02*
X8091500Y-6772500D01*
X8091500Y-6926500D02*
X8191500Y-7026500D01*
X8191500Y-6926500D02*
X8091500Y-7026500D01*
X8091500Y-7180500D02*
X8191500Y-7280500D01*
X8191500Y-7180500D02*
X8091500Y-7280500D01*
X8091500Y-7434500D02*
X8191500Y-7534500D01*
X8191500Y-7434500D02*
X8091500Y-7534500D01*
X8092000Y-4894000D02*
X8192000Y-4994000D01*
X8192000Y-4894000D02*
X8092000Y-4994000D01*
X8092000Y-5148000D02*
X8192000Y-5248000D01*
X8192000Y-5148000D02*
X8092000Y-5248000D01*
X8092000Y-5656000D02*
X8192000Y-5756000D01*
X8192000Y-5656000D02*
X8092000Y-5756000D01*
X8092000Y-5910000D02*
X8192000Y-6010000D01*
X8192000Y-5910000D02*
X8092000Y-6010000D01*
X8092000Y-6164000D02*
X8192000Y-6264000D01*
X8192000Y-6164000D02*
X8092000Y-6264000D01*
X8092000Y-6418000D02*
X8192000Y-6518000D01*
X8192000Y-6418000D02*
X8092000Y-6518000D01*
X8092000Y-6672000D02*
X8192000Y-6772000D01*
X8192000Y-6672000D02*
X8092000Y-6772000D01*
X8092000Y-6926000D02*
X8192000Y-7026000D01*
X8192000Y-6926000D02*
X8092000Y-7026000D01*
X8092000Y-7180000D02*
X8192000Y-7280000D01*
X8192000Y-7180000D02*
X8092000Y-7280000D01*
X8092000Y-7434000D02*
X8192000Y-7534000D01*
X8192000Y-7434000D02*
X8092000Y-7534000D01*
X8092500Y-8196500D02*
X8192500Y-8296500D01*
X8192500Y-8196500D02*
X8092500Y-8296500D01*
X8092500Y-8450500D02*
X8192500Y-8550500D01*
X8192500Y-8450500D02*
X8092500Y-8550500D01*
X8092500Y-8704500D02*
X8192500Y-8804500D01*
X8192500Y-8704500D02*
X8092500Y-8804500D01*
X8092500Y-8958500D02*
X8192500Y-9058500D01*
X8192500Y-8958500D02*
X8092500Y-9058500D01*
X8092500Y-9212500D02*
X8192500Y-9312500D01*
X8192500Y-9212500D02*
X8092500Y-9312500D01*
X8092500Y-9466500D02*
X8192500Y-9566500D01*
X8192500Y-9466500D02*
X8092500Y-9566500D01*
X8092500Y-9720500D02*
X8192500Y-9820500D01*
X8192500Y-9720500D02*
X8092500Y-9820500D01*
X8092500Y-9974500D02*
X8192500Y-10074500D01*
X8192500Y-9974500D02*
X8092500Y-10074500D01*
X8092500Y-10482500D02*
X8192500Y-10582500D01*
X8192500Y-10482500D02*
X8092500Y-10582500D01*
X8092500Y-10736500D02*
X8192500Y-10836500D01*
X8192500Y-10736500D02*
X8092500Y-10836500D01*
X8093000Y-8196000D02*
X8193000Y-8296000D01*
X8193000Y-8196000D02*
X8093000Y-8296000D01*
X8093000Y-8450000D02*
X8193000Y-8550000D01*
X8193000Y-8450000D02*
X8093000Y-8550000D01*
X8093000Y-8704000D02*
X8193000Y-8804000D01*
X8193000Y-8704000D02*
X8093000Y-8804000D01*
X8093000Y-8958000D02*
X8193000Y-9058000D01*
X8193000Y-8958000D02*
X8093000Y-9058000D01*
X8093000Y-9212000D02*
X8193000Y-9312000D01*
X8193000Y-9212000D02*
X8093000Y-9312000D01*
X8093000Y-9466000D02*
X8193000Y-9566000D01*
X8193000Y-9466000D02*
X8093000Y-9566000D01*
X8093000Y-9720000D02*
X8193000Y-9820000D01*
X8193000Y-9720000D02*
X8093000Y-9820000D01*
X8093000Y-9974000D02*
X8193000Y-10074000D01*
X8193000Y-9974000D02*
X8093000Y-10074000D01*
X8093000Y-10482000D02*
X8193000Y-10582000D01*
X8193000Y-10482000D02*
X8093000Y-10582000D01*
X8093000Y-10736000D02*
X8193000Y-10836000D01*
X8193000Y-10736000D02*
X8093000Y-10836000D01*
X8345500Y-4894500D02*
X8445500Y-4994500D01*
X8445500Y-4894500D02*
X8345500Y-4994500D01*
X8345500Y-5148500D02*
X8445500Y-5248500D01*
X8445500Y-5148500D02*
X8345500Y-5248500D01*
X8345500Y-5656500D02*
X8445500Y-5756500D01*
X8445500Y-5656500D02*
X8345500Y-5756500D01*
X8345500Y-5910500D02*
X8445500Y-6010500D01*
X8445500Y-5910500D02*
X8345500Y-6010500D01*
X8345500Y-6164500D02*
X8445500Y-6264500D01*
X8445500Y-6164500D02*
X8345500Y-6264500D01*
X8345500Y-6418500D02*
X8445500Y-6518500D01*
X8445500Y-6418500D02*
X8345500Y-6518500D01*
X8345500Y-6672500D02*
X8445500Y-6772500D01*
X8445500Y-6672500D02*
X8345500Y-6772500D01*
X8345500Y-6926500D02*
X8445500Y-7026500D01*
X8445500Y-6926500D02*
X8345500Y-7026500D01*
X8345500Y-7180500D02*
X8445500Y-7280500D01*
X8445500Y-7180500D02*
X8345500Y-7280500D01*
X8345500Y-7434500D02*
X8445500Y-7534500D01*
X8445500Y-7434500D02*
X8345500Y-7534500D01*
X8346000Y-4894000D02*
X8446000Y-4994000D01*
X8446000Y-4894000D02*
X8346000Y-4994000D01*
X8346000Y-5148000D02*
X8446000Y-5248000D01*
X8446000Y-5148000D02*
X8346000Y-5248000D01*
X8346000Y-5656000D02*
X8446000Y-5756000D01*
X8446000Y-5656000D02*
X8346000Y-5756000D01*
X8346000Y-5910000D02*
X8446000Y-6010000D01*
X8446000Y-5910000D02*
X8346000Y-6010000D01*
X8346000Y-6164000D02*
X8446000Y-6264000D01*
X8446000Y-6164000D02*
X8346000Y-6264000D01*
X8346000Y-6418000D02*
X8446000Y-6518000D01*
X8446000Y-6418000D02*
X8346000Y-6518000D01*
X8346000Y-6672000D02*
X8446000Y-6772000D01*
X8446000Y-6672000D02*
X8346000Y-6772000D01*
X8346000Y-6926000D02*
X8446000Y-7026000D01*
X8446000Y-6926000D02*
X8346000Y-7026000D01*
X8346000Y-7180000D02*
X8446000Y-7280000D01*
X8446000Y-7180000D02*
X8346000Y-7280000D01*
X8346000Y-7434000D02*
X8446000Y-7534000D01*
X8446000Y-7434000D02*
X8346000Y-7534000D01*
X8346500Y-8196500D02*
X8446500Y-8296500D01*
X8446500Y-8196500D02*
X8346500Y-8296500D01*
X8346500Y-8450500D02*
X8446500Y-8550500D01*
X8446500Y-8450500D02*
X8346500Y-8550500D01*
X8346500Y-8704500D02*
X8446500Y-8804500D01*
X8446500Y-8704500D02*
X8346500Y-8804500D01*
X8346500Y-8958500D02*
X8446500Y-9058500D01*
X8446500Y-8958500D02*
X8346500Y-9058500D01*
X8346500Y-9212500D02*
X8446500Y-9312500D01*
X8446500Y-9212500D02*
X8346500Y-9312500D01*
X8346500Y-9466500D02*
X8446500Y-9566500D01*
X8446500Y-9466500D02*
X8346500Y-9566500D01*
X8346500Y-9720500D02*
X8446500Y-9820500D01*
X8446500Y-9720500D02*
X8346500Y-9820500D01*
X8346500Y-9974500D02*
X8446500Y-10074500D01*
X8446500Y-9974500D02*
X8346500Y-10074500D01*
X8346500Y-10482500D02*
X8446500Y-10582500D01*
X8446500Y-10482500D02*
X8346500Y-10582500D01*
X8346500Y-10736500D02*
X8446500Y-10836500D01*
X8446500Y-10736500D02*
X8346500Y-10836500D01*
X8347000Y-8196000D02*
X8447000Y-8296000D01*
X8447000Y-8196000D02*
X8347000Y-8296000D01*
X8347000Y-8450000D02*
X8447000Y-8550000D01*
X8447000Y-8450000D02*
X8347000Y-8550000D01*
X8347000Y-8704000D02*
X8447000Y-8804000D01*
X8447000Y-8704000D02*
X8347000Y-8804000D01*
X8347000Y-8958000D02*
X8447000Y-9058000D01*
X8447000Y-8958000D02*
X8347000Y-9058000D01*
X8347000Y-9212000D02*
X8447000Y-9312000D01*
X8447000Y-9212000D02*
X8347000Y-9312000D01*
X8347000Y-9466000D02*
X8447000Y-9566000D01*
X8447000Y-9466000D02*
X8347000Y-9566000D01*
X8347000Y-9720000D02*
X8447000Y-9820000D01*
X8447000Y-9720000D02*
X8347000Y-9820000D01*
X8347000Y-9974000D02*
X8447000Y-10074000D01*
X8447000Y-9974000D02*
X8347000Y-10074000D01*
X8347000Y-10482000D02*
X8447000Y-10582000D01*
X8447000Y-10482000D02*
X8347000Y-10582000D01*
X8347000Y-10736000D02*
X8447000Y-10836000D01*
X8447000Y-10736000D02*
X8347000Y-10836000D01*
X8599500Y-4894500D02*
X8699500Y-4994500D01*
X8699500Y-4894500D02*
X8599500Y-4994500D01*
X8599500Y-5148500D02*
X8699500Y-5248500D01*
X8699500Y-5148500D02*
X8599500Y-5248500D01*
X8599500Y-5656500D02*
X8699500Y-5756500D01*
X8699500Y-5656500D02*
X8599500Y-5756500D01*
X8599500Y-5910500D02*
X8699500Y-6010500D01*
X8699500Y-5910500D02*
X8599500Y-6010500D01*
X8599500Y-6164500D02*
X8699500Y-6264500D01*
X8699500Y-6164500D02*
X8599500Y-6264500D01*
X8599500Y-6418500D02*
X8699500Y-6518500D01*
X8699500Y-6418500D02*
X8599500Y-6518500D01*
X8599500Y-6672500D02*
X8699500Y-6772500D01*
X8699500Y-6672500D02*
X8599500Y-6772500D01*
X8599500Y-6926500D02*
X8699500Y-7026500D01*
X8699500Y-6926500D02*
X8599500Y-7026500D01*
X8599500Y-7180500D02*
X8699500Y-7280500D01*
X8699500Y-7180500D02*
X8599500Y-7280500D01*
X8599500Y-7434500D02*
X8699500Y-7534500D01*
X8699500Y-7434500D02*
X8599500Y-7534500D01*
X8600000Y-4894000D02*
X8700000Y-4994000D01*
X8700000Y-4894000D02*
X8600000Y-4994000D01*
X8600000Y-5148000D02*
X8700000Y-5248000D01*
X8700000Y-5148000D02*
X8600000Y-5248000D01*
X8600000Y-5656000D02*
X8700000Y-5756000D01*
X8700000Y-5656000D02*
X8600000Y-5756000D01*
X8600000Y-5910000D02*
X8700000Y-6010000D01*
X8700000Y-5910000D02*
X8600000Y-6010000D01*
X8600000Y-6164000D02*
X8700000Y-6264000D01*
X8700000Y-6164000D02*
X8600000Y-6264000D01*
X8600000Y-6418000D02*
X8700000Y-6518000D01*
X8700000Y-6418000D02*
X8600000Y-6518000D01*
X8600000Y-6672000D02*
X8700000Y-6772000D01*
X8700000Y-6672000D02*
X8600000Y-6772000D01*
X8600000Y-6926000D02*
X8700000Y-7026000D01*
X8700000Y-6926000D02*
X8600000Y-7026000D01*
X8600000Y-7180000D02*
X8700000Y-7280000D01*
X8700000Y-7180000D02*
X8600000Y-7280000D01*
X8600000Y-7434000D02*
X8700000Y-7534000D01*
X8700000Y-7434000D02*
X8600000Y-7534000D01*
X8600500Y-8196500D02*
X8700500Y-8296500D01*
X8700500Y-8196500D02*
X8600500Y-8296500D01*
X8600500Y-8450500D02*
X8700500Y-8550500D01*
X8700500Y-8450500D02*
X8600500Y-8550500D01*
X8600500Y-8450500D02*
X8700500Y-8550500D01*
X8700500Y-8450500D02*
X8600500Y-8550500D01*
X8600500Y-8704500D02*
X8700500Y-8804500D01*
X8700500Y-8704500D02*
X8600500Y-8804500D01*
X8600500Y-8958500D02*
X8700500Y-9058500D01*
X8700500Y-8958500D02*
X8600500Y-9058500D01*
X8600500Y-9212500D02*
X8700500Y-9312500D01*
X8700500Y-9212500D02*
X8600500Y-9312500D01*
X8600500Y-9466500D02*
X8700500Y-9566500D01*
X8700500Y-9466500D02*
X8600500Y-9566500D01*
X8600500Y-9720500D02*
X8700500Y-9820500D01*
X8700500Y-9720500D02*
X8600500Y-9820500D01*
X8600500Y-9974500D02*
X8700500Y-10074500D01*
X8700500Y-9974500D02*
X8600500Y-10074500D01*
X8600500Y-10482500D02*
X8700500Y-10582500D01*
X8700500Y-10482500D02*
X8600500Y-10582500D01*
X8600500Y-10736500D02*
X8700500Y-10836500D01*
X8700500Y-10736500D02*
X8600500Y-10836500D01*
X8601000Y-8196000D02*
X8701000Y-8296000D01*
X8701000Y-8196000D02*
X8601000Y-8296000D01*
X8601000Y-8450000D02*
X8701000Y-8550000D01*
X8701000Y-8450000D02*
X8601000Y-8550000D01*
X8601000Y-8704000D02*
X8701000Y-8804000D01*
X8701000Y-8704000D02*
X8601000Y-8804000D01*
X8601000Y-8958000D02*
X8701000Y-9058000D01*
X8701000Y-8958000D02*
X8601000Y-9058000D01*
X8601000Y-9212000D02*
X8701000Y-9312000D01*
X8701000Y-9212000D02*
X8601000Y-9312000D01*
X8601000Y-9466000D02*
X8701000Y-9566000D01*
X8701000Y-9466000D02*
X8601000Y-9566000D01*
X8601000Y-9720000D02*
X8701000Y-9820000D01*
X8701000Y-9720000D02*
X8601000Y-9820000D01*
X8601000Y-9974000D02*
X8701000Y-10074000D01*
X8701000Y-9974000D02*
X8601000Y-10074000D01*
X8601000Y-10482000D02*
X8701000Y-10582000D01*
X8701000Y-10482000D02*
X8601000Y-10582000D01*
X8601000Y-10736000D02*
X8701000Y-10836000D01*
X8701000Y-10736000D02*
X8601000Y-10836000D01*
X8853500Y-4894500D02*
X8953500Y-4994500D01*
X8953500Y-4894500D02*
X8853500Y-4994500D01*
X8853500Y-5148500D02*
X8953500Y-5248500D01*
X8953500Y-5148500D02*
X8853500Y-5248500D01*
X8853500Y-5656500D02*
X8953500Y-5756500D01*
X8953500Y-5656500D02*
X8853500Y-5756500D01*
X8853500Y-5910500D02*
X8953500Y-6010500D01*
X8953500Y-5910500D02*
X8853500Y-6010500D01*
X8853500Y-6164500D02*
X8953500Y-6264500D01*
X8953500Y-6164500D02*
X8853500Y-6264500D01*
X8853500Y-6418500D02*
X8953500Y-6518500D01*
X8953500Y-6418500D02*
X8853500Y-6518500D01*
X8853500Y-6672500D02*
X8953500Y-6772500D01*
X8953500Y-6672500D02*
X8853500Y-6772500D01*
X8853500Y-6926500D02*
X8953500Y-7026500D01*
X8953500Y-6926500D02*
X8853500Y-7026500D01*
X8853500Y-7180500D02*
X8953500Y-7280500D01*
X8953500Y-7180500D02*
X8853500Y-7280500D01*
X8853500Y-7434500D02*
X8953500Y-7534500D01*
X8953500Y-7434500D02*
X8853500Y-7534500D01*
X8854000Y-4894000D02*
X8954000Y-4994000D01*
X8954000Y-4894000D02*
X8854000Y-4994000D01*
X8854000Y-5148000D02*
X8954000Y-5248000D01*
X8954000Y-5148000D02*
X8854000Y-5248000D01*
X8854000Y-5656000D02*
X8954000Y-5756000D01*
X8954000Y-5656000D02*
X8854000Y-5756000D01*
X8854000Y-5910000D02*
X8954000Y-6010000D01*
X8954000Y-5910000D02*
X8854000Y-6010000D01*
X8854000Y-6164000D02*
X8954000Y-6264000D01*
X8954000Y-6164000D02*
X8854000Y-6264000D01*
X8854000Y-6418000D02*
X8954000Y-6518000D01*
X8954000Y-6418000D02*
X8854000Y-6518000D01*
X8854000Y-6672000D02*
X8954000Y-6772000D01*
X8954000Y-6672000D02*
X8854000Y-6772000D01*
X8854000Y-6926000D02*
X8954000Y-7026000D01*
X8954000Y-6926000D02*
X8854000Y-7026000D01*
X8854000Y-7180000D02*
X8954000Y-7280000D01*
X8954000Y-7180000D02*
X8854000Y-7280000D01*
X8854000Y-7434000D02*
X8954000Y-7534000D01*
X8954000Y-7434000D02*
X8854000Y-7534000D01*
X8854500Y-8196500D02*
X8954500Y-8296500D01*
X8954500Y-8196500D02*
X8854500Y-8296500D01*
X8854500Y-8450500D02*
X8954500Y-8550500D01*
X8954500Y-8450500D02*
X8854500Y-8550500D01*
X8854500Y-8704500D02*
X8954500Y-8804500D01*
X8954500Y-8704500D02*
X8854500Y-8804500D01*
X8854500Y-8958500D02*
X8954500Y-9058500D01*
X8954500Y-8958500D02*
X8854500Y-9058500D01*
X8854500Y-9212500D02*
X8954500Y-9312500D01*
X8954500Y-9212500D02*
X8854500Y-9312500D01*
X8854500Y-9466500D02*
X8954500Y-9566500D01*
X8954500Y-9466500D02*
X8854500Y-9566500D01*
X8854500Y-9720500D02*
X8954500Y-9820500D01*
X8954500Y-9720500D02*
X8854500Y-9820500D01*
X8854500Y-9974500D02*
X8954500Y-10074500D01*
X8954500Y-9974500D02*
X8854500Y-10074500D01*
X8854500Y-10482500D02*
X8954500Y-10582500D01*
X8954500Y-10482500D02*
X8854500Y-10582500D01*
X8854500Y-10736500D02*
X8954500Y-10836500D01*
X8954500Y-10736500D02*
X8854500Y-10836500D01*
X8855000Y-8196000D02*
X8955000Y-8296000D01*
X8955000Y-8196000D02*
X8855000Y-8296000D01*
X8855000Y-8450000D02*
X8955000Y-8550000D01*
X8955000Y-8450000D02*
X8855000Y-8550000D01*
X8855000Y-8704000D02*
X8955000Y-8804000D01*
X8955000Y-8704000D02*
X8855000Y-8804000D01*
X8855000Y-8958000D02*
X8955000Y-9058000D01*
X8955000Y-8958000D02*
X8855000Y-9058000D01*
X8855000Y-9212000D02*
X8955000Y-9312000D01*
X8955000Y-9212000D02*
X8855000Y-9312000D01*
X8855000Y-9466000D02*
X8955000Y-9566000D01*
X8955000Y-9466000D02*
X8855000Y-9566000D01*
X8855000Y-9720000D02*
X8955000Y-9820000D01*
X8955000Y-9720000D02*
X8855000Y-9820000D01*
X8855000Y-9974000D02*
X8955000Y-10074000D01*
X8955000Y-9974000D02*
X8855000Y-10074000D01*
X8855000Y-10482000D02*
X8955000Y-10582000D01*
X8955000Y-10482000D02*
X8855000Y-10582000D01*
X8855000Y-10736000D02*
X8955000Y-10836000D01*
X8955000Y-10736000D02*
X8855000Y-10836000D01*
X9107500Y-4894500D02*
X9207500Y-4994500D01*
X9207500Y-4894500D02*
X9107500Y-4994500D01*
X9107500Y-5148500D02*
X9207500Y-5248500D01*
X9207500Y-5148500D02*
X9107500Y-5248500D01*
X9107500Y-5656500D02*
X9207500Y-5756500D01*
X9207500Y-5656500D02*
X9107500Y-5756500D01*
X9107500Y-5910500D02*
X9207500Y-6010500D01*
X9207500Y-5910500D02*
X9107500Y-6010500D01*
X9107500Y-6164500D02*
X9207500Y-6264500D01*
X9207500Y-6164500D02*
X9107500Y-6264500D01*
X9107500Y-6418500D02*
X9207500Y-6518500D01*
X9207500Y-6418500D02*
X9107500Y-6518500D01*
X9107500Y-6672500D02*
X9207500Y-6772500D01*
X9207500Y-6672500D02*
X9107500Y-6772500D01*
X9107500Y-6926500D02*
X9207500Y-7026500D01*
X9207500Y-6926500D02*
X9107500Y-7026500D01*
X9107500Y-7180500D02*
X9207500Y-7280500D01*
X9207500Y-7180500D02*
X9107500Y-7280500D01*
X9107500Y-7434500D02*
X9207500Y-7534500D01*
X9207500Y-7434500D02*
X9107500Y-7534500D01*
X9108000Y-4894000D02*
X9208000Y-4994000D01*
X9208000Y-4894000D02*
X9108000Y-4994000D01*
X9108000Y-5148000D02*
X9208000Y-5248000D01*
X9208000Y-5148000D02*
X9108000Y-5248000D01*
X9108000Y-5656000D02*
X9208000Y-5756000D01*
X9208000Y-5656000D02*
X9108000Y-5756000D01*
X9108000Y-5910000D02*
X9208000Y-6010000D01*
X9208000Y-5910000D02*
X9108000Y-6010000D01*
X9108000Y-6164000D02*
X9208000Y-6264000D01*
X9208000Y-6164000D02*
X9108000Y-6264000D01*
X9108000Y-6418000D02*
X9208000Y-6518000D01*
X9208000Y-6418000D02*
X9108000Y-6518000D01*
X9108000Y-6672000D02*
X9208000Y-6772000D01*
X9208000Y-6672000D02*
X9108000Y-6772000D01*
X9108000Y-6926000D02*
X9208000Y-7026000D01*
X9208000Y-6926000D02*
X9108000Y-7026000D01*
X9108000Y-7180000D02*
X9208000Y-7280000D01*
X9208000Y-7180000D02*
X9108000Y-7280000D01*
X9108000Y-7434000D02*
X9208000Y-7534000D01*
X9208000Y-7434000D02*
X9108000Y-7534000D01*
X9108500Y-8196500D02*
X9208500Y-8296500D01*
X9208500Y-8196500D02*
X9108500Y-8296500D01*
X9108500Y-8450500D02*
X9208500Y-8550500D01*
X9208500Y-8450500D02*
X9108500Y-8550500D01*
X9108500Y-8704500D02*
X9208500Y-8804500D01*
X9208500Y-8704500D02*
X9108500Y-8804500D01*
X9108500Y-8958500D02*
X9208500Y-9058500D01*
X9208500Y-8958500D02*
X9108500Y-9058500D01*
X9108500Y-9212500D02*
X9208500Y-9312500D01*
X9208500Y-9212500D02*
X9108500Y-9312500D01*
X9108500Y-9466500D02*
X9208500Y-9566500D01*
X9208500Y-9466500D02*
X9108500Y-9566500D01*
X9108500Y-9720500D02*
X9208500Y-9820500D01*
X9208500Y-9720500D02*
X9108500Y-9820500D01*
X9108500Y-9974500D02*
X9208500Y-10074500D01*
X9208500Y-9974500D02*
X9108500Y-10074500D01*
X9108500Y-10482500D02*
X9208500Y-10582500D01*
X9208500Y-10482500D02*
X9108500Y-10582500D01*
X9108500Y-10736500D02*
X9208500Y-10836500D01*
X9208500Y-10736500D02*
X9108500Y-10836500D01*
X9109000Y-8196000D02*
X9209000Y-8296000D01*
X9209000Y-8196000D02*
X9109000Y-8296000D01*
X9109000Y-8450000D02*
X9209000Y-8550000D01*
X9209000Y-8450000D02*
X9109000Y-8550000D01*
X9109000Y-8704000D02*
X9209000Y-8804000D01*
X9209000Y-8704000D02*
X9109000Y-8804000D01*
X9109000Y-8958000D02*
X9209000Y-9058000D01*
X9209000Y-8958000D02*
X9109000Y-9058000D01*
X9109000Y-9212000D02*
X9209000Y-9312000D01*
X9209000Y-9212000D02*
X9109000Y-9312000D01*
X9109000Y-9466000D02*
X9209000Y-9566000D01*
X9209000Y-9466000D02*
X9109000Y-9566000D01*
X9109000Y-9720000D02*
X9209000Y-9820000D01*
X9209000Y-9720000D02*
X9109000Y-9820000D01*
X9109000Y-9974000D02*
X9209000Y-10074000D01*
X9209000Y-9974000D02*
X9109000Y-10074000D01*
X9109000Y-10482000D02*
X9209000Y-10582000D01*
X9209000Y-10482000D02*
X9109000Y-10582000D01*
X9109000Y-10736000D02*
X9209000Y-10836000D01*
X9209000Y-10736000D02*
X9109000Y-10836000D01*
X9361500Y-4894500D02*
X9461500Y-4994500D01*
X9461500Y-4894500D02*
X9361500Y-4994500D01*
X9361500Y-5148500D02*
X9461500Y-5248500D01*
X9461500Y-5148500D02*
X9361500Y-5248500D01*
X9361500Y-5656500D02*
X9461500Y-5756500D01*
X9461500Y-5656500D02*
X9361500Y-5756500D01*
X9361500Y-5910500D02*
X9461500Y-6010500D01*
X9461500Y-5910500D02*
X9361500Y-6010500D01*
X9361500Y-6164500D02*
X9461500Y-6264500D01*
X9461500Y-6164500D02*
X9361500Y-6264500D01*
X9361500Y-6418500D02*
X9461500Y-6518500D01*
X9461500Y-6418500D02*
X9361500Y-6518500D01*
X9361500Y-6672500D02*
X9461500Y-6772500D01*
X9461500Y-6672500D02*
X9361500Y-6772500D01*
X9361500Y-6926500D02*
X9461500Y-7026500D01*
X9461500Y-6926500D02*
X9361500Y-7026500D01*
X9361500Y-7180500D02*
X9461500Y-7280500D01*
X9461500Y-7180500D02*
X9361500Y-7280500D01*
X9361500Y-7434500D02*
X9461500Y-7534500D01*
X9461500Y-7434500D02*
X9361500Y-7534500D01*
X9362000Y-4894000D02*
X9462000Y-4994000D01*
X9462000Y-4894000D02*
X9362000Y-4994000D01*
X9362000Y-5148000D02*
X9462000Y-5248000D01*
X9462000Y-5148000D02*
X9362000Y-5248000D01*
X9362000Y-5656000D02*
X9462000Y-5756000D01*
X9462000Y-5656000D02*
X9362000Y-5756000D01*
X9362000Y-5910000D02*
X9462000Y-6010000D01*
X9462000Y-5910000D02*
X9362000Y-6010000D01*
X9362000Y-6164000D02*
X9462000Y-6264000D01*
X9462000Y-6164000D02*
X9362000Y-6264000D01*
X9362000Y-6418000D02*
X9462000Y-6518000D01*
X9462000Y-6418000D02*
X9362000Y-6518000D01*
X9362000Y-6672000D02*
X9462000Y-6772000D01*
X9462000Y-6672000D02*
X9362000Y-6772000D01*
X9362000Y-6926000D02*
X9462000Y-7026000D01*
X9462000Y-6926000D02*
X9362000Y-7026000D01*
X9362000Y-7180000D02*
X9462000Y-7280000D01*
X9462000Y-7180000D02*
X9362000Y-7280000D01*
X9362000Y-7434000D02*
X9462000Y-7534000D01*
X9462000Y-7434000D02*
X9362000Y-7534000D01*
X9362500Y-8196500D02*
X9462500Y-8296500D01*
X9462500Y-8196500D02*
X9362500Y-8296500D01*
X9362500Y-8450500D02*
X9462500Y-8550500D01*
X9462500Y-8450500D02*
X9362500Y-8550500D01*
X9362500Y-8704500D02*
X9462500Y-8804500D01*
X9462500Y-8704500D02*
X9362500Y-8804500D01*
X9362500Y-8958500D02*
X9462500Y-9058500D01*
X9462500Y-8958500D02*
X9362500Y-9058500D01*
X9362500Y-9212500D02*
X9462500Y-9312500D01*
X9462500Y-9212500D02*
X9362500Y-9312500D01*
X9362500Y-9466500D02*
X9462500Y-9566500D01*
X9462500Y-9466500D02*
X9362500Y-9566500D01*
X9362500Y-9720500D02*
X9462500Y-9820500D01*
X9462500Y-9720500D02*
X9362500Y-9820500D01*
X9362500Y-9974500D02*
X9462500Y-10074500D01*
X9462500Y-9974500D02*
X9362500Y-10074500D01*
X9362500Y-10482500D02*
X9462500Y-10582500D01*
X9462500Y-10482500D02*
X9362500Y-10582500D01*
X9362500Y-10736500D02*
X9462500Y-10836500D01*
X9462500Y-10736500D02*
X9362500Y-10836500D01*
X9363000Y-8196000D02*
X9463000Y-8296000D01*
X9463000Y-8196000D02*
X9363000Y-8296000D01*
X9363000Y-8450000D02*
X9463000Y-8550000D01*
X9463000Y-8450000D02*
X9363000Y-8550000D01*
X9363000Y-8704000D02*
X9463000Y-8804000D01*
X9463000Y-8704000D02*
X9363000Y-8804000D01*
X9363000Y-8958000D02*
X9463000Y-9058000D01*
X9463000Y-8958000D02*
X9363000Y-9058000D01*
X9363000Y-9212000D02*
X9463000Y-9312000D01*
X9463000Y-9212000D02*
X9363000Y-9312000D01*
X9363000Y-9466000D02*
X9463000Y-9566000D01*
X9463000Y-9466000D02*
X9363000Y-9566000D01*
X9363000Y-9720000D02*
X9463000Y-9820000D01*
X9463000Y-9720000D02*
X9363000Y-9820000D01*
X9363000Y-9974000D02*
X9463000Y-10074000D01*
X9463000Y-9974000D02*
X9363000Y-10074000D01*
X9363000Y-10482000D02*
X9463000Y-10582000D01*
X9463000Y-10482000D02*
X9363000Y-10582000D01*
X9363000Y-10736000D02*
X9463000Y-10836000D01*
X9463000Y-10736000D02*
X9363000Y-10836000D01*
X9615500Y-4894500D02*
X9715500Y-4994500D01*
X9715500Y-4894500D02*
X9615500Y-4994500D01*
X9615500Y-5148500D02*
X9715500Y-5248500D01*
X9715500Y-5148500D02*
X9615500Y-5248500D01*
X9615500Y-5656500D02*
X9715500Y-5756500D01*
X9715500Y-5656500D02*
X9615500Y-5756500D01*
X9615500Y-5910500D02*
X9715500Y-6010500D01*
X9715500Y-5910500D02*
X9615500Y-6010500D01*
X9615500Y-6164500D02*
X9715500Y-6264500D01*
X9715500Y-6164500D02*
X9615500Y-6264500D01*
X9615500Y-6418500D02*
X9715500Y-6518500D01*
X9715500Y-6418500D02*
X9615500Y-6518500D01*
X9615500Y-6672500D02*
X9715500Y-6772500D01*
X9715500Y-6672500D02*
X9615500Y-6772500D01*
X9615500Y-6926500D02*
X9715500Y-7026500D01*
X9715500Y-6926500D02*
X9615500Y-7026500D01*
X9615500Y-7180500D02*
X9715500Y-7280500D01*
X9715500Y-7180500D02*
X9615500Y-7280500D01*
X9615500Y-7434500D02*
X9715500Y-7534500D01*
X9715500Y-7434500D02*
X9615500Y-7534500D01*
X9616000Y-4894000D02*
X9716000Y-4994000D01*
X9716000Y-4894000D02*
X9616000Y-4994000D01*
X9616000Y-5148000D02*
X9716000Y-5248000D01*
X9716000Y-5148000D02*
X9616000Y-5248000D01*
X9616000Y-5656000D02*
X9716000Y-5756000D01*
X9716000Y-5656000D02*
X9616000Y-5756000D01*
X9616000Y-5910000D02*
X9716000Y-6010000D01*
X9716000Y-5910000D02*
X9616000Y-6010000D01*
X9616000Y-6164000D02*
X9716000Y-6264000D01*
X9716000Y-6164000D02*
X9616000Y-6264000D01*
X9616000Y-6418000D02*
X9716000Y-6518000D01*
X9716000Y-6418000D02*
X9616000Y-6518000D01*
X9616000Y-6672000D02*
X9716000Y-6772000D01*
X9716000Y-6672000D02*
X9616000Y-6772000D01*
X9616000Y-6926000D02*
X9716000Y-7026000D01*
X9716000Y-6926000D02*
X9616000Y-7026000D01*
X9616000Y-7180000D02*
X9716000Y-7280000D01*
X9716000Y-7180000D02*
X9616000Y-7280000D01*
X9616000Y-7434000D02*
X9716000Y-7534000D01*
X9716000Y-7434000D02*
X9616000Y-7534000D01*
X9616500Y-8196500D02*
X9716500Y-8296500D01*
X9716500Y-8196500D02*
X9616500Y-8296500D01*
X9616500Y-8450500D02*
X9716500Y-8550500D01*
X9716500Y-8450500D02*
X9616500Y-8550500D01*
X9616500Y-8704500D02*
X9716500Y-8804500D01*
X9716500Y-8704500D02*
X9616500Y-8804500D01*
X9616500Y-8958500D02*
X9716500Y-9058500D01*
X9716500Y-8958500D02*
X9616500Y-9058500D01*
X9616500Y-9212500D02*
X9716500Y-9312500D01*
X9716500Y-9212500D02*
X9616500Y-9312500D01*
X9616500Y-9466500D02*
X9716500Y-9566500D01*
X9716500Y-9466500D02*
X9616500Y-9566500D01*
X9616500Y-9720500D02*
X9716500Y-9820500D01*
X9716500Y-9720500D02*
X9616500Y-9820500D01*
X9616500Y-9974500D02*
X9716500Y-10074500D01*
X9716500Y-9974500D02*
X9616500Y-10074500D01*
X9616500Y-10482500D02*
X9716500Y-10582500D01*
X9716500Y-10482500D02*
X9616500Y-10582500D01*
X9616500Y-10736500D02*
X9716500Y-10836500D01*
X9716500Y-10736500D02*
X9616500Y-10836500D01*
X9617000Y-8196000D02*
X9717000Y-8296000D01*
X9717000Y-8196000D02*
X9617000Y-8296000D01*
X9617000Y-8450000D02*
X9717000Y-8550000D01*
X9717000Y-8450000D02*
X9617000Y-8550000D01*
X9617000Y-8704000D02*
X9717000Y-8804000D01*
X9717000Y-8704000D02*
X9617000Y-8804000D01*
X9617000Y-8958000D02*
X9717000Y-9058000D01*
X9717000Y-8958000D02*
X9617000Y-9058000D01*
X9617000Y-9212000D02*
X9717000Y-9312000D01*
X9717000Y-9212000D02*
X9617000Y-9312000D01*
X9617000Y-9466000D02*
X9717000Y-9566000D01*
X9717000Y-9466000D02*
X9617000Y-9566000D01*
X9617000Y-9720000D02*
X9717000Y-9820000D01*
X9717000Y-9720000D02*
X9617000Y-9820000D01*
X9617000Y-9974000D02*
X9717000Y-10074000D01*
X9717000Y-9974000D02*
X9617000Y-10074000D01*
X9617000Y-10482000D02*
X9717000Y-10582000D01*
X9717000Y-10482000D02*
X9617000Y-10582000D01*
X9617000Y-10736000D02*
X9717000Y-10836000D01*
X9717000Y-10736000D02*
X9617000Y-10836000D01*
X9869500Y-4894500D02*
X9969500Y-4994500D01*
X9969500Y-4894500D02*
X9869500Y-4994500D01*
X9869500Y-5148500D02*
X9969500Y-5248500D01*
X9969500Y-5148500D02*
X9869500Y-5248500D01*
X9869500Y-5656500D02*
X9969500Y-5756500D01*
X9969500Y-5656500D02*
X9869500Y-5756500D01*
X9869500Y-5910500D02*
X9969500Y-6010500D01*
X9969500Y-5910500D02*
X9869500Y-6010500D01*
X9869500Y-6164500D02*
X9969500Y-6264500D01*
X9969500Y-6164500D02*
X9869500Y-6264500D01*
X9869500Y-6418500D02*
X9969500Y-6518500D01*
X9969500Y-6418500D02*
X9869500Y-6518500D01*
X9869500Y-6672500D02*
X9969500Y-6772500D01*
X9969500Y-6672500D02*
X9869500Y-6772500D01*
X9869500Y-6926500D02*
X9969500Y-7026500D01*
X9969500Y-6926500D02*
X9869500Y-7026500D01*
X9869500Y-7180500D02*
X9969500Y-7280500D01*
X9969500Y-7180500D02*
X9869500Y-7280500D01*
X9869500Y-7434500D02*
X9969500Y-7534500D01*
X9969500Y-7434500D02*
X9869500Y-7534500D01*
X9870000Y-4894000D02*
X9970000Y-4994000D01*
X9970000Y-4894000D02*
X9870000Y-4994000D01*
X9870000Y-5148000D02*
X9970000Y-5248000D01*
X9970000Y-5148000D02*
X9870000Y-5248000D01*
X9870000Y-5656000D02*
X9970000Y-5756000D01*
X9970000Y-5656000D02*
X9870000Y-5756000D01*
X9870000Y-5910000D02*
X9970000Y-6010000D01*
X9970000Y-5910000D02*
X9870000Y-6010000D01*
X9870000Y-6164000D02*
X9970000Y-6264000D01*
X9970000Y-6164000D02*
X9870000Y-6264000D01*
X9870000Y-6418000D02*
X9970000Y-6518000D01*
X9970000Y-6418000D02*
X9870000Y-6518000D01*
X9870000Y-6672000D02*
X9970000Y-6772000D01*
X9970000Y-6672000D02*
X9870000Y-6772000D01*
X9870000Y-6926000D02*
X9970000Y-7026000D01*
X9970000Y-6926000D02*
X9870000Y-7026000D01*
X9870000Y-7180000D02*
X9970000Y-7280000D01*
X9970000Y-7180000D02*
X9870000Y-7280000D01*
X9870000Y-7434000D02*
X9970000Y-7534000D01*
X9970000Y-7434000D02*
X9870000Y-7534000D01*
X9870500Y-8196500D02*
X9970500Y-8296500D01*
X9970500Y-8196500D02*
X9870500Y-8296500D01*
X9870500Y-8450500D02*
X9970500Y-8550500D01*
X9970500Y-8450500D02*
X9870500Y-8550500D01*
X9870500Y-8704500D02*
X9970500Y-8804500D01*
X9970500Y-8704500D02*
X9870500Y-8804500D01*
X9870500Y-8958500D02*
X9970500Y-9058500D01*
X9970500Y-8958500D02*
X9870500Y-9058500D01*
X9870500Y-9212500D02*
X9970500Y-9312500D01*
X9970500Y-9212500D02*
X9870500Y-9312500D01*
X9870500Y-9466500D02*
X9970500Y-9566500D01*
X9970500Y-9466500D02*
X9870500Y-9566500D01*
X9870500Y-9720500D02*
X9970500Y-9820500D01*
X9970500Y-9720500D02*
X9870500Y-9820500D01*
X9870500Y-9974500D02*
X9970500Y-10074500D01*
X9970500Y-9974500D02*
X9870500Y-10074500D01*
X9870500Y-10482500D02*
X9970500Y-10582500D01*
X9970500Y-10482500D02*
X9870500Y-10582500D01*
X9870500Y-10736500D02*
X9970500Y-10836500D01*
X9970500Y-10736500D02*
X9870500Y-10836500D01*
X9871000Y-8196000D02*
X9971000Y-8296000D01*
X9971000Y-8196000D02*
X9871000Y-8296000D01*
X9871000Y-8450000D02*
X9971000Y-8550000D01*
X9971000Y-8450000D02*
X9871000Y-8550000D01*
X9871000Y-8704000D02*
X9971000Y-8804000D01*
X9971000Y-8704000D02*
X9871000Y-8804000D01*
X9871000Y-8958000D02*
X9971000Y-9058000D01*
X9971000Y-8958000D02*
X9871000Y-9058000D01*
X9871000Y-9212000D02*
X9971000Y-9312000D01*
X9971000Y-9212000D02*
X9871000Y-9312000D01*
X9871000Y-9466000D02*
X9971000Y-9566000D01*
X9971000Y-9466000D02*
X9871000Y-9566000D01*
X9871000Y-9720000D02*
X9971000Y-9820000D01*
X9971000Y-9720000D02*
X9871000Y-9820000D01*
X9871000Y-9974000D02*
X9971000Y-10074000D01*
X9971000Y-9974000D02*
X9871000Y-10074000D01*
X9871000Y-10482000D02*
X9971000Y-10582000D01*
X9971000Y-10482000D02*
X9871000Y-10582000D01*
X9871000Y-10736000D02*
X9971000Y-10836000D01*
X9971000Y-10736000D02*
X9871000Y-10836000D01*
X10123500Y-4894500D02*
X10223500Y-4994500D01*
X10223500Y-4894500D02*
X10123500Y-4994500D01*
X10123500Y-5148500D02*
X10223500Y-5248500D01*
X10223500Y-5148500D02*
X10123500Y-5248500D01*
X10123500Y-5656500D02*
X10223500Y-5756500D01*
X10223500Y-5656500D02*
X10123500Y-5756500D01*
X10123500Y-5910500D02*
X10223500Y-6010500D01*
X10223500Y-5910500D02*
X10123500Y-6010500D01*
X10123500Y-6164500D02*
X10223500Y-6264500D01*
X10223500Y-6164500D02*
X10123500Y-6264500D01*
X10123500Y-6418500D02*
X10223500Y-6518500D01*
X10223500Y-6418500D02*
X10123500Y-6518500D01*
X10123500Y-6672500D02*
X10223500Y-6772500D01*
X10223500Y-6672500D02*
X10123500Y-6772500D01*
X10123500Y-6926500D02*
X10223500Y-7026500D01*
X10223500Y-6926500D02*
X10123500Y-7026500D01*
X10123500Y-7180500D02*
X10223500Y-7280500D01*
X10223500Y-7180500D02*
X10123500Y-7280500D01*
X10123500Y-7434500D02*
X10223500Y-7534500D01*
X10223500Y-7434500D02*
X10123500Y-7534500D01*
X10124000Y-4894000D02*
X10224000Y-4994000D01*
X10224000Y-4894000D02*
X10124000Y-4994000D01*
X10124000Y-5148000D02*
X10224000Y-5248000D01*
X10224000Y-5148000D02*
X10124000Y-5248000D01*
X10124000Y-5656000D02*
X10224000Y-5756000D01*
X10224000Y-5656000D02*
X10124000Y-5756000D01*
X10124000Y-5910000D02*
X10224000Y-6010000D01*
X10224000Y-5910000D02*
X10124000Y-6010000D01*
X10124000Y-6164000D02*
X10224000Y-6264000D01*
X10224000Y-6164000D02*
X10124000Y-6264000D01*
X10124000Y-6418000D02*
X10224000Y-6518000D01*
X10224000Y-6418000D02*
X10124000Y-6518000D01*
X10124000Y-6672000D02*
X10224000Y-6772000D01*
X10224000Y-6672000D02*
X10124000Y-6772000D01*
X10124000Y-6926000D02*
X10224000Y-7026000D01*
X10224000Y-6926000D02*
X10124000Y-7026000D01*
X10124000Y-7180000D02*
X10224000Y-7280000D01*
X10224000Y-7180000D02*
X10124000Y-7280000D01*
X10124000Y-7434000D02*
X10224000Y-7534000D01*
X10224000Y-7434000D02*
X10124000Y-7534000D01*
X10124500Y-8196500D02*
X10224500Y-8296500D01*
X10224500Y-8196500D02*
X10124500Y-8296500D01*
X10124500Y-8450500D02*
X10224500Y-8550500D01*
X10224500Y-8450500D02*
X10124500Y-8550500D01*
X10124500Y-8704500D02*
X10224500Y-8804500D01*
X10224500Y-8704500D02*
X10124500Y-8804500D01*
X10124500Y-8958500D02*
X10224500Y-9058500D01*
X10224500Y-8958500D02*
X10124500Y-9058500D01*
X10124500Y-9212500D02*
X10224500Y-9312500D01*
X10224500Y-9212500D02*
X10124500Y-9312500D01*
X10124500Y-9466500D02*
X10224500Y-9566500D01*
X10224500Y-9466500D02*
X10124500Y-9566500D01*
X10124500Y-9720500D02*
X10224500Y-9820500D01*
X10224500Y-9720500D02*
X10124500Y-9820500D01*
X10124500Y-9974500D02*
X10224500Y-10074500D01*
X10224500Y-9974500D02*
X10124500Y-10074500D01*
X10124500Y-10482500D02*
X10224500Y-10582500D01*
X10224500Y-10482500D02*
X10124500Y-10582500D01*
X10124500Y-10736500D02*
X10224500Y-10836500D01*
X10224500Y-10736500D02*
X10124500Y-10836500D01*
X10125000Y-8196000D02*
X10225000Y-8296000D01*
X10225000Y-8196000D02*
X10125000Y-8296000D01*
X10125000Y-8450000D02*
X10225000Y-8550000D01*
X10225000Y-8450000D02*
X10125000Y-8550000D01*
X10125000Y-8704000D02*
X10225000Y-8804000D01*
X10225000Y-8704000D02*
X10125000Y-8804000D01*
X10125000Y-8958000D02*
X10225000Y-9058000D01*
X10225000Y-8958000D02*
X10125000Y-9058000D01*
X10125000Y-9212000D02*
X10225000Y-9312000D01*
X10225000Y-9212000D02*
X10125000Y-9312000D01*
X10125000Y-9466000D02*
X10225000Y-9566000D01*
X10225000Y-9466000D02*
X10125000Y-9566000D01*
X10125000Y-9720000D02*
X10225000Y-9820000D01*
X10225000Y-9720000D02*
X10125000Y-9820000D01*
X10125000Y-9974000D02*
X10225000Y-10074000D01*
X10225000Y-9974000D02*
X10125000Y-10074000D01*
X10125000Y-10482000D02*
X10225000Y-10582000D01*
X10225000Y-10482000D02*
X10125000Y-10582000D01*
X10125000Y-10736000D02*
X10225000Y-10836000D01*
X10225000Y-10736000D02*
X10125000Y-10836000D01*
X10377500Y-4894500D02*
X10477500Y-4994500D01*
X10477500Y-4894500D02*
X10377500Y-4994500D01*
X10377500Y-5148500D02*
X10477500Y-5248500D01*
X10477500Y-5148500D02*
X10377500Y-5248500D01*
X10377500Y-5656500D02*
X10477500Y-5756500D01*
X10477500Y-5656500D02*
X10377500Y-5756500D01*
X10377500Y-5910500D02*
X10477500Y-6010500D01*
X10477500Y-5910500D02*
X10377500Y-6010500D01*
X10377500Y-6164500D02*
X10477500Y-6264500D01*
X10477500Y-6164500D02*
X10377500Y-6264500D01*
X10377500Y-6418500D02*
X10477500Y-6518500D01*
X10477500Y-6418500D02*
X10377500Y-6518500D01*
X10377500Y-6672500D02*
X10477500Y-6772500D01*
X10477500Y-6672500D02*
X10377500Y-6772500D01*
X10377500Y-6926500D02*
X10477500Y-7026500D01*
X10477500Y-6926500D02*
X10377500Y-7026500D01*
X10377500Y-7180500D02*
X10477500Y-7280500D01*
X10477500Y-7180500D02*
X10377500Y-7280500D01*
X10377500Y-7434500D02*
X10477500Y-7534500D01*
X10477500Y-7434500D02*
X10377500Y-7534500D01*
X10378000Y-4894000D02*
X10478000Y-4994000D01*
X10478000Y-4894000D02*
X10378000Y-4994000D01*
X10378000Y-5148000D02*
X10478000Y-5248000D01*
X10478000Y-5148000D02*
X10378000Y-5248000D01*
X10378000Y-5656000D02*
X10478000Y-5756000D01*
X10478000Y-5656000D02*
X10378000Y-5756000D01*
X10378000Y-5910000D02*
X10478000Y-6010000D01*
X10478000Y-5910000D02*
X10378000Y-6010000D01*
X10378000Y-6164000D02*
X10478000Y-6264000D01*
X10478000Y-6164000D02*
X10378000Y-6264000D01*
X10378000Y-6418000D02*
X10478000Y-6518000D01*
X10478000Y-6418000D02*
X10378000Y-6518000D01*
X10378000Y-6672000D02*
X10478000Y-6772000D01*
X10478000Y-6672000D02*
X10378000Y-6772000D01*
X10378000Y-6926000D02*
X10478000Y-7026000D01*
X10478000Y-6926000D02*
X10378000Y-7026000D01*
X10378000Y-7180000D02*
X10478000Y-7280000D01*
X10478000Y-7180000D02*
X10378000Y-7280000D01*
X10378000Y-7434000D02*
X10478000Y-7534000D01*
X10478000Y-7434000D02*
X10378000Y-7534000D01*
X10378500Y-8196500D02*
X10478500Y-8296500D01*
X10478500Y-8196500D02*
X10378500Y-8296500D01*
X10378500Y-8450500D02*
X10478500Y-8550500D01*
X10478500Y-8450500D02*
X10378500Y-8550500D01*
X10378500Y-8704500D02*
X10478500Y-8804500D01*
X10478500Y-8704500D02*
X10378500Y-8804500D01*
X10378500Y-8958500D02*
X10478500Y-9058500D01*
X10478500Y-8958500D02*
X10378500Y-9058500D01*
X10378500Y-9212500D02*
X10478500Y-9312500D01*
X10478500Y-9212500D02*
X10378500Y-9312500D01*
X10378500Y-9466500D02*
X10478500Y-9566500D01*
X10478500Y-9466500D02*
X10378500Y-9566500D01*
X10378500Y-9720500D02*
X10478500Y-9820500D01*
X10478500Y-9720500D02*
X10378500Y-9820500D01*
X10378500Y-9974500D02*
X10478500Y-10074500D01*
X10478500Y-9974500D02*
X10378500Y-10074500D01*
X10378500Y-10482500D02*
X10478500Y-10582500D01*
X10478500Y-10482500D02*
X10378500Y-10582500D01*
X10378500Y-10736500D02*
X10478500Y-10836500D01*
X10478500Y-10736500D02*
X10378500Y-10836500D01*
X10379000Y-8196000D02*
X10479000Y-8296000D01*
X10479000Y-8196000D02*
X10379000Y-8296000D01*
X10379000Y-8450000D02*
X10479000Y-8550000D01*
X10479000Y-8450000D02*
X10379000Y-8550000D01*
X10379000Y-8704000D02*
X10479000Y-8804000D01*
X10479000Y-8704000D02*
X10379000Y-8804000D01*
X10379000Y-8958000D02*
X10479000Y-9058000D01*
X10479000Y-8958000D02*
X10379000Y-9058000D01*
X10379000Y-9212000D02*
X10479000Y-9312000D01*
X10479000Y-9212000D02*
X10379000Y-9312000D01*
X10379000Y-9466000D02*
X10479000Y-9566000D01*
X10479000Y-9466000D02*
X10379000Y-9566000D01*
X10379000Y-9720000D02*
X10479000Y-9820000D01*
X10479000Y-9720000D02*
X10379000Y-9820000D01*
X10379000Y-9974000D02*
X10479000Y-10074000D01*
X10479000Y-9974000D02*
X10379000Y-10074000D01*
X10379000Y-10482000D02*
X10479000Y-10582000D01*
X10479000Y-10482000D02*
X10379000Y-10582000D01*
X10379000Y-10736000D02*
X10479000Y-10836000D01*
X10479000Y-10736000D02*
X10379000Y-10836000D01*
X10631500Y-4894500D02*
X10731500Y-4994500D01*
X10731500Y-4894500D02*
X10631500Y-4994500D01*
X10631500Y-5148500D02*
X10731500Y-5248500D01*
X10731500Y-5148500D02*
X10631500Y-5248500D01*
X10631500Y-5656500D02*
X10731500Y-5756500D01*
X10731500Y-5656500D02*
X10631500Y-5756500D01*
X10631500Y-5910500D02*
X10731500Y-6010500D01*
X10731500Y-5910500D02*
X10631500Y-6010500D01*
X10631500Y-6164500D02*
X10731500Y-6264500D01*
X10731500Y-6164500D02*
X10631500Y-6264500D01*
X10631500Y-6418500D02*
X10731500Y-6518500D01*
X10731500Y-6418500D02*
X10631500Y-6518500D01*
X10631500Y-6672500D02*
X10731500Y-6772500D01*
X10731500Y-6672500D02*
X10631500Y-6772500D01*
X10631500Y-6926500D02*
X10731500Y-7026500D01*
X10731500Y-6926500D02*
X10631500Y-7026500D01*
X10631500Y-7180500D02*
X10731500Y-7280500D01*
X10731500Y-7180500D02*
X10631500Y-7280500D01*
X10631500Y-7434500D02*
X10731500Y-7534500D01*
X10731500Y-7434500D02*
X10631500Y-7534500D01*
X10632000Y-4894000D02*
X10732000Y-4994000D01*
X10732000Y-4894000D02*
X10632000Y-4994000D01*
X10632000Y-5148000D02*
X10732000Y-5248000D01*
X10732000Y-5148000D02*
X10632000Y-5248000D01*
X10632000Y-5656000D02*
X10732000Y-5756000D01*
X10732000Y-5656000D02*
X10632000Y-5756000D01*
X10632000Y-5910000D02*
X10732000Y-6010000D01*
X10732000Y-5910000D02*
X10632000Y-6010000D01*
X10632000Y-6164000D02*
X10732000Y-6264000D01*
X10732000Y-6164000D02*
X10632000Y-6264000D01*
X10632000Y-6418000D02*
X10732000Y-6518000D01*
X10732000Y-6418000D02*
X10632000Y-6518000D01*
X10632000Y-6672000D02*
X10732000Y-6772000D01*
X10732000Y-6672000D02*
X10632000Y-6772000D01*
X10632000Y-6926000D02*
X10732000Y-7026000D01*
X10732000Y-6926000D02*
X10632000Y-7026000D01*
X10632000Y-7180000D02*
X10732000Y-7280000D01*
X10732000Y-7180000D02*
X10632000Y-7280000D01*
X10632000Y-7434000D02*
X10732000Y-7534000D01*
X10732000Y-7434000D02*
X10632000Y-7534000D01*
X10632500Y-8196500D02*
X10732500Y-8296500D01*
X10732500Y-8196500D02*
X10632500Y-8296500D01*
X10632500Y-8450500D02*
X10732500Y-8550500D01*
X10732500Y-8450500D02*
X10632500Y-8550500D01*
X10632500Y-8704500D02*
X10732500Y-8804500D01*
X10732500Y-8704500D02*
X10632500Y-8804500D01*
X10632500Y-8958500D02*
X10732500Y-9058500D01*
X10732500Y-8958500D02*
X10632500Y-9058500D01*
X10632500Y-9212500D02*
X10732500Y-9312500D01*
X10732500Y-9212500D02*
X10632500Y-9312500D01*
X10632500Y-9466500D02*
X10732500Y-9566500D01*
X10732500Y-9466500D02*
X10632500Y-9566500D01*
X10632500Y-9720500D02*
X10732500Y-9820500D01*
X10732500Y-9720500D02*
X10632500Y-9820500D01*
X10632500Y-9974500D02*
X10732500Y-10074500D01*
X10732500Y-9974500D02*
X10632500Y-10074500D01*
X10632500Y-10482500D02*
X10732500Y-10582500D01*
X10732500Y-10482500D02*
X10632500Y-10582500D01*
X10632500Y-10736500D02*
X10732500Y-10836500D01*
X10732500Y-10736500D02*
X10632500Y-10836500D01*
X10633000Y-8196000D02*
X10733000Y-8296000D01*
X10733000Y-8196000D02*
X10633000Y-8296000D01*
X10633000Y-8450000D02*
X10733000Y-8550000D01*
X10733000Y-8450000D02*
X10633000Y-8550000D01*
X10633000Y-8704000D02*
X10733000Y-8804000D01*
X10733000Y-8704000D02*
X10633000Y-8804000D01*
X10633000Y-8958000D02*
X10733000Y-9058000D01*
X10733000Y-8958000D02*
X10633000Y-9058000D01*
X10633000Y-9212000D02*
X10733000Y-9312000D01*
X10733000Y-9212000D02*
X10633000Y-9312000D01*
X10633000Y-9466000D02*
X10733000Y-9566000D01*
X10733000Y-9466000D02*
X10633000Y-9566000D01*
X10633000Y-9720000D02*
X10733000Y-9820000D01*
X10733000Y-9720000D02*
X10633000Y-9820000D01*
X10633000Y-9974000D02*
X10733000Y-10074000D01*
X10733000Y-9974000D02*
X10633000Y-10074000D01*
X10633000Y-10482000D02*
X10733000Y-10582000D01*
X10733000Y-10482000D02*
X10633000Y-10582000D01*
X10633000Y-10736000D02*
X10733000Y-10836000D01*
X10733000Y-10736000D02*
X10633000Y-10836000D01*
X10885500Y-4894500D02*
X10985500Y-4994500D01*
X10985500Y-4894500D02*
X10885500Y-4994500D01*
X10885500Y-5148500D02*
X10985500Y-5248500D01*
X10985500Y-5148500D02*
X10885500Y-5248500D01*
X10885500Y-5656500D02*
X10985500Y-5756500D01*
X10985500Y-5656500D02*
X10885500Y-5756500D01*
X10885500Y-5910500D02*
X10985500Y-6010500D01*
X10985500Y-5910500D02*
X10885500Y-6010500D01*
X10885500Y-6164500D02*
X10985500Y-6264500D01*
X10985500Y-6164500D02*
X10885500Y-6264500D01*
X10885500Y-6418500D02*
X10985500Y-6518500D01*
X10985500Y-6418500D02*
X10885500Y-6518500D01*
X10885500Y-6672500D02*
X10985500Y-6772500D01*
X10985500Y-6672500D02*
X10885500Y-6772500D01*
X10885500Y-6926500D02*
X10985500Y-7026500D01*
X10985500Y-6926500D02*
X10885500Y-7026500D01*
X10885500Y-7180500D02*
X10985500Y-7280500D01*
X10985500Y-7180500D02*
X10885500Y-7280500D01*
X10885500Y-7434500D02*
X10985500Y-7534500D01*
X10985500Y-7434500D02*
X10885500Y-7534500D01*
X10886000Y-4894000D02*
X10986000Y-4994000D01*
X10986000Y-4894000D02*
X10886000Y-4994000D01*
X10886000Y-5148000D02*
X10986000Y-5248000D01*
X10986000Y-5148000D02*
X10886000Y-5248000D01*
X10886000Y-5656000D02*
X10986000Y-5756000D01*
X10986000Y-5656000D02*
X10886000Y-5756000D01*
X10886000Y-5910000D02*
X10986000Y-6010000D01*
X10986000Y-5910000D02*
X10886000Y-6010000D01*
X10886000Y-6164000D02*
X10986000Y-6264000D01*
X10986000Y-6164000D02*
X10886000Y-6264000D01*
X10886000Y-6418000D02*
X10986000Y-6518000D01*
X10986000Y-6418000D02*
X10886000Y-6518000D01*
X10886000Y-6672000D02*
X10986000Y-6772000D01*
X10986000Y-6672000D02*
X10886000Y-6772000D01*
X10886000Y-6926000D02*
X10986000Y-7026000D01*
X10986000Y-6926000D02*
X10886000Y-7026000D01*
X10886000Y-7180000D02*
X10986000Y-7280000D01*
X10986000Y-7180000D02*
X10886000Y-7280000D01*
X10886000Y-7434000D02*
X10986000Y-7534000D01*
X10986000Y-7434000D02*
X10886000Y-7534000D01*
X10886500Y-8196500D02*
X10986500Y-8296500D01*
X10986500Y-8196500D02*
X10886500Y-8296500D01*
X10886500Y-8450500D02*
X10986500Y-8550500D01*
X10986500Y-8450500D02*
X10886500Y-8550500D01*
X10886500Y-8704500D02*
X10986500Y-8804500D01*
X10986500Y-8704500D02*
X10886500Y-8804500D01*
X10886500Y-8958500D02*
X10986500Y-9058500D01*
X10986500Y-8958500D02*
X10886500Y-9058500D01*
X10886500Y-9212500D02*
X10986500Y-9312500D01*
X10986500Y-9212500D02*
X10886500Y-9312500D01*
X10886500Y-9466500D02*
X10986500Y-9566500D01*
X10986500Y-9466500D02*
X10886500Y-9566500D01*
X10886500Y-9720500D02*
X10986500Y-9820500D01*
X10986500Y-9720500D02*
X10886500Y-9820500D01*
X10886500Y-9974500D02*
X10986500Y-10074500D01*
X10986500Y-9974500D02*
X10886500Y-10074500D01*
X10886500Y-10482500D02*
X10986500Y-10582500D01*
X10986500Y-10482500D02*
X10886500Y-10582500D01*
X10886500Y-10736500D02*
X10986500Y-10836500D01*
X10986500Y-10736500D02*
X10886500Y-10836500D01*
X10887000Y-8196000D02*
X10987000Y-8296000D01*
X10987000Y-8196000D02*
X10887000Y-8296000D01*
X10887000Y-8450000D02*
X10987000Y-8550000D01*
X10987000Y-8450000D02*
X10887000Y-8550000D01*
X10887000Y-8704000D02*
X10987000Y-8804000D01*
X10987000Y-8704000D02*
X10887000Y-8804000D01*
X10887000Y-8958000D02*
X10987000Y-9058000D01*
X10987000Y-8958000D02*
X10887000Y-9058000D01*
X10887000Y-9212000D02*
X10987000Y-9312000D01*
X10987000Y-9212000D02*
X10887000Y-9312000D01*
X10887000Y-9466000D02*
X10987000Y-9566000D01*
X10987000Y-9466000D02*
X10887000Y-9566000D01*
X10887000Y-9720000D02*
X10987000Y-9820000D01*
X10987000Y-9720000D02*
X10887000Y-9820000D01*
X10887000Y-9974000D02*
X10987000Y-10074000D01*
X10987000Y-9974000D02*
X10887000Y-10074000D01*
X10887000Y-10482000D02*
X10987000Y-10582000D01*
X10987000Y-10482000D02*
X10887000Y-10582000D01*
X10887000Y-10736000D02*
X10987000Y-10836000D01*
X10987000Y-10736000D02*
X10887000Y-10836000D01*
X11139500Y-4894500D02*
X11239500Y-4994500D01*
X11239500Y-4894500D02*
X11139500Y-4994500D01*
X11139500Y-5148500D02*
X11239500Y-5248500D01*
X11239500Y-5148500D02*
X11139500Y-5248500D01*
X11139500Y-5656500D02*
X11239500Y-5756500D01*
X11239500Y-5656500D02*
X11139500Y-5756500D01*
X11139500Y-5910500D02*
X11239500Y-6010500D01*
X11239500Y-5910500D02*
X11139500Y-6010500D01*
X11139500Y-6164500D02*
X11239500Y-6264500D01*
X11239500Y-6164500D02*
X11139500Y-6264500D01*
X11139500Y-6418500D02*
X11239500Y-6518500D01*
X11239500Y-6418500D02*
X11139500Y-6518500D01*
X11139500Y-6672500D02*
X11239500Y-6772500D01*
X11239500Y-6672500D02*
X11139500Y-6772500D01*
X11139500Y-6926500D02*
X11239500Y-7026500D01*
X11239500Y-6926500D02*
X11139500Y-7026500D01*
X11139500Y-7180500D02*
X11239500Y-7280500D01*
X11239500Y-7180500D02*
X11139500Y-7280500D01*
X11139500Y-7434500D02*
X11239500Y-7534500D01*
X11239500Y-7434500D02*
X11139500Y-7534500D01*
X11140000Y-4894000D02*
X11240000Y-4994000D01*
X11240000Y-4894000D02*
X11140000Y-4994000D01*
X11140000Y-5148000D02*
X11240000Y-5248000D01*
X11240000Y-5148000D02*
X11140000Y-5248000D01*
X11140000Y-5656000D02*
X11240000Y-5756000D01*
X11240000Y-5656000D02*
X11140000Y-5756000D01*
X11140000Y-5910000D02*
X11240000Y-6010000D01*
X11240000Y-5910000D02*
X11140000Y-6010000D01*
X11140000Y-6164000D02*
X11240000Y-6264000D01*
X11240000Y-6164000D02*
X11140000Y-6264000D01*
X11140000Y-6418000D02*
X11240000Y-6518000D01*
X11240000Y-6418000D02*
X11140000Y-6518000D01*
X11140000Y-6672000D02*
X11240000Y-6772000D01*
X11240000Y-6672000D02*
X11140000Y-6772000D01*
X11140000Y-6926000D02*
X11240000Y-7026000D01*
X11240000Y-6926000D02*
X11140000Y-7026000D01*
X11140000Y-7180000D02*
X11240000Y-7280000D01*
X11240000Y-7180000D02*
X11140000Y-7280000D01*
X11140000Y-7434000D02*
X11240000Y-7534000D01*
X11240000Y-7434000D02*
X11140000Y-7534000D01*
X11140500Y-8196500D02*
X11240500Y-8296500D01*
X11240500Y-8196500D02*
X11140500Y-8296500D01*
X11140500Y-8450500D02*
X11240500Y-8550500D01*
X11240500Y-8450500D02*
X11140500Y-8550500D01*
X11140500Y-8704500D02*
X11240500Y-8804500D01*
X11240500Y-8704500D02*
X11140500Y-8804500D01*
X11140500Y-8958500D02*
X11240500Y-9058500D01*
X11240500Y-8958500D02*
X11140500Y-9058500D01*
X11140500Y-9212500D02*
X11240500Y-9312500D01*
X11240500Y-9212500D02*
X11140500Y-9312500D01*
X11140500Y-9466500D02*
X11240500Y-9566500D01*
X11240500Y-9466500D02*
X11140500Y-9566500D01*
X11140500Y-9720500D02*
X11240500Y-9820500D01*
X11240500Y-9720500D02*
X11140500Y-9820500D01*
X11140500Y-9974500D02*
X11240500Y-10074500D01*
X11240500Y-9974500D02*
X11140500Y-10074500D01*
X11140500Y-10482500D02*
X11240500Y-10582500D01*
X11240500Y-10482500D02*
X11140500Y-10582500D01*
X11140500Y-10736500D02*
X11240500Y-10836500D01*
X11240500Y-10736500D02*
X11140500Y-10836500D01*
X11141000Y-8196000D02*
X11241000Y-8296000D01*
X11241000Y-8196000D02*
X11141000Y-8296000D01*
X11141000Y-8450000D02*
X11241000Y-8550000D01*
X11241000Y-8450000D02*
X11141000Y-8550000D01*
X11141000Y-8704000D02*
X11241000Y-8804000D01*
X11241000Y-8704000D02*
X11141000Y-8804000D01*
X11141000Y-8958000D02*
X11241000Y-9058000D01*
X11241000Y-8958000D02*
X11141000Y-9058000D01*
X11141000Y-9212000D02*
X11241000Y-9312000D01*
X11241000Y-9212000D02*
X11141000Y-9312000D01*
X11141000Y-9466000D02*
X11241000Y-9566000D01*
X11241000Y-9466000D02*
X11141000Y-9566000D01*
X11141000Y-9720000D02*
X11241000Y-9820000D01*
X11241000Y-9720000D02*
X11141000Y-9820000D01*
X11141000Y-9974000D02*
X11241000Y-10074000D01*
X11241000Y-9974000D02*
X11141000Y-10074000D01*
X11141000Y-10482000D02*
X11241000Y-10582000D01*
X11241000Y-10482000D02*
X11141000Y-10582000D01*
X11141000Y-10736000D02*
X11241000Y-10836000D01*
X11241000Y-10736000D02*
X11141000Y-10836000D01*
X11393500Y-4894500D02*
X11493500Y-4994500D01*
X11493500Y-4894500D02*
X11393500Y-4994500D01*
X11393500Y-5148500D02*
X11493500Y-5248500D01*
X11493500Y-5148500D02*
X11393500Y-5248500D01*
X11393500Y-5656500D02*
X11493500Y-5756500D01*
X11493500Y-5656500D02*
X11393500Y-5756500D01*
X11393500Y-5910500D02*
X11493500Y-6010500D01*
X11493500Y-5910500D02*
X11393500Y-6010500D01*
X11393500Y-6164500D02*
X11493500Y-6264500D01*
X11493500Y-6164500D02*
X11393500Y-6264500D01*
X11393500Y-6418500D02*
X11493500Y-6518500D01*
X11493500Y-6418500D02*
X11393500Y-6518500D01*
X11393500Y-6672500D02*
X11493500Y-6772500D01*
X11493500Y-6672500D02*
X11393500Y-6772500D01*
X11393500Y-6926500D02*
X11493500Y-7026500D01*
X11493500Y-6926500D02*
X11393500Y-7026500D01*
X11393500Y-7180500D02*
X11493500Y-7280500D01*
X11493500Y-7180500D02*
X11393500Y-7280500D01*
X11393500Y-7434500D02*
X11493500Y-7534500D01*
X11493500Y-7434500D02*
X11393500Y-7534500D01*
X11394000Y-4894000D02*
X11494000Y-4994000D01*
X11494000Y-4894000D02*
X11394000Y-4994000D01*
X11394000Y-5148000D02*
X11494000Y-5248000D01*
X11494000Y-5148000D02*
X11394000Y-5248000D01*
X11394000Y-5656000D02*
X11494000Y-5756000D01*
X11494000Y-5656000D02*
X11394000Y-5756000D01*
X11394000Y-5910000D02*
X11494000Y-6010000D01*
X11494000Y-5910000D02*
X11394000Y-6010000D01*
X11394000Y-6164000D02*
X11494000Y-6264000D01*
X11494000Y-6164000D02*
X11394000Y-6264000D01*
X11394000Y-6418000D02*
X11494000Y-6518000D01*
X11494000Y-6418000D02*
X11394000Y-6518000D01*
X11394000Y-6672000D02*
X11494000Y-6772000D01*
X11494000Y-6672000D02*
X11394000Y-6772000D01*
X11394000Y-6926000D02*
X11494000Y-7026000D01*
X11494000Y-6926000D02*
X11394000Y-7026000D01*
X11394000Y-7180000D02*
X11494000Y-7280000D01*
X11494000Y-7180000D02*
X11394000Y-7280000D01*
X11394000Y-7434000D02*
X11494000Y-7534000D01*
X11494000Y-7434000D02*
X11394000Y-7534000D01*
X11394500Y-8196500D02*
X11494500Y-8296500D01*
X11494500Y-8196500D02*
X11394500Y-8296500D01*
X11394500Y-8450500D02*
X11494500Y-8550500D01*
X11494500Y-8450500D02*
X11394500Y-8550500D01*
X11394500Y-8704500D02*
X11494500Y-8804500D01*
X11494500Y-8704500D02*
X11394500Y-8804500D01*
X11394500Y-8958500D02*
X11494500Y-9058500D01*
X11494500Y-8958500D02*
X11394500Y-9058500D01*
X11394500Y-9212500D02*
X11494500Y-9312500D01*
X11494500Y-9212500D02*
X11394500Y-9312500D01*
X11394500Y-9466500D02*
X11494500Y-9566500D01*
X11494500Y-9466500D02*
X11394500Y-9566500D01*
X11394500Y-9720500D02*
X11494500Y-9820500D01*
X11494500Y-9720500D02*
X11394500Y-9820500D01*
X11394500Y-9974500D02*
X11494500Y-10074500D01*
X11494500Y-9974500D02*
X11394500Y-10074500D01*
X11394500Y-10482500D02*
X11494500Y-10582500D01*
X11494500Y-10482500D02*
X11394500Y-10582500D01*
X11394500Y-10736500D02*
X11494500Y-10836500D01*
X11494500Y-10736500D02*
X11394500Y-10836500D01*
X11395000Y-8196000D02*
X11495000Y-8296000D01*
X11495000Y-8196000D02*
X11395000Y-8296000D01*
X11395000Y-8450000D02*
X11495000Y-8550000D01*
X11495000Y-8450000D02*
X11395000Y-8550000D01*
X11395000Y-8704000D02*
X11495000Y-8804000D01*
X11495000Y-8704000D02*
X11395000Y-8804000D01*
X11395000Y-8958000D02*
X11495000Y-9058000D01*
X11495000Y-8958000D02*
X11395000Y-9058000D01*
X11395000Y-9212000D02*
X11495000Y-9312000D01*
X11495000Y-9212000D02*
X11395000Y-9312000D01*
X11395000Y-9466000D02*
X11495000Y-9566000D01*
X11495000Y-9466000D02*
X11395000Y-9566000D01*
X11395000Y-9720000D02*
X11495000Y-9820000D01*
X11495000Y-9720000D02*
X11395000Y-9820000D01*
X11395000Y-9974000D02*
X11495000Y-10074000D01*
X11495000Y-9974000D02*
X11395000Y-10074000D01*
X11395000Y-10482000D02*
X11495000Y-10582000D01*
X11495000Y-10482000D02*
X11395000Y-10582000D01*
X11395000Y-10736000D02*
X11495000Y-10836000D01*
X11495000Y-10736000D02*
X11395000Y-10836000D01*
X11647500Y-4894500D02*
X11747500Y-4994500D01*
X11747500Y-4894500D02*
X11647500Y-4994500D01*
X11647500Y-5148500D02*
X11747500Y-5248500D01*
X11747500Y-5148500D02*
X11647500Y-5248500D01*
X11647500Y-5656500D02*
X11747500Y-5756500D01*
X11747500Y-5656500D02*
X11647500Y-5756500D01*
X11647500Y-5910500D02*
X11747500Y-6010500D01*
X11747500Y-5910500D02*
X11647500Y-6010500D01*
X11647500Y-6164500D02*
X11747500Y-6264500D01*
X11747500Y-6164500D02*
X11647500Y-6264500D01*
X11647500Y-6418500D02*
X11747500Y-6518500D01*
X11747500Y-6418500D02*
X11647500Y-6518500D01*
X11647500Y-6672500D02*
X11747500Y-6772500D01*
X11747500Y-6672500D02*
X11647500Y-6772500D01*
X11647500Y-6926500D02*
X11747500Y-7026500D01*
X11747500Y-6926500D02*
X11647500Y-7026500D01*
X11647500Y-7180500D02*
X11747500Y-7280500D01*
X11747500Y-7180500D02*
X11647500Y-7280500D01*
X11647500Y-7434500D02*
X11747500Y-7534500D01*
X11747500Y-7434500D02*
X11647500Y-7534500D01*
X11648000Y-4894000D02*
X11748000Y-4994000D01*
X11748000Y-4894000D02*
X11648000Y-4994000D01*
X11648000Y-5148000D02*
X11748000Y-5248000D01*
X11748000Y-5148000D02*
X11648000Y-5248000D01*
X11648000Y-5656000D02*
X11748000Y-5756000D01*
X11748000Y-5656000D02*
X11648000Y-5756000D01*
X11648000Y-5910000D02*
X11748000Y-6010000D01*
X11748000Y-5910000D02*
X11648000Y-6010000D01*
X11648000Y-6164000D02*
X11748000Y-6264000D01*
X11748000Y-6164000D02*
X11648000Y-6264000D01*
X11648000Y-6418000D02*
X11748000Y-6518000D01*
X11748000Y-6418000D02*
X11648000Y-6518000D01*
X11648000Y-6672000D02*
X11748000Y-6772000D01*
X11748000Y-6672000D02*
X11648000Y-6772000D01*
X11648000Y-6926000D02*
X11748000Y-7026000D01*
X11748000Y-6926000D02*
X11648000Y-7026000D01*
X11648000Y-7180000D02*
X11748000Y-7280000D01*
X11748000Y-7180000D02*
X11648000Y-7280000D01*
X11648000Y-7434000D02*
X11748000Y-7534000D01*
X11748000Y-7434000D02*
X11648000Y-7534000D01*
X11648500Y-8196500D02*
X11748500Y-8296500D01*
X11748500Y-8196500D02*
X11648500Y-8296500D01*
X11648500Y-8450500D02*
X11748500Y-8550500D01*
X11748500Y-8450500D02*
X11648500Y-8550500D01*
X11648500Y-8704500D02*
X11748500Y-8804500D01*
X11748500Y-8704500D02*
X11648500Y-8804500D01*
X11648500Y-8958500D02*
X11748500Y-9058500D01*
X11748500Y-8958500D02*
X11648500Y-9058500D01*
X11648500Y-9212500D02*
X11748500Y-9312500D01*
X11748500Y-9212500D02*
X11648500Y-9312500D01*
X11648500Y-9466500D02*
X11748500Y-9566500D01*
X11748500Y-9466500D02*
X11648500Y-9566500D01*
X11648500Y-9720500D02*
X11748500Y-9820500D01*
X11748500Y-9720500D02*
X11648500Y-9820500D01*
X11648500Y-9974500D02*
X11748500Y-10074500D01*
X11748500Y-9974500D02*
X11648500Y-10074500D01*
X11648500Y-10482500D02*
X11748500Y-10582500D01*
X11748500Y-10482500D02*
X11648500Y-10582500D01*
X11648500Y-10736500D02*
X11748500Y-10836500D01*
X11748500Y-10736500D02*
X11648500Y-10836500D01*
X11649000Y-8196000D02*
X11749000Y-8296000D01*
X11749000Y-8196000D02*
X11649000Y-8296000D01*
X11649000Y-8450000D02*
X11749000Y-8550000D01*
X11749000Y-8450000D02*
X11649000Y-8550000D01*
X11649000Y-8704000D02*
X11749000Y-8804000D01*
X11749000Y-8704000D02*
X11649000Y-8804000D01*
X11649000Y-8958000D02*
X11749000Y-9058000D01*
X11749000Y-8958000D02*
X11649000Y-9058000D01*
X11649000Y-9212000D02*
X11749000Y-9312000D01*
X11749000Y-9212000D02*
X11649000Y-9312000D01*
X11649000Y-9466000D02*
X11749000Y-9566000D01*
X11749000Y-9466000D02*
X11649000Y-9566000D01*
X11649000Y-9720000D02*
X11749000Y-9820000D01*
X11749000Y-9720000D02*
X11649000Y-9820000D01*
X11649000Y-9974000D02*
X11749000Y-10074000D01*
X11749000Y-9974000D02*
X11649000Y-10074000D01*
X11649000Y-10482000D02*
X11749000Y-10582000D01*
X11749000Y-10482000D02*
X11649000Y-10582000D01*
X11649000Y-10736000D02*
X11749000Y-10836000D01*
X11749000Y-10736000D02*
X11649000Y-10836000D01*
X11901500Y-4894500D02*
X12001500Y-4994500D01*
X12001500Y-4894500D02*
X11901500Y-4994500D01*
X11901500Y-5148500D02*
X12001500Y-5248500D01*
X12001500Y-5148500D02*
X11901500Y-5248500D01*
X11901500Y-5656500D02*
X12001500Y-5756500D01*
X12001500Y-5656500D02*
X11901500Y-5756500D01*
X11901500Y-5910500D02*
X12001500Y-6010500D01*
X12001500Y-5910500D02*
X11901500Y-6010500D01*
X11901500Y-6164500D02*
X12001500Y-6264500D01*
X12001500Y-6164500D02*
X11901500Y-6264500D01*
X11901500Y-6418500D02*
X12001500Y-6518500D01*
X12001500Y-6418500D02*
X11901500Y-6518500D01*
X11901500Y-6672500D02*
X12001500Y-6772500D01*
X12001500Y-6672500D02*
X11901500Y-6772500D01*
X11901500Y-6926500D02*
X12001500Y-7026500D01*
X12001500Y-6926500D02*
X11901500Y-7026500D01*
X11901500Y-7180500D02*
X12001500Y-7280500D01*
X12001500Y-7180500D02*
X11901500Y-7280500D01*
X11901500Y-7434500D02*
X12001500Y-7534500D01*
X12001500Y-7434500D02*
X11901500Y-7534500D01*
X11902000Y-4894000D02*
X12002000Y-4994000D01*
X12002000Y-4894000D02*
X11902000Y-4994000D01*
X11902000Y-5148000D02*
X12002000Y-5248000D01*
X12002000Y-5148000D02*
X11902000Y-5248000D01*
X11902000Y-5656000D02*
X12002000Y-5756000D01*
X12002000Y-5656000D02*
X11902000Y-5756000D01*
X11902000Y-5910000D02*
X12002000Y-6010000D01*
X12002000Y-5910000D02*
X11902000Y-6010000D01*
X11902000Y-6164000D02*
X12002000Y-6264000D01*
X12002000Y-6164000D02*
X11902000Y-6264000D01*
X11902000Y-6418000D02*
X12002000Y-6518000D01*
X12002000Y-6418000D02*
X11902000Y-6518000D01*
X11902000Y-6672000D02*
X12002000Y-6772000D01*
X12002000Y-6672000D02*
X11902000Y-6772000D01*
X11902000Y-6926000D02*
X12002000Y-7026000D01*
X12002000Y-6926000D02*
X11902000Y-7026000D01*
X11902000Y-7180000D02*
X12002000Y-7280000D01*
X12002000Y-7180000D02*
X11902000Y-7280000D01*
X11902000Y-7434000D02*
X12002000Y-7534000D01*
X12002000Y-7434000D02*
X11902000Y-7534000D01*
X11902500Y-8196500D02*
X12002500Y-8296500D01*
X12002500Y-8196500D02*
X11902500Y-8296500D01*
X11902500Y-8450500D02*
X12002500Y-8550500D01*
X12002500Y-8450500D02*
X11902500Y-8550500D01*
X11902500Y-8704500D02*
X12002500Y-8804500D01*
X12002500Y-8704500D02*
X11902500Y-8804500D01*
X11902500Y-8958500D02*
X12002500Y-9058500D01*
X12002500Y-8958500D02*
X11902500Y-9058500D01*
X11902500Y-9212500D02*
X12002500Y-9312500D01*
X12002500Y-9212500D02*
X11902500Y-9312500D01*
X11902500Y-9466500D02*
X12002500Y-9566500D01*
X12002500Y-9466500D02*
X11902500Y-9566500D01*
X11902500Y-9720500D02*
X12002500Y-9820500D01*
X12002500Y-9720500D02*
X11902500Y-9820500D01*
X11902500Y-9974500D02*
X12002500Y-10074500D01*
X12002500Y-9974500D02*
X11902500Y-10074500D01*
X11902500Y-10482500D02*
X12002500Y-10582500D01*
X12002500Y-10482500D02*
X11902500Y-10582500D01*
X11902500Y-10736500D02*
X12002500Y-10836500D01*
X12002500Y-10736500D02*
X11902500Y-10836500D01*
X11903000Y-8196000D02*
X12003000Y-8296000D01*
X12003000Y-8196000D02*
X11903000Y-8296000D01*
X11903000Y-8450000D02*
X12003000Y-8550000D01*
X12003000Y-8450000D02*
X11903000Y-8550000D01*
X11903000Y-8704000D02*
X12003000Y-8804000D01*
X12003000Y-8704000D02*
X11903000Y-8804000D01*
X11903000Y-8958000D02*
X12003000Y-9058000D01*
X12003000Y-8958000D02*
X11903000Y-9058000D01*
X11903000Y-9212000D02*
X12003000Y-9312000D01*
X12003000Y-9212000D02*
X11903000Y-9312000D01*
X11903000Y-9466000D02*
X12003000Y-9566000D01*
X12003000Y-9466000D02*
X11903000Y-9566000D01*
X11903000Y-9720000D02*
X12003000Y-9820000D01*
X12003000Y-9720000D02*
X11903000Y-9820000D01*
X11903000Y-9974000D02*
X12003000Y-10074000D01*
X12003000Y-9974000D02*
X11903000Y-10074000D01*
X11903000Y-10482000D02*
X12003000Y-10582000D01*
X12003000Y-10482000D02*
X11903000Y-10582000D01*
X11903000Y-10736000D02*
X12003000Y-10836000D01*
X12003000Y-10736000D02*
X11903000Y-10836000D01*
X12155500Y-4894500D02*
X12255500Y-4994500D01*
X12255500Y-4894500D02*
X12155500Y-4994500D01*
X12155500Y-5148500D02*
X12255500Y-5248500D01*
X12255500Y-5148500D02*
X12155500Y-5248500D01*
X12155500Y-5656500D02*
X12255500Y-5756500D01*
X12255500Y-5656500D02*
X12155500Y-5756500D01*
X12155500Y-5910500D02*
X12255500Y-6010500D01*
X12255500Y-5910500D02*
X12155500Y-6010500D01*
X12155500Y-6164500D02*
X12255500Y-6264500D01*
X12255500Y-6164500D02*
X12155500Y-6264500D01*
X12155500Y-6418500D02*
X12255500Y-6518500D01*
X12255500Y-6418500D02*
X12155500Y-6518500D01*
X12155500Y-6672500D02*
X12255500Y-6772500D01*
X12255500Y-6672500D02*
X12155500Y-6772500D01*
X12155500Y-6926500D02*
X12255500Y-7026500D01*
X12255500Y-6926500D02*
X12155500Y-7026500D01*
X12155500Y-7180500D02*
X12255500Y-7280500D01*
X12255500Y-7180500D02*
X12155500Y-7280500D01*
X12155500Y-7434500D02*
X12255500Y-7534500D01*
X12255500Y-7434500D02*
X12155500Y-7534500D01*
X12156000Y-4894000D02*
X12256000Y-4994000D01*
X12256000Y-4894000D02*
X12156000Y-4994000D01*
X12156000Y-5148000D02*
X12256000Y-5248000D01*
X12256000Y-5148000D02*
X12156000Y-5248000D01*
X12156000Y-5656000D02*
X12256000Y-5756000D01*
X12256000Y-5656000D02*
X12156000Y-5756000D01*
X12156000Y-5910000D02*
X12256000Y-6010000D01*
X12256000Y-5910000D02*
X12156000Y-6010000D01*
X12156000Y-6164000D02*
X12256000Y-6264000D01*
X12256000Y-6164000D02*
X12156000Y-6264000D01*
X12156000Y-6418000D02*
X12256000Y-6518000D01*
X12256000Y-6418000D02*
X12156000Y-6518000D01*
X12156000Y-6672000D02*
X12256000Y-6772000D01*
X12256000Y-6672000D02*
X12156000Y-6772000D01*
X12156000Y-6926000D02*
X12256000Y-7026000D01*
X12256000Y-6926000D02*
X12156000Y-7026000D01*
X12156000Y-7180000D02*
X12256000Y-7280000D01*
X12256000Y-7180000D02*
X12156000Y-7280000D01*
X12156000Y-7434000D02*
X12256000Y-7534000D01*
X12256000Y-7434000D02*
X12156000Y-7534000D01*
X12156500Y-8196500D02*
X12256500Y-8296500D01*
X12256500Y-8196500D02*
X12156500Y-8296500D01*
X12156500Y-8450500D02*
X12256500Y-8550500D01*
X12256500Y-8450500D02*
X12156500Y-8550500D01*
X12156500Y-8704500D02*
X12256500Y-8804500D01*
X12256500Y-8704500D02*
X12156500Y-8804500D01*
X12156500Y-8958500D02*
X12256500Y-9058500D01*
X12256500Y-8958500D02*
X12156500Y-9058500D01*
X12156500Y-9212500D02*
X12256500Y-9312500D01*
X12256500Y-9212500D02*
X12156500Y-9312500D01*
X12156500Y-9466500D02*
X12256500Y-9566500D01*
X12256500Y-9466500D02*
X12156500Y-9566500D01*
X12156500Y-9720500D02*
X12256500Y-9820500D01*
X12256500Y-9720500D02*
X12156500Y-9820500D01*
X12156500Y-9974500D02*
X12256500Y-10074500D01*
X12256500Y-9974500D02*
X12156500Y-10074500D01*
X12156500Y-10482500D02*
X12256500Y-10582500D01*
X12256500Y-10482500D02*
X12156500Y-10582500D01*
X12156500Y-10736500D02*
X12256500Y-10836500D01*
X12256500Y-10736500D02*
X12156500Y-10836500D01*
X12157000Y-8196000D02*
X12257000Y-8296000D01*
X12257000Y-8196000D02*
X12157000Y-8296000D01*
X12157000Y-8450000D02*
X12257000Y-8550000D01*
X12257000Y-8450000D02*
X12157000Y-8550000D01*
X12157000Y-8704000D02*
X12257000Y-8804000D01*
X12257000Y-8704000D02*
X12157000Y-8804000D01*
X12157000Y-8958000D02*
X12257000Y-9058000D01*
X12257000Y-8958000D02*
X12157000Y-9058000D01*
X12157000Y-9212000D02*
X12257000Y-9312000D01*
X12257000Y-9212000D02*
X12157000Y-9312000D01*
X12157000Y-9466000D02*
X12257000Y-9566000D01*
X12257000Y-9466000D02*
X12157000Y-9566000D01*
X12157000Y-9720000D02*
X12257000Y-9820000D01*
X12257000Y-9720000D02*
X12157000Y-9820000D01*
X12157000Y-9974000D02*
X12257000Y-10074000D01*
X12257000Y-9974000D02*
X12157000Y-10074000D01*
X12157000Y-10482000D02*
X12257000Y-10582000D01*
X12257000Y-10482000D02*
X12157000Y-10582000D01*
X12157000Y-10736000D02*
X12257000Y-10836000D01*
X12257000Y-10736000D02*
X12157000Y-10836000D01*
X12409500Y-4894500D02*
X12509500Y-4994500D01*
X12509500Y-4894500D02*
X12409500Y-4994500D01*
X12409500Y-5148500D02*
X12509500Y-5248500D01*
X12509500Y-5148500D02*
X12409500Y-5248500D01*
X12409500Y-5656500D02*
X12509500Y-5756500D01*
X12509500Y-5656500D02*
X12409500Y-5756500D01*
X12409500Y-5910500D02*
X12509500Y-6010500D01*
X12509500Y-5910500D02*
X12409500Y-6010500D01*
X12409500Y-6164500D02*
X12509500Y-6264500D01*
X12509500Y-6164500D02*
X12409500Y-6264500D01*
X12409500Y-6418500D02*
X12509500Y-6518500D01*
X12509500Y-6418500D02*
X12409500Y-6518500D01*
X12409500Y-6672500D02*
X12509500Y-6772500D01*
X12509500Y-6672500D02*
X12409500Y-6772500D01*
X12409500Y-6926500D02*
X12509500Y-7026500D01*
X12509500Y-6926500D02*
X12409500Y-7026500D01*
X12409500Y-7180500D02*
X12509500Y-7280500D01*
X12509500Y-7180500D02*
X12409500Y-7280500D01*
X12409500Y-7434500D02*
X12509500Y-7534500D01*
X12509500Y-7434500D02*
X12409500Y-7534500D01*
X12410000Y-4894000D02*
X12510000Y-4994000D01*
X12510000Y-4894000D02*
X12410000Y-4994000D01*
X12410000Y-5148000D02*
X12510000Y-5248000D01*
X12510000Y-5148000D02*
X12410000Y-5248000D01*
X12410000Y-5656000D02*
X12510000Y-5756000D01*
X12510000Y-5656000D02*
X12410000Y-5756000D01*
X12410000Y-5910000D02*
X12510000Y-6010000D01*
X12510000Y-5910000D02*
X12410000Y-6010000D01*
X12410000Y-6164000D02*
X12510000Y-6264000D01*
X12510000Y-6164000D02*
X12410000Y-6264000D01*
X12410000Y-6418000D02*
X12510000Y-6518000D01*
X12510000Y-6418000D02*
X12410000Y-6518000D01*
X12410000Y-6672000D02*
X12510000Y-6772000D01*
X12510000Y-6672000D02*
X12410000Y-6772000D01*
X12410000Y-6926000D02*
X12510000Y-7026000D01*
X12510000Y-6926000D02*
X12410000Y-7026000D01*
X12410000Y-7180000D02*
X12510000Y-7280000D01*
X12510000Y-7180000D02*
X12410000Y-7280000D01*
X12410000Y-7434000D02*
X12510000Y-7534000D01*
X12510000Y-7434000D02*
X12410000Y-7534000D01*
X12410500Y-8196500D02*
X12510500Y-8296500D01*
X12510500Y-8196500D02*
X12410500Y-8296500D01*
X12410500Y-8450500D02*
X12510500Y-8550500D01*
X12510500Y-8450500D02*
X12410500Y-8550500D01*
X12410500Y-8704500D02*
X12510500Y-8804500D01*
X12510500Y-8704500D02*
X12410500Y-8804500D01*
X12410500Y-8958500D02*
X12510500Y-9058500D01*
X12510500Y-8958500D02*
X12410500Y-9058500D01*
X12410500Y-9212500D02*
X12510500Y-9312500D01*
X12510500Y-9212500D02*
X12410500Y-9312500D01*
X12410500Y-9466500D02*
X12510500Y-9566500D01*
X12510500Y-9466500D02*
X12410500Y-9566500D01*
X12410500Y-9720500D02*
X12510500Y-9820500D01*
X12510500Y-9720500D02*
X12410500Y-9820500D01*
X12410500Y-9974500D02*
X12510500Y-10074500D01*
X12510500Y-9974500D02*
X12410500Y-10074500D01*
X12410500Y-10482500D02*
X12510500Y-10582500D01*
X12510500Y-10482500D02*
X12410500Y-10582500D01*
X12410500Y-10736500D02*
X12510500Y-10836500D01*
X12510500Y-10736500D02*
X12410500Y-10836500D01*
X12411000Y-8196000D02*
X12511000Y-8296000D01*
X12511000Y-8196000D02*
X12411000Y-8296000D01*
X12411000Y-8450000D02*
X12511000Y-8550000D01*
X12511000Y-8450000D02*
X12411000Y-8550000D01*
X12411000Y-8704000D02*
X12511000Y-8804000D01*
X12511000Y-8704000D02*
X12411000Y-8804000D01*
X12411000Y-8958000D02*
X12511000Y-9058000D01*
X12511000Y-8958000D02*
X12411000Y-9058000D01*
X12411000Y-9212000D02*
X12511000Y-9312000D01*
X12511000Y-9212000D02*
X12411000Y-9312000D01*
X12411000Y-9466000D02*
X12511000Y-9566000D01*
X12511000Y-9466000D02*
X12411000Y-9566000D01*
X12411000Y-9720000D02*
X12511000Y-9820000D01*
X12511000Y-9720000D02*
X12411000Y-9820000D01*
X12411000Y-9974000D02*
X12511000Y-10074000D01*
X12511000Y-9974000D02*
X12411000Y-10074000D01*
X12411000Y-10482000D02*
X12511000Y-10582000D01*
X12511000Y-10482000D02*
X12411000Y-10582000D01*
X12411000Y-10736000D02*
X12511000Y-10836000D01*
X12511000Y-10736000D02*
X12411000Y-10836000D01*
X12663500Y-4894500D02*
X12763500Y-4994500D01*
X12763500Y-4894500D02*
X12663500Y-4994500D01*
X12663500Y-5148500D02*
X12763500Y-5248500D01*
X12763500Y-5148500D02*
X12663500Y-5248500D01*
X12663500Y-5656500D02*
X12763500Y-5756500D01*
X12763500Y-5656500D02*
X12663500Y-5756500D01*
X12663500Y-5910500D02*
X12763500Y-6010500D01*
X12763500Y-5910500D02*
X12663500Y-6010500D01*
X12663500Y-6164500D02*
X12763500Y-6264500D01*
X12763500Y-6164500D02*
X12663500Y-6264500D01*
X12663500Y-6418500D02*
X12763500Y-6518500D01*
X12763500Y-6418500D02*
X12663500Y-6518500D01*
X12663500Y-6672500D02*
X12763500Y-6772500D01*
X12763500Y-6672500D02*
X12663500Y-6772500D01*
X12663500Y-6926500D02*
X12763500Y-7026500D01*
X12763500Y-6926500D02*
X12663500Y-7026500D01*
X12663500Y-7180500D02*
X12763500Y-7280500D01*
X12763500Y-7180500D02*
X12663500Y-7280500D01*
X12663500Y-7434500D02*
X12763500Y-7534500D01*
X12763500Y-7434500D02*
X12663500Y-7534500D01*
X12664000Y-4894000D02*
X12764000Y-4994000D01*
X12764000Y-4894000D02*
X12664000Y-4994000D01*
X12664000Y-5148000D02*
X12764000Y-5248000D01*
X12764000Y-5148000D02*
X12664000Y-5248000D01*
X12664000Y-5656000D02*
X12764000Y-5756000D01*
X12764000Y-5656000D02*
X12664000Y-5756000D01*
X12664000Y-5910000D02*
X12764000Y-6010000D01*
X12764000Y-5910000D02*
X12664000Y-6010000D01*
X12664000Y-6164000D02*
X12764000Y-6264000D01*
X12764000Y-6164000D02*
X12664000Y-6264000D01*
X12664000Y-6418000D02*
X12764000Y-6518000D01*
X12764000Y-6418000D02*
X12664000Y-6518000D01*
X12664000Y-6672000D02*
X12764000Y-6772000D01*
X12764000Y-6672000D02*
X12664000Y-6772000D01*
X12664000Y-6926000D02*
X12764000Y-7026000D01*
X12764000Y-6926000D02*
X12664000Y-7026000D01*
X12664000Y-7180000D02*
X12764000Y-7280000D01*
X12764000Y-7180000D02*
X12664000Y-7280000D01*
X12664000Y-7434000D02*
X12764000Y-7534000D01*
X12764000Y-7434000D02*
X12664000Y-7534000D01*
X12664500Y-8196500D02*
X12764500Y-8296500D01*
X12764500Y-8196500D02*
X12664500Y-8296500D01*
X12664500Y-8450500D02*
X12764500Y-8550500D01*
X12764500Y-8450500D02*
X12664500Y-8550500D01*
X12664500Y-8704500D02*
X12764500Y-8804500D01*
X12764500Y-8704500D02*
X12664500Y-8804500D01*
X12664500Y-8958500D02*
X12764500Y-9058500D01*
X12764500Y-8958500D02*
X12664500Y-9058500D01*
X12664500Y-9212500D02*
X12764500Y-9312500D01*
X12764500Y-9212500D02*
X12664500Y-9312500D01*
X12664500Y-9466500D02*
X12764500Y-9566500D01*
X12764500Y-9466500D02*
X12664500Y-9566500D01*
X12664500Y-9720500D02*
X12764500Y-9820500D01*
X12764500Y-9720500D02*
X12664500Y-9820500D01*
X12664500Y-9974500D02*
X12764500Y-10074500D01*
X12764500Y-9974500D02*
X12664500Y-10074500D01*
X12664500Y-10482500D02*
X12764500Y-10582500D01*
X12764500Y-10482500D02*
X12664500Y-10582500D01*
X12664500Y-10736500D02*
X12764500Y-10836500D01*
X12764500Y-10736500D02*
X12664500Y-10836500D01*
X12665000Y-8196000D02*
X12765000Y-8296000D01*
X12765000Y-8196000D02*
X12665000Y-8296000D01*
X12665000Y-8450000D02*
X12765000Y-8550000D01*
X12765000Y-8450000D02*
X12665000Y-8550000D01*
X12665000Y-8704000D02*
X12765000Y-8804000D01*
X12765000Y-8704000D02*
X12665000Y-8804000D01*
X12665000Y-8958000D02*
X12765000Y-9058000D01*
X12765000Y-8958000D02*
X12665000Y-9058000D01*
X12665000Y-9212000D02*
X12765000Y-9312000D01*
X12765000Y-9212000D02*
X12665000Y-9312000D01*
X12665000Y-9466000D02*
X12765000Y-9566000D01*
X12765000Y-9466000D02*
X12665000Y-9566000D01*
X12665000Y-9720000D02*
X12765000Y-9820000D01*
X12765000Y-9720000D02*
X12665000Y-9820000D01*
X12665000Y-9974000D02*
X12765000Y-10074000D01*
X12765000Y-9974000D02*
X12665000Y-10074000D01*
X12665000Y-10482000D02*
X12765000Y-10582000D01*
X12765000Y-10482000D02*
X12665000Y-10582000D01*
X12665000Y-10736000D02*
X12765000Y-10836000D01*
X12765000Y-10736000D02*
X12665000Y-10836000D01*
X12917500Y-4894500D02*
X13017500Y-4994500D01*
X13017500Y-4894500D02*
X12917500Y-4994500D01*
X12917500Y-5148500D02*
X13017500Y-5248500D01*
X13017500Y-5148500D02*
X12917500Y-5248500D01*
X12917500Y-5656500D02*
X13017500Y-5756500D01*
X13017500Y-5656500D02*
X12917500Y-5756500D01*
X12917500Y-5910500D02*
X13017500Y-6010500D01*
X13017500Y-5910500D02*
X12917500Y-6010500D01*
X12917500Y-6164500D02*
X13017500Y-6264500D01*
X13017500Y-6164500D02*
X12917500Y-6264500D01*
X12917500Y-6418500D02*
X13017500Y-6518500D01*
X13017500Y-6418500D02*
X12917500Y-6518500D01*
X12917500Y-6672500D02*
X13017500Y-6772500D01*
X13017500Y-6672500D02*
X12917500Y-6772500D01*
X12917500Y-6926500D02*
X13017500Y-7026500D01*
X13017500Y-6926500D02*
X12917500Y-7026500D01*
X12917500Y-7180500D02*
X13017500Y-7280500D01*
X13017500Y-7180500D02*
X12917500Y-7280500D01*
X12917500Y-7434500D02*
X13017500Y-7534500D01*
X13017500Y-7434500D02*
X12917500Y-7534500D01*
X12918000Y-4894000D02*
X13018000Y-4994000D01*
X13018000Y-4894000D02*
X12918000Y-4994000D01*
X12918000Y-5148000D02*
X13018000Y-5248000D01*
X13018000Y-5148000D02*
X12918000Y-5248000D01*
X12918000Y-5656000D02*
X13018000Y-5756000D01*
X13018000Y-5656000D02*
X12918000Y-5756000D01*
X12918000Y-5910000D02*
X13018000Y-6010000D01*
X13018000Y-5910000D02*
X12918000Y-6010000D01*
X12918000Y-6164000D02*
X13018000Y-6264000D01*
X13018000Y-6164000D02*
X12918000Y-6264000D01*
X12918000Y-6418000D02*
X13018000Y-6518000D01*
X13018000Y-6418000D02*
X12918000Y-6518000D01*
X12918000Y-6672000D02*
X13018000Y-6772000D01*
X13018000Y-6672000D02*
X12918000Y-6772000D01*
X12918000Y-6926000D02*
X13018000Y-7026000D01*
X13018000Y-6926000D02*
X12918000Y-7026000D01*
X12918000Y-7180000D02*
X13018000Y-7280000D01*
X13018000Y-7180000D02*
X12918000Y-7280000D01*
X12918000Y-7434000D02*
X13018000Y-7534000D01*
X13018000Y-7434000D02*
X12918000Y-7534000D01*
X12918500Y-8196500D02*
X13018500Y-8296500D01*
X13018500Y-8196500D02*
X12918500Y-8296500D01*
X12918500Y-8450500D02*
X13018500Y-8550500D01*
X13018500Y-8450500D02*
X12918500Y-8550500D01*
X12918500Y-8704500D02*
X13018500Y-8804500D01*
X13018500Y-8704500D02*
X12918500Y-8804500D01*
X12918500Y-8958500D02*
X13018500Y-9058500D01*
X13018500Y-8958500D02*
X12918500Y-9058500D01*
X12918500Y-9212500D02*
X13018500Y-9312500D01*
X13018500Y-9212500D02*
X12918500Y-9312500D01*
X12918500Y-9466500D02*
X13018500Y-9566500D01*
X13018500Y-9466500D02*
X12918500Y-9566500D01*
X12918500Y-9720500D02*
X13018500Y-9820500D01*
X13018500Y-9720500D02*
X12918500Y-9820500D01*
X12918500Y-9974500D02*
X13018500Y-10074500D01*
X13018500Y-9974500D02*
X12918500Y-10074500D01*
X12918500Y-10482500D02*
X13018500Y-10582500D01*
X13018500Y-10482500D02*
X12918500Y-10582500D01*
X12918500Y-10736500D02*
X13018500Y-10836500D01*
X13018500Y-10736500D02*
X12918500Y-10836500D01*
X12919000Y-8196000D02*
X13019000Y-8296000D01*
X13019000Y-8196000D02*
X12919000Y-8296000D01*
X12919000Y-8450000D02*
X13019000Y-8550000D01*
X13019000Y-8450000D02*
X12919000Y-8550000D01*
X12919000Y-8704000D02*
X13019000Y-8804000D01*
X13019000Y-8704000D02*
X12919000Y-8804000D01*
X12919000Y-8958000D02*
X13019000Y-9058000D01*
X13019000Y-8958000D02*
X12919000Y-9058000D01*
X12919000Y-9212000D02*
X13019000Y-9312000D01*
X13019000Y-9212000D02*
X12919000Y-9312000D01*
X12919000Y-9466000D02*
X13019000Y-9566000D01*
X13019000Y-9466000D02*
X12919000Y-9566000D01*
X12919000Y-9720000D02*
X13019000Y-9820000D01*
X13019000Y-9720000D02*
X12919000Y-9820000D01*
X12919000Y-9974000D02*
X13019000Y-10074000D01*
X13019000Y-9974000D02*
X12919000Y-10074000D01*
X12919000Y-10482000D02*
X13019000Y-10582000D01*
X13019000Y-10482000D02*
X12919000Y-10582000D01*
X12919000Y-10736000D02*
X13019000Y-10836000D01*
X13019000Y-10736000D02*
X12919000Y-10836000D01*
X13171500Y-4894500D02*
X13271500Y-4994500D01*
X13271500Y-4894500D02*
X13171500Y-4994500D01*
X13171500Y-5148500D02*
X13271500Y-5248500D01*
X13271500Y-5148500D02*
X13171500Y-5248500D01*
X13171500Y-5656500D02*
X13271500Y-5756500D01*
X13271500Y-5656500D02*
X13171500Y-5756500D01*
X13171500Y-5910500D02*
X13271500Y-6010500D01*
X13271500Y-5910500D02*
X13171500Y-6010500D01*
X13171500Y-6164500D02*
X13271500Y-6264500D01*
X13271500Y-6164500D02*
X13171500Y-6264500D01*
X13171500Y-6418500D02*
X13271500Y-6518500D01*
X13271500Y-6418500D02*
X13171500Y-6518500D01*
X13171500Y-6672500D02*
X13271500Y-6772500D01*
X13271500Y-6672500D02*
X13171500Y-6772500D01*
X13171500Y-6926500D02*
X13271500Y-7026500D01*
X13271500Y-6926500D02*
X13171500Y-7026500D01*
X13171500Y-7180500D02*
X13271500Y-7280500D01*
X13271500Y-7180500D02*
X13171500Y-7280500D01*
X13171500Y-7434500D02*
X13271500Y-7534500D01*
X13271500Y-7434500D02*
X13171500Y-7534500D01*
X13172000Y-4894000D02*
X13272000Y-4994000D01*
X13272000Y-4894000D02*
X13172000Y-4994000D01*
X13172000Y-5148000D02*
X13272000Y-5248000D01*
X13272000Y-5148000D02*
X13172000Y-5248000D01*
X13172000Y-5656000D02*
X13272000Y-5756000D01*
X13272000Y-5656000D02*
X13172000Y-5756000D01*
X13172000Y-5910000D02*
X13272000Y-6010000D01*
X13272000Y-5910000D02*
X13172000Y-6010000D01*
X13172000Y-6164000D02*
X13272000Y-6264000D01*
X13272000Y-6164000D02*
X13172000Y-6264000D01*
X13172000Y-6418000D02*
X13272000Y-6518000D01*
X13272000Y-6418000D02*
X13172000Y-6518000D01*
X13172000Y-6672000D02*
X13272000Y-6772000D01*
X13272000Y-6672000D02*
X13172000Y-6772000D01*
X13172000Y-6926000D02*
X13272000Y-7026000D01*
X13272000Y-6926000D02*
X13172000Y-7026000D01*
X13172000Y-7180000D02*
X13272000Y-7280000D01*
X13272000Y-7180000D02*
X13172000Y-7280000D01*
X13172000Y-7434000D02*
X13272000Y-7534000D01*
X13272000Y-7434000D02*
X13172000Y-7534000D01*
X13172500Y-8196500D02*
X13272500Y-8296500D01*
X13272500Y-8196500D02*
X13172500Y-8296500D01*
X13172500Y-8450500D02*
X13272500Y-8550500D01*
X13272500Y-8450500D02*
X13172500Y-8550500D01*
X13172500Y-8704500D02*
X13272500Y-8804500D01*
X13272500Y-8704500D02*
X13172500Y-8804500D01*
X13172500Y-8958500D02*
X13272500Y-9058500D01*
X13272500Y-8958500D02*
X13172500Y-9058500D01*
X13172500Y-9212500D02*
X13272500Y-9312500D01*
X13272500Y-9212500D02*
X13172500Y-9312500D01*
X13172500Y-9466500D02*
X13272500Y-9566500D01*
X13272500Y-9466500D02*
X13172500Y-9566500D01*
X13172500Y-9720500D02*
X13272500Y-9820500D01*
X13272500Y-9720500D02*
X13172500Y-9820500D01*
X13172500Y-9974500D02*
X13272500Y-10074500D01*
X13272500Y-9974500D02*
X13172500Y-10074500D01*
X13172500Y-10482500D02*
X13272500Y-10582500D01*
X13272500Y-10482500D02*
X13172500Y-10582500D01*
X13172500Y-10736500D02*
X13272500Y-10836500D01*
X13272500Y-10736500D02*
X13172500Y-10836500D01*
X13173000Y-8196000D02*
X13273000Y-8296000D01*
X13273000Y-8196000D02*
X13173000Y-8296000D01*
X13173000Y-8450000D02*
X13273000Y-8550000D01*
X13273000Y-8450000D02*
X13173000Y-8550000D01*
X13173000Y-8704000D02*
X13273000Y-8804000D01*
X13273000Y-8704000D02*
X13173000Y-8804000D01*
X13173000Y-8958000D02*
X13273000Y-9058000D01*
X13273000Y-8958000D02*
X13173000Y-9058000D01*
X13173000Y-9212000D02*
X13273000Y-9312000D01*
X13273000Y-9212000D02*
X13173000Y-9312000D01*
X13173000Y-9466000D02*
X13273000Y-9566000D01*
X13273000Y-9466000D02*
X13173000Y-9566000D01*
X13173000Y-9720000D02*
X13273000Y-9820000D01*
X13273000Y-9720000D02*
X13173000Y-9820000D01*
X13173000Y-9974000D02*
X13273000Y-10074000D01*
X13273000Y-9974000D02*
X13173000Y-10074000D01*
X13173000Y-10482000D02*
X13273000Y-10582000D01*
X13273000Y-10482000D02*
X13173000Y-10582000D01*
X13173000Y-10736000D02*
X13273000Y-10836000D01*
X13273000Y-10736000D02*
X13173000Y-10836000D01*
X13425500Y-4894500D02*
X13525500Y-4994500D01*
X13525500Y-4894500D02*
X13425500Y-4994500D01*
X13425500Y-5148500D02*
X13525500Y-5248500D01*
X13525500Y-5148500D02*
X13425500Y-5248500D01*
X13425500Y-5656500D02*
X13525500Y-5756500D01*
X13525500Y-5656500D02*
X13425500Y-5756500D01*
X13425500Y-5910500D02*
X13525500Y-6010500D01*
X13525500Y-5910500D02*
X13425500Y-6010500D01*
X13425500Y-6164500D02*
X13525500Y-6264500D01*
X13525500Y-6164500D02*
X13425500Y-6264500D01*
X13425500Y-6418500D02*
X13525500Y-6518500D01*
X13525500Y-6418500D02*
X13425500Y-6518500D01*
X13425500Y-6672500D02*
X13525500Y-6772500D01*
X13525500Y-6672500D02*
X13425500Y-6772500D01*
X13425500Y-6926500D02*
X13525500Y-7026500D01*
X13525500Y-6926500D02*
X13425500Y-7026500D01*
X13425500Y-7180500D02*
X13525500Y-7280500D01*
X13525500Y-7180500D02*
X13425500Y-7280500D01*
X13425500Y-7434500D02*
X13525500Y-7534500D01*
X13525500Y-7434500D02*
X13425500Y-7534500D01*
X13426000Y-4894000D02*
X13526000Y-4994000D01*
X13526000Y-4894000D02*
X13426000Y-4994000D01*
X13426000Y-5148000D02*
X13526000Y-5248000D01*
X13526000Y-5148000D02*
X13426000Y-5248000D01*
X13426000Y-5656000D02*
X13526000Y-5756000D01*
X13526000Y-5656000D02*
X13426000Y-5756000D01*
X13426000Y-5910000D02*
X13526000Y-6010000D01*
X13526000Y-5910000D02*
X13426000Y-6010000D01*
X13426000Y-6164000D02*
X13526000Y-6264000D01*
X13526000Y-6164000D02*
X13426000Y-6264000D01*
X13426000Y-6418000D02*
X13526000Y-6518000D01*
X13526000Y-6418000D02*
X13426000Y-6518000D01*
X13426000Y-6672000D02*
X13526000Y-6772000D01*
X13526000Y-6672000D02*
X13426000Y-6772000D01*
X13426000Y-6926000D02*
X13526000Y-7026000D01*
X13526000Y-6926000D02*
X13426000Y-7026000D01*
X13426000Y-7180000D02*
X13526000Y-7280000D01*
X13526000Y-7180000D02*
X13426000Y-7280000D01*
X13426000Y-7434000D02*
X13526000Y-7534000D01*
X13526000Y-7434000D02*
X13426000Y-7534000D01*
X13426500Y-8196500D02*
X13526500Y-8296500D01*
X13526500Y-8196500D02*
X13426500Y-8296500D01*
X13426500Y-8450500D02*
X13526500Y-8550500D01*
X13526500Y-8450500D02*
X13426500Y-8550500D01*
X13426500Y-8704500D02*
X13526500Y-8804500D01*
X13526500Y-8704500D02*
X13426500Y-8804500D01*
X13426500Y-8958500D02*
X13526500Y-9058500D01*
X13526500Y-8958500D02*
X13426500Y-9058500D01*
X13426500Y-9212500D02*
X13526500Y-9312500D01*
X13526500Y-9212500D02*
X13426500Y-9312500D01*
X13426500Y-9466500D02*
X13526500Y-9566500D01*
X13526500Y-9466500D02*
X13426500Y-9566500D01*
X13426500Y-9720500D02*
X13526500Y-9820500D01*
X13526500Y-9720500D02*
X13426500Y-9820500D01*
X13426500Y-9974500D02*
X13526500Y-10074500D01*
X13526500Y-9974500D02*
X13426500Y-10074500D01*
X13426500Y-10482500D02*
X13526500Y-10582500D01*
X13526500Y-10482500D02*
X13426500Y-10582500D01*
X13426500Y-10736500D02*
X13526500Y-10836500D01*
X13526500Y-10736500D02*
X13426500Y-10836500D01*
X13427000Y-8196000D02*
X13527000Y-8296000D01*
X13527000Y-8196000D02*
X13427000Y-8296000D01*
X13427000Y-8450000D02*
X13527000Y-8550000D01*
X13527000Y-8450000D02*
X13427000Y-8550000D01*
X13427000Y-8704000D02*
X13527000Y-8804000D01*
X13527000Y-8704000D02*
X13427000Y-8804000D01*
X13427000Y-8958000D02*
X13527000Y-9058000D01*
X13527000Y-8958000D02*
X13427000Y-9058000D01*
X13427000Y-9212000D02*
X13527000Y-9312000D01*
X13527000Y-9212000D02*
X13427000Y-9312000D01*
X13427000Y-9466000D02*
X13527000Y-9566000D01*
X13527000Y-9466000D02*
X13427000Y-9566000D01*
X13427000Y-9720000D02*
X13527000Y-9820000D01*
X13527000Y-9720000D02*
X13427000Y-9820000D01*
X13427000Y-9974000D02*
X13527000Y-10074000D01*
X13527000Y-9974000D02*
X13427000Y-10074000D01*
X13427000Y-10482000D02*
X13527000Y-10582000D01*
X13527000Y-10482000D02*
X13427000Y-10582000D01*
X13427000Y-10736000D02*
X13527000Y-10836000D01*
X13527000Y-10736000D02*
X13427000Y-10836000D01*
X13679500Y-4894500D02*
X13779500Y-4994500D01*
X13779500Y-4894500D02*
X13679500Y-4994500D01*
X13679500Y-5148500D02*
X13779500Y-5248500D01*
X13779500Y-5148500D02*
X13679500Y-5248500D01*
X13679500Y-5656500D02*
X13779500Y-5756500D01*
X13779500Y-5656500D02*
X13679500Y-5756500D01*
X13679500Y-5910500D02*
X13779500Y-6010500D01*
X13779500Y-5910500D02*
X13679500Y-6010500D01*
X13679500Y-6164500D02*
X13779500Y-6264500D01*
X13779500Y-6164500D02*
X13679500Y-6264500D01*
X13679500Y-6418500D02*
X13779500Y-6518500D01*
X13779500Y-6418500D02*
X13679500Y-6518500D01*
X13679500Y-6672500D02*
X13779500Y-6772500D01*
X13779500Y-6672500D02*
X13679500Y-6772500D01*
X13679500Y-6926500D02*
X13779500Y-7026500D01*
X13779500Y-6926500D02*
X13679500Y-7026500D01*
X13679500Y-7180500D02*
X13779500Y-7280500D01*
X13779500Y-7180500D02*
X13679500Y-7280500D01*
X13679500Y-7434500D02*
X13779500Y-7534500D01*
X13779500Y-7434500D02*
X13679500Y-7534500D01*
X13680000Y-4894000D02*
X13780000Y-4994000D01*
X13780000Y-4894000D02*
X13680000Y-4994000D01*
X13680000Y-5148000D02*
X13780000Y-5248000D01*
X13780000Y-5148000D02*
X13680000Y-5248000D01*
X13680000Y-5656000D02*
X13780000Y-5756000D01*
X13780000Y-5656000D02*
X13680000Y-5756000D01*
X13680000Y-5910000D02*
X13780000Y-6010000D01*
X13780000Y-5910000D02*
X13680000Y-6010000D01*
X13680000Y-6164000D02*
X13780000Y-6264000D01*
X13780000Y-6164000D02*
X13680000Y-6264000D01*
X13680000Y-6418000D02*
X13780000Y-6518000D01*
X13780000Y-6418000D02*
X13680000Y-6518000D01*
X13680000Y-6672000D02*
X13780000Y-6772000D01*
X13780000Y-6672000D02*
X13680000Y-6772000D01*
X13680000Y-6926000D02*
X13780000Y-7026000D01*
X13780000Y-6926000D02*
X13680000Y-7026000D01*
X13680000Y-7180000D02*
X13780000Y-7280000D01*
X13780000Y-7180000D02*
X13680000Y-7280000D01*
X13680000Y-7434000D02*
X13780000Y-7534000D01*
X13780000Y-7434000D02*
X13680000Y-7534000D01*
X13680500Y-8196500D02*
X13780500Y-8296500D01*
X13780500Y-8196500D02*
X13680500Y-8296500D01*
X13680500Y-8450500D02*
X13780500Y-8550500D01*
X13780500Y-8450500D02*
X13680500Y-8550500D01*
X13680500Y-8704500D02*
X13780500Y-8804500D01*
X13780500Y-8704500D02*
X13680500Y-8804500D01*
X13680500Y-8958500D02*
X13780500Y-9058500D01*
X13780500Y-8958500D02*
X13680500Y-9058500D01*
X13680500Y-9212500D02*
X13780500Y-9312500D01*
X13780500Y-9212500D02*
X13680500Y-9312500D01*
X13680500Y-9466500D02*
X13780500Y-9566500D01*
X13780500Y-9466500D02*
X13680500Y-9566500D01*
X13680500Y-9720500D02*
X13780500Y-9820500D01*
X13780500Y-9720500D02*
X13680500Y-9820500D01*
X13680500Y-9974500D02*
X13780500Y-10074500D01*
X13780500Y-9974500D02*
X13680500Y-10074500D01*
X13680500Y-10482500D02*
X13780500Y-10582500D01*
X13780500Y-10482500D02*
X13680500Y-10582500D01*
X13680500Y-10736500D02*
X13780500Y-10836500D01*
X13780500Y-10736500D02*
X13680500Y-10836500D01*
X13681000Y-8196000D02*
X13781000Y-8296000D01*
X13781000Y-8196000D02*
X13681000Y-8296000D01*
X13681000Y-8450000D02*
X13781000Y-8550000D01*
X13781000Y-8450000D02*
X13681000Y-8550000D01*
X13681000Y-8704000D02*
X13781000Y-8804000D01*
X13781000Y-8704000D02*
X13681000Y-8804000D01*
X13681000Y-8958000D02*
X13781000Y-9058000D01*
X13781000Y-8958000D02*
X13681000Y-9058000D01*
X13681000Y-9212000D02*
X13781000Y-9312000D01*
X13781000Y-9212000D02*
X13681000Y-9312000D01*
X13681000Y-9466000D02*
X13781000Y-9566000D01*
X13781000Y-9466000D02*
X13681000Y-9566000D01*
X13681000Y-9720000D02*
X13781000Y-9820000D01*
X13781000Y-9720000D02*
X13681000Y-9820000D01*
X13681000Y-9974000D02*
X13781000Y-10074000D01*
X13781000Y-9974000D02*
X13681000Y-10074000D01*
X13681000Y-10482000D02*
X13781000Y-10582000D01*
X13781000Y-10482000D02*
X13681000Y-10582000D01*
X13681000Y-10736000D02*
X13781000Y-10836000D01*
X13781000Y-10736000D02*
X13681000Y-10836000D01*
X13933500Y-4894500D02*
X14033500Y-4994500D01*
X14033500Y-4894500D02*
X13933500Y-4994500D01*
X13933500Y-5148500D02*
X14033500Y-5248500D01*
X14033500Y-5148500D02*
X13933500Y-5248500D01*
X13933500Y-5656500D02*
X14033500Y-5756500D01*
X14033500Y-5656500D02*
X13933500Y-5756500D01*
X13933500Y-5910500D02*
X14033500Y-6010500D01*
X14033500Y-5910500D02*
X13933500Y-6010500D01*
X13933500Y-6164500D02*
X14033500Y-6264500D01*
X14033500Y-6164500D02*
X13933500Y-6264500D01*
X13933500Y-6418500D02*
X14033500Y-6518500D01*
X14033500Y-6418500D02*
X13933500Y-6518500D01*
X13933500Y-6672500D02*
X14033500Y-6772500D01*
X14033500Y-6672500D02*
X13933500Y-6772500D01*
X13933500Y-6926500D02*
X14033500Y-7026500D01*
X14033500Y-6926500D02*
X13933500Y-7026500D01*
X13933500Y-7180500D02*
X14033500Y-7280500D01*
X14033500Y-7180500D02*
X13933500Y-7280500D01*
X13933500Y-7434500D02*
X14033500Y-7534500D01*
X14033500Y-7434500D02*
X13933500Y-7534500D01*
X13934000Y-4894000D02*
X14034000Y-4994000D01*
X14034000Y-4894000D02*
X13934000Y-4994000D01*
X13934000Y-5148000D02*
X14034000Y-5248000D01*
X14034000Y-5148000D02*
X13934000Y-5248000D01*
X13934000Y-5656000D02*
X14034000Y-5756000D01*
X14034000Y-5656000D02*
X13934000Y-5756000D01*
X13934000Y-5910000D02*
X14034000Y-6010000D01*
X14034000Y-5910000D02*
X13934000Y-6010000D01*
X13934000Y-6164000D02*
X14034000Y-6264000D01*
X14034000Y-6164000D02*
X13934000Y-6264000D01*
X13934000Y-6418000D02*
X14034000Y-6518000D01*
X14034000Y-6418000D02*
X13934000Y-6518000D01*
X13934000Y-6672000D02*
X14034000Y-6772000D01*
X14034000Y-6672000D02*
X13934000Y-6772000D01*
X13934000Y-6926000D02*
X14034000Y-7026000D01*
X14034000Y-6926000D02*
X13934000Y-7026000D01*
X13934000Y-7180000D02*
X14034000Y-7280000D01*
X14034000Y-7180000D02*
X13934000Y-7280000D01*
X13934000Y-7434000D02*
X14034000Y-7534000D01*
X14034000Y-7434000D02*
X13934000Y-7534000D01*
X13934500Y-8196500D02*
X14034500Y-8296500D01*
X14034500Y-8196500D02*
X13934500Y-8296500D01*
X13934500Y-8450500D02*
X14034500Y-8550500D01*
X14034500Y-8450500D02*
X13934500Y-8550500D01*
X13934500Y-8704500D02*
X14034500Y-8804500D01*
X14034500Y-8704500D02*
X13934500Y-8804500D01*
X13934500Y-8958500D02*
X14034500Y-9058500D01*
X14034500Y-8958500D02*
X13934500Y-9058500D01*
X13934500Y-9212500D02*
X14034500Y-9312500D01*
X14034500Y-9212500D02*
X13934500Y-9312500D01*
X13934500Y-9466500D02*
X14034500Y-9566500D01*
X14034500Y-9466500D02*
X13934500Y-9566500D01*
X13934500Y-9720500D02*
X14034500Y-9820500D01*
X14034500Y-9720500D02*
X13934500Y-9820500D01*
X13934500Y-9974500D02*
X14034500Y-10074500D01*
X14034500Y-9974500D02*
X13934500Y-10074500D01*
X13934500Y-10482500D02*
X14034500Y-10582500D01*
X14034500Y-10482500D02*
X13934500Y-10582500D01*
X13934500Y-10736500D02*
X14034500Y-10836500D01*
X14034500Y-10736500D02*
X13934500Y-10836500D01*
X13935000Y-8196000D02*
X14035000Y-8296000D01*
X14035000Y-8196000D02*
X13935000Y-8296000D01*
X13935000Y-8450000D02*
X14035000Y-8550000D01*
X14035000Y-8450000D02*
X13935000Y-8550000D01*
X13935000Y-8704000D02*
X14035000Y-8804000D01*
X14035000Y-8704000D02*
X13935000Y-8804000D01*
X13935000Y-8958000D02*
X14035000Y-9058000D01*
X14035000Y-8958000D02*
X13935000Y-9058000D01*
X13935000Y-9212000D02*
X14035000Y-9312000D01*
X14035000Y-9212000D02*
X13935000Y-9312000D01*
X13935000Y-9466000D02*
X14035000Y-9566000D01*
X14035000Y-9466000D02*
X13935000Y-9566000D01*
X13935000Y-9720000D02*
X14035000Y-9820000D01*
X14035000Y-9720000D02*
X13935000Y-9820000D01*
X13935000Y-9974000D02*
X14035000Y-10074000D01*
X14035000Y-9974000D02*
X13935000Y-10074000D01*
X13935000Y-10482000D02*
X14035000Y-10582000D01*
X14035000Y-10482000D02*
X13935000Y-10582000D01*
X13935000Y-10736000D02*
X14035000Y-10836000D01*
X14035000Y-10736000D02*
X13935000Y-10836000D01*
X14187500Y-4894500D02*
X14287500Y-4994500D01*
X14287500Y-4894500D02*
X14187500Y-4994500D01*
X14187500Y-5148500D02*
X14287500Y-5248500D01*
X14287500Y-5148500D02*
X14187500Y-5248500D01*
X14187500Y-5656500D02*
X14287500Y-5756500D01*
X14287500Y-5656500D02*
X14187500Y-5756500D01*
X14187500Y-5910500D02*
X14287500Y-6010500D01*
X14287500Y-5910500D02*
X14187500Y-6010500D01*
X14187500Y-6164500D02*
X14287500Y-6264500D01*
X14287500Y-6164500D02*
X14187500Y-6264500D01*
X14187500Y-6418500D02*
X14287500Y-6518500D01*
X14287500Y-6418500D02*
X14187500Y-6518500D01*
X14187500Y-6672500D02*
X14287500Y-6772500D01*
X14287500Y-6672500D02*
X14187500Y-6772500D01*
X14187500Y-6926500D02*
X14287500Y-7026500D01*
X14287500Y-6926500D02*
X14187500Y-7026500D01*
X14187500Y-7180500D02*
X14287500Y-7280500D01*
X14287500Y-7180500D02*
X14187500Y-7280500D01*
X14187500Y-7434500D02*
X14287500Y-7534500D01*
X14287500Y-7434500D02*
X14187500Y-7534500D01*
X14188000Y-4894000D02*
X14288000Y-4994000D01*
X14288000Y-4894000D02*
X14188000Y-4994000D01*
X14188000Y-5148000D02*
X14288000Y-5248000D01*
X14288000Y-5148000D02*
X14188000Y-5248000D01*
X14188000Y-5656000D02*
X14288000Y-5756000D01*
X14288000Y-5656000D02*
X14188000Y-5756000D01*
X14188000Y-5910000D02*
X14288000Y-6010000D01*
X14288000Y-5910000D02*
X14188000Y-6010000D01*
X14188000Y-6164000D02*
X14288000Y-6264000D01*
X14288000Y-6164000D02*
X14188000Y-6264000D01*
X14188000Y-6418000D02*
X14288000Y-6518000D01*
X14288000Y-6418000D02*
X14188000Y-6518000D01*
X14188000Y-6672000D02*
X14288000Y-6772000D01*
X14288000Y-6672000D02*
X14188000Y-6772000D01*
X14188000Y-6926000D02*
X14288000Y-7026000D01*
X14288000Y-6926000D02*
X14188000Y-7026000D01*
X14188000Y-7180000D02*
X14288000Y-7280000D01*
X14288000Y-7180000D02*
X14188000Y-7280000D01*
X14188000Y-7434000D02*
X14288000Y-7534000D01*
X14288000Y-7434000D02*
X14188000Y-7534000D01*
X14188500Y-8196500D02*
X14288500Y-8296500D01*
X14288500Y-8196500D02*
X14188500Y-8296500D01*
X14188500Y-8450500D02*
X14288500Y-8550500D01*
X14288500Y-8450500D02*
X14188500Y-8550500D01*
X14188500Y-8704500D02*
X14288500Y-8804500D01*
X14288500Y-8704500D02*
X14188500Y-8804500D01*
X14188500Y-8958500D02*
X14288500Y-9058500D01*
X14288500Y-8958500D02*
X14188500Y-9058500D01*
X14188500Y-9212500D02*
X14288500Y-9312500D01*
X14288500Y-9212500D02*
X14188500Y-9312500D01*
X14188500Y-9466500D02*
X14288500Y-9566500D01*
X14288500Y-9466500D02*
X14188500Y-9566500D01*
X14188500Y-9720500D02*
X14288500Y-9820500D01*
X14288500Y-9720500D02*
X14188500Y-9820500D01*
X14188500Y-9974500D02*
X14288500Y-10074500D01*
X14288500Y-9974500D02*
X14188500Y-10074500D01*
X14188500Y-10482500D02*
X14288500Y-10582500D01*
X14288500Y-10482500D02*
X14188500Y-10582500D01*
X14188500Y-10736500D02*
X14288500Y-10836500D01*
X14288500Y-10736500D02*
X14188500Y-10836500D01*
X14189000Y-8196000D02*
X14289000Y-8296000D01*
X14289000Y-8196000D02*
X14189000Y-8296000D01*
X14189000Y-8450000D02*
X14289000Y-8550000D01*
X14289000Y-8450000D02*
X14189000Y-8550000D01*
X14189000Y-8704000D02*
X14289000Y-8804000D01*
X14289000Y-8704000D02*
X14189000Y-8804000D01*
X14189000Y-8958000D02*
X14289000Y-9058000D01*
X14289000Y-8958000D02*
X14189000Y-9058000D01*
X14189000Y-9212000D02*
X14289000Y-9312000D01*
X14289000Y-9212000D02*
X14189000Y-9312000D01*
X14189000Y-9466000D02*
X14289000Y-9566000D01*
X14289000Y-9466000D02*
X14189000Y-9566000D01*
X14189000Y-9720000D02*
X14289000Y-9820000D01*
X14289000Y-9720000D02*
X14189000Y-9820000D01*
X14189000Y-9974000D02*
X14289000Y-10074000D01*
X14289000Y-9974000D02*
X14189000Y-10074000D01*
X14189000Y-10482000D02*
X14289000Y-10582000D01*
X14289000Y-10482000D02*
X14189000Y-10582000D01*
X14189000Y-10736000D02*
X14289000Y-10836000D01*
X14289000Y-10736000D02*
X14189000Y-10836000D01*
X14441500Y-4894500D02*
X14541500Y-4994500D01*
X14541500Y-4894500D02*
X14441500Y-4994500D01*
X14441500Y-5148500D02*
X14541500Y-5248500D01*
X14541500Y-5148500D02*
X14441500Y-5248500D01*
X14441500Y-5656500D02*
X14541500Y-5756500D01*
X14541500Y-5656500D02*
X14441500Y-5756500D01*
X14441500Y-5910500D02*
X14541500Y-6010500D01*
X14541500Y-5910500D02*
X14441500Y-6010500D01*
X14441500Y-6164500D02*
X14541500Y-6264500D01*
X14541500Y-6164500D02*
X14441500Y-6264500D01*
X14441500Y-6418500D02*
X14541500Y-6518500D01*
X14541500Y-6418500D02*
X14441500Y-6518500D01*
X14441500Y-6672500D02*
X14541500Y-6772500D01*
X14541500Y-6672500D02*
X14441500Y-6772500D01*
X14441500Y-6926500D02*
X14541500Y-7026500D01*
X14541500Y-6926500D02*
X14441500Y-7026500D01*
X14441500Y-7180500D02*
X14541500Y-7280500D01*
X14541500Y-7180500D02*
X14441500Y-7280500D01*
X14441500Y-7434500D02*
X14541500Y-7534500D01*
X14541500Y-7434500D02*
X14441500Y-7534500D01*
X14442000Y-4894000D02*
X14542000Y-4994000D01*
X14542000Y-4894000D02*
X14442000Y-4994000D01*
X14442000Y-5148000D02*
X14542000Y-5248000D01*
X14542000Y-5148000D02*
X14442000Y-5248000D01*
X14442000Y-5656000D02*
X14542000Y-5756000D01*
X14542000Y-5656000D02*
X14442000Y-5756000D01*
X14442000Y-5910000D02*
X14542000Y-6010000D01*
X14542000Y-5910000D02*
X14442000Y-6010000D01*
X14442000Y-6164000D02*
X14542000Y-6264000D01*
X14542000Y-6164000D02*
X14442000Y-6264000D01*
X14442000Y-6418000D02*
X14542000Y-6518000D01*
X14542000Y-6418000D02*
X14442000Y-6518000D01*
X14442000Y-6672000D02*
X14542000Y-6772000D01*
X14542000Y-6672000D02*
X14442000Y-6772000D01*
X14442000Y-6926000D02*
X14542000Y-7026000D01*
X14542000Y-6926000D02*
X14442000Y-7026000D01*
X14442000Y-7180000D02*
X14542000Y-7280000D01*
X14542000Y-7180000D02*
X14442000Y-7280000D01*
X14442000Y-7434000D02*
X14542000Y-7534000D01*
X14542000Y-7434000D02*
X14442000Y-7534000D01*
X14442500Y-8196500D02*
X14542500Y-8296500D01*
X14542500Y-8196500D02*
X14442500Y-8296500D01*
X14442500Y-8450500D02*
X14542500Y-8550500D01*
X14542500Y-8450500D02*
X14442500Y-8550500D01*
X14442500Y-8704500D02*
X14542500Y-8804500D01*
X14542500Y-8704500D02*
X14442500Y-8804500D01*
X14442500Y-8958500D02*
X14542500Y-9058500D01*
X14542500Y-8958500D02*
X14442500Y-9058500D01*
X14442500Y-9212500D02*
X14542500Y-9312500D01*
X14542500Y-9212500D02*
X14442500Y-9312500D01*
X14442500Y-9466500D02*
X14542500Y-9566500D01*
X14542500Y-9466500D02*
X14442500Y-9566500D01*
X14442500Y-9720500D02*
X14542500Y-9820500D01*
X14542500Y-9720500D02*
X14442500Y-9820500D01*
X14442500Y-9974500D02*
X14542500Y-10074500D01*
X14542500Y-9974500D02*
X14442500Y-10074500D01*
X14442500Y-10482500D02*
X14542500Y-10582500D01*
X14542500Y-10482500D02*
X14442500Y-10582500D01*
X14442500Y-10736500D02*
X14542500Y-10836500D01*
X14542500Y-10736500D02*
X14442500Y-10836500D01*
X14443000Y-8196000D02*
X14543000Y-8296000D01*
X14543000Y-8196000D02*
X14443000Y-8296000D01*
X14443000Y-8450000D02*
X14543000Y-8550000D01*
X14543000Y-8450000D02*
X14443000Y-8550000D01*
X14443000Y-8704000D02*
X14543000Y-8804000D01*
X14543000Y-8704000D02*
X14443000Y-8804000D01*
X14443000Y-8958000D02*
X14543000Y-9058000D01*
X14543000Y-8958000D02*
X14443000Y-9058000D01*
X14443000Y-9212000D02*
X14543000Y-9312000D01*
X14543000Y-9212000D02*
X14443000Y-9312000D01*
X14443000Y-9466000D02*
X14543000Y-9566000D01*
X14543000Y-9466000D02*
X14443000Y-9566000D01*
X14443000Y-9720000D02*
X14543000Y-9820000D01*
X14543000Y-9720000D02*
X14443000Y-9820000D01*
X14443000Y-9974000D02*
X14543000Y-10074000D01*
X14543000Y-9974000D02*
X14443000Y-10074000D01*
X14443000Y-10482000D02*
X14543000Y-10582000D01*
X14543000Y-10482000D02*
X14443000Y-10582000D01*
X14443000Y-10736000D02*
X14543000Y-10836000D01*
X14543000Y-10736000D02*
X14443000Y-10836000D01*
X14695500Y-4894500D02*
X14795500Y-4994500D01*
X14795500Y-4894500D02*
X14695500Y-4994500D01*
X14695500Y-5148500D02*
X14795500Y-5248500D01*
X14795500Y-5148500D02*
X14695500Y-5248500D01*
X14695500Y-5656500D02*
X14795500Y-5756500D01*
X14795500Y-5656500D02*
X14695500Y-5756500D01*
X14695500Y-5910500D02*
X14795500Y-6010500D01*
X14795500Y-5910500D02*
X14695500Y-6010500D01*
X14695500Y-6164500D02*
X14795500Y-6264500D01*
X14795500Y-6164500D02*
X14695500Y-6264500D01*
X14695500Y-6418500D02*
X14795500Y-6518500D01*
X14795500Y-6418500D02*
X14695500Y-6518500D01*
X14695500Y-6672500D02*
X14795500Y-6772500D01*
X14795500Y-6672500D02*
X14695500Y-6772500D01*
X14695500Y-6926500D02*
X14795500Y-7026500D01*
X14795500Y-6926500D02*
X14695500Y-7026500D01*
X14695500Y-7180500D02*
X14795500Y-7280500D01*
X14795500Y-7180500D02*
X14695500Y-7280500D01*
X14695500Y-7434500D02*
X14795500Y-7534500D01*
X14795500Y-7434500D02*
X14695500Y-7534500D01*
X14696000Y-4894000D02*
X14796000Y-4994000D01*
X14796000Y-4894000D02*
X14696000Y-4994000D01*
X14696000Y-5148000D02*
X14796000Y-5248000D01*
X14796000Y-5148000D02*
X14696000Y-5248000D01*
X14696000Y-5656000D02*
X14796000Y-5756000D01*
X14796000Y-5656000D02*
X14696000Y-5756000D01*
X14696000Y-5910000D02*
X14796000Y-6010000D01*
X14796000Y-5910000D02*
X14696000Y-6010000D01*
X14696000Y-6164000D02*
X14796000Y-6264000D01*
X14796000Y-6164000D02*
X14696000Y-6264000D01*
X14696000Y-6418000D02*
X14796000Y-6518000D01*
X14796000Y-6418000D02*
X14696000Y-6518000D01*
X14696000Y-6672000D02*
X14796000Y-6772000D01*
X14796000Y-6672000D02*
X14696000Y-6772000D01*
X14696000Y-6926000D02*
X14796000Y-7026000D01*
X14796000Y-6926000D02*
X14696000Y-7026000D01*
X14696000Y-7180000D02*
X14796000Y-7280000D01*
X14796000Y-7180000D02*
X14696000Y-7280000D01*
X14696000Y-7434000D02*
X14796000Y-7534000D01*
X14796000Y-7434000D02*
X14696000Y-7534000D01*
X14696500Y-8196500D02*
X14796500Y-8296500D01*
X14796500Y-8196500D02*
X14696500Y-8296500D01*
X14696500Y-8450500D02*
X14796500Y-8550500D01*
X14796500Y-8450500D02*
X14696500Y-8550500D01*
X14696500Y-8704500D02*
X14796500Y-8804500D01*
X14796500Y-8704500D02*
X14696500Y-8804500D01*
X14696500Y-8958500D02*
X14796500Y-9058500D01*
X14796500Y-8958500D02*
X14696500Y-9058500D01*
X14696500Y-9212500D02*
X14796500Y-9312500D01*
X14796500Y-9212500D02*
X14696500Y-9312500D01*
X14696500Y-9466500D02*
X14796500Y-9566500D01*
X14796500Y-9466500D02*
X14696500Y-9566500D01*
X14696500Y-9720500D02*
X14796500Y-9820500D01*
X14796500Y-9720500D02*
X14696500Y-9820500D01*
X14696500Y-9974500D02*
X14796500Y-10074500D01*
X14796500Y-9974500D02*
X14696500Y-10074500D01*
X14696500Y-10482500D02*
X14796500Y-10582500D01*
X14796500Y-10482500D02*
X14696500Y-10582500D01*
X14696500Y-10736500D02*
X14796500Y-10836500D01*
X14796500Y-10736500D02*
X14696500Y-10836500D01*
X14697000Y-8196000D02*
X14797000Y-8296000D01*
X14797000Y-8196000D02*
X14697000Y-8296000D01*
X14697000Y-8450000D02*
X14797000Y-8550000D01*
X14797000Y-8450000D02*
X14697000Y-8550000D01*
X14697000Y-8704000D02*
X14797000Y-8804000D01*
X14797000Y-8704000D02*
X14697000Y-8804000D01*
X14697000Y-8958000D02*
X14797000Y-9058000D01*
X14797000Y-8958000D02*
X14697000Y-9058000D01*
X14697000Y-9212000D02*
X14797000Y-9312000D01*
X14797000Y-9212000D02*
X14697000Y-9312000D01*
X14697000Y-9466000D02*
X14797000Y-9566000D01*
X14797000Y-9466000D02*
X14697000Y-9566000D01*
X14697000Y-9720000D02*
X14797000Y-9820000D01*
X14797000Y-9720000D02*
X14697000Y-9820000D01*
X14697000Y-9974000D02*
X14797000Y-10074000D01*
X14797000Y-9974000D02*
X14697000Y-10074000D01*
X14697000Y-10482000D02*
X14797000Y-10582000D01*
X14797000Y-10482000D02*
X14697000Y-10582000D01*
X14697000Y-10736000D02*
X14797000Y-10836000D01*
X14797000Y-10736000D02*
X14697000Y-10836000D01*
D11*
X4803277Y-11396484D02*
X4803277Y-11196484D01*
X4803277Y-11196484D02*
X4850896Y-11196484D01*
X4850896Y-11196484D02*
X4879467Y-11206008D01*
X4879467Y-11206008D02*
X4898515Y-11225055D01*
X4898515Y-11225055D02*
X4908039Y-11244103D01*
X4908039Y-11244103D02*
X4917563Y-11282198D01*
X4917563Y-11282198D02*
X4917563Y-11310769D01*
X4917563Y-11310769D02*
X4908039Y-11348865D01*
X4908039Y-11348865D02*
X4898515Y-11367912D01*
X4898515Y-11367912D02*
X4879467Y-11386960D01*
X4879467Y-11386960D02*
X4850896Y-11396484D01*
X4850896Y-11396484D02*
X4803277Y-11396484D01*
X5003277Y-11396484D02*
X5003277Y-11263150D01*
X5003277Y-11301246D02*
X5012801Y-11282198D01*
X5012801Y-11282198D02*
X5022324Y-11272674D01*
X5022324Y-11272674D02*
X5041372Y-11263150D01*
X5041372Y-11263150D02*
X5060420Y-11263150D01*
X5127086Y-11396484D02*
X5127086Y-11263150D01*
X5127086Y-11196484D02*
X5117563Y-11206008D01*
X5117563Y-11206008D02*
X5127086Y-11215531D01*
X5127086Y-11215531D02*
X5136610Y-11206008D01*
X5136610Y-11206008D02*
X5127086Y-11196484D01*
X5127086Y-11196484D02*
X5127086Y-11215531D01*
X5250896Y-11396484D02*
X5231848Y-11386960D01*
X5231848Y-11386960D02*
X5222324Y-11367912D01*
X5222324Y-11367912D02*
X5222324Y-11196484D01*
X5355658Y-11396484D02*
X5336610Y-11386960D01*
X5336610Y-11386960D02*
X5327086Y-11367912D01*
X5327086Y-11367912D02*
X5327086Y-11196484D01*
X5584229Y-11396484D02*
X5584229Y-11196484D01*
X5584229Y-11196484D02*
X5650896Y-11339341D01*
X5650896Y-11339341D02*
X5717562Y-11196484D01*
X5717562Y-11196484D02*
X5717562Y-11396484D01*
X5898515Y-11396484D02*
X5898515Y-11291722D01*
X5898515Y-11291722D02*
X5888991Y-11272674D01*
X5888991Y-11272674D02*
X5869943Y-11263150D01*
X5869943Y-11263150D02*
X5831848Y-11263150D01*
X5831848Y-11263150D02*
X5812801Y-11272674D01*
X5898515Y-11386960D02*
X5879467Y-11396484D01*
X5879467Y-11396484D02*
X5831848Y-11396484D01*
X5831848Y-11396484D02*
X5812801Y-11386960D01*
X5812801Y-11386960D02*
X5803277Y-11367912D01*
X5803277Y-11367912D02*
X5803277Y-11348865D01*
X5803277Y-11348865D02*
X5812801Y-11329817D01*
X5812801Y-11329817D02*
X5831848Y-11320293D01*
X5831848Y-11320293D02*
X5879467Y-11320293D01*
X5879467Y-11320293D02*
X5898515Y-11310769D01*
X5993753Y-11263150D02*
X5993753Y-11463150D01*
X5993753Y-11272674D02*
X6012801Y-11263150D01*
X6012801Y-11263150D02*
X6050896Y-11263150D01*
X6050896Y-11263150D02*
X6069943Y-11272674D01*
X6069943Y-11272674D02*
X6079467Y-11282198D01*
X6079467Y-11282198D02*
X6088991Y-11301246D01*
X6088991Y-11301246D02*
X6088991Y-11358388D01*
X6088991Y-11358388D02*
X6079467Y-11377436D01*
X6079467Y-11377436D02*
X6069943Y-11386960D01*
X6069943Y-11386960D02*
X6050896Y-11396484D01*
X6050896Y-11396484D02*
X6012801Y-11396484D01*
X6012801Y-11396484D02*
X5993753Y-11386960D01*
X6174705Y-11377436D02*
X6184229Y-11386960D01*
X6184229Y-11386960D02*
X6174705Y-11396484D01*
X6174705Y-11396484D02*
X6165182Y-11386960D01*
X6165182Y-11386960D02*
X6174705Y-11377436D01*
X6174705Y-11377436D02*
X6174705Y-11396484D01*
X6174705Y-11272674D02*
X6184229Y-11282198D01*
X6184229Y-11282198D02*
X6174705Y-11291722D01*
X6174705Y-11291722D02*
X6165182Y-11282198D01*
X6165182Y-11282198D02*
X6174705Y-11272674D01*
X6174705Y-11272674D02*
X6174705Y-11291722D01*
D12*
X4442500Y-11675000D02*
X4542500Y-11775000D01*
X4542500Y-11675000D02*
X4442500Y-11775000D01*
D11*
X4908039Y-11816484D02*
X4793753Y-11816484D01*
X4850896Y-11816484D02*
X4850896Y-11616484D01*
X4850896Y-11616484D02*
X4831848Y-11645055D01*
X4831848Y-11645055D02*
X4812801Y-11664103D01*
X4812801Y-11664103D02*
X4793753Y-11673627D01*
X4993753Y-11797436D02*
X5003277Y-11806960D01*
X5003277Y-11806960D02*
X4993753Y-11816484D01*
X4993753Y-11816484D02*
X4984229Y-11806960D01*
X4984229Y-11806960D02*
X4993753Y-11797436D01*
X4993753Y-11797436D02*
X4993753Y-11816484D01*
X5127086Y-11616484D02*
X5146134Y-11616484D01*
X5146134Y-11616484D02*
X5165182Y-11626008D01*
X5165182Y-11626008D02*
X5174705Y-11635531D01*
X5174705Y-11635531D02*
X5184229Y-11654579D01*
X5184229Y-11654579D02*
X5193753Y-11692674D01*
X5193753Y-11692674D02*
X5193753Y-11740293D01*
X5193753Y-11740293D02*
X5184229Y-11778388D01*
X5184229Y-11778388D02*
X5174705Y-11797436D01*
X5174705Y-11797436D02*
X5165182Y-11806960D01*
X5165182Y-11806960D02*
X5146134Y-11816484D01*
X5146134Y-11816484D02*
X5127086Y-11816484D01*
X5127086Y-11816484D02*
X5108039Y-11806960D01*
X5108039Y-11806960D02*
X5098515Y-11797436D01*
X5098515Y-11797436D02*
X5088991Y-11778388D01*
X5088991Y-11778388D02*
X5079467Y-11740293D01*
X5079467Y-11740293D02*
X5079467Y-11692674D01*
X5079467Y-11692674D02*
X5088991Y-11654579D01*
X5088991Y-11654579D02*
X5098515Y-11635531D01*
X5098515Y-11635531D02*
X5108039Y-11626008D01*
X5108039Y-11626008D02*
X5127086Y-11616484D01*
X5317563Y-11616484D02*
X5336610Y-11616484D01*
X5336610Y-11616484D02*
X5355658Y-11626008D01*
X5355658Y-11626008D02*
X5365182Y-11635531D01*
X5365182Y-11635531D02*
X5374705Y-11654579D01*
X5374705Y-11654579D02*
X5384229Y-11692674D01*
X5384229Y-11692674D02*
X5384229Y-11740293D01*
X5384229Y-11740293D02*
X5374705Y-11778388D01*
X5374705Y-11778388D02*
X5365182Y-11797436D01*
X5365182Y-11797436D02*
X5355658Y-11806960D01*
X5355658Y-11806960D02*
X5336610Y-11816484D01*
X5336610Y-11816484D02*
X5317563Y-11816484D01*
X5317563Y-11816484D02*
X5298515Y-11806960D01*
X5298515Y-11806960D02*
X5288991Y-11797436D01*
X5288991Y-11797436D02*
X5279467Y-11778388D01*
X5279467Y-11778388D02*
X5269944Y-11740293D01*
X5269944Y-11740293D02*
X5269944Y-11692674D01*
X5269944Y-11692674D02*
X5279467Y-11654579D01*
X5279467Y-11654579D02*
X5288991Y-11635531D01*
X5288991Y-11635531D02*
X5298515Y-11626008D01*
X5298515Y-11626008D02*
X5317563Y-11616484D01*
X5508039Y-11616484D02*
X5527086Y-11616484D01*
X5527086Y-11616484D02*
X5546134Y-11626008D01*
X5546134Y-11626008D02*
X5555658Y-11635531D01*
X5555658Y-11635531D02*
X5565182Y-11654579D01*
X5565182Y-11654579D02*
X5574705Y-11692674D01*
X5574705Y-11692674D02*
X5574705Y-11740293D01*
X5574705Y-11740293D02*
X5565182Y-11778388D01*
X5565182Y-11778388D02*
X5555658Y-11797436D01*
X5555658Y-11797436D02*
X5546134Y-11806960D01*
X5546134Y-11806960D02*
X5527086Y-11816484D01*
X5527086Y-11816484D02*
X5508039Y-11816484D01*
X5508039Y-11816484D02*
X5488991Y-11806960D01*
X5488991Y-11806960D02*
X5479467Y-11797436D01*
X5479467Y-11797436D02*
X5469944Y-11778388D01*
X5469944Y-11778388D02*
X5460420Y-11740293D01*
X5460420Y-11740293D02*
X5460420Y-11692674D01*
X5460420Y-11692674D02*
X5469944Y-11654579D01*
X5469944Y-11654579D02*
X5479467Y-11635531D01*
X5479467Y-11635531D02*
X5488991Y-11626008D01*
X5488991Y-11626008D02*
X5508039Y-11616484D01*
X5660420Y-11816484D02*
X5660420Y-11683150D01*
X5660420Y-11702198D02*
X5669943Y-11692674D01*
X5669943Y-11692674D02*
X5688991Y-11683150D01*
X5688991Y-11683150D02*
X5717563Y-11683150D01*
X5717563Y-11683150D02*
X5736610Y-11692674D01*
X5736610Y-11692674D02*
X5746134Y-11711722D01*
X5746134Y-11711722D02*
X5746134Y-11816484D01*
X5746134Y-11711722D02*
X5755658Y-11692674D01*
X5755658Y-11692674D02*
X5774705Y-11683150D01*
X5774705Y-11683150D02*
X5803277Y-11683150D01*
X5803277Y-11683150D02*
X5822324Y-11692674D01*
X5822324Y-11692674D02*
X5831848Y-11711722D01*
X5831848Y-11711722D02*
X5831848Y-11816484D01*
X5927086Y-11816484D02*
X5927086Y-11683150D01*
X5927086Y-11702198D02*
X5936610Y-11692674D01*
X5936610Y-11692674D02*
X5955658Y-11683150D01*
X5955658Y-11683150D02*
X5984229Y-11683150D01*
X5984229Y-11683150D02*
X6003277Y-11692674D01*
X6003277Y-11692674D02*
X6012801Y-11711722D01*
X6012801Y-11711722D02*
X6012801Y-11816484D01*
X6012801Y-11711722D02*
X6022324Y-11692674D01*
X6022324Y-11692674D02*
X6041372Y-11683150D01*
X6041372Y-11683150D02*
X6069943Y-11683150D01*
X6069943Y-11683150D02*
X6088991Y-11692674D01*
X6088991Y-11692674D02*
X6098515Y-11711722D01*
X6098515Y-11711722D02*
X6098515Y-11816484D01*
X6488991Y-11606960D02*
X6317563Y-11864103D01*
X6746134Y-11616484D02*
X6765182Y-11616484D01*
X6765182Y-11616484D02*
X6784229Y-11626008D01*
X6784229Y-11626008D02*
X6793753Y-11635531D01*
X6793753Y-11635531D02*
X6803277Y-11654579D01*
X6803277Y-11654579D02*
X6812801Y-11692674D01*
X6812801Y-11692674D02*
X6812801Y-11740293D01*
X6812801Y-11740293D02*
X6803277Y-11778388D01*
X6803277Y-11778388D02*
X6793753Y-11797436D01*
X6793753Y-11797436D02*
X6784229Y-11806960D01*
X6784229Y-11806960D02*
X6765182Y-11816484D01*
X6765182Y-11816484D02*
X6746134Y-11816484D01*
X6746134Y-11816484D02*
X6727086Y-11806960D01*
X6727086Y-11806960D02*
X6717563Y-11797436D01*
X6717563Y-11797436D02*
X6708039Y-11778388D01*
X6708039Y-11778388D02*
X6698515Y-11740293D01*
X6698515Y-11740293D02*
X6698515Y-11692674D01*
X6698515Y-11692674D02*
X6708039Y-11654579D01*
X6708039Y-11654579D02*
X6717563Y-11635531D01*
X6717563Y-11635531D02*
X6727086Y-11626008D01*
X6727086Y-11626008D02*
X6746134Y-11616484D01*
X6898515Y-11797436D02*
X6908039Y-11806960D01*
X6908039Y-11806960D02*
X6898515Y-11816484D01*
X6898515Y-11816484D02*
X6888991Y-11806960D01*
X6888991Y-11806960D02*
X6898515Y-11797436D01*
X6898515Y-11797436D02*
X6898515Y-11816484D01*
X7031848Y-11616484D02*
X7050896Y-11616484D01*
X7050896Y-11616484D02*
X7069944Y-11626008D01*
X7069944Y-11626008D02*
X7079467Y-11635531D01*
X7079467Y-11635531D02*
X7088991Y-11654579D01*
X7088991Y-11654579D02*
X7098515Y-11692674D01*
X7098515Y-11692674D02*
X7098515Y-11740293D01*
X7098515Y-11740293D02*
X7088991Y-11778388D01*
X7088991Y-11778388D02*
X7079467Y-11797436D01*
X7079467Y-11797436D02*
X7069944Y-11806960D01*
X7069944Y-11806960D02*
X7050896Y-11816484D01*
X7050896Y-11816484D02*
X7031848Y-11816484D01*
X7031848Y-11816484D02*
X7012801Y-11806960D01*
X7012801Y-11806960D02*
X7003277Y-11797436D01*
X7003277Y-11797436D02*
X6993753Y-11778388D01*
X6993753Y-11778388D02*
X6984229Y-11740293D01*
X6984229Y-11740293D02*
X6984229Y-11692674D01*
X6984229Y-11692674D02*
X6993753Y-11654579D01*
X6993753Y-11654579D02*
X7003277Y-11635531D01*
X7003277Y-11635531D02*
X7012801Y-11626008D01*
X7012801Y-11626008D02*
X7031848Y-11616484D01*
X7165182Y-11616484D02*
X7288991Y-11616484D01*
X7288991Y-11616484D02*
X7222325Y-11692674D01*
X7222325Y-11692674D02*
X7250896Y-11692674D01*
X7250896Y-11692674D02*
X7269944Y-11702198D01*
X7269944Y-11702198D02*
X7279467Y-11711722D01*
X7279467Y-11711722D02*
X7288991Y-11730769D01*
X7288991Y-11730769D02*
X7288991Y-11778388D01*
X7288991Y-11778388D02*
X7279467Y-11797436D01*
X7279467Y-11797436D02*
X7269944Y-11806960D01*
X7269944Y-11806960D02*
X7250896Y-11816484D01*
X7250896Y-11816484D02*
X7193753Y-11816484D01*
X7193753Y-11816484D02*
X7174706Y-11806960D01*
X7174706Y-11806960D02*
X7165182Y-11797436D01*
X7384229Y-11816484D02*
X7422325Y-11816484D01*
X7422325Y-11816484D02*
X7441372Y-11806960D01*
X7441372Y-11806960D02*
X7450896Y-11797436D01*
X7450896Y-11797436D02*
X7469944Y-11768865D01*
X7469944Y-11768865D02*
X7479467Y-11730769D01*
X7479467Y-11730769D02*
X7479467Y-11654579D01*
X7479467Y-11654579D02*
X7469944Y-11635531D01*
X7469944Y-11635531D02*
X7460420Y-11626008D01*
X7460420Y-11626008D02*
X7441372Y-11616484D01*
X7441372Y-11616484D02*
X7403277Y-11616484D01*
X7403277Y-11616484D02*
X7384229Y-11626008D01*
X7384229Y-11626008D02*
X7374706Y-11635531D01*
X7374706Y-11635531D02*
X7365182Y-11654579D01*
X7365182Y-11654579D02*
X7365182Y-11702198D01*
X7365182Y-11702198D02*
X7374706Y-11721246D01*
X7374706Y-11721246D02*
X7384229Y-11730769D01*
X7384229Y-11730769D02*
X7403277Y-11740293D01*
X7403277Y-11740293D02*
X7441372Y-11740293D01*
X7441372Y-11740293D02*
X7460420Y-11730769D01*
X7460420Y-11730769D02*
X7469944Y-11721246D01*
X7469944Y-11721246D02*
X7479467Y-11702198D01*
X7650896Y-11683150D02*
X7650896Y-11816484D01*
X7603277Y-11606960D02*
X7555658Y-11749817D01*
X7555658Y-11749817D02*
X7679467Y-11749817D01*
X7746134Y-11616484D02*
X7746134Y-11654579D01*
X7822325Y-11616484D02*
X7822325Y-11654579D01*
X8117563Y-11892674D02*
X8108039Y-11883150D01*
X8108039Y-11883150D02*
X8088991Y-11854579D01*
X8088991Y-11854579D02*
X8079468Y-11835531D01*
X8079468Y-11835531D02*
X8069944Y-11806960D01*
X8069944Y-11806960D02*
X8060420Y-11759341D01*
X8060420Y-11759341D02*
X8060420Y-11721246D01*
X8060420Y-11721246D02*
X8069944Y-11673627D01*
X8069944Y-11673627D02*
X8079468Y-11645055D01*
X8079468Y-11645055D02*
X8088991Y-11626008D01*
X8088991Y-11626008D02*
X8108039Y-11597436D01*
X8108039Y-11597436D02*
X8117563Y-11587912D01*
X8298515Y-11816484D02*
X8184229Y-11816484D01*
X8241372Y-11816484D02*
X8241372Y-11616484D01*
X8241372Y-11616484D02*
X8222325Y-11645055D01*
X8222325Y-11645055D02*
X8203277Y-11664103D01*
X8203277Y-11664103D02*
X8184229Y-11673627D01*
X8469944Y-11616484D02*
X8431849Y-11616484D01*
X8431849Y-11616484D02*
X8412801Y-11626008D01*
X8412801Y-11626008D02*
X8403277Y-11635531D01*
X8403277Y-11635531D02*
X8384229Y-11664103D01*
X8384229Y-11664103D02*
X8374706Y-11702198D01*
X8374706Y-11702198D02*
X8374706Y-11778388D01*
X8374706Y-11778388D02*
X8384229Y-11797436D01*
X8384229Y-11797436D02*
X8393753Y-11806960D01*
X8393753Y-11806960D02*
X8412801Y-11816484D01*
X8412801Y-11816484D02*
X8450896Y-11816484D01*
X8450896Y-11816484D02*
X8469944Y-11806960D01*
X8469944Y-11806960D02*
X8479468Y-11797436D01*
X8479468Y-11797436D02*
X8488991Y-11778388D01*
X8488991Y-11778388D02*
X8488991Y-11730769D01*
X8488991Y-11730769D02*
X8479468Y-11711722D01*
X8479468Y-11711722D02*
X8469944Y-11702198D01*
X8469944Y-11702198D02*
X8450896Y-11692674D01*
X8450896Y-11692674D02*
X8412801Y-11692674D01*
X8412801Y-11692674D02*
X8393753Y-11702198D01*
X8393753Y-11702198D02*
X8384229Y-11711722D01*
X8384229Y-11711722D02*
X8374706Y-11730769D01*
X8612801Y-11616484D02*
X8631849Y-11616484D01*
X8631849Y-11616484D02*
X8650896Y-11626008D01*
X8650896Y-11626008D02*
X8660420Y-11635531D01*
X8660420Y-11635531D02*
X8669944Y-11654579D01*
X8669944Y-11654579D02*
X8679468Y-11692674D01*
X8679468Y-11692674D02*
X8679468Y-11740293D01*
X8679468Y-11740293D02*
X8669944Y-11778388D01*
X8669944Y-11778388D02*
X8660420Y-11797436D01*
X8660420Y-11797436D02*
X8650896Y-11806960D01*
X8650896Y-11806960D02*
X8631849Y-11816484D01*
X8631849Y-11816484D02*
X8612801Y-11816484D01*
X8612801Y-11816484D02*
X8593753Y-11806960D01*
X8593753Y-11806960D02*
X8584230Y-11797436D01*
X8584230Y-11797436D02*
X8574706Y-11778388D01*
X8574706Y-11778388D02*
X8565182Y-11740293D01*
X8565182Y-11740293D02*
X8565182Y-11692674D01*
X8565182Y-11692674D02*
X8574706Y-11654579D01*
X8574706Y-11654579D02*
X8584230Y-11635531D01*
X8584230Y-11635531D02*
X8593753Y-11626008D01*
X8593753Y-11626008D02*
X8612801Y-11616484D01*
X8869944Y-11816484D02*
X8755658Y-11816484D01*
X8812801Y-11816484D02*
X8812801Y-11616484D01*
X8812801Y-11616484D02*
X8793753Y-11645055D01*
X8793753Y-11645055D02*
X8774706Y-11664103D01*
X8774706Y-11664103D02*
X8755658Y-11673627D01*
X9108039Y-11816484D02*
X9108039Y-11616484D01*
X9193753Y-11816484D02*
X9193753Y-11711722D01*
X9193753Y-11711722D02*
X9184230Y-11692674D01*
X9184230Y-11692674D02*
X9165182Y-11683150D01*
X9165182Y-11683150D02*
X9136611Y-11683150D01*
X9136611Y-11683150D02*
X9117563Y-11692674D01*
X9117563Y-11692674D02*
X9108039Y-11702198D01*
X9317563Y-11816484D02*
X9298515Y-11806960D01*
X9298515Y-11806960D02*
X9288992Y-11797436D01*
X9288992Y-11797436D02*
X9279468Y-11778388D01*
X9279468Y-11778388D02*
X9279468Y-11721246D01*
X9279468Y-11721246D02*
X9288992Y-11702198D01*
X9288992Y-11702198D02*
X9298515Y-11692674D01*
X9298515Y-11692674D02*
X9317563Y-11683150D01*
X9317563Y-11683150D02*
X9346134Y-11683150D01*
X9346134Y-11683150D02*
X9365182Y-11692674D01*
X9365182Y-11692674D02*
X9374706Y-11702198D01*
X9374706Y-11702198D02*
X9384230Y-11721246D01*
X9384230Y-11721246D02*
X9384230Y-11778388D01*
X9384230Y-11778388D02*
X9374706Y-11797436D01*
X9374706Y-11797436D02*
X9365182Y-11806960D01*
X9365182Y-11806960D02*
X9346134Y-11816484D01*
X9346134Y-11816484D02*
X9317563Y-11816484D01*
X9498515Y-11816484D02*
X9479468Y-11806960D01*
X9479468Y-11806960D02*
X9469944Y-11787912D01*
X9469944Y-11787912D02*
X9469944Y-11616484D01*
X9650896Y-11806960D02*
X9631849Y-11816484D01*
X9631849Y-11816484D02*
X9593753Y-11816484D01*
X9593753Y-11816484D02*
X9574706Y-11806960D01*
X9574706Y-11806960D02*
X9565182Y-11787912D01*
X9565182Y-11787912D02*
X9565182Y-11711722D01*
X9565182Y-11711722D02*
X9574706Y-11692674D01*
X9574706Y-11692674D02*
X9593753Y-11683150D01*
X9593753Y-11683150D02*
X9631849Y-11683150D01*
X9631849Y-11683150D02*
X9650896Y-11692674D01*
X9650896Y-11692674D02*
X9660420Y-11711722D01*
X9660420Y-11711722D02*
X9660420Y-11730769D01*
X9660420Y-11730769D02*
X9565182Y-11749817D01*
X9736611Y-11806960D02*
X9755658Y-11816484D01*
X9755658Y-11816484D02*
X9793753Y-11816484D01*
X9793753Y-11816484D02*
X9812801Y-11806960D01*
X9812801Y-11806960D02*
X9822325Y-11787912D01*
X9822325Y-11787912D02*
X9822325Y-11778388D01*
X9822325Y-11778388D02*
X9812801Y-11759341D01*
X9812801Y-11759341D02*
X9793753Y-11749817D01*
X9793753Y-11749817D02*
X9765182Y-11749817D01*
X9765182Y-11749817D02*
X9746134Y-11740293D01*
X9746134Y-11740293D02*
X9736611Y-11721246D01*
X9736611Y-11721246D02*
X9736611Y-11711722D01*
X9736611Y-11711722D02*
X9746134Y-11692674D01*
X9746134Y-11692674D02*
X9765182Y-11683150D01*
X9765182Y-11683150D02*
X9793753Y-11683150D01*
X9793753Y-11683150D02*
X9812801Y-11692674D01*
X9888992Y-11892674D02*
X9898515Y-11883150D01*
X9898515Y-11883150D02*
X9917563Y-11854579D01*
X9917563Y-11854579D02*
X9927087Y-11835531D01*
X9927087Y-11835531D02*
X9936611Y-11806960D01*
X9936611Y-11806960D02*
X9946134Y-11759341D01*
X9946134Y-11759341D02*
X9946134Y-11721246D01*
X9946134Y-11721246D02*
X9936611Y-11673627D01*
X9936611Y-11673627D02*
X9927087Y-11645055D01*
X9927087Y-11645055D02*
X9917563Y-11626008D01*
X9917563Y-11626008D02*
X9898515Y-11597436D01*
X9898515Y-11597436D02*
X9888992Y-11587912D01*
M02*
