M48
; DRILL file {KiCad 8.0.1} date 2024-04-20T13:07:58+0200
; FORMAT={-:-/ absolute / inch / decimal}
; #@! TF.CreationDate,2024-04-20T13:07:58+02:00
; #@! TF.GenerationSoftware,Kicad,Pcbnew,8.0.1
; #@! TF.FileFunction,Plated,1,2,PTH
FMAT,2
INCH
; #@! TA.AperFunction,Plated,PTH,ComponentDrill
T1C0.0394
%
G90
G05
T1
X1.9053Y-1.9467
X1.9053Y-2.0467
X1.9053Y-2.2467
X1.9053Y-2.3467
X1.9053Y-2.4467
X1.9053Y-2.5467
X1.9053Y-2.6467
X1.9053Y-2.7467
X1.9053Y-2.8467
X1.9053Y-2.9467
X1.9055Y-1.9465
X1.9055Y-2.0465
X1.9055Y-2.2465
X1.9055Y-2.3465
X1.9055Y-2.4465
X1.9055Y-2.5465
X1.9055Y-2.6465
X1.9055Y-2.7465
X1.9055Y-2.8465
X1.9055Y-2.9465
X1.9057Y-3.2467
X1.9057Y-3.3467
X1.9057Y-3.4467
X1.9057Y-3.5467
X1.9057Y-3.6467
X1.9057Y-3.7467
X1.9057Y-3.8467
X1.9057Y-3.9467
X1.9057Y-4.1467
X1.9057Y-4.2467
X1.9059Y-3.2465
X1.9059Y-3.3465
X1.9059Y-3.4465
X1.9059Y-3.5465
X1.9059Y-3.6465
X1.9059Y-3.7465
X1.9059Y-3.8465
X1.9059Y-3.9465
X1.9059Y-4.1465
X1.9059Y-4.2465
X2.0053Y-1.9467
X2.0053Y-2.0467
X2.0053Y-2.2467
X2.0053Y-2.3467
X2.0053Y-2.4467
X2.0053Y-2.5467
X2.0053Y-2.6467
X2.0053Y-2.7467
X2.0053Y-2.8467
X2.0053Y-2.9467
X2.0055Y-1.9465
X2.0055Y-2.0465
X2.0055Y-2.2465
X2.0055Y-2.3465
X2.0055Y-2.4465
X2.0055Y-2.5465
X2.0055Y-2.6465
X2.0055Y-2.7465
X2.0055Y-2.8465
X2.0055Y-2.9465
X2.0057Y-3.2467
X2.0057Y-3.3467
X2.0057Y-3.4467
X2.0057Y-3.5467
X2.0057Y-3.6467
X2.0057Y-3.7467
X2.0057Y-3.8467
X2.0057Y-3.9467
X2.0057Y-4.1467
X2.0057Y-4.2467
X2.0059Y-3.2465
X2.0059Y-3.3465
X2.0059Y-3.4465
X2.0059Y-3.5465
X2.0059Y-3.6465
X2.0059Y-3.7465
X2.0059Y-3.8465
X2.0059Y-3.9465
X2.0059Y-4.1465
X2.0059Y-4.2465
X2.1053Y-1.9467
X2.1053Y-2.0467
X2.1053Y-2.2467
X2.1053Y-2.3467
X2.1053Y-2.4467
X2.1053Y-2.5467
X2.1053Y-2.6467
X2.1053Y-2.7467
X2.1053Y-2.8467
X2.1053Y-2.9467
X2.1055Y-1.9465
X2.1055Y-2.0465
X2.1055Y-2.2465
X2.1055Y-2.3465
X2.1055Y-2.4465
X2.1055Y-2.5465
X2.1055Y-2.6465
X2.1055Y-2.7465
X2.1055Y-2.8465
X2.1055Y-2.9465
X2.1057Y-3.2467
X2.1057Y-3.3467
X2.1057Y-3.4467
X2.1057Y-3.5467
X2.1057Y-3.6467
X2.1057Y-3.7467
X2.1057Y-3.8467
X2.1057Y-3.9467
X2.1057Y-4.1467
X2.1057Y-4.2467
X2.1059Y-3.2465
X2.1059Y-3.3465
X2.1059Y-3.4465
X2.1059Y-3.5465
X2.1059Y-3.6465
X2.1059Y-3.7465
X2.1059Y-3.8465
X2.1059Y-3.9465
X2.1059Y-4.1465
X2.1059Y-4.2465
X2.2053Y-1.9467
X2.2053Y-2.0467
X2.2053Y-2.2467
X2.2053Y-2.3467
X2.2053Y-2.4467
X2.2053Y-2.5467
X2.2053Y-2.6467
X2.2053Y-2.7467
X2.2053Y-2.8467
X2.2053Y-2.9467
X2.2055Y-1.9465
X2.2055Y-2.0465
X2.2055Y-2.2465
X2.2055Y-2.3465
X2.2055Y-2.4465
X2.2055Y-2.5465
X2.2055Y-2.6465
X2.2055Y-2.7465
X2.2055Y-2.8465
X2.2055Y-2.9465
X2.2057Y-3.2467
X2.2057Y-3.3467
X2.2057Y-3.4467
X2.2057Y-3.5467
X2.2057Y-3.6467
X2.2057Y-3.7467
X2.2057Y-3.8467
X2.2057Y-3.9467
X2.2057Y-4.1467
X2.2057Y-4.2467
X2.2059Y-3.2465
X2.2059Y-3.3465
X2.2059Y-3.4465
X2.2059Y-3.5465
X2.2059Y-3.6465
X2.2059Y-3.7465
X2.2059Y-3.8465
X2.2059Y-3.9465
X2.2059Y-4.1465
X2.2059Y-4.2465
X2.3053Y-1.9467
X2.3053Y-2.0467
X2.3053Y-2.2467
X2.3053Y-2.3467
X2.3053Y-2.4467
X2.3053Y-2.5467
X2.3053Y-2.6467
X2.3053Y-2.7467
X2.3053Y-2.8467
X2.3053Y-2.9467
X2.3055Y-1.9465
X2.3055Y-2.0465
X2.3055Y-2.2465
X2.3055Y-2.3465
X2.3055Y-2.4465
X2.3055Y-2.5465
X2.3055Y-2.6465
X2.3055Y-2.7465
X2.3055Y-2.8465
X2.3055Y-2.9465
X2.3057Y-3.2467
X2.3057Y-3.3467
X2.3057Y-3.4467
X2.3057Y-3.5467
X2.3057Y-3.6467
X2.3057Y-3.7467
X2.3057Y-3.8467
X2.3057Y-3.9467
X2.3057Y-4.1467
X2.3057Y-4.2467
X2.3059Y-3.2465
X2.3059Y-3.3465
X2.3059Y-3.4465
X2.3059Y-3.5465
X2.3059Y-3.6465
X2.3059Y-3.7465
X2.3059Y-3.8465
X2.3059Y-3.9465
X2.3059Y-4.1465
X2.3059Y-4.2465
X2.4053Y-1.9467
X2.4053Y-2.0467
X2.4053Y-2.2467
X2.4053Y-2.3467
X2.4053Y-2.4467
X2.4053Y-2.5467
X2.4053Y-2.6467
X2.4053Y-2.7467
X2.4053Y-2.8467
X2.4053Y-2.9467
X2.4055Y-1.9465
X2.4055Y-2.0465
X2.4055Y-2.2465
X2.4055Y-2.3465
X2.4055Y-2.4465
X2.4055Y-2.5465
X2.4055Y-2.6465
X2.4055Y-2.7465
X2.4055Y-2.8465
X2.4055Y-2.9465
X2.4057Y-3.2467
X2.4057Y-3.3467
X2.4057Y-3.4467
X2.4057Y-3.5467
X2.4057Y-3.6467
X2.4057Y-3.7467
X2.4057Y-3.8467
X2.4057Y-3.9467
X2.4057Y-4.1467
X2.4057Y-4.2467
X2.4059Y-3.2465
X2.4059Y-3.3465
X2.4059Y-3.4465
X2.4059Y-3.5465
X2.4059Y-3.6465
X2.4059Y-3.7465
X2.4059Y-3.8465
X2.4059Y-3.9465
X2.4059Y-4.1465
X2.4059Y-4.2465
X2.5053Y-1.9467
X2.5053Y-2.0467
X2.5053Y-2.2467
X2.5053Y-2.3467
X2.5053Y-2.4467
X2.5053Y-2.5467
X2.5053Y-2.6467
X2.5053Y-2.7467
X2.5053Y-2.8467
X2.5053Y-2.9467
X2.5055Y-1.9465
X2.5055Y-2.0465
X2.5055Y-2.2465
X2.5055Y-2.3465
X2.5055Y-2.4465
X2.5055Y-2.5465
X2.5055Y-2.6465
X2.5055Y-2.7465
X2.5055Y-2.8465
X2.5055Y-2.9465
X2.5057Y-3.2467
X2.5057Y-3.3467
X2.5057Y-3.4467
X2.5057Y-3.5467
X2.5057Y-3.6467
X2.5057Y-3.7467
X2.5057Y-3.8467
X2.5057Y-3.9467
X2.5057Y-4.1467
X2.5057Y-4.2467
X2.5059Y-3.2465
X2.5059Y-3.3465
X2.5059Y-3.4465
X2.5059Y-3.5465
X2.5059Y-3.6465
X2.5059Y-3.7465
X2.5059Y-3.8465
X2.5059Y-3.9465
X2.5059Y-4.1465
X2.5059Y-4.2465
X2.6053Y-1.9467
X2.6053Y-2.0467
X2.6053Y-2.2467
X2.6053Y-2.3467
X2.6053Y-2.4467
X2.6053Y-2.5467
X2.6053Y-2.6467
X2.6053Y-2.7467
X2.6053Y-2.8467
X2.6053Y-2.9467
X2.6055Y-1.9465
X2.6055Y-2.0465
X2.6055Y-2.2465
X2.6055Y-2.3465
X2.6055Y-2.4465
X2.6055Y-2.5465
X2.6055Y-2.6465
X2.6055Y-2.7465
X2.6055Y-2.8465
X2.6055Y-2.9465
X2.6057Y-3.2467
X2.6057Y-3.3467
X2.6057Y-3.4467
X2.6057Y-3.5467
X2.6057Y-3.6467
X2.6057Y-3.7467
X2.6057Y-3.8467
X2.6057Y-3.9467
X2.6057Y-4.1467
X2.6057Y-4.2467
X2.6059Y-3.2465
X2.6059Y-3.3465
X2.6059Y-3.4465
X2.6059Y-3.5465
X2.6059Y-3.6465
X2.6059Y-3.7465
X2.6059Y-3.8465
X2.6059Y-3.9465
X2.6059Y-4.1465
X2.6059Y-4.2465
X2.7053Y-1.9467
X2.7053Y-2.0467
X2.7053Y-2.2467
X2.7053Y-2.3467
X2.7053Y-2.4467
X2.7053Y-2.5467
X2.7053Y-2.6467
X2.7053Y-2.7467
X2.7053Y-2.8467
X2.7053Y-2.9467
X2.7055Y-1.9465
X2.7055Y-2.0465
X2.7055Y-2.2465
X2.7055Y-2.3465
X2.7055Y-2.4465
X2.7055Y-2.5465
X2.7055Y-2.6465
X2.7055Y-2.7465
X2.7055Y-2.8465
X2.7055Y-2.9465
X2.7057Y-3.2467
X2.7057Y-3.3467
X2.7057Y-3.4467
X2.7057Y-3.5467
X2.7057Y-3.6467
X2.7057Y-3.7467
X2.7057Y-3.8467
X2.7057Y-3.9467
X2.7057Y-4.1467
X2.7057Y-4.2467
X2.7059Y-3.2465
X2.7059Y-3.3465
X2.7059Y-3.4465
X2.7059Y-3.5465
X2.7059Y-3.6465
X2.7059Y-3.7465
X2.7059Y-3.8465
X2.7059Y-3.9465
X2.7059Y-4.1465
X2.7059Y-4.2465
X2.8053Y-1.9467
X2.8053Y-2.0467
X2.8053Y-2.2467
X2.8053Y-2.3467
X2.8053Y-2.4467
X2.8053Y-2.5467
X2.8053Y-2.6467
X2.8053Y-2.7467
X2.8053Y-2.8467
X2.8053Y-2.9467
X2.8055Y-1.9465
X2.8055Y-2.0465
X2.8055Y-2.2465
X2.8055Y-2.3465
X2.8055Y-2.4465
X2.8055Y-2.5465
X2.8055Y-2.6465
X2.8055Y-2.7465
X2.8055Y-2.8465
X2.8055Y-2.9465
X2.8057Y-3.2467
X2.8057Y-3.3467
X2.8057Y-3.4467
X2.8057Y-3.5467
X2.8057Y-3.6467
X2.8057Y-3.7467
X2.8057Y-3.8467
X2.8057Y-3.9467
X2.8057Y-4.1467
X2.8057Y-4.2467
X2.8059Y-3.2465
X2.8059Y-3.3465
X2.8059Y-3.4465
X2.8059Y-3.5465
X2.8059Y-3.6465
X2.8059Y-3.7465
X2.8059Y-3.8465
X2.8059Y-3.9465
X2.8059Y-4.1465
X2.8059Y-4.2465
X2.9053Y-1.9467
X2.9053Y-2.0467
X2.9053Y-2.2467
X2.9053Y-2.3467
X2.9053Y-2.4467
X2.9053Y-2.5467
X2.9053Y-2.6467
X2.9053Y-2.7467
X2.9053Y-2.8467
X2.9053Y-2.9467
X2.9055Y-1.9465
X2.9055Y-2.0465
X2.9055Y-2.2465
X2.9055Y-2.3465
X2.9055Y-2.4465
X2.9055Y-2.5465
X2.9055Y-2.6465
X2.9055Y-2.7465
X2.9055Y-2.8465
X2.9055Y-2.9465
X2.9057Y-3.2467
X2.9057Y-3.3467
X2.9057Y-3.4467
X2.9057Y-3.5467
X2.9057Y-3.6467
X2.9057Y-3.7467
X2.9057Y-3.8467
X2.9057Y-3.9467
X2.9057Y-4.1467
X2.9057Y-4.2467
X2.9059Y-3.2465
X2.9059Y-3.3465
X2.9059Y-3.4465
X2.9059Y-3.5465
X2.9059Y-3.6465
X2.9059Y-3.7465
X2.9059Y-3.8465
X2.9059Y-3.9465
X2.9059Y-4.1465
X2.9059Y-4.2465
X3.0053Y-1.9467
X3.0053Y-2.0467
X3.0053Y-2.2467
X3.0053Y-2.3467
X3.0053Y-2.4467
X3.0053Y-2.5467
X3.0053Y-2.6467
X3.0053Y-2.7467
X3.0053Y-2.8467
X3.0053Y-2.9467
X3.0055Y-1.9465
X3.0055Y-2.0465
X3.0055Y-2.2465
X3.0055Y-2.3465
X3.0055Y-2.4465
X3.0055Y-2.5465
X3.0055Y-2.6465
X3.0055Y-2.7465
X3.0055Y-2.8465
X3.0055Y-2.9465
X3.0057Y-3.2467
X3.0057Y-3.3467
X3.0057Y-3.4467
X3.0057Y-3.5467
X3.0057Y-3.6467
X3.0057Y-3.7467
X3.0057Y-3.8467
X3.0057Y-3.9467
X3.0057Y-4.1467
X3.0057Y-4.2467
X3.0059Y-3.2465
X3.0059Y-3.3465
X3.0059Y-3.4465
X3.0059Y-3.5465
X3.0059Y-3.6465
X3.0059Y-3.7465
X3.0059Y-3.8465
X3.0059Y-3.9465
X3.0059Y-4.1465
X3.0059Y-4.2465
X3.1053Y-1.9467
X3.1053Y-2.0467
X3.1053Y-2.2467
X3.1053Y-2.3467
X3.1053Y-2.4467
X3.1053Y-2.5467
X3.1053Y-2.6467
X3.1053Y-2.7467
X3.1053Y-2.8467
X3.1053Y-2.9467
X3.1055Y-1.9465
X3.1055Y-2.0465
X3.1055Y-2.2465
X3.1055Y-2.3465
X3.1055Y-2.4465
X3.1055Y-2.5465
X3.1055Y-2.6465
X3.1055Y-2.7465
X3.1055Y-2.8465
X3.1055Y-2.9465
X3.1057Y-3.2467
X3.1057Y-3.3467
X3.1057Y-3.4467
X3.1057Y-3.5467
X3.1057Y-3.6467
X3.1057Y-3.7467
X3.1057Y-3.8467
X3.1057Y-3.9467
X3.1057Y-4.1467
X3.1057Y-4.2467
X3.1059Y-3.2465
X3.1059Y-3.3465
X3.1059Y-3.4465
X3.1059Y-3.5465
X3.1059Y-3.6465
X3.1059Y-3.7465
X3.1059Y-3.8465
X3.1059Y-3.9465
X3.1059Y-4.1465
X3.1059Y-4.2465
X3.2053Y-1.9467
X3.2053Y-2.0467
X3.2053Y-2.2467
X3.2053Y-2.3467
X3.2053Y-2.4467
X3.2053Y-2.5467
X3.2053Y-2.6467
X3.2053Y-2.7467
X3.2053Y-2.8467
X3.2053Y-2.9467
X3.2055Y-1.9465
X3.2055Y-2.0465
X3.2055Y-2.2465
X3.2055Y-2.3465
X3.2055Y-2.4465
X3.2055Y-2.5465
X3.2055Y-2.6465
X3.2055Y-2.7465
X3.2055Y-2.8465
X3.2055Y-2.9465
X3.2057Y-3.2467
X3.2057Y-3.3467
X3.2057Y-3.4467
X3.2057Y-3.5467
X3.2057Y-3.6467
X3.2057Y-3.7467
X3.2057Y-3.8467
X3.2057Y-3.9467
X3.2057Y-4.1467
X3.2057Y-4.2467
X3.2059Y-3.2465
X3.2059Y-3.3465
X3.2059Y-3.4465
X3.2059Y-3.5465
X3.2059Y-3.6465
X3.2059Y-3.7465
X3.2059Y-3.8465
X3.2059Y-3.9465
X3.2059Y-4.1465
X3.2059Y-4.2465
X3.3053Y-1.9467
X3.3053Y-2.0467
X3.3053Y-2.2467
X3.3053Y-2.3467
X3.3053Y-2.4467
X3.3053Y-2.5467
X3.3053Y-2.6467
X3.3053Y-2.7467
X3.3053Y-2.8467
X3.3053Y-2.9467
X3.3055Y-1.9465
X3.3055Y-2.0465
X3.3055Y-2.2465
X3.3055Y-2.3465
X3.3055Y-2.4465
X3.3055Y-2.5465
X3.3055Y-2.6465
X3.3055Y-2.7465
X3.3055Y-2.8465
X3.3055Y-2.9465
X3.3057Y-3.2467
X3.3057Y-3.3467
X3.3057Y-3.4467
X3.3057Y-3.5467
X3.3057Y-3.6467
X3.3057Y-3.7467
X3.3057Y-3.8467
X3.3057Y-3.9467
X3.3057Y-4.1467
X3.3057Y-4.2467
X3.3059Y-3.2465
X3.3059Y-3.3465
X3.3059Y-3.4465
X3.3059Y-3.5465
X3.3059Y-3.6465
X3.3059Y-3.7465
X3.3059Y-3.8465
X3.3059Y-3.9465
X3.3059Y-4.1465
X3.3059Y-4.2465
X3.4053Y-1.9467
X3.4053Y-2.0467
X3.4053Y-2.2467
X3.4053Y-2.3467
X3.4053Y-2.4467
X3.4053Y-2.5467
X3.4053Y-2.6467
X3.4053Y-2.7467
X3.4053Y-2.8467
X3.4053Y-2.9467
X3.4055Y-1.9465
X3.4055Y-2.0465
X3.4055Y-2.2465
X3.4055Y-2.3465
X3.4055Y-2.4465
X3.4055Y-2.5465
X3.4055Y-2.6465
X3.4055Y-2.7465
X3.4055Y-2.8465
X3.4055Y-2.9465
X3.4057Y-3.2467
X3.4057Y-3.3467
X3.4057Y-3.3467
X3.4057Y-3.4467
X3.4057Y-3.5467
X3.4057Y-3.6467
X3.4057Y-3.7467
X3.4057Y-3.8467
X3.4057Y-3.9467
X3.4057Y-4.1467
X3.4057Y-4.2467
X3.4059Y-3.2465
X3.4059Y-3.3465
X3.4059Y-3.4465
X3.4059Y-3.5465
X3.4059Y-3.6465
X3.4059Y-3.7465
X3.4059Y-3.8465
X3.4059Y-3.9465
X3.4059Y-4.1465
X3.4059Y-4.2465
X3.5053Y-1.9467
X3.5053Y-2.0467
X3.5053Y-2.2467
X3.5053Y-2.3467
X3.5053Y-2.4467
X3.5053Y-2.5467
X3.5053Y-2.6467
X3.5053Y-2.7467
X3.5053Y-2.8467
X3.5053Y-2.9467
X3.5055Y-1.9465
X3.5055Y-2.0465
X3.5055Y-2.2465
X3.5055Y-2.3465
X3.5055Y-2.4465
X3.5055Y-2.5465
X3.5055Y-2.6465
X3.5055Y-2.7465
X3.5055Y-2.8465
X3.5055Y-2.9465
X3.5057Y-3.2467
X3.5057Y-3.3467
X3.5057Y-3.4467
X3.5057Y-3.5467
X3.5057Y-3.6467
X3.5057Y-3.7467
X3.5057Y-3.8467
X3.5057Y-3.9467
X3.5057Y-4.1467
X3.5057Y-4.2467
X3.5059Y-3.2465
X3.5059Y-3.3465
X3.5059Y-3.4465
X3.5059Y-3.5465
X3.5059Y-3.6465
X3.5059Y-3.7465
X3.5059Y-3.8465
X3.5059Y-3.9465
X3.5059Y-4.1465
X3.5059Y-4.2465
X3.6053Y-1.9467
X3.6053Y-2.0467
X3.6053Y-2.2467
X3.6053Y-2.3467
X3.6053Y-2.4467
X3.6053Y-2.5467
X3.6053Y-2.6467
X3.6053Y-2.7467
X3.6053Y-2.8467
X3.6053Y-2.9467
X3.6055Y-1.9465
X3.6055Y-2.0465
X3.6055Y-2.2465
X3.6055Y-2.3465
X3.6055Y-2.4465
X3.6055Y-2.5465
X3.6055Y-2.6465
X3.6055Y-2.7465
X3.6055Y-2.8465
X3.6055Y-2.9465
X3.6057Y-3.2467
X3.6057Y-3.3467
X3.6057Y-3.4467
X3.6057Y-3.5467
X3.6057Y-3.6467
X3.6057Y-3.7467
X3.6057Y-3.8467
X3.6057Y-3.9467
X3.6057Y-4.1467
X3.6057Y-4.2467
X3.6059Y-3.2465
X3.6059Y-3.3465
X3.6059Y-3.4465
X3.6059Y-3.5465
X3.6059Y-3.6465
X3.6059Y-3.7465
X3.6059Y-3.8465
X3.6059Y-3.9465
X3.6059Y-4.1465
X3.6059Y-4.2465
X3.7053Y-1.9467
X3.7053Y-2.0467
X3.7053Y-2.2467
X3.7053Y-2.3467
X3.7053Y-2.4467
X3.7053Y-2.5467
X3.7053Y-2.6467
X3.7053Y-2.7467
X3.7053Y-2.8467
X3.7053Y-2.9467
X3.7055Y-1.9465
X3.7055Y-2.0465
X3.7055Y-2.2465
X3.7055Y-2.3465
X3.7055Y-2.4465
X3.7055Y-2.5465
X3.7055Y-2.6465
X3.7055Y-2.7465
X3.7055Y-2.8465
X3.7055Y-2.9465
X3.7057Y-3.2467
X3.7057Y-3.3467
X3.7057Y-3.4467
X3.7057Y-3.5467
X3.7057Y-3.6467
X3.7057Y-3.7467
X3.7057Y-3.8467
X3.7057Y-3.9467
X3.7057Y-4.1467
X3.7057Y-4.2467
X3.7059Y-3.2465
X3.7059Y-3.3465
X3.7059Y-3.4465
X3.7059Y-3.5465
X3.7059Y-3.6465
X3.7059Y-3.7465
X3.7059Y-3.8465
X3.7059Y-3.9465
X3.7059Y-4.1465
X3.7059Y-4.2465
X3.8053Y-1.9467
X3.8053Y-2.0467
X3.8053Y-2.2467
X3.8053Y-2.3467
X3.8053Y-2.4467
X3.8053Y-2.5467
X3.8053Y-2.6467
X3.8053Y-2.7467
X3.8053Y-2.8467
X3.8053Y-2.9467
X3.8055Y-1.9465
X3.8055Y-2.0465
X3.8055Y-2.2465
X3.8055Y-2.3465
X3.8055Y-2.4465
X3.8055Y-2.5465
X3.8055Y-2.6465
X3.8055Y-2.7465
X3.8055Y-2.8465
X3.8055Y-2.9465
X3.8057Y-3.2467
X3.8057Y-3.3467
X3.8057Y-3.4467
X3.8057Y-3.5467
X3.8057Y-3.6467
X3.8057Y-3.7467
X3.8057Y-3.8467
X3.8057Y-3.9467
X3.8057Y-4.1467
X3.8057Y-4.2467
X3.8059Y-3.2465
X3.8059Y-3.3465
X3.8059Y-3.4465
X3.8059Y-3.5465
X3.8059Y-3.6465
X3.8059Y-3.7465
X3.8059Y-3.8465
X3.8059Y-3.9465
X3.8059Y-4.1465
X3.8059Y-4.2465
X3.9053Y-1.9467
X3.9053Y-2.0467
X3.9053Y-2.2467
X3.9053Y-2.3467
X3.9053Y-2.4467
X3.9053Y-2.5467
X3.9053Y-2.6467
X3.9053Y-2.7467
X3.9053Y-2.8467
X3.9053Y-2.9467
X3.9055Y-1.9465
X3.9055Y-2.0465
X3.9055Y-2.2465
X3.9055Y-2.3465
X3.9055Y-2.4465
X3.9055Y-2.5465
X3.9055Y-2.6465
X3.9055Y-2.7465
X3.9055Y-2.8465
X3.9055Y-2.9465
X3.9057Y-3.2467
X3.9057Y-3.3467
X3.9057Y-3.4467
X3.9057Y-3.5467
X3.9057Y-3.6467
X3.9057Y-3.7467
X3.9057Y-3.8467
X3.9057Y-3.9467
X3.9057Y-4.1467
X3.9057Y-4.2467
X3.9059Y-3.2465
X3.9059Y-3.3465
X3.9059Y-3.4465
X3.9059Y-3.5465
X3.9059Y-3.6465
X3.9059Y-3.7465
X3.9059Y-3.8465
X3.9059Y-3.9465
X3.9059Y-4.1465
X3.9059Y-4.2465
X4.0053Y-1.9467
X4.0053Y-2.0467
X4.0053Y-2.2467
X4.0053Y-2.3467
X4.0053Y-2.4467
X4.0053Y-2.5467
X4.0053Y-2.6467
X4.0053Y-2.7467
X4.0053Y-2.8467
X4.0053Y-2.9467
X4.0055Y-1.9465
X4.0055Y-2.0465
X4.0055Y-2.2465
X4.0055Y-2.3465
X4.0055Y-2.4465
X4.0055Y-2.5465
X4.0055Y-2.6465
X4.0055Y-2.7465
X4.0055Y-2.8465
X4.0055Y-2.9465
X4.0057Y-3.2467
X4.0057Y-3.3467
X4.0057Y-3.4467
X4.0057Y-3.5467
X4.0057Y-3.6467
X4.0057Y-3.7467
X4.0057Y-3.8467
X4.0057Y-3.9467
X4.0057Y-4.1467
X4.0057Y-4.2467
X4.0059Y-3.2465
X4.0059Y-3.3465
X4.0059Y-3.4465
X4.0059Y-3.5465
X4.0059Y-3.6465
X4.0059Y-3.7465
X4.0059Y-3.8465
X4.0059Y-3.9465
X4.0059Y-4.1465
X4.0059Y-4.2465
X4.1053Y-1.9467
X4.1053Y-2.0467
X4.1053Y-2.2467
X4.1053Y-2.3467
X4.1053Y-2.4467
X4.1053Y-2.5467
X4.1053Y-2.6467
X4.1053Y-2.7467
X4.1053Y-2.8467
X4.1053Y-2.9467
X4.1055Y-1.9465
X4.1055Y-2.0465
X4.1055Y-2.2465
X4.1055Y-2.3465
X4.1055Y-2.4465
X4.1055Y-2.5465
X4.1055Y-2.6465
X4.1055Y-2.7465
X4.1055Y-2.8465
X4.1055Y-2.9465
X4.1057Y-3.2467
X4.1057Y-3.3467
X4.1057Y-3.4467
X4.1057Y-3.5467
X4.1057Y-3.6467
X4.1057Y-3.7467
X4.1057Y-3.8467
X4.1057Y-3.9467
X4.1057Y-4.1467
X4.1057Y-4.2467
X4.1059Y-3.2465
X4.1059Y-3.3465
X4.1059Y-3.4465
X4.1059Y-3.5465
X4.1059Y-3.6465
X4.1059Y-3.7465
X4.1059Y-3.8465
X4.1059Y-3.9465
X4.1059Y-4.1465
X4.1059Y-4.2465
X4.2053Y-1.9467
X4.2053Y-2.0467
X4.2053Y-2.2467
X4.2053Y-2.3467
X4.2053Y-2.4467
X4.2053Y-2.5467
X4.2053Y-2.6467
X4.2053Y-2.7467
X4.2053Y-2.8467
X4.2053Y-2.9467
X4.2055Y-1.9465
X4.2055Y-2.0465
X4.2055Y-2.2465
X4.2055Y-2.3465
X4.2055Y-2.4465
X4.2055Y-2.5465
X4.2055Y-2.6465
X4.2055Y-2.7465
X4.2055Y-2.8465
X4.2055Y-2.9465
X4.2057Y-3.2467
X4.2057Y-3.3467
X4.2057Y-3.4467
X4.2057Y-3.5467
X4.2057Y-3.6467
X4.2057Y-3.7467
X4.2057Y-3.8467
X4.2057Y-3.9467
X4.2057Y-4.1467
X4.2057Y-4.2467
X4.2059Y-3.2465
X4.2059Y-3.3465
X4.2059Y-3.4465
X4.2059Y-3.5465
X4.2059Y-3.6465
X4.2059Y-3.7465
X4.2059Y-3.8465
X4.2059Y-3.9465
X4.2059Y-4.1465
X4.2059Y-4.2465
X4.3053Y-1.9467
X4.3053Y-2.0467
X4.3053Y-2.2467
X4.3053Y-2.3467
X4.3053Y-2.4467
X4.3053Y-2.5467
X4.3053Y-2.6467
X4.3053Y-2.7467
X4.3053Y-2.8467
X4.3053Y-2.9467
X4.3055Y-1.9465
X4.3055Y-2.0465
X4.3055Y-2.2465
X4.3055Y-2.3465
X4.3055Y-2.4465
X4.3055Y-2.5465
X4.3055Y-2.6465
X4.3055Y-2.7465
X4.3055Y-2.8465
X4.3055Y-2.9465
X4.3057Y-3.2467
X4.3057Y-3.3467
X4.3057Y-3.4467
X4.3057Y-3.5467
X4.3057Y-3.6467
X4.3057Y-3.7467
X4.3057Y-3.8467
X4.3057Y-3.9467
X4.3057Y-4.1467
X4.3057Y-4.2467
X4.3059Y-3.2465
X4.3059Y-3.3465
X4.3059Y-3.4465
X4.3059Y-3.5465
X4.3059Y-3.6465
X4.3059Y-3.7465
X4.3059Y-3.8465
X4.3059Y-3.9465
X4.3059Y-4.1465
X4.3059Y-4.2465
X4.4053Y-1.9467
X4.4053Y-2.0467
X4.4053Y-2.2467
X4.4053Y-2.3467
X4.4053Y-2.4467
X4.4053Y-2.5467
X4.4053Y-2.6467
X4.4053Y-2.7467
X4.4053Y-2.8467
X4.4053Y-2.9467
X4.4055Y-1.9465
X4.4055Y-2.0465
X4.4055Y-2.2465
X4.4055Y-2.3465
X4.4055Y-2.4465
X4.4055Y-2.5465
X4.4055Y-2.6465
X4.4055Y-2.7465
X4.4055Y-2.8465
X4.4055Y-2.9465
X4.4057Y-3.2467
X4.4057Y-3.3467
X4.4057Y-3.4467
X4.4057Y-3.5467
X4.4057Y-3.6467
X4.4057Y-3.7467
X4.4057Y-3.8467
X4.4057Y-3.9467
X4.4057Y-4.1467
X4.4057Y-4.2467
X4.4059Y-3.2465
X4.4059Y-3.3465
X4.4059Y-3.4465
X4.4059Y-3.5465
X4.4059Y-3.6465
X4.4059Y-3.7465
X4.4059Y-3.8465
X4.4059Y-3.9465
X4.4059Y-4.1465
X4.4059Y-4.2465
X4.5053Y-1.9467
X4.5053Y-2.0467
X4.5053Y-2.2467
X4.5053Y-2.3467
X4.5053Y-2.4467
X4.5053Y-2.5467
X4.5053Y-2.6467
X4.5053Y-2.7467
X4.5053Y-2.8467
X4.5053Y-2.9467
X4.5055Y-1.9465
X4.5055Y-2.0465
X4.5055Y-2.2465
X4.5055Y-2.3465
X4.5055Y-2.4465
X4.5055Y-2.5465
X4.5055Y-2.6465
X4.5055Y-2.7465
X4.5055Y-2.8465
X4.5055Y-2.9465
X4.5057Y-3.2467
X4.5057Y-3.3467
X4.5057Y-3.4467
X4.5057Y-3.5467
X4.5057Y-3.6467
X4.5057Y-3.7467
X4.5057Y-3.8467
X4.5057Y-3.9467
X4.5057Y-4.1467
X4.5057Y-4.2467
X4.5059Y-3.2465
X4.5059Y-3.3465
X4.5059Y-3.4465
X4.5059Y-3.5465
X4.5059Y-3.6465
X4.5059Y-3.7465
X4.5059Y-3.8465
X4.5059Y-3.9465
X4.5059Y-4.1465
X4.5059Y-4.2465
X4.6053Y-1.9467
X4.6053Y-2.0467
X4.6053Y-2.2467
X4.6053Y-2.3467
X4.6053Y-2.4467
X4.6053Y-2.5467
X4.6053Y-2.6467
X4.6053Y-2.7467
X4.6053Y-2.8467
X4.6053Y-2.9467
X4.6055Y-1.9465
X4.6055Y-2.0465
X4.6055Y-2.2465
X4.6055Y-2.3465
X4.6055Y-2.4465
X4.6055Y-2.5465
X4.6055Y-2.6465
X4.6055Y-2.7465
X4.6055Y-2.8465
X4.6055Y-2.9465
X4.6057Y-3.2467
X4.6057Y-3.3467
X4.6057Y-3.4467
X4.6057Y-3.5467
X4.6057Y-3.6467
X4.6057Y-3.7467
X4.6057Y-3.8467
X4.6057Y-3.9467
X4.6057Y-4.1467
X4.6057Y-4.2467
X4.6059Y-3.2465
X4.6059Y-3.3465
X4.6059Y-3.4465
X4.6059Y-3.5465
X4.6059Y-3.6465
X4.6059Y-3.7465
X4.6059Y-3.8465
X4.6059Y-3.9465
X4.6059Y-4.1465
X4.6059Y-4.2465
X4.7053Y-1.9467
X4.7053Y-2.0467
X4.7053Y-2.2467
X4.7053Y-2.3467
X4.7053Y-2.4467
X4.7053Y-2.5467
X4.7053Y-2.6467
X4.7053Y-2.7467
X4.7053Y-2.8467
X4.7053Y-2.9467
X4.7055Y-1.9465
X4.7055Y-2.0465
X4.7055Y-2.2465
X4.7055Y-2.3465
X4.7055Y-2.4465
X4.7055Y-2.5465
X4.7055Y-2.6465
X4.7055Y-2.7465
X4.7055Y-2.8465
X4.7055Y-2.9465
X4.7057Y-3.2467
X4.7057Y-3.3467
X4.7057Y-3.4467
X4.7057Y-3.5467
X4.7057Y-3.6467
X4.7057Y-3.7467
X4.7057Y-3.8467
X4.7057Y-3.9467
X4.7057Y-4.1467
X4.7057Y-4.2467
X4.7059Y-3.2465
X4.7059Y-3.3465
X4.7059Y-3.4465
X4.7059Y-3.5465
X4.7059Y-3.6465
X4.7059Y-3.7465
X4.7059Y-3.8465
X4.7059Y-3.9465
X4.7059Y-4.1465
X4.7059Y-4.2465
X4.8053Y-1.9467
X4.8053Y-2.0467
X4.8053Y-2.2467
X4.8053Y-2.3467
X4.8053Y-2.4467
X4.8053Y-2.5467
X4.8053Y-2.6467
X4.8053Y-2.7467
X4.8053Y-2.8467
X4.8053Y-2.9467
X4.8055Y-1.9465
X4.8055Y-2.0465
X4.8055Y-2.2465
X4.8055Y-2.3465
X4.8055Y-2.4465
X4.8055Y-2.5465
X4.8055Y-2.6465
X4.8055Y-2.7465
X4.8055Y-2.8465
X4.8055Y-2.9465
X4.8057Y-3.2467
X4.8057Y-3.3467
X4.8057Y-3.4467
X4.8057Y-3.5467
X4.8057Y-3.6467
X4.8057Y-3.7467
X4.8057Y-3.8467
X4.8057Y-3.9467
X4.8057Y-4.1467
X4.8057Y-4.2467
X4.8059Y-3.2465
X4.8059Y-3.3465
X4.8059Y-3.4465
X4.8059Y-3.5465
X4.8059Y-3.6465
X4.8059Y-3.7465
X4.8059Y-3.8465
X4.8059Y-3.9465
X4.8059Y-4.1465
X4.8059Y-4.2465
X4.9053Y-1.9467
X4.9053Y-2.0467
X4.9053Y-2.2467
X4.9053Y-2.3467
X4.9053Y-2.4467
X4.9053Y-2.5467
X4.9053Y-2.6467
X4.9053Y-2.7467
X4.9053Y-2.8467
X4.9053Y-2.9467
X4.9055Y-1.9465
X4.9055Y-2.0465
X4.9055Y-2.2465
X4.9055Y-2.3465
X4.9055Y-2.4465
X4.9055Y-2.5465
X4.9055Y-2.6465
X4.9055Y-2.7465
X4.9055Y-2.8465
X4.9055Y-2.9465
X4.9057Y-3.2467
X4.9057Y-3.3467
X4.9057Y-3.4467
X4.9057Y-3.5467
X4.9057Y-3.6467
X4.9057Y-3.7467
X4.9057Y-3.8467
X4.9057Y-3.9467
X4.9057Y-4.1467
X4.9057Y-4.2467
X4.9059Y-3.2465
X4.9059Y-3.3465
X4.9059Y-3.4465
X4.9059Y-3.5465
X4.9059Y-3.6465
X4.9059Y-3.7465
X4.9059Y-3.8465
X4.9059Y-3.9465
X4.9059Y-4.1465
X4.9059Y-4.2465
X5.0053Y-1.9467
X5.0053Y-2.0467
X5.0053Y-2.2467
X5.0053Y-2.3467
X5.0053Y-2.4467
X5.0053Y-2.5467
X5.0053Y-2.6467
X5.0053Y-2.7467
X5.0053Y-2.8467
X5.0053Y-2.9467
X5.0055Y-1.9465
X5.0055Y-2.0465
X5.0055Y-2.2465
X5.0055Y-2.3465
X5.0055Y-2.4465
X5.0055Y-2.5465
X5.0055Y-2.6465
X5.0055Y-2.7465
X5.0055Y-2.8465
X5.0055Y-2.9465
X5.0057Y-3.2467
X5.0057Y-3.3467
X5.0057Y-3.4467
X5.0057Y-3.5467
X5.0057Y-3.6467
X5.0057Y-3.7467
X5.0057Y-3.8467
X5.0057Y-3.9467
X5.0057Y-4.1467
X5.0057Y-4.2467
X5.0059Y-3.2465
X5.0059Y-3.3465
X5.0059Y-3.4465
X5.0059Y-3.5465
X5.0059Y-3.6465
X5.0059Y-3.7465
X5.0059Y-3.8465
X5.0059Y-3.9465
X5.0059Y-4.1465
X5.0059Y-4.2465
X5.1053Y-1.9467
X5.1053Y-2.0467
X5.1053Y-2.2467
X5.1053Y-2.3467
X5.1053Y-2.4467
X5.1053Y-2.5467
X5.1053Y-2.6467
X5.1053Y-2.7467
X5.1053Y-2.8467
X5.1053Y-2.9467
X5.1055Y-1.9465
X5.1055Y-2.0465
X5.1055Y-2.2465
X5.1055Y-2.3465
X5.1055Y-2.4465
X5.1055Y-2.5465
X5.1055Y-2.6465
X5.1055Y-2.7465
X5.1055Y-2.8465
X5.1055Y-2.9465
X5.1057Y-3.2467
X5.1057Y-3.3467
X5.1057Y-3.4467
X5.1057Y-3.5467
X5.1057Y-3.6467
X5.1057Y-3.7467
X5.1057Y-3.8467
X5.1057Y-3.9467
X5.1057Y-4.1467
X5.1057Y-4.2467
X5.1059Y-3.2465
X5.1059Y-3.3465
X5.1059Y-3.4465
X5.1059Y-3.5465
X5.1059Y-3.6465
X5.1059Y-3.7465
X5.1059Y-3.8465
X5.1059Y-3.9465
X5.1059Y-4.1465
X5.1059Y-4.2465
X5.2053Y-1.9467
X5.2053Y-2.0467
X5.2053Y-2.2467
X5.2053Y-2.3467
X5.2053Y-2.4467
X5.2053Y-2.5467
X5.2053Y-2.6467
X5.2053Y-2.7467
X5.2053Y-2.8467
X5.2053Y-2.9467
X5.2055Y-1.9465
X5.2055Y-2.0465
X5.2055Y-2.2465
X5.2055Y-2.3465
X5.2055Y-2.4465
X5.2055Y-2.5465
X5.2055Y-2.6465
X5.2055Y-2.7465
X5.2055Y-2.8465
X5.2055Y-2.9465
X5.2057Y-3.2467
X5.2057Y-3.3467
X5.2057Y-3.4467
X5.2057Y-3.5467
X5.2057Y-3.6467
X5.2057Y-3.7467
X5.2057Y-3.8467
X5.2057Y-3.9467
X5.2057Y-4.1467
X5.2057Y-4.2467
X5.2059Y-3.2465
X5.2059Y-3.3465
X5.2059Y-3.4465
X5.2059Y-3.5465
X5.2059Y-3.6465
X5.2059Y-3.7465
X5.2059Y-3.8465
X5.2059Y-3.9465
X5.2059Y-4.1465
X5.2059Y-4.2465
X5.3053Y-1.9467
X5.3053Y-2.0467
X5.3053Y-2.2467
X5.3053Y-2.3467
X5.3053Y-2.4467
X5.3053Y-2.5467
X5.3053Y-2.6467
X5.3053Y-2.7467
X5.3053Y-2.8467
X5.3053Y-2.9467
X5.3055Y-1.9465
X5.3055Y-2.0465
X5.3055Y-2.2465
X5.3055Y-2.3465
X5.3055Y-2.4465
X5.3055Y-2.5465
X5.3055Y-2.6465
X5.3055Y-2.7465
X5.3055Y-2.8465
X5.3055Y-2.9465
X5.3057Y-3.2467
X5.3057Y-3.3467
X5.3057Y-3.4467
X5.3057Y-3.5467
X5.3057Y-3.6467
X5.3057Y-3.7467
X5.3057Y-3.8467
X5.3057Y-3.9467
X5.3057Y-4.1467
X5.3057Y-4.2467
X5.3059Y-3.2465
X5.3059Y-3.3465
X5.3059Y-3.4465
X5.3059Y-3.5465
X5.3059Y-3.6465
X5.3059Y-3.7465
X5.3059Y-3.8465
X5.3059Y-3.9465
X5.3059Y-4.1465
X5.3059Y-4.2465
X5.4053Y-1.9467
X5.4053Y-2.0467
X5.4053Y-2.2467
X5.4053Y-2.3467
X5.4053Y-2.4467
X5.4053Y-2.5467
X5.4053Y-2.6467
X5.4053Y-2.7467
X5.4053Y-2.8467
X5.4053Y-2.9467
X5.4055Y-1.9465
X5.4055Y-2.0465
X5.4055Y-2.2465
X5.4055Y-2.3465
X5.4055Y-2.4465
X5.4055Y-2.5465
X5.4055Y-2.6465
X5.4055Y-2.7465
X5.4055Y-2.8465
X5.4055Y-2.9465
X5.4057Y-3.2467
X5.4057Y-3.3467
X5.4057Y-3.4467
X5.4057Y-3.5467
X5.4057Y-3.6467
X5.4057Y-3.7467
X5.4057Y-3.8467
X5.4057Y-3.9467
X5.4057Y-4.1467
X5.4057Y-4.2467
X5.4059Y-3.2465
X5.4059Y-3.3465
X5.4059Y-3.4465
X5.4059Y-3.5465
X5.4059Y-3.6465
X5.4059Y-3.7465
X5.4059Y-3.8465
X5.4059Y-3.9465
X5.4059Y-4.1465
X5.4059Y-4.2465
X5.5053Y-1.9467
X5.5053Y-2.0467
X5.5053Y-2.2467
X5.5053Y-2.3467
X5.5053Y-2.4467
X5.5053Y-2.5467
X5.5053Y-2.6467
X5.5053Y-2.7467
X5.5053Y-2.8467
X5.5053Y-2.9467
X5.5055Y-1.9465
X5.5055Y-2.0465
X5.5055Y-2.2465
X5.5055Y-2.3465
X5.5055Y-2.4465
X5.5055Y-2.5465
X5.5055Y-2.6465
X5.5055Y-2.7465
X5.5055Y-2.8465
X5.5055Y-2.9465
X5.5057Y-3.2467
X5.5057Y-3.3467
X5.5057Y-3.4467
X5.5057Y-3.5467
X5.5057Y-3.6467
X5.5057Y-3.7467
X5.5057Y-3.8467
X5.5057Y-3.9467
X5.5057Y-4.1467
X5.5057Y-4.2467
X5.5059Y-3.2465
X5.5059Y-3.3465
X5.5059Y-3.4465
X5.5059Y-3.5465
X5.5059Y-3.6465
X5.5059Y-3.7465
X5.5059Y-3.8465
X5.5059Y-3.9465
X5.5059Y-4.1465
X5.5059Y-4.2465
X5.6053Y-1.9467
X5.6053Y-2.0467
X5.6053Y-2.2467
X5.6053Y-2.3467
X5.6053Y-2.4467
X5.6053Y-2.5467
X5.6053Y-2.6467
X5.6053Y-2.7467
X5.6053Y-2.8467
X5.6053Y-2.9467
X5.6055Y-1.9465
X5.6055Y-2.0465
X5.6055Y-2.2465
X5.6055Y-2.3465
X5.6055Y-2.4465
X5.6055Y-2.5465
X5.6055Y-2.6465
X5.6055Y-2.7465
X5.6055Y-2.8465
X5.6055Y-2.9465
X5.6057Y-3.2467
X5.6057Y-3.3467
X5.6057Y-3.4467
X5.6057Y-3.5467
X5.6057Y-3.6467
X5.6057Y-3.7467
X5.6057Y-3.8467
X5.6057Y-3.9467
X5.6057Y-4.1467
X5.6057Y-4.2467
X5.6059Y-3.2465
X5.6059Y-3.3465
X5.6059Y-3.4465
X5.6059Y-3.5465
X5.6059Y-3.6465
X5.6059Y-3.7465
X5.6059Y-3.8465
X5.6059Y-3.9465
X5.6059Y-4.1465
X5.6059Y-4.2465
X5.7053Y-1.9467
X5.7053Y-2.0467
X5.7053Y-2.2467
X5.7053Y-2.3467
X5.7053Y-2.4467
X5.7053Y-2.5467
X5.7053Y-2.6467
X5.7053Y-2.7467
X5.7053Y-2.8467
X5.7053Y-2.9467
X5.7055Y-1.9465
X5.7055Y-2.0465
X5.7055Y-2.2465
X5.7055Y-2.3465
X5.7055Y-2.4465
X5.7055Y-2.5465
X5.7055Y-2.6465
X5.7055Y-2.7465
X5.7055Y-2.8465
X5.7055Y-2.9465
X5.7057Y-3.2467
X5.7057Y-3.3467
X5.7057Y-3.4467
X5.7057Y-3.5467
X5.7057Y-3.6467
X5.7057Y-3.7467
X5.7057Y-3.8467
X5.7057Y-3.9467
X5.7057Y-4.1467
X5.7057Y-4.2467
X5.7059Y-3.2465
X5.7059Y-3.3465
X5.7059Y-3.4465
X5.7059Y-3.5465
X5.7059Y-3.6465
X5.7059Y-3.7465
X5.7059Y-3.8465
X5.7059Y-3.9465
X5.7059Y-4.1465
X5.7059Y-4.2465
X5.8053Y-1.9467
X5.8053Y-2.0467
X5.8053Y-2.2467
X5.8053Y-2.3467
X5.8053Y-2.4467
X5.8053Y-2.5467
X5.8053Y-2.6467
X5.8053Y-2.7467
X5.8053Y-2.8467
X5.8053Y-2.9467
X5.8055Y-1.9465
X5.8055Y-2.0465
X5.8055Y-2.2465
X5.8055Y-2.3465
X5.8055Y-2.4465
X5.8055Y-2.5465
X5.8055Y-2.6465
X5.8055Y-2.7465
X5.8055Y-2.8465
X5.8055Y-2.9465
X5.8057Y-3.2467
X5.8057Y-3.3467
X5.8057Y-3.4467
X5.8057Y-3.5467
X5.8057Y-3.6467
X5.8057Y-3.7467
X5.8057Y-3.8467
X5.8057Y-3.9467
X5.8057Y-4.1467
X5.8057Y-4.2467
X5.8059Y-3.2465
X5.8059Y-3.3465
X5.8059Y-3.4465
X5.8059Y-3.5465
X5.8059Y-3.6465
X5.8059Y-3.7465
X5.8059Y-3.8465
X5.8059Y-3.9465
X5.8059Y-4.1465
X5.8059Y-4.2465
M30
