%TF.GenerationSoftware,KiCad,Pcbnew,8.0.1*%
%TF.CreationDate,2024-04-20T17:55:10+02:00*%
%TF.ProjectId,Arduino_PCB,41726475-696e-46f5-9f50-43422e6b6963,rev?*%
%TF.SameCoordinates,Original*%
%TF.FileFunction,Drillmap*%
%TF.FilePolarity,Positive*%
%FSLAX45Y45*%
G04 Gerber Fmt 4.5, Leading zero omitted, Abs format (unit mm)*
G04 Created by KiCad (PCBNEW 8.0.1) date 2024-04-20 17:55:10*
%MOMM*%
%LPD*%
G01*
G04 APERTURE LIST*
%ADD10C,0.050000*%
%ADD11C,0.200000*%
%ADD12C,0.320000*%
G04 APERTURE END LIST*
D10*
X16011000Y-3925000D02*
X9357000Y-3925000D01*
X16011000Y-4204000D02*
X16011000Y-3925000D01*
X16265000Y-4458000D02*
X16011000Y-4204000D01*
X16265000Y-7735000D02*
X16265000Y-4458000D01*
X16011000Y-7989000D02*
X16265000Y-7735000D01*
X16011000Y-9132000D02*
X16011000Y-7989000D01*
X15834000Y-9309000D02*
X16011000Y-9132000D01*
X9357000Y-9309000D02*
X15834000Y-9309000D01*
X9357000Y-3925000D02*
X9357000Y-9309000D01*
D11*
D12*
X10619000Y-4044000D02*
X10939000Y-4364000D01*
X10939000Y-4044000D02*
X10619000Y-4364000D01*
X10746000Y-8870000D02*
X11066000Y-9190000D01*
X11066000Y-8870000D02*
X10746000Y-9190000D01*
X15826000Y-4552000D02*
X16146000Y-4872000D01*
X16146000Y-4552000D02*
X15826000Y-4872000D01*
X15826000Y-7346000D02*
X16146000Y-7666000D01*
X16146000Y-7346000D02*
X15826000Y-7666000D01*
D11*
X9615277Y-9622984D02*
X9615277Y-9422984D01*
X9615277Y-9422984D02*
X9662896Y-9422984D01*
X9662896Y-9422984D02*
X9691467Y-9432508D01*
X9691467Y-9432508D02*
X9710515Y-9451555D01*
X9710515Y-9451555D02*
X9720039Y-9470603D01*
X9720039Y-9470603D02*
X9729563Y-9508698D01*
X9729563Y-9508698D02*
X9729563Y-9537270D01*
X9729563Y-9537270D02*
X9720039Y-9575365D01*
X9720039Y-9575365D02*
X9710515Y-9594412D01*
X9710515Y-9594412D02*
X9691467Y-9613460D01*
X9691467Y-9613460D02*
X9662896Y-9622984D01*
X9662896Y-9622984D02*
X9615277Y-9622984D01*
X9815277Y-9622984D02*
X9815277Y-9489650D01*
X9815277Y-9527746D02*
X9824801Y-9508698D01*
X9824801Y-9508698D02*
X9834324Y-9499174D01*
X9834324Y-9499174D02*
X9853372Y-9489650D01*
X9853372Y-9489650D02*
X9872420Y-9489650D01*
X9939086Y-9622984D02*
X9939086Y-9489650D01*
X9939086Y-9422984D02*
X9929563Y-9432508D01*
X9929563Y-9432508D02*
X9939086Y-9442031D01*
X9939086Y-9442031D02*
X9948610Y-9432508D01*
X9948610Y-9432508D02*
X9939086Y-9422984D01*
X9939086Y-9422984D02*
X9939086Y-9442031D01*
X10062896Y-9622984D02*
X10043848Y-9613460D01*
X10043848Y-9613460D02*
X10034324Y-9594412D01*
X10034324Y-9594412D02*
X10034324Y-9422984D01*
X10167658Y-9622984D02*
X10148610Y-9613460D01*
X10148610Y-9613460D02*
X10139086Y-9594412D01*
X10139086Y-9594412D02*
X10139086Y-9422984D01*
X10396229Y-9622984D02*
X10396229Y-9422984D01*
X10396229Y-9422984D02*
X10462896Y-9565841D01*
X10462896Y-9565841D02*
X10529563Y-9422984D01*
X10529563Y-9422984D02*
X10529563Y-9622984D01*
X10710515Y-9622984D02*
X10710515Y-9518222D01*
X10710515Y-9518222D02*
X10700991Y-9499174D01*
X10700991Y-9499174D02*
X10681944Y-9489650D01*
X10681944Y-9489650D02*
X10643848Y-9489650D01*
X10643848Y-9489650D02*
X10624801Y-9499174D01*
X10710515Y-9613460D02*
X10691467Y-9622984D01*
X10691467Y-9622984D02*
X10643848Y-9622984D01*
X10643848Y-9622984D02*
X10624801Y-9613460D01*
X10624801Y-9613460D02*
X10615277Y-9594412D01*
X10615277Y-9594412D02*
X10615277Y-9575365D01*
X10615277Y-9575365D02*
X10624801Y-9556317D01*
X10624801Y-9556317D02*
X10643848Y-9546793D01*
X10643848Y-9546793D02*
X10691467Y-9546793D01*
X10691467Y-9546793D02*
X10710515Y-9537270D01*
X10805753Y-9489650D02*
X10805753Y-9689650D01*
X10805753Y-9499174D02*
X10824801Y-9489650D01*
X10824801Y-9489650D02*
X10862896Y-9489650D01*
X10862896Y-9489650D02*
X10881944Y-9499174D01*
X10881944Y-9499174D02*
X10891467Y-9508698D01*
X10891467Y-9508698D02*
X10900991Y-9527746D01*
X10900991Y-9527746D02*
X10900991Y-9584889D01*
X10900991Y-9584889D02*
X10891467Y-9603936D01*
X10891467Y-9603936D02*
X10881944Y-9613460D01*
X10881944Y-9613460D02*
X10862896Y-9622984D01*
X10862896Y-9622984D02*
X10824801Y-9622984D01*
X10824801Y-9622984D02*
X10805753Y-9613460D01*
X10986705Y-9603936D02*
X10996229Y-9613460D01*
X10996229Y-9613460D02*
X10986705Y-9622984D01*
X10986705Y-9622984D02*
X10977182Y-9613460D01*
X10977182Y-9613460D02*
X10986705Y-9603936D01*
X10986705Y-9603936D02*
X10986705Y-9622984D01*
X10986705Y-9499174D02*
X10996229Y-9508698D01*
X10996229Y-9508698D02*
X10986705Y-9518222D01*
X10986705Y-9518222D02*
X10977182Y-9508698D01*
X10977182Y-9508698D02*
X10986705Y-9499174D01*
X10986705Y-9499174D02*
X10986705Y-9518222D01*
X9154500Y-9851500D02*
X9354500Y-10051500D01*
X9354500Y-9851500D02*
X9154500Y-10051500D01*
X9596229Y-9842984D02*
X9720039Y-9842984D01*
X9720039Y-9842984D02*
X9653372Y-9919174D01*
X9653372Y-9919174D02*
X9681944Y-9919174D01*
X9681944Y-9919174D02*
X9700991Y-9928698D01*
X9700991Y-9928698D02*
X9710515Y-9938222D01*
X9710515Y-9938222D02*
X9720039Y-9957270D01*
X9720039Y-9957270D02*
X9720039Y-10004889D01*
X9720039Y-10004889D02*
X9710515Y-10023936D01*
X9710515Y-10023936D02*
X9700991Y-10033460D01*
X9700991Y-10033460D02*
X9681944Y-10042984D01*
X9681944Y-10042984D02*
X9624801Y-10042984D01*
X9624801Y-10042984D02*
X9605753Y-10033460D01*
X9605753Y-10033460D02*
X9596229Y-10023936D01*
X9805753Y-10023936D02*
X9815277Y-10033460D01*
X9815277Y-10033460D02*
X9805753Y-10042984D01*
X9805753Y-10042984D02*
X9796229Y-10033460D01*
X9796229Y-10033460D02*
X9805753Y-10023936D01*
X9805753Y-10023936D02*
X9805753Y-10042984D01*
X9891467Y-9862031D02*
X9900991Y-9852508D01*
X9900991Y-9852508D02*
X9920039Y-9842984D01*
X9920039Y-9842984D02*
X9967658Y-9842984D01*
X9967658Y-9842984D02*
X9986705Y-9852508D01*
X9986705Y-9852508D02*
X9996229Y-9862031D01*
X9996229Y-9862031D02*
X10005753Y-9881079D01*
X10005753Y-9881079D02*
X10005753Y-9900127D01*
X10005753Y-9900127D02*
X9996229Y-9928698D01*
X9996229Y-9928698D02*
X9881944Y-10042984D01*
X9881944Y-10042984D02*
X10005753Y-10042984D01*
X10129563Y-9842984D02*
X10148610Y-9842984D01*
X10148610Y-9842984D02*
X10167658Y-9852508D01*
X10167658Y-9852508D02*
X10177182Y-9862031D01*
X10177182Y-9862031D02*
X10186705Y-9881079D01*
X10186705Y-9881079D02*
X10196229Y-9919174D01*
X10196229Y-9919174D02*
X10196229Y-9966793D01*
X10196229Y-9966793D02*
X10186705Y-10004889D01*
X10186705Y-10004889D02*
X10177182Y-10023936D01*
X10177182Y-10023936D02*
X10167658Y-10033460D01*
X10167658Y-10033460D02*
X10148610Y-10042984D01*
X10148610Y-10042984D02*
X10129563Y-10042984D01*
X10129563Y-10042984D02*
X10110515Y-10033460D01*
X10110515Y-10033460D02*
X10100991Y-10023936D01*
X10100991Y-10023936D02*
X10091467Y-10004889D01*
X10091467Y-10004889D02*
X10081944Y-9966793D01*
X10081944Y-9966793D02*
X10081944Y-9919174D01*
X10081944Y-9919174D02*
X10091467Y-9881079D01*
X10091467Y-9881079D02*
X10100991Y-9862031D01*
X10100991Y-9862031D02*
X10110515Y-9852508D01*
X10110515Y-9852508D02*
X10129563Y-9842984D01*
X10320039Y-9842984D02*
X10339086Y-9842984D01*
X10339086Y-9842984D02*
X10358134Y-9852508D01*
X10358134Y-9852508D02*
X10367658Y-9862031D01*
X10367658Y-9862031D02*
X10377182Y-9881079D01*
X10377182Y-9881079D02*
X10386705Y-9919174D01*
X10386705Y-9919174D02*
X10386705Y-9966793D01*
X10386705Y-9966793D02*
X10377182Y-10004889D01*
X10377182Y-10004889D02*
X10367658Y-10023936D01*
X10367658Y-10023936D02*
X10358134Y-10033460D01*
X10358134Y-10033460D02*
X10339086Y-10042984D01*
X10339086Y-10042984D02*
X10320039Y-10042984D01*
X10320039Y-10042984D02*
X10300991Y-10033460D01*
X10300991Y-10033460D02*
X10291467Y-10023936D01*
X10291467Y-10023936D02*
X10281944Y-10004889D01*
X10281944Y-10004889D02*
X10272420Y-9966793D01*
X10272420Y-9966793D02*
X10272420Y-9919174D01*
X10272420Y-9919174D02*
X10281944Y-9881079D01*
X10281944Y-9881079D02*
X10291467Y-9862031D01*
X10291467Y-9862031D02*
X10300991Y-9852508D01*
X10300991Y-9852508D02*
X10320039Y-9842984D01*
X10472420Y-10042984D02*
X10472420Y-9909650D01*
X10472420Y-9928698D02*
X10481944Y-9919174D01*
X10481944Y-9919174D02*
X10500991Y-9909650D01*
X10500991Y-9909650D02*
X10529563Y-9909650D01*
X10529563Y-9909650D02*
X10548610Y-9919174D01*
X10548610Y-9919174D02*
X10558134Y-9938222D01*
X10558134Y-9938222D02*
X10558134Y-10042984D01*
X10558134Y-9938222D02*
X10567658Y-9919174D01*
X10567658Y-9919174D02*
X10586705Y-9909650D01*
X10586705Y-9909650D02*
X10615277Y-9909650D01*
X10615277Y-9909650D02*
X10634325Y-9919174D01*
X10634325Y-9919174D02*
X10643848Y-9938222D01*
X10643848Y-9938222D02*
X10643848Y-10042984D01*
X10739086Y-10042984D02*
X10739086Y-9909650D01*
X10739086Y-9928698D02*
X10748610Y-9919174D01*
X10748610Y-9919174D02*
X10767658Y-9909650D01*
X10767658Y-9909650D02*
X10796229Y-9909650D01*
X10796229Y-9909650D02*
X10815277Y-9919174D01*
X10815277Y-9919174D02*
X10824801Y-9938222D01*
X10824801Y-9938222D02*
X10824801Y-10042984D01*
X10824801Y-9938222D02*
X10834325Y-9919174D01*
X10834325Y-9919174D02*
X10853372Y-9909650D01*
X10853372Y-9909650D02*
X10881944Y-9909650D01*
X10881944Y-9909650D02*
X10900991Y-9919174D01*
X10900991Y-9919174D02*
X10910515Y-9938222D01*
X10910515Y-9938222D02*
X10910515Y-10042984D01*
X11300991Y-9833460D02*
X11129563Y-10090603D01*
X11558134Y-9842984D02*
X11577182Y-9842984D01*
X11577182Y-9842984D02*
X11596229Y-9852508D01*
X11596229Y-9852508D02*
X11605753Y-9862031D01*
X11605753Y-9862031D02*
X11615277Y-9881079D01*
X11615277Y-9881079D02*
X11624801Y-9919174D01*
X11624801Y-9919174D02*
X11624801Y-9966793D01*
X11624801Y-9966793D02*
X11615277Y-10004889D01*
X11615277Y-10004889D02*
X11605753Y-10023936D01*
X11605753Y-10023936D02*
X11596229Y-10033460D01*
X11596229Y-10033460D02*
X11577182Y-10042984D01*
X11577182Y-10042984D02*
X11558134Y-10042984D01*
X11558134Y-10042984D02*
X11539086Y-10033460D01*
X11539086Y-10033460D02*
X11529563Y-10023936D01*
X11529563Y-10023936D02*
X11520039Y-10004889D01*
X11520039Y-10004889D02*
X11510515Y-9966793D01*
X11510515Y-9966793D02*
X11510515Y-9919174D01*
X11510515Y-9919174D02*
X11520039Y-9881079D01*
X11520039Y-9881079D02*
X11529563Y-9862031D01*
X11529563Y-9862031D02*
X11539086Y-9852508D01*
X11539086Y-9852508D02*
X11558134Y-9842984D01*
X11710515Y-10023936D02*
X11720039Y-10033460D01*
X11720039Y-10033460D02*
X11710515Y-10042984D01*
X11710515Y-10042984D02*
X11700991Y-10033460D01*
X11700991Y-10033460D02*
X11710515Y-10023936D01*
X11710515Y-10023936D02*
X11710515Y-10042984D01*
X11910515Y-10042984D02*
X11796229Y-10042984D01*
X11853372Y-10042984D02*
X11853372Y-9842984D01*
X11853372Y-9842984D02*
X11834325Y-9871555D01*
X11834325Y-9871555D02*
X11815277Y-9890603D01*
X11815277Y-9890603D02*
X11796229Y-9900127D01*
X11986706Y-9862031D02*
X11996229Y-9852508D01*
X11996229Y-9852508D02*
X12015277Y-9842984D01*
X12015277Y-9842984D02*
X12062896Y-9842984D01*
X12062896Y-9842984D02*
X12081944Y-9852508D01*
X12081944Y-9852508D02*
X12091467Y-9862031D01*
X12091467Y-9862031D02*
X12100991Y-9881079D01*
X12100991Y-9881079D02*
X12100991Y-9900127D01*
X12100991Y-9900127D02*
X12091467Y-9928698D01*
X12091467Y-9928698D02*
X11977182Y-10042984D01*
X11977182Y-10042984D02*
X12100991Y-10042984D01*
X12272420Y-9842984D02*
X12234325Y-9842984D01*
X12234325Y-9842984D02*
X12215277Y-9852508D01*
X12215277Y-9852508D02*
X12205753Y-9862031D01*
X12205753Y-9862031D02*
X12186706Y-9890603D01*
X12186706Y-9890603D02*
X12177182Y-9928698D01*
X12177182Y-9928698D02*
X12177182Y-10004889D01*
X12177182Y-10004889D02*
X12186706Y-10023936D01*
X12186706Y-10023936D02*
X12196229Y-10033460D01*
X12196229Y-10033460D02*
X12215277Y-10042984D01*
X12215277Y-10042984D02*
X12253372Y-10042984D01*
X12253372Y-10042984D02*
X12272420Y-10033460D01*
X12272420Y-10033460D02*
X12281944Y-10023936D01*
X12281944Y-10023936D02*
X12291467Y-10004889D01*
X12291467Y-10004889D02*
X12291467Y-9957270D01*
X12291467Y-9957270D02*
X12281944Y-9938222D01*
X12281944Y-9938222D02*
X12272420Y-9928698D01*
X12272420Y-9928698D02*
X12253372Y-9919174D01*
X12253372Y-9919174D02*
X12215277Y-9919174D01*
X12215277Y-9919174D02*
X12196229Y-9928698D01*
X12196229Y-9928698D02*
X12186706Y-9938222D01*
X12186706Y-9938222D02*
X12177182Y-9957270D01*
X12415277Y-9842984D02*
X12434325Y-9842984D01*
X12434325Y-9842984D02*
X12453372Y-9852508D01*
X12453372Y-9852508D02*
X12462896Y-9862031D01*
X12462896Y-9862031D02*
X12472420Y-9881079D01*
X12472420Y-9881079D02*
X12481944Y-9919174D01*
X12481944Y-9919174D02*
X12481944Y-9966793D01*
X12481944Y-9966793D02*
X12472420Y-10004889D01*
X12472420Y-10004889D02*
X12462896Y-10023936D01*
X12462896Y-10023936D02*
X12453372Y-10033460D01*
X12453372Y-10033460D02*
X12434325Y-10042984D01*
X12434325Y-10042984D02*
X12415277Y-10042984D01*
X12415277Y-10042984D02*
X12396229Y-10033460D01*
X12396229Y-10033460D02*
X12386706Y-10023936D01*
X12386706Y-10023936D02*
X12377182Y-10004889D01*
X12377182Y-10004889D02*
X12367658Y-9966793D01*
X12367658Y-9966793D02*
X12367658Y-9919174D01*
X12367658Y-9919174D02*
X12377182Y-9881079D01*
X12377182Y-9881079D02*
X12386706Y-9862031D01*
X12386706Y-9862031D02*
X12396229Y-9852508D01*
X12396229Y-9852508D02*
X12415277Y-9842984D01*
X12558134Y-9842984D02*
X12558134Y-9881079D01*
X12634325Y-9842984D02*
X12634325Y-9881079D01*
X12929563Y-10119174D02*
X12920039Y-10109650D01*
X12920039Y-10109650D02*
X12900991Y-10081079D01*
X12900991Y-10081079D02*
X12891468Y-10062031D01*
X12891468Y-10062031D02*
X12881944Y-10033460D01*
X12881944Y-10033460D02*
X12872420Y-9985841D01*
X12872420Y-9985841D02*
X12872420Y-9947746D01*
X12872420Y-9947746D02*
X12881944Y-9900127D01*
X12881944Y-9900127D02*
X12891468Y-9871555D01*
X12891468Y-9871555D02*
X12900991Y-9852508D01*
X12900991Y-9852508D02*
X12920039Y-9823936D01*
X12920039Y-9823936D02*
X12929563Y-9814412D01*
X13091468Y-9909650D02*
X13091468Y-10042984D01*
X13043848Y-9833460D02*
X12996229Y-9976317D01*
X12996229Y-9976317D02*
X13120039Y-9976317D01*
X13348610Y-10042984D02*
X13348610Y-9842984D01*
X13434325Y-10042984D02*
X13434325Y-9938222D01*
X13434325Y-9938222D02*
X13424801Y-9919174D01*
X13424801Y-9919174D02*
X13405753Y-9909650D01*
X13405753Y-9909650D02*
X13377182Y-9909650D01*
X13377182Y-9909650D02*
X13358134Y-9919174D01*
X13358134Y-9919174D02*
X13348610Y-9928698D01*
X13558134Y-10042984D02*
X13539087Y-10033460D01*
X13539087Y-10033460D02*
X13529563Y-10023936D01*
X13529563Y-10023936D02*
X13520039Y-10004889D01*
X13520039Y-10004889D02*
X13520039Y-9947746D01*
X13520039Y-9947746D02*
X13529563Y-9928698D01*
X13529563Y-9928698D02*
X13539087Y-9919174D01*
X13539087Y-9919174D02*
X13558134Y-9909650D01*
X13558134Y-9909650D02*
X13586706Y-9909650D01*
X13586706Y-9909650D02*
X13605753Y-9919174D01*
X13605753Y-9919174D02*
X13615277Y-9928698D01*
X13615277Y-9928698D02*
X13624801Y-9947746D01*
X13624801Y-9947746D02*
X13624801Y-10004889D01*
X13624801Y-10004889D02*
X13615277Y-10023936D01*
X13615277Y-10023936D02*
X13605753Y-10033460D01*
X13605753Y-10033460D02*
X13586706Y-10042984D01*
X13586706Y-10042984D02*
X13558134Y-10042984D01*
X13739087Y-10042984D02*
X13720039Y-10033460D01*
X13720039Y-10033460D02*
X13710515Y-10014412D01*
X13710515Y-10014412D02*
X13710515Y-9842984D01*
X13891468Y-10033460D02*
X13872420Y-10042984D01*
X13872420Y-10042984D02*
X13834325Y-10042984D01*
X13834325Y-10042984D02*
X13815277Y-10033460D01*
X13815277Y-10033460D02*
X13805753Y-10014412D01*
X13805753Y-10014412D02*
X13805753Y-9938222D01*
X13805753Y-9938222D02*
X13815277Y-9919174D01*
X13815277Y-9919174D02*
X13834325Y-9909650D01*
X13834325Y-9909650D02*
X13872420Y-9909650D01*
X13872420Y-9909650D02*
X13891468Y-9919174D01*
X13891468Y-9919174D02*
X13900991Y-9938222D01*
X13900991Y-9938222D02*
X13900991Y-9957270D01*
X13900991Y-9957270D02*
X13805753Y-9976317D01*
X13977182Y-10033460D02*
X13996230Y-10042984D01*
X13996230Y-10042984D02*
X14034325Y-10042984D01*
X14034325Y-10042984D02*
X14053372Y-10033460D01*
X14053372Y-10033460D02*
X14062896Y-10014412D01*
X14062896Y-10014412D02*
X14062896Y-10004889D01*
X14062896Y-10004889D02*
X14053372Y-9985841D01*
X14053372Y-9985841D02*
X14034325Y-9976317D01*
X14034325Y-9976317D02*
X14005753Y-9976317D01*
X14005753Y-9976317D02*
X13986706Y-9966793D01*
X13986706Y-9966793D02*
X13977182Y-9947746D01*
X13977182Y-9947746D02*
X13977182Y-9938222D01*
X13977182Y-9938222D02*
X13986706Y-9919174D01*
X13986706Y-9919174D02*
X14005753Y-9909650D01*
X14005753Y-9909650D02*
X14034325Y-9909650D01*
X14034325Y-9909650D02*
X14053372Y-9919174D01*
X14129563Y-10119174D02*
X14139087Y-10109650D01*
X14139087Y-10109650D02*
X14158134Y-10081079D01*
X14158134Y-10081079D02*
X14167658Y-10062031D01*
X14167658Y-10062031D02*
X14177182Y-10033460D01*
X14177182Y-10033460D02*
X14186706Y-9985841D01*
X14186706Y-9985841D02*
X14186706Y-9947746D01*
X14186706Y-9947746D02*
X14177182Y-9900127D01*
X14177182Y-9900127D02*
X14167658Y-9871555D01*
X14167658Y-9871555D02*
X14158134Y-9852508D01*
X14158134Y-9852508D02*
X14139087Y-9823936D01*
X14139087Y-9823936D02*
X14129563Y-9814412D01*
X14491468Y-10119174D02*
X14481944Y-10109650D01*
X14481944Y-10109650D02*
X14462896Y-10081079D01*
X14462896Y-10081079D02*
X14453372Y-10062031D01*
X14453372Y-10062031D02*
X14443849Y-10033460D01*
X14443849Y-10033460D02*
X14434325Y-9985841D01*
X14434325Y-9985841D02*
X14434325Y-9947746D01*
X14434325Y-9947746D02*
X14443849Y-9900127D01*
X14443849Y-9900127D02*
X14453372Y-9871555D01*
X14453372Y-9871555D02*
X14462896Y-9852508D01*
X14462896Y-9852508D02*
X14481944Y-9823936D01*
X14481944Y-9823936D02*
X14491468Y-9814412D01*
X14567658Y-9909650D02*
X14567658Y-10042984D01*
X14567658Y-9928698D02*
X14577182Y-9919174D01*
X14577182Y-9919174D02*
X14596230Y-9909650D01*
X14596230Y-9909650D02*
X14624801Y-9909650D01*
X14624801Y-9909650D02*
X14643849Y-9919174D01*
X14643849Y-9919174D02*
X14653372Y-9938222D01*
X14653372Y-9938222D02*
X14653372Y-10042984D01*
X14777182Y-10042984D02*
X14758134Y-10033460D01*
X14758134Y-10033460D02*
X14748611Y-10023936D01*
X14748611Y-10023936D02*
X14739087Y-10004889D01*
X14739087Y-10004889D02*
X14739087Y-9947746D01*
X14739087Y-9947746D02*
X14748611Y-9928698D01*
X14748611Y-9928698D02*
X14758134Y-9919174D01*
X14758134Y-9919174D02*
X14777182Y-9909650D01*
X14777182Y-9909650D02*
X14805753Y-9909650D01*
X14805753Y-9909650D02*
X14824801Y-9919174D01*
X14824801Y-9919174D02*
X14834325Y-9928698D01*
X14834325Y-9928698D02*
X14843849Y-9947746D01*
X14843849Y-9947746D02*
X14843849Y-10004889D01*
X14843849Y-10004889D02*
X14834325Y-10023936D01*
X14834325Y-10023936D02*
X14824801Y-10033460D01*
X14824801Y-10033460D02*
X14805753Y-10042984D01*
X14805753Y-10042984D02*
X14777182Y-10042984D01*
X14900992Y-9909650D02*
X14977182Y-9909650D01*
X14929563Y-9842984D02*
X14929563Y-10014412D01*
X14929563Y-10014412D02*
X14939087Y-10033460D01*
X14939087Y-10033460D02*
X14958134Y-10042984D01*
X14958134Y-10042984D02*
X14977182Y-10042984D01*
X15196230Y-9909650D02*
X15196230Y-10109650D01*
X15196230Y-9919174D02*
X15215277Y-9909650D01*
X15215277Y-9909650D02*
X15253373Y-9909650D01*
X15253373Y-9909650D02*
X15272420Y-9919174D01*
X15272420Y-9919174D02*
X15281944Y-9928698D01*
X15281944Y-9928698D02*
X15291468Y-9947746D01*
X15291468Y-9947746D02*
X15291468Y-10004889D01*
X15291468Y-10004889D02*
X15281944Y-10023936D01*
X15281944Y-10023936D02*
X15272420Y-10033460D01*
X15272420Y-10033460D02*
X15253373Y-10042984D01*
X15253373Y-10042984D02*
X15215277Y-10042984D01*
X15215277Y-10042984D02*
X15196230Y-10033460D01*
X15405753Y-10042984D02*
X15386706Y-10033460D01*
X15386706Y-10033460D02*
X15377182Y-10014412D01*
X15377182Y-10014412D02*
X15377182Y-9842984D01*
X15567658Y-10042984D02*
X15567658Y-9938222D01*
X15567658Y-9938222D02*
X15558134Y-9919174D01*
X15558134Y-9919174D02*
X15539087Y-9909650D01*
X15539087Y-9909650D02*
X15500992Y-9909650D01*
X15500992Y-9909650D02*
X15481944Y-9919174D01*
X15567658Y-10033460D02*
X15548611Y-10042984D01*
X15548611Y-10042984D02*
X15500992Y-10042984D01*
X15500992Y-10042984D02*
X15481944Y-10033460D01*
X15481944Y-10033460D02*
X15472420Y-10014412D01*
X15472420Y-10014412D02*
X15472420Y-9995365D01*
X15472420Y-9995365D02*
X15481944Y-9976317D01*
X15481944Y-9976317D02*
X15500992Y-9966793D01*
X15500992Y-9966793D02*
X15548611Y-9966793D01*
X15548611Y-9966793D02*
X15567658Y-9957270D01*
X15634325Y-9909650D02*
X15710515Y-9909650D01*
X15662896Y-9842984D02*
X15662896Y-10014412D01*
X15662896Y-10014412D02*
X15672420Y-10033460D01*
X15672420Y-10033460D02*
X15691468Y-10042984D01*
X15691468Y-10042984D02*
X15710515Y-10042984D01*
X15853373Y-10033460D02*
X15834325Y-10042984D01*
X15834325Y-10042984D02*
X15796230Y-10042984D01*
X15796230Y-10042984D02*
X15777182Y-10033460D01*
X15777182Y-10033460D02*
X15767658Y-10014412D01*
X15767658Y-10014412D02*
X15767658Y-9938222D01*
X15767658Y-9938222D02*
X15777182Y-9919174D01*
X15777182Y-9919174D02*
X15796230Y-9909650D01*
X15796230Y-9909650D02*
X15834325Y-9909650D01*
X15834325Y-9909650D02*
X15853373Y-9919174D01*
X15853373Y-9919174D02*
X15862896Y-9938222D01*
X15862896Y-9938222D02*
X15862896Y-9957270D01*
X15862896Y-9957270D02*
X15767658Y-9976317D01*
X16034325Y-10042984D02*
X16034325Y-9842984D01*
X16034325Y-10033460D02*
X16015277Y-10042984D01*
X16015277Y-10042984D02*
X15977182Y-10042984D01*
X15977182Y-10042984D02*
X15958134Y-10033460D01*
X15958134Y-10033460D02*
X15948611Y-10023936D01*
X15948611Y-10023936D02*
X15939087Y-10004889D01*
X15939087Y-10004889D02*
X15939087Y-9947746D01*
X15939087Y-9947746D02*
X15948611Y-9928698D01*
X15948611Y-9928698D02*
X15958134Y-9919174D01*
X15958134Y-9919174D02*
X15977182Y-9909650D01*
X15977182Y-9909650D02*
X16015277Y-9909650D01*
X16015277Y-9909650D02*
X16034325Y-9919174D01*
X16110515Y-10119174D02*
X16120039Y-10109650D01*
X16120039Y-10109650D02*
X16139087Y-10081079D01*
X16139087Y-10081079D02*
X16148611Y-10062031D01*
X16148611Y-10062031D02*
X16158134Y-10033460D01*
X16158134Y-10033460D02*
X16167658Y-9985841D01*
X16167658Y-9985841D02*
X16167658Y-9947746D01*
X16167658Y-9947746D02*
X16158134Y-9900127D01*
X16158134Y-9900127D02*
X16148611Y-9871555D01*
X16148611Y-9871555D02*
X16139087Y-9852508D01*
X16139087Y-9852508D02*
X16120039Y-9823936D01*
X16120039Y-9823936D02*
X16110515Y-9814412D01*
M02*
