%TF.GenerationSoftware,KiCad,Pcbnew,8.0.1*%
%TF.CreationDate,2024-04-20T17:55:10+02:00*%
%TF.ProjectId,Arduino_PCB,41726475-696e-46f5-9f50-43422e6b6963,rev?*%
%TF.SameCoordinates,Original*%
%TF.FileFunction,Drillmap*%
%TF.FilePolarity,Positive*%
%FSLAX45Y45*%
G04 Gerber Fmt 4.5, Leading zero omitted, Abs format (unit mm)*
G04 Created by KiCad (PCBNEW 8.0.1) date 2024-04-20 17:55:10*
%MOMM*%
%LPD*%
G01*
G04 APERTURE LIST*
%ADD10C,0.050000*%
%ADD11C,0.200000*%
%ADD12C,0.100000*%
G04 APERTURE END LIST*
D10*
X16011000Y-3925000D02*
X9357000Y-3925000D01*
X16011000Y-4204000D02*
X16011000Y-3925000D01*
X16265000Y-4458000D02*
X16011000Y-4204000D01*
X16265000Y-7735000D02*
X16265000Y-4458000D01*
X16011000Y-7989000D02*
X16265000Y-7735000D01*
X16011000Y-9132000D02*
X16011000Y-7989000D01*
X15834000Y-9309000D02*
X16011000Y-9132000D01*
X9357000Y-9309000D02*
X15834000Y-9309000D01*
X9357000Y-3925000D02*
X9357000Y-9309000D01*
D11*
D12*
X9586000Y-4154000D02*
X9686000Y-4254000D01*
X9686000Y-4154000D02*
X9586000Y-4254000D01*
X9586000Y-4154000D02*
X9686000Y-4254000D01*
X9686000Y-4154000D02*
X9586000Y-4254000D01*
X9586000Y-4408000D02*
X9686000Y-4508000D01*
X9686000Y-4408000D02*
X9586000Y-4508000D01*
X9586000Y-4408000D02*
X9686000Y-4508000D01*
X9686000Y-4408000D02*
X9586000Y-4508000D01*
X9586000Y-4662000D02*
X9686000Y-4762000D01*
X9686000Y-4662000D02*
X9586000Y-4762000D01*
X9586000Y-4662000D02*
X9686000Y-4762000D01*
X9686000Y-4662000D02*
X9586000Y-4762000D01*
X9586000Y-4662000D02*
X9686000Y-4762000D01*
X9686000Y-4662000D02*
X9586000Y-4762000D01*
X9586000Y-4916000D02*
X9686000Y-5016000D01*
X9686000Y-4916000D02*
X9586000Y-5016000D01*
X9586000Y-4916000D02*
X9686000Y-5016000D01*
X9686000Y-4916000D02*
X9586000Y-5016000D01*
X9586000Y-4916000D02*
X9686000Y-5016000D01*
X9686000Y-4916000D02*
X9586000Y-5016000D01*
X9586000Y-5170000D02*
X9686000Y-5270000D01*
X9686000Y-5170000D02*
X9586000Y-5270000D01*
X9586000Y-5170000D02*
X9686000Y-5270000D01*
X9686000Y-5170000D02*
X9586000Y-5270000D01*
X9586000Y-5170500D02*
X9686000Y-5270500D01*
X9686000Y-5170500D02*
X9586000Y-5270500D01*
X9586000Y-5424000D02*
X9686000Y-5524000D01*
X9686000Y-5424000D02*
X9586000Y-5524000D01*
X9586000Y-5424000D02*
X9686000Y-5524000D01*
X9686000Y-5424000D02*
X9586000Y-5524000D01*
X9586000Y-5424000D02*
X9686000Y-5524000D01*
X9686000Y-5424000D02*
X9586000Y-5524000D01*
X9586000Y-5678000D02*
X9686000Y-5778000D01*
X9686000Y-5678000D02*
X9586000Y-5778000D01*
X9586000Y-5678000D02*
X9686000Y-5778000D01*
X9686000Y-5678000D02*
X9586000Y-5778000D01*
X9586000Y-5678000D02*
X9686000Y-5778000D01*
X9686000Y-5678000D02*
X9586000Y-5778000D01*
X9586000Y-5932000D02*
X9686000Y-6032000D01*
X9686000Y-5932000D02*
X9586000Y-6032000D01*
X9586000Y-5932000D02*
X9686000Y-6032000D01*
X9686000Y-5932000D02*
X9586000Y-6032000D01*
X9586000Y-5932500D02*
X9686000Y-6032500D01*
X9686000Y-5932500D02*
X9586000Y-6032500D01*
X9586000Y-6186000D02*
X9686000Y-6286000D01*
X9686000Y-6186000D02*
X9586000Y-6286000D01*
X9586000Y-6186000D02*
X9686000Y-6286000D01*
X9686000Y-6186000D02*
X9586000Y-6286000D01*
X9586000Y-6186000D02*
X9686000Y-6286000D01*
X9686000Y-6186000D02*
X9586000Y-6286000D01*
X9586000Y-6440000D02*
X9686000Y-6540000D01*
X9686000Y-6440000D02*
X9586000Y-6540000D01*
X9586000Y-6440000D02*
X9686000Y-6540000D01*
X9686000Y-6440000D02*
X9586000Y-6540000D01*
X9586000Y-6440000D02*
X9686000Y-6540000D01*
X9686000Y-6440000D02*
X9586000Y-6540000D01*
X9586000Y-6694000D02*
X9686000Y-6794000D01*
X9686000Y-6694000D02*
X9586000Y-6794000D01*
X9586000Y-6694000D02*
X9686000Y-6794000D01*
X9686000Y-6694000D02*
X9586000Y-6794000D01*
X9586000Y-6694500D02*
X9686000Y-6794500D01*
X9686000Y-6694500D02*
X9586000Y-6794500D01*
X9586000Y-6948000D02*
X9686000Y-7048000D01*
X9686000Y-6948000D02*
X9586000Y-7048000D01*
X9586000Y-6948000D02*
X9686000Y-7048000D01*
X9686000Y-6948000D02*
X9586000Y-7048000D01*
X9586000Y-6948000D02*
X9686000Y-7048000D01*
X9686000Y-6948000D02*
X9586000Y-7048000D01*
X9586000Y-7202000D02*
X9686000Y-7302000D01*
X9686000Y-7202000D02*
X9586000Y-7302000D01*
X9586000Y-7202000D02*
X9686000Y-7302000D01*
X9686000Y-7202000D02*
X9586000Y-7302000D01*
X9586000Y-7202000D02*
X9686000Y-7302000D01*
X9686000Y-7202000D02*
X9586000Y-7302000D01*
X9586000Y-7456000D02*
X9686000Y-7556000D01*
X9686000Y-7456000D02*
X9586000Y-7556000D01*
X9586000Y-7456000D02*
X9686000Y-7556000D01*
X9686000Y-7456000D02*
X9586000Y-7556000D01*
X9586000Y-7456500D02*
X9686000Y-7556500D01*
X9686000Y-7456500D02*
X9586000Y-7556500D01*
X9586000Y-7710000D02*
X9686000Y-7810000D01*
X9686000Y-7710000D02*
X9586000Y-7810000D01*
X9586000Y-7710000D02*
X9686000Y-7810000D01*
X9686000Y-7710000D02*
X9586000Y-7810000D01*
X9586000Y-7710000D02*
X9686000Y-7810000D01*
X9686000Y-7710000D02*
X9586000Y-7810000D01*
X9586000Y-7964000D02*
X9686000Y-8064000D01*
X9686000Y-7964000D02*
X9586000Y-8064000D01*
X9586000Y-7964000D02*
X9686000Y-8064000D01*
X9686000Y-7964000D02*
X9586000Y-8064000D01*
X9586000Y-7964000D02*
X9686000Y-8064000D01*
X9686000Y-7964000D02*
X9586000Y-8064000D01*
X9586000Y-8218000D02*
X9686000Y-8318000D01*
X9686000Y-8218000D02*
X9586000Y-8318000D01*
X9586000Y-8218000D02*
X9686000Y-8318000D01*
X9686000Y-8218000D02*
X9586000Y-8318000D01*
X9586000Y-8218500D02*
X9686000Y-8318500D01*
X9686000Y-8218500D02*
X9586000Y-8318500D01*
X9586000Y-8472000D02*
X9686000Y-8572000D01*
X9686000Y-8472000D02*
X9586000Y-8572000D01*
X9586000Y-8472000D02*
X9686000Y-8572000D01*
X9686000Y-8472000D02*
X9586000Y-8572000D01*
X9586000Y-8472000D02*
X9686000Y-8572000D01*
X9686000Y-8472000D02*
X9586000Y-8572000D01*
X9586000Y-8726000D02*
X9686000Y-8826000D01*
X9686000Y-8726000D02*
X9586000Y-8826000D01*
X9586000Y-8726000D02*
X9686000Y-8826000D01*
X9686000Y-8726000D02*
X9586000Y-8826000D01*
X9586000Y-8980000D02*
X9686000Y-9080000D01*
X9686000Y-8980000D02*
X9586000Y-9080000D01*
X9586000Y-8980000D02*
X9686000Y-9080000D01*
X9686000Y-8980000D02*
X9586000Y-9080000D01*
X9840000Y-4154000D02*
X9940000Y-4254000D01*
X9940000Y-4154000D02*
X9840000Y-4254000D01*
X9840000Y-4154000D02*
X9940000Y-4254000D01*
X9940000Y-4154000D02*
X9840000Y-4254000D01*
X9840000Y-4408000D02*
X9940000Y-4508000D01*
X9940000Y-4408000D02*
X9840000Y-4508000D01*
X9840000Y-4408000D02*
X9940000Y-4508000D01*
X9940000Y-4408000D02*
X9840000Y-4508000D01*
X9840000Y-4662000D02*
X9940000Y-4762000D01*
X9940000Y-4662000D02*
X9840000Y-4762000D01*
X9840000Y-4662000D02*
X9940000Y-4762000D01*
X9940000Y-4662000D02*
X9840000Y-4762000D01*
X9840000Y-4662000D02*
X9940000Y-4762000D01*
X9940000Y-4662000D02*
X9840000Y-4762000D01*
X9840000Y-4916000D02*
X9940000Y-5016000D01*
X9940000Y-4916000D02*
X9840000Y-5016000D01*
X9840000Y-4916000D02*
X9940000Y-5016000D01*
X9940000Y-4916000D02*
X9840000Y-5016000D01*
X9840000Y-4916000D02*
X9940000Y-5016000D01*
X9940000Y-4916000D02*
X9840000Y-5016000D01*
X9840000Y-5170000D02*
X9940000Y-5270000D01*
X9940000Y-5170000D02*
X9840000Y-5270000D01*
X9840000Y-5170000D02*
X9940000Y-5270000D01*
X9940000Y-5170000D02*
X9840000Y-5270000D01*
X9840000Y-5170500D02*
X9940000Y-5270500D01*
X9940000Y-5170500D02*
X9840000Y-5270500D01*
X9840000Y-5424000D02*
X9940000Y-5524000D01*
X9940000Y-5424000D02*
X9840000Y-5524000D01*
X9840000Y-5424000D02*
X9940000Y-5524000D01*
X9940000Y-5424000D02*
X9840000Y-5524000D01*
X9840000Y-5424000D02*
X9940000Y-5524000D01*
X9940000Y-5424000D02*
X9840000Y-5524000D01*
X9840000Y-5678000D02*
X9940000Y-5778000D01*
X9940000Y-5678000D02*
X9840000Y-5778000D01*
X9840000Y-5678000D02*
X9940000Y-5778000D01*
X9940000Y-5678000D02*
X9840000Y-5778000D01*
X9840000Y-5678000D02*
X9940000Y-5778000D01*
X9940000Y-5678000D02*
X9840000Y-5778000D01*
X9840000Y-5932000D02*
X9940000Y-6032000D01*
X9940000Y-5932000D02*
X9840000Y-6032000D01*
X9840000Y-5932000D02*
X9940000Y-6032000D01*
X9940000Y-5932000D02*
X9840000Y-6032000D01*
X9840000Y-5932500D02*
X9940000Y-6032500D01*
X9940000Y-5932500D02*
X9840000Y-6032500D01*
X9840000Y-6186000D02*
X9940000Y-6286000D01*
X9940000Y-6186000D02*
X9840000Y-6286000D01*
X9840000Y-6186000D02*
X9940000Y-6286000D01*
X9940000Y-6186000D02*
X9840000Y-6286000D01*
X9840000Y-6186000D02*
X9940000Y-6286000D01*
X9940000Y-6186000D02*
X9840000Y-6286000D01*
X9840000Y-6440000D02*
X9940000Y-6540000D01*
X9940000Y-6440000D02*
X9840000Y-6540000D01*
X9840000Y-6440000D02*
X9940000Y-6540000D01*
X9940000Y-6440000D02*
X9840000Y-6540000D01*
X9840000Y-6440000D02*
X9940000Y-6540000D01*
X9940000Y-6440000D02*
X9840000Y-6540000D01*
X9840000Y-6694000D02*
X9940000Y-6794000D01*
X9940000Y-6694000D02*
X9840000Y-6794000D01*
X9840000Y-6694000D02*
X9940000Y-6794000D01*
X9940000Y-6694000D02*
X9840000Y-6794000D01*
X9840000Y-6694500D02*
X9940000Y-6794500D01*
X9940000Y-6694500D02*
X9840000Y-6794500D01*
X9840000Y-6948000D02*
X9940000Y-7048000D01*
X9940000Y-6948000D02*
X9840000Y-7048000D01*
X9840000Y-6948000D02*
X9940000Y-7048000D01*
X9940000Y-6948000D02*
X9840000Y-7048000D01*
X9840000Y-6948000D02*
X9940000Y-7048000D01*
X9940000Y-6948000D02*
X9840000Y-7048000D01*
X9840000Y-7202000D02*
X9940000Y-7302000D01*
X9940000Y-7202000D02*
X9840000Y-7302000D01*
X9840000Y-7202000D02*
X9940000Y-7302000D01*
X9940000Y-7202000D02*
X9840000Y-7302000D01*
X9840000Y-7202000D02*
X9940000Y-7302000D01*
X9940000Y-7202000D02*
X9840000Y-7302000D01*
X9840000Y-7456000D02*
X9940000Y-7556000D01*
X9940000Y-7456000D02*
X9840000Y-7556000D01*
X9840000Y-7456000D02*
X9940000Y-7556000D01*
X9940000Y-7456000D02*
X9840000Y-7556000D01*
X9840000Y-7456500D02*
X9940000Y-7556500D01*
X9940000Y-7456500D02*
X9840000Y-7556500D01*
X9840000Y-7710000D02*
X9940000Y-7810000D01*
X9940000Y-7710000D02*
X9840000Y-7810000D01*
X9840000Y-7710000D02*
X9940000Y-7810000D01*
X9940000Y-7710000D02*
X9840000Y-7810000D01*
X9840000Y-7710000D02*
X9940000Y-7810000D01*
X9940000Y-7710000D02*
X9840000Y-7810000D01*
X9840000Y-7964000D02*
X9940000Y-8064000D01*
X9940000Y-7964000D02*
X9840000Y-8064000D01*
X9840000Y-7964000D02*
X9940000Y-8064000D01*
X9940000Y-7964000D02*
X9840000Y-8064000D01*
X9840000Y-7964000D02*
X9940000Y-8064000D01*
X9940000Y-7964000D02*
X9840000Y-8064000D01*
X9840000Y-8218000D02*
X9940000Y-8318000D01*
X9940000Y-8218000D02*
X9840000Y-8318000D01*
X9840000Y-8218000D02*
X9940000Y-8318000D01*
X9940000Y-8218000D02*
X9840000Y-8318000D01*
X9840000Y-8218500D02*
X9940000Y-8318500D01*
X9940000Y-8218500D02*
X9840000Y-8318500D01*
X9840000Y-8472000D02*
X9940000Y-8572000D01*
X9940000Y-8472000D02*
X9840000Y-8572000D01*
X9840000Y-8472000D02*
X9940000Y-8572000D01*
X9940000Y-8472000D02*
X9840000Y-8572000D01*
X9840000Y-8472000D02*
X9940000Y-8572000D01*
X9940000Y-8472000D02*
X9840000Y-8572000D01*
X9840000Y-8726000D02*
X9940000Y-8826000D01*
X9940000Y-8726000D02*
X9840000Y-8826000D01*
X9840000Y-8726000D02*
X9940000Y-8826000D01*
X9940000Y-8726000D02*
X9840000Y-8826000D01*
X9840000Y-8980000D02*
X9940000Y-9080000D01*
X9940000Y-8980000D02*
X9840000Y-9080000D01*
X9840000Y-8980000D02*
X9940000Y-9080000D01*
X9940000Y-8980000D02*
X9840000Y-9080000D01*
X10094000Y-4154000D02*
X10194000Y-4254000D01*
X10194000Y-4154000D02*
X10094000Y-4254000D01*
X10094000Y-4154000D02*
X10194000Y-4254000D01*
X10194000Y-4154000D02*
X10094000Y-4254000D01*
X10094000Y-4408000D02*
X10194000Y-4508000D01*
X10194000Y-4408000D02*
X10094000Y-4508000D01*
X10094000Y-4408000D02*
X10194000Y-4508000D01*
X10194000Y-4408000D02*
X10094000Y-4508000D01*
X10094000Y-4662000D02*
X10194000Y-4762000D01*
X10194000Y-4662000D02*
X10094000Y-4762000D01*
X10094000Y-4662000D02*
X10194000Y-4762000D01*
X10194000Y-4662000D02*
X10094000Y-4762000D01*
X10094000Y-4662000D02*
X10194000Y-4762000D01*
X10194000Y-4662000D02*
X10094000Y-4762000D01*
X10094000Y-4916000D02*
X10194000Y-5016000D01*
X10194000Y-4916000D02*
X10094000Y-5016000D01*
X10094000Y-4916000D02*
X10194000Y-5016000D01*
X10194000Y-4916000D02*
X10094000Y-5016000D01*
X10094000Y-4916000D02*
X10194000Y-5016000D01*
X10194000Y-4916000D02*
X10094000Y-5016000D01*
X10094000Y-5170000D02*
X10194000Y-5270000D01*
X10194000Y-5170000D02*
X10094000Y-5270000D01*
X10094000Y-5170000D02*
X10194000Y-5270000D01*
X10194000Y-5170000D02*
X10094000Y-5270000D01*
X10094000Y-5170500D02*
X10194000Y-5270500D01*
X10194000Y-5170500D02*
X10094000Y-5270500D01*
X10094000Y-5424000D02*
X10194000Y-5524000D01*
X10194000Y-5424000D02*
X10094000Y-5524000D01*
X10094000Y-5424000D02*
X10194000Y-5524000D01*
X10194000Y-5424000D02*
X10094000Y-5524000D01*
X10094000Y-5424000D02*
X10194000Y-5524000D01*
X10194000Y-5424000D02*
X10094000Y-5524000D01*
X10094000Y-5678000D02*
X10194000Y-5778000D01*
X10194000Y-5678000D02*
X10094000Y-5778000D01*
X10094000Y-5678000D02*
X10194000Y-5778000D01*
X10194000Y-5678000D02*
X10094000Y-5778000D01*
X10094000Y-5678000D02*
X10194000Y-5778000D01*
X10194000Y-5678000D02*
X10094000Y-5778000D01*
X10094000Y-5932000D02*
X10194000Y-6032000D01*
X10194000Y-5932000D02*
X10094000Y-6032000D01*
X10094000Y-5932000D02*
X10194000Y-6032000D01*
X10194000Y-5932000D02*
X10094000Y-6032000D01*
X10094000Y-5932500D02*
X10194000Y-6032500D01*
X10194000Y-5932500D02*
X10094000Y-6032500D01*
X10094000Y-6186000D02*
X10194000Y-6286000D01*
X10194000Y-6186000D02*
X10094000Y-6286000D01*
X10094000Y-6186000D02*
X10194000Y-6286000D01*
X10194000Y-6186000D02*
X10094000Y-6286000D01*
X10094000Y-6186000D02*
X10194000Y-6286000D01*
X10194000Y-6186000D02*
X10094000Y-6286000D01*
X10094000Y-6440000D02*
X10194000Y-6540000D01*
X10194000Y-6440000D02*
X10094000Y-6540000D01*
X10094000Y-6440000D02*
X10194000Y-6540000D01*
X10194000Y-6440000D02*
X10094000Y-6540000D01*
X10094000Y-6440000D02*
X10194000Y-6540000D01*
X10194000Y-6440000D02*
X10094000Y-6540000D01*
X10094000Y-6694000D02*
X10194000Y-6794000D01*
X10194000Y-6694000D02*
X10094000Y-6794000D01*
X10094000Y-6694000D02*
X10194000Y-6794000D01*
X10194000Y-6694000D02*
X10094000Y-6794000D01*
X10094000Y-6694500D02*
X10194000Y-6794500D01*
X10194000Y-6694500D02*
X10094000Y-6794500D01*
X10094000Y-6948000D02*
X10194000Y-7048000D01*
X10194000Y-6948000D02*
X10094000Y-7048000D01*
X10094000Y-6948000D02*
X10194000Y-7048000D01*
X10194000Y-6948000D02*
X10094000Y-7048000D01*
X10094000Y-6948000D02*
X10194000Y-7048000D01*
X10194000Y-6948000D02*
X10094000Y-7048000D01*
X10094000Y-7202000D02*
X10194000Y-7302000D01*
X10194000Y-7202000D02*
X10094000Y-7302000D01*
X10094000Y-7202000D02*
X10194000Y-7302000D01*
X10194000Y-7202000D02*
X10094000Y-7302000D01*
X10094000Y-7202000D02*
X10194000Y-7302000D01*
X10194000Y-7202000D02*
X10094000Y-7302000D01*
X10094000Y-7456000D02*
X10194000Y-7556000D01*
X10194000Y-7456000D02*
X10094000Y-7556000D01*
X10094000Y-7456000D02*
X10194000Y-7556000D01*
X10194000Y-7456000D02*
X10094000Y-7556000D01*
X10094000Y-7456500D02*
X10194000Y-7556500D01*
X10194000Y-7456500D02*
X10094000Y-7556500D01*
X10094000Y-7710000D02*
X10194000Y-7810000D01*
X10194000Y-7710000D02*
X10094000Y-7810000D01*
X10094000Y-7710000D02*
X10194000Y-7810000D01*
X10194000Y-7710000D02*
X10094000Y-7810000D01*
X10094000Y-7710000D02*
X10194000Y-7810000D01*
X10194000Y-7710000D02*
X10094000Y-7810000D01*
X10094000Y-7964000D02*
X10194000Y-8064000D01*
X10194000Y-7964000D02*
X10094000Y-8064000D01*
X10094000Y-7964000D02*
X10194000Y-8064000D01*
X10194000Y-7964000D02*
X10094000Y-8064000D01*
X10094000Y-7964000D02*
X10194000Y-8064000D01*
X10194000Y-7964000D02*
X10094000Y-8064000D01*
X10094000Y-8218000D02*
X10194000Y-8318000D01*
X10194000Y-8218000D02*
X10094000Y-8318000D01*
X10094000Y-8218000D02*
X10194000Y-8318000D01*
X10194000Y-8218000D02*
X10094000Y-8318000D01*
X10094000Y-8218500D02*
X10194000Y-8318500D01*
X10194000Y-8218500D02*
X10094000Y-8318500D01*
X10094000Y-8472000D02*
X10194000Y-8572000D01*
X10194000Y-8472000D02*
X10094000Y-8572000D01*
X10094000Y-8472000D02*
X10194000Y-8572000D01*
X10194000Y-8472000D02*
X10094000Y-8572000D01*
X10094000Y-8472000D02*
X10194000Y-8572000D01*
X10194000Y-8472000D02*
X10094000Y-8572000D01*
X10094000Y-8726000D02*
X10194000Y-8826000D01*
X10194000Y-8726000D02*
X10094000Y-8826000D01*
X10094000Y-8726000D02*
X10194000Y-8826000D01*
X10194000Y-8726000D02*
X10094000Y-8826000D01*
X10094000Y-8980000D02*
X10194000Y-9080000D01*
X10194000Y-8980000D02*
X10094000Y-9080000D01*
X10094000Y-8980000D02*
X10194000Y-9080000D01*
X10194000Y-8980000D02*
X10094000Y-9080000D01*
X10348000Y-4154000D02*
X10448000Y-4254000D01*
X10448000Y-4154000D02*
X10348000Y-4254000D01*
X10348000Y-4154000D02*
X10448000Y-4254000D01*
X10448000Y-4154000D02*
X10348000Y-4254000D01*
X10348000Y-4408000D02*
X10448000Y-4508000D01*
X10448000Y-4408000D02*
X10348000Y-4508000D01*
X10348000Y-4408000D02*
X10448000Y-4508000D01*
X10448000Y-4408000D02*
X10348000Y-4508000D01*
X10348000Y-4662000D02*
X10448000Y-4762000D01*
X10448000Y-4662000D02*
X10348000Y-4762000D01*
X10348000Y-4662000D02*
X10448000Y-4762000D01*
X10448000Y-4662000D02*
X10348000Y-4762000D01*
X10348000Y-4662000D02*
X10448000Y-4762000D01*
X10448000Y-4662000D02*
X10348000Y-4762000D01*
X10348000Y-4916000D02*
X10448000Y-5016000D01*
X10448000Y-4916000D02*
X10348000Y-5016000D01*
X10348000Y-4916000D02*
X10448000Y-5016000D01*
X10448000Y-4916000D02*
X10348000Y-5016000D01*
X10348000Y-4916000D02*
X10448000Y-5016000D01*
X10448000Y-4916000D02*
X10348000Y-5016000D01*
X10348000Y-5170000D02*
X10448000Y-5270000D01*
X10448000Y-5170000D02*
X10348000Y-5270000D01*
X10348000Y-5170000D02*
X10448000Y-5270000D01*
X10448000Y-5170000D02*
X10348000Y-5270000D01*
X10348000Y-5170500D02*
X10448000Y-5270500D01*
X10448000Y-5170500D02*
X10348000Y-5270500D01*
X10348000Y-5424000D02*
X10448000Y-5524000D01*
X10448000Y-5424000D02*
X10348000Y-5524000D01*
X10348000Y-5424000D02*
X10448000Y-5524000D01*
X10448000Y-5424000D02*
X10348000Y-5524000D01*
X10348000Y-5424000D02*
X10448000Y-5524000D01*
X10448000Y-5424000D02*
X10348000Y-5524000D01*
X10348000Y-5678000D02*
X10448000Y-5778000D01*
X10448000Y-5678000D02*
X10348000Y-5778000D01*
X10348000Y-5678000D02*
X10448000Y-5778000D01*
X10448000Y-5678000D02*
X10348000Y-5778000D01*
X10348000Y-5678000D02*
X10448000Y-5778000D01*
X10448000Y-5678000D02*
X10348000Y-5778000D01*
X10348000Y-5932000D02*
X10448000Y-6032000D01*
X10448000Y-5932000D02*
X10348000Y-6032000D01*
X10348000Y-5932000D02*
X10448000Y-6032000D01*
X10448000Y-5932000D02*
X10348000Y-6032000D01*
X10348000Y-5932500D02*
X10448000Y-6032500D01*
X10448000Y-5932500D02*
X10348000Y-6032500D01*
X10348000Y-6186000D02*
X10448000Y-6286000D01*
X10448000Y-6186000D02*
X10348000Y-6286000D01*
X10348000Y-6186000D02*
X10448000Y-6286000D01*
X10448000Y-6186000D02*
X10348000Y-6286000D01*
X10348000Y-6186000D02*
X10448000Y-6286000D01*
X10448000Y-6186000D02*
X10348000Y-6286000D01*
X10348000Y-6440000D02*
X10448000Y-6540000D01*
X10448000Y-6440000D02*
X10348000Y-6540000D01*
X10348000Y-6440000D02*
X10448000Y-6540000D01*
X10448000Y-6440000D02*
X10348000Y-6540000D01*
X10348000Y-6440000D02*
X10448000Y-6540000D01*
X10448000Y-6440000D02*
X10348000Y-6540000D01*
X10348000Y-6694000D02*
X10448000Y-6794000D01*
X10448000Y-6694000D02*
X10348000Y-6794000D01*
X10348000Y-6694000D02*
X10448000Y-6794000D01*
X10448000Y-6694000D02*
X10348000Y-6794000D01*
X10348000Y-6694500D02*
X10448000Y-6794500D01*
X10448000Y-6694500D02*
X10348000Y-6794500D01*
X10348000Y-6948000D02*
X10448000Y-7048000D01*
X10448000Y-6948000D02*
X10348000Y-7048000D01*
X10348000Y-6948000D02*
X10448000Y-7048000D01*
X10448000Y-6948000D02*
X10348000Y-7048000D01*
X10348000Y-6948000D02*
X10448000Y-7048000D01*
X10448000Y-6948000D02*
X10348000Y-7048000D01*
X10348000Y-7202000D02*
X10448000Y-7302000D01*
X10448000Y-7202000D02*
X10348000Y-7302000D01*
X10348000Y-7202000D02*
X10448000Y-7302000D01*
X10448000Y-7202000D02*
X10348000Y-7302000D01*
X10348000Y-7202000D02*
X10448000Y-7302000D01*
X10448000Y-7202000D02*
X10348000Y-7302000D01*
X10348000Y-7456000D02*
X10448000Y-7556000D01*
X10448000Y-7456000D02*
X10348000Y-7556000D01*
X10348000Y-7456000D02*
X10448000Y-7556000D01*
X10448000Y-7456000D02*
X10348000Y-7556000D01*
X10348000Y-7456500D02*
X10448000Y-7556500D01*
X10448000Y-7456500D02*
X10348000Y-7556500D01*
X10348000Y-7710000D02*
X10448000Y-7810000D01*
X10448000Y-7710000D02*
X10348000Y-7810000D01*
X10348000Y-7710000D02*
X10448000Y-7810000D01*
X10448000Y-7710000D02*
X10348000Y-7810000D01*
X10348000Y-7710000D02*
X10448000Y-7810000D01*
X10448000Y-7710000D02*
X10348000Y-7810000D01*
X10348000Y-7964000D02*
X10448000Y-8064000D01*
X10448000Y-7964000D02*
X10348000Y-8064000D01*
X10348000Y-7964000D02*
X10448000Y-8064000D01*
X10448000Y-7964000D02*
X10348000Y-8064000D01*
X10348000Y-7964000D02*
X10448000Y-8064000D01*
X10448000Y-7964000D02*
X10348000Y-8064000D01*
X10348000Y-8218000D02*
X10448000Y-8318000D01*
X10448000Y-8218000D02*
X10348000Y-8318000D01*
X10348000Y-8218000D02*
X10448000Y-8318000D01*
X10448000Y-8218000D02*
X10348000Y-8318000D01*
X10348000Y-8218500D02*
X10448000Y-8318500D01*
X10448000Y-8218500D02*
X10348000Y-8318500D01*
X10348000Y-8472000D02*
X10448000Y-8572000D01*
X10448000Y-8472000D02*
X10348000Y-8572000D01*
X10348000Y-8472000D02*
X10448000Y-8572000D01*
X10448000Y-8472000D02*
X10348000Y-8572000D01*
X10348000Y-8472000D02*
X10448000Y-8572000D01*
X10448000Y-8472000D02*
X10348000Y-8572000D01*
X10348000Y-8726000D02*
X10448000Y-8826000D01*
X10448000Y-8726000D02*
X10348000Y-8826000D01*
X10348000Y-8726000D02*
X10448000Y-8826000D01*
X10448000Y-8726000D02*
X10348000Y-8826000D01*
X10348000Y-8980000D02*
X10448000Y-9080000D01*
X10448000Y-8980000D02*
X10348000Y-9080000D01*
X10348000Y-8980000D02*
X10448000Y-9080000D01*
X10448000Y-8980000D02*
X10348000Y-9080000D01*
X10602000Y-4662000D02*
X10702000Y-4762000D01*
X10702000Y-4662000D02*
X10602000Y-4762000D01*
X10602000Y-4916000D02*
X10702000Y-5016000D01*
X10702000Y-4916000D02*
X10602000Y-5016000D01*
X10602000Y-5170500D02*
X10702000Y-5270500D01*
X10702000Y-5170500D02*
X10602000Y-5270500D01*
X10602000Y-5424000D02*
X10702000Y-5524000D01*
X10702000Y-5424000D02*
X10602000Y-5524000D01*
X10602000Y-5678000D02*
X10702000Y-5778000D01*
X10702000Y-5678000D02*
X10602000Y-5778000D01*
X10602000Y-5932500D02*
X10702000Y-6032500D01*
X10702000Y-5932500D02*
X10602000Y-6032500D01*
X10602000Y-6186000D02*
X10702000Y-6286000D01*
X10702000Y-6186000D02*
X10602000Y-6286000D01*
X10602000Y-6440000D02*
X10702000Y-6540000D01*
X10702000Y-6440000D02*
X10602000Y-6540000D01*
X10602000Y-6694500D02*
X10702000Y-6794500D01*
X10702000Y-6694500D02*
X10602000Y-6794500D01*
X10602000Y-6948000D02*
X10702000Y-7048000D01*
X10702000Y-6948000D02*
X10602000Y-7048000D01*
X10602000Y-7202000D02*
X10702000Y-7302000D01*
X10702000Y-7202000D02*
X10602000Y-7302000D01*
X10602000Y-7456500D02*
X10702000Y-7556500D01*
X10702000Y-7456500D02*
X10602000Y-7556500D01*
X10602000Y-7710000D02*
X10702000Y-7810000D01*
X10702000Y-7710000D02*
X10602000Y-7810000D01*
X10602000Y-7964000D02*
X10702000Y-8064000D01*
X10702000Y-7964000D02*
X10602000Y-8064000D01*
X10602000Y-8218500D02*
X10702000Y-8318500D01*
X10702000Y-8218500D02*
X10602000Y-8318500D01*
X10602000Y-8472000D02*
X10702000Y-8572000D01*
X10702000Y-8472000D02*
X10602000Y-8572000D01*
X10856000Y-4662000D02*
X10956000Y-4762000D01*
X10956000Y-4662000D02*
X10856000Y-4762000D01*
X10856000Y-4916000D02*
X10956000Y-5016000D01*
X10956000Y-4916000D02*
X10856000Y-5016000D01*
X10856000Y-5170500D02*
X10956000Y-5270500D01*
X10956000Y-5170500D02*
X10856000Y-5270500D01*
X10856000Y-5424000D02*
X10956000Y-5524000D01*
X10956000Y-5424000D02*
X10856000Y-5524000D01*
X10856000Y-5678000D02*
X10956000Y-5778000D01*
X10956000Y-5678000D02*
X10856000Y-5778000D01*
X10856000Y-5932500D02*
X10956000Y-6032500D01*
X10956000Y-5932500D02*
X10856000Y-6032500D01*
X10856000Y-6186000D02*
X10956000Y-6286000D01*
X10956000Y-6186000D02*
X10856000Y-6286000D01*
X10856000Y-6440000D02*
X10956000Y-6540000D01*
X10956000Y-6440000D02*
X10856000Y-6540000D01*
X10856000Y-6694500D02*
X10956000Y-6794500D01*
X10956000Y-6694500D02*
X10856000Y-6794500D01*
X10856000Y-6948000D02*
X10956000Y-7048000D01*
X10956000Y-6948000D02*
X10856000Y-7048000D01*
X10856000Y-7202000D02*
X10956000Y-7302000D01*
X10956000Y-7202000D02*
X10856000Y-7302000D01*
X10856000Y-7456500D02*
X10956000Y-7556500D01*
X10956000Y-7456500D02*
X10856000Y-7556500D01*
X10856000Y-7710000D02*
X10956000Y-7810000D01*
X10956000Y-7710000D02*
X10856000Y-7810000D01*
X10856000Y-7964000D02*
X10956000Y-8064000D01*
X10956000Y-7964000D02*
X10856000Y-8064000D01*
X10856000Y-8218500D02*
X10956000Y-8318500D01*
X10956000Y-8218500D02*
X10856000Y-8318500D01*
X10856000Y-8472000D02*
X10956000Y-8572000D01*
X10956000Y-8472000D02*
X10856000Y-8572000D01*
X11110000Y-4662000D02*
X11210000Y-4762000D01*
X11210000Y-4662000D02*
X11110000Y-4762000D01*
X11110000Y-4916000D02*
X11210000Y-5016000D01*
X11210000Y-4916000D02*
X11110000Y-5016000D01*
X11110000Y-5170500D02*
X11210000Y-5270500D01*
X11210000Y-5170500D02*
X11110000Y-5270500D01*
X11110000Y-5424000D02*
X11210000Y-5524000D01*
X11210000Y-5424000D02*
X11110000Y-5524000D01*
X11110000Y-5678000D02*
X11210000Y-5778000D01*
X11210000Y-5678000D02*
X11110000Y-5778000D01*
X11110000Y-5932500D02*
X11210000Y-6032500D01*
X11210000Y-5932500D02*
X11110000Y-6032500D01*
X11110000Y-6186000D02*
X11210000Y-6286000D01*
X11210000Y-6186000D02*
X11110000Y-6286000D01*
X11110000Y-6440000D02*
X11210000Y-6540000D01*
X11210000Y-6440000D02*
X11110000Y-6540000D01*
X11110000Y-6694500D02*
X11210000Y-6794500D01*
X11210000Y-6694500D02*
X11110000Y-6794500D01*
X11110000Y-6948000D02*
X11210000Y-7048000D01*
X11210000Y-6948000D02*
X11110000Y-7048000D01*
X11110000Y-7202000D02*
X11210000Y-7302000D01*
X11210000Y-7202000D02*
X11110000Y-7302000D01*
X11110000Y-7456500D02*
X11210000Y-7556500D01*
X11210000Y-7456500D02*
X11110000Y-7556500D01*
X11110000Y-7710000D02*
X11210000Y-7810000D01*
X11210000Y-7710000D02*
X11110000Y-7810000D01*
X11110000Y-7964000D02*
X11210000Y-8064000D01*
X11210000Y-7964000D02*
X11110000Y-8064000D01*
X11110000Y-8218500D02*
X11210000Y-8318500D01*
X11210000Y-8218500D02*
X11110000Y-8318500D01*
X11110000Y-8472000D02*
X11210000Y-8572000D01*
X11210000Y-8472000D02*
X11110000Y-8572000D01*
X11212000Y-8980000D02*
X11312000Y-9080000D01*
X11312000Y-8980000D02*
X11212000Y-9080000D01*
X11364000Y-4662000D02*
X11464000Y-4762000D01*
X11464000Y-4662000D02*
X11364000Y-4762000D01*
X11364000Y-4916000D02*
X11464000Y-5016000D01*
X11464000Y-4916000D02*
X11364000Y-5016000D01*
X11364000Y-5170500D02*
X11464000Y-5270500D01*
X11464000Y-5170500D02*
X11364000Y-5270500D01*
X11364000Y-5424000D02*
X11464000Y-5524000D01*
X11464000Y-5424000D02*
X11364000Y-5524000D01*
X11364000Y-5678000D02*
X11464000Y-5778000D01*
X11464000Y-5678000D02*
X11364000Y-5778000D01*
X11364000Y-5932500D02*
X11464000Y-6032500D01*
X11464000Y-5932500D02*
X11364000Y-6032500D01*
X11364000Y-6186000D02*
X11464000Y-6286000D01*
X11464000Y-6186000D02*
X11364000Y-6286000D01*
X11364000Y-6440000D02*
X11464000Y-6540000D01*
X11464000Y-6440000D02*
X11364000Y-6540000D01*
X11364000Y-6694500D02*
X11464000Y-6794500D01*
X11464000Y-6694500D02*
X11364000Y-6794500D01*
X11364000Y-6948000D02*
X11464000Y-7048000D01*
X11464000Y-6948000D02*
X11364000Y-7048000D01*
X11364000Y-7202000D02*
X11464000Y-7302000D01*
X11464000Y-7202000D02*
X11364000Y-7302000D01*
X11364000Y-7456500D02*
X11464000Y-7556500D01*
X11464000Y-7456500D02*
X11364000Y-7556500D01*
X11364000Y-7710000D02*
X11464000Y-7810000D01*
X11464000Y-7710000D02*
X11364000Y-7810000D01*
X11364000Y-7964000D02*
X11464000Y-8064000D01*
X11464000Y-7964000D02*
X11364000Y-8064000D01*
X11364000Y-8218500D02*
X11464000Y-8318500D01*
X11464000Y-8218500D02*
X11364000Y-8318500D01*
X11364000Y-8472000D02*
X11464000Y-8572000D01*
X11464000Y-8472000D02*
X11364000Y-8572000D01*
X11466000Y-8980000D02*
X11566000Y-9080000D01*
X11566000Y-8980000D02*
X11466000Y-9080000D01*
X11618000Y-4662000D02*
X11718000Y-4762000D01*
X11718000Y-4662000D02*
X11618000Y-4762000D01*
X11618000Y-4916000D02*
X11718000Y-5016000D01*
X11718000Y-4916000D02*
X11618000Y-5016000D01*
X11618000Y-5170500D02*
X11718000Y-5270500D01*
X11718000Y-5170500D02*
X11618000Y-5270500D01*
X11618000Y-5424000D02*
X11718000Y-5524000D01*
X11718000Y-5424000D02*
X11618000Y-5524000D01*
X11618000Y-5678000D02*
X11718000Y-5778000D01*
X11718000Y-5678000D02*
X11618000Y-5778000D01*
X11618000Y-5932500D02*
X11718000Y-6032500D01*
X11718000Y-5932500D02*
X11618000Y-6032500D01*
X11618000Y-6186000D02*
X11718000Y-6286000D01*
X11718000Y-6186000D02*
X11618000Y-6286000D01*
X11618000Y-6440000D02*
X11718000Y-6540000D01*
X11718000Y-6440000D02*
X11618000Y-6540000D01*
X11618000Y-6694500D02*
X11718000Y-6794500D01*
X11718000Y-6694500D02*
X11618000Y-6794500D01*
X11618000Y-6948000D02*
X11718000Y-7048000D01*
X11718000Y-6948000D02*
X11618000Y-7048000D01*
X11618000Y-7202000D02*
X11718000Y-7302000D01*
X11718000Y-7202000D02*
X11618000Y-7302000D01*
X11618000Y-7456500D02*
X11718000Y-7556500D01*
X11718000Y-7456500D02*
X11618000Y-7556500D01*
X11618000Y-7710000D02*
X11718000Y-7810000D01*
X11718000Y-7710000D02*
X11618000Y-7810000D01*
X11618000Y-7964000D02*
X11718000Y-8064000D01*
X11718000Y-7964000D02*
X11618000Y-8064000D01*
X11618000Y-8218500D02*
X11718000Y-8318500D01*
X11718000Y-8218500D02*
X11618000Y-8318500D01*
X11618000Y-8472000D02*
X11718000Y-8572000D01*
X11718000Y-8472000D02*
X11618000Y-8572000D01*
X11720000Y-8980000D02*
X11820000Y-9080000D01*
X11820000Y-8980000D02*
X11720000Y-9080000D01*
X11872000Y-4662000D02*
X11972000Y-4762000D01*
X11972000Y-4662000D02*
X11872000Y-4762000D01*
X11872000Y-4916000D02*
X11972000Y-5016000D01*
X11972000Y-4916000D02*
X11872000Y-5016000D01*
X11872000Y-5170500D02*
X11972000Y-5270500D01*
X11972000Y-5170500D02*
X11872000Y-5270500D01*
X11872000Y-5424000D02*
X11972000Y-5524000D01*
X11972000Y-5424000D02*
X11872000Y-5524000D01*
X11872000Y-5678000D02*
X11972000Y-5778000D01*
X11972000Y-5678000D02*
X11872000Y-5778000D01*
X11872000Y-5932500D02*
X11972000Y-6032500D01*
X11972000Y-5932500D02*
X11872000Y-6032500D01*
X11872000Y-6186000D02*
X11972000Y-6286000D01*
X11972000Y-6186000D02*
X11872000Y-6286000D01*
X11872000Y-6440000D02*
X11972000Y-6540000D01*
X11972000Y-6440000D02*
X11872000Y-6540000D01*
X11872000Y-6694500D02*
X11972000Y-6794500D01*
X11972000Y-6694500D02*
X11872000Y-6794500D01*
X11872000Y-6948000D02*
X11972000Y-7048000D01*
X11972000Y-6948000D02*
X11872000Y-7048000D01*
X11872000Y-7202000D02*
X11972000Y-7302000D01*
X11972000Y-7202000D02*
X11872000Y-7302000D01*
X11872000Y-7456500D02*
X11972000Y-7556500D01*
X11972000Y-7456500D02*
X11872000Y-7556500D01*
X11872000Y-7710000D02*
X11972000Y-7810000D01*
X11972000Y-7710000D02*
X11872000Y-7810000D01*
X11872000Y-7964000D02*
X11972000Y-8064000D01*
X11972000Y-7964000D02*
X11872000Y-8064000D01*
X11872000Y-8218500D02*
X11972000Y-8318500D01*
X11972000Y-8218500D02*
X11872000Y-8318500D01*
X11872000Y-8472000D02*
X11972000Y-8572000D01*
X11972000Y-8472000D02*
X11872000Y-8572000D01*
X11974000Y-8980000D02*
X12074000Y-9080000D01*
X12074000Y-8980000D02*
X11974000Y-9080000D01*
X12126000Y-4154000D02*
X12226000Y-4254000D01*
X12226000Y-4154000D02*
X12126000Y-4254000D01*
X12126000Y-4662000D02*
X12226000Y-4762000D01*
X12226000Y-4662000D02*
X12126000Y-4762000D01*
X12126000Y-4916000D02*
X12226000Y-5016000D01*
X12226000Y-4916000D02*
X12126000Y-5016000D01*
X12126000Y-5170500D02*
X12226000Y-5270500D01*
X12226000Y-5170500D02*
X12126000Y-5270500D01*
X12126000Y-5424000D02*
X12226000Y-5524000D01*
X12226000Y-5424000D02*
X12126000Y-5524000D01*
X12126000Y-5678000D02*
X12226000Y-5778000D01*
X12226000Y-5678000D02*
X12126000Y-5778000D01*
X12126000Y-5932500D02*
X12226000Y-6032500D01*
X12226000Y-5932500D02*
X12126000Y-6032500D01*
X12126000Y-6186000D02*
X12226000Y-6286000D01*
X12226000Y-6186000D02*
X12126000Y-6286000D01*
X12126000Y-6440000D02*
X12226000Y-6540000D01*
X12226000Y-6440000D02*
X12126000Y-6540000D01*
X12126000Y-6694500D02*
X12226000Y-6794500D01*
X12226000Y-6694500D02*
X12126000Y-6794500D01*
X12126000Y-6948000D02*
X12226000Y-7048000D01*
X12226000Y-6948000D02*
X12126000Y-7048000D01*
X12126000Y-7202000D02*
X12226000Y-7302000D01*
X12226000Y-7202000D02*
X12126000Y-7302000D01*
X12126000Y-7456500D02*
X12226000Y-7556500D01*
X12226000Y-7456500D02*
X12126000Y-7556500D01*
X12126000Y-7710000D02*
X12226000Y-7810000D01*
X12226000Y-7710000D02*
X12126000Y-7810000D01*
X12126000Y-7964000D02*
X12226000Y-8064000D01*
X12226000Y-7964000D02*
X12126000Y-8064000D01*
X12126000Y-8218500D02*
X12226000Y-8318500D01*
X12226000Y-8218500D02*
X12126000Y-8318500D01*
X12126000Y-8472000D02*
X12226000Y-8572000D01*
X12226000Y-8472000D02*
X12126000Y-8572000D01*
X12228000Y-8980000D02*
X12328000Y-9080000D01*
X12328000Y-8980000D02*
X12228000Y-9080000D01*
X12380000Y-4154000D02*
X12480000Y-4254000D01*
X12480000Y-4154000D02*
X12380000Y-4254000D01*
X12380000Y-4662000D02*
X12480000Y-4762000D01*
X12480000Y-4662000D02*
X12380000Y-4762000D01*
X12380000Y-4916000D02*
X12480000Y-5016000D01*
X12480000Y-4916000D02*
X12380000Y-5016000D01*
X12380000Y-5170500D02*
X12480000Y-5270500D01*
X12480000Y-5170500D02*
X12380000Y-5270500D01*
X12380000Y-5424000D02*
X12480000Y-5524000D01*
X12480000Y-5424000D02*
X12380000Y-5524000D01*
X12380000Y-5678000D02*
X12480000Y-5778000D01*
X12480000Y-5678000D02*
X12380000Y-5778000D01*
X12380000Y-5932500D02*
X12480000Y-6032500D01*
X12480000Y-5932500D02*
X12380000Y-6032500D01*
X12380000Y-6186000D02*
X12480000Y-6286000D01*
X12480000Y-6186000D02*
X12380000Y-6286000D01*
X12380000Y-6440000D02*
X12480000Y-6540000D01*
X12480000Y-6440000D02*
X12380000Y-6540000D01*
X12380000Y-6694500D02*
X12480000Y-6794500D01*
X12480000Y-6694500D02*
X12380000Y-6794500D01*
X12380000Y-6948000D02*
X12480000Y-7048000D01*
X12480000Y-6948000D02*
X12380000Y-7048000D01*
X12380000Y-7202000D02*
X12480000Y-7302000D01*
X12480000Y-7202000D02*
X12380000Y-7302000D01*
X12380000Y-7456500D02*
X12480000Y-7556500D01*
X12480000Y-7456500D02*
X12380000Y-7556500D01*
X12380000Y-7710000D02*
X12480000Y-7810000D01*
X12480000Y-7710000D02*
X12380000Y-7810000D01*
X12380000Y-7964000D02*
X12480000Y-8064000D01*
X12480000Y-7964000D02*
X12380000Y-8064000D01*
X12380000Y-8218500D02*
X12480000Y-8318500D01*
X12480000Y-8218500D02*
X12380000Y-8318500D01*
X12380000Y-8472000D02*
X12480000Y-8572000D01*
X12480000Y-8472000D02*
X12380000Y-8572000D01*
X12482000Y-8980000D02*
X12582000Y-9080000D01*
X12582000Y-8980000D02*
X12482000Y-9080000D01*
X12634000Y-4154000D02*
X12734000Y-4254000D01*
X12734000Y-4154000D02*
X12634000Y-4254000D01*
X12634000Y-4662000D02*
X12734000Y-4762000D01*
X12734000Y-4662000D02*
X12634000Y-4762000D01*
X12634000Y-4916000D02*
X12734000Y-5016000D01*
X12734000Y-4916000D02*
X12634000Y-5016000D01*
X12634000Y-5170500D02*
X12734000Y-5270500D01*
X12734000Y-5170500D02*
X12634000Y-5270500D01*
X12634000Y-5424000D02*
X12734000Y-5524000D01*
X12734000Y-5424000D02*
X12634000Y-5524000D01*
X12634000Y-5678000D02*
X12734000Y-5778000D01*
X12734000Y-5678000D02*
X12634000Y-5778000D01*
X12634000Y-5932500D02*
X12734000Y-6032500D01*
X12734000Y-5932500D02*
X12634000Y-6032500D01*
X12634000Y-6186000D02*
X12734000Y-6286000D01*
X12734000Y-6186000D02*
X12634000Y-6286000D01*
X12634000Y-6440000D02*
X12734000Y-6540000D01*
X12734000Y-6440000D02*
X12634000Y-6540000D01*
X12634000Y-6694500D02*
X12734000Y-6794500D01*
X12734000Y-6694500D02*
X12634000Y-6794500D01*
X12634000Y-6948000D02*
X12734000Y-7048000D01*
X12734000Y-6948000D02*
X12634000Y-7048000D01*
X12634000Y-7202000D02*
X12734000Y-7302000D01*
X12734000Y-7202000D02*
X12634000Y-7302000D01*
X12634000Y-7456500D02*
X12734000Y-7556500D01*
X12734000Y-7456500D02*
X12634000Y-7556500D01*
X12634000Y-7710000D02*
X12734000Y-7810000D01*
X12734000Y-7710000D02*
X12634000Y-7810000D01*
X12634000Y-7964000D02*
X12734000Y-8064000D01*
X12734000Y-7964000D02*
X12634000Y-8064000D01*
X12634000Y-8218500D02*
X12734000Y-8318500D01*
X12734000Y-8218500D02*
X12634000Y-8318500D01*
X12634000Y-8472000D02*
X12734000Y-8572000D01*
X12734000Y-8472000D02*
X12634000Y-8572000D01*
X12736000Y-8980000D02*
X12836000Y-9080000D01*
X12836000Y-8980000D02*
X12736000Y-9080000D01*
X12888000Y-4154000D02*
X12988000Y-4254000D01*
X12988000Y-4154000D02*
X12888000Y-4254000D01*
X12888000Y-4662000D02*
X12988000Y-4762000D01*
X12988000Y-4662000D02*
X12888000Y-4762000D01*
X12888000Y-4916000D02*
X12988000Y-5016000D01*
X12988000Y-4916000D02*
X12888000Y-5016000D01*
X12888000Y-5170500D02*
X12988000Y-5270500D01*
X12988000Y-5170500D02*
X12888000Y-5270500D01*
X12888000Y-5424000D02*
X12988000Y-5524000D01*
X12988000Y-5424000D02*
X12888000Y-5524000D01*
X12888000Y-5678000D02*
X12988000Y-5778000D01*
X12988000Y-5678000D02*
X12888000Y-5778000D01*
X12888000Y-5932500D02*
X12988000Y-6032500D01*
X12988000Y-5932500D02*
X12888000Y-6032500D01*
X12888000Y-6186000D02*
X12988000Y-6286000D01*
X12988000Y-6186000D02*
X12888000Y-6286000D01*
X12888000Y-6440000D02*
X12988000Y-6540000D01*
X12988000Y-6440000D02*
X12888000Y-6540000D01*
X12888000Y-6694500D02*
X12988000Y-6794500D01*
X12988000Y-6694500D02*
X12888000Y-6794500D01*
X12888000Y-6948000D02*
X12988000Y-7048000D01*
X12988000Y-6948000D02*
X12888000Y-7048000D01*
X12888000Y-7202000D02*
X12988000Y-7302000D01*
X12988000Y-7202000D02*
X12888000Y-7302000D01*
X12888000Y-7456500D02*
X12988000Y-7556500D01*
X12988000Y-7456500D02*
X12888000Y-7556500D01*
X12888000Y-7710000D02*
X12988000Y-7810000D01*
X12988000Y-7710000D02*
X12888000Y-7810000D01*
X12888000Y-7964000D02*
X12988000Y-8064000D01*
X12988000Y-7964000D02*
X12888000Y-8064000D01*
X12888000Y-8218500D02*
X12988000Y-8318500D01*
X12988000Y-8218500D02*
X12888000Y-8318500D01*
X12888000Y-8472000D02*
X12988000Y-8572000D01*
X12988000Y-8472000D02*
X12888000Y-8572000D01*
X12990000Y-8980000D02*
X13090000Y-9080000D01*
X13090000Y-8980000D02*
X12990000Y-9080000D01*
X13142000Y-4154000D02*
X13242000Y-4254000D01*
X13242000Y-4154000D02*
X13142000Y-4254000D01*
X13142000Y-4662000D02*
X13242000Y-4762000D01*
X13242000Y-4662000D02*
X13142000Y-4762000D01*
X13142000Y-4916000D02*
X13242000Y-5016000D01*
X13242000Y-4916000D02*
X13142000Y-5016000D01*
X13142000Y-5170500D02*
X13242000Y-5270500D01*
X13242000Y-5170500D02*
X13142000Y-5270500D01*
X13142000Y-5424000D02*
X13242000Y-5524000D01*
X13242000Y-5424000D02*
X13142000Y-5524000D01*
X13142000Y-5678000D02*
X13242000Y-5778000D01*
X13242000Y-5678000D02*
X13142000Y-5778000D01*
X13142000Y-5932500D02*
X13242000Y-6032500D01*
X13242000Y-5932500D02*
X13142000Y-6032500D01*
X13142000Y-6186000D02*
X13242000Y-6286000D01*
X13242000Y-6186000D02*
X13142000Y-6286000D01*
X13142000Y-6440000D02*
X13242000Y-6540000D01*
X13242000Y-6440000D02*
X13142000Y-6540000D01*
X13142000Y-6694500D02*
X13242000Y-6794500D01*
X13242000Y-6694500D02*
X13142000Y-6794500D01*
X13142000Y-6948000D02*
X13242000Y-7048000D01*
X13242000Y-6948000D02*
X13142000Y-7048000D01*
X13142000Y-7202000D02*
X13242000Y-7302000D01*
X13242000Y-7202000D02*
X13142000Y-7302000D01*
X13142000Y-7456500D02*
X13242000Y-7556500D01*
X13242000Y-7456500D02*
X13142000Y-7556500D01*
X13142000Y-7710000D02*
X13242000Y-7810000D01*
X13242000Y-7710000D02*
X13142000Y-7810000D01*
X13142000Y-7964000D02*
X13242000Y-8064000D01*
X13242000Y-7964000D02*
X13142000Y-8064000D01*
X13142000Y-8218500D02*
X13242000Y-8318500D01*
X13242000Y-8218500D02*
X13142000Y-8318500D01*
X13142000Y-8472000D02*
X13242000Y-8572000D01*
X13242000Y-8472000D02*
X13142000Y-8572000D01*
X13244000Y-8980000D02*
X13344000Y-9080000D01*
X13344000Y-8980000D02*
X13244000Y-9080000D01*
X13396000Y-4154000D02*
X13496000Y-4254000D01*
X13496000Y-4154000D02*
X13396000Y-4254000D01*
X13396000Y-4662000D02*
X13496000Y-4762000D01*
X13496000Y-4662000D02*
X13396000Y-4762000D01*
X13396000Y-4916000D02*
X13496000Y-5016000D01*
X13496000Y-4916000D02*
X13396000Y-5016000D01*
X13396000Y-5170500D02*
X13496000Y-5270500D01*
X13496000Y-5170500D02*
X13396000Y-5270500D01*
X13396000Y-5424000D02*
X13496000Y-5524000D01*
X13496000Y-5424000D02*
X13396000Y-5524000D01*
X13396000Y-5678000D02*
X13496000Y-5778000D01*
X13496000Y-5678000D02*
X13396000Y-5778000D01*
X13396000Y-5932500D02*
X13496000Y-6032500D01*
X13496000Y-5932500D02*
X13396000Y-6032500D01*
X13396000Y-6186000D02*
X13496000Y-6286000D01*
X13496000Y-6186000D02*
X13396000Y-6286000D01*
X13396000Y-6440000D02*
X13496000Y-6540000D01*
X13496000Y-6440000D02*
X13396000Y-6540000D01*
X13396000Y-6694500D02*
X13496000Y-6794500D01*
X13496000Y-6694500D02*
X13396000Y-6794500D01*
X13396000Y-6948000D02*
X13496000Y-7048000D01*
X13496000Y-6948000D02*
X13396000Y-7048000D01*
X13396000Y-7202000D02*
X13496000Y-7302000D01*
X13496000Y-7202000D02*
X13396000Y-7302000D01*
X13396000Y-7456500D02*
X13496000Y-7556500D01*
X13496000Y-7456500D02*
X13396000Y-7556500D01*
X13396000Y-7710000D02*
X13496000Y-7810000D01*
X13496000Y-7710000D02*
X13396000Y-7810000D01*
X13396000Y-7964000D02*
X13496000Y-8064000D01*
X13496000Y-7964000D02*
X13396000Y-8064000D01*
X13396000Y-8218500D02*
X13496000Y-8318500D01*
X13496000Y-8218500D02*
X13396000Y-8318500D01*
X13396000Y-8472000D02*
X13496000Y-8572000D01*
X13496000Y-8472000D02*
X13396000Y-8572000D01*
X13498000Y-8980000D02*
X13598000Y-9080000D01*
X13598000Y-8980000D02*
X13498000Y-9080000D01*
X13650000Y-4154000D02*
X13750000Y-4254000D01*
X13750000Y-4154000D02*
X13650000Y-4254000D01*
X13650000Y-4662000D02*
X13750000Y-4762000D01*
X13750000Y-4662000D02*
X13650000Y-4762000D01*
X13650000Y-4916000D02*
X13750000Y-5016000D01*
X13750000Y-4916000D02*
X13650000Y-5016000D01*
X13650000Y-5170500D02*
X13750000Y-5270500D01*
X13750000Y-5170500D02*
X13650000Y-5270500D01*
X13650000Y-5424000D02*
X13750000Y-5524000D01*
X13750000Y-5424000D02*
X13650000Y-5524000D01*
X13650000Y-5678000D02*
X13750000Y-5778000D01*
X13750000Y-5678000D02*
X13650000Y-5778000D01*
X13650000Y-5932500D02*
X13750000Y-6032500D01*
X13750000Y-5932500D02*
X13650000Y-6032500D01*
X13650000Y-6186000D02*
X13750000Y-6286000D01*
X13750000Y-6186000D02*
X13650000Y-6286000D01*
X13650000Y-6440000D02*
X13750000Y-6540000D01*
X13750000Y-6440000D02*
X13650000Y-6540000D01*
X13650000Y-6694500D02*
X13750000Y-6794500D01*
X13750000Y-6694500D02*
X13650000Y-6794500D01*
X13650000Y-6948000D02*
X13750000Y-7048000D01*
X13750000Y-6948000D02*
X13650000Y-7048000D01*
X13650000Y-7202000D02*
X13750000Y-7302000D01*
X13750000Y-7202000D02*
X13650000Y-7302000D01*
X13650000Y-7456500D02*
X13750000Y-7556500D01*
X13750000Y-7456500D02*
X13650000Y-7556500D01*
X13650000Y-7710000D02*
X13750000Y-7810000D01*
X13750000Y-7710000D02*
X13650000Y-7810000D01*
X13650000Y-7964000D02*
X13750000Y-8064000D01*
X13750000Y-7964000D02*
X13650000Y-8064000D01*
X13650000Y-8218500D02*
X13750000Y-8318500D01*
X13750000Y-8218500D02*
X13650000Y-8318500D01*
X13650000Y-8472000D02*
X13750000Y-8572000D01*
X13750000Y-8472000D02*
X13650000Y-8572000D01*
X13904000Y-4154000D02*
X14004000Y-4254000D01*
X14004000Y-4154000D02*
X13904000Y-4254000D01*
X13904000Y-4662000D02*
X14004000Y-4762000D01*
X14004000Y-4662000D02*
X13904000Y-4762000D01*
X13904000Y-4916000D02*
X14004000Y-5016000D01*
X14004000Y-4916000D02*
X13904000Y-5016000D01*
X13904000Y-5170500D02*
X14004000Y-5270500D01*
X14004000Y-5170500D02*
X13904000Y-5270500D01*
X13904000Y-5424000D02*
X14004000Y-5524000D01*
X14004000Y-5424000D02*
X13904000Y-5524000D01*
X13904000Y-5678000D02*
X14004000Y-5778000D01*
X14004000Y-5678000D02*
X13904000Y-5778000D01*
X13904000Y-5932500D02*
X14004000Y-6032500D01*
X14004000Y-5932500D02*
X13904000Y-6032500D01*
X13904000Y-6186000D02*
X14004000Y-6286000D01*
X14004000Y-6186000D02*
X13904000Y-6286000D01*
X13904000Y-6440000D02*
X14004000Y-6540000D01*
X14004000Y-6440000D02*
X13904000Y-6540000D01*
X13904000Y-6694500D02*
X14004000Y-6794500D01*
X14004000Y-6694500D02*
X13904000Y-6794500D01*
X13904000Y-6948000D02*
X14004000Y-7048000D01*
X14004000Y-6948000D02*
X13904000Y-7048000D01*
X13904000Y-7202000D02*
X14004000Y-7302000D01*
X14004000Y-7202000D02*
X13904000Y-7302000D01*
X13904000Y-7456500D02*
X14004000Y-7556500D01*
X14004000Y-7456500D02*
X13904000Y-7556500D01*
X13904000Y-7710000D02*
X14004000Y-7810000D01*
X14004000Y-7710000D02*
X13904000Y-7810000D01*
X13904000Y-7964000D02*
X14004000Y-8064000D01*
X14004000Y-7964000D02*
X13904000Y-8064000D01*
X13904000Y-8218500D02*
X14004000Y-8318500D01*
X14004000Y-8218500D02*
X13904000Y-8318500D01*
X13904000Y-8472000D02*
X14004000Y-8572000D01*
X14004000Y-8472000D02*
X13904000Y-8572000D01*
X13904000Y-8980000D02*
X14004000Y-9080000D01*
X14004000Y-8980000D02*
X13904000Y-9080000D01*
X14158000Y-4662000D02*
X14258000Y-4762000D01*
X14258000Y-4662000D02*
X14158000Y-4762000D01*
X14158000Y-4916000D02*
X14258000Y-5016000D01*
X14258000Y-4916000D02*
X14158000Y-5016000D01*
X14158000Y-5170500D02*
X14258000Y-5270500D01*
X14258000Y-5170500D02*
X14158000Y-5270500D01*
X14158000Y-5424000D02*
X14258000Y-5524000D01*
X14258000Y-5424000D02*
X14158000Y-5524000D01*
X14158000Y-5678000D02*
X14258000Y-5778000D01*
X14258000Y-5678000D02*
X14158000Y-5778000D01*
X14158000Y-5932500D02*
X14258000Y-6032500D01*
X14258000Y-5932500D02*
X14158000Y-6032500D01*
X14158000Y-6186000D02*
X14258000Y-6286000D01*
X14258000Y-6186000D02*
X14158000Y-6286000D01*
X14158000Y-6440000D02*
X14258000Y-6540000D01*
X14258000Y-6440000D02*
X14158000Y-6540000D01*
X14158000Y-6694500D02*
X14258000Y-6794500D01*
X14258000Y-6694500D02*
X14158000Y-6794500D01*
X14158000Y-6948000D02*
X14258000Y-7048000D01*
X14258000Y-6948000D02*
X14158000Y-7048000D01*
X14158000Y-7202000D02*
X14258000Y-7302000D01*
X14258000Y-7202000D02*
X14158000Y-7302000D01*
X14158000Y-7456500D02*
X14258000Y-7556500D01*
X14258000Y-7456500D02*
X14158000Y-7556500D01*
X14158000Y-7710000D02*
X14258000Y-7810000D01*
X14258000Y-7710000D02*
X14158000Y-7810000D01*
X14158000Y-7964000D02*
X14258000Y-8064000D01*
X14258000Y-7964000D02*
X14158000Y-8064000D01*
X14158000Y-8218500D02*
X14258000Y-8318500D01*
X14258000Y-8218500D02*
X14158000Y-8318500D01*
X14158000Y-8472000D02*
X14258000Y-8572000D01*
X14258000Y-8472000D02*
X14158000Y-8572000D01*
X14158000Y-8980000D02*
X14258000Y-9080000D01*
X14258000Y-8980000D02*
X14158000Y-9080000D01*
X14412000Y-4154000D02*
X14512000Y-4254000D01*
X14512000Y-4154000D02*
X14412000Y-4254000D01*
X14412000Y-4662000D02*
X14512000Y-4762000D01*
X14512000Y-4662000D02*
X14412000Y-4762000D01*
X14412000Y-4916000D02*
X14512000Y-5016000D01*
X14512000Y-4916000D02*
X14412000Y-5016000D01*
X14412000Y-5170500D02*
X14512000Y-5270500D01*
X14512000Y-5170500D02*
X14412000Y-5270500D01*
X14412000Y-5424000D02*
X14512000Y-5524000D01*
X14512000Y-5424000D02*
X14412000Y-5524000D01*
X14412000Y-5678000D02*
X14512000Y-5778000D01*
X14512000Y-5678000D02*
X14412000Y-5778000D01*
X14412000Y-5932500D02*
X14512000Y-6032500D01*
X14512000Y-5932500D02*
X14412000Y-6032500D01*
X14412000Y-6186000D02*
X14512000Y-6286000D01*
X14512000Y-6186000D02*
X14412000Y-6286000D01*
X14412000Y-6440000D02*
X14512000Y-6540000D01*
X14512000Y-6440000D02*
X14412000Y-6540000D01*
X14412000Y-6694500D02*
X14512000Y-6794500D01*
X14512000Y-6694500D02*
X14412000Y-6794500D01*
X14412000Y-6948000D02*
X14512000Y-7048000D01*
X14512000Y-6948000D02*
X14412000Y-7048000D01*
X14412000Y-7202000D02*
X14512000Y-7302000D01*
X14512000Y-7202000D02*
X14412000Y-7302000D01*
X14412000Y-7456500D02*
X14512000Y-7556500D01*
X14512000Y-7456500D02*
X14412000Y-7556500D01*
X14412000Y-7710000D02*
X14512000Y-7810000D01*
X14512000Y-7710000D02*
X14412000Y-7810000D01*
X14412000Y-7964000D02*
X14512000Y-8064000D01*
X14512000Y-7964000D02*
X14412000Y-8064000D01*
X14412000Y-8218500D02*
X14512000Y-8318500D01*
X14512000Y-8218500D02*
X14412000Y-8318500D01*
X14412000Y-8472000D02*
X14512000Y-8572000D01*
X14512000Y-8472000D02*
X14412000Y-8572000D01*
X14412000Y-8980000D02*
X14512000Y-9080000D01*
X14512000Y-8980000D02*
X14412000Y-9080000D01*
X14666000Y-4154000D02*
X14766000Y-4254000D01*
X14766000Y-4154000D02*
X14666000Y-4254000D01*
X14666000Y-4662000D02*
X14766000Y-4762000D01*
X14766000Y-4662000D02*
X14666000Y-4762000D01*
X14666000Y-4916000D02*
X14766000Y-5016000D01*
X14766000Y-4916000D02*
X14666000Y-5016000D01*
X14666000Y-5170500D02*
X14766000Y-5270500D01*
X14766000Y-5170500D02*
X14666000Y-5270500D01*
X14666000Y-5424000D02*
X14766000Y-5524000D01*
X14766000Y-5424000D02*
X14666000Y-5524000D01*
X14666000Y-5678000D02*
X14766000Y-5778000D01*
X14766000Y-5678000D02*
X14666000Y-5778000D01*
X14666000Y-5932500D02*
X14766000Y-6032500D01*
X14766000Y-5932500D02*
X14666000Y-6032500D01*
X14666000Y-6186000D02*
X14766000Y-6286000D01*
X14766000Y-6186000D02*
X14666000Y-6286000D01*
X14666000Y-6440000D02*
X14766000Y-6540000D01*
X14766000Y-6440000D02*
X14666000Y-6540000D01*
X14666000Y-6694500D02*
X14766000Y-6794500D01*
X14766000Y-6694500D02*
X14666000Y-6794500D01*
X14666000Y-6948000D02*
X14766000Y-7048000D01*
X14766000Y-6948000D02*
X14666000Y-7048000D01*
X14666000Y-7202000D02*
X14766000Y-7302000D01*
X14766000Y-7202000D02*
X14666000Y-7302000D01*
X14666000Y-7456500D02*
X14766000Y-7556500D01*
X14766000Y-7456500D02*
X14666000Y-7556500D01*
X14666000Y-7710000D02*
X14766000Y-7810000D01*
X14766000Y-7710000D02*
X14666000Y-7810000D01*
X14666000Y-7964000D02*
X14766000Y-8064000D01*
X14766000Y-7964000D02*
X14666000Y-8064000D01*
X14666000Y-8218500D02*
X14766000Y-8318500D01*
X14766000Y-8218500D02*
X14666000Y-8318500D01*
X14666000Y-8472000D02*
X14766000Y-8572000D01*
X14766000Y-8472000D02*
X14666000Y-8572000D01*
X14666000Y-8980000D02*
X14766000Y-9080000D01*
X14766000Y-8980000D02*
X14666000Y-9080000D01*
X14920000Y-4154000D02*
X15020000Y-4254000D01*
X15020000Y-4154000D02*
X14920000Y-4254000D01*
X14920000Y-4662000D02*
X15020000Y-4762000D01*
X15020000Y-4662000D02*
X14920000Y-4762000D01*
X14920000Y-4916000D02*
X15020000Y-5016000D01*
X15020000Y-4916000D02*
X14920000Y-5016000D01*
X14920000Y-5170500D02*
X15020000Y-5270500D01*
X15020000Y-5170500D02*
X14920000Y-5270500D01*
X14920000Y-5424000D02*
X15020000Y-5524000D01*
X15020000Y-5424000D02*
X14920000Y-5524000D01*
X14920000Y-5678000D02*
X15020000Y-5778000D01*
X15020000Y-5678000D02*
X14920000Y-5778000D01*
X14920000Y-5932500D02*
X15020000Y-6032500D01*
X15020000Y-5932500D02*
X14920000Y-6032500D01*
X14920000Y-6186000D02*
X15020000Y-6286000D01*
X15020000Y-6186000D02*
X14920000Y-6286000D01*
X14920000Y-6440000D02*
X15020000Y-6540000D01*
X15020000Y-6440000D02*
X14920000Y-6540000D01*
X14920000Y-6694500D02*
X15020000Y-6794500D01*
X15020000Y-6694500D02*
X14920000Y-6794500D01*
X14920000Y-6948000D02*
X15020000Y-7048000D01*
X15020000Y-6948000D02*
X14920000Y-7048000D01*
X14920000Y-7202000D02*
X15020000Y-7302000D01*
X15020000Y-7202000D02*
X14920000Y-7302000D01*
X14920000Y-7456500D02*
X15020000Y-7556500D01*
X15020000Y-7456500D02*
X14920000Y-7556500D01*
X14920000Y-7710000D02*
X15020000Y-7810000D01*
X15020000Y-7710000D02*
X14920000Y-7810000D01*
X14920000Y-7964000D02*
X15020000Y-8064000D01*
X15020000Y-7964000D02*
X14920000Y-8064000D01*
X14920000Y-8218500D02*
X15020000Y-8318500D01*
X15020000Y-8218500D02*
X14920000Y-8318500D01*
X14920000Y-8472000D02*
X15020000Y-8572000D01*
X15020000Y-8472000D02*
X14920000Y-8572000D01*
X14920000Y-8980000D02*
X15020000Y-9080000D01*
X15020000Y-8980000D02*
X14920000Y-9080000D01*
X15174000Y-4154000D02*
X15274000Y-4254000D01*
X15274000Y-4154000D02*
X15174000Y-4254000D01*
X15174000Y-4662000D02*
X15274000Y-4762000D01*
X15274000Y-4662000D02*
X15174000Y-4762000D01*
X15174000Y-4916000D02*
X15274000Y-5016000D01*
X15274000Y-4916000D02*
X15174000Y-5016000D01*
X15174000Y-5170500D02*
X15274000Y-5270500D01*
X15274000Y-5170500D02*
X15174000Y-5270500D01*
X15174000Y-5424000D02*
X15274000Y-5524000D01*
X15274000Y-5424000D02*
X15174000Y-5524000D01*
X15174000Y-5678000D02*
X15274000Y-5778000D01*
X15274000Y-5678000D02*
X15174000Y-5778000D01*
X15174000Y-5932500D02*
X15274000Y-6032500D01*
X15274000Y-5932500D02*
X15174000Y-6032500D01*
X15174000Y-6186000D02*
X15274000Y-6286000D01*
X15274000Y-6186000D02*
X15174000Y-6286000D01*
X15174000Y-6440000D02*
X15274000Y-6540000D01*
X15274000Y-6440000D02*
X15174000Y-6540000D01*
X15174000Y-6694500D02*
X15274000Y-6794500D01*
X15274000Y-6694500D02*
X15174000Y-6794500D01*
X15174000Y-6948000D02*
X15274000Y-7048000D01*
X15274000Y-6948000D02*
X15174000Y-7048000D01*
X15174000Y-7202000D02*
X15274000Y-7302000D01*
X15274000Y-7202000D02*
X15174000Y-7302000D01*
X15174000Y-7456500D02*
X15274000Y-7556500D01*
X15274000Y-7456500D02*
X15174000Y-7556500D01*
X15174000Y-7710000D02*
X15274000Y-7810000D01*
X15274000Y-7710000D02*
X15174000Y-7810000D01*
X15174000Y-7964000D02*
X15274000Y-8064000D01*
X15274000Y-7964000D02*
X15174000Y-8064000D01*
X15174000Y-8218500D02*
X15274000Y-8318500D01*
X15274000Y-8218500D02*
X15174000Y-8318500D01*
X15174000Y-8472000D02*
X15274000Y-8572000D01*
X15274000Y-8472000D02*
X15174000Y-8572000D01*
X15174000Y-8980000D02*
X15274000Y-9080000D01*
X15274000Y-8980000D02*
X15174000Y-9080000D01*
X15428000Y-4154000D02*
X15528000Y-4254000D01*
X15528000Y-4154000D02*
X15428000Y-4254000D01*
X15428000Y-4662000D02*
X15528000Y-4762000D01*
X15528000Y-4662000D02*
X15428000Y-4762000D01*
X15428000Y-4916000D02*
X15528000Y-5016000D01*
X15528000Y-4916000D02*
X15428000Y-5016000D01*
X15428000Y-5170500D02*
X15528000Y-5270500D01*
X15528000Y-5170500D02*
X15428000Y-5270500D01*
X15428000Y-5424000D02*
X15528000Y-5524000D01*
X15528000Y-5424000D02*
X15428000Y-5524000D01*
X15428000Y-5678000D02*
X15528000Y-5778000D01*
X15528000Y-5678000D02*
X15428000Y-5778000D01*
X15428000Y-5932500D02*
X15528000Y-6032500D01*
X15528000Y-5932500D02*
X15428000Y-6032500D01*
X15428000Y-6186000D02*
X15528000Y-6286000D01*
X15528000Y-6186000D02*
X15428000Y-6286000D01*
X15428000Y-6440000D02*
X15528000Y-6540000D01*
X15528000Y-6440000D02*
X15428000Y-6540000D01*
X15428000Y-6694500D02*
X15528000Y-6794500D01*
X15528000Y-6694500D02*
X15428000Y-6794500D01*
X15428000Y-6948000D02*
X15528000Y-7048000D01*
X15528000Y-6948000D02*
X15428000Y-7048000D01*
X15428000Y-7202000D02*
X15528000Y-7302000D01*
X15528000Y-7202000D02*
X15428000Y-7302000D01*
X15428000Y-7456500D02*
X15528000Y-7556500D01*
X15528000Y-7456500D02*
X15428000Y-7556500D01*
X15428000Y-7710000D02*
X15528000Y-7810000D01*
X15528000Y-7710000D02*
X15428000Y-7810000D01*
X15428000Y-7964000D02*
X15528000Y-8064000D01*
X15528000Y-7964000D02*
X15428000Y-8064000D01*
X15428000Y-8218500D02*
X15528000Y-8318500D01*
X15528000Y-8218500D02*
X15428000Y-8318500D01*
X15428000Y-8472000D02*
X15528000Y-8572000D01*
X15528000Y-8472000D02*
X15428000Y-8572000D01*
X15428000Y-8980000D02*
X15528000Y-9080000D01*
X15528000Y-8980000D02*
X15428000Y-9080000D01*
X15682000Y-4154000D02*
X15782000Y-4254000D01*
X15782000Y-4154000D02*
X15682000Y-4254000D01*
X15682000Y-4662000D02*
X15782000Y-4762000D01*
X15782000Y-4662000D02*
X15682000Y-4762000D01*
X15682000Y-4916000D02*
X15782000Y-5016000D01*
X15782000Y-4916000D02*
X15682000Y-5016000D01*
X15682000Y-5170500D02*
X15782000Y-5270500D01*
X15782000Y-5170500D02*
X15682000Y-5270500D01*
X15682000Y-5424000D02*
X15782000Y-5524000D01*
X15782000Y-5424000D02*
X15682000Y-5524000D01*
X15682000Y-5678000D02*
X15782000Y-5778000D01*
X15782000Y-5678000D02*
X15682000Y-5778000D01*
X15682000Y-5932500D02*
X15782000Y-6032500D01*
X15782000Y-5932500D02*
X15682000Y-6032500D01*
X15682000Y-6186000D02*
X15782000Y-6286000D01*
X15782000Y-6186000D02*
X15682000Y-6286000D01*
X15682000Y-6440000D02*
X15782000Y-6540000D01*
X15782000Y-6440000D02*
X15682000Y-6540000D01*
X15682000Y-6694500D02*
X15782000Y-6794500D01*
X15782000Y-6694500D02*
X15682000Y-6794500D01*
X15682000Y-6948000D02*
X15782000Y-7048000D01*
X15782000Y-6948000D02*
X15682000Y-7048000D01*
X15682000Y-7202000D02*
X15782000Y-7302000D01*
X15782000Y-7202000D02*
X15682000Y-7302000D01*
X15682000Y-7456500D02*
X15782000Y-7556500D01*
X15782000Y-7456500D02*
X15682000Y-7556500D01*
X15682000Y-7710000D02*
X15782000Y-7810000D01*
X15782000Y-7710000D02*
X15682000Y-7810000D01*
X15682000Y-7964000D02*
X15782000Y-8064000D01*
X15782000Y-7964000D02*
X15682000Y-8064000D01*
X15682000Y-8218500D02*
X15782000Y-8318500D01*
X15782000Y-8218500D02*
X15682000Y-8318500D01*
X15682000Y-8472000D02*
X15782000Y-8572000D01*
X15782000Y-8472000D02*
X15682000Y-8572000D01*
X15682000Y-8980000D02*
X15782000Y-9080000D01*
X15782000Y-8980000D02*
X15682000Y-9080000D01*
D11*
X9615277Y-9622984D02*
X9615277Y-9422984D01*
X9615277Y-9422984D02*
X9662896Y-9422984D01*
X9662896Y-9422984D02*
X9691467Y-9432508D01*
X9691467Y-9432508D02*
X9710515Y-9451555D01*
X9710515Y-9451555D02*
X9720039Y-9470603D01*
X9720039Y-9470603D02*
X9729563Y-9508698D01*
X9729563Y-9508698D02*
X9729563Y-9537270D01*
X9729563Y-9537270D02*
X9720039Y-9575365D01*
X9720039Y-9575365D02*
X9710515Y-9594412D01*
X9710515Y-9594412D02*
X9691467Y-9613460D01*
X9691467Y-9613460D02*
X9662896Y-9622984D01*
X9662896Y-9622984D02*
X9615277Y-9622984D01*
X9815277Y-9622984D02*
X9815277Y-9489650D01*
X9815277Y-9527746D02*
X9824801Y-9508698D01*
X9824801Y-9508698D02*
X9834324Y-9499174D01*
X9834324Y-9499174D02*
X9853372Y-9489650D01*
X9853372Y-9489650D02*
X9872420Y-9489650D01*
X9939086Y-9622984D02*
X9939086Y-9489650D01*
X9939086Y-9422984D02*
X9929563Y-9432508D01*
X9929563Y-9432508D02*
X9939086Y-9442031D01*
X9939086Y-9442031D02*
X9948610Y-9432508D01*
X9948610Y-9432508D02*
X9939086Y-9422984D01*
X9939086Y-9422984D02*
X9939086Y-9442031D01*
X10062896Y-9622984D02*
X10043848Y-9613460D01*
X10043848Y-9613460D02*
X10034324Y-9594412D01*
X10034324Y-9594412D02*
X10034324Y-9422984D01*
X10167658Y-9622984D02*
X10148610Y-9613460D01*
X10148610Y-9613460D02*
X10139086Y-9594412D01*
X10139086Y-9594412D02*
X10139086Y-9422984D01*
X10396229Y-9622984D02*
X10396229Y-9422984D01*
X10396229Y-9422984D02*
X10462896Y-9565841D01*
X10462896Y-9565841D02*
X10529563Y-9422984D01*
X10529563Y-9422984D02*
X10529563Y-9622984D01*
X10710515Y-9622984D02*
X10710515Y-9518222D01*
X10710515Y-9518222D02*
X10700991Y-9499174D01*
X10700991Y-9499174D02*
X10681944Y-9489650D01*
X10681944Y-9489650D02*
X10643848Y-9489650D01*
X10643848Y-9489650D02*
X10624801Y-9499174D01*
X10710515Y-9613460D02*
X10691467Y-9622984D01*
X10691467Y-9622984D02*
X10643848Y-9622984D01*
X10643848Y-9622984D02*
X10624801Y-9613460D01*
X10624801Y-9613460D02*
X10615277Y-9594412D01*
X10615277Y-9594412D02*
X10615277Y-9575365D01*
X10615277Y-9575365D02*
X10624801Y-9556317D01*
X10624801Y-9556317D02*
X10643848Y-9546793D01*
X10643848Y-9546793D02*
X10691467Y-9546793D01*
X10691467Y-9546793D02*
X10710515Y-9537270D01*
X10805753Y-9489650D02*
X10805753Y-9689650D01*
X10805753Y-9499174D02*
X10824801Y-9489650D01*
X10824801Y-9489650D02*
X10862896Y-9489650D01*
X10862896Y-9489650D02*
X10881944Y-9499174D01*
X10881944Y-9499174D02*
X10891467Y-9508698D01*
X10891467Y-9508698D02*
X10900991Y-9527746D01*
X10900991Y-9527746D02*
X10900991Y-9584889D01*
X10900991Y-9584889D02*
X10891467Y-9603936D01*
X10891467Y-9603936D02*
X10881944Y-9613460D01*
X10881944Y-9613460D02*
X10862896Y-9622984D01*
X10862896Y-9622984D02*
X10824801Y-9622984D01*
X10824801Y-9622984D02*
X10805753Y-9613460D01*
X10986705Y-9603936D02*
X10996229Y-9613460D01*
X10996229Y-9613460D02*
X10986705Y-9622984D01*
X10986705Y-9622984D02*
X10977182Y-9613460D01*
X10977182Y-9613460D02*
X10986705Y-9603936D01*
X10986705Y-9603936D02*
X10986705Y-9622984D01*
X10986705Y-9499174D02*
X10996229Y-9508698D01*
X10996229Y-9508698D02*
X10986705Y-9518222D01*
X10986705Y-9518222D02*
X10977182Y-9508698D01*
X10977182Y-9508698D02*
X10986705Y-9499174D01*
X10986705Y-9499174D02*
X10986705Y-9518222D01*
D12*
X9254500Y-9901500D02*
X9354500Y-10001500D01*
X9354500Y-9901500D02*
X9254500Y-10001500D01*
D11*
X9720039Y-10042984D02*
X9605753Y-10042984D01*
X9662896Y-10042984D02*
X9662896Y-9842984D01*
X9662896Y-9842984D02*
X9643848Y-9871555D01*
X9643848Y-9871555D02*
X9624801Y-9890603D01*
X9624801Y-9890603D02*
X9605753Y-9900127D01*
X9805753Y-10023936D02*
X9815277Y-10033460D01*
X9815277Y-10033460D02*
X9805753Y-10042984D01*
X9805753Y-10042984D02*
X9796229Y-10033460D01*
X9796229Y-10033460D02*
X9805753Y-10023936D01*
X9805753Y-10023936D02*
X9805753Y-10042984D01*
X9939086Y-9842984D02*
X9958134Y-9842984D01*
X9958134Y-9842984D02*
X9977182Y-9852508D01*
X9977182Y-9852508D02*
X9986705Y-9862031D01*
X9986705Y-9862031D02*
X9996229Y-9881079D01*
X9996229Y-9881079D02*
X10005753Y-9919174D01*
X10005753Y-9919174D02*
X10005753Y-9966793D01*
X10005753Y-9966793D02*
X9996229Y-10004889D01*
X9996229Y-10004889D02*
X9986705Y-10023936D01*
X9986705Y-10023936D02*
X9977182Y-10033460D01*
X9977182Y-10033460D02*
X9958134Y-10042984D01*
X9958134Y-10042984D02*
X9939086Y-10042984D01*
X9939086Y-10042984D02*
X9920039Y-10033460D01*
X9920039Y-10033460D02*
X9910515Y-10023936D01*
X9910515Y-10023936D02*
X9900991Y-10004889D01*
X9900991Y-10004889D02*
X9891467Y-9966793D01*
X9891467Y-9966793D02*
X9891467Y-9919174D01*
X9891467Y-9919174D02*
X9900991Y-9881079D01*
X9900991Y-9881079D02*
X9910515Y-9862031D01*
X9910515Y-9862031D02*
X9920039Y-9852508D01*
X9920039Y-9852508D02*
X9939086Y-9842984D01*
X10129563Y-9842984D02*
X10148610Y-9842984D01*
X10148610Y-9842984D02*
X10167658Y-9852508D01*
X10167658Y-9852508D02*
X10177182Y-9862031D01*
X10177182Y-9862031D02*
X10186705Y-9881079D01*
X10186705Y-9881079D02*
X10196229Y-9919174D01*
X10196229Y-9919174D02*
X10196229Y-9966793D01*
X10196229Y-9966793D02*
X10186705Y-10004889D01*
X10186705Y-10004889D02*
X10177182Y-10023936D01*
X10177182Y-10023936D02*
X10167658Y-10033460D01*
X10167658Y-10033460D02*
X10148610Y-10042984D01*
X10148610Y-10042984D02*
X10129563Y-10042984D01*
X10129563Y-10042984D02*
X10110515Y-10033460D01*
X10110515Y-10033460D02*
X10100991Y-10023936D01*
X10100991Y-10023936D02*
X10091467Y-10004889D01*
X10091467Y-10004889D02*
X10081944Y-9966793D01*
X10081944Y-9966793D02*
X10081944Y-9919174D01*
X10081944Y-9919174D02*
X10091467Y-9881079D01*
X10091467Y-9881079D02*
X10100991Y-9862031D01*
X10100991Y-9862031D02*
X10110515Y-9852508D01*
X10110515Y-9852508D02*
X10129563Y-9842984D01*
X10320039Y-9842984D02*
X10339086Y-9842984D01*
X10339086Y-9842984D02*
X10358134Y-9852508D01*
X10358134Y-9852508D02*
X10367658Y-9862031D01*
X10367658Y-9862031D02*
X10377182Y-9881079D01*
X10377182Y-9881079D02*
X10386705Y-9919174D01*
X10386705Y-9919174D02*
X10386705Y-9966793D01*
X10386705Y-9966793D02*
X10377182Y-10004889D01*
X10377182Y-10004889D02*
X10367658Y-10023936D01*
X10367658Y-10023936D02*
X10358134Y-10033460D01*
X10358134Y-10033460D02*
X10339086Y-10042984D01*
X10339086Y-10042984D02*
X10320039Y-10042984D01*
X10320039Y-10042984D02*
X10300991Y-10033460D01*
X10300991Y-10033460D02*
X10291467Y-10023936D01*
X10291467Y-10023936D02*
X10281944Y-10004889D01*
X10281944Y-10004889D02*
X10272420Y-9966793D01*
X10272420Y-9966793D02*
X10272420Y-9919174D01*
X10272420Y-9919174D02*
X10281944Y-9881079D01*
X10281944Y-9881079D02*
X10291467Y-9862031D01*
X10291467Y-9862031D02*
X10300991Y-9852508D01*
X10300991Y-9852508D02*
X10320039Y-9842984D01*
X10472420Y-10042984D02*
X10472420Y-9909650D01*
X10472420Y-9928698D02*
X10481944Y-9919174D01*
X10481944Y-9919174D02*
X10500991Y-9909650D01*
X10500991Y-9909650D02*
X10529563Y-9909650D01*
X10529563Y-9909650D02*
X10548610Y-9919174D01*
X10548610Y-9919174D02*
X10558134Y-9938222D01*
X10558134Y-9938222D02*
X10558134Y-10042984D01*
X10558134Y-9938222D02*
X10567658Y-9919174D01*
X10567658Y-9919174D02*
X10586705Y-9909650D01*
X10586705Y-9909650D02*
X10615277Y-9909650D01*
X10615277Y-9909650D02*
X10634325Y-9919174D01*
X10634325Y-9919174D02*
X10643848Y-9938222D01*
X10643848Y-9938222D02*
X10643848Y-10042984D01*
X10739086Y-10042984D02*
X10739086Y-9909650D01*
X10739086Y-9928698D02*
X10748610Y-9919174D01*
X10748610Y-9919174D02*
X10767658Y-9909650D01*
X10767658Y-9909650D02*
X10796229Y-9909650D01*
X10796229Y-9909650D02*
X10815277Y-9919174D01*
X10815277Y-9919174D02*
X10824801Y-9938222D01*
X10824801Y-9938222D02*
X10824801Y-10042984D01*
X10824801Y-9938222D02*
X10834325Y-9919174D01*
X10834325Y-9919174D02*
X10853372Y-9909650D01*
X10853372Y-9909650D02*
X10881944Y-9909650D01*
X10881944Y-9909650D02*
X10900991Y-9919174D01*
X10900991Y-9919174D02*
X10910515Y-9938222D01*
X10910515Y-9938222D02*
X10910515Y-10042984D01*
X11300991Y-9833460D02*
X11129563Y-10090603D01*
X11558134Y-9842984D02*
X11577182Y-9842984D01*
X11577182Y-9842984D02*
X11596229Y-9852508D01*
X11596229Y-9852508D02*
X11605753Y-9862031D01*
X11605753Y-9862031D02*
X11615277Y-9881079D01*
X11615277Y-9881079D02*
X11624801Y-9919174D01*
X11624801Y-9919174D02*
X11624801Y-9966793D01*
X11624801Y-9966793D02*
X11615277Y-10004889D01*
X11615277Y-10004889D02*
X11605753Y-10023936D01*
X11605753Y-10023936D02*
X11596229Y-10033460D01*
X11596229Y-10033460D02*
X11577182Y-10042984D01*
X11577182Y-10042984D02*
X11558134Y-10042984D01*
X11558134Y-10042984D02*
X11539086Y-10033460D01*
X11539086Y-10033460D02*
X11529563Y-10023936D01*
X11529563Y-10023936D02*
X11520039Y-10004889D01*
X11520039Y-10004889D02*
X11510515Y-9966793D01*
X11510515Y-9966793D02*
X11510515Y-9919174D01*
X11510515Y-9919174D02*
X11520039Y-9881079D01*
X11520039Y-9881079D02*
X11529563Y-9862031D01*
X11529563Y-9862031D02*
X11539086Y-9852508D01*
X11539086Y-9852508D02*
X11558134Y-9842984D01*
X11710515Y-10023936D02*
X11720039Y-10033460D01*
X11720039Y-10033460D02*
X11710515Y-10042984D01*
X11710515Y-10042984D02*
X11700991Y-10033460D01*
X11700991Y-10033460D02*
X11710515Y-10023936D01*
X11710515Y-10023936D02*
X11710515Y-10042984D01*
X11843848Y-9842984D02*
X11862896Y-9842984D01*
X11862896Y-9842984D02*
X11881944Y-9852508D01*
X11881944Y-9852508D02*
X11891467Y-9862031D01*
X11891467Y-9862031D02*
X11900991Y-9881079D01*
X11900991Y-9881079D02*
X11910515Y-9919174D01*
X11910515Y-9919174D02*
X11910515Y-9966793D01*
X11910515Y-9966793D02*
X11900991Y-10004889D01*
X11900991Y-10004889D02*
X11891467Y-10023936D01*
X11891467Y-10023936D02*
X11881944Y-10033460D01*
X11881944Y-10033460D02*
X11862896Y-10042984D01*
X11862896Y-10042984D02*
X11843848Y-10042984D01*
X11843848Y-10042984D02*
X11824801Y-10033460D01*
X11824801Y-10033460D02*
X11815277Y-10023936D01*
X11815277Y-10023936D02*
X11805753Y-10004889D01*
X11805753Y-10004889D02*
X11796229Y-9966793D01*
X11796229Y-9966793D02*
X11796229Y-9919174D01*
X11796229Y-9919174D02*
X11805753Y-9881079D01*
X11805753Y-9881079D02*
X11815277Y-9862031D01*
X11815277Y-9862031D02*
X11824801Y-9852508D01*
X11824801Y-9852508D02*
X11843848Y-9842984D01*
X11977182Y-9842984D02*
X12100991Y-9842984D01*
X12100991Y-9842984D02*
X12034325Y-9919174D01*
X12034325Y-9919174D02*
X12062896Y-9919174D01*
X12062896Y-9919174D02*
X12081944Y-9928698D01*
X12081944Y-9928698D02*
X12091467Y-9938222D01*
X12091467Y-9938222D02*
X12100991Y-9957270D01*
X12100991Y-9957270D02*
X12100991Y-10004889D01*
X12100991Y-10004889D02*
X12091467Y-10023936D01*
X12091467Y-10023936D02*
X12081944Y-10033460D01*
X12081944Y-10033460D02*
X12062896Y-10042984D01*
X12062896Y-10042984D02*
X12005753Y-10042984D01*
X12005753Y-10042984D02*
X11986706Y-10033460D01*
X11986706Y-10033460D02*
X11977182Y-10023936D01*
X12196229Y-10042984D02*
X12234325Y-10042984D01*
X12234325Y-10042984D02*
X12253372Y-10033460D01*
X12253372Y-10033460D02*
X12262896Y-10023936D01*
X12262896Y-10023936D02*
X12281944Y-9995365D01*
X12281944Y-9995365D02*
X12291467Y-9957270D01*
X12291467Y-9957270D02*
X12291467Y-9881079D01*
X12291467Y-9881079D02*
X12281944Y-9862031D01*
X12281944Y-9862031D02*
X12272420Y-9852508D01*
X12272420Y-9852508D02*
X12253372Y-9842984D01*
X12253372Y-9842984D02*
X12215277Y-9842984D01*
X12215277Y-9842984D02*
X12196229Y-9852508D01*
X12196229Y-9852508D02*
X12186706Y-9862031D01*
X12186706Y-9862031D02*
X12177182Y-9881079D01*
X12177182Y-9881079D02*
X12177182Y-9928698D01*
X12177182Y-9928698D02*
X12186706Y-9947746D01*
X12186706Y-9947746D02*
X12196229Y-9957270D01*
X12196229Y-9957270D02*
X12215277Y-9966793D01*
X12215277Y-9966793D02*
X12253372Y-9966793D01*
X12253372Y-9966793D02*
X12272420Y-9957270D01*
X12272420Y-9957270D02*
X12281944Y-9947746D01*
X12281944Y-9947746D02*
X12291467Y-9928698D01*
X12462896Y-9909650D02*
X12462896Y-10042984D01*
X12415277Y-9833460D02*
X12367658Y-9976317D01*
X12367658Y-9976317D02*
X12491467Y-9976317D01*
X12558134Y-9842984D02*
X12558134Y-9881079D01*
X12634325Y-9842984D02*
X12634325Y-9881079D01*
X12929563Y-10119174D02*
X12920039Y-10109650D01*
X12920039Y-10109650D02*
X12900991Y-10081079D01*
X12900991Y-10081079D02*
X12891468Y-10062031D01*
X12891468Y-10062031D02*
X12881944Y-10033460D01*
X12881944Y-10033460D02*
X12872420Y-9985841D01*
X12872420Y-9985841D02*
X12872420Y-9947746D01*
X12872420Y-9947746D02*
X12881944Y-9900127D01*
X12881944Y-9900127D02*
X12891468Y-9871555D01*
X12891468Y-9871555D02*
X12900991Y-9852508D01*
X12900991Y-9852508D02*
X12920039Y-9823936D01*
X12920039Y-9823936D02*
X12929563Y-9814412D01*
X13100991Y-9842984D02*
X13005753Y-9842984D01*
X13005753Y-9842984D02*
X12996229Y-9938222D01*
X12996229Y-9938222D02*
X13005753Y-9928698D01*
X13005753Y-9928698D02*
X13024801Y-9919174D01*
X13024801Y-9919174D02*
X13072420Y-9919174D01*
X13072420Y-9919174D02*
X13091468Y-9928698D01*
X13091468Y-9928698D02*
X13100991Y-9938222D01*
X13100991Y-9938222D02*
X13110515Y-9957270D01*
X13110515Y-9957270D02*
X13110515Y-10004889D01*
X13110515Y-10004889D02*
X13100991Y-10023936D01*
X13100991Y-10023936D02*
X13091468Y-10033460D01*
X13091468Y-10033460D02*
X13072420Y-10042984D01*
X13072420Y-10042984D02*
X13024801Y-10042984D01*
X13024801Y-10042984D02*
X13005753Y-10033460D01*
X13005753Y-10033460D02*
X12996229Y-10023936D01*
X13205753Y-10042984D02*
X13243848Y-10042984D01*
X13243848Y-10042984D02*
X13262896Y-10033460D01*
X13262896Y-10033460D02*
X13272420Y-10023936D01*
X13272420Y-10023936D02*
X13291468Y-9995365D01*
X13291468Y-9995365D02*
X13300991Y-9957270D01*
X13300991Y-9957270D02*
X13300991Y-9881079D01*
X13300991Y-9881079D02*
X13291468Y-9862031D01*
X13291468Y-9862031D02*
X13281944Y-9852508D01*
X13281944Y-9852508D02*
X13262896Y-9842984D01*
X13262896Y-9842984D02*
X13224801Y-9842984D01*
X13224801Y-9842984D02*
X13205753Y-9852508D01*
X13205753Y-9852508D02*
X13196229Y-9862031D01*
X13196229Y-9862031D02*
X13186706Y-9881079D01*
X13186706Y-9881079D02*
X13186706Y-9928698D01*
X13186706Y-9928698D02*
X13196229Y-9947746D01*
X13196229Y-9947746D02*
X13205753Y-9957270D01*
X13205753Y-9957270D02*
X13224801Y-9966793D01*
X13224801Y-9966793D02*
X13262896Y-9966793D01*
X13262896Y-9966793D02*
X13281944Y-9957270D01*
X13281944Y-9957270D02*
X13291468Y-9947746D01*
X13291468Y-9947746D02*
X13300991Y-9928698D01*
X13377182Y-9862031D02*
X13386706Y-9852508D01*
X13386706Y-9852508D02*
X13405753Y-9842984D01*
X13405753Y-9842984D02*
X13453372Y-9842984D01*
X13453372Y-9842984D02*
X13472420Y-9852508D01*
X13472420Y-9852508D02*
X13481944Y-9862031D01*
X13481944Y-9862031D02*
X13491468Y-9881079D01*
X13491468Y-9881079D02*
X13491468Y-9900127D01*
X13491468Y-9900127D02*
X13481944Y-9928698D01*
X13481944Y-9928698D02*
X13367658Y-10042984D01*
X13367658Y-10042984D02*
X13491468Y-10042984D01*
X13729563Y-10042984D02*
X13729563Y-9842984D01*
X13815277Y-10042984D02*
X13815277Y-9938222D01*
X13815277Y-9938222D02*
X13805753Y-9919174D01*
X13805753Y-9919174D02*
X13786706Y-9909650D01*
X13786706Y-9909650D02*
X13758134Y-9909650D01*
X13758134Y-9909650D02*
X13739087Y-9919174D01*
X13739087Y-9919174D02*
X13729563Y-9928698D01*
X13939087Y-10042984D02*
X13920039Y-10033460D01*
X13920039Y-10033460D02*
X13910515Y-10023936D01*
X13910515Y-10023936D02*
X13900991Y-10004889D01*
X13900991Y-10004889D02*
X13900991Y-9947746D01*
X13900991Y-9947746D02*
X13910515Y-9928698D01*
X13910515Y-9928698D02*
X13920039Y-9919174D01*
X13920039Y-9919174D02*
X13939087Y-9909650D01*
X13939087Y-9909650D02*
X13967658Y-9909650D01*
X13967658Y-9909650D02*
X13986706Y-9919174D01*
X13986706Y-9919174D02*
X13996230Y-9928698D01*
X13996230Y-9928698D02*
X14005753Y-9947746D01*
X14005753Y-9947746D02*
X14005753Y-10004889D01*
X14005753Y-10004889D02*
X13996230Y-10023936D01*
X13996230Y-10023936D02*
X13986706Y-10033460D01*
X13986706Y-10033460D02*
X13967658Y-10042984D01*
X13967658Y-10042984D02*
X13939087Y-10042984D01*
X14120039Y-10042984D02*
X14100991Y-10033460D01*
X14100991Y-10033460D02*
X14091468Y-10014412D01*
X14091468Y-10014412D02*
X14091468Y-9842984D01*
X14272420Y-10033460D02*
X14253372Y-10042984D01*
X14253372Y-10042984D02*
X14215277Y-10042984D01*
X14215277Y-10042984D02*
X14196230Y-10033460D01*
X14196230Y-10033460D02*
X14186706Y-10014412D01*
X14186706Y-10014412D02*
X14186706Y-9938222D01*
X14186706Y-9938222D02*
X14196230Y-9919174D01*
X14196230Y-9919174D02*
X14215277Y-9909650D01*
X14215277Y-9909650D02*
X14253372Y-9909650D01*
X14253372Y-9909650D02*
X14272420Y-9919174D01*
X14272420Y-9919174D02*
X14281944Y-9938222D01*
X14281944Y-9938222D02*
X14281944Y-9957270D01*
X14281944Y-9957270D02*
X14186706Y-9976317D01*
X14358134Y-10033460D02*
X14377182Y-10042984D01*
X14377182Y-10042984D02*
X14415277Y-10042984D01*
X14415277Y-10042984D02*
X14434325Y-10033460D01*
X14434325Y-10033460D02*
X14443849Y-10014412D01*
X14443849Y-10014412D02*
X14443849Y-10004889D01*
X14443849Y-10004889D02*
X14434325Y-9985841D01*
X14434325Y-9985841D02*
X14415277Y-9976317D01*
X14415277Y-9976317D02*
X14386706Y-9976317D01*
X14386706Y-9976317D02*
X14367658Y-9966793D01*
X14367658Y-9966793D02*
X14358134Y-9947746D01*
X14358134Y-9947746D02*
X14358134Y-9938222D01*
X14358134Y-9938222D02*
X14367658Y-9919174D01*
X14367658Y-9919174D02*
X14386706Y-9909650D01*
X14386706Y-9909650D02*
X14415277Y-9909650D01*
X14415277Y-9909650D02*
X14434325Y-9919174D01*
X14510515Y-10119174D02*
X14520039Y-10109650D01*
X14520039Y-10109650D02*
X14539087Y-10081079D01*
X14539087Y-10081079D02*
X14548611Y-10062031D01*
X14548611Y-10062031D02*
X14558134Y-10033460D01*
X14558134Y-10033460D02*
X14567658Y-9985841D01*
X14567658Y-9985841D02*
X14567658Y-9947746D01*
X14567658Y-9947746D02*
X14558134Y-9900127D01*
X14558134Y-9900127D02*
X14548611Y-9871555D01*
X14548611Y-9871555D02*
X14539087Y-9852508D01*
X14539087Y-9852508D02*
X14520039Y-9823936D01*
X14520039Y-9823936D02*
X14510515Y-9814412D01*
M02*
