M48
; DRILL file {KiCad 8.0.1} date 2024-04-20T17:55:09+0200
; FORMAT={-:-/ absolute / inch / decimal}
; #@! TF.CreationDate,2024-04-20T17:55:09+02:00
; #@! TF.GenerationSoftware,Kicad,Pcbnew,8.0.1
; #@! TF.FileFunction,Plated,1,2,PTH
FMAT,2
INCH
; #@! TA.AperFunction,Plated,PTH,ComponentDrill
T1C0.0394
%
G90
G05
T1
X3.7937Y-1.6551
X3.7937Y-1.6551
X3.7937Y-1.7551
X3.7937Y-1.7551
X3.7937Y-1.8551
X3.7937Y-1.8551
X3.7937Y-1.8551
X3.7937Y-1.9551
X3.7937Y-1.9551
X3.7937Y-1.9551
X3.7937Y-2.0551
X3.7937Y-2.0551
X3.7937Y-2.0553
X3.7937Y-2.1551
X3.7937Y-2.1551
X3.7937Y-2.1551
X3.7937Y-2.2551
X3.7937Y-2.2551
X3.7937Y-2.2551
X3.7937Y-2.3551
X3.7937Y-2.3551
X3.7937Y-2.3553
X3.7937Y-2.4551
X3.7937Y-2.4551
X3.7937Y-2.4551
X3.7937Y-2.5551
X3.7937Y-2.5551
X3.7937Y-2.5551
X3.7937Y-2.6551
X3.7937Y-2.6551
X3.7937Y-2.6553
X3.7937Y-2.7551
X3.7937Y-2.7551
X3.7937Y-2.7551
X3.7937Y-2.8551
X3.7937Y-2.8551
X3.7937Y-2.8551
X3.7937Y-2.9551
X3.7937Y-2.9551
X3.7937Y-2.9553
X3.7937Y-3.0551
X3.7937Y-3.0551
X3.7937Y-3.0551
X3.7937Y-3.1551
X3.7937Y-3.1551
X3.7937Y-3.1551
X3.7937Y-3.2551
X3.7937Y-3.2551
X3.7937Y-3.2553
X3.7937Y-3.3551
X3.7937Y-3.3551
X3.7937Y-3.3551
X3.7937Y-3.4551
X3.7937Y-3.4551
X3.7937Y-3.5551
X3.7937Y-3.5551
X3.8937Y-1.6551
X3.8937Y-1.6551
X3.8937Y-1.7551
X3.8937Y-1.7551
X3.8937Y-1.8551
X3.8937Y-1.8551
X3.8937Y-1.8551
X3.8937Y-1.9551
X3.8937Y-1.9551
X3.8937Y-1.9551
X3.8937Y-2.0551
X3.8937Y-2.0551
X3.8937Y-2.0553
X3.8937Y-2.1551
X3.8937Y-2.1551
X3.8937Y-2.1551
X3.8937Y-2.2551
X3.8937Y-2.2551
X3.8937Y-2.2551
X3.8937Y-2.3551
X3.8937Y-2.3551
X3.8937Y-2.3553
X3.8937Y-2.4551
X3.8937Y-2.4551
X3.8937Y-2.4551
X3.8937Y-2.5551
X3.8937Y-2.5551
X3.8937Y-2.5551
X3.8937Y-2.6551
X3.8937Y-2.6551
X3.8937Y-2.6553
X3.8937Y-2.7551
X3.8937Y-2.7551
X3.8937Y-2.7551
X3.8937Y-2.8551
X3.8937Y-2.8551
X3.8937Y-2.8551
X3.8937Y-2.9551
X3.8937Y-2.9551
X3.8937Y-2.9553
X3.8937Y-3.0551
X3.8937Y-3.0551
X3.8937Y-3.0551
X3.8937Y-3.1551
X3.8937Y-3.1551
X3.8937Y-3.1551
X3.8937Y-3.2551
X3.8937Y-3.2551
X3.8937Y-3.2553
X3.8937Y-3.3551
X3.8937Y-3.3551
X3.8937Y-3.3551
X3.8937Y-3.4551
X3.8937Y-3.4551
X3.8937Y-3.5551
X3.8937Y-3.5551
X3.9937Y-1.6551
X3.9937Y-1.6551
X3.9937Y-1.7551
X3.9937Y-1.7551
X3.9937Y-1.8551
X3.9937Y-1.8551
X3.9937Y-1.8551
X3.9937Y-1.9551
X3.9937Y-1.9551
X3.9937Y-1.9551
X3.9937Y-2.0551
X3.9937Y-2.0551
X3.9937Y-2.0553
X3.9937Y-2.1551
X3.9937Y-2.1551
X3.9937Y-2.1551
X3.9937Y-2.2551
X3.9937Y-2.2551
X3.9937Y-2.2551
X3.9937Y-2.3551
X3.9937Y-2.3551
X3.9937Y-2.3553
X3.9937Y-2.4551
X3.9937Y-2.4551
X3.9937Y-2.4551
X3.9937Y-2.5551
X3.9937Y-2.5551
X3.9937Y-2.5551
X3.9937Y-2.6551
X3.9937Y-2.6551
X3.9937Y-2.6553
X3.9937Y-2.7551
X3.9937Y-2.7551
X3.9937Y-2.7551
X3.9937Y-2.8551
X3.9937Y-2.8551
X3.9937Y-2.8551
X3.9937Y-2.9551
X3.9937Y-2.9551
X3.9937Y-2.9553
X3.9937Y-3.0551
X3.9937Y-3.0551
X3.9937Y-3.0551
X3.9937Y-3.1551
X3.9937Y-3.1551
X3.9937Y-3.1551
X3.9937Y-3.2551
X3.9937Y-3.2551
X3.9937Y-3.2553
X3.9937Y-3.3551
X3.9937Y-3.3551
X3.9937Y-3.3551
X3.9937Y-3.4551
X3.9937Y-3.4551
X3.9937Y-3.5551
X3.9937Y-3.5551
X4.0937Y-1.6551
X4.0937Y-1.6551
X4.0937Y-1.7551
X4.0937Y-1.7551
X4.0937Y-1.8551
X4.0937Y-1.8551
X4.0937Y-1.8551
X4.0937Y-1.9551
X4.0937Y-1.9551
X4.0937Y-1.9551
X4.0937Y-2.0551
X4.0937Y-2.0551
X4.0937Y-2.0553
X4.0937Y-2.1551
X4.0937Y-2.1551
X4.0937Y-2.1551
X4.0937Y-2.2551
X4.0937Y-2.2551
X4.0937Y-2.2551
X4.0937Y-2.3551
X4.0937Y-2.3551
X4.0937Y-2.3553
X4.0937Y-2.4551
X4.0937Y-2.4551
X4.0937Y-2.4551
X4.0937Y-2.5551
X4.0937Y-2.5551
X4.0937Y-2.5551
X4.0937Y-2.6551
X4.0937Y-2.6551
X4.0937Y-2.6553
X4.0937Y-2.7551
X4.0937Y-2.7551
X4.0937Y-2.7551
X4.0937Y-2.8551
X4.0937Y-2.8551
X4.0937Y-2.8551
X4.0937Y-2.9551
X4.0937Y-2.9551
X4.0937Y-2.9553
X4.0937Y-3.0551
X4.0937Y-3.0551
X4.0937Y-3.0551
X4.0937Y-3.1551
X4.0937Y-3.1551
X4.0937Y-3.1551
X4.0937Y-3.2551
X4.0937Y-3.2551
X4.0937Y-3.2553
X4.0937Y-3.3551
X4.0937Y-3.3551
X4.0937Y-3.3551
X4.0937Y-3.4551
X4.0937Y-3.4551
X4.0937Y-3.5551
X4.0937Y-3.5551
X4.1937Y-1.8551
X4.1937Y-1.9551
X4.1937Y-2.0553
X4.1937Y-2.1551
X4.1937Y-2.2551
X4.1937Y-2.3553
X4.1937Y-2.4551
X4.1937Y-2.5551
X4.1937Y-2.6553
X4.1937Y-2.7551
X4.1937Y-2.8551
X4.1937Y-2.9553
X4.1937Y-3.0551
X4.1937Y-3.1551
X4.1937Y-3.2553
X4.1937Y-3.3551
X4.2937Y-1.8551
X4.2937Y-1.9551
X4.2937Y-2.0553
X4.2937Y-2.1551
X4.2937Y-2.2551
X4.2937Y-2.3553
X4.2937Y-2.4551
X4.2937Y-2.5551
X4.2937Y-2.6553
X4.2937Y-2.7551
X4.2937Y-2.8551
X4.2937Y-2.9553
X4.2937Y-3.0551
X4.2937Y-3.1551
X4.2937Y-3.2553
X4.2937Y-3.3551
X4.3937Y-1.8551
X4.3937Y-1.9551
X4.3937Y-2.0553
X4.3937Y-2.1551
X4.3937Y-2.2551
X4.3937Y-2.3553
X4.3937Y-2.4551
X4.3937Y-2.5551
X4.3937Y-2.6553
X4.3937Y-2.7551
X4.3937Y-2.8551
X4.3937Y-2.9553
X4.3937Y-3.0551
X4.3937Y-3.1551
X4.3937Y-3.2553
X4.3937Y-3.3551
X4.4339Y-3.5551
X4.4937Y-1.8551
X4.4937Y-1.9551
X4.4937Y-2.0553
X4.4937Y-2.1551
X4.4937Y-2.2551
X4.4937Y-2.3553
X4.4937Y-2.4551
X4.4937Y-2.5551
X4.4937Y-2.6553
X4.4937Y-2.7551
X4.4937Y-2.8551
X4.4937Y-2.9553
X4.4937Y-3.0551
X4.4937Y-3.1551
X4.4937Y-3.2553
X4.4937Y-3.3551
X4.5339Y-3.5551
X4.5937Y-1.8551
X4.5937Y-1.9551
X4.5937Y-2.0553
X4.5937Y-2.1551
X4.5937Y-2.2551
X4.5937Y-2.3553
X4.5937Y-2.4551
X4.5937Y-2.5551
X4.5937Y-2.6553
X4.5937Y-2.7551
X4.5937Y-2.8551
X4.5937Y-2.9553
X4.5937Y-3.0551
X4.5937Y-3.1551
X4.5937Y-3.2553
X4.5937Y-3.3551
X4.6339Y-3.5551
X4.6937Y-1.8551
X4.6937Y-1.9551
X4.6937Y-2.0553
X4.6937Y-2.1551
X4.6937Y-2.2551
X4.6937Y-2.3553
X4.6937Y-2.4551
X4.6937Y-2.5551
X4.6937Y-2.6553
X4.6937Y-2.7551
X4.6937Y-2.8551
X4.6937Y-2.9553
X4.6937Y-3.0551
X4.6937Y-3.1551
X4.6937Y-3.2553
X4.6937Y-3.3551
X4.7339Y-3.5551
X4.7937Y-1.6551
X4.7937Y-1.8551
X4.7937Y-1.9551
X4.7937Y-2.0553
X4.7937Y-2.1551
X4.7937Y-2.2551
X4.7937Y-2.3553
X4.7937Y-2.4551
X4.7937Y-2.5551
X4.7937Y-2.6553
X4.7937Y-2.7551
X4.7937Y-2.8551
X4.7937Y-2.9553
X4.7937Y-3.0551
X4.7937Y-3.1551
X4.7937Y-3.2553
X4.7937Y-3.3551
X4.8339Y-3.5551
X4.8937Y-1.6551
X4.8937Y-1.8551
X4.8937Y-1.9551
X4.8937Y-2.0553
X4.8937Y-2.1551
X4.8937Y-2.2551
X4.8937Y-2.3553
X4.8937Y-2.4551
X4.8937Y-2.5551
X4.8937Y-2.6553
X4.8937Y-2.7551
X4.8937Y-2.8551
X4.8937Y-2.9553
X4.8937Y-3.0551
X4.8937Y-3.1551
X4.8937Y-3.2553
X4.8937Y-3.3551
X4.9339Y-3.5551
X4.9937Y-1.6551
X4.9937Y-1.8551
X4.9937Y-1.9551
X4.9937Y-2.0553
X4.9937Y-2.1551
X4.9937Y-2.2551
X4.9937Y-2.3553
X4.9937Y-2.4551
X4.9937Y-2.5551
X4.9937Y-2.6553
X4.9937Y-2.7551
X4.9937Y-2.8551
X4.9937Y-2.9553
X4.9937Y-3.0551
X4.9937Y-3.1551
X4.9937Y-3.2553
X4.9937Y-3.3551
X5.0339Y-3.5551
X5.0937Y-1.6551
X5.0937Y-1.8551
X5.0937Y-1.9551
X5.0937Y-2.0553
X5.0937Y-2.1551
X5.0937Y-2.2551
X5.0937Y-2.3553
X5.0937Y-2.4551
X5.0937Y-2.5551
X5.0937Y-2.6553
X5.0937Y-2.7551
X5.0937Y-2.8551
X5.0937Y-2.9553
X5.0937Y-3.0551
X5.0937Y-3.1551
X5.0937Y-3.2553
X5.0937Y-3.3551
X5.1339Y-3.5551
X5.1937Y-1.6551
X5.1937Y-1.8551
X5.1937Y-1.9551
X5.1937Y-2.0553
X5.1937Y-2.1551
X5.1937Y-2.2551
X5.1937Y-2.3553
X5.1937Y-2.4551
X5.1937Y-2.5551
X5.1937Y-2.6553
X5.1937Y-2.7551
X5.1937Y-2.8551
X5.1937Y-2.9553
X5.1937Y-3.0551
X5.1937Y-3.1551
X5.1937Y-3.2553
X5.1937Y-3.3551
X5.2339Y-3.5551
X5.2937Y-1.6551
X5.2937Y-1.8551
X5.2937Y-1.9551
X5.2937Y-2.0553
X5.2937Y-2.1551
X5.2937Y-2.2551
X5.2937Y-2.3553
X5.2937Y-2.4551
X5.2937Y-2.5551
X5.2937Y-2.6553
X5.2937Y-2.7551
X5.2937Y-2.8551
X5.2937Y-2.9553
X5.2937Y-3.0551
X5.2937Y-3.1551
X5.2937Y-3.2553
X5.2937Y-3.3551
X5.3339Y-3.5551
X5.3937Y-1.6551
X5.3937Y-1.8551
X5.3937Y-1.9551
X5.3937Y-2.0553
X5.3937Y-2.1551
X5.3937Y-2.2551
X5.3937Y-2.3553
X5.3937Y-2.4551
X5.3937Y-2.5551
X5.3937Y-2.6553
X5.3937Y-2.7551
X5.3937Y-2.8551
X5.3937Y-2.9553
X5.3937Y-3.0551
X5.3937Y-3.1551
X5.3937Y-3.2553
X5.3937Y-3.3551
X5.4937Y-1.6551
X5.4937Y-1.8551
X5.4937Y-1.9551
X5.4937Y-2.0553
X5.4937Y-2.1551
X5.4937Y-2.2551
X5.4937Y-2.3553
X5.4937Y-2.4551
X5.4937Y-2.5551
X5.4937Y-2.6553
X5.4937Y-2.7551
X5.4937Y-2.8551
X5.4937Y-2.9553
X5.4937Y-3.0551
X5.4937Y-3.1551
X5.4937Y-3.2553
X5.4937Y-3.3551
X5.4937Y-3.5551
X5.5937Y-1.8551
X5.5937Y-1.9551
X5.5937Y-2.0553
X5.5937Y-2.1551
X5.5937Y-2.2551
X5.5937Y-2.3553
X5.5937Y-2.4551
X5.5937Y-2.5551
X5.5937Y-2.6553
X5.5937Y-2.7551
X5.5937Y-2.8551
X5.5937Y-2.9553
X5.5937Y-3.0551
X5.5937Y-3.1551
X5.5937Y-3.2553
X5.5937Y-3.3551
X5.5937Y-3.5551
X5.6937Y-1.6551
X5.6937Y-1.8551
X5.6937Y-1.9551
X5.6937Y-2.0553
X5.6937Y-2.1551
X5.6937Y-2.2551
X5.6937Y-2.3553
X5.6937Y-2.4551
X5.6937Y-2.5551
X5.6937Y-2.6553
X5.6937Y-2.7551
X5.6937Y-2.8551
X5.6937Y-2.9553
X5.6937Y-3.0551
X5.6937Y-3.1551
X5.6937Y-3.2553
X5.6937Y-3.3551
X5.6937Y-3.5551
X5.7937Y-1.6551
X5.7937Y-1.8551
X5.7937Y-1.9551
X5.7937Y-2.0553
X5.7937Y-2.1551
X5.7937Y-2.2551
X5.7937Y-2.3553
X5.7937Y-2.4551
X5.7937Y-2.5551
X5.7937Y-2.6553
X5.7937Y-2.7551
X5.7937Y-2.8551
X5.7937Y-2.9553
X5.7937Y-3.0551
X5.7937Y-3.1551
X5.7937Y-3.2553
X5.7937Y-3.3551
X5.7937Y-3.5551
X5.8937Y-1.6551
X5.8937Y-1.8551
X5.8937Y-1.9551
X5.8937Y-2.0553
X5.8937Y-2.1551
X5.8937Y-2.2551
X5.8937Y-2.3553
X5.8937Y-2.4551
X5.8937Y-2.5551
X5.8937Y-2.6553
X5.8937Y-2.7551
X5.8937Y-2.8551
X5.8937Y-2.9553
X5.8937Y-3.0551
X5.8937Y-3.1551
X5.8937Y-3.2553
X5.8937Y-3.3551
X5.8937Y-3.5551
X5.9937Y-1.6551
X5.9937Y-1.8551
X5.9937Y-1.9551
X5.9937Y-2.0553
X5.9937Y-2.1551
X5.9937Y-2.2551
X5.9937Y-2.3553
X5.9937Y-2.4551
X5.9937Y-2.5551
X5.9937Y-2.6553
X5.9937Y-2.7551
X5.9937Y-2.8551
X5.9937Y-2.9553
X5.9937Y-3.0551
X5.9937Y-3.1551
X5.9937Y-3.2553
X5.9937Y-3.3551
X5.9937Y-3.5551
X6.0937Y-1.6551
X6.0937Y-1.8551
X6.0937Y-1.9551
X6.0937Y-2.0553
X6.0937Y-2.1551
X6.0937Y-2.2551
X6.0937Y-2.3553
X6.0937Y-2.4551
X6.0937Y-2.5551
X6.0937Y-2.6553
X6.0937Y-2.7551
X6.0937Y-2.8551
X6.0937Y-2.9553
X6.0937Y-3.0551
X6.0937Y-3.1551
X6.0937Y-3.2553
X6.0937Y-3.3551
X6.0937Y-3.5551
X6.1937Y-1.6551
X6.1937Y-1.8551
X6.1937Y-1.9551
X6.1937Y-2.0553
X6.1937Y-2.1551
X6.1937Y-2.2551
X6.1937Y-2.3553
X6.1937Y-2.4551
X6.1937Y-2.5551
X6.1937Y-2.6553
X6.1937Y-2.7551
X6.1937Y-2.8551
X6.1937Y-2.9553
X6.1937Y-3.0551
X6.1937Y-3.1551
X6.1937Y-3.2553
X6.1937Y-3.3551
X6.1937Y-3.5551
M30
