%TF.GenerationSoftware,KiCad,Pcbnew,8.0.1*%
%TF.CreationDate,2024-04-20T18:08:00+02:00*%
%TF.ProjectId,proto_board_V3,70726f74-6f5f-4626-9f61-72645f56332e,rev?*%
%TF.SameCoordinates,Original*%
%TF.FileFunction,Legend,Top*%
%TF.FilePolarity,Positive*%
%FSLAX46Y46*%
G04 Gerber Fmt 4.6, Leading zero omitted, Abs format (unit mm)*
G04 Created by KiCad (PCBNEW 8.0.1) date 2024-04-20 18:08:00*
%MOMM*%
%LPD*%
G01*
G04 APERTURE LIST*
%ADD10C,0.250000*%
%ADD11C,0.100000*%
%ADD12C,0.200000*%
%ADD13C,0.120000*%
G04 APERTURE END LIST*
D10*
G36*
X88847362Y-79450000D02*
G01*
X89233510Y-79450000D01*
X89265607Y-79498380D01*
X89296501Y-79543686D01*
X89326194Y-79585918D01*
X89359316Y-79631303D01*
X89390802Y-79672505D01*
X89423340Y-79713800D01*
X89454206Y-79752674D01*
X89487820Y-79794760D01*
X89524182Y-79840058D01*
X89556582Y-79880259D01*
X89570076Y-79896964D01*
X89605736Y-79896964D01*
X89605736Y-79592637D01*
X89596943Y-79550872D01*
X89561284Y-79522295D01*
X89524403Y-79511304D01*
X89476043Y-79503244D01*
X89476043Y-79450000D01*
X89994082Y-79450000D01*
X89994082Y-79503244D01*
X89943676Y-79507230D01*
X89941570Y-79507397D01*
X89893698Y-79515457D01*
X89859504Y-79542079D01*
X89849734Y-79585310D01*
X89849734Y-80272365D01*
X89858039Y-80312665D01*
X89893698Y-80341974D01*
X89941483Y-80356829D01*
X89945233Y-80357606D01*
X89994082Y-80365910D01*
X89994082Y-80419155D01*
X89458946Y-80419155D01*
X89458946Y-80365910D01*
X89508139Y-80360291D01*
X89509993Y-80360048D01*
X89558564Y-80350174D01*
X89561284Y-80349302D01*
X89596943Y-80321214D01*
X89605736Y-80278715D01*
X89605736Y-79950209D01*
X89576915Y-79950209D01*
X89538034Y-79986130D01*
X89499032Y-80022843D01*
X89460952Y-80059188D01*
X89452107Y-80067690D01*
X89414422Y-80104344D01*
X89378578Y-80140494D01*
X89343939Y-80177514D01*
X89341465Y-80180286D01*
X89307147Y-80219402D01*
X89275519Y-80257817D01*
X89260865Y-80277250D01*
X89237503Y-80321780D01*
X89234975Y-80339043D01*
X89259644Y-80356873D01*
X89308605Y-80364109D01*
X89335115Y-80365910D01*
X89335115Y-80419155D01*
X88911353Y-80419155D01*
X88911353Y-80365910D01*
X88961332Y-80358873D01*
X89009206Y-80348169D01*
X89040558Y-80338066D01*
X89086105Y-80316087D01*
X89128064Y-80286553D01*
X89144117Y-80272854D01*
X89183442Y-80237386D01*
X89222377Y-80201151D01*
X89259421Y-80165148D01*
X89265505Y-80159036D01*
X89301482Y-80122753D01*
X89339797Y-80084209D01*
X89374297Y-80049561D01*
X89388115Y-80035694D01*
X89353479Y-79993516D01*
X89320442Y-79952929D01*
X89284857Y-79908906D01*
X89252328Y-79868437D01*
X89229602Y-79840055D01*
X89194823Y-79796930D01*
X89160096Y-79754200D01*
X89125420Y-79711865D01*
X89090795Y-79669925D01*
X89056223Y-79628380D01*
X89044710Y-79614619D01*
X89011095Y-79578806D01*
X88991221Y-79560886D01*
X88950882Y-79532741D01*
X88924298Y-79519609D01*
X88885219Y-79507885D01*
X88847362Y-79503244D01*
X88847362Y-79450000D01*
G37*
G36*
X88133633Y-79494704D02*
G01*
X88161537Y-79536462D01*
X88192913Y-79582684D01*
X88221987Y-79624665D01*
X88252999Y-79668280D01*
X88265331Y-79685205D01*
X88294930Y-79724864D01*
X88327521Y-79767117D01*
X88363104Y-79811965D01*
X88395986Y-79852471D01*
X88425066Y-79887683D01*
X88462679Y-79887683D01*
X88462679Y-79592882D01*
X88453642Y-79551116D01*
X88418227Y-79522295D01*
X88377194Y-79511060D01*
X88329567Y-79503244D01*
X88329567Y-79450000D01*
X88849560Y-79450000D01*
X88849560Y-79503244D01*
X88799066Y-79508635D01*
X88797048Y-79508862D01*
X88750642Y-79518387D01*
X88715715Y-79545743D01*
X88706678Y-79588729D01*
X88706678Y-80272365D01*
X88714249Y-80313398D01*
X88750642Y-80341974D01*
X88798941Y-80356099D01*
X88802665Y-80356873D01*
X88849560Y-80365910D01*
X88849560Y-80419155D01*
X88302700Y-80419155D01*
X88247538Y-80417760D01*
X88196693Y-80413574D01*
X88141378Y-80404867D01*
X88092279Y-80392141D01*
X88042855Y-80372216D01*
X88024263Y-80362002D01*
X87982589Y-80329869D01*
X87952822Y-80290378D01*
X87934962Y-80243529D01*
X87929009Y-80189323D01*
X87930690Y-80169783D01*
X88198408Y-80169783D01*
X88202736Y-80220309D01*
X88219780Y-80270781D01*
X88253119Y-80311688D01*
X88296048Y-80337275D01*
X88344591Y-80351319D01*
X88396030Y-80356453D01*
X88408457Y-80356629D01*
X88462679Y-80356629D01*
X88462679Y-79950209D01*
X88410655Y-79950209D01*
X88357390Y-79954363D01*
X88306681Y-79968721D01*
X88261205Y-79996362D01*
X88254096Y-80002721D01*
X88222391Y-80046264D01*
X88206239Y-80092709D01*
X88199279Y-80142168D01*
X88198408Y-80169783D01*
X87930690Y-80169783D01*
X87933665Y-80135201D01*
X87947633Y-80087416D01*
X87974075Y-80041754D01*
X87987871Y-80025680D01*
X88025713Y-79993046D01*
X88067524Y-79967607D01*
X88117029Y-79945526D01*
X88166657Y-79928960D01*
X88135998Y-79889547D01*
X88105835Y-79850894D01*
X88073238Y-79809227D01*
X88057969Y-79789741D01*
X88026507Y-79749960D01*
X87994405Y-79709752D01*
X87961661Y-79669116D01*
X87928276Y-79628053D01*
X87895704Y-79590099D01*
X87870390Y-79562840D01*
X87833686Y-79530369D01*
X87805422Y-79515457D01*
X87765366Y-79507397D01*
X87730439Y-79503244D01*
X87730439Y-79450000D01*
X88104131Y-79450000D01*
X88133633Y-79494704D01*
G37*
G36*
X86704863Y-80365910D02*
G01*
X86750293Y-80356873D01*
X86789371Y-80340020D01*
X86829992Y-80310253D01*
X86841884Y-80298011D01*
X86872990Y-80259977D01*
X86886824Y-80240858D01*
X86915189Y-80199284D01*
X86944412Y-80155468D01*
X86971447Y-80114117D01*
X86980614Y-80099930D01*
X87008905Y-80055848D01*
X87035187Y-80014621D01*
X87062539Y-79971470D01*
X87087348Y-79932135D01*
X87113270Y-79889497D01*
X87133754Y-79842986D01*
X87140666Y-79793716D01*
X87142294Y-79740253D01*
X87142302Y-79735519D01*
X87142302Y-79598255D01*
X87133021Y-79555024D01*
X87097850Y-79524982D01*
X87048269Y-79512526D01*
X86999972Y-79504017D01*
X86992581Y-79503244D01*
X86992581Y-79450000D01*
X87536022Y-79450000D01*
X87536022Y-79503244D01*
X87485246Y-79508139D01*
X87480823Y-79508618D01*
X87432151Y-79517691D01*
X87430265Y-79518387D01*
X87395582Y-79547208D01*
X87386301Y-79591416D01*
X87386301Y-79762142D01*
X87387034Y-79801709D01*
X87391674Y-79830530D01*
X87408283Y-79863503D01*
X87432935Y-79906058D01*
X87438569Y-79915771D01*
X87464749Y-79961322D01*
X87490532Y-80005652D01*
X87515918Y-80048761D01*
X87540907Y-80090648D01*
X87568292Y-80136293D01*
X87594943Y-80180353D01*
X87620859Y-80222829D01*
X87634940Y-80245743D01*
X87664345Y-80286940D01*
X87682079Y-80306071D01*
X87721223Y-80337735D01*
X87730439Y-80343440D01*
X87775380Y-80359071D01*
X87823251Y-80365910D01*
X87823251Y-80419155D01*
X87264668Y-80419155D01*
X87264668Y-80365910D01*
X87315329Y-80363517D01*
X87364917Y-80356451D01*
X87368471Y-80355408D01*
X87395094Y-80331716D01*
X87385324Y-80301674D01*
X87362980Y-80256629D01*
X87349909Y-80232065D01*
X87325278Y-80186765D01*
X87300154Y-80142185D01*
X87281521Y-80109699D01*
X87254793Y-80063885D01*
X87228601Y-80019593D01*
X87200120Y-79971943D01*
X87173321Y-79927494D01*
X87141989Y-79976969D01*
X87113207Y-80022566D01*
X87086974Y-80064286D01*
X87057767Y-80110983D01*
X87027977Y-80159022D01*
X87000472Y-80204042D01*
X86994047Y-80214724D01*
X86968287Y-80259532D01*
X86946916Y-80305526D01*
X86945198Y-80314619D01*
X86973775Y-80350034D01*
X87023234Y-80362075D01*
X87066099Y-80365910D01*
X87066099Y-80419155D01*
X86704863Y-80419155D01*
X86704863Y-80365910D01*
G37*
G36*
X86709993Y-79503244D02*
G01*
X86661063Y-79508411D01*
X86656992Y-79508862D01*
X86611074Y-79518387D01*
X86575659Y-79544766D01*
X86567110Y-79588729D01*
X86567110Y-80272365D01*
X86575415Y-80313642D01*
X86611074Y-80342707D01*
X86658415Y-80356532D01*
X86662365Y-80357362D01*
X86709993Y-80365910D01*
X86709993Y-80419155D01*
X86172170Y-80419155D01*
X86115431Y-80417706D01*
X86063367Y-80413359D01*
X86007062Y-80404317D01*
X85957488Y-80391102D01*
X85908160Y-80370411D01*
X85889825Y-80359804D01*
X85848899Y-80326328D01*
X85819666Y-80285005D01*
X85802127Y-80235836D01*
X85796371Y-80186376D01*
X85796280Y-80178820D01*
X85798987Y-80143161D01*
X86064214Y-80143161D01*
X86066993Y-80193887D01*
X86076760Y-80242597D01*
X86098248Y-80290115D01*
X86108667Y-80304117D01*
X86151543Y-80336116D01*
X86202123Y-80351501D01*
X86252307Y-80356424D01*
X86266203Y-80356629D01*
X86323112Y-80356629D01*
X86323112Y-79934577D01*
X86294291Y-79934577D01*
X86241367Y-79937768D01*
X86189892Y-79948984D01*
X86142713Y-79970918D01*
X86123077Y-79985624D01*
X86089564Y-80027380D01*
X86071170Y-80076610D01*
X86064444Y-80130095D01*
X86064214Y-80143161D01*
X85798987Y-80143161D01*
X85800321Y-80125588D01*
X85812442Y-80077724D01*
X85830474Y-80038869D01*
X85859543Y-79998145D01*
X85895824Y-79963535D01*
X85924019Y-79943859D01*
X85968719Y-79920285D01*
X86017517Y-79901617D01*
X86065436Y-79888904D01*
X86116827Y-79880017D01*
X86166383Y-79874833D01*
X86219068Y-79872314D01*
X86243489Y-79872051D01*
X86323112Y-79872051D01*
X86323112Y-79596057D01*
X86314075Y-79552581D01*
X86278660Y-79523272D01*
X86233963Y-79511304D01*
X86184390Y-79503505D01*
X86181695Y-79503244D01*
X86181695Y-79450000D01*
X86709993Y-79450000D01*
X86709993Y-79503244D01*
G37*
G36*
X84822972Y-80137787D02*
G01*
X84875973Y-80137787D01*
X84895551Y-80186136D01*
X84919893Y-80232688D01*
X84944361Y-80272365D01*
X84975764Y-80313911D01*
X85015889Y-80345357D01*
X85031067Y-80349790D01*
X85081514Y-80354184D01*
X85085533Y-80354431D01*
X85135035Y-80356595D01*
X85140976Y-80356629D01*
X85173461Y-80356629D01*
X85173461Y-79598011D01*
X85164424Y-79554535D01*
X85129497Y-79524982D01*
X85080404Y-79512281D01*
X85031067Y-79504173D01*
X85023496Y-79503244D01*
X85023496Y-79450000D01*
X85566936Y-79450000D01*
X85566936Y-79503244D01*
X85517638Y-79508190D01*
X85511004Y-79508862D01*
X85462743Y-79517809D01*
X85461912Y-79518143D01*
X85426252Y-79547452D01*
X85417215Y-79591172D01*
X85417215Y-80356629D01*
X85449455Y-80356629D01*
X85499175Y-80354824D01*
X85505143Y-80354431D01*
X85555153Y-80350287D01*
X85559364Y-80349790D01*
X85603732Y-80325141D01*
X85637541Y-80285247D01*
X85646315Y-80272365D01*
X85673248Y-80228368D01*
X85697035Y-80182010D01*
X85714703Y-80137787D01*
X85767459Y-80137787D01*
X85767459Y-80419155D01*
X84822972Y-80419155D01*
X84822972Y-80137787D01*
G37*
G36*
X84299316Y-79420935D02*
G01*
X84350362Y-79427529D01*
X84399944Y-79438520D01*
X84448060Y-79453907D01*
X84494038Y-79473477D01*
X84537208Y-79497016D01*
X84582417Y-79528242D01*
X84615122Y-79556001D01*
X84652920Y-79595042D01*
X84686082Y-79638527D01*
X84711666Y-79680911D01*
X84728450Y-79715003D01*
X84746723Y-79763226D01*
X84759774Y-79814105D01*
X84767605Y-79867640D01*
X84770175Y-79916661D01*
X84770216Y-79923831D01*
X84768264Y-79975222D01*
X84762409Y-80024462D01*
X84750937Y-80078104D01*
X84734367Y-80128937D01*
X84729427Y-80141207D01*
X84707110Y-80188300D01*
X84680945Y-80231882D01*
X84650934Y-80271953D01*
X84617076Y-80308513D01*
X84580012Y-80340631D01*
X84539651Y-80368841D01*
X84495992Y-80393143D01*
X84449036Y-80413538D01*
X84399638Y-80429673D01*
X84348653Y-80441198D01*
X84296079Y-80448113D01*
X84241919Y-80450418D01*
X84188170Y-80448174D01*
X84136100Y-80441442D01*
X84085710Y-80430222D01*
X84036999Y-80414515D01*
X83990730Y-80394899D01*
X83947667Y-80371711D01*
X83903053Y-80341355D01*
X83871158Y-80314619D01*
X83836888Y-80279799D01*
X83806372Y-80241530D01*
X83779613Y-80199810D01*
X83756608Y-80154640D01*
X83738122Y-80106219D01*
X83724918Y-80054501D01*
X83716995Y-79999485D01*
X83714395Y-79948641D01*
X83714354Y-79941172D01*
X83714561Y-79936287D01*
X83989127Y-79936287D01*
X83990320Y-79989109D01*
X83993898Y-80041025D01*
X83999861Y-80092035D01*
X84001339Y-80102128D01*
X84010465Y-80150786D01*
X84024305Y-80200342D01*
X84042128Y-80245743D01*
X84067006Y-80289351D01*
X84100082Y-80328765D01*
X84120530Y-80346615D01*
X84164012Y-80371284D01*
X84215474Y-80383377D01*
X84241919Y-80384717D01*
X84293540Y-80379037D01*
X84339412Y-80361997D01*
X84379533Y-80333596D01*
X84413904Y-80293836D01*
X84430963Y-80266015D01*
X84452876Y-80218058D01*
X84470255Y-80163215D01*
X84481275Y-80112252D01*
X84489146Y-80056507D01*
X84493868Y-79995979D01*
X84495380Y-79944114D01*
X84495443Y-79930669D01*
X84494341Y-79879804D01*
X84491038Y-79830523D01*
X84484784Y-79777625D01*
X84481521Y-79757013D01*
X84471093Y-79708054D01*
X84455985Y-79658884D01*
X84437069Y-79614619D01*
X84411652Y-79572155D01*
X84378846Y-79534912D01*
X84358911Y-79518632D01*
X84313196Y-79495257D01*
X84263129Y-79485273D01*
X84241919Y-79484438D01*
X84189935Y-79490121D01*
X84141075Y-79508955D01*
X84125415Y-79518876D01*
X84086506Y-79554132D01*
X84057241Y-79595660D01*
X84047745Y-79613886D01*
X84028469Y-79659143D01*
X84013291Y-79708266D01*
X84003049Y-79756280D01*
X83995707Y-79808072D01*
X83991425Y-79858151D01*
X83989345Y-79911515D01*
X83989127Y-79936287D01*
X83714561Y-79936287D01*
X83716598Y-79888339D01*
X83723330Y-79836819D01*
X83734550Y-79786612D01*
X83750258Y-79737718D01*
X83770072Y-79691159D01*
X83793855Y-79647958D01*
X83825355Y-79603372D01*
X83853328Y-79571632D01*
X83890178Y-79537484D01*
X83930143Y-79507336D01*
X83973221Y-79481186D01*
X84019413Y-79459036D01*
X84069437Y-79441405D01*
X84124010Y-79428811D01*
X84175493Y-79421924D01*
X84230459Y-79418894D01*
X84246803Y-79418736D01*
X84299316Y-79420935D01*
G37*
G36*
X83215854Y-79418736D02*
G01*
X83265191Y-79420533D01*
X83317789Y-79426744D01*
X83368050Y-79437392D01*
X83382672Y-79441451D01*
X83432934Y-79458077D01*
X83481380Y-79478519D01*
X83513342Y-79495429D01*
X83560725Y-79450000D01*
X83619099Y-79450000D01*
X83628136Y-79793893D01*
X83569030Y-79793893D01*
X83548014Y-79746635D01*
X83523944Y-79700299D01*
X83518227Y-79690090D01*
X83491452Y-79647573D01*
X83461533Y-79608925D01*
X83446664Y-79592393D01*
X83411077Y-79558462D01*
X83369055Y-79528141D01*
X83353119Y-79518876D01*
X83304279Y-79499508D01*
X83252983Y-79491236D01*
X83231730Y-79490544D01*
X83182687Y-79494118D01*
X83132087Y-79508194D01*
X83088604Y-79535729D01*
X83056344Y-79576510D01*
X83040530Y-79625030D01*
X83038778Y-79650034D01*
X83048063Y-79699644D01*
X83075916Y-79741311D01*
X83081032Y-79746266D01*
X83123023Y-79776244D01*
X83170517Y-79798839D01*
X83211946Y-79813677D01*
X83260606Y-79829405D01*
X83308799Y-79845115D01*
X83317948Y-79848115D01*
X83364904Y-79864174D01*
X83409050Y-79880600D01*
X83454999Y-79902368D01*
X83499173Y-79931893D01*
X83535387Y-79966751D01*
X83555108Y-79992951D01*
X83580224Y-80040312D01*
X83596037Y-80091106D01*
X83602316Y-80139758D01*
X83602735Y-80156594D01*
X83598013Y-80205761D01*
X83583848Y-80253246D01*
X83578066Y-80266503D01*
X83551967Y-80310655D01*
X83520029Y-80348053D01*
X83505771Y-80361514D01*
X83464825Y-80391045D01*
X83419516Y-80414012D01*
X83389755Y-80425505D01*
X83339616Y-80439689D01*
X83286591Y-80447985D01*
X83235882Y-80450418D01*
X83186228Y-80448319D01*
X83133976Y-80441162D01*
X83084207Y-80428925D01*
X83035344Y-80412919D01*
X82989102Y-80394073D01*
X82972833Y-80385938D01*
X82930823Y-80419155D01*
X82871228Y-80419155D01*
X82865610Y-80090893D01*
X82924717Y-80090893D01*
X82944071Y-80138804D01*
X82964555Y-80184131D01*
X82973077Y-80201779D01*
X82996224Y-80244833D01*
X83024234Y-80286596D01*
X83031939Y-80296301D01*
X83068210Y-80332510D01*
X83109609Y-80360537D01*
X83157297Y-80378672D01*
X83208771Y-80384693D01*
X83212435Y-80384717D01*
X83264310Y-80378638D01*
X83311903Y-80358331D01*
X83333824Y-80341486D01*
X83364186Y-80303173D01*
X83379573Y-80254340D01*
X83380718Y-80234996D01*
X83371756Y-80184710D01*
X83344869Y-80143763D01*
X83339930Y-80139009D01*
X83299211Y-80110296D01*
X83252918Y-80088267D01*
X83212435Y-80073551D01*
X83164378Y-80057294D01*
X83115463Y-80041037D01*
X83108876Y-80038869D01*
X83061764Y-80023109D01*
X83014598Y-80005896D01*
X82967872Y-79984754D01*
X82922420Y-79956553D01*
X82884504Y-79923677D01*
X82863412Y-79899162D01*
X82835978Y-79853529D01*
X82819974Y-79806993D01*
X82812201Y-79755280D01*
X82811388Y-79730635D01*
X82816266Y-79679723D01*
X82830898Y-79630183D01*
X82840942Y-79607780D01*
X82868340Y-79562863D01*
X82902510Y-79524557D01*
X82920565Y-79509106D01*
X82964219Y-79479316D01*
X83008521Y-79456957D01*
X83047815Y-79442184D01*
X83095185Y-79429819D01*
X83147230Y-79422034D01*
X83198067Y-79418942D01*
X83215854Y-79418736D01*
G37*
G36*
X83962637Y-77810000D02*
G01*
X83576489Y-77810000D01*
X83544392Y-77761619D01*
X83513498Y-77716313D01*
X83483805Y-77674081D01*
X83450683Y-77628696D01*
X83419197Y-77587494D01*
X83386659Y-77546199D01*
X83355793Y-77507325D01*
X83322179Y-77465239D01*
X83285817Y-77419941D01*
X83253417Y-77379740D01*
X83239923Y-77363035D01*
X83204263Y-77363035D01*
X83204263Y-77667362D01*
X83213056Y-77709127D01*
X83248715Y-77737704D01*
X83285596Y-77748695D01*
X83333956Y-77756755D01*
X83333956Y-77810000D01*
X82815917Y-77810000D01*
X82815917Y-77756755D01*
X82866323Y-77752769D01*
X82868429Y-77752602D01*
X82916301Y-77744542D01*
X82950495Y-77717920D01*
X82960265Y-77674689D01*
X82960265Y-76987634D01*
X82951960Y-76947334D01*
X82916301Y-76918025D01*
X82868516Y-76903170D01*
X82864766Y-76902393D01*
X82815917Y-76894089D01*
X82815917Y-76840844D01*
X83351053Y-76840844D01*
X83351053Y-76894089D01*
X83301860Y-76899708D01*
X83300006Y-76899951D01*
X83251435Y-76909825D01*
X83248715Y-76910697D01*
X83213056Y-76938785D01*
X83204263Y-76981284D01*
X83204263Y-77309790D01*
X83233084Y-77309790D01*
X83271965Y-77273869D01*
X83310967Y-77237156D01*
X83349047Y-77200811D01*
X83357892Y-77192309D01*
X83395577Y-77155655D01*
X83431421Y-77119505D01*
X83466060Y-77082485D01*
X83468534Y-77079713D01*
X83502852Y-77040597D01*
X83534480Y-77002182D01*
X83549134Y-76982749D01*
X83572496Y-76938219D01*
X83575024Y-76920956D01*
X83550355Y-76903126D01*
X83501394Y-76895890D01*
X83474884Y-76894089D01*
X83474884Y-76840844D01*
X83898646Y-76840844D01*
X83898646Y-76894089D01*
X83848667Y-76901126D01*
X83800793Y-76911830D01*
X83769441Y-76921933D01*
X83723894Y-76943912D01*
X83681935Y-76973446D01*
X83665882Y-76987145D01*
X83626557Y-77022613D01*
X83587622Y-77058848D01*
X83550578Y-77094851D01*
X83544494Y-77100963D01*
X83508517Y-77137246D01*
X83470202Y-77175790D01*
X83435702Y-77210438D01*
X83421884Y-77224305D01*
X83456520Y-77266483D01*
X83489557Y-77307070D01*
X83525142Y-77351093D01*
X83557671Y-77391562D01*
X83580397Y-77419944D01*
X83615176Y-77463069D01*
X83649903Y-77505799D01*
X83684579Y-77548134D01*
X83719204Y-77590074D01*
X83753776Y-77631619D01*
X83765289Y-77645380D01*
X83798904Y-77681193D01*
X83818778Y-77699113D01*
X83859117Y-77727258D01*
X83885701Y-77740390D01*
X83924780Y-77752114D01*
X83962637Y-77756755D01*
X83962637Y-77810000D01*
G37*
G36*
X84562461Y-76842239D02*
G01*
X84613306Y-76846425D01*
X84668621Y-76855132D01*
X84717720Y-76867858D01*
X84767144Y-76887783D01*
X84785736Y-76897997D01*
X84827410Y-76930130D01*
X84857177Y-76969621D01*
X84875037Y-77016470D01*
X84880990Y-77070676D01*
X84876334Y-77124798D01*
X84862366Y-77172583D01*
X84835924Y-77218245D01*
X84822128Y-77234319D01*
X84784286Y-77266953D01*
X84742475Y-77292392D01*
X84692970Y-77314473D01*
X84643342Y-77331039D01*
X84674001Y-77370452D01*
X84704164Y-77409105D01*
X84736761Y-77450772D01*
X84752030Y-77470258D01*
X84783492Y-77510039D01*
X84815594Y-77550247D01*
X84848338Y-77590883D01*
X84881723Y-77631946D01*
X84914295Y-77669900D01*
X84939609Y-77697159D01*
X84976313Y-77729630D01*
X85004577Y-77744542D01*
X85044633Y-77752602D01*
X85079560Y-77756755D01*
X85079560Y-77810000D01*
X84705868Y-77810000D01*
X84676366Y-77765295D01*
X84648462Y-77723537D01*
X84617086Y-77677315D01*
X84588012Y-77635334D01*
X84557000Y-77591719D01*
X84544668Y-77574794D01*
X84515069Y-77535135D01*
X84482478Y-77492882D01*
X84446895Y-77448034D01*
X84414013Y-77407528D01*
X84384933Y-77372316D01*
X84347320Y-77372316D01*
X84347320Y-77667117D01*
X84356357Y-77708883D01*
X84391772Y-77737704D01*
X84432805Y-77748939D01*
X84480432Y-77756755D01*
X84480432Y-77810000D01*
X83960439Y-77810000D01*
X83960439Y-77756755D01*
X84010933Y-77751364D01*
X84012951Y-77751137D01*
X84059357Y-77741612D01*
X84094284Y-77714256D01*
X84103321Y-77671270D01*
X84103321Y-76987634D01*
X84095750Y-76946601D01*
X84059357Y-76918025D01*
X84011058Y-76903900D01*
X84008508Y-76903370D01*
X84347320Y-76903370D01*
X84347320Y-77309790D01*
X84399344Y-77309790D01*
X84452609Y-77305636D01*
X84503318Y-77291278D01*
X84548794Y-77263637D01*
X84555903Y-77257278D01*
X84587608Y-77213735D01*
X84603760Y-77167290D01*
X84610720Y-77117831D01*
X84611591Y-77090216D01*
X84607263Y-77039690D01*
X84590219Y-76989218D01*
X84556880Y-76948311D01*
X84513951Y-76922724D01*
X84465408Y-76908680D01*
X84413969Y-76903546D01*
X84401542Y-76903370D01*
X84347320Y-76903370D01*
X84008508Y-76903370D01*
X84007334Y-76903126D01*
X83960439Y-76894089D01*
X83960439Y-76840844D01*
X84507299Y-76840844D01*
X84562461Y-76842239D01*
G37*
G36*
X86105136Y-76894089D02*
G01*
X86059706Y-76903126D01*
X86020628Y-76919979D01*
X85980007Y-76949746D01*
X85968115Y-76961988D01*
X85937009Y-77000022D01*
X85923175Y-77019141D01*
X85894810Y-77060715D01*
X85865587Y-77104531D01*
X85838552Y-77145882D01*
X85829385Y-77160069D01*
X85801094Y-77204151D01*
X85774812Y-77245378D01*
X85747460Y-77288529D01*
X85722651Y-77327864D01*
X85696729Y-77370502D01*
X85676245Y-77417013D01*
X85669333Y-77466283D01*
X85667705Y-77519746D01*
X85667697Y-77524480D01*
X85667697Y-77661744D01*
X85676978Y-77704975D01*
X85712149Y-77735017D01*
X85761730Y-77747473D01*
X85810027Y-77755982D01*
X85817418Y-77756755D01*
X85817418Y-77810000D01*
X85273977Y-77810000D01*
X85273977Y-77756755D01*
X85324753Y-77751860D01*
X85329176Y-77751381D01*
X85377848Y-77742308D01*
X85379734Y-77741612D01*
X85414417Y-77712791D01*
X85423698Y-77668583D01*
X85423698Y-77497857D01*
X85422965Y-77458290D01*
X85418325Y-77429469D01*
X85401716Y-77396496D01*
X85377064Y-77353941D01*
X85371430Y-77344228D01*
X85345250Y-77298677D01*
X85319467Y-77254347D01*
X85294081Y-77211238D01*
X85269092Y-77169351D01*
X85241707Y-77123706D01*
X85215056Y-77079646D01*
X85189140Y-77037170D01*
X85175059Y-77014256D01*
X85145654Y-76973059D01*
X85127920Y-76953928D01*
X85088776Y-76922264D01*
X85079560Y-76916559D01*
X85034619Y-76900928D01*
X84986748Y-76894089D01*
X84986748Y-76840844D01*
X85545331Y-76840844D01*
X85545331Y-76894089D01*
X85494670Y-76896482D01*
X85445082Y-76903548D01*
X85441528Y-76904591D01*
X85414905Y-76928283D01*
X85424675Y-76958325D01*
X85447019Y-77003370D01*
X85460090Y-77027934D01*
X85484721Y-77073234D01*
X85509845Y-77117814D01*
X85528478Y-77150300D01*
X85555206Y-77196114D01*
X85581398Y-77240406D01*
X85609879Y-77288056D01*
X85636678Y-77332505D01*
X85668010Y-77283030D01*
X85696792Y-77237433D01*
X85723025Y-77195713D01*
X85752232Y-77149016D01*
X85782022Y-77100977D01*
X85809527Y-77055957D01*
X85815952Y-77045275D01*
X85841712Y-77000467D01*
X85863083Y-76954473D01*
X85864801Y-76945380D01*
X85836224Y-76909965D01*
X85786765Y-76897924D01*
X85743900Y-76894089D01*
X85743900Y-76840844D01*
X86105136Y-76840844D01*
X86105136Y-76894089D01*
G37*
G36*
X86694568Y-76842293D02*
G01*
X86746632Y-76846640D01*
X86802937Y-76855682D01*
X86852511Y-76868897D01*
X86901839Y-76889588D01*
X86920174Y-76900195D01*
X86961100Y-76933671D01*
X86990333Y-76974994D01*
X87007872Y-77024163D01*
X87013628Y-77073623D01*
X87013719Y-77081179D01*
X87009678Y-77134411D01*
X86997557Y-77182275D01*
X86979525Y-77221130D01*
X86950456Y-77261854D01*
X86914175Y-77296464D01*
X86885980Y-77316140D01*
X86841280Y-77339714D01*
X86792482Y-77358382D01*
X86744563Y-77371095D01*
X86693172Y-77379982D01*
X86643616Y-77385166D01*
X86590931Y-77387685D01*
X86566510Y-77387948D01*
X86486887Y-77387948D01*
X86486887Y-77663942D01*
X86495924Y-77707418D01*
X86531339Y-77736727D01*
X86576036Y-77748695D01*
X86625609Y-77756494D01*
X86628304Y-77756755D01*
X86628304Y-77810000D01*
X86100006Y-77810000D01*
X86100006Y-77756755D01*
X86148936Y-77751588D01*
X86153007Y-77751137D01*
X86198925Y-77741612D01*
X86234340Y-77715233D01*
X86242889Y-77671270D01*
X86242889Y-76987634D01*
X86234584Y-76946357D01*
X86198925Y-76917292D01*
X86151584Y-76903467D01*
X86151122Y-76903370D01*
X86486887Y-76903370D01*
X86486887Y-77325422D01*
X86515708Y-77325422D01*
X86568632Y-77322231D01*
X86620107Y-77311015D01*
X86667286Y-77289081D01*
X86686922Y-77274375D01*
X86720435Y-77232619D01*
X86738829Y-77183389D01*
X86745555Y-77129904D01*
X86745785Y-77116838D01*
X86743006Y-77066112D01*
X86733239Y-77017402D01*
X86711751Y-76969884D01*
X86701332Y-76955882D01*
X86658456Y-76923883D01*
X86607876Y-76908498D01*
X86557692Y-76903575D01*
X86543796Y-76903370D01*
X86486887Y-76903370D01*
X86151122Y-76903370D01*
X86147634Y-76902637D01*
X86100006Y-76894089D01*
X86100006Y-76840844D01*
X86637829Y-76840844D01*
X86694568Y-76842293D01*
G37*
G36*
X87987027Y-77122212D02*
G01*
X87934026Y-77122212D01*
X87914448Y-77073863D01*
X87890106Y-77027311D01*
X87865638Y-76987634D01*
X87834235Y-76946088D01*
X87794110Y-76914642D01*
X87778932Y-76910209D01*
X87728485Y-76905815D01*
X87724466Y-76905568D01*
X87674964Y-76903404D01*
X87669023Y-76903370D01*
X87636538Y-76903370D01*
X87636538Y-77661988D01*
X87645575Y-77705464D01*
X87680502Y-77735017D01*
X87729595Y-77747718D01*
X87778932Y-77755826D01*
X87786503Y-77756755D01*
X87786503Y-77810000D01*
X87243063Y-77810000D01*
X87243063Y-77756755D01*
X87292361Y-77751809D01*
X87298995Y-77751137D01*
X87347256Y-77742190D01*
X87348087Y-77741856D01*
X87383747Y-77712547D01*
X87392784Y-77668827D01*
X87392784Y-76903370D01*
X87360544Y-76903370D01*
X87310824Y-76905175D01*
X87304856Y-76905568D01*
X87254846Y-76909712D01*
X87250635Y-76910209D01*
X87206267Y-76934858D01*
X87172458Y-76974752D01*
X87163684Y-76987634D01*
X87136751Y-77031631D01*
X87112964Y-77077989D01*
X87095296Y-77122212D01*
X87042540Y-77122212D01*
X87042540Y-76840844D01*
X87987027Y-76840844D01*
X87987027Y-77122212D01*
G37*
G36*
X88621829Y-76811825D02*
G01*
X88673899Y-76818557D01*
X88724289Y-76829777D01*
X88773000Y-76845484D01*
X88819269Y-76865100D01*
X88862332Y-76888288D01*
X88906946Y-76918644D01*
X88938841Y-76945380D01*
X88973111Y-76980200D01*
X89003627Y-77018469D01*
X89030386Y-77060189D01*
X89053391Y-77105359D01*
X89071877Y-77153780D01*
X89085081Y-77205498D01*
X89093004Y-77260514D01*
X89095604Y-77311358D01*
X89095645Y-77318827D01*
X89093401Y-77371660D01*
X89086669Y-77423180D01*
X89075449Y-77473387D01*
X89059741Y-77522281D01*
X89039927Y-77568840D01*
X89016144Y-77612041D01*
X88984644Y-77656627D01*
X88956671Y-77688367D01*
X88919821Y-77722515D01*
X88879856Y-77752663D01*
X88836778Y-77778813D01*
X88790586Y-77800963D01*
X88740562Y-77818594D01*
X88685989Y-77831188D01*
X88634506Y-77838075D01*
X88579540Y-77841105D01*
X88563196Y-77841263D01*
X88510683Y-77839064D01*
X88459637Y-77832470D01*
X88410055Y-77821479D01*
X88361939Y-77806092D01*
X88315961Y-77786522D01*
X88272791Y-77762983D01*
X88227582Y-77731757D01*
X88194877Y-77703998D01*
X88157079Y-77664957D01*
X88123917Y-77621472D01*
X88098333Y-77579088D01*
X88081549Y-77544996D01*
X88063276Y-77496773D01*
X88050225Y-77445894D01*
X88042394Y-77392359D01*
X88039824Y-77343338D01*
X88039783Y-77336168D01*
X88040043Y-77329330D01*
X88314556Y-77329330D01*
X88315658Y-77380195D01*
X88318961Y-77429476D01*
X88325215Y-77482374D01*
X88328478Y-77502986D01*
X88338906Y-77551945D01*
X88354014Y-77601115D01*
X88372930Y-77645380D01*
X88398347Y-77687844D01*
X88431153Y-77725087D01*
X88451088Y-77741367D01*
X88496803Y-77764742D01*
X88546870Y-77774726D01*
X88568080Y-77775561D01*
X88620064Y-77769878D01*
X88668924Y-77751044D01*
X88684584Y-77741123D01*
X88723493Y-77705867D01*
X88752758Y-77664339D01*
X88762254Y-77646113D01*
X88781530Y-77600856D01*
X88796708Y-77551733D01*
X88806950Y-77503719D01*
X88814292Y-77451927D01*
X88818574Y-77401848D01*
X88820654Y-77348484D01*
X88820872Y-77323712D01*
X88819679Y-77270890D01*
X88816101Y-77218974D01*
X88810138Y-77167964D01*
X88808660Y-77157871D01*
X88799534Y-77109213D01*
X88785694Y-77059657D01*
X88767871Y-77014256D01*
X88742993Y-76970648D01*
X88709917Y-76931234D01*
X88689469Y-76913384D01*
X88645987Y-76888715D01*
X88594525Y-76876622D01*
X88568080Y-76875282D01*
X88516459Y-76880962D01*
X88470587Y-76898002D01*
X88430466Y-76926403D01*
X88396095Y-76966163D01*
X88379036Y-76993984D01*
X88357123Y-77041941D01*
X88339744Y-77096784D01*
X88328724Y-77147747D01*
X88320853Y-77203492D01*
X88316131Y-77264020D01*
X88314619Y-77315885D01*
X88314556Y-77329330D01*
X88040043Y-77329330D01*
X88041735Y-77284777D01*
X88047590Y-77235537D01*
X88059062Y-77181895D01*
X88075632Y-77131062D01*
X88080572Y-77118792D01*
X88102889Y-77071699D01*
X88129054Y-77028117D01*
X88159065Y-76988046D01*
X88192923Y-76951486D01*
X88229987Y-76919368D01*
X88270348Y-76891158D01*
X88314007Y-76866856D01*
X88360963Y-76846461D01*
X88410361Y-76830326D01*
X88461346Y-76818801D01*
X88513920Y-76811886D01*
X88568080Y-76809581D01*
X88621829Y-76811825D01*
G37*
G36*
X89594145Y-77841263D02*
G01*
X89544808Y-77839466D01*
X89492210Y-77833255D01*
X89441949Y-77822607D01*
X89427327Y-77818548D01*
X89377065Y-77801922D01*
X89328619Y-77781480D01*
X89296657Y-77764570D01*
X89249274Y-77810000D01*
X89190900Y-77810000D01*
X89181863Y-77466106D01*
X89240969Y-77466106D01*
X89261985Y-77513364D01*
X89286055Y-77559700D01*
X89291772Y-77569909D01*
X89318547Y-77612426D01*
X89348466Y-77651074D01*
X89363335Y-77667606D01*
X89398922Y-77701537D01*
X89440944Y-77731858D01*
X89456880Y-77741123D01*
X89505720Y-77760491D01*
X89557016Y-77768763D01*
X89578269Y-77769455D01*
X89627312Y-77765881D01*
X89677912Y-77751805D01*
X89721395Y-77724270D01*
X89753655Y-77683489D01*
X89769469Y-77634969D01*
X89771221Y-77609965D01*
X89761936Y-77560355D01*
X89734083Y-77518688D01*
X89728967Y-77513733D01*
X89686976Y-77483755D01*
X89639482Y-77461160D01*
X89598053Y-77446322D01*
X89549393Y-77430594D01*
X89501200Y-77414884D01*
X89492051Y-77411884D01*
X89445095Y-77395825D01*
X89400949Y-77379399D01*
X89355000Y-77357631D01*
X89310826Y-77328106D01*
X89274612Y-77293248D01*
X89254891Y-77267048D01*
X89229775Y-77219687D01*
X89213962Y-77168893D01*
X89207683Y-77120241D01*
X89207264Y-77103405D01*
X89211986Y-77054238D01*
X89226151Y-77006753D01*
X89231933Y-76993496D01*
X89258032Y-76949344D01*
X89289970Y-76911946D01*
X89304228Y-76898485D01*
X89345174Y-76868954D01*
X89390483Y-76845987D01*
X89420244Y-76834494D01*
X89470383Y-76820310D01*
X89523408Y-76812014D01*
X89574117Y-76809581D01*
X89623771Y-76811680D01*
X89676023Y-76818837D01*
X89725792Y-76831074D01*
X89774655Y-76847080D01*
X89820897Y-76865926D01*
X89837166Y-76874061D01*
X89879176Y-76840844D01*
X89938771Y-76840844D01*
X89944389Y-77169106D01*
X89885282Y-77169106D01*
X89865928Y-77121195D01*
X89845444Y-77075868D01*
X89836922Y-77058220D01*
X89813775Y-77015166D01*
X89785765Y-76973403D01*
X89778060Y-76963698D01*
X89741789Y-76927489D01*
X89700390Y-76899462D01*
X89652702Y-76881327D01*
X89601228Y-76875306D01*
X89597564Y-76875282D01*
X89545689Y-76881361D01*
X89498096Y-76901668D01*
X89476175Y-76918513D01*
X89445813Y-76956826D01*
X89430426Y-77005659D01*
X89429281Y-77025003D01*
X89438243Y-77075289D01*
X89465130Y-77116236D01*
X89470069Y-77120990D01*
X89510788Y-77149703D01*
X89557081Y-77171732D01*
X89597564Y-77186448D01*
X89645621Y-77202705D01*
X89694536Y-77218962D01*
X89701123Y-77221130D01*
X89748235Y-77236890D01*
X89795401Y-77254103D01*
X89842127Y-77275245D01*
X89887579Y-77303446D01*
X89925495Y-77336322D01*
X89946587Y-77360837D01*
X89974021Y-77406470D01*
X89990025Y-77453006D01*
X89997798Y-77504719D01*
X89998611Y-77529364D01*
X89993733Y-77580276D01*
X89979101Y-77629816D01*
X89969057Y-77652219D01*
X89941659Y-77697136D01*
X89907489Y-77735442D01*
X89889434Y-77750893D01*
X89845780Y-77780683D01*
X89801478Y-77803042D01*
X89762184Y-77817815D01*
X89714814Y-77830180D01*
X89662769Y-77837965D01*
X89611932Y-77841057D01*
X89594145Y-77841263D01*
G37*
D11*
X46600000Y-47700000D02*
X123800000Y-47700000D01*
X123800000Y-109650000D01*
X46600000Y-109650000D01*
X46600000Y-47700000D01*
D12*
X46620000Y-76630000D02*
X123810000Y-76630000D01*
X123810000Y-80710000D01*
X46620000Y-80710000D01*
X46620000Y-76630000D01*
D13*
%TO.C,REF\u002A\u002A*%
X47010000Y-50700000D02*
X47010000Y-53360000D01*
X120730000Y-50700000D02*
X47010000Y-50700000D01*
X120730000Y-50700000D02*
X120730000Y-53360000D01*
X120730000Y-53360000D02*
X47010000Y-53360000D01*
X123330000Y-52030000D02*
X123330000Y-53360000D01*
X123330000Y-53360000D02*
X122000000Y-53360000D01*
X47020000Y-96420000D02*
X47020000Y-99080000D01*
X120740000Y-96420000D02*
X47020000Y-96420000D01*
X120740000Y-96420000D02*
X120740000Y-99080000D01*
X120740000Y-99080000D02*
X47020000Y-99080000D01*
X123340000Y-97750000D02*
X123340000Y-99080000D01*
X123340000Y-99080000D02*
X122010000Y-99080000D01*
X47010000Y-60860000D02*
X47010000Y-63520000D01*
X120730000Y-60860000D02*
X47010000Y-60860000D01*
X120730000Y-60860000D02*
X120730000Y-63520000D01*
X120730000Y-63520000D02*
X47010000Y-63520000D01*
X123330000Y-62190000D02*
X123330000Y-63520000D01*
X123330000Y-63520000D02*
X122000000Y-63520000D01*
X47010000Y-73560000D02*
X47010000Y-76220000D01*
X120730000Y-73560000D02*
X47010000Y-73560000D01*
X120730000Y-73560000D02*
X120730000Y-76220000D01*
X120730000Y-76220000D02*
X47010000Y-76220000D01*
X123330000Y-74890000D02*
X123330000Y-76220000D01*
X123330000Y-76220000D02*
X122000000Y-76220000D01*
X47010000Y-68480000D02*
X47010000Y-71140000D01*
X120730000Y-68480000D02*
X47010000Y-68480000D01*
X120730000Y-68480000D02*
X120730000Y-71140000D01*
X120730000Y-71140000D02*
X47010000Y-71140000D01*
X123330000Y-69810000D02*
X123330000Y-71140000D01*
X123330000Y-71140000D02*
X122000000Y-71140000D01*
X47010000Y-63400000D02*
X47010000Y-66060000D01*
X120730000Y-63400000D02*
X47010000Y-63400000D01*
X120730000Y-63400000D02*
X120730000Y-66060000D01*
X120730000Y-66060000D02*
X47010000Y-66060000D01*
X123330000Y-64730000D02*
X123330000Y-66060000D01*
X123330000Y-66060000D02*
X122000000Y-66060000D01*
X47020000Y-104040000D02*
X47020000Y-106700000D01*
X120740000Y-104040000D02*
X47020000Y-104040000D01*
X120740000Y-104040000D02*
X120740000Y-106700000D01*
X120740000Y-106700000D02*
X47020000Y-106700000D01*
X123340000Y-105370000D02*
X123340000Y-106700000D01*
X123340000Y-106700000D02*
X122010000Y-106700000D01*
X47070000Y-55730000D02*
X48400000Y-55730000D01*
X47070000Y-57060000D02*
X47070000Y-55730000D01*
X49670000Y-55730000D02*
X123390000Y-55730000D01*
X49670000Y-58390000D02*
X49670000Y-55730000D01*
X49670000Y-58390000D02*
X123390000Y-58390000D01*
X123390000Y-58390000D02*
X123390000Y-55730000D01*
X47080000Y-106530000D02*
X48410000Y-106530000D01*
X47080000Y-107860000D02*
X47080000Y-106530000D01*
X49680000Y-106530000D02*
X123400000Y-106530000D01*
X49680000Y-109190000D02*
X49680000Y-106530000D01*
X49680000Y-109190000D02*
X123400000Y-109190000D01*
X123400000Y-109190000D02*
X123400000Y-106530000D01*
X47080000Y-86210000D02*
X48410000Y-86210000D01*
X47080000Y-87540000D02*
X47080000Y-86210000D01*
X49680000Y-86210000D02*
X123400000Y-86210000D01*
X49680000Y-88870000D02*
X49680000Y-86210000D01*
X49680000Y-88870000D02*
X123400000Y-88870000D01*
X123400000Y-88870000D02*
X123400000Y-86210000D01*
X47080000Y-96370000D02*
X48410000Y-96370000D01*
X47080000Y-97700000D02*
X47080000Y-96370000D01*
X49680000Y-96370000D02*
X123400000Y-96370000D01*
X49680000Y-99030000D02*
X49680000Y-96370000D01*
X49680000Y-99030000D02*
X123400000Y-99030000D01*
X123400000Y-99030000D02*
X123400000Y-96370000D01*
X47070000Y-70970000D02*
X48400000Y-70970000D01*
X47070000Y-72300000D02*
X47070000Y-70970000D01*
X49670000Y-70970000D02*
X123390000Y-70970000D01*
X49670000Y-73630000D02*
X49670000Y-70970000D01*
X49670000Y-73630000D02*
X123390000Y-73630000D01*
X123390000Y-73630000D02*
X123390000Y-70970000D01*
X47080000Y-83670000D02*
X48410000Y-83670000D01*
X47080000Y-85000000D02*
X47080000Y-83670000D01*
X49680000Y-83670000D02*
X123400000Y-83670000D01*
X49680000Y-86330000D02*
X49680000Y-83670000D01*
X49680000Y-86330000D02*
X123400000Y-86330000D01*
X123400000Y-86330000D02*
X123400000Y-83670000D01*
X47080000Y-98910000D02*
X48410000Y-98910000D01*
X47080000Y-100240000D02*
X47080000Y-98910000D01*
X49680000Y-98910000D02*
X123400000Y-98910000D01*
X49680000Y-101570000D02*
X49680000Y-98910000D01*
X49680000Y-101570000D02*
X123400000Y-101570000D01*
X123400000Y-101570000D02*
X123400000Y-98910000D01*
X47020000Y-81180000D02*
X47020000Y-83840000D01*
X120740000Y-81180000D02*
X47020000Y-81180000D01*
X120740000Y-81180000D02*
X120740000Y-83840000D01*
X120740000Y-83840000D02*
X47020000Y-83840000D01*
X123340000Y-82510000D02*
X123340000Y-83840000D01*
X123340000Y-83840000D02*
X122010000Y-83840000D01*
X47020000Y-86260000D02*
X47020000Y-88920000D01*
X120740000Y-86260000D02*
X47020000Y-86260000D01*
X120740000Y-86260000D02*
X120740000Y-88920000D01*
X120740000Y-88920000D02*
X47020000Y-88920000D01*
X123340000Y-87590000D02*
X123340000Y-88920000D01*
X123340000Y-88920000D02*
X122010000Y-88920000D01*
X47080000Y-103990000D02*
X48410000Y-103990000D01*
X47080000Y-105320000D02*
X47080000Y-103990000D01*
X49680000Y-103990000D02*
X123400000Y-103990000D01*
X49680000Y-106650000D02*
X49680000Y-103990000D01*
X49680000Y-106650000D02*
X123400000Y-106650000D01*
X123400000Y-106650000D02*
X123400000Y-103990000D01*
X47070000Y-50650000D02*
X48400000Y-50650000D01*
X47070000Y-51980000D02*
X47070000Y-50650000D01*
X49670000Y-50650000D02*
X123390000Y-50650000D01*
X49670000Y-53310000D02*
X49670000Y-50650000D01*
X49670000Y-53310000D02*
X123390000Y-53310000D01*
X123390000Y-53310000D02*
X123390000Y-50650000D01*
X47020000Y-91340000D02*
X47020000Y-94000000D01*
X120740000Y-91340000D02*
X47020000Y-91340000D01*
X120740000Y-91340000D02*
X120740000Y-94000000D01*
X120740000Y-94000000D02*
X47020000Y-94000000D01*
X123340000Y-92670000D02*
X123340000Y-94000000D01*
X123340000Y-94000000D02*
X122010000Y-94000000D01*
X47080000Y-88750000D02*
X48410000Y-88750000D01*
X47080000Y-90080000D02*
X47080000Y-88750000D01*
X49680000Y-88750000D02*
X123400000Y-88750000D01*
X49680000Y-91410000D02*
X49680000Y-88750000D01*
X49680000Y-91410000D02*
X123400000Y-91410000D01*
X123400000Y-91410000D02*
X123400000Y-88750000D01*
X47020000Y-98960000D02*
X47020000Y-101620000D01*
X120740000Y-98960000D02*
X47020000Y-98960000D01*
X120740000Y-98960000D02*
X120740000Y-101620000D01*
X120740000Y-101620000D02*
X47020000Y-101620000D01*
X123340000Y-100290000D02*
X123340000Y-101620000D01*
X123340000Y-101620000D02*
X122010000Y-101620000D01*
X47070000Y-58270000D02*
X48400000Y-58270000D01*
X47070000Y-59600000D02*
X47070000Y-58270000D01*
X49670000Y-58270000D02*
X123390000Y-58270000D01*
X49670000Y-60930000D02*
X49670000Y-58270000D01*
X49670000Y-60930000D02*
X123390000Y-60930000D01*
X123390000Y-60930000D02*
X123390000Y-58270000D01*
X47070000Y-60810000D02*
X48400000Y-60810000D01*
X47070000Y-62140000D02*
X47070000Y-60810000D01*
X49670000Y-60810000D02*
X123390000Y-60810000D01*
X49670000Y-63470000D02*
X49670000Y-60810000D01*
X49670000Y-63470000D02*
X123390000Y-63470000D01*
X123390000Y-63470000D02*
X123390000Y-60810000D01*
X47010000Y-71020000D02*
X47010000Y-73680000D01*
X120730000Y-71020000D02*
X47010000Y-71020000D01*
X120730000Y-71020000D02*
X120730000Y-73680000D01*
X120730000Y-73680000D02*
X47010000Y-73680000D01*
X123330000Y-72350000D02*
X123330000Y-73680000D01*
X123330000Y-73680000D02*
X122000000Y-73680000D01*
X47080000Y-81130000D02*
X48410000Y-81130000D01*
X47080000Y-82460000D02*
X47080000Y-81130000D01*
X49680000Y-81130000D02*
X123400000Y-81130000D01*
X49680000Y-83790000D02*
X49680000Y-81130000D01*
X49680000Y-83790000D02*
X123400000Y-83790000D01*
X123400000Y-83790000D02*
X123400000Y-81130000D01*
X47070000Y-48110000D02*
X48400000Y-48110000D01*
X47070000Y-49440000D02*
X47070000Y-48110000D01*
X49670000Y-48110000D02*
X123390000Y-48110000D01*
X49670000Y-50770000D02*
X49670000Y-48110000D01*
X49670000Y-50770000D02*
X123390000Y-50770000D01*
X123390000Y-50770000D02*
X123390000Y-48110000D01*
X47070000Y-65890000D02*
X48400000Y-65890000D01*
X47070000Y-67220000D02*
X47070000Y-65890000D01*
X49670000Y-65890000D02*
X123390000Y-65890000D01*
X49670000Y-68550000D02*
X49670000Y-65890000D01*
X49670000Y-68550000D02*
X123390000Y-68550000D01*
X123390000Y-68550000D02*
X123390000Y-65890000D01*
X47080000Y-93830000D02*
X48410000Y-93830000D01*
X47080000Y-95160000D02*
X47080000Y-93830000D01*
X49680000Y-93830000D02*
X123400000Y-93830000D01*
X49680000Y-96490000D02*
X49680000Y-93830000D01*
X49680000Y-96490000D02*
X123400000Y-96490000D01*
X123400000Y-96490000D02*
X123400000Y-93830000D01*
X47070000Y-63350000D02*
X48400000Y-63350000D01*
X47070000Y-64680000D02*
X47070000Y-63350000D01*
X49670000Y-63350000D02*
X123390000Y-63350000D01*
X49670000Y-66010000D02*
X49670000Y-63350000D01*
X49670000Y-66010000D02*
X123390000Y-66010000D01*
X123390000Y-66010000D02*
X123390000Y-63350000D01*
X47070000Y-68430000D02*
X48400000Y-68430000D01*
X47070000Y-69760000D02*
X47070000Y-68430000D01*
X49670000Y-68430000D02*
X123390000Y-68430000D01*
X49670000Y-71090000D02*
X49670000Y-68430000D01*
X49670000Y-71090000D02*
X123390000Y-71090000D01*
X123390000Y-71090000D02*
X123390000Y-68430000D01*
X47020000Y-93880000D02*
X47020000Y-96540000D01*
X120740000Y-93880000D02*
X47020000Y-93880000D01*
X120740000Y-93880000D02*
X120740000Y-96540000D01*
X120740000Y-96540000D02*
X47020000Y-96540000D01*
X123340000Y-95210000D02*
X123340000Y-96540000D01*
X123340000Y-96540000D02*
X122010000Y-96540000D01*
X47080000Y-91290000D02*
X48410000Y-91290000D01*
X47080000Y-92620000D02*
X47080000Y-91290000D01*
X49680000Y-91290000D02*
X123400000Y-91290000D01*
X49680000Y-93950000D02*
X49680000Y-91290000D01*
X49680000Y-93950000D02*
X123400000Y-93950000D01*
X123400000Y-93950000D02*
X123400000Y-91290000D01*
X47010000Y-65940000D02*
X47010000Y-68600000D01*
X120730000Y-65940000D02*
X47010000Y-65940000D01*
X120730000Y-65940000D02*
X120730000Y-68600000D01*
X120730000Y-68600000D02*
X47010000Y-68600000D01*
X123330000Y-67270000D02*
X123330000Y-68600000D01*
X123330000Y-68600000D02*
X122000000Y-68600000D01*
X47010000Y-55780000D02*
X47010000Y-58440000D01*
X120730000Y-55780000D02*
X47010000Y-55780000D01*
X120730000Y-55780000D02*
X120730000Y-58440000D01*
X120730000Y-58440000D02*
X47010000Y-58440000D01*
X123330000Y-57110000D02*
X123330000Y-58440000D01*
X123330000Y-58440000D02*
X122000000Y-58440000D01*
X47010000Y-58320000D02*
X47010000Y-60980000D01*
X120730000Y-58320000D02*
X47010000Y-58320000D01*
X120730000Y-58320000D02*
X120730000Y-60980000D01*
X120730000Y-60980000D02*
X47010000Y-60980000D01*
X123330000Y-59650000D02*
X123330000Y-60980000D01*
X123330000Y-60980000D02*
X122000000Y-60980000D01*
X47020000Y-83720000D02*
X47020000Y-86380000D01*
X120740000Y-83720000D02*
X47020000Y-83720000D01*
X120740000Y-83720000D02*
X120740000Y-86380000D01*
X120740000Y-86380000D02*
X47020000Y-86380000D01*
X123340000Y-85050000D02*
X123340000Y-86380000D01*
X123340000Y-86380000D02*
X122010000Y-86380000D01*
X47070000Y-73510000D02*
X48400000Y-73510000D01*
X47070000Y-74840000D02*
X47070000Y-73510000D01*
X49670000Y-73510000D02*
X123390000Y-73510000D01*
X49670000Y-76170000D02*
X49670000Y-73510000D01*
X49670000Y-76170000D02*
X123390000Y-76170000D01*
X123390000Y-76170000D02*
X123390000Y-73510000D01*
X47010000Y-48160000D02*
X47010000Y-50820000D01*
X120730000Y-48160000D02*
X47010000Y-48160000D01*
X120730000Y-48160000D02*
X120730000Y-50820000D01*
X120730000Y-50820000D02*
X47010000Y-50820000D01*
X123330000Y-49490000D02*
X123330000Y-50820000D01*
X123330000Y-50820000D02*
X122000000Y-50820000D01*
X47020000Y-88800000D02*
X47020000Y-91460000D01*
X120740000Y-88800000D02*
X47020000Y-88800000D01*
X120740000Y-88800000D02*
X120740000Y-91460000D01*
X120740000Y-91460000D02*
X47020000Y-91460000D01*
X123340000Y-90130000D02*
X123340000Y-91460000D01*
X123340000Y-91460000D02*
X122010000Y-91460000D01*
X47020000Y-106580000D02*
X47020000Y-109240000D01*
X120740000Y-106580000D02*
X47020000Y-106580000D01*
X120740000Y-106580000D02*
X120740000Y-109240000D01*
X120740000Y-109240000D02*
X47020000Y-109240000D01*
X123340000Y-107910000D02*
X123340000Y-109240000D01*
X123340000Y-109240000D02*
X122010000Y-109240000D01*
%TD*%
M02*
