%TF.GenerationSoftware,KiCad,Pcbnew,8.0.1*%
%TF.CreationDate,2024-04-20T18:08:00+02:00*%
%TF.ProjectId,proto_board_V3,70726f74-6f5f-4626-9f61-72645f56332e,rev?*%
%TF.SameCoordinates,Original*%
%TF.FileFunction,Copper,L1,Top*%
%TF.FilePolarity,Positive*%
%FSLAX46Y46*%
G04 Gerber Fmt 4.6, Leading zero omitted, Abs format (unit mm)*
G04 Created by KiCad (PCBNEW 8.0.1) date 2024-04-20 18:08:00*
%MOMM*%
%LPD*%
G01*
G04 APERTURE LIST*
%TA.AperFunction,NonConductor*%
%ADD10C,0.200000*%
%TD*%
%TA.AperFunction,ComponentPad*%
%ADD11R,1.700000X1.700000*%
%TD*%
%TA.AperFunction,ComponentPad*%
%ADD12O,1.700000X1.700000*%
%TD*%
G04 APERTURE END LIST*
D10*
X45450000Y-46440000D02*
X124990000Y-46440000D01*
X124990000Y-110790000D01*
X45450000Y-110790000D01*
X45450000Y-46440000D01*
D11*
%TO.P,REF\u002A\u002A,1*%
%TO.N,N/C*%
X122000000Y-52030000D03*
D12*
%TO.P,REF\u002A\u002A,2*%
X119460000Y-52030000D03*
%TO.P,REF\u002A\u002A,3*%
X116920000Y-52030000D03*
%TO.P,REF\u002A\u002A,4*%
X114380000Y-52030000D03*
%TO.P,REF\u002A\u002A,5*%
X111840000Y-52030000D03*
%TO.P,REF\u002A\u002A,6*%
X109300000Y-52030000D03*
%TO.P,REF\u002A\u002A,7*%
X106760000Y-52030000D03*
%TO.P,REF\u002A\u002A,8*%
X104220000Y-52030000D03*
%TO.P,REF\u002A\u002A,9*%
X101680000Y-52030000D03*
%TO.P,REF\u002A\u002A,10*%
X99140000Y-52030000D03*
%TO.P,REF\u002A\u002A,11*%
X96600000Y-52030000D03*
%TO.P,REF\u002A\u002A,12*%
X94060000Y-52030000D03*
%TO.P,REF\u002A\u002A,13*%
X91520000Y-52030000D03*
%TO.P,REF\u002A\u002A,14*%
X88980000Y-52030000D03*
%TO.P,REF\u002A\u002A,15*%
X86440000Y-52030000D03*
%TO.P,REF\u002A\u002A,16*%
X83900000Y-52030000D03*
%TO.P,REF\u002A\u002A,17*%
X81360000Y-52030000D03*
%TO.P,REF\u002A\u002A,18*%
X78820000Y-52030000D03*
%TO.P,REF\u002A\u002A,19*%
X76280000Y-52030000D03*
%TO.P,REF\u002A\u002A,20*%
X73740000Y-52030000D03*
%TO.P,REF\u002A\u002A,21*%
X71200000Y-52030000D03*
%TO.P,REF\u002A\u002A,22*%
X68660000Y-52030000D03*
%TO.P,REF\u002A\u002A,23*%
X66120000Y-52030000D03*
%TO.P,REF\u002A\u002A,24*%
X63580000Y-52030000D03*
%TO.P,REF\u002A\u002A,25*%
X61040000Y-52030000D03*
%TO.P,REF\u002A\u002A,26*%
X58500000Y-52030000D03*
%TO.P,REF\u002A\u002A,27*%
X55960000Y-52030000D03*
%TO.P,REF\u002A\u002A,28*%
X53420000Y-52030000D03*
%TO.P,REF\u002A\u002A,29*%
X50880000Y-52030000D03*
%TO.P,REF\u002A\u002A,30*%
X48340000Y-52030000D03*
%TD*%
D11*
%TO.P,REF\u002A\u002A,1*%
%TO.N,N/C*%
X122010000Y-97750000D03*
D12*
%TO.P,REF\u002A\u002A,2*%
X119470000Y-97750000D03*
%TO.P,REF\u002A\u002A,3*%
X116930000Y-97750000D03*
%TO.P,REF\u002A\u002A,4*%
X114390000Y-97750000D03*
%TO.P,REF\u002A\u002A,5*%
X111850000Y-97750000D03*
%TO.P,REF\u002A\u002A,6*%
X109310000Y-97750000D03*
%TO.P,REF\u002A\u002A,7*%
X106770000Y-97750000D03*
%TO.P,REF\u002A\u002A,8*%
X104230000Y-97750000D03*
%TO.P,REF\u002A\u002A,9*%
X101690000Y-97750000D03*
%TO.P,REF\u002A\u002A,10*%
X99150000Y-97750000D03*
%TO.P,REF\u002A\u002A,11*%
X96610000Y-97750000D03*
%TO.P,REF\u002A\u002A,12*%
X94070000Y-97750000D03*
%TO.P,REF\u002A\u002A,13*%
X91530000Y-97750000D03*
%TO.P,REF\u002A\u002A,14*%
X88990000Y-97750000D03*
%TO.P,REF\u002A\u002A,15*%
X86450000Y-97750000D03*
%TO.P,REF\u002A\u002A,16*%
X83910000Y-97750000D03*
%TO.P,REF\u002A\u002A,17*%
X81370000Y-97750000D03*
%TO.P,REF\u002A\u002A,18*%
X78830000Y-97750000D03*
%TO.P,REF\u002A\u002A,19*%
X76290000Y-97750000D03*
%TO.P,REF\u002A\u002A,20*%
X73750000Y-97750000D03*
%TO.P,REF\u002A\u002A,21*%
X71210000Y-97750000D03*
%TO.P,REF\u002A\u002A,22*%
X68670000Y-97750000D03*
%TO.P,REF\u002A\u002A,23*%
X66130000Y-97750000D03*
%TO.P,REF\u002A\u002A,24*%
X63590000Y-97750000D03*
%TO.P,REF\u002A\u002A,25*%
X61050000Y-97750000D03*
%TO.P,REF\u002A\u002A,26*%
X58510000Y-97750000D03*
%TO.P,REF\u002A\u002A,27*%
X55970000Y-97750000D03*
%TO.P,REF\u002A\u002A,28*%
X53430000Y-97750000D03*
%TO.P,REF\u002A\u002A,29*%
X50890000Y-97750000D03*
%TO.P,REF\u002A\u002A,30*%
X48350000Y-97750000D03*
%TD*%
D11*
%TO.P,REF\u002A\u002A,1*%
%TO.N,N/C*%
X122000000Y-62190000D03*
D12*
%TO.P,REF\u002A\u002A,2*%
X119460000Y-62190000D03*
%TO.P,REF\u002A\u002A,3*%
X116920000Y-62190000D03*
%TO.P,REF\u002A\u002A,4*%
X114380000Y-62190000D03*
%TO.P,REF\u002A\u002A,5*%
X111840000Y-62190000D03*
%TO.P,REF\u002A\u002A,6*%
X109300000Y-62190000D03*
%TO.P,REF\u002A\u002A,7*%
X106760000Y-62190000D03*
%TO.P,REF\u002A\u002A,8*%
X104220000Y-62190000D03*
%TO.P,REF\u002A\u002A,9*%
X101680000Y-62190000D03*
%TO.P,REF\u002A\u002A,10*%
X99140000Y-62190000D03*
%TO.P,REF\u002A\u002A,11*%
X96600000Y-62190000D03*
%TO.P,REF\u002A\u002A,12*%
X94060000Y-62190000D03*
%TO.P,REF\u002A\u002A,13*%
X91520000Y-62190000D03*
%TO.P,REF\u002A\u002A,14*%
X88980000Y-62190000D03*
%TO.P,REF\u002A\u002A,15*%
X86440000Y-62190000D03*
%TO.P,REF\u002A\u002A,16*%
X83900000Y-62190000D03*
%TO.P,REF\u002A\u002A,17*%
X81360000Y-62190000D03*
%TO.P,REF\u002A\u002A,18*%
X78820000Y-62190000D03*
%TO.P,REF\u002A\u002A,19*%
X76280000Y-62190000D03*
%TO.P,REF\u002A\u002A,20*%
X73740000Y-62190000D03*
%TO.P,REF\u002A\u002A,21*%
X71200000Y-62190000D03*
%TO.P,REF\u002A\u002A,22*%
X68660000Y-62190000D03*
%TO.P,REF\u002A\u002A,23*%
X66120000Y-62190000D03*
%TO.P,REF\u002A\u002A,24*%
X63580000Y-62190000D03*
%TO.P,REF\u002A\u002A,25*%
X61040000Y-62190000D03*
%TO.P,REF\u002A\u002A,26*%
X58500000Y-62190000D03*
%TO.P,REF\u002A\u002A,27*%
X55960000Y-62190000D03*
%TO.P,REF\u002A\u002A,28*%
X53420000Y-62190000D03*
%TO.P,REF\u002A\u002A,29*%
X50880000Y-62190000D03*
%TO.P,REF\u002A\u002A,30*%
X48340000Y-62190000D03*
%TD*%
D11*
%TO.P,REF\u002A\u002A,1*%
%TO.N,N/C*%
X122000000Y-74890000D03*
D12*
%TO.P,REF\u002A\u002A,2*%
X119460000Y-74890000D03*
%TO.P,REF\u002A\u002A,3*%
X116920000Y-74890000D03*
%TO.P,REF\u002A\u002A,4*%
X114380000Y-74890000D03*
%TO.P,REF\u002A\u002A,5*%
X111840000Y-74890000D03*
%TO.P,REF\u002A\u002A,6*%
X109300000Y-74890000D03*
%TO.P,REF\u002A\u002A,7*%
X106760000Y-74890000D03*
%TO.P,REF\u002A\u002A,8*%
X104220000Y-74890000D03*
%TO.P,REF\u002A\u002A,9*%
X101680000Y-74890000D03*
%TO.P,REF\u002A\u002A,10*%
X99140000Y-74890000D03*
%TO.P,REF\u002A\u002A,11*%
X96600000Y-74890000D03*
%TO.P,REF\u002A\u002A,12*%
X94060000Y-74890000D03*
%TO.P,REF\u002A\u002A,13*%
X91520000Y-74890000D03*
%TO.P,REF\u002A\u002A,14*%
X88980000Y-74890000D03*
%TO.P,REF\u002A\u002A,15*%
X86440000Y-74890000D03*
%TO.P,REF\u002A\u002A,16*%
X83900000Y-74890000D03*
%TO.P,REF\u002A\u002A,17*%
X81360000Y-74890000D03*
%TO.P,REF\u002A\u002A,18*%
X78820000Y-74890000D03*
%TO.P,REF\u002A\u002A,19*%
X76280000Y-74890000D03*
%TO.P,REF\u002A\u002A,20*%
X73740000Y-74890000D03*
%TO.P,REF\u002A\u002A,21*%
X71200000Y-74890000D03*
%TO.P,REF\u002A\u002A,22*%
X68660000Y-74890000D03*
%TO.P,REF\u002A\u002A,23*%
X66120000Y-74890000D03*
%TO.P,REF\u002A\u002A,24*%
X63580000Y-74890000D03*
%TO.P,REF\u002A\u002A,25*%
X61040000Y-74890000D03*
%TO.P,REF\u002A\u002A,26*%
X58500000Y-74890000D03*
%TO.P,REF\u002A\u002A,27*%
X55960000Y-74890000D03*
%TO.P,REF\u002A\u002A,28*%
X53420000Y-74890000D03*
%TO.P,REF\u002A\u002A,29*%
X50880000Y-74890000D03*
%TO.P,REF\u002A\u002A,30*%
X48340000Y-74890000D03*
%TD*%
D11*
%TO.P,REF\u002A\u002A,1*%
%TO.N,N/C*%
X122000000Y-69810000D03*
D12*
%TO.P,REF\u002A\u002A,2*%
X119460000Y-69810000D03*
%TO.P,REF\u002A\u002A,3*%
X116920000Y-69810000D03*
%TO.P,REF\u002A\u002A,4*%
X114380000Y-69810000D03*
%TO.P,REF\u002A\u002A,5*%
X111840000Y-69810000D03*
%TO.P,REF\u002A\u002A,6*%
X109300000Y-69810000D03*
%TO.P,REF\u002A\u002A,7*%
X106760000Y-69810000D03*
%TO.P,REF\u002A\u002A,8*%
X104220000Y-69810000D03*
%TO.P,REF\u002A\u002A,9*%
X101680000Y-69810000D03*
%TO.P,REF\u002A\u002A,10*%
X99140000Y-69810000D03*
%TO.P,REF\u002A\u002A,11*%
X96600000Y-69810000D03*
%TO.P,REF\u002A\u002A,12*%
X94060000Y-69810000D03*
%TO.P,REF\u002A\u002A,13*%
X91520000Y-69810000D03*
%TO.P,REF\u002A\u002A,14*%
X88980000Y-69810000D03*
%TO.P,REF\u002A\u002A,15*%
X86440000Y-69810000D03*
%TO.P,REF\u002A\u002A,16*%
X83900000Y-69810000D03*
%TO.P,REF\u002A\u002A,17*%
X81360000Y-69810000D03*
%TO.P,REF\u002A\u002A,18*%
X78820000Y-69810000D03*
%TO.P,REF\u002A\u002A,19*%
X76280000Y-69810000D03*
%TO.P,REF\u002A\u002A,20*%
X73740000Y-69810000D03*
%TO.P,REF\u002A\u002A,21*%
X71200000Y-69810000D03*
%TO.P,REF\u002A\u002A,22*%
X68660000Y-69810000D03*
%TO.P,REF\u002A\u002A,23*%
X66120000Y-69810000D03*
%TO.P,REF\u002A\u002A,24*%
X63580000Y-69810000D03*
%TO.P,REF\u002A\u002A,25*%
X61040000Y-69810000D03*
%TO.P,REF\u002A\u002A,26*%
X58500000Y-69810000D03*
%TO.P,REF\u002A\u002A,27*%
X55960000Y-69810000D03*
%TO.P,REF\u002A\u002A,28*%
X53420000Y-69810000D03*
%TO.P,REF\u002A\u002A,29*%
X50880000Y-69810000D03*
%TO.P,REF\u002A\u002A,30*%
X48340000Y-69810000D03*
%TD*%
D11*
%TO.P,REF\u002A\u002A,1*%
%TO.N,N/C*%
X122000000Y-64730000D03*
D12*
%TO.P,REF\u002A\u002A,2*%
X119460000Y-64730000D03*
%TO.P,REF\u002A\u002A,3*%
X116920000Y-64730000D03*
%TO.P,REF\u002A\u002A,4*%
X114380000Y-64730000D03*
%TO.P,REF\u002A\u002A,5*%
X111840000Y-64730000D03*
%TO.P,REF\u002A\u002A,6*%
X109300000Y-64730000D03*
%TO.P,REF\u002A\u002A,7*%
X106760000Y-64730000D03*
%TO.P,REF\u002A\u002A,8*%
X104220000Y-64730000D03*
%TO.P,REF\u002A\u002A,9*%
X101680000Y-64730000D03*
%TO.P,REF\u002A\u002A,10*%
X99140000Y-64730000D03*
%TO.P,REF\u002A\u002A,11*%
X96600000Y-64730000D03*
%TO.P,REF\u002A\u002A,12*%
X94060000Y-64730000D03*
%TO.P,REF\u002A\u002A,13*%
X91520000Y-64730000D03*
%TO.P,REF\u002A\u002A,14*%
X88980000Y-64730000D03*
%TO.P,REF\u002A\u002A,15*%
X86440000Y-64730000D03*
%TO.P,REF\u002A\u002A,16*%
X83900000Y-64730000D03*
%TO.P,REF\u002A\u002A,17*%
X81360000Y-64730000D03*
%TO.P,REF\u002A\u002A,18*%
X78820000Y-64730000D03*
%TO.P,REF\u002A\u002A,19*%
X76280000Y-64730000D03*
%TO.P,REF\u002A\u002A,20*%
X73740000Y-64730000D03*
%TO.P,REF\u002A\u002A,21*%
X71200000Y-64730000D03*
%TO.P,REF\u002A\u002A,22*%
X68660000Y-64730000D03*
%TO.P,REF\u002A\u002A,23*%
X66120000Y-64730000D03*
%TO.P,REF\u002A\u002A,24*%
X63580000Y-64730000D03*
%TO.P,REF\u002A\u002A,25*%
X61040000Y-64730000D03*
%TO.P,REF\u002A\u002A,26*%
X58500000Y-64730000D03*
%TO.P,REF\u002A\u002A,27*%
X55960000Y-64730000D03*
%TO.P,REF\u002A\u002A,28*%
X53420000Y-64730000D03*
%TO.P,REF\u002A\u002A,29*%
X50880000Y-64730000D03*
%TO.P,REF\u002A\u002A,30*%
X48340000Y-64730000D03*
%TD*%
D11*
%TO.P,REF\u002A\u002A,1*%
%TO.N,N/C*%
X122010000Y-105370000D03*
D12*
%TO.P,REF\u002A\u002A,2*%
X119470000Y-105370000D03*
%TO.P,REF\u002A\u002A,3*%
X116930000Y-105370000D03*
%TO.P,REF\u002A\u002A,4*%
X114390000Y-105370000D03*
%TO.P,REF\u002A\u002A,5*%
X111850000Y-105370000D03*
%TO.P,REF\u002A\u002A,6*%
X109310000Y-105370000D03*
%TO.P,REF\u002A\u002A,7*%
X106770000Y-105370000D03*
%TO.P,REF\u002A\u002A,8*%
X104230000Y-105370000D03*
%TO.P,REF\u002A\u002A,9*%
X101690000Y-105370000D03*
%TO.P,REF\u002A\u002A,10*%
X99150000Y-105370000D03*
%TO.P,REF\u002A\u002A,11*%
X96610000Y-105370000D03*
%TO.P,REF\u002A\u002A,12*%
X94070000Y-105370000D03*
%TO.P,REF\u002A\u002A,13*%
X91530000Y-105370000D03*
%TO.P,REF\u002A\u002A,14*%
X88990000Y-105370000D03*
%TO.P,REF\u002A\u002A,15*%
X86450000Y-105370000D03*
%TO.P,REF\u002A\u002A,16*%
X83910000Y-105370000D03*
%TO.P,REF\u002A\u002A,17*%
X81370000Y-105370000D03*
%TO.P,REF\u002A\u002A,18*%
X78830000Y-105370000D03*
%TO.P,REF\u002A\u002A,19*%
X76290000Y-105370000D03*
%TO.P,REF\u002A\u002A,20*%
X73750000Y-105370000D03*
%TO.P,REF\u002A\u002A,21*%
X71210000Y-105370000D03*
%TO.P,REF\u002A\u002A,22*%
X68670000Y-105370000D03*
%TO.P,REF\u002A\u002A,23*%
X66130000Y-105370000D03*
%TO.P,REF\u002A\u002A,24*%
X63590000Y-105370000D03*
%TO.P,REF\u002A\u002A,25*%
X61050000Y-105370000D03*
%TO.P,REF\u002A\u002A,26*%
X58510000Y-105370000D03*
%TO.P,REF\u002A\u002A,27*%
X55970000Y-105370000D03*
%TO.P,REF\u002A\u002A,28*%
X53430000Y-105370000D03*
%TO.P,REF\u002A\u002A,29*%
X50890000Y-105370000D03*
%TO.P,REF\u002A\u002A,30*%
X48350000Y-105370000D03*
%TD*%
%TO.P,,25*%
%TO.N,N/C*%
X83905000Y-72345000D03*
%TD*%
D11*
%TO.P,REF\u002A\u002A,1*%
%TO.N,N/C*%
X48400000Y-57060000D03*
D12*
%TO.P,REF\u002A\u002A,2*%
X50940000Y-57060000D03*
%TO.P,REF\u002A\u002A,3*%
X53480000Y-57060000D03*
%TO.P,REF\u002A\u002A,4*%
X56020000Y-57060000D03*
%TO.P,REF\u002A\u002A,5*%
X58560000Y-57060000D03*
%TO.P,REF\u002A\u002A,6*%
X61100000Y-57060000D03*
%TO.P,REF\u002A\u002A,7*%
X63640000Y-57060000D03*
%TO.P,REF\u002A\u002A,8*%
X66180000Y-57060000D03*
%TO.P,REF\u002A\u002A,9*%
X68720000Y-57060000D03*
%TO.P,REF\u002A\u002A,10*%
X71260000Y-57060000D03*
%TO.P,REF\u002A\u002A,11*%
X73800000Y-57060000D03*
%TO.P,REF\u002A\u002A,12*%
X76340000Y-57060000D03*
%TO.P,REF\u002A\u002A,13*%
X78880000Y-57060000D03*
%TO.P,REF\u002A\u002A,14*%
X81420000Y-57060000D03*
%TO.P,REF\u002A\u002A,15*%
X83960000Y-57060000D03*
%TO.P,REF\u002A\u002A,16*%
X86500000Y-57060000D03*
%TO.P,REF\u002A\u002A,17*%
X89040000Y-57060000D03*
%TO.P,REF\u002A\u002A,18*%
X91580000Y-57060000D03*
%TO.P,REF\u002A\u002A,19*%
X94120000Y-57060000D03*
%TO.P,REF\u002A\u002A,20*%
X96660000Y-57060000D03*
%TO.P,REF\u002A\u002A,21*%
X99200000Y-57060000D03*
%TO.P,REF\u002A\u002A,22*%
X101740000Y-57060000D03*
%TO.P,REF\u002A\u002A,23*%
X104280000Y-57060000D03*
%TO.P,REF\u002A\u002A,24*%
X106820000Y-57060000D03*
%TO.P,REF\u002A\u002A,25*%
X109360000Y-57060000D03*
%TO.P,REF\u002A\u002A,26*%
X111900000Y-57060000D03*
%TO.P,REF\u002A\u002A,27*%
X114440000Y-57060000D03*
%TO.P,REF\u002A\u002A,28*%
X116980000Y-57060000D03*
%TO.P,REF\u002A\u002A,29*%
X119520000Y-57060000D03*
%TO.P,REF\u002A\u002A,30*%
X122060000Y-57060000D03*
%TD*%
D11*
%TO.P,REF\u002A\u002A,1*%
%TO.N,N/C*%
X48410000Y-107860000D03*
D12*
%TO.P,REF\u002A\u002A,2*%
X50950000Y-107860000D03*
%TO.P,REF\u002A\u002A,3*%
X53490000Y-107860000D03*
%TO.P,REF\u002A\u002A,4*%
X56030000Y-107860000D03*
%TO.P,REF\u002A\u002A,5*%
X58570000Y-107860000D03*
%TO.P,REF\u002A\u002A,6*%
X61110000Y-107860000D03*
%TO.P,REF\u002A\u002A,7*%
X63650000Y-107860000D03*
%TO.P,REF\u002A\u002A,8*%
X66190000Y-107860000D03*
%TO.P,REF\u002A\u002A,9*%
X68730000Y-107860000D03*
%TO.P,REF\u002A\u002A,10*%
X71270000Y-107860000D03*
%TO.P,REF\u002A\u002A,11*%
X73810000Y-107860000D03*
%TO.P,REF\u002A\u002A,12*%
X76350000Y-107860000D03*
%TO.P,REF\u002A\u002A,13*%
X78890000Y-107860000D03*
%TO.P,REF\u002A\u002A,14*%
X81430000Y-107860000D03*
%TO.P,REF\u002A\u002A,15*%
X83970000Y-107860000D03*
%TO.P,REF\u002A\u002A,16*%
X86510000Y-107860000D03*
%TO.P,REF\u002A\u002A,17*%
X89050000Y-107860000D03*
%TO.P,REF\u002A\u002A,18*%
X91590000Y-107860000D03*
%TO.P,REF\u002A\u002A,19*%
X94130000Y-107860000D03*
%TO.P,REF\u002A\u002A,20*%
X96670000Y-107860000D03*
%TO.P,REF\u002A\u002A,21*%
X99210000Y-107860000D03*
%TO.P,REF\u002A\u002A,22*%
X101750000Y-107860000D03*
%TO.P,REF\u002A\u002A,23*%
X104290000Y-107860000D03*
%TO.P,REF\u002A\u002A,24*%
X106830000Y-107860000D03*
%TO.P,REF\u002A\u002A,25*%
X109370000Y-107860000D03*
%TO.P,REF\u002A\u002A,26*%
X111910000Y-107860000D03*
%TO.P,REF\u002A\u002A,27*%
X114450000Y-107860000D03*
%TO.P,REF\u002A\u002A,28*%
X116990000Y-107860000D03*
%TO.P,REF\u002A\u002A,29*%
X119530000Y-107860000D03*
%TO.P,REF\u002A\u002A,30*%
X122070000Y-107860000D03*
%TD*%
D11*
%TO.P,REF\u002A\u002A,1*%
%TO.N,N/C*%
X48410000Y-87540000D03*
D12*
%TO.P,REF\u002A\u002A,2*%
X50950000Y-87540000D03*
%TO.P,REF\u002A\u002A,3*%
X53490000Y-87540000D03*
%TO.P,REF\u002A\u002A,4*%
X56030000Y-87540000D03*
%TO.P,REF\u002A\u002A,5*%
X58570000Y-87540000D03*
%TO.P,REF\u002A\u002A,6*%
X61110000Y-87540000D03*
%TO.P,REF\u002A\u002A,7*%
X63650000Y-87540000D03*
%TO.P,REF\u002A\u002A,8*%
X66190000Y-87540000D03*
%TO.P,REF\u002A\u002A,9*%
X68730000Y-87540000D03*
%TO.P,REF\u002A\u002A,10*%
X71270000Y-87540000D03*
%TO.P,REF\u002A\u002A,11*%
X73810000Y-87540000D03*
%TO.P,REF\u002A\u002A,12*%
X76350000Y-87540000D03*
%TO.P,REF\u002A\u002A,13*%
X78890000Y-87540000D03*
%TO.P,REF\u002A\u002A,14*%
X81430000Y-87540000D03*
%TO.P,REF\u002A\u002A,15*%
X83970000Y-87540000D03*
%TO.P,REF\u002A\u002A,16*%
X86510000Y-87540000D03*
%TO.P,REF\u002A\u002A,17*%
X89050000Y-87540000D03*
%TO.P,REF\u002A\u002A,18*%
X91590000Y-87540000D03*
%TO.P,REF\u002A\u002A,19*%
X94130000Y-87540000D03*
%TO.P,REF\u002A\u002A,20*%
X96670000Y-87540000D03*
%TO.P,REF\u002A\u002A,21*%
X99210000Y-87540000D03*
%TO.P,REF\u002A\u002A,22*%
X101750000Y-87540000D03*
%TO.P,REF\u002A\u002A,23*%
X104290000Y-87540000D03*
%TO.P,REF\u002A\u002A,24*%
X106830000Y-87540000D03*
%TO.P,REF\u002A\u002A,25*%
X109370000Y-87540000D03*
%TO.P,REF\u002A\u002A,26*%
X111910000Y-87540000D03*
%TO.P,REF\u002A\u002A,27*%
X114450000Y-87540000D03*
%TO.P,REF\u002A\u002A,28*%
X116990000Y-87540000D03*
%TO.P,REF\u002A\u002A,29*%
X119530000Y-87540000D03*
%TO.P,REF\u002A\u002A,30*%
X122070000Y-87540000D03*
%TD*%
D11*
%TO.P,REF\u002A\u002A,1*%
%TO.N,N/C*%
X48410000Y-97700000D03*
D12*
%TO.P,REF\u002A\u002A,2*%
X50950000Y-97700000D03*
%TO.P,REF\u002A\u002A,3*%
X53490000Y-97700000D03*
%TO.P,REF\u002A\u002A,4*%
X56030000Y-97700000D03*
%TO.P,REF\u002A\u002A,5*%
X58570000Y-97700000D03*
%TO.P,REF\u002A\u002A,6*%
X61110000Y-97700000D03*
%TO.P,REF\u002A\u002A,7*%
X63650000Y-97700000D03*
%TO.P,REF\u002A\u002A,8*%
X66190000Y-97700000D03*
%TO.P,REF\u002A\u002A,9*%
X68730000Y-97700000D03*
%TO.P,REF\u002A\u002A,10*%
X71270000Y-97700000D03*
%TO.P,REF\u002A\u002A,11*%
X73810000Y-97700000D03*
%TO.P,REF\u002A\u002A,12*%
X76350000Y-97700000D03*
%TO.P,REF\u002A\u002A,13*%
X78890000Y-97700000D03*
%TO.P,REF\u002A\u002A,14*%
X81430000Y-97700000D03*
%TO.P,REF\u002A\u002A,15*%
X83970000Y-97700000D03*
%TO.P,REF\u002A\u002A,16*%
X86510000Y-97700000D03*
%TO.P,REF\u002A\u002A,17*%
X89050000Y-97700000D03*
%TO.P,REF\u002A\u002A,18*%
X91590000Y-97700000D03*
%TO.P,REF\u002A\u002A,19*%
X94130000Y-97700000D03*
%TO.P,REF\u002A\u002A,20*%
X96670000Y-97700000D03*
%TO.P,REF\u002A\u002A,21*%
X99210000Y-97700000D03*
%TO.P,REF\u002A\u002A,22*%
X101750000Y-97700000D03*
%TO.P,REF\u002A\u002A,23*%
X104290000Y-97700000D03*
%TO.P,REF\u002A\u002A,24*%
X106830000Y-97700000D03*
%TO.P,REF\u002A\u002A,25*%
X109370000Y-97700000D03*
%TO.P,REF\u002A\u002A,26*%
X111910000Y-97700000D03*
%TO.P,REF\u002A\u002A,27*%
X114450000Y-97700000D03*
%TO.P,REF\u002A\u002A,28*%
X116990000Y-97700000D03*
%TO.P,REF\u002A\u002A,29*%
X119530000Y-97700000D03*
%TO.P,REF\u002A\u002A,30*%
X122070000Y-97700000D03*
%TD*%
D11*
%TO.P,REF\u002A\u002A,1*%
%TO.N,N/C*%
X48400000Y-72300000D03*
D12*
%TO.P,REF\u002A\u002A,2*%
X50940000Y-72300000D03*
%TO.P,REF\u002A\u002A,3*%
X53480000Y-72300000D03*
%TO.P,REF\u002A\u002A,4*%
X56020000Y-72300000D03*
%TO.P,REF\u002A\u002A,5*%
X58560000Y-72300000D03*
%TO.P,REF\u002A\u002A,6*%
X61100000Y-72300000D03*
%TO.P,REF\u002A\u002A,7*%
X63640000Y-72300000D03*
%TO.P,REF\u002A\u002A,8*%
X66180000Y-72300000D03*
%TO.P,REF\u002A\u002A,9*%
X68720000Y-72300000D03*
%TO.P,REF\u002A\u002A,10*%
X71260000Y-72300000D03*
%TO.P,REF\u002A\u002A,11*%
X73800000Y-72300000D03*
%TO.P,REF\u002A\u002A,12*%
X76340000Y-72300000D03*
%TO.P,REF\u002A\u002A,13*%
X78880000Y-72300000D03*
%TO.P,REF\u002A\u002A,14*%
X81420000Y-72300000D03*
%TO.P,REF\u002A\u002A,15*%
X83960000Y-72300000D03*
%TO.P,REF\u002A\u002A,16*%
X86500000Y-72300000D03*
%TO.P,REF\u002A\u002A,17*%
X89040000Y-72300000D03*
%TO.P,REF\u002A\u002A,18*%
X91580000Y-72300000D03*
%TO.P,REF\u002A\u002A,19*%
X94120000Y-72300000D03*
%TO.P,REF\u002A\u002A,20*%
X96660000Y-72300000D03*
%TO.P,REF\u002A\u002A,21*%
X99200000Y-72300000D03*
%TO.P,REF\u002A\u002A,22*%
X101740000Y-72300000D03*
%TO.P,REF\u002A\u002A,23*%
X104280000Y-72300000D03*
%TO.P,REF\u002A\u002A,24*%
X106820000Y-72300000D03*
%TO.P,REF\u002A\u002A,25*%
X109360000Y-72300000D03*
%TO.P,REF\u002A\u002A,26*%
X111900000Y-72300000D03*
%TO.P,REF\u002A\u002A,27*%
X114440000Y-72300000D03*
%TO.P,REF\u002A\u002A,28*%
X116980000Y-72300000D03*
%TO.P,REF\u002A\u002A,29*%
X119520000Y-72300000D03*
%TO.P,REF\u002A\u002A,30*%
X122060000Y-72300000D03*
%TD*%
D11*
%TO.P,REF\u002A\u002A,1*%
%TO.N,N/C*%
X48410000Y-85000000D03*
D12*
%TO.P,REF\u002A\u002A,2*%
X50950000Y-85000000D03*
%TO.P,REF\u002A\u002A,3*%
X53490000Y-85000000D03*
%TO.P,REF\u002A\u002A,4*%
X56030000Y-85000000D03*
%TO.P,REF\u002A\u002A,5*%
X58570000Y-85000000D03*
%TO.P,REF\u002A\u002A,6*%
X61110000Y-85000000D03*
%TO.P,REF\u002A\u002A,7*%
X63650000Y-85000000D03*
%TO.P,REF\u002A\u002A,8*%
X66190000Y-85000000D03*
%TO.P,REF\u002A\u002A,9*%
X68730000Y-85000000D03*
%TO.P,REF\u002A\u002A,10*%
X71270000Y-85000000D03*
%TO.P,REF\u002A\u002A,11*%
X73810000Y-85000000D03*
%TO.P,REF\u002A\u002A,12*%
X76350000Y-85000000D03*
%TO.P,REF\u002A\u002A,13*%
X78890000Y-85000000D03*
%TO.P,REF\u002A\u002A,14*%
X81430000Y-85000000D03*
%TO.P,REF\u002A\u002A,15*%
X83970000Y-85000000D03*
%TO.P,REF\u002A\u002A,16*%
X86510000Y-85000000D03*
%TO.P,REF\u002A\u002A,17*%
X89050000Y-85000000D03*
%TO.P,REF\u002A\u002A,18*%
X91590000Y-85000000D03*
%TO.P,REF\u002A\u002A,19*%
X94130000Y-85000000D03*
%TO.P,REF\u002A\u002A,20*%
X96670000Y-85000000D03*
%TO.P,REF\u002A\u002A,21*%
X99210000Y-85000000D03*
%TO.P,REF\u002A\u002A,22*%
X101750000Y-85000000D03*
%TO.P,REF\u002A\u002A,23*%
X104290000Y-85000000D03*
%TO.P,REF\u002A\u002A,24*%
X106830000Y-85000000D03*
%TO.P,REF\u002A\u002A,25*%
X109370000Y-85000000D03*
%TO.P,REF\u002A\u002A,26*%
X111910000Y-85000000D03*
%TO.P,REF\u002A\u002A,27*%
X114450000Y-85000000D03*
%TO.P,REF\u002A\u002A,28*%
X116990000Y-85000000D03*
%TO.P,REF\u002A\u002A,29*%
X119530000Y-85000000D03*
%TO.P,REF\u002A\u002A,30*%
X122070000Y-85000000D03*
%TD*%
D11*
%TO.P,REF\u002A\u002A,1*%
%TO.N,N/C*%
X48410000Y-100240000D03*
D12*
%TO.P,REF\u002A\u002A,2*%
X50950000Y-100240000D03*
%TO.P,REF\u002A\u002A,3*%
X53490000Y-100240000D03*
%TO.P,REF\u002A\u002A,4*%
X56030000Y-100240000D03*
%TO.P,REF\u002A\u002A,5*%
X58570000Y-100240000D03*
%TO.P,REF\u002A\u002A,6*%
X61110000Y-100240000D03*
%TO.P,REF\u002A\u002A,7*%
X63650000Y-100240000D03*
%TO.P,REF\u002A\u002A,8*%
X66190000Y-100240000D03*
%TO.P,REF\u002A\u002A,9*%
X68730000Y-100240000D03*
%TO.P,REF\u002A\u002A,10*%
X71270000Y-100240000D03*
%TO.P,REF\u002A\u002A,11*%
X73810000Y-100240000D03*
%TO.P,REF\u002A\u002A,12*%
X76350000Y-100240000D03*
%TO.P,REF\u002A\u002A,13*%
X78890000Y-100240000D03*
%TO.P,REF\u002A\u002A,14*%
X81430000Y-100240000D03*
%TO.P,REF\u002A\u002A,15*%
X83970000Y-100240000D03*
%TO.P,REF\u002A\u002A,16*%
X86510000Y-100240000D03*
%TO.P,REF\u002A\u002A,17*%
X89050000Y-100240000D03*
%TO.P,REF\u002A\u002A,18*%
X91590000Y-100240000D03*
%TO.P,REF\u002A\u002A,19*%
X94130000Y-100240000D03*
%TO.P,REF\u002A\u002A,20*%
X96670000Y-100240000D03*
%TO.P,REF\u002A\u002A,21*%
X99210000Y-100240000D03*
%TO.P,REF\u002A\u002A,22*%
X101750000Y-100240000D03*
%TO.P,REF\u002A\u002A,23*%
X104290000Y-100240000D03*
%TO.P,REF\u002A\u002A,24*%
X106830000Y-100240000D03*
%TO.P,REF\u002A\u002A,25*%
X109370000Y-100240000D03*
%TO.P,REF\u002A\u002A,26*%
X111910000Y-100240000D03*
%TO.P,REF\u002A\u002A,27*%
X114450000Y-100240000D03*
%TO.P,REF\u002A\u002A,28*%
X116990000Y-100240000D03*
%TO.P,REF\u002A\u002A,29*%
X119530000Y-100240000D03*
%TO.P,REF\u002A\u002A,30*%
X122070000Y-100240000D03*
%TD*%
D11*
%TO.P,REF\u002A\u002A,1*%
%TO.N,N/C*%
X122010000Y-82510000D03*
D12*
%TO.P,REF\u002A\u002A,2*%
X119470000Y-82510000D03*
%TO.P,REF\u002A\u002A,3*%
X116930000Y-82510000D03*
%TO.P,REF\u002A\u002A,4*%
X114390000Y-82510000D03*
%TO.P,REF\u002A\u002A,5*%
X111850000Y-82510000D03*
%TO.P,REF\u002A\u002A,6*%
X109310000Y-82510000D03*
%TO.P,REF\u002A\u002A,7*%
X106770000Y-82510000D03*
%TO.P,REF\u002A\u002A,8*%
X104230000Y-82510000D03*
%TO.P,REF\u002A\u002A,9*%
X101690000Y-82510000D03*
%TO.P,REF\u002A\u002A,10*%
X99150000Y-82510000D03*
%TO.P,REF\u002A\u002A,11*%
X96610000Y-82510000D03*
%TO.P,REF\u002A\u002A,12*%
X94070000Y-82510000D03*
%TO.P,REF\u002A\u002A,13*%
X91530000Y-82510000D03*
%TO.P,REF\u002A\u002A,14*%
X88990000Y-82510000D03*
%TO.P,REF\u002A\u002A,15*%
X86450000Y-82510000D03*
%TO.P,REF\u002A\u002A,16*%
X83910000Y-82510000D03*
%TO.P,REF\u002A\u002A,17*%
X81370000Y-82510000D03*
%TO.P,REF\u002A\u002A,18*%
X78830000Y-82510000D03*
%TO.P,REF\u002A\u002A,19*%
X76290000Y-82510000D03*
%TO.P,REF\u002A\u002A,20*%
X73750000Y-82510000D03*
%TO.P,REF\u002A\u002A,21*%
X71210000Y-82510000D03*
%TO.P,REF\u002A\u002A,22*%
X68670000Y-82510000D03*
%TO.P,REF\u002A\u002A,23*%
X66130000Y-82510000D03*
%TO.P,REF\u002A\u002A,24*%
X63590000Y-82510000D03*
%TO.P,REF\u002A\u002A,25*%
X61050000Y-82510000D03*
%TO.P,REF\u002A\u002A,26*%
X58510000Y-82510000D03*
%TO.P,REF\u002A\u002A,27*%
X55970000Y-82510000D03*
%TO.P,REF\u002A\u002A,28*%
X53430000Y-82510000D03*
%TO.P,REF\u002A\u002A,29*%
X50890000Y-82510000D03*
%TO.P,REF\u002A\u002A,30*%
X48350000Y-82510000D03*
%TD*%
D11*
%TO.P,REF\u002A\u002A,1*%
%TO.N,N/C*%
X122010000Y-87590000D03*
D12*
%TO.P,REF\u002A\u002A,2*%
X119470000Y-87590000D03*
%TO.P,REF\u002A\u002A,3*%
X116930000Y-87590000D03*
%TO.P,REF\u002A\u002A,4*%
X114390000Y-87590000D03*
%TO.P,REF\u002A\u002A,5*%
X111850000Y-87590000D03*
%TO.P,REF\u002A\u002A,6*%
X109310000Y-87590000D03*
%TO.P,REF\u002A\u002A,7*%
X106770000Y-87590000D03*
%TO.P,REF\u002A\u002A,8*%
X104230000Y-87590000D03*
%TO.P,REF\u002A\u002A,9*%
X101690000Y-87590000D03*
%TO.P,REF\u002A\u002A,10*%
X99150000Y-87590000D03*
%TO.P,REF\u002A\u002A,11*%
X96610000Y-87590000D03*
%TO.P,REF\u002A\u002A,12*%
X94070000Y-87590000D03*
%TO.P,REF\u002A\u002A,13*%
X91530000Y-87590000D03*
%TO.P,REF\u002A\u002A,14*%
X88990000Y-87590000D03*
%TO.P,REF\u002A\u002A,15*%
X86450000Y-87590000D03*
%TO.P,REF\u002A\u002A,16*%
X83910000Y-87590000D03*
%TO.P,REF\u002A\u002A,17*%
X81370000Y-87590000D03*
%TO.P,REF\u002A\u002A,18*%
X78830000Y-87590000D03*
%TO.P,REF\u002A\u002A,19*%
X76290000Y-87590000D03*
%TO.P,REF\u002A\u002A,20*%
X73750000Y-87590000D03*
%TO.P,REF\u002A\u002A,21*%
X71210000Y-87590000D03*
%TO.P,REF\u002A\u002A,22*%
X68670000Y-87590000D03*
%TO.P,REF\u002A\u002A,23*%
X66130000Y-87590000D03*
%TO.P,REF\u002A\u002A,24*%
X63590000Y-87590000D03*
%TO.P,REF\u002A\u002A,25*%
X61050000Y-87590000D03*
%TO.P,REF\u002A\u002A,26*%
X58510000Y-87590000D03*
%TO.P,REF\u002A\u002A,27*%
X55970000Y-87590000D03*
%TO.P,REF\u002A\u002A,28*%
X53430000Y-87590000D03*
%TO.P,REF\u002A\u002A,29*%
X50890000Y-87590000D03*
%TO.P,REF\u002A\u002A,30*%
X48350000Y-87590000D03*
%TD*%
D11*
%TO.P,REF\u002A\u002A,1*%
%TO.N,N/C*%
X48410000Y-105320000D03*
D12*
%TO.P,REF\u002A\u002A,2*%
X50950000Y-105320000D03*
%TO.P,REF\u002A\u002A,3*%
X53490000Y-105320000D03*
%TO.P,REF\u002A\u002A,4*%
X56030000Y-105320000D03*
%TO.P,REF\u002A\u002A,5*%
X58570000Y-105320000D03*
%TO.P,REF\u002A\u002A,6*%
X61110000Y-105320000D03*
%TO.P,REF\u002A\u002A,7*%
X63650000Y-105320000D03*
%TO.P,REF\u002A\u002A,8*%
X66190000Y-105320000D03*
%TO.P,REF\u002A\u002A,9*%
X68730000Y-105320000D03*
%TO.P,REF\u002A\u002A,10*%
X71270000Y-105320000D03*
%TO.P,REF\u002A\u002A,11*%
X73810000Y-105320000D03*
%TO.P,REF\u002A\u002A,12*%
X76350000Y-105320000D03*
%TO.P,REF\u002A\u002A,13*%
X78890000Y-105320000D03*
%TO.P,REF\u002A\u002A,14*%
X81430000Y-105320000D03*
%TO.P,REF\u002A\u002A,15*%
X83970000Y-105320000D03*
%TO.P,REF\u002A\u002A,16*%
X86510000Y-105320000D03*
%TO.P,REF\u002A\u002A,17*%
X89050000Y-105320000D03*
%TO.P,REF\u002A\u002A,18*%
X91590000Y-105320000D03*
%TO.P,REF\u002A\u002A,19*%
X94130000Y-105320000D03*
%TO.P,REF\u002A\u002A,20*%
X96670000Y-105320000D03*
%TO.P,REF\u002A\u002A,21*%
X99210000Y-105320000D03*
%TO.P,REF\u002A\u002A,22*%
X101750000Y-105320000D03*
%TO.P,REF\u002A\u002A,23*%
X104290000Y-105320000D03*
%TO.P,REF\u002A\u002A,24*%
X106830000Y-105320000D03*
%TO.P,REF\u002A\u002A,25*%
X109370000Y-105320000D03*
%TO.P,REF\u002A\u002A,26*%
X111910000Y-105320000D03*
%TO.P,REF\u002A\u002A,27*%
X114450000Y-105320000D03*
%TO.P,REF\u002A\u002A,28*%
X116990000Y-105320000D03*
%TO.P,REF\u002A\u002A,29*%
X119530000Y-105320000D03*
%TO.P,REF\u002A\u002A,30*%
X122070000Y-105320000D03*
%TD*%
D11*
%TO.P,REF\u002A\u002A,1*%
%TO.N,N/C*%
X48400000Y-51980000D03*
D12*
%TO.P,REF\u002A\u002A,2*%
X50940000Y-51980000D03*
%TO.P,REF\u002A\u002A,3*%
X53480000Y-51980000D03*
%TO.P,REF\u002A\u002A,4*%
X56020000Y-51980000D03*
%TO.P,REF\u002A\u002A,5*%
X58560000Y-51980000D03*
%TO.P,REF\u002A\u002A,6*%
X61100000Y-51980000D03*
%TO.P,REF\u002A\u002A,7*%
X63640000Y-51980000D03*
%TO.P,REF\u002A\u002A,8*%
X66180000Y-51980000D03*
%TO.P,REF\u002A\u002A,9*%
X68720000Y-51980000D03*
%TO.P,REF\u002A\u002A,10*%
X71260000Y-51980000D03*
%TO.P,REF\u002A\u002A,11*%
X73800000Y-51980000D03*
%TO.P,REF\u002A\u002A,12*%
X76340000Y-51980000D03*
%TO.P,REF\u002A\u002A,13*%
X78880000Y-51980000D03*
%TO.P,REF\u002A\u002A,14*%
X81420000Y-51980000D03*
%TO.P,REF\u002A\u002A,15*%
X83960000Y-51980000D03*
%TO.P,REF\u002A\u002A,16*%
X86500000Y-51980000D03*
%TO.P,REF\u002A\u002A,17*%
X89040000Y-51980000D03*
%TO.P,REF\u002A\u002A,18*%
X91580000Y-51980000D03*
%TO.P,REF\u002A\u002A,19*%
X94120000Y-51980000D03*
%TO.P,REF\u002A\u002A,20*%
X96660000Y-51980000D03*
%TO.P,REF\u002A\u002A,21*%
X99200000Y-51980000D03*
%TO.P,REF\u002A\u002A,22*%
X101740000Y-51980000D03*
%TO.P,REF\u002A\u002A,23*%
X104280000Y-51980000D03*
%TO.P,REF\u002A\u002A,24*%
X106820000Y-51980000D03*
%TO.P,REF\u002A\u002A,25*%
X109360000Y-51980000D03*
%TO.P,REF\u002A\u002A,26*%
X111900000Y-51980000D03*
%TO.P,REF\u002A\u002A,27*%
X114440000Y-51980000D03*
%TO.P,REF\u002A\u002A,28*%
X116980000Y-51980000D03*
%TO.P,REF\u002A\u002A,29*%
X119520000Y-51980000D03*
%TO.P,REF\u002A\u002A,30*%
X122060000Y-51980000D03*
%TD*%
D11*
%TO.P,REF\u002A\u002A,1*%
%TO.N,N/C*%
X122010000Y-92670000D03*
D12*
%TO.P,REF\u002A\u002A,2*%
X119470000Y-92670000D03*
%TO.P,REF\u002A\u002A,3*%
X116930000Y-92670000D03*
%TO.P,REF\u002A\u002A,4*%
X114390000Y-92670000D03*
%TO.P,REF\u002A\u002A,5*%
X111850000Y-92670000D03*
%TO.P,REF\u002A\u002A,6*%
X109310000Y-92670000D03*
%TO.P,REF\u002A\u002A,7*%
X106770000Y-92670000D03*
%TO.P,REF\u002A\u002A,8*%
X104230000Y-92670000D03*
%TO.P,REF\u002A\u002A,9*%
X101690000Y-92670000D03*
%TO.P,REF\u002A\u002A,10*%
X99150000Y-92670000D03*
%TO.P,REF\u002A\u002A,11*%
X96610000Y-92670000D03*
%TO.P,REF\u002A\u002A,12*%
X94070000Y-92670000D03*
%TO.P,REF\u002A\u002A,13*%
X91530000Y-92670000D03*
%TO.P,REF\u002A\u002A,14*%
X88990000Y-92670000D03*
%TO.P,REF\u002A\u002A,15*%
X86450000Y-92670000D03*
%TO.P,REF\u002A\u002A,16*%
X83910000Y-92670000D03*
%TO.P,REF\u002A\u002A,17*%
X81370000Y-92670000D03*
%TO.P,REF\u002A\u002A,18*%
X78830000Y-92670000D03*
%TO.P,REF\u002A\u002A,19*%
X76290000Y-92670000D03*
%TO.P,REF\u002A\u002A,20*%
X73750000Y-92670000D03*
%TO.P,REF\u002A\u002A,21*%
X71210000Y-92670000D03*
%TO.P,REF\u002A\u002A,22*%
X68670000Y-92670000D03*
%TO.P,REF\u002A\u002A,23*%
X66130000Y-92670000D03*
%TO.P,REF\u002A\u002A,24*%
X63590000Y-92670000D03*
%TO.P,REF\u002A\u002A,25*%
X61050000Y-92670000D03*
%TO.P,REF\u002A\u002A,26*%
X58510000Y-92670000D03*
%TO.P,REF\u002A\u002A,27*%
X55970000Y-92670000D03*
%TO.P,REF\u002A\u002A,28*%
X53430000Y-92670000D03*
%TO.P,REF\u002A\u002A,29*%
X50890000Y-92670000D03*
%TO.P,REF\u002A\u002A,30*%
X48350000Y-92670000D03*
%TD*%
D11*
%TO.P,REF\u002A\u002A,1*%
%TO.N,N/C*%
X48410000Y-90080000D03*
D12*
%TO.P,REF\u002A\u002A,2*%
X50950000Y-90080000D03*
%TO.P,REF\u002A\u002A,3*%
X53490000Y-90080000D03*
%TO.P,REF\u002A\u002A,4*%
X56030000Y-90080000D03*
%TO.P,REF\u002A\u002A,5*%
X58570000Y-90080000D03*
%TO.P,REF\u002A\u002A,6*%
X61110000Y-90080000D03*
%TO.P,REF\u002A\u002A,7*%
X63650000Y-90080000D03*
%TO.P,REF\u002A\u002A,8*%
X66190000Y-90080000D03*
%TO.P,REF\u002A\u002A,9*%
X68730000Y-90080000D03*
%TO.P,REF\u002A\u002A,10*%
X71270000Y-90080000D03*
%TO.P,REF\u002A\u002A,11*%
X73810000Y-90080000D03*
%TO.P,REF\u002A\u002A,12*%
X76350000Y-90080000D03*
%TO.P,REF\u002A\u002A,13*%
X78890000Y-90080000D03*
%TO.P,REF\u002A\u002A,14*%
X81430000Y-90080000D03*
%TO.P,REF\u002A\u002A,15*%
X83970000Y-90080000D03*
%TO.P,REF\u002A\u002A,16*%
X86510000Y-90080000D03*
%TO.P,REF\u002A\u002A,17*%
X89050000Y-90080000D03*
%TO.P,REF\u002A\u002A,18*%
X91590000Y-90080000D03*
%TO.P,REF\u002A\u002A,19*%
X94130000Y-90080000D03*
%TO.P,REF\u002A\u002A,20*%
X96670000Y-90080000D03*
%TO.P,REF\u002A\u002A,21*%
X99210000Y-90080000D03*
%TO.P,REF\u002A\u002A,22*%
X101750000Y-90080000D03*
%TO.P,REF\u002A\u002A,23*%
X104290000Y-90080000D03*
%TO.P,REF\u002A\u002A,24*%
X106830000Y-90080000D03*
%TO.P,REF\u002A\u002A,25*%
X109370000Y-90080000D03*
%TO.P,REF\u002A\u002A,26*%
X111910000Y-90080000D03*
%TO.P,REF\u002A\u002A,27*%
X114450000Y-90080000D03*
%TO.P,REF\u002A\u002A,28*%
X116990000Y-90080000D03*
%TO.P,REF\u002A\u002A,29*%
X119530000Y-90080000D03*
%TO.P,REF\u002A\u002A,30*%
X122070000Y-90080000D03*
%TD*%
D11*
%TO.P,REF\u002A\u002A,1*%
%TO.N,N/C*%
X122010000Y-100290000D03*
D12*
%TO.P,REF\u002A\u002A,2*%
X119470000Y-100290000D03*
%TO.P,REF\u002A\u002A,3*%
X116930000Y-100290000D03*
%TO.P,REF\u002A\u002A,4*%
X114390000Y-100290000D03*
%TO.P,REF\u002A\u002A,5*%
X111850000Y-100290000D03*
%TO.P,REF\u002A\u002A,6*%
X109310000Y-100290000D03*
%TO.P,REF\u002A\u002A,7*%
X106770000Y-100290000D03*
%TO.P,REF\u002A\u002A,8*%
X104230000Y-100290000D03*
%TO.P,REF\u002A\u002A,9*%
X101690000Y-100290000D03*
%TO.P,REF\u002A\u002A,10*%
X99150000Y-100290000D03*
%TO.P,REF\u002A\u002A,11*%
X96610000Y-100290000D03*
%TO.P,REF\u002A\u002A,12*%
X94070000Y-100290000D03*
%TO.P,REF\u002A\u002A,13*%
X91530000Y-100290000D03*
%TO.P,REF\u002A\u002A,14*%
X88990000Y-100290000D03*
%TO.P,REF\u002A\u002A,15*%
X86450000Y-100290000D03*
%TO.P,REF\u002A\u002A,16*%
X83910000Y-100290000D03*
%TO.P,REF\u002A\u002A,17*%
X81370000Y-100290000D03*
%TO.P,REF\u002A\u002A,18*%
X78830000Y-100290000D03*
%TO.P,REF\u002A\u002A,19*%
X76290000Y-100290000D03*
%TO.P,REF\u002A\u002A,20*%
X73750000Y-100290000D03*
%TO.P,REF\u002A\u002A,21*%
X71210000Y-100290000D03*
%TO.P,REF\u002A\u002A,22*%
X68670000Y-100290000D03*
%TO.P,REF\u002A\u002A,23*%
X66130000Y-100290000D03*
%TO.P,REF\u002A\u002A,24*%
X63590000Y-100290000D03*
%TO.P,REF\u002A\u002A,25*%
X61050000Y-100290000D03*
%TO.P,REF\u002A\u002A,26*%
X58510000Y-100290000D03*
%TO.P,REF\u002A\u002A,27*%
X55970000Y-100290000D03*
%TO.P,REF\u002A\u002A,28*%
X53430000Y-100290000D03*
%TO.P,REF\u002A\u002A,29*%
X50890000Y-100290000D03*
%TO.P,REF\u002A\u002A,30*%
X48350000Y-100290000D03*
%TD*%
D11*
%TO.P,REF\u002A\u002A,1*%
%TO.N,N/C*%
X48400000Y-59600000D03*
D12*
%TO.P,REF\u002A\u002A,2*%
X50940000Y-59600000D03*
%TO.P,REF\u002A\u002A,3*%
X53480000Y-59600000D03*
%TO.P,REF\u002A\u002A,4*%
X56020000Y-59600000D03*
%TO.P,REF\u002A\u002A,5*%
X58560000Y-59600000D03*
%TO.P,REF\u002A\u002A,6*%
X61100000Y-59600000D03*
%TO.P,REF\u002A\u002A,7*%
X63640000Y-59600000D03*
%TO.P,REF\u002A\u002A,8*%
X66180000Y-59600000D03*
%TO.P,REF\u002A\u002A,9*%
X68720000Y-59600000D03*
%TO.P,REF\u002A\u002A,10*%
X71260000Y-59600000D03*
%TO.P,REF\u002A\u002A,11*%
X73800000Y-59600000D03*
%TO.P,REF\u002A\u002A,12*%
X76340000Y-59600000D03*
%TO.P,REF\u002A\u002A,13*%
X78880000Y-59600000D03*
%TO.P,REF\u002A\u002A,14*%
X81420000Y-59600000D03*
%TO.P,REF\u002A\u002A,15*%
X83960000Y-59600000D03*
%TO.P,REF\u002A\u002A,16*%
X86500000Y-59600000D03*
%TO.P,REF\u002A\u002A,17*%
X89040000Y-59600000D03*
%TO.P,REF\u002A\u002A,18*%
X91580000Y-59600000D03*
%TO.P,REF\u002A\u002A,19*%
X94120000Y-59600000D03*
%TO.P,REF\u002A\u002A,20*%
X96660000Y-59600000D03*
%TO.P,REF\u002A\u002A,21*%
X99200000Y-59600000D03*
%TO.P,REF\u002A\u002A,22*%
X101740000Y-59600000D03*
%TO.P,REF\u002A\u002A,23*%
X104280000Y-59600000D03*
%TO.P,REF\u002A\u002A,24*%
X106820000Y-59600000D03*
%TO.P,REF\u002A\u002A,25*%
X109360000Y-59600000D03*
%TO.P,REF\u002A\u002A,26*%
X111900000Y-59600000D03*
%TO.P,REF\u002A\u002A,27*%
X114440000Y-59600000D03*
%TO.P,REF\u002A\u002A,28*%
X116980000Y-59600000D03*
%TO.P,REF\u002A\u002A,29*%
X119520000Y-59600000D03*
%TO.P,REF\u002A\u002A,30*%
X122060000Y-59600000D03*
%TD*%
D11*
%TO.P,REF\u002A\u002A,1*%
%TO.N,N/C*%
X48400000Y-62140000D03*
D12*
%TO.P,REF\u002A\u002A,2*%
X50940000Y-62140000D03*
%TO.P,REF\u002A\u002A,3*%
X53480000Y-62140000D03*
%TO.P,REF\u002A\u002A,4*%
X56020000Y-62140000D03*
%TO.P,REF\u002A\u002A,5*%
X58560000Y-62140000D03*
%TO.P,REF\u002A\u002A,6*%
X61100000Y-62140000D03*
%TO.P,REF\u002A\u002A,7*%
X63640000Y-62140000D03*
%TO.P,REF\u002A\u002A,8*%
X66180000Y-62140000D03*
%TO.P,REF\u002A\u002A,9*%
X68720000Y-62140000D03*
%TO.P,REF\u002A\u002A,10*%
X71260000Y-62140000D03*
%TO.P,REF\u002A\u002A,11*%
X73800000Y-62140000D03*
%TO.P,REF\u002A\u002A,12*%
X76340000Y-62140000D03*
%TO.P,REF\u002A\u002A,13*%
X78880000Y-62140000D03*
%TO.P,REF\u002A\u002A,14*%
X81420000Y-62140000D03*
%TO.P,REF\u002A\u002A,15*%
X83960000Y-62140000D03*
%TO.P,REF\u002A\u002A,16*%
X86500000Y-62140000D03*
%TO.P,REF\u002A\u002A,17*%
X89040000Y-62140000D03*
%TO.P,REF\u002A\u002A,18*%
X91580000Y-62140000D03*
%TO.P,REF\u002A\u002A,19*%
X94120000Y-62140000D03*
%TO.P,REF\u002A\u002A,20*%
X96660000Y-62140000D03*
%TO.P,REF\u002A\u002A,21*%
X99200000Y-62140000D03*
%TO.P,REF\u002A\u002A,22*%
X101740000Y-62140000D03*
%TO.P,REF\u002A\u002A,23*%
X104280000Y-62140000D03*
%TO.P,REF\u002A\u002A,24*%
X106820000Y-62140000D03*
%TO.P,REF\u002A\u002A,25*%
X109360000Y-62140000D03*
%TO.P,REF\u002A\u002A,26*%
X111900000Y-62140000D03*
%TO.P,REF\u002A\u002A,27*%
X114440000Y-62140000D03*
%TO.P,REF\u002A\u002A,28*%
X116980000Y-62140000D03*
%TO.P,REF\u002A\u002A,29*%
X119520000Y-62140000D03*
%TO.P,REF\u002A\u002A,30*%
X122060000Y-62140000D03*
%TD*%
D11*
%TO.P,REF\u002A\u002A,1*%
%TO.N,N/C*%
X122000000Y-72350000D03*
D12*
%TO.P,REF\u002A\u002A,2*%
X119460000Y-72350000D03*
%TO.P,REF\u002A\u002A,3*%
X116920000Y-72350000D03*
%TO.P,REF\u002A\u002A,4*%
X114380000Y-72350000D03*
%TO.P,REF\u002A\u002A,5*%
X111840000Y-72350000D03*
%TO.P,REF\u002A\u002A,6*%
X109300000Y-72350000D03*
%TO.P,REF\u002A\u002A,7*%
X106760000Y-72350000D03*
%TO.P,REF\u002A\u002A,8*%
X104220000Y-72350000D03*
%TO.P,REF\u002A\u002A,9*%
X101680000Y-72350000D03*
%TO.P,REF\u002A\u002A,10*%
X99140000Y-72350000D03*
%TO.P,REF\u002A\u002A,11*%
X96600000Y-72350000D03*
%TO.P,REF\u002A\u002A,12*%
X94060000Y-72350000D03*
%TO.P,REF\u002A\u002A,13*%
X91520000Y-72350000D03*
%TO.P,REF\u002A\u002A,14*%
X88980000Y-72350000D03*
%TO.P,REF\u002A\u002A,15*%
X86440000Y-72350000D03*
%TO.P,REF\u002A\u002A,16*%
X83900000Y-72350000D03*
%TO.P,REF\u002A\u002A,17*%
X81360000Y-72350000D03*
%TO.P,REF\u002A\u002A,18*%
X78820000Y-72350000D03*
%TO.P,REF\u002A\u002A,19*%
X76280000Y-72350000D03*
%TO.P,REF\u002A\u002A,20*%
X73740000Y-72350000D03*
%TO.P,REF\u002A\u002A,21*%
X71200000Y-72350000D03*
%TO.P,REF\u002A\u002A,22*%
X68660000Y-72350000D03*
%TO.P,REF\u002A\u002A,23*%
X66120000Y-72350000D03*
%TO.P,REF\u002A\u002A,24*%
X63580000Y-72350000D03*
%TO.P,REF\u002A\u002A,25*%
X61040000Y-72350000D03*
%TO.P,REF\u002A\u002A,26*%
X58500000Y-72350000D03*
%TO.P,REF\u002A\u002A,27*%
X55960000Y-72350000D03*
%TO.P,REF\u002A\u002A,28*%
X53420000Y-72350000D03*
%TO.P,REF\u002A\u002A,29*%
X50880000Y-72350000D03*
%TO.P,REF\u002A\u002A,30*%
X48340000Y-72350000D03*
%TD*%
D11*
%TO.P,REF\u002A\u002A,1*%
%TO.N,N/C*%
X48410000Y-82460000D03*
D12*
%TO.P,REF\u002A\u002A,2*%
X50950000Y-82460000D03*
%TO.P,REF\u002A\u002A,3*%
X53490000Y-82460000D03*
%TO.P,REF\u002A\u002A,4*%
X56030000Y-82460000D03*
%TO.P,REF\u002A\u002A,5*%
X58570000Y-82460000D03*
%TO.P,REF\u002A\u002A,6*%
X61110000Y-82460000D03*
%TO.P,REF\u002A\u002A,7*%
X63650000Y-82460000D03*
%TO.P,REF\u002A\u002A,8*%
X66190000Y-82460000D03*
%TO.P,REF\u002A\u002A,9*%
X68730000Y-82460000D03*
%TO.P,REF\u002A\u002A,10*%
X71270000Y-82460000D03*
%TO.P,REF\u002A\u002A,11*%
X73810000Y-82460000D03*
%TO.P,REF\u002A\u002A,12*%
X76350000Y-82460000D03*
%TO.P,REF\u002A\u002A,13*%
X78890000Y-82460000D03*
%TO.P,REF\u002A\u002A,14*%
X81430000Y-82460000D03*
%TO.P,REF\u002A\u002A,15*%
X83970000Y-82460000D03*
%TO.P,REF\u002A\u002A,16*%
X86510000Y-82460000D03*
%TO.P,REF\u002A\u002A,17*%
X89050000Y-82460000D03*
%TO.P,REF\u002A\u002A,18*%
X91590000Y-82460000D03*
%TO.P,REF\u002A\u002A,19*%
X94130000Y-82460000D03*
%TO.P,REF\u002A\u002A,20*%
X96670000Y-82460000D03*
%TO.P,REF\u002A\u002A,21*%
X99210000Y-82460000D03*
%TO.P,REF\u002A\u002A,22*%
X101750000Y-82460000D03*
%TO.P,REF\u002A\u002A,23*%
X104290000Y-82460000D03*
%TO.P,REF\u002A\u002A,24*%
X106830000Y-82460000D03*
%TO.P,REF\u002A\u002A,25*%
X109370000Y-82460000D03*
%TO.P,REF\u002A\u002A,26*%
X111910000Y-82460000D03*
%TO.P,REF\u002A\u002A,27*%
X114450000Y-82460000D03*
%TO.P,REF\u002A\u002A,28*%
X116990000Y-82460000D03*
%TO.P,REF\u002A\u002A,29*%
X119530000Y-82460000D03*
%TO.P,REF\u002A\u002A,30*%
X122070000Y-82460000D03*
%TD*%
D11*
%TO.P,REF\u002A\u002A,1*%
%TO.N,N/C*%
X48400000Y-49440000D03*
D12*
%TO.P,REF\u002A\u002A,2*%
X50940000Y-49440000D03*
%TO.P,REF\u002A\u002A,3*%
X53480000Y-49440000D03*
%TO.P,REF\u002A\u002A,4*%
X56020000Y-49440000D03*
%TO.P,REF\u002A\u002A,5*%
X58560000Y-49440000D03*
%TO.P,REF\u002A\u002A,6*%
X61100000Y-49440000D03*
%TO.P,REF\u002A\u002A,7*%
X63640000Y-49440000D03*
%TO.P,REF\u002A\u002A,8*%
X66180000Y-49440000D03*
%TO.P,REF\u002A\u002A,9*%
X68720000Y-49440000D03*
%TO.P,REF\u002A\u002A,10*%
X71260000Y-49440000D03*
%TO.P,REF\u002A\u002A,11*%
X73800000Y-49440000D03*
%TO.P,REF\u002A\u002A,12*%
X76340000Y-49440000D03*
%TO.P,REF\u002A\u002A,13*%
X78880000Y-49440000D03*
%TO.P,REF\u002A\u002A,14*%
X81420000Y-49440000D03*
%TO.P,REF\u002A\u002A,15*%
X83960000Y-49440000D03*
%TO.P,REF\u002A\u002A,16*%
X86500000Y-49440000D03*
%TO.P,REF\u002A\u002A,17*%
X89040000Y-49440000D03*
%TO.P,REF\u002A\u002A,18*%
X91580000Y-49440000D03*
%TO.P,REF\u002A\u002A,19*%
X94120000Y-49440000D03*
%TO.P,REF\u002A\u002A,20*%
X96660000Y-49440000D03*
%TO.P,REF\u002A\u002A,21*%
X99200000Y-49440000D03*
%TO.P,REF\u002A\u002A,22*%
X101740000Y-49440000D03*
%TO.P,REF\u002A\u002A,23*%
X104280000Y-49440000D03*
%TO.P,REF\u002A\u002A,24*%
X106820000Y-49440000D03*
%TO.P,REF\u002A\u002A,25*%
X109360000Y-49440000D03*
%TO.P,REF\u002A\u002A,26*%
X111900000Y-49440000D03*
%TO.P,REF\u002A\u002A,27*%
X114440000Y-49440000D03*
%TO.P,REF\u002A\u002A,28*%
X116980000Y-49440000D03*
%TO.P,REF\u002A\u002A,29*%
X119520000Y-49440000D03*
%TO.P,REF\u002A\u002A,30*%
X122060000Y-49440000D03*
%TD*%
%TO.P,,25*%
%TO.N,N/C*%
X86505000Y-85005000D03*
%TD*%
D11*
%TO.P,REF\u002A\u002A,1*%
%TO.N,N/C*%
X48400000Y-67220000D03*
D12*
%TO.P,REF\u002A\u002A,2*%
X50940000Y-67220000D03*
%TO.P,REF\u002A\u002A,3*%
X53480000Y-67220000D03*
%TO.P,REF\u002A\u002A,4*%
X56020000Y-67220000D03*
%TO.P,REF\u002A\u002A,5*%
X58560000Y-67220000D03*
%TO.P,REF\u002A\u002A,6*%
X61100000Y-67220000D03*
%TO.P,REF\u002A\u002A,7*%
X63640000Y-67220000D03*
%TO.P,REF\u002A\u002A,8*%
X66180000Y-67220000D03*
%TO.P,REF\u002A\u002A,9*%
X68720000Y-67220000D03*
%TO.P,REF\u002A\u002A,10*%
X71260000Y-67220000D03*
%TO.P,REF\u002A\u002A,11*%
X73800000Y-67220000D03*
%TO.P,REF\u002A\u002A,12*%
X76340000Y-67220000D03*
%TO.P,REF\u002A\u002A,13*%
X78880000Y-67220000D03*
%TO.P,REF\u002A\u002A,14*%
X81420000Y-67220000D03*
%TO.P,REF\u002A\u002A,15*%
X83960000Y-67220000D03*
%TO.P,REF\u002A\u002A,16*%
X86500000Y-67220000D03*
%TO.P,REF\u002A\u002A,17*%
X89040000Y-67220000D03*
%TO.P,REF\u002A\u002A,18*%
X91580000Y-67220000D03*
%TO.P,REF\u002A\u002A,19*%
X94120000Y-67220000D03*
%TO.P,REF\u002A\u002A,20*%
X96660000Y-67220000D03*
%TO.P,REF\u002A\u002A,21*%
X99200000Y-67220000D03*
%TO.P,REF\u002A\u002A,22*%
X101740000Y-67220000D03*
%TO.P,REF\u002A\u002A,23*%
X104280000Y-67220000D03*
%TO.P,REF\u002A\u002A,24*%
X106820000Y-67220000D03*
%TO.P,REF\u002A\u002A,25*%
X109360000Y-67220000D03*
%TO.P,REF\u002A\u002A,26*%
X111900000Y-67220000D03*
%TO.P,REF\u002A\u002A,27*%
X114440000Y-67220000D03*
%TO.P,REF\u002A\u002A,28*%
X116980000Y-67220000D03*
%TO.P,REF\u002A\u002A,29*%
X119520000Y-67220000D03*
%TO.P,REF\u002A\u002A,30*%
X122060000Y-67220000D03*
%TD*%
D11*
%TO.P,REF\u002A\u002A,1*%
%TO.N,N/C*%
X48410000Y-95160000D03*
D12*
%TO.P,REF\u002A\u002A,2*%
X50950000Y-95160000D03*
%TO.P,REF\u002A\u002A,3*%
X53490000Y-95160000D03*
%TO.P,REF\u002A\u002A,4*%
X56030000Y-95160000D03*
%TO.P,REF\u002A\u002A,5*%
X58570000Y-95160000D03*
%TO.P,REF\u002A\u002A,6*%
X61110000Y-95160000D03*
%TO.P,REF\u002A\u002A,7*%
X63650000Y-95160000D03*
%TO.P,REF\u002A\u002A,8*%
X66190000Y-95160000D03*
%TO.P,REF\u002A\u002A,9*%
X68730000Y-95160000D03*
%TO.P,REF\u002A\u002A,10*%
X71270000Y-95160000D03*
%TO.P,REF\u002A\u002A,11*%
X73810000Y-95160000D03*
%TO.P,REF\u002A\u002A,12*%
X76350000Y-95160000D03*
%TO.P,REF\u002A\u002A,13*%
X78890000Y-95160000D03*
%TO.P,REF\u002A\u002A,14*%
X81430000Y-95160000D03*
%TO.P,REF\u002A\u002A,15*%
X83970000Y-95160000D03*
%TO.P,REF\u002A\u002A,16*%
X86510000Y-95160000D03*
%TO.P,REF\u002A\u002A,17*%
X89050000Y-95160000D03*
%TO.P,REF\u002A\u002A,18*%
X91590000Y-95160000D03*
%TO.P,REF\u002A\u002A,19*%
X94130000Y-95160000D03*
%TO.P,REF\u002A\u002A,20*%
X96670000Y-95160000D03*
%TO.P,REF\u002A\u002A,21*%
X99210000Y-95160000D03*
%TO.P,REF\u002A\u002A,22*%
X101750000Y-95160000D03*
%TO.P,REF\u002A\u002A,23*%
X104290000Y-95160000D03*
%TO.P,REF\u002A\u002A,24*%
X106830000Y-95160000D03*
%TO.P,REF\u002A\u002A,25*%
X109370000Y-95160000D03*
%TO.P,REF\u002A\u002A,26*%
X111910000Y-95160000D03*
%TO.P,REF\u002A\u002A,27*%
X114450000Y-95160000D03*
%TO.P,REF\u002A\u002A,28*%
X116990000Y-95160000D03*
%TO.P,REF\u002A\u002A,29*%
X119530000Y-95160000D03*
%TO.P,REF\u002A\u002A,30*%
X122070000Y-95160000D03*
%TD*%
D11*
%TO.P,REF\u002A\u002A,1*%
%TO.N,N/C*%
X48400000Y-64680000D03*
D12*
%TO.P,REF\u002A\u002A,2*%
X50940000Y-64680000D03*
%TO.P,REF\u002A\u002A,3*%
X53480000Y-64680000D03*
%TO.P,REF\u002A\u002A,4*%
X56020000Y-64680000D03*
%TO.P,REF\u002A\u002A,5*%
X58560000Y-64680000D03*
%TO.P,REF\u002A\u002A,6*%
X61100000Y-64680000D03*
%TO.P,REF\u002A\u002A,7*%
X63640000Y-64680000D03*
%TO.P,REF\u002A\u002A,8*%
X66180000Y-64680000D03*
%TO.P,REF\u002A\u002A,9*%
X68720000Y-64680000D03*
%TO.P,REF\u002A\u002A,10*%
X71260000Y-64680000D03*
%TO.P,REF\u002A\u002A,11*%
X73800000Y-64680000D03*
%TO.P,REF\u002A\u002A,12*%
X76340000Y-64680000D03*
%TO.P,REF\u002A\u002A,13*%
X78880000Y-64680000D03*
%TO.P,REF\u002A\u002A,14*%
X81420000Y-64680000D03*
%TO.P,REF\u002A\u002A,15*%
X83960000Y-64680000D03*
%TO.P,REF\u002A\u002A,16*%
X86500000Y-64680000D03*
%TO.P,REF\u002A\u002A,17*%
X89040000Y-64680000D03*
%TO.P,REF\u002A\u002A,18*%
X91580000Y-64680000D03*
%TO.P,REF\u002A\u002A,19*%
X94120000Y-64680000D03*
%TO.P,REF\u002A\u002A,20*%
X96660000Y-64680000D03*
%TO.P,REF\u002A\u002A,21*%
X99200000Y-64680000D03*
%TO.P,REF\u002A\u002A,22*%
X101740000Y-64680000D03*
%TO.P,REF\u002A\u002A,23*%
X104280000Y-64680000D03*
%TO.P,REF\u002A\u002A,24*%
X106820000Y-64680000D03*
%TO.P,REF\u002A\u002A,25*%
X109360000Y-64680000D03*
%TO.P,REF\u002A\u002A,26*%
X111900000Y-64680000D03*
%TO.P,REF\u002A\u002A,27*%
X114440000Y-64680000D03*
%TO.P,REF\u002A\u002A,28*%
X116980000Y-64680000D03*
%TO.P,REF\u002A\u002A,29*%
X119520000Y-64680000D03*
%TO.P,REF\u002A\u002A,30*%
X122060000Y-64680000D03*
%TD*%
D11*
%TO.P,REF\u002A\u002A,1*%
%TO.N,N/C*%
X48400000Y-69760000D03*
D12*
%TO.P,REF\u002A\u002A,2*%
X50940000Y-69760000D03*
%TO.P,REF\u002A\u002A,3*%
X53480000Y-69760000D03*
%TO.P,REF\u002A\u002A,4*%
X56020000Y-69760000D03*
%TO.P,REF\u002A\u002A,5*%
X58560000Y-69760000D03*
%TO.P,REF\u002A\u002A,6*%
X61100000Y-69760000D03*
%TO.P,REF\u002A\u002A,7*%
X63640000Y-69760000D03*
%TO.P,REF\u002A\u002A,8*%
X66180000Y-69760000D03*
%TO.P,REF\u002A\u002A,9*%
X68720000Y-69760000D03*
%TO.P,REF\u002A\u002A,10*%
X71260000Y-69760000D03*
%TO.P,REF\u002A\u002A,11*%
X73800000Y-69760000D03*
%TO.P,REF\u002A\u002A,12*%
X76340000Y-69760000D03*
%TO.P,REF\u002A\u002A,13*%
X78880000Y-69760000D03*
%TO.P,REF\u002A\u002A,14*%
X81420000Y-69760000D03*
%TO.P,REF\u002A\u002A,15*%
X83960000Y-69760000D03*
%TO.P,REF\u002A\u002A,16*%
X86500000Y-69760000D03*
%TO.P,REF\u002A\u002A,17*%
X89040000Y-69760000D03*
%TO.P,REF\u002A\u002A,18*%
X91580000Y-69760000D03*
%TO.P,REF\u002A\u002A,19*%
X94120000Y-69760000D03*
%TO.P,REF\u002A\u002A,20*%
X96660000Y-69760000D03*
%TO.P,REF\u002A\u002A,21*%
X99200000Y-69760000D03*
%TO.P,REF\u002A\u002A,22*%
X101740000Y-69760000D03*
%TO.P,REF\u002A\u002A,23*%
X104280000Y-69760000D03*
%TO.P,REF\u002A\u002A,24*%
X106820000Y-69760000D03*
%TO.P,REF\u002A\u002A,25*%
X109360000Y-69760000D03*
%TO.P,REF\u002A\u002A,26*%
X111900000Y-69760000D03*
%TO.P,REF\u002A\u002A,27*%
X114440000Y-69760000D03*
%TO.P,REF\u002A\u002A,28*%
X116980000Y-69760000D03*
%TO.P,REF\u002A\u002A,29*%
X119520000Y-69760000D03*
%TO.P,REF\u002A\u002A,30*%
X122060000Y-69760000D03*
%TD*%
D11*
%TO.P,REF\u002A\u002A,1*%
%TO.N,N/C*%
X122010000Y-95210000D03*
D12*
%TO.P,REF\u002A\u002A,2*%
X119470000Y-95210000D03*
%TO.P,REF\u002A\u002A,3*%
X116930000Y-95210000D03*
%TO.P,REF\u002A\u002A,4*%
X114390000Y-95210000D03*
%TO.P,REF\u002A\u002A,5*%
X111850000Y-95210000D03*
%TO.P,REF\u002A\u002A,6*%
X109310000Y-95210000D03*
%TO.P,REF\u002A\u002A,7*%
X106770000Y-95210000D03*
%TO.P,REF\u002A\u002A,8*%
X104230000Y-95210000D03*
%TO.P,REF\u002A\u002A,9*%
X101690000Y-95210000D03*
%TO.P,REF\u002A\u002A,10*%
X99150000Y-95210000D03*
%TO.P,REF\u002A\u002A,11*%
X96610000Y-95210000D03*
%TO.P,REF\u002A\u002A,12*%
X94070000Y-95210000D03*
%TO.P,REF\u002A\u002A,13*%
X91530000Y-95210000D03*
%TO.P,REF\u002A\u002A,14*%
X88990000Y-95210000D03*
%TO.P,REF\u002A\u002A,15*%
X86450000Y-95210000D03*
%TO.P,REF\u002A\u002A,16*%
X83910000Y-95210000D03*
%TO.P,REF\u002A\u002A,17*%
X81370000Y-95210000D03*
%TO.P,REF\u002A\u002A,18*%
X78830000Y-95210000D03*
%TO.P,REF\u002A\u002A,19*%
X76290000Y-95210000D03*
%TO.P,REF\u002A\u002A,20*%
X73750000Y-95210000D03*
%TO.P,REF\u002A\u002A,21*%
X71210000Y-95210000D03*
%TO.P,REF\u002A\u002A,22*%
X68670000Y-95210000D03*
%TO.P,REF\u002A\u002A,23*%
X66130000Y-95210000D03*
%TO.P,REF\u002A\u002A,24*%
X63590000Y-95210000D03*
%TO.P,REF\u002A\u002A,25*%
X61050000Y-95210000D03*
%TO.P,REF\u002A\u002A,26*%
X58510000Y-95210000D03*
%TO.P,REF\u002A\u002A,27*%
X55970000Y-95210000D03*
%TO.P,REF\u002A\u002A,28*%
X53430000Y-95210000D03*
%TO.P,REF\u002A\u002A,29*%
X50890000Y-95210000D03*
%TO.P,REF\u002A\u002A,30*%
X48350000Y-95210000D03*
%TD*%
D11*
%TO.P,REF\u002A\u002A,1*%
%TO.N,N/C*%
X48410000Y-92620000D03*
D12*
%TO.P,REF\u002A\u002A,2*%
X50950000Y-92620000D03*
%TO.P,REF\u002A\u002A,3*%
X53490000Y-92620000D03*
%TO.P,REF\u002A\u002A,4*%
X56030000Y-92620000D03*
%TO.P,REF\u002A\u002A,5*%
X58570000Y-92620000D03*
%TO.P,REF\u002A\u002A,6*%
X61110000Y-92620000D03*
%TO.P,REF\u002A\u002A,7*%
X63650000Y-92620000D03*
%TO.P,REF\u002A\u002A,8*%
X66190000Y-92620000D03*
%TO.P,REF\u002A\u002A,9*%
X68730000Y-92620000D03*
%TO.P,REF\u002A\u002A,10*%
X71270000Y-92620000D03*
%TO.P,REF\u002A\u002A,11*%
X73810000Y-92620000D03*
%TO.P,REF\u002A\u002A,12*%
X76350000Y-92620000D03*
%TO.P,REF\u002A\u002A,13*%
X78890000Y-92620000D03*
%TO.P,REF\u002A\u002A,14*%
X81430000Y-92620000D03*
%TO.P,REF\u002A\u002A,15*%
X83970000Y-92620000D03*
%TO.P,REF\u002A\u002A,16*%
X86510000Y-92620000D03*
%TO.P,REF\u002A\u002A,17*%
X89050000Y-92620000D03*
%TO.P,REF\u002A\u002A,18*%
X91590000Y-92620000D03*
%TO.P,REF\u002A\u002A,19*%
X94130000Y-92620000D03*
%TO.P,REF\u002A\u002A,20*%
X96670000Y-92620000D03*
%TO.P,REF\u002A\u002A,21*%
X99210000Y-92620000D03*
%TO.P,REF\u002A\u002A,22*%
X101750000Y-92620000D03*
%TO.P,REF\u002A\u002A,23*%
X104290000Y-92620000D03*
%TO.P,REF\u002A\u002A,24*%
X106830000Y-92620000D03*
%TO.P,REF\u002A\u002A,25*%
X109370000Y-92620000D03*
%TO.P,REF\u002A\u002A,26*%
X111910000Y-92620000D03*
%TO.P,REF\u002A\u002A,27*%
X114450000Y-92620000D03*
%TO.P,REF\u002A\u002A,28*%
X116990000Y-92620000D03*
%TO.P,REF\u002A\u002A,29*%
X119530000Y-92620000D03*
%TO.P,REF\u002A\u002A,30*%
X122070000Y-92620000D03*
%TD*%
D11*
%TO.P,REF\u002A\u002A,1*%
%TO.N,N/C*%
X122000000Y-67270000D03*
D12*
%TO.P,REF\u002A\u002A,2*%
X119460000Y-67270000D03*
%TO.P,REF\u002A\u002A,3*%
X116920000Y-67270000D03*
%TO.P,REF\u002A\u002A,4*%
X114380000Y-67270000D03*
%TO.P,REF\u002A\u002A,5*%
X111840000Y-67270000D03*
%TO.P,REF\u002A\u002A,6*%
X109300000Y-67270000D03*
%TO.P,REF\u002A\u002A,7*%
X106760000Y-67270000D03*
%TO.P,REF\u002A\u002A,8*%
X104220000Y-67270000D03*
%TO.P,REF\u002A\u002A,9*%
X101680000Y-67270000D03*
%TO.P,REF\u002A\u002A,10*%
X99140000Y-67270000D03*
%TO.P,REF\u002A\u002A,11*%
X96600000Y-67270000D03*
%TO.P,REF\u002A\u002A,12*%
X94060000Y-67270000D03*
%TO.P,REF\u002A\u002A,13*%
X91520000Y-67270000D03*
%TO.P,REF\u002A\u002A,14*%
X88980000Y-67270000D03*
%TO.P,REF\u002A\u002A,15*%
X86440000Y-67270000D03*
%TO.P,REF\u002A\u002A,16*%
X83900000Y-67270000D03*
%TO.P,REF\u002A\u002A,17*%
X81360000Y-67270000D03*
%TO.P,REF\u002A\u002A,18*%
X78820000Y-67270000D03*
%TO.P,REF\u002A\u002A,19*%
X76280000Y-67270000D03*
%TO.P,REF\u002A\u002A,20*%
X73740000Y-67270000D03*
%TO.P,REF\u002A\u002A,21*%
X71200000Y-67270000D03*
%TO.P,REF\u002A\u002A,22*%
X68660000Y-67270000D03*
%TO.P,REF\u002A\u002A,23*%
X66120000Y-67270000D03*
%TO.P,REF\u002A\u002A,24*%
X63580000Y-67270000D03*
%TO.P,REF\u002A\u002A,25*%
X61040000Y-67270000D03*
%TO.P,REF\u002A\u002A,26*%
X58500000Y-67270000D03*
%TO.P,REF\u002A\u002A,27*%
X55960000Y-67270000D03*
%TO.P,REF\u002A\u002A,28*%
X53420000Y-67270000D03*
%TO.P,REF\u002A\u002A,29*%
X50880000Y-67270000D03*
%TO.P,REF\u002A\u002A,30*%
X48340000Y-67270000D03*
%TD*%
D11*
%TO.P,REF\u002A\u002A,1*%
%TO.N,N/C*%
X122000000Y-57110000D03*
D12*
%TO.P,REF\u002A\u002A,2*%
X119460000Y-57110000D03*
%TO.P,REF\u002A\u002A,3*%
X116920000Y-57110000D03*
%TO.P,REF\u002A\u002A,4*%
X114380000Y-57110000D03*
%TO.P,REF\u002A\u002A,5*%
X111840000Y-57110000D03*
%TO.P,REF\u002A\u002A,6*%
X109300000Y-57110000D03*
%TO.P,REF\u002A\u002A,7*%
X106760000Y-57110000D03*
%TO.P,REF\u002A\u002A,8*%
X104220000Y-57110000D03*
%TO.P,REF\u002A\u002A,9*%
X101680000Y-57110000D03*
%TO.P,REF\u002A\u002A,10*%
X99140000Y-57110000D03*
%TO.P,REF\u002A\u002A,11*%
X96600000Y-57110000D03*
%TO.P,REF\u002A\u002A,12*%
X94060000Y-57110000D03*
%TO.P,REF\u002A\u002A,13*%
X91520000Y-57110000D03*
%TO.P,REF\u002A\u002A,14*%
X88980000Y-57110000D03*
%TO.P,REF\u002A\u002A,15*%
X86440000Y-57110000D03*
%TO.P,REF\u002A\u002A,16*%
X83900000Y-57110000D03*
%TO.P,REF\u002A\u002A,17*%
X81360000Y-57110000D03*
%TO.P,REF\u002A\u002A,18*%
X78820000Y-57110000D03*
%TO.P,REF\u002A\u002A,19*%
X76280000Y-57110000D03*
%TO.P,REF\u002A\u002A,20*%
X73740000Y-57110000D03*
%TO.P,REF\u002A\u002A,21*%
X71200000Y-57110000D03*
%TO.P,REF\u002A\u002A,22*%
X68660000Y-57110000D03*
%TO.P,REF\u002A\u002A,23*%
X66120000Y-57110000D03*
%TO.P,REF\u002A\u002A,24*%
X63580000Y-57110000D03*
%TO.P,REF\u002A\u002A,25*%
X61040000Y-57110000D03*
%TO.P,REF\u002A\u002A,26*%
X58500000Y-57110000D03*
%TO.P,REF\u002A\u002A,27*%
X55960000Y-57110000D03*
%TO.P,REF\u002A\u002A,28*%
X53420000Y-57110000D03*
%TO.P,REF\u002A\u002A,29*%
X50880000Y-57110000D03*
%TO.P,REF\u002A\u002A,30*%
X48340000Y-57110000D03*
%TD*%
D11*
%TO.P,REF\u002A\u002A,1*%
%TO.N,N/C*%
X122000000Y-59650000D03*
D12*
%TO.P,REF\u002A\u002A,2*%
X119460000Y-59650000D03*
%TO.P,REF\u002A\u002A,3*%
X116920000Y-59650000D03*
%TO.P,REF\u002A\u002A,4*%
X114380000Y-59650000D03*
%TO.P,REF\u002A\u002A,5*%
X111840000Y-59650000D03*
%TO.P,REF\u002A\u002A,6*%
X109300000Y-59650000D03*
%TO.P,REF\u002A\u002A,7*%
X106760000Y-59650000D03*
%TO.P,REF\u002A\u002A,8*%
X104220000Y-59650000D03*
%TO.P,REF\u002A\u002A,9*%
X101680000Y-59650000D03*
%TO.P,REF\u002A\u002A,10*%
X99140000Y-59650000D03*
%TO.P,REF\u002A\u002A,11*%
X96600000Y-59650000D03*
%TO.P,REF\u002A\u002A,12*%
X94060000Y-59650000D03*
%TO.P,REF\u002A\u002A,13*%
X91520000Y-59650000D03*
%TO.P,REF\u002A\u002A,14*%
X88980000Y-59650000D03*
%TO.P,REF\u002A\u002A,15*%
X86440000Y-59650000D03*
%TO.P,REF\u002A\u002A,16*%
X83900000Y-59650000D03*
%TO.P,REF\u002A\u002A,17*%
X81360000Y-59650000D03*
%TO.P,REF\u002A\u002A,18*%
X78820000Y-59650000D03*
%TO.P,REF\u002A\u002A,19*%
X76280000Y-59650000D03*
%TO.P,REF\u002A\u002A,20*%
X73740000Y-59650000D03*
%TO.P,REF\u002A\u002A,21*%
X71200000Y-59650000D03*
%TO.P,REF\u002A\u002A,22*%
X68660000Y-59650000D03*
%TO.P,REF\u002A\u002A,23*%
X66120000Y-59650000D03*
%TO.P,REF\u002A\u002A,24*%
X63580000Y-59650000D03*
%TO.P,REF\u002A\u002A,25*%
X61040000Y-59650000D03*
%TO.P,REF\u002A\u002A,26*%
X58500000Y-59650000D03*
%TO.P,REF\u002A\u002A,27*%
X55960000Y-59650000D03*
%TO.P,REF\u002A\u002A,28*%
X53420000Y-59650000D03*
%TO.P,REF\u002A\u002A,29*%
X50880000Y-59650000D03*
%TO.P,REF\u002A\u002A,30*%
X48340000Y-59650000D03*
%TD*%
D11*
%TO.P,REF\u002A\u002A,1*%
%TO.N,N/C*%
X122010000Y-85050000D03*
D12*
%TO.P,REF\u002A\u002A,2*%
X119470000Y-85050000D03*
%TO.P,REF\u002A\u002A,3*%
X116930000Y-85050000D03*
%TO.P,REF\u002A\u002A,4*%
X114390000Y-85050000D03*
%TO.P,REF\u002A\u002A,5*%
X111850000Y-85050000D03*
%TO.P,REF\u002A\u002A,6*%
X109310000Y-85050000D03*
%TO.P,REF\u002A\u002A,7*%
X106770000Y-85050000D03*
%TO.P,REF\u002A\u002A,8*%
X104230000Y-85050000D03*
%TO.P,REF\u002A\u002A,9*%
X101690000Y-85050000D03*
%TO.P,REF\u002A\u002A,10*%
X99150000Y-85050000D03*
%TO.P,REF\u002A\u002A,11*%
X96610000Y-85050000D03*
%TO.P,REF\u002A\u002A,12*%
X94070000Y-85050000D03*
%TO.P,REF\u002A\u002A,13*%
X91530000Y-85050000D03*
%TO.P,REF\u002A\u002A,14*%
X88990000Y-85050000D03*
%TO.P,REF\u002A\u002A,15*%
X86450000Y-85050000D03*
%TO.P,REF\u002A\u002A,16*%
X83910000Y-85050000D03*
%TO.P,REF\u002A\u002A,17*%
X81370000Y-85050000D03*
%TO.P,REF\u002A\u002A,18*%
X78830000Y-85050000D03*
%TO.P,REF\u002A\u002A,19*%
X76290000Y-85050000D03*
%TO.P,REF\u002A\u002A,20*%
X73750000Y-85050000D03*
%TO.P,REF\u002A\u002A,21*%
X71210000Y-85050000D03*
%TO.P,REF\u002A\u002A,22*%
X68670000Y-85050000D03*
%TO.P,REF\u002A\u002A,23*%
X66130000Y-85050000D03*
%TO.P,REF\u002A\u002A,24*%
X63590000Y-85050000D03*
%TO.P,REF\u002A\u002A,25*%
X61050000Y-85050000D03*
%TO.P,REF\u002A\u002A,26*%
X58510000Y-85050000D03*
%TO.P,REF\u002A\u002A,27*%
X55970000Y-85050000D03*
%TO.P,REF\u002A\u002A,28*%
X53430000Y-85050000D03*
%TO.P,REF\u002A\u002A,29*%
X50890000Y-85050000D03*
%TO.P,REF\u002A\u002A,30*%
X48350000Y-85050000D03*
%TD*%
D11*
%TO.P,REF\u002A\u002A,1*%
%TO.N,N/C*%
X48400000Y-74840000D03*
D12*
%TO.P,REF\u002A\u002A,2*%
X50940000Y-74840000D03*
%TO.P,REF\u002A\u002A,3*%
X53480000Y-74840000D03*
%TO.P,REF\u002A\u002A,4*%
X56020000Y-74840000D03*
%TO.P,REF\u002A\u002A,5*%
X58560000Y-74840000D03*
%TO.P,REF\u002A\u002A,6*%
X61100000Y-74840000D03*
%TO.P,REF\u002A\u002A,7*%
X63640000Y-74840000D03*
%TO.P,REF\u002A\u002A,8*%
X66180000Y-74840000D03*
%TO.P,REF\u002A\u002A,9*%
X68720000Y-74840000D03*
%TO.P,REF\u002A\u002A,10*%
X71260000Y-74840000D03*
%TO.P,REF\u002A\u002A,11*%
X73800000Y-74840000D03*
%TO.P,REF\u002A\u002A,12*%
X76340000Y-74840000D03*
%TO.P,REF\u002A\u002A,13*%
X78880000Y-74840000D03*
%TO.P,REF\u002A\u002A,14*%
X81420000Y-74840000D03*
%TO.P,REF\u002A\u002A,15*%
X83960000Y-74840000D03*
%TO.P,REF\u002A\u002A,16*%
X86500000Y-74840000D03*
%TO.P,REF\u002A\u002A,17*%
X89040000Y-74840000D03*
%TO.P,REF\u002A\u002A,18*%
X91580000Y-74840000D03*
%TO.P,REF\u002A\u002A,19*%
X94120000Y-74840000D03*
%TO.P,REF\u002A\u002A,20*%
X96660000Y-74840000D03*
%TO.P,REF\u002A\u002A,21*%
X99200000Y-74840000D03*
%TO.P,REF\u002A\u002A,22*%
X101740000Y-74840000D03*
%TO.P,REF\u002A\u002A,23*%
X104280000Y-74840000D03*
%TO.P,REF\u002A\u002A,24*%
X106820000Y-74840000D03*
%TO.P,REF\u002A\u002A,25*%
X109360000Y-74840000D03*
%TO.P,REF\u002A\u002A,26*%
X111900000Y-74840000D03*
%TO.P,REF\u002A\u002A,27*%
X114440000Y-74840000D03*
%TO.P,REF\u002A\u002A,28*%
X116980000Y-74840000D03*
%TO.P,REF\u002A\u002A,29*%
X119520000Y-74840000D03*
%TO.P,REF\u002A\u002A,30*%
X122060000Y-74840000D03*
%TD*%
D11*
%TO.P,REF\u002A\u002A,1*%
%TO.N,N/C*%
X122000000Y-49490000D03*
D12*
%TO.P,REF\u002A\u002A,2*%
X119460000Y-49490000D03*
%TO.P,REF\u002A\u002A,3*%
X116920000Y-49490000D03*
%TO.P,REF\u002A\u002A,4*%
X114380000Y-49490000D03*
%TO.P,REF\u002A\u002A,5*%
X111840000Y-49490000D03*
%TO.P,REF\u002A\u002A,6*%
X109300000Y-49490000D03*
%TO.P,REF\u002A\u002A,7*%
X106760000Y-49490000D03*
%TO.P,REF\u002A\u002A,8*%
X104220000Y-49490000D03*
%TO.P,REF\u002A\u002A,9*%
X101680000Y-49490000D03*
%TO.P,REF\u002A\u002A,10*%
X99140000Y-49490000D03*
%TO.P,REF\u002A\u002A,11*%
X96600000Y-49490000D03*
%TO.P,REF\u002A\u002A,12*%
X94060000Y-49490000D03*
%TO.P,REF\u002A\u002A,13*%
X91520000Y-49490000D03*
%TO.P,REF\u002A\u002A,14*%
X88980000Y-49490000D03*
%TO.P,REF\u002A\u002A,15*%
X86440000Y-49490000D03*
%TO.P,REF\u002A\u002A,16*%
X83900000Y-49490000D03*
%TO.P,REF\u002A\u002A,17*%
X81360000Y-49490000D03*
%TO.P,REF\u002A\u002A,18*%
X78820000Y-49490000D03*
%TO.P,REF\u002A\u002A,19*%
X76280000Y-49490000D03*
%TO.P,REF\u002A\u002A,20*%
X73740000Y-49490000D03*
%TO.P,REF\u002A\u002A,21*%
X71200000Y-49490000D03*
%TO.P,REF\u002A\u002A,22*%
X68660000Y-49490000D03*
%TO.P,REF\u002A\u002A,23*%
X66120000Y-49490000D03*
%TO.P,REF\u002A\u002A,24*%
X63580000Y-49490000D03*
%TO.P,REF\u002A\u002A,25*%
X61040000Y-49490000D03*
%TO.P,REF\u002A\u002A,26*%
X58500000Y-49490000D03*
%TO.P,REF\u002A\u002A,27*%
X55960000Y-49490000D03*
%TO.P,REF\u002A\u002A,28*%
X53420000Y-49490000D03*
%TO.P,REF\u002A\u002A,29*%
X50880000Y-49490000D03*
%TO.P,REF\u002A\u002A,30*%
X48340000Y-49490000D03*
%TD*%
D11*
%TO.P,REF\u002A\u002A,1*%
%TO.N,N/C*%
X122010000Y-90130000D03*
D12*
%TO.P,REF\u002A\u002A,2*%
X119470000Y-90130000D03*
%TO.P,REF\u002A\u002A,3*%
X116930000Y-90130000D03*
%TO.P,REF\u002A\u002A,4*%
X114390000Y-90130000D03*
%TO.P,REF\u002A\u002A,5*%
X111850000Y-90130000D03*
%TO.P,REF\u002A\u002A,6*%
X109310000Y-90130000D03*
%TO.P,REF\u002A\u002A,7*%
X106770000Y-90130000D03*
%TO.P,REF\u002A\u002A,8*%
X104230000Y-90130000D03*
%TO.P,REF\u002A\u002A,9*%
X101690000Y-90130000D03*
%TO.P,REF\u002A\u002A,10*%
X99150000Y-90130000D03*
%TO.P,REF\u002A\u002A,11*%
X96610000Y-90130000D03*
%TO.P,REF\u002A\u002A,12*%
X94070000Y-90130000D03*
%TO.P,REF\u002A\u002A,13*%
X91530000Y-90130000D03*
%TO.P,REF\u002A\u002A,14*%
X88990000Y-90130000D03*
%TO.P,REF\u002A\u002A,15*%
X86450000Y-90130000D03*
%TO.P,REF\u002A\u002A,16*%
X83910000Y-90130000D03*
%TO.P,REF\u002A\u002A,17*%
X81370000Y-90130000D03*
%TO.P,REF\u002A\u002A,18*%
X78830000Y-90130000D03*
%TO.P,REF\u002A\u002A,19*%
X76290000Y-90130000D03*
%TO.P,REF\u002A\u002A,20*%
X73750000Y-90130000D03*
%TO.P,REF\u002A\u002A,21*%
X71210000Y-90130000D03*
%TO.P,REF\u002A\u002A,22*%
X68670000Y-90130000D03*
%TO.P,REF\u002A\u002A,23*%
X66130000Y-90130000D03*
%TO.P,REF\u002A\u002A,24*%
X63590000Y-90130000D03*
%TO.P,REF\u002A\u002A,25*%
X61050000Y-90130000D03*
%TO.P,REF\u002A\u002A,26*%
X58510000Y-90130000D03*
%TO.P,REF\u002A\u002A,27*%
X55970000Y-90130000D03*
%TO.P,REF\u002A\u002A,28*%
X53430000Y-90130000D03*
%TO.P,REF\u002A\u002A,29*%
X50890000Y-90130000D03*
%TO.P,REF\u002A\u002A,30*%
X48350000Y-90130000D03*
%TD*%
D11*
%TO.P,REF\u002A\u002A,1*%
%TO.N,N/C*%
X122010000Y-107910000D03*
D12*
%TO.P,REF\u002A\u002A,2*%
X119470000Y-107910000D03*
%TO.P,REF\u002A\u002A,3*%
X116930000Y-107910000D03*
%TO.P,REF\u002A\u002A,4*%
X114390000Y-107910000D03*
%TO.P,REF\u002A\u002A,5*%
X111850000Y-107910000D03*
%TO.P,REF\u002A\u002A,6*%
X109310000Y-107910000D03*
%TO.P,REF\u002A\u002A,7*%
X106770000Y-107910000D03*
%TO.P,REF\u002A\u002A,8*%
X104230000Y-107910000D03*
%TO.P,REF\u002A\u002A,9*%
X101690000Y-107910000D03*
%TO.P,REF\u002A\u002A,10*%
X99150000Y-107910000D03*
%TO.P,REF\u002A\u002A,11*%
X96610000Y-107910000D03*
%TO.P,REF\u002A\u002A,12*%
X94070000Y-107910000D03*
%TO.P,REF\u002A\u002A,13*%
X91530000Y-107910000D03*
%TO.P,REF\u002A\u002A,14*%
X88990000Y-107910000D03*
%TO.P,REF\u002A\u002A,15*%
X86450000Y-107910000D03*
%TO.P,REF\u002A\u002A,16*%
X83910000Y-107910000D03*
%TO.P,REF\u002A\u002A,17*%
X81370000Y-107910000D03*
%TO.P,REF\u002A\u002A,18*%
X78830000Y-107910000D03*
%TO.P,REF\u002A\u002A,19*%
X76290000Y-107910000D03*
%TO.P,REF\u002A\u002A,20*%
X73750000Y-107910000D03*
%TO.P,REF\u002A\u002A,21*%
X71210000Y-107910000D03*
%TO.P,REF\u002A\u002A,22*%
X68670000Y-107910000D03*
%TO.P,REF\u002A\u002A,23*%
X66130000Y-107910000D03*
%TO.P,REF\u002A\u002A,24*%
X63590000Y-107910000D03*
%TO.P,REF\u002A\u002A,25*%
X61050000Y-107910000D03*
%TO.P,REF\u002A\u002A,26*%
X58510000Y-107910000D03*
%TO.P,REF\u002A\u002A,27*%
X55970000Y-107910000D03*
%TO.P,REF\u002A\u002A,28*%
X53430000Y-107910000D03*
%TO.P,REF\u002A\u002A,29*%
X50890000Y-107910000D03*
%TO.P,REF\u002A\u002A,30*%
X48350000Y-107910000D03*
%TD*%
M02*
