%TF.GenerationSoftware,KiCad,Pcbnew,8.0.1*%
%TF.CreationDate,2024-04-20T18:08:00+02:00*%
%TF.ProjectId,proto_board_V3,70726f74-6f5f-4626-9f61-72645f56332e,rev?*%
%TF.SameCoordinates,Original*%
%TF.FileFunction,Legend,Bot*%
%TF.FilePolarity,Positive*%
%FSLAX46Y46*%
G04 Gerber Fmt 4.6, Leading zero omitted, Abs format (unit mm)*
G04 Created by KiCad (PCBNEW 8.0.1) date 2024-04-20 18:08:00*
%MOMM*%
%LPD*%
G01*
G04 APERTURE LIST*
%ADD10C,0.300000*%
%ADD11C,0.010000*%
G04 APERTURE END LIST*
D10*
X65106917Y-77680828D02*
X65106917Y-77966542D01*
X64535489Y-77680828D02*
X64535489Y-77966542D01*
X63464060Y-77680828D02*
X63464060Y-78752257D01*
X63464060Y-78752257D02*
X63535489Y-78966542D01*
X63535489Y-78966542D02*
X63678346Y-79109400D01*
X63678346Y-79109400D02*
X63892632Y-79180828D01*
X63892632Y-79180828D02*
X64035489Y-79180828D01*
X62035489Y-79180828D02*
X62749775Y-79180828D01*
X62749775Y-79180828D02*
X62749775Y-77680828D01*
X60678346Y-79037971D02*
X60749774Y-79109400D01*
X60749774Y-79109400D02*
X60964060Y-79180828D01*
X60964060Y-79180828D02*
X61106917Y-79180828D01*
X61106917Y-79180828D02*
X61321203Y-79109400D01*
X61321203Y-79109400D02*
X61464060Y-78966542D01*
X61464060Y-78966542D02*
X61535489Y-78823685D01*
X61535489Y-78823685D02*
X61606917Y-78537971D01*
X61606917Y-78537971D02*
X61606917Y-78323685D01*
X61606917Y-78323685D02*
X61535489Y-78037971D01*
X61535489Y-78037971D02*
X61464060Y-77895114D01*
X61464060Y-77895114D02*
X61321203Y-77752257D01*
X61321203Y-77752257D02*
X61106917Y-77680828D01*
X61106917Y-77680828D02*
X60964060Y-77680828D01*
X60964060Y-77680828D02*
X60749774Y-77752257D01*
X60749774Y-77752257D02*
X60678346Y-77823685D01*
X59606917Y-77680828D02*
X59606917Y-78752257D01*
X59606917Y-78752257D02*
X59678346Y-78966542D01*
X59678346Y-78966542D02*
X59821203Y-79109400D01*
X59821203Y-79109400D02*
X60035489Y-79180828D01*
X60035489Y-79180828D02*
X60178346Y-79180828D01*
X58178346Y-79180828D02*
X58892632Y-79180828D01*
X58892632Y-79180828D02*
X58892632Y-77680828D01*
X56821203Y-79037971D02*
X56892631Y-79109400D01*
X56892631Y-79109400D02*
X57106917Y-79180828D01*
X57106917Y-79180828D02*
X57249774Y-79180828D01*
X57249774Y-79180828D02*
X57464060Y-79109400D01*
X57464060Y-79109400D02*
X57606917Y-78966542D01*
X57606917Y-78966542D02*
X57678346Y-78823685D01*
X57678346Y-78823685D02*
X57749774Y-78537971D01*
X57749774Y-78537971D02*
X57749774Y-78323685D01*
X57749774Y-78323685D02*
X57678346Y-78037971D01*
X57678346Y-78037971D02*
X57606917Y-77895114D01*
X57606917Y-77895114D02*
X57464060Y-77752257D01*
X57464060Y-77752257D02*
X57249774Y-77680828D01*
X57249774Y-77680828D02*
X57106917Y-77680828D01*
X57106917Y-77680828D02*
X56892631Y-77752257D01*
X56892631Y-77752257D02*
X56821203Y-77823685D01*
X55749774Y-77680828D02*
X55749774Y-78752257D01*
X55749774Y-78752257D02*
X55821203Y-78966542D01*
X55821203Y-78966542D02*
X55964060Y-79109400D01*
X55964060Y-79109400D02*
X56178346Y-79180828D01*
X56178346Y-79180828D02*
X56321203Y-79180828D01*
X54321203Y-79180828D02*
X55035489Y-79180828D01*
X55035489Y-79180828D02*
X55035489Y-77680828D01*
X52964060Y-79037971D02*
X53035488Y-79109400D01*
X53035488Y-79109400D02*
X53249774Y-79180828D01*
X53249774Y-79180828D02*
X53392631Y-79180828D01*
X53392631Y-79180828D02*
X53606917Y-79109400D01*
X53606917Y-79109400D02*
X53749774Y-78966542D01*
X53749774Y-78966542D02*
X53821203Y-78823685D01*
X53821203Y-78823685D02*
X53892631Y-78537971D01*
X53892631Y-78537971D02*
X53892631Y-78323685D01*
X53892631Y-78323685D02*
X53821203Y-78037971D01*
X53821203Y-78037971D02*
X53749774Y-77895114D01*
X53749774Y-77895114D02*
X53606917Y-77752257D01*
X53606917Y-77752257D02*
X53392631Y-77680828D01*
X53392631Y-77680828D02*
X53249774Y-77680828D01*
X53249774Y-77680828D02*
X53035488Y-77752257D01*
X53035488Y-77752257D02*
X52964060Y-77823685D01*
X51892631Y-77680828D02*
X51892631Y-78752257D01*
X51892631Y-78752257D02*
X51964060Y-78966542D01*
X51964060Y-78966542D02*
X52106917Y-79109400D01*
X52106917Y-79109400D02*
X52321203Y-79180828D01*
X52321203Y-79180828D02*
X52464060Y-79180828D01*
X50464060Y-79180828D02*
X51178346Y-79180828D01*
X51178346Y-79180828D02*
X51178346Y-77680828D01*
X49106917Y-79037971D02*
X49178345Y-79109400D01*
X49178345Y-79109400D02*
X49392631Y-79180828D01*
X49392631Y-79180828D02*
X49535488Y-79180828D01*
X49535488Y-79180828D02*
X49749774Y-79109400D01*
X49749774Y-79109400D02*
X49892631Y-78966542D01*
X49892631Y-78966542D02*
X49964060Y-78823685D01*
X49964060Y-78823685D02*
X50035488Y-78537971D01*
X50035488Y-78537971D02*
X50035488Y-78323685D01*
X50035488Y-78323685D02*
X49964060Y-78037971D01*
X49964060Y-78037971D02*
X49892631Y-77895114D01*
X49892631Y-77895114D02*
X49749774Y-77752257D01*
X49749774Y-77752257D02*
X49535488Y-77680828D01*
X49535488Y-77680828D02*
X49392631Y-77680828D01*
X49392631Y-77680828D02*
X49178345Y-77752257D01*
X49178345Y-77752257D02*
X49106917Y-77823685D01*
X48535488Y-77680828D02*
X48535488Y-77966542D01*
X47964060Y-77680828D02*
X47964060Y-77966542D01*
D11*
%TO.C,REF\u002A\u002A*%
X120064562Y-76042850D02*
X120147313Y-76070053D01*
X120222406Y-76115484D01*
X120294298Y-76181302D01*
X120332846Y-76225567D01*
X120372256Y-76283961D01*
X120397446Y-76344586D01*
X120410861Y-76413865D01*
X120414948Y-76498222D01*
X120414669Y-76544307D01*
X120412460Y-76585450D01*
X120406894Y-76617582D01*
X120396586Y-76648122D01*
X120380148Y-76684489D01*
X120366200Y-76711728D01*
X120307665Y-76797429D01*
X120235619Y-76866617D01*
X120151947Y-76917741D01*
X120058531Y-76949250D01*
X120025434Y-76956225D01*
X119984960Y-76963094D01*
X119951999Y-76964919D01*
X119917698Y-76961947D01*
X119873200Y-76954426D01*
X119821934Y-76942002D01*
X119731434Y-76904112D01*
X119652345Y-76849836D01*
X119586528Y-76781770D01*
X119535840Y-76702511D01*
X119502140Y-76614654D01*
X119487286Y-76520795D01*
X119493136Y-76423530D01*
X119519399Y-76327220D01*
X119564418Y-76238494D01*
X119625373Y-76163419D01*
X119700184Y-76103641D01*
X119786768Y-76060809D01*
X119883043Y-76036571D01*
X119986928Y-76032576D01*
X120064562Y-76042850D01*
G36*
X120064562Y-76042850D02*
G01*
X120147313Y-76070053D01*
X120222406Y-76115484D01*
X120294298Y-76181302D01*
X120332846Y-76225567D01*
X120372256Y-76283961D01*
X120397446Y-76344586D01*
X120410861Y-76413865D01*
X120414948Y-76498222D01*
X120414669Y-76544307D01*
X120412460Y-76585450D01*
X120406894Y-76617582D01*
X120396586Y-76648122D01*
X120380148Y-76684489D01*
X120366200Y-76711728D01*
X120307665Y-76797429D01*
X120235619Y-76866617D01*
X120151947Y-76917741D01*
X120058531Y-76949250D01*
X120025434Y-76956225D01*
X119984960Y-76963094D01*
X119951999Y-76964919D01*
X119917698Y-76961947D01*
X119873200Y-76954426D01*
X119821934Y-76942002D01*
X119731434Y-76904112D01*
X119652345Y-76849836D01*
X119586528Y-76781770D01*
X119535840Y-76702511D01*
X119502140Y-76614654D01*
X119487286Y-76520795D01*
X119493136Y-76423530D01*
X119519399Y-76327220D01*
X119564418Y-76238494D01*
X119625373Y-76163419D01*
X119700184Y-76103641D01*
X119786768Y-76060809D01*
X119883043Y-76036571D01*
X119986928Y-76032576D01*
X120064562Y-76042850D01*
G37*
X117598711Y-76972033D02*
X117694268Y-76989523D01*
X117858558Y-77034564D01*
X118012589Y-77097656D01*
X118158509Y-77179915D01*
X118298466Y-77282457D01*
X118434608Y-77406399D01*
X118478473Y-77451661D01*
X118590758Y-77583865D01*
X118683972Y-77721832D01*
X118760719Y-77869750D01*
X118823603Y-78031803D01*
X118827420Y-78043391D01*
X118877507Y-78229392D01*
X118910899Y-78425521D01*
X118927584Y-78627568D01*
X118927551Y-78831325D01*
X118910791Y-79032581D01*
X118877292Y-79227128D01*
X118827044Y-79410756D01*
X118783190Y-79528053D01*
X118705348Y-79690951D01*
X118611828Y-79844866D01*
X118504822Y-79986671D01*
X118386519Y-80113239D01*
X118259111Y-80221441D01*
X118181606Y-80274120D01*
X118054725Y-80343750D01*
X117917243Y-80402468D01*
X117775716Y-80447587D01*
X117636702Y-80476422D01*
X117622597Y-80478106D01*
X117579153Y-80481434D01*
X117521723Y-80484275D01*
X117456122Y-80486373D01*
X117388167Y-80487468D01*
X117261378Y-80485140D01*
X117113673Y-80472136D01*
X116975779Y-80447133D01*
X116842014Y-80409318D01*
X116818562Y-80400889D01*
X116770612Y-80381408D01*
X116714140Y-80356473D01*
X116652379Y-80327722D01*
X116588563Y-80296790D01*
X116525926Y-80265315D01*
X116467703Y-80234934D01*
X116417127Y-80207283D01*
X116377433Y-80183999D01*
X116351854Y-80166718D01*
X116343625Y-80157079D01*
X116345076Y-80153984D01*
X116356250Y-80134079D01*
X116377134Y-80098420D01*
X116406265Y-80049459D01*
X116442181Y-79989646D01*
X116483420Y-79921433D01*
X116528517Y-79847271D01*
X116709785Y-79550008D01*
X116756315Y-79594539D01*
X116847723Y-79672865D01*
X116961334Y-79747439D01*
X117079122Y-79801474D01*
X117199559Y-79834290D01*
X117321117Y-79845211D01*
X117362585Y-79843868D01*
X117480080Y-79825612D01*
X117590089Y-79786617D01*
X117691430Y-79727670D01*
X117782921Y-79649557D01*
X117863380Y-79553064D01*
X117931627Y-79438978D01*
X117947908Y-79404724D01*
X117993982Y-79281240D01*
X118029106Y-79142918D01*
X118053197Y-78993561D01*
X118066173Y-78836973D01*
X118067949Y-78676956D01*
X118058443Y-78517314D01*
X118037572Y-78361850D01*
X118005252Y-78214366D01*
X117961399Y-78078667D01*
X117923982Y-77992076D01*
X117859185Y-77878688D01*
X117783772Y-77785070D01*
X117697418Y-77710959D01*
X117599795Y-77656094D01*
X117490577Y-77620212D01*
X117369439Y-77603051D01*
X117300038Y-77601880D01*
X117177168Y-77616141D01*
X117061664Y-77651241D01*
X116954953Y-77706682D01*
X116858464Y-77781964D01*
X116842720Y-77796440D01*
X116812150Y-77822962D01*
X116789809Y-77840138D01*
X116779691Y-77844787D01*
X116777706Y-77842597D01*
X116763241Y-77823721D01*
X116739400Y-77790397D01*
X116708029Y-77745380D01*
X116670974Y-77691425D01*
X116630083Y-77631285D01*
X116587202Y-77567718D01*
X116544178Y-77503476D01*
X116502857Y-77441315D01*
X116465086Y-77383991D01*
X116432712Y-77334257D01*
X116407582Y-77294868D01*
X116391542Y-77268580D01*
X116386439Y-77258147D01*
X116391050Y-77253941D01*
X116410267Y-77248933D01*
X116419838Y-77246386D01*
X116447809Y-77235249D01*
X116489448Y-77216802D01*
X116540995Y-77192725D01*
X116598690Y-77164699D01*
X116609957Y-77159154D01*
X116787687Y-77079889D01*
X116957490Y-77020385D01*
X117121430Y-76980245D01*
X117281571Y-76959071D01*
X117439977Y-76956466D01*
X117598711Y-76972033D01*
G36*
X117598711Y-76972033D02*
G01*
X117694268Y-76989523D01*
X117858558Y-77034564D01*
X118012589Y-77097656D01*
X118158509Y-77179915D01*
X118298466Y-77282457D01*
X118434608Y-77406399D01*
X118478473Y-77451661D01*
X118590758Y-77583865D01*
X118683972Y-77721832D01*
X118760719Y-77869750D01*
X118823603Y-78031803D01*
X118827420Y-78043391D01*
X118877507Y-78229392D01*
X118910899Y-78425521D01*
X118927584Y-78627568D01*
X118927551Y-78831325D01*
X118910791Y-79032581D01*
X118877292Y-79227128D01*
X118827044Y-79410756D01*
X118783190Y-79528053D01*
X118705348Y-79690951D01*
X118611828Y-79844866D01*
X118504822Y-79986671D01*
X118386519Y-80113239D01*
X118259111Y-80221441D01*
X118181606Y-80274120D01*
X118054725Y-80343750D01*
X117917243Y-80402468D01*
X117775716Y-80447587D01*
X117636702Y-80476422D01*
X117622597Y-80478106D01*
X117579153Y-80481434D01*
X117521723Y-80484275D01*
X117456122Y-80486373D01*
X117388167Y-80487468D01*
X117261378Y-80485140D01*
X117113673Y-80472136D01*
X116975779Y-80447133D01*
X116842014Y-80409318D01*
X116818562Y-80400889D01*
X116770612Y-80381408D01*
X116714140Y-80356473D01*
X116652379Y-80327722D01*
X116588563Y-80296790D01*
X116525926Y-80265315D01*
X116467703Y-80234934D01*
X116417127Y-80207283D01*
X116377433Y-80183999D01*
X116351854Y-80166718D01*
X116343625Y-80157079D01*
X116345076Y-80153984D01*
X116356250Y-80134079D01*
X116377134Y-80098420D01*
X116406265Y-80049459D01*
X116442181Y-79989646D01*
X116483420Y-79921433D01*
X116528517Y-79847271D01*
X116709785Y-79550008D01*
X116756315Y-79594539D01*
X116847723Y-79672865D01*
X116961334Y-79747439D01*
X117079122Y-79801474D01*
X117199559Y-79834290D01*
X117321117Y-79845211D01*
X117362585Y-79843868D01*
X117480080Y-79825612D01*
X117590089Y-79786617D01*
X117691430Y-79727670D01*
X117782921Y-79649557D01*
X117863380Y-79553064D01*
X117931627Y-79438978D01*
X117947908Y-79404724D01*
X117993982Y-79281240D01*
X118029106Y-79142918D01*
X118053197Y-78993561D01*
X118066173Y-78836973D01*
X118067949Y-78676956D01*
X118058443Y-78517314D01*
X118037572Y-78361850D01*
X118005252Y-78214366D01*
X117961399Y-78078667D01*
X117923982Y-77992076D01*
X117859185Y-77878688D01*
X117783772Y-77785070D01*
X117697418Y-77710959D01*
X117599795Y-77656094D01*
X117490577Y-77620212D01*
X117369439Y-77603051D01*
X117300038Y-77601880D01*
X117177168Y-77616141D01*
X117061664Y-77651241D01*
X116954953Y-77706682D01*
X116858464Y-77781964D01*
X116842720Y-77796440D01*
X116812150Y-77822962D01*
X116789809Y-77840138D01*
X116779691Y-77844787D01*
X116777706Y-77842597D01*
X116763241Y-77823721D01*
X116739400Y-77790397D01*
X116708029Y-77745380D01*
X116670974Y-77691425D01*
X116630083Y-77631285D01*
X116587202Y-77567718D01*
X116544178Y-77503476D01*
X116502857Y-77441315D01*
X116465086Y-77383991D01*
X116432712Y-77334257D01*
X116407582Y-77294868D01*
X116391542Y-77268580D01*
X116386439Y-77258147D01*
X116391050Y-77253941D01*
X116410267Y-77248933D01*
X116419838Y-77246386D01*
X116447809Y-77235249D01*
X116489448Y-77216802D01*
X116540995Y-77192725D01*
X116598690Y-77164699D01*
X116609957Y-77159154D01*
X116787687Y-77079889D01*
X116957490Y-77020385D01*
X117121430Y-76980245D01*
X117281571Y-76959071D01*
X117439977Y-76956466D01*
X117598711Y-76972033D01*
G37*
X113795994Y-79252711D02*
X113795268Y-79330158D01*
X113786689Y-79481594D01*
X113767833Y-79618283D01*
X113737837Y-79744276D01*
X113695836Y-79863625D01*
X113640969Y-79980381D01*
X113574167Y-80091179D01*
X113483363Y-80204739D01*
X113379708Y-80300211D01*
X113263887Y-80377073D01*
X113136586Y-80434797D01*
X112998489Y-80472858D01*
X112960793Y-80478666D01*
X112881752Y-80484396D01*
X112793629Y-80484583D01*
X112704236Y-80479539D01*
X112621384Y-80469578D01*
X112552887Y-80455012D01*
X112522035Y-80445364D01*
X112444730Y-80415123D01*
X112367679Y-80377617D01*
X112298200Y-80336614D01*
X112243615Y-80295879D01*
X112220916Y-80276505D01*
X112198201Y-80258662D01*
X112186779Y-80251778D01*
X112185537Y-80253424D01*
X112182728Y-80271205D01*
X112180776Y-80304370D01*
X112180045Y-80347733D01*
X112180045Y-80443689D01*
X111321896Y-80443689D01*
X111356161Y-80382974D01*
X111361355Y-80373868D01*
X111369715Y-80359249D01*
X111377288Y-80345173D01*
X111384112Y-80330540D01*
X111390227Y-80314249D01*
X111395673Y-80295198D01*
X111400487Y-80272286D01*
X111404708Y-80244413D01*
X111408377Y-80210478D01*
X111411531Y-80169379D01*
X111414211Y-80120015D01*
X111416454Y-80061286D01*
X111418299Y-79992090D01*
X111419787Y-79911326D01*
X111420955Y-79817894D01*
X111421678Y-79730721D01*
X112225200Y-79730721D01*
X112295756Y-79777089D01*
X112336417Y-79800791D01*
X112390546Y-79826639D01*
X112439689Y-79844829D01*
X112503165Y-79860551D01*
X112599331Y-79871541D01*
X112683900Y-79863365D01*
X112757219Y-79835805D01*
X112819637Y-79788642D01*
X112871502Y-79721658D01*
X112913160Y-79634633D01*
X112944962Y-79527350D01*
X112947545Y-79515009D01*
X112956000Y-79453772D01*
X112961663Y-79376692D01*
X112964576Y-79289002D01*
X112964783Y-79195934D01*
X112962330Y-79102720D01*
X112957261Y-79014594D01*
X112949619Y-78936788D01*
X112939448Y-78874533D01*
X112938167Y-78868666D01*
X112909126Y-78758121D01*
X112874610Y-78667575D01*
X112833456Y-78594953D01*
X112784499Y-78538181D01*
X112726574Y-78495184D01*
X112694620Y-78479615D01*
X112621784Y-78460722D01*
X112540443Y-78457465D01*
X112455319Y-78469389D01*
X112371133Y-78496040D01*
X112292608Y-78536962D01*
X112225200Y-78580530D01*
X112225200Y-79730721D01*
X111421678Y-79730721D01*
X111421844Y-79710692D01*
X111422491Y-79588620D01*
X111422936Y-79450576D01*
X111423218Y-79295459D01*
X111423375Y-79122168D01*
X111423448Y-78929603D01*
X111423474Y-78716662D01*
X111423493Y-78482245D01*
X111423689Y-76797378D01*
X112329017Y-76797378D01*
X112304585Y-76834067D01*
X112298318Y-76843647D01*
X112272208Y-76889981D01*
X112254469Y-76937102D01*
X112242908Y-76992251D01*
X112235331Y-77062667D01*
X112234839Y-77069650D01*
X112233062Y-77107641D01*
X112231444Y-77161576D01*
X112229999Y-77228703D01*
X112228740Y-77306271D01*
X112227680Y-77391528D01*
X112226829Y-77481724D01*
X112226203Y-77574107D01*
X112225812Y-77665925D01*
X112225670Y-77754427D01*
X112225790Y-77836862D01*
X112226183Y-77910479D01*
X112226862Y-77972526D01*
X112227841Y-78020251D01*
X112229132Y-78050904D01*
X112230747Y-78061733D01*
X112238957Y-78057333D01*
X112260647Y-78042362D01*
X112290014Y-78020448D01*
X112338879Y-77986236D01*
X112427125Y-77939714D01*
X112525916Y-77906046D01*
X112638510Y-77884231D01*
X112768164Y-77873265D01*
X112860670Y-77872219D01*
X112982011Y-77882014D01*
X113092099Y-77906174D01*
X113195389Y-77945785D01*
X113296338Y-78001932D01*
X113341503Y-78032883D01*
X113446911Y-78124115D01*
X113538538Y-78233106D01*
X113616332Y-78359726D01*
X113680241Y-78503845D01*
X113730214Y-78665332D01*
X113766198Y-78844059D01*
X113788143Y-79039895D01*
X113793900Y-79195934D01*
X113795994Y-79252711D01*
G36*
X113795994Y-79252711D02*
G01*
X113795268Y-79330158D01*
X113786689Y-79481594D01*
X113767833Y-79618283D01*
X113737837Y-79744276D01*
X113695836Y-79863625D01*
X113640969Y-79980381D01*
X113574167Y-80091179D01*
X113483363Y-80204739D01*
X113379708Y-80300211D01*
X113263887Y-80377073D01*
X113136586Y-80434797D01*
X112998489Y-80472858D01*
X112960793Y-80478666D01*
X112881752Y-80484396D01*
X112793629Y-80484583D01*
X112704236Y-80479539D01*
X112621384Y-80469578D01*
X112552887Y-80455012D01*
X112522035Y-80445364D01*
X112444730Y-80415123D01*
X112367679Y-80377617D01*
X112298200Y-80336614D01*
X112243615Y-80295879D01*
X112220916Y-80276505D01*
X112198201Y-80258662D01*
X112186779Y-80251778D01*
X112185537Y-80253424D01*
X112182728Y-80271205D01*
X112180776Y-80304370D01*
X112180045Y-80347733D01*
X112180045Y-80443689D01*
X111321896Y-80443689D01*
X111356161Y-80382974D01*
X111361355Y-80373868D01*
X111369715Y-80359249D01*
X111377288Y-80345173D01*
X111384112Y-80330540D01*
X111390227Y-80314249D01*
X111395673Y-80295198D01*
X111400487Y-80272286D01*
X111404708Y-80244413D01*
X111408377Y-80210478D01*
X111411531Y-80169379D01*
X111414211Y-80120015D01*
X111416454Y-80061286D01*
X111418299Y-79992090D01*
X111419787Y-79911326D01*
X111420955Y-79817894D01*
X111421678Y-79730721D01*
X112225200Y-79730721D01*
X112295756Y-79777089D01*
X112336417Y-79800791D01*
X112390546Y-79826639D01*
X112439689Y-79844829D01*
X112503165Y-79860551D01*
X112599331Y-79871541D01*
X112683900Y-79863365D01*
X112757219Y-79835805D01*
X112819637Y-79788642D01*
X112871502Y-79721658D01*
X112913160Y-79634633D01*
X112944962Y-79527350D01*
X112947545Y-79515009D01*
X112956000Y-79453772D01*
X112961663Y-79376692D01*
X112964576Y-79289002D01*
X112964783Y-79195934D01*
X112962330Y-79102720D01*
X112957261Y-79014594D01*
X112949619Y-78936788D01*
X112939448Y-78874533D01*
X112938167Y-78868666D01*
X112909126Y-78758121D01*
X112874610Y-78667575D01*
X112833456Y-78594953D01*
X112784499Y-78538181D01*
X112726574Y-78495184D01*
X112694620Y-78479615D01*
X112621784Y-78460722D01*
X112540443Y-78457465D01*
X112455319Y-78469389D01*
X112371133Y-78496040D01*
X112292608Y-78536962D01*
X112225200Y-78580530D01*
X112225200Y-79730721D01*
X111421678Y-79730721D01*
X111421844Y-79710692D01*
X111422491Y-79588620D01*
X111422936Y-79450576D01*
X111423218Y-79295459D01*
X111423375Y-79122168D01*
X111423448Y-78929603D01*
X111423474Y-78716662D01*
X111423493Y-78482245D01*
X111423689Y-76797378D01*
X112329017Y-76797378D01*
X112304585Y-76834067D01*
X112298318Y-76843647D01*
X112272208Y-76889981D01*
X112254469Y-76937102D01*
X112242908Y-76992251D01*
X112235331Y-77062667D01*
X112234839Y-77069650D01*
X112233062Y-77107641D01*
X112231444Y-77161576D01*
X112229999Y-77228703D01*
X112228740Y-77306271D01*
X112227680Y-77391528D01*
X112226829Y-77481724D01*
X112226203Y-77574107D01*
X112225812Y-77665925D01*
X112225670Y-77754427D01*
X112225790Y-77836862D01*
X112226183Y-77910479D01*
X112226862Y-77972526D01*
X112227841Y-78020251D01*
X112229132Y-78050904D01*
X112230747Y-78061733D01*
X112238957Y-78057333D01*
X112260647Y-78042362D01*
X112290014Y-78020448D01*
X112338879Y-77986236D01*
X112427125Y-77939714D01*
X112525916Y-77906046D01*
X112638510Y-77884231D01*
X112768164Y-77873265D01*
X112860670Y-77872219D01*
X112982011Y-77882014D01*
X113092099Y-77906174D01*
X113195389Y-77945785D01*
X113296338Y-78001932D01*
X113341503Y-78032883D01*
X113446911Y-78124115D01*
X113538538Y-78233106D01*
X113616332Y-78359726D01*
X113680241Y-78503845D01*
X113730214Y-78665332D01*
X113766198Y-78844059D01*
X113788143Y-79039895D01*
X113793900Y-79195934D01*
X113795994Y-79252711D01*
G37*
X116337755Y-79653467D02*
X116337261Y-79687363D01*
X116333632Y-79762202D01*
X116326022Y-79824401D01*
X116313688Y-79880984D01*
X116269313Y-80007076D01*
X116206400Y-80121679D01*
X116126238Y-80222568D01*
X116029740Y-80308924D01*
X115917822Y-80379932D01*
X115791397Y-80434776D01*
X115651378Y-80472638D01*
X115615149Y-80478351D01*
X115536155Y-80484313D01*
X115447841Y-80484646D01*
X115358075Y-80479659D01*
X115274722Y-80469666D01*
X115205651Y-80454978D01*
X115119187Y-80424749D01*
X115009286Y-80370057D01*
X114911956Y-80302543D01*
X114849867Y-80251556D01*
X114846605Y-80347622D01*
X114843343Y-80443689D01*
X114420450Y-80443689D01*
X114409543Y-80443686D01*
X114315056Y-80443380D01*
X114228331Y-80442616D01*
X114151837Y-80441451D01*
X114088043Y-80439942D01*
X114039418Y-80438147D01*
X114008433Y-80436121D01*
X113997556Y-80433922D01*
X113997578Y-80433463D01*
X114004614Y-80417910D01*
X114020434Y-80395071D01*
X114024734Y-80389638D01*
X114035777Y-80375606D01*
X114045311Y-80362186D01*
X114053461Y-80347722D01*
X114060352Y-80330556D01*
X114066111Y-80309034D01*
X114070862Y-80281498D01*
X114074731Y-80246292D01*
X114077844Y-80201760D01*
X114080325Y-80146246D01*
X114082300Y-80078093D01*
X114083894Y-79995645D01*
X114085234Y-79897246D01*
X114086444Y-79781239D01*
X114086896Y-79730462D01*
X114889378Y-79730462D01*
X114934048Y-79786973D01*
X114946785Y-79802212D01*
X114993604Y-79844844D01*
X115054255Y-79880672D01*
X115064897Y-79885850D01*
X115103676Y-79902745D01*
X115138692Y-79912909D01*
X115178722Y-79918325D01*
X115232541Y-79920978D01*
X115250648Y-79921383D01*
X115326011Y-79918540D01*
X115386743Y-79906620D01*
X115438452Y-79884037D01*
X115486746Y-79849211D01*
X115491803Y-79844798D01*
X115540272Y-79789160D01*
X115568459Y-79725333D01*
X115577752Y-79650282D01*
X115570520Y-79578693D01*
X115545796Y-79515645D01*
X115501249Y-79457758D01*
X115446319Y-79410808D01*
X115373894Y-79370961D01*
X115287340Y-79343263D01*
X115184670Y-79327096D01*
X115063894Y-79321842D01*
X115055007Y-79321857D01*
X114999660Y-79322655D01*
X114952736Y-79324488D01*
X114918953Y-79327111D01*
X114903028Y-79330274D01*
X114898943Y-79336741D01*
X114894572Y-79358875D01*
X114891604Y-79397988D01*
X114889914Y-79455939D01*
X114889378Y-79534586D01*
X114889378Y-79730462D01*
X114086896Y-79730462D01*
X114087649Y-79645968D01*
X114088975Y-79489778D01*
X114090228Y-79347012D01*
X114091651Y-79201942D01*
X114093176Y-79076027D01*
X114094933Y-78967436D01*
X114097051Y-78874334D01*
X114099660Y-78794891D01*
X114102890Y-78727273D01*
X114106869Y-78669649D01*
X114111728Y-78620185D01*
X114117597Y-78577050D01*
X114124604Y-78538410D01*
X114132880Y-78502434D01*
X114142554Y-78467289D01*
X114153756Y-78431142D01*
X114166616Y-78392161D01*
X114182090Y-78349091D01*
X114224994Y-78256871D01*
X114278735Y-78177099D01*
X114347576Y-78102965D01*
X114425185Y-78039405D01*
X114529761Y-77977725D01*
X114649244Y-77930202D01*
X114784508Y-77896567D01*
X114936426Y-77876552D01*
X115105872Y-77869889D01*
X115163890Y-77870287D01*
X115229398Y-77872335D01*
X115290693Y-77876704D01*
X115352097Y-77884035D01*
X115417932Y-77894969D01*
X115492520Y-77910147D01*
X115580184Y-77930209D01*
X115685245Y-77955797D01*
X115713806Y-77962820D01*
X115789054Y-77980776D01*
X115859388Y-77996820D01*
X115920567Y-78010028D01*
X115968354Y-78019474D01*
X115998511Y-78024231D01*
X116026783Y-78027910D01*
X116053060Y-78033187D01*
X116063059Y-78037942D01*
X116059952Y-78046781D01*
X116049194Y-78074072D01*
X116031864Y-78116906D01*
X116009126Y-78172425D01*
X115982147Y-78237772D01*
X115952090Y-78310089D01*
X115945493Y-78325879D01*
X115906907Y-78416484D01*
X115875768Y-78486217D01*
X115851917Y-78535405D01*
X115835198Y-78564374D01*
X115825454Y-78573452D01*
X115817766Y-78571405D01*
X115791415Y-78561760D01*
X115752982Y-78546190D01*
X115707822Y-78526815D01*
X115613293Y-78488814D01*
X115476480Y-78447780D01*
X115335289Y-78422612D01*
X115297314Y-78418611D01*
X115194059Y-78416447D01*
X115106952Y-78429622D01*
X115035129Y-78458756D01*
X114977731Y-78504466D01*
X114933896Y-78567372D01*
X114902762Y-78648092D01*
X114883470Y-78747245D01*
X114876050Y-78806224D01*
X115037936Y-78799445D01*
X115164495Y-78797813D01*
X115315951Y-78804194D01*
X115464396Y-78818777D01*
X115600578Y-78840882D01*
X115665245Y-78855821D01*
X115797490Y-78898741D01*
X115919762Y-78955340D01*
X116029685Y-79024017D01*
X116124883Y-79103170D01*
X116202980Y-79191196D01*
X116261599Y-79286493D01*
X116285595Y-79338864D01*
X116311232Y-79409590D01*
X116327478Y-79480812D01*
X116335822Y-79559712D01*
X116337690Y-79650282D01*
X116337755Y-79653467D01*
G36*
X116337755Y-79653467D02*
G01*
X116337261Y-79687363D01*
X116333632Y-79762202D01*
X116326022Y-79824401D01*
X116313688Y-79880984D01*
X116269313Y-80007076D01*
X116206400Y-80121679D01*
X116126238Y-80222568D01*
X116029740Y-80308924D01*
X115917822Y-80379932D01*
X115791397Y-80434776D01*
X115651378Y-80472638D01*
X115615149Y-80478351D01*
X115536155Y-80484313D01*
X115447841Y-80484646D01*
X115358075Y-80479659D01*
X115274722Y-80469666D01*
X115205651Y-80454978D01*
X115119187Y-80424749D01*
X115009286Y-80370057D01*
X114911956Y-80302543D01*
X114849867Y-80251556D01*
X114846605Y-80347622D01*
X114843343Y-80443689D01*
X114420450Y-80443689D01*
X114409543Y-80443686D01*
X114315056Y-80443380D01*
X114228331Y-80442616D01*
X114151837Y-80441451D01*
X114088043Y-80439942D01*
X114039418Y-80438147D01*
X114008433Y-80436121D01*
X113997556Y-80433922D01*
X113997578Y-80433463D01*
X114004614Y-80417910D01*
X114020434Y-80395071D01*
X114024734Y-80389638D01*
X114035777Y-80375606D01*
X114045311Y-80362186D01*
X114053461Y-80347722D01*
X114060352Y-80330556D01*
X114066111Y-80309034D01*
X114070862Y-80281498D01*
X114074731Y-80246292D01*
X114077844Y-80201760D01*
X114080325Y-80146246D01*
X114082300Y-80078093D01*
X114083894Y-79995645D01*
X114085234Y-79897246D01*
X114086444Y-79781239D01*
X114086896Y-79730462D01*
X114889378Y-79730462D01*
X114934048Y-79786973D01*
X114946785Y-79802212D01*
X114993604Y-79844844D01*
X115054255Y-79880672D01*
X115064897Y-79885850D01*
X115103676Y-79902745D01*
X115138692Y-79912909D01*
X115178722Y-79918325D01*
X115232541Y-79920978D01*
X115250648Y-79921383D01*
X115326011Y-79918540D01*
X115386743Y-79906620D01*
X115438452Y-79884037D01*
X115486746Y-79849211D01*
X115491803Y-79844798D01*
X115540272Y-79789160D01*
X115568459Y-79725333D01*
X115577752Y-79650282D01*
X115570520Y-79578693D01*
X115545796Y-79515645D01*
X115501249Y-79457758D01*
X115446319Y-79410808D01*
X115373894Y-79370961D01*
X115287340Y-79343263D01*
X115184670Y-79327096D01*
X115063894Y-79321842D01*
X115055007Y-79321857D01*
X114999660Y-79322655D01*
X114952736Y-79324488D01*
X114918953Y-79327111D01*
X114903028Y-79330274D01*
X114898943Y-79336741D01*
X114894572Y-79358875D01*
X114891604Y-79397988D01*
X114889914Y-79455939D01*
X114889378Y-79534586D01*
X114889378Y-79730462D01*
X114086896Y-79730462D01*
X114087649Y-79645968D01*
X114088975Y-79489778D01*
X114090228Y-79347012D01*
X114091651Y-79201942D01*
X114093176Y-79076027D01*
X114094933Y-78967436D01*
X114097051Y-78874334D01*
X114099660Y-78794891D01*
X114102890Y-78727273D01*
X114106869Y-78669649D01*
X114111728Y-78620185D01*
X114117597Y-78577050D01*
X114124604Y-78538410D01*
X114132880Y-78502434D01*
X114142554Y-78467289D01*
X114153756Y-78431142D01*
X114166616Y-78392161D01*
X114182090Y-78349091D01*
X114224994Y-78256871D01*
X114278735Y-78177099D01*
X114347576Y-78102965D01*
X114425185Y-78039405D01*
X114529761Y-77977725D01*
X114649244Y-77930202D01*
X114784508Y-77896567D01*
X114936426Y-77876552D01*
X115105872Y-77869889D01*
X115163890Y-77870287D01*
X115229398Y-77872335D01*
X115290693Y-77876704D01*
X115352097Y-77884035D01*
X115417932Y-77894969D01*
X115492520Y-77910147D01*
X115580184Y-77930209D01*
X115685245Y-77955797D01*
X115713806Y-77962820D01*
X115789054Y-77980776D01*
X115859388Y-77996820D01*
X115920567Y-78010028D01*
X115968354Y-78019474D01*
X115998511Y-78024231D01*
X116026783Y-78027910D01*
X116053060Y-78033187D01*
X116063059Y-78037942D01*
X116059952Y-78046781D01*
X116049194Y-78074072D01*
X116031864Y-78116906D01*
X116009126Y-78172425D01*
X115982147Y-78237772D01*
X115952090Y-78310089D01*
X115945493Y-78325879D01*
X115906907Y-78416484D01*
X115875768Y-78486217D01*
X115851917Y-78535405D01*
X115835198Y-78564374D01*
X115825454Y-78573452D01*
X115817766Y-78571405D01*
X115791415Y-78561760D01*
X115752982Y-78546190D01*
X115707822Y-78526815D01*
X115613293Y-78488814D01*
X115476480Y-78447780D01*
X115335289Y-78422612D01*
X115297314Y-78418611D01*
X115194059Y-78416447D01*
X115106952Y-78429622D01*
X115035129Y-78458756D01*
X114977731Y-78504466D01*
X114933896Y-78567372D01*
X114902762Y-78648092D01*
X114883470Y-78747245D01*
X114876050Y-78806224D01*
X115037936Y-78799445D01*
X115164495Y-78797813D01*
X115315951Y-78804194D01*
X115464396Y-78818777D01*
X115600578Y-78840882D01*
X115665245Y-78855821D01*
X115797490Y-78898741D01*
X115919762Y-78955340D01*
X116029685Y-79024017D01*
X116124883Y-79103170D01*
X116202980Y-79191196D01*
X116261599Y-79286493D01*
X116285595Y-79338864D01*
X116311232Y-79409590D01*
X116327478Y-79480812D01*
X116335822Y-79559712D01*
X116337690Y-79650282D01*
X116337755Y-79653467D01*
G37*
X123885614Y-77121792D02*
X123886059Y-77253011D01*
X123886362Y-77400216D01*
X123886548Y-77564349D01*
X123886642Y-77746352D01*
X123886671Y-77947165D01*
X123886661Y-78167732D01*
X123886636Y-78408992D01*
X123886622Y-78671889D01*
X123886622Y-78714040D01*
X123886646Y-78974668D01*
X123886685Y-79213796D01*
X123886708Y-79432360D01*
X123886687Y-79631295D01*
X123886593Y-79811535D01*
X123886395Y-79974015D01*
X123886063Y-80119670D01*
X123885569Y-80249434D01*
X123884883Y-80364243D01*
X123883976Y-80465030D01*
X123882817Y-80552730D01*
X123881378Y-80628279D01*
X123879629Y-80692611D01*
X123877540Y-80746661D01*
X123875083Y-80791363D01*
X123872227Y-80827652D01*
X123868943Y-80856463D01*
X123865202Y-80878731D01*
X123860974Y-80895390D01*
X123856229Y-80907375D01*
X123850939Y-80915621D01*
X123845073Y-80921062D01*
X123838602Y-80924634D01*
X123831497Y-80927270D01*
X123823728Y-80929906D01*
X123815266Y-80933477D01*
X123810908Y-80935145D01*
X123802395Y-80937111D01*
X123789694Y-80938911D01*
X123771885Y-80940555D01*
X123748049Y-80942047D01*
X123717266Y-80943397D01*
X123678617Y-80944611D01*
X123631182Y-80945697D01*
X123574043Y-80946661D01*
X123506279Y-80947511D01*
X123426971Y-80948253D01*
X123335199Y-80948897D01*
X123230044Y-80949447D01*
X123110587Y-80949913D01*
X122975908Y-80950300D01*
X122825088Y-80950616D01*
X122657206Y-80950869D01*
X122471345Y-80951066D01*
X122266583Y-80951213D01*
X122042002Y-80951318D01*
X121796682Y-80951389D01*
X121529704Y-80951432D01*
X121491321Y-80951437D01*
X121225922Y-80951480D01*
X120982050Y-80951525D01*
X120758783Y-80951548D01*
X120555196Y-80951524D01*
X120370367Y-80951430D01*
X120203373Y-80951243D01*
X120053290Y-80950939D01*
X119919196Y-80950494D01*
X119800166Y-80949885D01*
X119695279Y-80949089D01*
X119603610Y-80948080D01*
X119524237Y-80946837D01*
X119456237Y-80945335D01*
X119398686Y-80943551D01*
X119350662Y-80941461D01*
X119311240Y-80939042D01*
X119279499Y-80936270D01*
X119254514Y-80933121D01*
X119235364Y-80929572D01*
X119221123Y-80925598D01*
X119210871Y-80921178D01*
X119203682Y-80916286D01*
X119198635Y-80910900D01*
X119194805Y-80904996D01*
X119191271Y-80898549D01*
X119187108Y-80891537D01*
X119186025Y-80889687D01*
X119183813Y-80884180D01*
X119181786Y-80875868D01*
X119179938Y-80863809D01*
X119178261Y-80847063D01*
X119176745Y-80824687D01*
X119175383Y-80795740D01*
X119174167Y-80759280D01*
X119173089Y-80714367D01*
X119172140Y-80660057D01*
X119171312Y-80595410D01*
X119170597Y-80519484D01*
X119169987Y-80431338D01*
X119169942Y-80422493D01*
X119461378Y-80422493D01*
X119465260Y-80423765D01*
X119488520Y-80425791D01*
X119530874Y-80427626D01*
X119590132Y-80429227D01*
X119664107Y-80430549D01*
X119750610Y-80431548D01*
X119847452Y-80432180D01*
X119952445Y-80432400D01*
X120650651Y-80432400D01*
X121805090Y-80432400D01*
X121804456Y-80356200D01*
X121805574Y-80314160D01*
X121811304Y-80278334D01*
X121823890Y-80240772D01*
X121845568Y-80192577D01*
X121848789Y-80185897D01*
X121874188Y-80136359D01*
X121900996Y-80088369D01*
X121923917Y-80051466D01*
X121928485Y-80044834D01*
X121950516Y-80013593D01*
X121982693Y-79968654D01*
X122023457Y-79912147D01*
X122071245Y-79846204D01*
X122124498Y-79772957D01*
X122181655Y-79694536D01*
X122241155Y-79613072D01*
X122301437Y-79530698D01*
X122360940Y-79449544D01*
X122418105Y-79371742D01*
X122471370Y-79299423D01*
X122519174Y-79234718D01*
X122559957Y-79179759D01*
X122592158Y-79136676D01*
X122614216Y-79107602D01*
X122624571Y-79094667D01*
X122629044Y-79090351D01*
X122633236Y-79088312D01*
X122636643Y-79090926D01*
X122639325Y-79099986D01*
X122641341Y-79117285D01*
X122642748Y-79144614D01*
X122643605Y-79183765D01*
X122643970Y-79236533D01*
X122643903Y-79304707D01*
X122643460Y-79390082D01*
X122642702Y-79494449D01*
X122641685Y-79619600D01*
X122641308Y-79664300D01*
X122640169Y-79785395D01*
X122638972Y-79886688D01*
X122637636Y-79970262D01*
X122636077Y-80038204D01*
X122634215Y-80092599D01*
X122631966Y-80135532D01*
X122629248Y-80169089D01*
X122625979Y-80195355D01*
X122622078Y-80216416D01*
X122617461Y-80234357D01*
X122609192Y-80260770D01*
X122585583Y-80322772D01*
X122559685Y-80375573D01*
X122534535Y-80412645D01*
X122533339Y-80414075D01*
X122531168Y-80418424D01*
X122533328Y-80422026D01*
X122541644Y-80424951D01*
X122557940Y-80427269D01*
X122584041Y-80429051D01*
X122621771Y-80430367D01*
X122672956Y-80431286D01*
X122739420Y-80431878D01*
X122822987Y-80432215D01*
X122925483Y-80432365D01*
X123048732Y-80432400D01*
X123580296Y-80432400D01*
X123541523Y-80374783D01*
X123535432Y-80365893D01*
X123524976Y-80351069D01*
X123515579Y-80337422D01*
X123507183Y-80323765D01*
X123499733Y-80308911D01*
X123493173Y-80291670D01*
X123487446Y-80270855D01*
X123482495Y-80245280D01*
X123478266Y-80213755D01*
X123474701Y-80175093D01*
X123471744Y-80128107D01*
X123469340Y-80071608D01*
X123467431Y-80004409D01*
X123465962Y-79925322D01*
X123464876Y-79833160D01*
X123464118Y-79726734D01*
X123463630Y-79604857D01*
X123463358Y-79466341D01*
X123463243Y-79309999D01*
X123463231Y-79134642D01*
X123463265Y-78939082D01*
X123463289Y-78722133D01*
X123463280Y-78599513D01*
X123463243Y-78394447D01*
X123463227Y-78210116D01*
X123463288Y-78045334D01*
X123463484Y-77898916D01*
X123463870Y-77769674D01*
X123464505Y-77656422D01*
X123465444Y-77557975D01*
X123466745Y-77473144D01*
X123468464Y-77400744D01*
X123470659Y-77339589D01*
X123473385Y-77288492D01*
X123476701Y-77246267D01*
X123480662Y-77211727D01*
X123485325Y-77183686D01*
X123490747Y-77160958D01*
X123496986Y-77142356D01*
X123504097Y-77126693D01*
X123512138Y-77112784D01*
X123521166Y-77099441D01*
X123531236Y-77085479D01*
X123542407Y-77069711D01*
X123582197Y-77011867D01*
X122522314Y-77011867D01*
X122560311Y-77074966D01*
X122574993Y-77100005D01*
X122589531Y-77127586D01*
X122601627Y-77155700D01*
X122611532Y-77186551D01*
X122619494Y-77222344D01*
X122625761Y-77265283D01*
X122630582Y-77317574D01*
X122634206Y-77381419D01*
X122636881Y-77459025D01*
X122638857Y-77552594D01*
X122640382Y-77664333D01*
X122641704Y-77796445D01*
X122642613Y-77916434D01*
X122643020Y-78033063D01*
X122642767Y-78128531D01*
X122641857Y-78202556D01*
X122640293Y-78254855D01*
X122638079Y-78285149D01*
X122635220Y-78293156D01*
X122632161Y-78289858D01*
X122614006Y-78268408D01*
X122584275Y-78231889D01*
X122544639Y-78182442D01*
X122496771Y-78122207D01*
X122442343Y-78053327D01*
X122383027Y-77977943D01*
X122320495Y-77898196D01*
X122256421Y-77816228D01*
X122192475Y-77734180D01*
X122130331Y-77654194D01*
X122071661Y-77578411D01*
X122018137Y-77508973D01*
X121971430Y-77448021D01*
X121933214Y-77397696D01*
X121905161Y-77360140D01*
X121888943Y-77337495D01*
X121843635Y-77265212D01*
X121803661Y-77185463D01*
X121782130Y-77117188D01*
X121778827Y-77059844D01*
X121784116Y-77011867D01*
X120652356Y-77012117D01*
X120691867Y-77042722D01*
X120701248Y-77050089D01*
X120764183Y-77104438D01*
X120832997Y-77172259D01*
X120909596Y-77255516D01*
X120995888Y-77356178D01*
X121013052Y-77376847D01*
X121053833Y-77426409D01*
X121103588Y-77487326D01*
X121160955Y-77557898D01*
X121224569Y-77636424D01*
X121293069Y-77721204D01*
X121365090Y-77810537D01*
X121439270Y-77902722D01*
X121454517Y-77921702D01*
X121514246Y-77996060D01*
X121588653Y-78088848D01*
X121661131Y-78179388D01*
X121730314Y-78265978D01*
X121794841Y-78346918D01*
X121853347Y-78420506D01*
X121904470Y-78485044D01*
X121946847Y-78538829D01*
X121979115Y-78580162D01*
X121999910Y-78607342D01*
X122007869Y-78618668D01*
X122006111Y-78622771D01*
X121993230Y-78643334D01*
X121968885Y-78679561D01*
X121934247Y-78729824D01*
X121890486Y-78792492D01*
X121838775Y-78865936D01*
X121780284Y-78948527D01*
X121716184Y-79038636D01*
X121647646Y-79134631D01*
X121575843Y-79234885D01*
X121501944Y-79337768D01*
X121427121Y-79441650D01*
X121352545Y-79544901D01*
X121279387Y-79645892D01*
X121208819Y-79742994D01*
X121142011Y-79834577D01*
X121080135Y-79919011D01*
X121024361Y-79994667D01*
X120975862Y-80059916D01*
X120935807Y-80113128D01*
X120905369Y-80152673D01*
X120884944Y-80178026D01*
X120838899Y-80232295D01*
X120788612Y-80288775D01*
X120741815Y-80338669D01*
X120650651Y-80432400D01*
X119952445Y-80432400D01*
X120021356Y-80432349D01*
X120119607Y-80432091D01*
X120209030Y-80431637D01*
X120287333Y-80431010D01*
X120352223Y-80430235D01*
X120401411Y-80429335D01*
X120432604Y-80428334D01*
X120443511Y-80427257D01*
X120442322Y-80424037D01*
X120432176Y-80406452D01*
X120415040Y-80380158D01*
X120406540Y-80367691D01*
X120397329Y-80353622D01*
X120389233Y-80339351D01*
X120382185Y-80323479D01*
X120376117Y-80304609D01*
X120370961Y-80281341D01*
X120366651Y-80252278D01*
X120363119Y-80216021D01*
X120360297Y-80171170D01*
X120358118Y-80116328D01*
X120356514Y-80050097D01*
X120355419Y-79971077D01*
X120354765Y-79877871D01*
X120354484Y-79769079D01*
X120354509Y-79643303D01*
X120354772Y-79499145D01*
X120355206Y-79335207D01*
X120355745Y-79150089D01*
X120356279Y-78971232D01*
X120356805Y-78812374D01*
X120357350Y-78673316D01*
X120357945Y-78552665D01*
X120358619Y-78449028D01*
X120359403Y-78361011D01*
X120360326Y-78287223D01*
X120361419Y-78226269D01*
X120362712Y-78176757D01*
X120364235Y-78137293D01*
X120366019Y-78106484D01*
X120368092Y-78082938D01*
X120370486Y-78065260D01*
X120373230Y-78052059D01*
X120376356Y-78041940D01*
X120379892Y-78033511D01*
X120383791Y-78025375D01*
X120403438Y-77988544D01*
X120422225Y-77958391D01*
X120423272Y-77956908D01*
X120437602Y-77934659D01*
X120443511Y-77921702D01*
X120442504Y-77921249D01*
X120425305Y-77919803D01*
X120388656Y-77918480D01*
X120334962Y-77917316D01*
X120266630Y-77916347D01*
X120186064Y-77915611D01*
X120095670Y-77915142D01*
X119997853Y-77914978D01*
X119552195Y-77914978D01*
X119549120Y-79091845D01*
X119546045Y-80268711D01*
X119519407Y-80327622D01*
X119507485Y-80352183D01*
X119490246Y-80382434D01*
X119477074Y-80399560D01*
X119469076Y-80407591D01*
X119461378Y-80422493D01*
X119169942Y-80422493D01*
X119169474Y-80330029D01*
X119169050Y-80214617D01*
X119168706Y-80084160D01*
X119168434Y-79937716D01*
X119168227Y-79774344D01*
X119168076Y-79593101D01*
X119167972Y-79393048D01*
X119167908Y-79173241D01*
X119167876Y-78932739D01*
X119167867Y-78670602D01*
X119167867Y-76479031D01*
X119206249Y-76440649D01*
X119233355Y-76416911D01*
X119260253Y-76405111D01*
X119296560Y-76402267D01*
X119348489Y-76402267D01*
X119348489Y-76490206D01*
X119350427Y-76540102D01*
X119369199Y-76650523D01*
X119406217Y-76751987D01*
X119459369Y-76843152D01*
X119526546Y-76922673D01*
X119605638Y-76989205D01*
X119694534Y-77041406D01*
X119791125Y-77077930D01*
X119893300Y-77097434D01*
X119998950Y-77098573D01*
X120105964Y-77080005D01*
X120212232Y-77040384D01*
X120309219Y-76982516D01*
X120394293Y-76907684D01*
X120463015Y-76819615D01*
X120513918Y-76720616D01*
X120545535Y-76612993D01*
X120556400Y-76499054D01*
X120556400Y-76402267D01*
X122176753Y-76402267D01*
X122387897Y-76402280D01*
X122592020Y-76402330D01*
X122775686Y-76402430D01*
X122939991Y-76402592D01*
X123086029Y-76402829D01*
X123214894Y-76403153D01*
X123327683Y-76403575D01*
X123425488Y-76404109D01*
X123509404Y-76404767D01*
X123580527Y-76405561D01*
X123639950Y-76406504D01*
X123688768Y-76407608D01*
X123728077Y-76408884D01*
X123758969Y-76410347D01*
X123782541Y-76412007D01*
X123799886Y-76413878D01*
X123812099Y-76415972D01*
X123820275Y-76418300D01*
X123825508Y-76420876D01*
X123831504Y-76424445D01*
X123838279Y-76427978D01*
X123844478Y-76431488D01*
X123850126Y-76435918D01*
X123855247Y-76442208D01*
X123859869Y-76451301D01*
X123864015Y-76464139D01*
X123867713Y-76481662D01*
X123870987Y-76504813D01*
X123873863Y-76534534D01*
X123876367Y-76571765D01*
X123878524Y-76617449D01*
X123880360Y-76672527D01*
X123881900Y-76737941D01*
X123883170Y-76814633D01*
X123884195Y-76903544D01*
X123885001Y-77005617D01*
X123885034Y-77011867D01*
X123885614Y-77121792D01*
G36*
X123885614Y-77121792D02*
G01*
X123886059Y-77253011D01*
X123886362Y-77400216D01*
X123886548Y-77564349D01*
X123886642Y-77746352D01*
X123886671Y-77947165D01*
X123886661Y-78167732D01*
X123886636Y-78408992D01*
X123886622Y-78671889D01*
X123886622Y-78714040D01*
X123886646Y-78974668D01*
X123886685Y-79213796D01*
X123886708Y-79432360D01*
X123886687Y-79631295D01*
X123886593Y-79811535D01*
X123886395Y-79974015D01*
X123886063Y-80119670D01*
X123885569Y-80249434D01*
X123884883Y-80364243D01*
X123883976Y-80465030D01*
X123882817Y-80552730D01*
X123881378Y-80628279D01*
X123879629Y-80692611D01*
X123877540Y-80746661D01*
X123875083Y-80791363D01*
X123872227Y-80827652D01*
X123868943Y-80856463D01*
X123865202Y-80878731D01*
X123860974Y-80895390D01*
X123856229Y-80907375D01*
X123850939Y-80915621D01*
X123845073Y-80921062D01*
X123838602Y-80924634D01*
X123831497Y-80927270D01*
X123823728Y-80929906D01*
X123815266Y-80933477D01*
X123810908Y-80935145D01*
X123802395Y-80937111D01*
X123789694Y-80938911D01*
X123771885Y-80940555D01*
X123748049Y-80942047D01*
X123717266Y-80943397D01*
X123678617Y-80944611D01*
X123631182Y-80945697D01*
X123574043Y-80946661D01*
X123506279Y-80947511D01*
X123426971Y-80948253D01*
X123335199Y-80948897D01*
X123230044Y-80949447D01*
X123110587Y-80949913D01*
X122975908Y-80950300D01*
X122825088Y-80950616D01*
X122657206Y-80950869D01*
X122471345Y-80951066D01*
X122266583Y-80951213D01*
X122042002Y-80951318D01*
X121796682Y-80951389D01*
X121529704Y-80951432D01*
X121491321Y-80951437D01*
X121225922Y-80951480D01*
X120982050Y-80951525D01*
X120758783Y-80951548D01*
X120555196Y-80951524D01*
X120370367Y-80951430D01*
X120203373Y-80951243D01*
X120053290Y-80950939D01*
X119919196Y-80950494D01*
X119800166Y-80949885D01*
X119695279Y-80949089D01*
X119603610Y-80948080D01*
X119524237Y-80946837D01*
X119456237Y-80945335D01*
X119398686Y-80943551D01*
X119350662Y-80941461D01*
X119311240Y-80939042D01*
X119279499Y-80936270D01*
X119254514Y-80933121D01*
X119235364Y-80929572D01*
X119221123Y-80925598D01*
X119210871Y-80921178D01*
X119203682Y-80916286D01*
X119198635Y-80910900D01*
X119194805Y-80904996D01*
X119191271Y-80898549D01*
X119187108Y-80891537D01*
X119186025Y-80889687D01*
X119183813Y-80884180D01*
X119181786Y-80875868D01*
X119179938Y-80863809D01*
X119178261Y-80847063D01*
X119176745Y-80824687D01*
X119175383Y-80795740D01*
X119174167Y-80759280D01*
X119173089Y-80714367D01*
X119172140Y-80660057D01*
X119171312Y-80595410D01*
X119170597Y-80519484D01*
X119169987Y-80431338D01*
X119169942Y-80422493D01*
X119461378Y-80422493D01*
X119465260Y-80423765D01*
X119488520Y-80425791D01*
X119530874Y-80427626D01*
X119590132Y-80429227D01*
X119664107Y-80430549D01*
X119750610Y-80431548D01*
X119847452Y-80432180D01*
X119952445Y-80432400D01*
X120650651Y-80432400D01*
X121805090Y-80432400D01*
X121804456Y-80356200D01*
X121805574Y-80314160D01*
X121811304Y-80278334D01*
X121823890Y-80240772D01*
X121845568Y-80192577D01*
X121848789Y-80185897D01*
X121874188Y-80136359D01*
X121900996Y-80088369D01*
X121923917Y-80051466D01*
X121928485Y-80044834D01*
X121950516Y-80013593D01*
X121982693Y-79968654D01*
X122023457Y-79912147D01*
X122071245Y-79846204D01*
X122124498Y-79772957D01*
X122181655Y-79694536D01*
X122241155Y-79613072D01*
X122301437Y-79530698D01*
X122360940Y-79449544D01*
X122418105Y-79371742D01*
X122471370Y-79299423D01*
X122519174Y-79234718D01*
X122559957Y-79179759D01*
X122592158Y-79136676D01*
X122614216Y-79107602D01*
X122624571Y-79094667D01*
X122629044Y-79090351D01*
X122633236Y-79088312D01*
X122636643Y-79090926D01*
X122639325Y-79099986D01*
X122641341Y-79117285D01*
X122642748Y-79144614D01*
X122643605Y-79183765D01*
X122643970Y-79236533D01*
X122643903Y-79304707D01*
X122643460Y-79390082D01*
X122642702Y-79494449D01*
X122641685Y-79619600D01*
X122641308Y-79664300D01*
X122640169Y-79785395D01*
X122638972Y-79886688D01*
X122637636Y-79970262D01*
X122636077Y-80038204D01*
X122634215Y-80092599D01*
X122631966Y-80135532D01*
X122629248Y-80169089D01*
X122625979Y-80195355D01*
X122622078Y-80216416D01*
X122617461Y-80234357D01*
X122609192Y-80260770D01*
X122585583Y-80322772D01*
X122559685Y-80375573D01*
X122534535Y-80412645D01*
X122533339Y-80414075D01*
X122531168Y-80418424D01*
X122533328Y-80422026D01*
X122541644Y-80424951D01*
X122557940Y-80427269D01*
X122584041Y-80429051D01*
X122621771Y-80430367D01*
X122672956Y-80431286D01*
X122739420Y-80431878D01*
X122822987Y-80432215D01*
X122925483Y-80432365D01*
X123048732Y-80432400D01*
X123580296Y-80432400D01*
X123541523Y-80374783D01*
X123535432Y-80365893D01*
X123524976Y-80351069D01*
X123515579Y-80337422D01*
X123507183Y-80323765D01*
X123499733Y-80308911D01*
X123493173Y-80291670D01*
X123487446Y-80270855D01*
X123482495Y-80245280D01*
X123478266Y-80213755D01*
X123474701Y-80175093D01*
X123471744Y-80128107D01*
X123469340Y-80071608D01*
X123467431Y-80004409D01*
X123465962Y-79925322D01*
X123464876Y-79833160D01*
X123464118Y-79726734D01*
X123463630Y-79604857D01*
X123463358Y-79466341D01*
X123463243Y-79309999D01*
X123463231Y-79134642D01*
X123463265Y-78939082D01*
X123463289Y-78722133D01*
X123463280Y-78599513D01*
X123463243Y-78394447D01*
X123463227Y-78210116D01*
X123463288Y-78045334D01*
X123463484Y-77898916D01*
X123463870Y-77769674D01*
X123464505Y-77656422D01*
X123465444Y-77557975D01*
X123466745Y-77473144D01*
X123468464Y-77400744D01*
X123470659Y-77339589D01*
X123473385Y-77288492D01*
X123476701Y-77246267D01*
X123480662Y-77211727D01*
X123485325Y-77183686D01*
X123490747Y-77160958D01*
X123496986Y-77142356D01*
X123504097Y-77126693D01*
X123512138Y-77112784D01*
X123521166Y-77099441D01*
X123531236Y-77085479D01*
X123542407Y-77069711D01*
X123582197Y-77011867D01*
X122522314Y-77011867D01*
X122560311Y-77074966D01*
X122574993Y-77100005D01*
X122589531Y-77127586D01*
X122601627Y-77155700D01*
X122611532Y-77186551D01*
X122619494Y-77222344D01*
X122625761Y-77265283D01*
X122630582Y-77317574D01*
X122634206Y-77381419D01*
X122636881Y-77459025D01*
X122638857Y-77552594D01*
X122640382Y-77664333D01*
X122641704Y-77796445D01*
X122642613Y-77916434D01*
X122643020Y-78033063D01*
X122642767Y-78128531D01*
X122641857Y-78202556D01*
X122640293Y-78254855D01*
X122638079Y-78285149D01*
X122635220Y-78293156D01*
X122632161Y-78289858D01*
X122614006Y-78268408D01*
X122584275Y-78231889D01*
X122544639Y-78182442D01*
X122496771Y-78122207D01*
X122442343Y-78053327D01*
X122383027Y-77977943D01*
X122320495Y-77898196D01*
X122256421Y-77816228D01*
X122192475Y-77734180D01*
X122130331Y-77654194D01*
X122071661Y-77578411D01*
X122018137Y-77508973D01*
X121971430Y-77448021D01*
X121933214Y-77397696D01*
X121905161Y-77360140D01*
X121888943Y-77337495D01*
X121843635Y-77265212D01*
X121803661Y-77185463D01*
X121782130Y-77117188D01*
X121778827Y-77059844D01*
X121784116Y-77011867D01*
X120652356Y-77012117D01*
X120691867Y-77042722D01*
X120701248Y-77050089D01*
X120764183Y-77104438D01*
X120832997Y-77172259D01*
X120909596Y-77255516D01*
X120995888Y-77356178D01*
X121013052Y-77376847D01*
X121053833Y-77426409D01*
X121103588Y-77487326D01*
X121160955Y-77557898D01*
X121224569Y-77636424D01*
X121293069Y-77721204D01*
X121365090Y-77810537D01*
X121439270Y-77902722D01*
X121454517Y-77921702D01*
X121514246Y-77996060D01*
X121588653Y-78088848D01*
X121661131Y-78179388D01*
X121730314Y-78265978D01*
X121794841Y-78346918D01*
X121853347Y-78420506D01*
X121904470Y-78485044D01*
X121946847Y-78538829D01*
X121979115Y-78580162D01*
X121999910Y-78607342D01*
X122007869Y-78618668D01*
X122006111Y-78622771D01*
X121993230Y-78643334D01*
X121968885Y-78679561D01*
X121934247Y-78729824D01*
X121890486Y-78792492D01*
X121838775Y-78865936D01*
X121780284Y-78948527D01*
X121716184Y-79038636D01*
X121647646Y-79134631D01*
X121575843Y-79234885D01*
X121501944Y-79337768D01*
X121427121Y-79441650D01*
X121352545Y-79544901D01*
X121279387Y-79645892D01*
X121208819Y-79742994D01*
X121142011Y-79834577D01*
X121080135Y-79919011D01*
X121024361Y-79994667D01*
X120975862Y-80059916D01*
X120935807Y-80113128D01*
X120905369Y-80152673D01*
X120884944Y-80178026D01*
X120838899Y-80232295D01*
X120788612Y-80288775D01*
X120741815Y-80338669D01*
X120650651Y-80432400D01*
X119952445Y-80432400D01*
X120021356Y-80432349D01*
X120119607Y-80432091D01*
X120209030Y-80431637D01*
X120287333Y-80431010D01*
X120352223Y-80430235D01*
X120401411Y-80429335D01*
X120432604Y-80428334D01*
X120443511Y-80427257D01*
X120442322Y-80424037D01*
X120432176Y-80406452D01*
X120415040Y-80380158D01*
X120406540Y-80367691D01*
X120397329Y-80353622D01*
X120389233Y-80339351D01*
X120382185Y-80323479D01*
X120376117Y-80304609D01*
X120370961Y-80281341D01*
X120366651Y-80252278D01*
X120363119Y-80216021D01*
X120360297Y-80171170D01*
X120358118Y-80116328D01*
X120356514Y-80050097D01*
X120355419Y-79971077D01*
X120354765Y-79877871D01*
X120354484Y-79769079D01*
X120354509Y-79643303D01*
X120354772Y-79499145D01*
X120355206Y-79335207D01*
X120355745Y-79150089D01*
X120356279Y-78971232D01*
X120356805Y-78812374D01*
X120357350Y-78673316D01*
X120357945Y-78552665D01*
X120358619Y-78449028D01*
X120359403Y-78361011D01*
X120360326Y-78287223D01*
X120361419Y-78226269D01*
X120362712Y-78176757D01*
X120364235Y-78137293D01*
X120366019Y-78106484D01*
X120368092Y-78082938D01*
X120370486Y-78065260D01*
X120373230Y-78052059D01*
X120376356Y-78041940D01*
X120379892Y-78033511D01*
X120383791Y-78025375D01*
X120403438Y-77988544D01*
X120422225Y-77958391D01*
X120423272Y-77956908D01*
X120437602Y-77934659D01*
X120443511Y-77921702D01*
X120442504Y-77921249D01*
X120425305Y-77919803D01*
X120388656Y-77918480D01*
X120334962Y-77917316D01*
X120266630Y-77916347D01*
X120186064Y-77915611D01*
X120095670Y-77915142D01*
X119997853Y-77914978D01*
X119552195Y-77914978D01*
X119549120Y-79091845D01*
X119546045Y-80268711D01*
X119519407Y-80327622D01*
X119507485Y-80352183D01*
X119490246Y-80382434D01*
X119477074Y-80399560D01*
X119469076Y-80407591D01*
X119461378Y-80422493D01*
X119169942Y-80422493D01*
X119169474Y-80330029D01*
X119169050Y-80214617D01*
X119168706Y-80084160D01*
X119168434Y-79937716D01*
X119168227Y-79774344D01*
X119168076Y-79593101D01*
X119167972Y-79393048D01*
X119167908Y-79173241D01*
X119167876Y-78932739D01*
X119167867Y-78670602D01*
X119167867Y-76479031D01*
X119206249Y-76440649D01*
X119233355Y-76416911D01*
X119260253Y-76405111D01*
X119296560Y-76402267D01*
X119348489Y-76402267D01*
X119348489Y-76490206D01*
X119350427Y-76540102D01*
X119369199Y-76650523D01*
X119406217Y-76751987D01*
X119459369Y-76843152D01*
X119526546Y-76922673D01*
X119605638Y-76989205D01*
X119694534Y-77041406D01*
X119791125Y-77077930D01*
X119893300Y-77097434D01*
X119998950Y-77098573D01*
X120105964Y-77080005D01*
X120212232Y-77040384D01*
X120309219Y-76982516D01*
X120394293Y-76907684D01*
X120463015Y-76819615D01*
X120513918Y-76720616D01*
X120545535Y-76612993D01*
X120556400Y-76499054D01*
X120556400Y-76402267D01*
X122176753Y-76402267D01*
X122387897Y-76402280D01*
X122592020Y-76402330D01*
X122775686Y-76402430D01*
X122939991Y-76402592D01*
X123086029Y-76402829D01*
X123214894Y-76403153D01*
X123327683Y-76403575D01*
X123425488Y-76404109D01*
X123509404Y-76404767D01*
X123580527Y-76405561D01*
X123639950Y-76406504D01*
X123688768Y-76407608D01*
X123728077Y-76408884D01*
X123758969Y-76410347D01*
X123782541Y-76412007D01*
X123799886Y-76413878D01*
X123812099Y-76415972D01*
X123820275Y-76418300D01*
X123825508Y-76420876D01*
X123831504Y-76424445D01*
X123838279Y-76427978D01*
X123844478Y-76431488D01*
X123850126Y-76435918D01*
X123855247Y-76442208D01*
X123859869Y-76451301D01*
X123864015Y-76464139D01*
X123867713Y-76481662D01*
X123870987Y-76504813D01*
X123873863Y-76534534D01*
X123876367Y-76571765D01*
X123878524Y-76617449D01*
X123880360Y-76672527D01*
X123881900Y-76737941D01*
X123883170Y-76814633D01*
X123884195Y-76903544D01*
X123885001Y-77005617D01*
X123885034Y-77011867D01*
X123885614Y-77121792D01*
G37*
%TD*%
M02*
