%TF.GenerationSoftware,KiCad,Pcbnew,8.0.1*%
%TF.CreationDate,2024-04-20T18:07:58+02:00*%
%TF.ProjectId,proto_board_V3,70726f74-6f5f-4626-9f61-72645f56332e,rev?*%
%TF.SameCoordinates,Original*%
%TF.FileFunction,Drillmap*%
%TF.FilePolarity,Positive*%
%FSLAX45Y45*%
G04 Gerber Fmt 4.5, Leading zero omitted, Abs format (unit mm)*
G04 Created by KiCad (PCBNEW 8.0.1) date 2024-04-20 18:07:58*
%MOMM*%
%LPD*%
G01*
G04 APERTURE LIST*
%ADD10C,0.050000*%
%ADD11C,0.200000*%
G04 APERTURE END LIST*
D10*
X12500000Y-10979000D02*
X12499754Y-4746246D01*
X4647246Y-11081754D02*
X12395000Y-11084000D01*
X4542246Y-4749246D02*
X4542246Y-10976754D01*
X12394754Y-4641246D02*
X4647246Y-4644246D01*
X12394754Y-4641246D02*
G75*
G02*
X12499754Y-4746246I0J-105000D01*
G01*
X4647246Y-11081754D02*
G75*
G02*
X4542246Y-10976754I0J105000D01*
G01*
X4542246Y-4749246D02*
G75*
G02*
X4647246Y-4644246I105000J0D01*
G01*
X12500000Y-10979000D02*
G75*
G02*
X12395000Y-11084000I-105000J0D01*
G01*
D11*
X4800523Y-11397984D02*
X4800523Y-11197984D01*
X4800523Y-11197984D02*
X4848142Y-11197984D01*
X4848142Y-11197984D02*
X4876714Y-11207508D01*
X4876714Y-11207508D02*
X4895761Y-11226555D01*
X4895761Y-11226555D02*
X4905285Y-11245603D01*
X4905285Y-11245603D02*
X4914809Y-11283698D01*
X4914809Y-11283698D02*
X4914809Y-11312269D01*
X4914809Y-11312269D02*
X4905285Y-11350365D01*
X4905285Y-11350365D02*
X4895761Y-11369412D01*
X4895761Y-11369412D02*
X4876714Y-11388460D01*
X4876714Y-11388460D02*
X4848142Y-11397984D01*
X4848142Y-11397984D02*
X4800523Y-11397984D01*
X5000523Y-11397984D02*
X5000523Y-11264650D01*
X5000523Y-11302746D02*
X5010047Y-11283698D01*
X5010047Y-11283698D02*
X5019571Y-11274174D01*
X5019571Y-11274174D02*
X5038618Y-11264650D01*
X5038618Y-11264650D02*
X5057666Y-11264650D01*
X5124333Y-11397984D02*
X5124333Y-11264650D01*
X5124333Y-11197984D02*
X5114809Y-11207508D01*
X5114809Y-11207508D02*
X5124333Y-11217031D01*
X5124333Y-11217031D02*
X5133856Y-11207508D01*
X5133856Y-11207508D02*
X5124333Y-11197984D01*
X5124333Y-11197984D02*
X5124333Y-11217031D01*
X5248142Y-11397984D02*
X5229094Y-11388460D01*
X5229094Y-11388460D02*
X5219571Y-11369412D01*
X5219571Y-11369412D02*
X5219571Y-11197984D01*
X5352904Y-11397984D02*
X5333856Y-11388460D01*
X5333856Y-11388460D02*
X5324333Y-11369412D01*
X5324333Y-11369412D02*
X5324333Y-11197984D01*
X5581475Y-11397984D02*
X5581475Y-11197984D01*
X5581475Y-11197984D02*
X5648142Y-11340841D01*
X5648142Y-11340841D02*
X5714809Y-11197984D01*
X5714809Y-11197984D02*
X5714809Y-11397984D01*
X5895761Y-11397984D02*
X5895761Y-11293222D01*
X5895761Y-11293222D02*
X5886237Y-11274174D01*
X5886237Y-11274174D02*
X5867190Y-11264650D01*
X5867190Y-11264650D02*
X5829094Y-11264650D01*
X5829094Y-11264650D02*
X5810047Y-11274174D01*
X5895761Y-11388460D02*
X5876713Y-11397984D01*
X5876713Y-11397984D02*
X5829094Y-11397984D01*
X5829094Y-11397984D02*
X5810047Y-11388460D01*
X5810047Y-11388460D02*
X5800523Y-11369412D01*
X5800523Y-11369412D02*
X5800523Y-11350365D01*
X5800523Y-11350365D02*
X5810047Y-11331317D01*
X5810047Y-11331317D02*
X5829094Y-11321793D01*
X5829094Y-11321793D02*
X5876713Y-11321793D01*
X5876713Y-11321793D02*
X5895761Y-11312269D01*
X5990999Y-11264650D02*
X5990999Y-11464650D01*
X5990999Y-11274174D02*
X6010047Y-11264650D01*
X6010047Y-11264650D02*
X6048142Y-11264650D01*
X6048142Y-11264650D02*
X6067190Y-11274174D01*
X6067190Y-11274174D02*
X6076713Y-11283698D01*
X6076713Y-11283698D02*
X6086237Y-11302746D01*
X6086237Y-11302746D02*
X6086237Y-11359888D01*
X6086237Y-11359888D02*
X6076713Y-11378936D01*
X6076713Y-11378936D02*
X6067190Y-11388460D01*
X6067190Y-11388460D02*
X6048142Y-11397984D01*
X6048142Y-11397984D02*
X6010047Y-11397984D01*
X6010047Y-11397984D02*
X5990999Y-11388460D01*
X6171952Y-11378936D02*
X6181475Y-11388460D01*
X6181475Y-11388460D02*
X6171952Y-11397984D01*
X6171952Y-11397984D02*
X6162428Y-11388460D01*
X6162428Y-11388460D02*
X6171952Y-11378936D01*
X6171952Y-11378936D02*
X6171952Y-11397984D01*
X6171952Y-11274174D02*
X6181475Y-11283698D01*
X6181475Y-11283698D02*
X6171952Y-11293222D01*
X6171952Y-11293222D02*
X6162428Y-11283698D01*
X6162428Y-11283698D02*
X6171952Y-11274174D01*
X6171952Y-11274174D02*
X6171952Y-11293222D01*
M02*
