M48
; DRILL file {KiCad 8.0.1} date 2024-04-20T18:07:58+0200
; FORMAT={-:-/ absolute / inch / decimal}
; #@! TF.CreationDate,2024-04-20T18:07:58+02:00
; #@! TF.GenerationSoftware,Kicad,Pcbnew,8.0.1
; #@! TF.FileFunction,Plated,1,2,PTH
FMAT,2
INCH
; #@! TA.AperFunction,Plated,PTH,ComponentDrill
T1C0.0394
%
G90
G05
T1
X1.9031Y-1.9484
X1.9031Y-2.0484
X1.9031Y-2.2484
X1.9031Y-2.3484
X1.9031Y-2.4484
X1.9031Y-2.5484
X1.9031Y-2.6484
X1.9031Y-2.7484
X1.9031Y-2.8484
X1.9031Y-2.9484
X1.9035Y-3.2484
X1.9035Y-3.3484
X1.9035Y-3.4484
X1.9035Y-3.5484
X1.9035Y-3.6484
X1.9035Y-3.7484
X1.9035Y-3.8484
X1.9035Y-3.9484
X1.9035Y-4.1484
X1.9035Y-4.2484
X1.9055Y-1.9465
X1.9055Y-2.0465
X1.9055Y-2.2465
X1.9055Y-2.3465
X1.9055Y-2.4465
X1.9055Y-2.5465
X1.9055Y-2.6465
X1.9055Y-2.7465
X1.9055Y-2.8465
X1.9055Y-2.9465
X1.9059Y-3.2465
X1.9059Y-3.3465
X1.9059Y-3.4465
X1.9059Y-3.5465
X1.9059Y-3.6465
X1.9059Y-3.7465
X1.9059Y-3.8465
X1.9059Y-3.9465
X1.9059Y-4.1465
X1.9059Y-4.2465
X2.0031Y-1.9484
X2.0031Y-2.0484
X2.0031Y-2.2484
X2.0031Y-2.3484
X2.0031Y-2.4484
X2.0031Y-2.5484
X2.0031Y-2.6484
X2.0031Y-2.7484
X2.0031Y-2.8484
X2.0031Y-2.9484
X2.0035Y-3.2484
X2.0035Y-3.3484
X2.0035Y-3.4484
X2.0035Y-3.5484
X2.0035Y-3.6484
X2.0035Y-3.7484
X2.0035Y-3.8484
X2.0035Y-3.9484
X2.0035Y-4.1484
X2.0035Y-4.2484
X2.0055Y-1.9465
X2.0055Y-2.0465
X2.0055Y-2.2465
X2.0055Y-2.3465
X2.0055Y-2.4465
X2.0055Y-2.5465
X2.0055Y-2.6465
X2.0055Y-2.7465
X2.0055Y-2.8465
X2.0055Y-2.9465
X2.0059Y-3.2465
X2.0059Y-3.3465
X2.0059Y-3.4465
X2.0059Y-3.5465
X2.0059Y-3.6465
X2.0059Y-3.7465
X2.0059Y-3.8465
X2.0059Y-3.9465
X2.0059Y-4.1465
X2.0059Y-4.2465
X2.1031Y-1.9484
X2.1031Y-2.0484
X2.1031Y-2.2484
X2.1031Y-2.3484
X2.1031Y-2.4484
X2.1031Y-2.5484
X2.1031Y-2.6484
X2.1031Y-2.7484
X2.1031Y-2.8484
X2.1031Y-2.9484
X2.1035Y-3.2484
X2.1035Y-3.3484
X2.1035Y-3.4484
X2.1035Y-3.5484
X2.1035Y-3.6484
X2.1035Y-3.7484
X2.1035Y-3.8484
X2.1035Y-3.9484
X2.1035Y-4.1484
X2.1035Y-4.2484
X2.1055Y-1.9465
X2.1055Y-2.0465
X2.1055Y-2.2465
X2.1055Y-2.3465
X2.1055Y-2.4465
X2.1055Y-2.5465
X2.1055Y-2.6465
X2.1055Y-2.7465
X2.1055Y-2.8465
X2.1055Y-2.9465
X2.1059Y-3.2465
X2.1059Y-3.3465
X2.1059Y-3.4465
X2.1059Y-3.5465
X2.1059Y-3.6465
X2.1059Y-3.7465
X2.1059Y-3.8465
X2.1059Y-3.9465
X2.1059Y-4.1465
X2.1059Y-4.2465
X2.2031Y-1.9484
X2.2031Y-2.0484
X2.2031Y-2.2484
X2.2031Y-2.3484
X2.2031Y-2.4484
X2.2031Y-2.5484
X2.2031Y-2.6484
X2.2031Y-2.7484
X2.2031Y-2.8484
X2.2031Y-2.9484
X2.2035Y-3.2484
X2.2035Y-3.3484
X2.2035Y-3.4484
X2.2035Y-3.5484
X2.2035Y-3.6484
X2.2035Y-3.7484
X2.2035Y-3.8484
X2.2035Y-3.9484
X2.2035Y-4.1484
X2.2035Y-4.2484
X2.2055Y-1.9465
X2.2055Y-2.0465
X2.2055Y-2.2465
X2.2055Y-2.3465
X2.2055Y-2.4465
X2.2055Y-2.5465
X2.2055Y-2.6465
X2.2055Y-2.7465
X2.2055Y-2.8465
X2.2055Y-2.9465
X2.2059Y-3.2465
X2.2059Y-3.3465
X2.2059Y-3.4465
X2.2059Y-3.5465
X2.2059Y-3.6465
X2.2059Y-3.7465
X2.2059Y-3.8465
X2.2059Y-3.9465
X2.2059Y-4.1465
X2.2059Y-4.2465
X2.3031Y-1.9484
X2.3031Y-2.0484
X2.3031Y-2.2484
X2.3031Y-2.3484
X2.3031Y-2.4484
X2.3031Y-2.5484
X2.3031Y-2.6484
X2.3031Y-2.7484
X2.3031Y-2.8484
X2.3031Y-2.9484
X2.3035Y-3.2484
X2.3035Y-3.3484
X2.3035Y-3.4484
X2.3035Y-3.5484
X2.3035Y-3.6484
X2.3035Y-3.7484
X2.3035Y-3.8484
X2.3035Y-3.9484
X2.3035Y-4.1484
X2.3035Y-4.2484
X2.3055Y-1.9465
X2.3055Y-2.0465
X2.3055Y-2.2465
X2.3055Y-2.3465
X2.3055Y-2.4465
X2.3055Y-2.5465
X2.3055Y-2.6465
X2.3055Y-2.7465
X2.3055Y-2.8465
X2.3055Y-2.9465
X2.3059Y-3.2465
X2.3059Y-3.3465
X2.3059Y-3.4465
X2.3059Y-3.5465
X2.3059Y-3.6465
X2.3059Y-3.7465
X2.3059Y-3.8465
X2.3059Y-3.9465
X2.3059Y-4.1465
X2.3059Y-4.2465
X2.4031Y-1.9484
X2.4031Y-2.0484
X2.4031Y-2.2484
X2.4031Y-2.3484
X2.4031Y-2.4484
X2.4031Y-2.5484
X2.4031Y-2.6484
X2.4031Y-2.7484
X2.4031Y-2.8484
X2.4031Y-2.9484
X2.4035Y-3.2484
X2.4035Y-3.3484
X2.4035Y-3.4484
X2.4035Y-3.5484
X2.4035Y-3.6484
X2.4035Y-3.7484
X2.4035Y-3.8484
X2.4035Y-3.9484
X2.4035Y-4.1484
X2.4035Y-4.2484
X2.4055Y-1.9465
X2.4055Y-2.0465
X2.4055Y-2.2465
X2.4055Y-2.3465
X2.4055Y-2.4465
X2.4055Y-2.5465
X2.4055Y-2.6465
X2.4055Y-2.7465
X2.4055Y-2.8465
X2.4055Y-2.9465
X2.4059Y-3.2465
X2.4059Y-3.3465
X2.4059Y-3.4465
X2.4059Y-3.5465
X2.4059Y-3.6465
X2.4059Y-3.7465
X2.4059Y-3.8465
X2.4059Y-3.9465
X2.4059Y-4.1465
X2.4059Y-4.2465
X2.5031Y-1.9484
X2.5031Y-2.0484
X2.5031Y-2.2484
X2.5031Y-2.3484
X2.5031Y-2.4484
X2.5031Y-2.5484
X2.5031Y-2.6484
X2.5031Y-2.7484
X2.5031Y-2.8484
X2.5031Y-2.9484
X2.5035Y-3.2484
X2.5035Y-3.3484
X2.5035Y-3.4484
X2.5035Y-3.5484
X2.5035Y-3.6484
X2.5035Y-3.7484
X2.5035Y-3.8484
X2.5035Y-3.9484
X2.5035Y-4.1484
X2.5035Y-4.2484
X2.5055Y-1.9465
X2.5055Y-2.0465
X2.5055Y-2.2465
X2.5055Y-2.3465
X2.5055Y-2.4465
X2.5055Y-2.5465
X2.5055Y-2.6465
X2.5055Y-2.7465
X2.5055Y-2.8465
X2.5055Y-2.9465
X2.5059Y-3.2465
X2.5059Y-3.3465
X2.5059Y-3.4465
X2.5059Y-3.5465
X2.5059Y-3.6465
X2.5059Y-3.7465
X2.5059Y-3.8465
X2.5059Y-3.9465
X2.5059Y-4.1465
X2.5059Y-4.2465
X2.6031Y-1.9484
X2.6031Y-2.0484
X2.6031Y-2.2484
X2.6031Y-2.3484
X2.6031Y-2.4484
X2.6031Y-2.5484
X2.6031Y-2.6484
X2.6031Y-2.7484
X2.6031Y-2.8484
X2.6031Y-2.9484
X2.6035Y-3.2484
X2.6035Y-3.3484
X2.6035Y-3.4484
X2.6035Y-3.5484
X2.6035Y-3.6484
X2.6035Y-3.7484
X2.6035Y-3.8484
X2.6035Y-3.9484
X2.6035Y-4.1484
X2.6035Y-4.2484
X2.6055Y-1.9465
X2.6055Y-2.0465
X2.6055Y-2.2465
X2.6055Y-2.3465
X2.6055Y-2.4465
X2.6055Y-2.5465
X2.6055Y-2.6465
X2.6055Y-2.7465
X2.6055Y-2.8465
X2.6055Y-2.9465
X2.6059Y-3.2465
X2.6059Y-3.3465
X2.6059Y-3.4465
X2.6059Y-3.5465
X2.6059Y-3.6465
X2.6059Y-3.7465
X2.6059Y-3.8465
X2.6059Y-3.9465
X2.6059Y-4.1465
X2.6059Y-4.2465
X2.7031Y-1.9484
X2.7031Y-2.0484
X2.7031Y-2.2484
X2.7031Y-2.3484
X2.7031Y-2.4484
X2.7031Y-2.5484
X2.7031Y-2.6484
X2.7031Y-2.7484
X2.7031Y-2.8484
X2.7031Y-2.9484
X2.7035Y-3.2484
X2.7035Y-3.3484
X2.7035Y-3.4484
X2.7035Y-3.5484
X2.7035Y-3.6484
X2.7035Y-3.7484
X2.7035Y-3.8484
X2.7035Y-3.9484
X2.7035Y-4.1484
X2.7035Y-4.2484
X2.7055Y-1.9465
X2.7055Y-2.0465
X2.7055Y-2.2465
X2.7055Y-2.3465
X2.7055Y-2.4465
X2.7055Y-2.5465
X2.7055Y-2.6465
X2.7055Y-2.7465
X2.7055Y-2.8465
X2.7055Y-2.9465
X2.7059Y-3.2465
X2.7059Y-3.3465
X2.7059Y-3.4465
X2.7059Y-3.5465
X2.7059Y-3.6465
X2.7059Y-3.7465
X2.7059Y-3.8465
X2.7059Y-3.9465
X2.7059Y-4.1465
X2.7059Y-4.2465
X2.8031Y-1.9484
X2.8031Y-2.0484
X2.8031Y-2.2484
X2.8031Y-2.3484
X2.8031Y-2.4484
X2.8031Y-2.5484
X2.8031Y-2.6484
X2.8031Y-2.7484
X2.8031Y-2.8484
X2.8031Y-2.9484
X2.8035Y-3.2484
X2.8035Y-3.3484
X2.8035Y-3.4484
X2.8035Y-3.5484
X2.8035Y-3.6484
X2.8035Y-3.7484
X2.8035Y-3.8484
X2.8035Y-3.9484
X2.8035Y-4.1484
X2.8035Y-4.2484
X2.8055Y-1.9465
X2.8055Y-2.0465
X2.8055Y-2.2465
X2.8055Y-2.3465
X2.8055Y-2.4465
X2.8055Y-2.5465
X2.8055Y-2.6465
X2.8055Y-2.7465
X2.8055Y-2.8465
X2.8055Y-2.9465
X2.8059Y-3.2465
X2.8059Y-3.3465
X2.8059Y-3.4465
X2.8059Y-3.5465
X2.8059Y-3.6465
X2.8059Y-3.7465
X2.8059Y-3.8465
X2.8059Y-3.9465
X2.8059Y-4.1465
X2.8059Y-4.2465
X2.9031Y-1.9484
X2.9031Y-2.0484
X2.9031Y-2.2484
X2.9031Y-2.3484
X2.9031Y-2.4484
X2.9031Y-2.5484
X2.9031Y-2.6484
X2.9031Y-2.7484
X2.9031Y-2.8484
X2.9031Y-2.9484
X2.9035Y-3.2484
X2.9035Y-3.3484
X2.9035Y-3.4484
X2.9035Y-3.5484
X2.9035Y-3.6484
X2.9035Y-3.7484
X2.9035Y-3.8484
X2.9035Y-3.9484
X2.9035Y-4.1484
X2.9035Y-4.2484
X2.9055Y-1.9465
X2.9055Y-2.0465
X2.9055Y-2.2465
X2.9055Y-2.3465
X2.9055Y-2.4465
X2.9055Y-2.5465
X2.9055Y-2.6465
X2.9055Y-2.7465
X2.9055Y-2.8465
X2.9055Y-2.9465
X2.9059Y-3.2465
X2.9059Y-3.3465
X2.9059Y-3.4465
X2.9059Y-3.5465
X2.9059Y-3.6465
X2.9059Y-3.7465
X2.9059Y-3.8465
X2.9059Y-3.9465
X2.9059Y-4.1465
X2.9059Y-4.2465
X3.0031Y-1.9484
X3.0031Y-2.0484
X3.0031Y-2.2484
X3.0031Y-2.3484
X3.0031Y-2.4484
X3.0031Y-2.5484
X3.0031Y-2.6484
X3.0031Y-2.7484
X3.0031Y-2.8484
X3.0031Y-2.9484
X3.0035Y-3.2484
X3.0035Y-3.3484
X3.0035Y-3.4484
X3.0035Y-3.5484
X3.0035Y-3.6484
X3.0035Y-3.7484
X3.0035Y-3.8484
X3.0035Y-3.9484
X3.0035Y-4.1484
X3.0035Y-4.2484
X3.0055Y-1.9465
X3.0055Y-2.0465
X3.0055Y-2.2465
X3.0055Y-2.3465
X3.0055Y-2.4465
X3.0055Y-2.5465
X3.0055Y-2.6465
X3.0055Y-2.7465
X3.0055Y-2.8465
X3.0055Y-2.9465
X3.0059Y-3.2465
X3.0059Y-3.3465
X3.0059Y-3.4465
X3.0059Y-3.5465
X3.0059Y-3.6465
X3.0059Y-3.7465
X3.0059Y-3.8465
X3.0059Y-3.9465
X3.0059Y-4.1465
X3.0059Y-4.2465
X3.1031Y-1.9484
X3.1031Y-2.0484
X3.1031Y-2.2484
X3.1031Y-2.3484
X3.1031Y-2.4484
X3.1031Y-2.5484
X3.1031Y-2.6484
X3.1031Y-2.7484
X3.1031Y-2.8484
X3.1031Y-2.9484
X3.1035Y-3.2484
X3.1035Y-3.3484
X3.1035Y-3.4484
X3.1035Y-3.5484
X3.1035Y-3.6484
X3.1035Y-3.7484
X3.1035Y-3.8484
X3.1035Y-3.9484
X3.1035Y-4.1484
X3.1035Y-4.2484
X3.1055Y-1.9465
X3.1055Y-2.0465
X3.1055Y-2.2465
X3.1055Y-2.3465
X3.1055Y-2.4465
X3.1055Y-2.5465
X3.1055Y-2.6465
X3.1055Y-2.7465
X3.1055Y-2.8465
X3.1055Y-2.9465
X3.1059Y-3.2465
X3.1059Y-3.3465
X3.1059Y-3.4465
X3.1059Y-3.5465
X3.1059Y-3.6465
X3.1059Y-3.7465
X3.1059Y-3.8465
X3.1059Y-3.9465
X3.1059Y-4.1465
X3.1059Y-4.2465
X3.2031Y-1.9484
X3.2031Y-2.0484
X3.2031Y-2.2484
X3.2031Y-2.3484
X3.2031Y-2.4484
X3.2031Y-2.5484
X3.2031Y-2.6484
X3.2031Y-2.7484
X3.2031Y-2.8484
X3.2031Y-2.9484
X3.2035Y-3.2484
X3.2035Y-3.3484
X3.2035Y-3.4484
X3.2035Y-3.5484
X3.2035Y-3.6484
X3.2035Y-3.7484
X3.2035Y-3.8484
X3.2035Y-3.9484
X3.2035Y-4.1484
X3.2035Y-4.2484
X3.2055Y-1.9465
X3.2055Y-2.0465
X3.2055Y-2.2465
X3.2055Y-2.3465
X3.2055Y-2.4465
X3.2055Y-2.5465
X3.2055Y-2.6465
X3.2055Y-2.7465
X3.2055Y-2.8465
X3.2055Y-2.9465
X3.2059Y-3.2465
X3.2059Y-3.3465
X3.2059Y-3.4465
X3.2059Y-3.5465
X3.2059Y-3.6465
X3.2059Y-3.7465
X3.2059Y-3.8465
X3.2059Y-3.9465
X3.2059Y-4.1465
X3.2059Y-4.2465
X3.3031Y-1.9484
X3.3031Y-2.0484
X3.3031Y-2.2484
X3.3031Y-2.3484
X3.3031Y-2.4484
X3.3031Y-2.5484
X3.3031Y-2.6484
X3.3031Y-2.7484
X3.3031Y-2.8484
X3.3031Y-2.9484
X3.3033Y-2.8482
X3.3035Y-3.2484
X3.3035Y-3.3484
X3.3035Y-3.4484
X3.3035Y-3.5484
X3.3035Y-3.6484
X3.3035Y-3.7484
X3.3035Y-3.8484
X3.3035Y-3.9484
X3.3035Y-4.1484
X3.3035Y-4.2484
X3.3055Y-1.9465
X3.3055Y-2.0465
X3.3055Y-2.2465
X3.3055Y-2.3465
X3.3055Y-2.4465
X3.3055Y-2.5465
X3.3055Y-2.6465
X3.3055Y-2.7465
X3.3055Y-2.8465
X3.3055Y-2.9465
X3.3059Y-3.2465
X3.3059Y-3.3465
X3.3059Y-3.4465
X3.3059Y-3.5465
X3.3059Y-3.6465
X3.3059Y-3.7465
X3.3059Y-3.8465
X3.3059Y-3.9465
X3.3059Y-4.1465
X3.3059Y-4.2465
X3.4031Y-1.9484
X3.4031Y-2.0484
X3.4031Y-2.2484
X3.4031Y-2.3484
X3.4031Y-2.4484
X3.4031Y-2.5484
X3.4031Y-2.6484
X3.4031Y-2.7484
X3.4031Y-2.8484
X3.4031Y-2.9484
X3.4035Y-3.2484
X3.4035Y-3.3484
X3.4035Y-3.4484
X3.4035Y-3.5484
X3.4035Y-3.6484
X3.4035Y-3.7484
X3.4035Y-3.8484
X3.4035Y-3.9484
X3.4035Y-4.1484
X3.4035Y-4.2484
X3.4055Y-1.9465
X3.4055Y-2.0465
X3.4055Y-2.2465
X3.4055Y-2.3465
X3.4055Y-2.4465
X3.4055Y-2.5465
X3.4055Y-2.6465
X3.4055Y-2.7465
X3.4055Y-2.8465
X3.4055Y-2.9465
X3.4057Y-3.3467
X3.4059Y-3.2465
X3.4059Y-3.3465
X3.4059Y-3.4465
X3.4059Y-3.5465
X3.4059Y-3.6465
X3.4059Y-3.7465
X3.4059Y-3.8465
X3.4059Y-3.9465
X3.4059Y-4.1465
X3.4059Y-4.2465
X3.5031Y-1.9484
X3.5031Y-2.0484
X3.5031Y-2.2484
X3.5031Y-2.3484
X3.5031Y-2.4484
X3.5031Y-2.5484
X3.5031Y-2.6484
X3.5031Y-2.7484
X3.5031Y-2.8484
X3.5031Y-2.9484
X3.5035Y-3.2484
X3.5035Y-3.3484
X3.5035Y-3.4484
X3.5035Y-3.5484
X3.5035Y-3.6484
X3.5035Y-3.7484
X3.5035Y-3.8484
X3.5035Y-3.9484
X3.5035Y-4.1484
X3.5035Y-4.2484
X3.5055Y-1.9465
X3.5055Y-2.0465
X3.5055Y-2.2465
X3.5055Y-2.3465
X3.5055Y-2.4465
X3.5055Y-2.5465
X3.5055Y-2.6465
X3.5055Y-2.7465
X3.5055Y-2.8465
X3.5055Y-2.9465
X3.5059Y-3.2465
X3.5059Y-3.3465
X3.5059Y-3.4465
X3.5059Y-3.5465
X3.5059Y-3.6465
X3.5059Y-3.7465
X3.5059Y-3.8465
X3.5059Y-3.9465
X3.5059Y-4.1465
X3.5059Y-4.2465
X3.6031Y-1.9484
X3.6031Y-2.0484
X3.6031Y-2.2484
X3.6031Y-2.3484
X3.6031Y-2.4484
X3.6031Y-2.5484
X3.6031Y-2.6484
X3.6031Y-2.7484
X3.6031Y-2.8484
X3.6031Y-2.9484
X3.6035Y-3.2484
X3.6035Y-3.3484
X3.6035Y-3.4484
X3.6035Y-3.5484
X3.6035Y-3.6484
X3.6035Y-3.7484
X3.6035Y-3.8484
X3.6035Y-3.9484
X3.6035Y-4.1484
X3.6035Y-4.2484
X3.6055Y-1.9465
X3.6055Y-2.0465
X3.6055Y-2.2465
X3.6055Y-2.3465
X3.6055Y-2.4465
X3.6055Y-2.5465
X3.6055Y-2.6465
X3.6055Y-2.7465
X3.6055Y-2.8465
X3.6055Y-2.9465
X3.6059Y-3.2465
X3.6059Y-3.3465
X3.6059Y-3.4465
X3.6059Y-3.5465
X3.6059Y-3.6465
X3.6059Y-3.7465
X3.6059Y-3.8465
X3.6059Y-3.9465
X3.6059Y-4.1465
X3.6059Y-4.2465
X3.7031Y-1.9484
X3.7031Y-2.0484
X3.7031Y-2.2484
X3.7031Y-2.3484
X3.7031Y-2.4484
X3.7031Y-2.5484
X3.7031Y-2.6484
X3.7031Y-2.7484
X3.7031Y-2.8484
X3.7031Y-2.9484
X3.7035Y-3.2484
X3.7035Y-3.3484
X3.7035Y-3.4484
X3.7035Y-3.5484
X3.7035Y-3.6484
X3.7035Y-3.7484
X3.7035Y-3.8484
X3.7035Y-3.9484
X3.7035Y-4.1484
X3.7035Y-4.2484
X3.7055Y-1.9465
X3.7055Y-2.0465
X3.7055Y-2.2465
X3.7055Y-2.3465
X3.7055Y-2.4465
X3.7055Y-2.5465
X3.7055Y-2.6465
X3.7055Y-2.7465
X3.7055Y-2.8465
X3.7055Y-2.9465
X3.7059Y-3.2465
X3.7059Y-3.3465
X3.7059Y-3.4465
X3.7059Y-3.5465
X3.7059Y-3.6465
X3.7059Y-3.7465
X3.7059Y-3.8465
X3.7059Y-3.9465
X3.7059Y-4.1465
X3.7059Y-4.2465
X3.8031Y-1.9484
X3.8031Y-2.0484
X3.8031Y-2.2484
X3.8031Y-2.3484
X3.8031Y-2.4484
X3.8031Y-2.5484
X3.8031Y-2.6484
X3.8031Y-2.7484
X3.8031Y-2.8484
X3.8031Y-2.9484
X3.8035Y-3.2484
X3.8035Y-3.3484
X3.8035Y-3.4484
X3.8035Y-3.5484
X3.8035Y-3.6484
X3.8035Y-3.7484
X3.8035Y-3.8484
X3.8035Y-3.9484
X3.8035Y-4.1484
X3.8035Y-4.2484
X3.8055Y-1.9465
X3.8055Y-2.0465
X3.8055Y-2.2465
X3.8055Y-2.3465
X3.8055Y-2.4465
X3.8055Y-2.5465
X3.8055Y-2.6465
X3.8055Y-2.7465
X3.8055Y-2.8465
X3.8055Y-2.9465
X3.8059Y-3.2465
X3.8059Y-3.3465
X3.8059Y-3.4465
X3.8059Y-3.5465
X3.8059Y-3.6465
X3.8059Y-3.7465
X3.8059Y-3.8465
X3.8059Y-3.9465
X3.8059Y-4.1465
X3.8059Y-4.2465
X3.9031Y-1.9484
X3.9031Y-2.0484
X3.9031Y-2.2484
X3.9031Y-2.3484
X3.9031Y-2.4484
X3.9031Y-2.5484
X3.9031Y-2.6484
X3.9031Y-2.7484
X3.9031Y-2.8484
X3.9031Y-2.9484
X3.9035Y-3.2484
X3.9035Y-3.3484
X3.9035Y-3.4484
X3.9035Y-3.5484
X3.9035Y-3.6484
X3.9035Y-3.7484
X3.9035Y-3.8484
X3.9035Y-3.9484
X3.9035Y-4.1484
X3.9035Y-4.2484
X3.9055Y-1.9465
X3.9055Y-2.0465
X3.9055Y-2.2465
X3.9055Y-2.3465
X3.9055Y-2.4465
X3.9055Y-2.5465
X3.9055Y-2.6465
X3.9055Y-2.7465
X3.9055Y-2.8465
X3.9055Y-2.9465
X3.9059Y-3.2465
X3.9059Y-3.3465
X3.9059Y-3.4465
X3.9059Y-3.5465
X3.9059Y-3.6465
X3.9059Y-3.7465
X3.9059Y-3.8465
X3.9059Y-3.9465
X3.9059Y-4.1465
X3.9059Y-4.2465
X4.0031Y-1.9484
X4.0031Y-2.0484
X4.0031Y-2.2484
X4.0031Y-2.3484
X4.0031Y-2.4484
X4.0031Y-2.5484
X4.0031Y-2.6484
X4.0031Y-2.7484
X4.0031Y-2.8484
X4.0031Y-2.9484
X4.0035Y-3.2484
X4.0035Y-3.3484
X4.0035Y-3.4484
X4.0035Y-3.5484
X4.0035Y-3.6484
X4.0035Y-3.7484
X4.0035Y-3.8484
X4.0035Y-3.9484
X4.0035Y-4.1484
X4.0035Y-4.2484
X4.0055Y-1.9465
X4.0055Y-2.0465
X4.0055Y-2.2465
X4.0055Y-2.3465
X4.0055Y-2.4465
X4.0055Y-2.5465
X4.0055Y-2.6465
X4.0055Y-2.7465
X4.0055Y-2.8465
X4.0055Y-2.9465
X4.0059Y-3.2465
X4.0059Y-3.3465
X4.0059Y-3.4465
X4.0059Y-3.5465
X4.0059Y-3.6465
X4.0059Y-3.7465
X4.0059Y-3.8465
X4.0059Y-3.9465
X4.0059Y-4.1465
X4.0059Y-4.2465
X4.1031Y-1.9484
X4.1031Y-2.0484
X4.1031Y-2.2484
X4.1031Y-2.3484
X4.1031Y-2.4484
X4.1031Y-2.5484
X4.1031Y-2.6484
X4.1031Y-2.7484
X4.1031Y-2.8484
X4.1031Y-2.9484
X4.1035Y-3.2484
X4.1035Y-3.3484
X4.1035Y-3.4484
X4.1035Y-3.5484
X4.1035Y-3.6484
X4.1035Y-3.7484
X4.1035Y-3.8484
X4.1035Y-3.9484
X4.1035Y-4.1484
X4.1035Y-4.2484
X4.1055Y-1.9465
X4.1055Y-2.0465
X4.1055Y-2.2465
X4.1055Y-2.3465
X4.1055Y-2.4465
X4.1055Y-2.5465
X4.1055Y-2.6465
X4.1055Y-2.7465
X4.1055Y-2.8465
X4.1055Y-2.9465
X4.1059Y-3.2465
X4.1059Y-3.3465
X4.1059Y-3.4465
X4.1059Y-3.5465
X4.1059Y-3.6465
X4.1059Y-3.7465
X4.1059Y-3.8465
X4.1059Y-3.9465
X4.1059Y-4.1465
X4.1059Y-4.2465
X4.2031Y-1.9484
X4.2031Y-2.0484
X4.2031Y-2.2484
X4.2031Y-2.3484
X4.2031Y-2.4484
X4.2031Y-2.5484
X4.2031Y-2.6484
X4.2031Y-2.7484
X4.2031Y-2.8484
X4.2031Y-2.9484
X4.2035Y-3.2484
X4.2035Y-3.3484
X4.2035Y-3.4484
X4.2035Y-3.5484
X4.2035Y-3.6484
X4.2035Y-3.7484
X4.2035Y-3.8484
X4.2035Y-3.9484
X4.2035Y-4.1484
X4.2035Y-4.2484
X4.2055Y-1.9465
X4.2055Y-2.0465
X4.2055Y-2.2465
X4.2055Y-2.3465
X4.2055Y-2.4465
X4.2055Y-2.5465
X4.2055Y-2.6465
X4.2055Y-2.7465
X4.2055Y-2.8465
X4.2055Y-2.9465
X4.2059Y-3.2465
X4.2059Y-3.3465
X4.2059Y-3.4465
X4.2059Y-3.5465
X4.2059Y-3.6465
X4.2059Y-3.7465
X4.2059Y-3.8465
X4.2059Y-3.9465
X4.2059Y-4.1465
X4.2059Y-4.2465
X4.3031Y-1.9484
X4.3031Y-2.0484
X4.3031Y-2.2484
X4.3031Y-2.3484
X4.3031Y-2.4484
X4.3031Y-2.5484
X4.3031Y-2.6484
X4.3031Y-2.7484
X4.3031Y-2.8484
X4.3031Y-2.9484
X4.3035Y-3.2484
X4.3035Y-3.3484
X4.3035Y-3.4484
X4.3035Y-3.5484
X4.3035Y-3.6484
X4.3035Y-3.7484
X4.3035Y-3.8484
X4.3035Y-3.9484
X4.3035Y-4.1484
X4.3035Y-4.2484
X4.3055Y-1.9465
X4.3055Y-2.0465
X4.3055Y-2.2465
X4.3055Y-2.3465
X4.3055Y-2.4465
X4.3055Y-2.5465
X4.3055Y-2.6465
X4.3055Y-2.7465
X4.3055Y-2.8465
X4.3055Y-2.9465
X4.3059Y-3.2465
X4.3059Y-3.3465
X4.3059Y-3.4465
X4.3059Y-3.5465
X4.3059Y-3.6465
X4.3059Y-3.7465
X4.3059Y-3.8465
X4.3059Y-3.9465
X4.3059Y-4.1465
X4.3059Y-4.2465
X4.4031Y-1.9484
X4.4031Y-2.0484
X4.4031Y-2.2484
X4.4031Y-2.3484
X4.4031Y-2.4484
X4.4031Y-2.5484
X4.4031Y-2.6484
X4.4031Y-2.7484
X4.4031Y-2.8484
X4.4031Y-2.9484
X4.4035Y-3.2484
X4.4035Y-3.3484
X4.4035Y-3.4484
X4.4035Y-3.5484
X4.4035Y-3.6484
X4.4035Y-3.7484
X4.4035Y-3.8484
X4.4035Y-3.9484
X4.4035Y-4.1484
X4.4035Y-4.2484
X4.4055Y-1.9465
X4.4055Y-2.0465
X4.4055Y-2.2465
X4.4055Y-2.3465
X4.4055Y-2.4465
X4.4055Y-2.5465
X4.4055Y-2.6465
X4.4055Y-2.7465
X4.4055Y-2.8465
X4.4055Y-2.9465
X4.4059Y-3.2465
X4.4059Y-3.3465
X4.4059Y-3.4465
X4.4059Y-3.5465
X4.4059Y-3.6465
X4.4059Y-3.7465
X4.4059Y-3.8465
X4.4059Y-3.9465
X4.4059Y-4.1465
X4.4059Y-4.2465
X4.5031Y-1.9484
X4.5031Y-2.0484
X4.5031Y-2.2484
X4.5031Y-2.3484
X4.5031Y-2.4484
X4.5031Y-2.5484
X4.5031Y-2.6484
X4.5031Y-2.7484
X4.5031Y-2.8484
X4.5031Y-2.9484
X4.5035Y-3.2484
X4.5035Y-3.3484
X4.5035Y-3.4484
X4.5035Y-3.5484
X4.5035Y-3.6484
X4.5035Y-3.7484
X4.5035Y-3.8484
X4.5035Y-3.9484
X4.5035Y-4.1484
X4.5035Y-4.2484
X4.5055Y-1.9465
X4.5055Y-2.0465
X4.5055Y-2.2465
X4.5055Y-2.3465
X4.5055Y-2.4465
X4.5055Y-2.5465
X4.5055Y-2.6465
X4.5055Y-2.7465
X4.5055Y-2.8465
X4.5055Y-2.9465
X4.5059Y-3.2465
X4.5059Y-3.3465
X4.5059Y-3.4465
X4.5059Y-3.5465
X4.5059Y-3.6465
X4.5059Y-3.7465
X4.5059Y-3.8465
X4.5059Y-3.9465
X4.5059Y-4.1465
X4.5059Y-4.2465
X4.6031Y-1.9484
X4.6031Y-2.0484
X4.6031Y-2.2484
X4.6031Y-2.3484
X4.6031Y-2.4484
X4.6031Y-2.5484
X4.6031Y-2.6484
X4.6031Y-2.7484
X4.6031Y-2.8484
X4.6031Y-2.9484
X4.6035Y-3.2484
X4.6035Y-3.3484
X4.6035Y-3.4484
X4.6035Y-3.5484
X4.6035Y-3.6484
X4.6035Y-3.7484
X4.6035Y-3.8484
X4.6035Y-3.9484
X4.6035Y-4.1484
X4.6035Y-4.2484
X4.6055Y-1.9465
X4.6055Y-2.0465
X4.6055Y-2.2465
X4.6055Y-2.3465
X4.6055Y-2.4465
X4.6055Y-2.5465
X4.6055Y-2.6465
X4.6055Y-2.7465
X4.6055Y-2.8465
X4.6055Y-2.9465
X4.6059Y-3.2465
X4.6059Y-3.3465
X4.6059Y-3.4465
X4.6059Y-3.5465
X4.6059Y-3.6465
X4.6059Y-3.7465
X4.6059Y-3.8465
X4.6059Y-3.9465
X4.6059Y-4.1465
X4.6059Y-4.2465
X4.7031Y-1.9484
X4.7031Y-2.0484
X4.7031Y-2.2484
X4.7031Y-2.3484
X4.7031Y-2.4484
X4.7031Y-2.5484
X4.7031Y-2.6484
X4.7031Y-2.7484
X4.7031Y-2.8484
X4.7031Y-2.9484
X4.7035Y-3.2484
X4.7035Y-3.3484
X4.7035Y-3.4484
X4.7035Y-3.5484
X4.7035Y-3.6484
X4.7035Y-3.7484
X4.7035Y-3.8484
X4.7035Y-3.9484
X4.7035Y-4.1484
X4.7035Y-4.2484
X4.7055Y-1.9465
X4.7055Y-2.0465
X4.7055Y-2.2465
X4.7055Y-2.3465
X4.7055Y-2.4465
X4.7055Y-2.5465
X4.7055Y-2.6465
X4.7055Y-2.7465
X4.7055Y-2.8465
X4.7055Y-2.9465
X4.7059Y-3.2465
X4.7059Y-3.3465
X4.7059Y-3.4465
X4.7059Y-3.5465
X4.7059Y-3.6465
X4.7059Y-3.7465
X4.7059Y-3.8465
X4.7059Y-3.9465
X4.7059Y-4.1465
X4.7059Y-4.2465
X4.8031Y-1.9484
X4.8031Y-2.0484
X4.8031Y-2.2484
X4.8031Y-2.3484
X4.8031Y-2.4484
X4.8031Y-2.5484
X4.8031Y-2.6484
X4.8031Y-2.7484
X4.8031Y-2.8484
X4.8031Y-2.9484
X4.8035Y-3.2484
X4.8035Y-3.3484
X4.8035Y-3.4484
X4.8035Y-3.5484
X4.8035Y-3.6484
X4.8035Y-3.7484
X4.8035Y-3.8484
X4.8035Y-3.9484
X4.8035Y-4.1484
X4.8035Y-4.2484
X4.8055Y-1.9465
X4.8055Y-2.0465
X4.8055Y-2.2465
X4.8055Y-2.3465
X4.8055Y-2.4465
X4.8055Y-2.5465
X4.8055Y-2.6465
X4.8055Y-2.7465
X4.8055Y-2.8465
X4.8055Y-2.9465
X4.8059Y-3.2465
X4.8059Y-3.3465
X4.8059Y-3.4465
X4.8059Y-3.5465
X4.8059Y-3.6465
X4.8059Y-3.7465
X4.8059Y-3.8465
X4.8059Y-3.9465
X4.8059Y-4.1465
X4.8059Y-4.2465
M30
