%TF.GenerationSoftware,KiCad,Pcbnew,8.0.1*%
%TF.CreationDate,2024-04-20T18:07:58+02:00*%
%TF.ProjectId,proto_board_V3,70726f74-6f5f-4626-9f61-72645f56332e,rev?*%
%TF.SameCoordinates,Original*%
%TF.FileFunction,Drillmap*%
%TF.FilePolarity,Positive*%
%FSLAX45Y45*%
G04 Gerber Fmt 4.5, Leading zero omitted, Abs format (unit mm)*
G04 Created by KiCad (PCBNEW 8.0.1) date 2024-04-20 18:07:58*
%MOMM*%
%LPD*%
G01*
G04 APERTURE LIST*
%ADD10C,0.050000*%
%ADD11C,0.200000*%
%ADD12C,0.100000*%
G04 APERTURE END LIST*
D10*
X12500000Y-10979000D02*
X12499754Y-4746246D01*
X4647246Y-11081754D02*
X12395000Y-11084000D01*
X4542246Y-4749246D02*
X4542246Y-10976754D01*
X12394754Y-4641246D02*
X4647246Y-4644246D01*
X12394754Y-4641246D02*
G75*
G02*
X12499754Y-4746246I0J-105000D01*
G01*
X4647246Y-11081754D02*
G75*
G02*
X4542246Y-10976754I0J105000D01*
G01*
X4542246Y-4749246D02*
G75*
G02*
X4647246Y-4644246I105000J0D01*
G01*
X12500000Y-10979000D02*
G75*
G02*
X12395000Y-11084000I-105000J0D01*
G01*
D11*
D12*
X4784000Y-4899000D02*
X4884000Y-4999000D01*
X4884000Y-4899000D02*
X4784000Y-4999000D01*
X4784000Y-5153000D02*
X4884000Y-5253000D01*
X4884000Y-5153000D02*
X4784000Y-5253000D01*
X4784000Y-5661000D02*
X4884000Y-5761000D01*
X4884000Y-5661000D02*
X4784000Y-5761000D01*
X4784000Y-5915000D02*
X4884000Y-6015000D01*
X4884000Y-5915000D02*
X4784000Y-6015000D01*
X4784000Y-6169000D02*
X4884000Y-6269000D01*
X4884000Y-6169000D02*
X4784000Y-6269000D01*
X4784000Y-6423000D02*
X4884000Y-6523000D01*
X4884000Y-6423000D02*
X4784000Y-6523000D01*
X4784000Y-6677000D02*
X4884000Y-6777000D01*
X4884000Y-6677000D02*
X4784000Y-6777000D01*
X4784000Y-6931000D02*
X4884000Y-7031000D01*
X4884000Y-6931000D02*
X4784000Y-7031000D01*
X4784000Y-7185000D02*
X4884000Y-7285000D01*
X4884000Y-7185000D02*
X4784000Y-7285000D01*
X4784000Y-7439000D02*
X4884000Y-7539000D01*
X4884000Y-7439000D02*
X4784000Y-7539000D01*
X4785000Y-8201000D02*
X4885000Y-8301000D01*
X4885000Y-8201000D02*
X4785000Y-8301000D01*
X4785000Y-8455000D02*
X4885000Y-8555000D01*
X4885000Y-8455000D02*
X4785000Y-8555000D01*
X4785000Y-8709000D02*
X4885000Y-8809000D01*
X4885000Y-8709000D02*
X4785000Y-8809000D01*
X4785000Y-8963000D02*
X4885000Y-9063000D01*
X4885000Y-8963000D02*
X4785000Y-9063000D01*
X4785000Y-9217000D02*
X4885000Y-9317000D01*
X4885000Y-9217000D02*
X4785000Y-9317000D01*
X4785000Y-9471000D02*
X4885000Y-9571000D01*
X4885000Y-9471000D02*
X4785000Y-9571000D01*
X4785000Y-9725000D02*
X4885000Y-9825000D01*
X4885000Y-9725000D02*
X4785000Y-9825000D01*
X4785000Y-9979000D02*
X4885000Y-10079000D01*
X4885000Y-9979000D02*
X4785000Y-10079000D01*
X4785000Y-10487000D02*
X4885000Y-10587000D01*
X4885000Y-10487000D02*
X4785000Y-10587000D01*
X4785000Y-10741000D02*
X4885000Y-10841000D01*
X4885000Y-10741000D02*
X4785000Y-10841000D01*
X4790000Y-4894000D02*
X4890000Y-4994000D01*
X4890000Y-4894000D02*
X4790000Y-4994000D01*
X4790000Y-5148000D02*
X4890000Y-5248000D01*
X4890000Y-5148000D02*
X4790000Y-5248000D01*
X4790000Y-5656000D02*
X4890000Y-5756000D01*
X4890000Y-5656000D02*
X4790000Y-5756000D01*
X4790000Y-5910000D02*
X4890000Y-6010000D01*
X4890000Y-5910000D02*
X4790000Y-6010000D01*
X4790000Y-6164000D02*
X4890000Y-6264000D01*
X4890000Y-6164000D02*
X4790000Y-6264000D01*
X4790000Y-6418000D02*
X4890000Y-6518000D01*
X4890000Y-6418000D02*
X4790000Y-6518000D01*
X4790000Y-6672000D02*
X4890000Y-6772000D01*
X4890000Y-6672000D02*
X4790000Y-6772000D01*
X4790000Y-6926000D02*
X4890000Y-7026000D01*
X4890000Y-6926000D02*
X4790000Y-7026000D01*
X4790000Y-7180000D02*
X4890000Y-7280000D01*
X4890000Y-7180000D02*
X4790000Y-7280000D01*
X4790000Y-7434000D02*
X4890000Y-7534000D01*
X4890000Y-7434000D02*
X4790000Y-7534000D01*
X4791000Y-8196000D02*
X4891000Y-8296000D01*
X4891000Y-8196000D02*
X4791000Y-8296000D01*
X4791000Y-8450000D02*
X4891000Y-8550000D01*
X4891000Y-8450000D02*
X4791000Y-8550000D01*
X4791000Y-8704000D02*
X4891000Y-8804000D01*
X4891000Y-8704000D02*
X4791000Y-8804000D01*
X4791000Y-8958000D02*
X4891000Y-9058000D01*
X4891000Y-8958000D02*
X4791000Y-9058000D01*
X4791000Y-9212000D02*
X4891000Y-9312000D01*
X4891000Y-9212000D02*
X4791000Y-9312000D01*
X4791000Y-9466000D02*
X4891000Y-9566000D01*
X4891000Y-9466000D02*
X4791000Y-9566000D01*
X4791000Y-9720000D02*
X4891000Y-9820000D01*
X4891000Y-9720000D02*
X4791000Y-9820000D01*
X4791000Y-9974000D02*
X4891000Y-10074000D01*
X4891000Y-9974000D02*
X4791000Y-10074000D01*
X4791000Y-10482000D02*
X4891000Y-10582000D01*
X4891000Y-10482000D02*
X4791000Y-10582000D01*
X4791000Y-10736000D02*
X4891000Y-10836000D01*
X4891000Y-10736000D02*
X4791000Y-10836000D01*
X5038000Y-4899000D02*
X5138000Y-4999000D01*
X5138000Y-4899000D02*
X5038000Y-4999000D01*
X5038000Y-5153000D02*
X5138000Y-5253000D01*
X5138000Y-5153000D02*
X5038000Y-5253000D01*
X5038000Y-5661000D02*
X5138000Y-5761000D01*
X5138000Y-5661000D02*
X5038000Y-5761000D01*
X5038000Y-5915000D02*
X5138000Y-6015000D01*
X5138000Y-5915000D02*
X5038000Y-6015000D01*
X5038000Y-6169000D02*
X5138000Y-6269000D01*
X5138000Y-6169000D02*
X5038000Y-6269000D01*
X5038000Y-6423000D02*
X5138000Y-6523000D01*
X5138000Y-6423000D02*
X5038000Y-6523000D01*
X5038000Y-6677000D02*
X5138000Y-6777000D01*
X5138000Y-6677000D02*
X5038000Y-6777000D01*
X5038000Y-6931000D02*
X5138000Y-7031000D01*
X5138000Y-6931000D02*
X5038000Y-7031000D01*
X5038000Y-7185000D02*
X5138000Y-7285000D01*
X5138000Y-7185000D02*
X5038000Y-7285000D01*
X5038000Y-7439000D02*
X5138000Y-7539000D01*
X5138000Y-7439000D02*
X5038000Y-7539000D01*
X5039000Y-8201000D02*
X5139000Y-8301000D01*
X5139000Y-8201000D02*
X5039000Y-8301000D01*
X5039000Y-8455000D02*
X5139000Y-8555000D01*
X5139000Y-8455000D02*
X5039000Y-8555000D01*
X5039000Y-8709000D02*
X5139000Y-8809000D01*
X5139000Y-8709000D02*
X5039000Y-8809000D01*
X5039000Y-8963000D02*
X5139000Y-9063000D01*
X5139000Y-8963000D02*
X5039000Y-9063000D01*
X5039000Y-9217000D02*
X5139000Y-9317000D01*
X5139000Y-9217000D02*
X5039000Y-9317000D01*
X5039000Y-9471000D02*
X5139000Y-9571000D01*
X5139000Y-9471000D02*
X5039000Y-9571000D01*
X5039000Y-9725000D02*
X5139000Y-9825000D01*
X5139000Y-9725000D02*
X5039000Y-9825000D01*
X5039000Y-9979000D02*
X5139000Y-10079000D01*
X5139000Y-9979000D02*
X5039000Y-10079000D01*
X5039000Y-10487000D02*
X5139000Y-10587000D01*
X5139000Y-10487000D02*
X5039000Y-10587000D01*
X5039000Y-10741000D02*
X5139000Y-10841000D01*
X5139000Y-10741000D02*
X5039000Y-10841000D01*
X5044000Y-4894000D02*
X5144000Y-4994000D01*
X5144000Y-4894000D02*
X5044000Y-4994000D01*
X5044000Y-5148000D02*
X5144000Y-5248000D01*
X5144000Y-5148000D02*
X5044000Y-5248000D01*
X5044000Y-5656000D02*
X5144000Y-5756000D01*
X5144000Y-5656000D02*
X5044000Y-5756000D01*
X5044000Y-5910000D02*
X5144000Y-6010000D01*
X5144000Y-5910000D02*
X5044000Y-6010000D01*
X5044000Y-6164000D02*
X5144000Y-6264000D01*
X5144000Y-6164000D02*
X5044000Y-6264000D01*
X5044000Y-6418000D02*
X5144000Y-6518000D01*
X5144000Y-6418000D02*
X5044000Y-6518000D01*
X5044000Y-6672000D02*
X5144000Y-6772000D01*
X5144000Y-6672000D02*
X5044000Y-6772000D01*
X5044000Y-6926000D02*
X5144000Y-7026000D01*
X5144000Y-6926000D02*
X5044000Y-7026000D01*
X5044000Y-7180000D02*
X5144000Y-7280000D01*
X5144000Y-7180000D02*
X5044000Y-7280000D01*
X5044000Y-7434000D02*
X5144000Y-7534000D01*
X5144000Y-7434000D02*
X5044000Y-7534000D01*
X5045000Y-8196000D02*
X5145000Y-8296000D01*
X5145000Y-8196000D02*
X5045000Y-8296000D01*
X5045000Y-8450000D02*
X5145000Y-8550000D01*
X5145000Y-8450000D02*
X5045000Y-8550000D01*
X5045000Y-8704000D02*
X5145000Y-8804000D01*
X5145000Y-8704000D02*
X5045000Y-8804000D01*
X5045000Y-8958000D02*
X5145000Y-9058000D01*
X5145000Y-8958000D02*
X5045000Y-9058000D01*
X5045000Y-9212000D02*
X5145000Y-9312000D01*
X5145000Y-9212000D02*
X5045000Y-9312000D01*
X5045000Y-9466000D02*
X5145000Y-9566000D01*
X5145000Y-9466000D02*
X5045000Y-9566000D01*
X5045000Y-9720000D02*
X5145000Y-9820000D01*
X5145000Y-9720000D02*
X5045000Y-9820000D01*
X5045000Y-9974000D02*
X5145000Y-10074000D01*
X5145000Y-9974000D02*
X5045000Y-10074000D01*
X5045000Y-10482000D02*
X5145000Y-10582000D01*
X5145000Y-10482000D02*
X5045000Y-10582000D01*
X5045000Y-10736000D02*
X5145000Y-10836000D01*
X5145000Y-10736000D02*
X5045000Y-10836000D01*
X5292000Y-4899000D02*
X5392000Y-4999000D01*
X5392000Y-4899000D02*
X5292000Y-4999000D01*
X5292000Y-5153000D02*
X5392000Y-5253000D01*
X5392000Y-5153000D02*
X5292000Y-5253000D01*
X5292000Y-5661000D02*
X5392000Y-5761000D01*
X5392000Y-5661000D02*
X5292000Y-5761000D01*
X5292000Y-5915000D02*
X5392000Y-6015000D01*
X5392000Y-5915000D02*
X5292000Y-6015000D01*
X5292000Y-6169000D02*
X5392000Y-6269000D01*
X5392000Y-6169000D02*
X5292000Y-6269000D01*
X5292000Y-6423000D02*
X5392000Y-6523000D01*
X5392000Y-6423000D02*
X5292000Y-6523000D01*
X5292000Y-6677000D02*
X5392000Y-6777000D01*
X5392000Y-6677000D02*
X5292000Y-6777000D01*
X5292000Y-6931000D02*
X5392000Y-7031000D01*
X5392000Y-6931000D02*
X5292000Y-7031000D01*
X5292000Y-7185000D02*
X5392000Y-7285000D01*
X5392000Y-7185000D02*
X5292000Y-7285000D01*
X5292000Y-7439000D02*
X5392000Y-7539000D01*
X5392000Y-7439000D02*
X5292000Y-7539000D01*
X5293000Y-8201000D02*
X5393000Y-8301000D01*
X5393000Y-8201000D02*
X5293000Y-8301000D01*
X5293000Y-8455000D02*
X5393000Y-8555000D01*
X5393000Y-8455000D02*
X5293000Y-8555000D01*
X5293000Y-8709000D02*
X5393000Y-8809000D01*
X5393000Y-8709000D02*
X5293000Y-8809000D01*
X5293000Y-8963000D02*
X5393000Y-9063000D01*
X5393000Y-8963000D02*
X5293000Y-9063000D01*
X5293000Y-9217000D02*
X5393000Y-9317000D01*
X5393000Y-9217000D02*
X5293000Y-9317000D01*
X5293000Y-9471000D02*
X5393000Y-9571000D01*
X5393000Y-9471000D02*
X5293000Y-9571000D01*
X5293000Y-9725000D02*
X5393000Y-9825000D01*
X5393000Y-9725000D02*
X5293000Y-9825000D01*
X5293000Y-9979000D02*
X5393000Y-10079000D01*
X5393000Y-9979000D02*
X5293000Y-10079000D01*
X5293000Y-10487000D02*
X5393000Y-10587000D01*
X5393000Y-10487000D02*
X5293000Y-10587000D01*
X5293000Y-10741000D02*
X5393000Y-10841000D01*
X5393000Y-10741000D02*
X5293000Y-10841000D01*
X5298000Y-4894000D02*
X5398000Y-4994000D01*
X5398000Y-4894000D02*
X5298000Y-4994000D01*
X5298000Y-5148000D02*
X5398000Y-5248000D01*
X5398000Y-5148000D02*
X5298000Y-5248000D01*
X5298000Y-5656000D02*
X5398000Y-5756000D01*
X5398000Y-5656000D02*
X5298000Y-5756000D01*
X5298000Y-5910000D02*
X5398000Y-6010000D01*
X5398000Y-5910000D02*
X5298000Y-6010000D01*
X5298000Y-6164000D02*
X5398000Y-6264000D01*
X5398000Y-6164000D02*
X5298000Y-6264000D01*
X5298000Y-6418000D02*
X5398000Y-6518000D01*
X5398000Y-6418000D02*
X5298000Y-6518000D01*
X5298000Y-6672000D02*
X5398000Y-6772000D01*
X5398000Y-6672000D02*
X5298000Y-6772000D01*
X5298000Y-6926000D02*
X5398000Y-7026000D01*
X5398000Y-6926000D02*
X5298000Y-7026000D01*
X5298000Y-7180000D02*
X5398000Y-7280000D01*
X5398000Y-7180000D02*
X5298000Y-7280000D01*
X5298000Y-7434000D02*
X5398000Y-7534000D01*
X5398000Y-7434000D02*
X5298000Y-7534000D01*
X5299000Y-8196000D02*
X5399000Y-8296000D01*
X5399000Y-8196000D02*
X5299000Y-8296000D01*
X5299000Y-8450000D02*
X5399000Y-8550000D01*
X5399000Y-8450000D02*
X5299000Y-8550000D01*
X5299000Y-8704000D02*
X5399000Y-8804000D01*
X5399000Y-8704000D02*
X5299000Y-8804000D01*
X5299000Y-8958000D02*
X5399000Y-9058000D01*
X5399000Y-8958000D02*
X5299000Y-9058000D01*
X5299000Y-9212000D02*
X5399000Y-9312000D01*
X5399000Y-9212000D02*
X5299000Y-9312000D01*
X5299000Y-9466000D02*
X5399000Y-9566000D01*
X5399000Y-9466000D02*
X5299000Y-9566000D01*
X5299000Y-9720000D02*
X5399000Y-9820000D01*
X5399000Y-9720000D02*
X5299000Y-9820000D01*
X5299000Y-9974000D02*
X5399000Y-10074000D01*
X5399000Y-9974000D02*
X5299000Y-10074000D01*
X5299000Y-10482000D02*
X5399000Y-10582000D01*
X5399000Y-10482000D02*
X5299000Y-10582000D01*
X5299000Y-10736000D02*
X5399000Y-10836000D01*
X5399000Y-10736000D02*
X5299000Y-10836000D01*
X5546000Y-4899000D02*
X5646000Y-4999000D01*
X5646000Y-4899000D02*
X5546000Y-4999000D01*
X5546000Y-5153000D02*
X5646000Y-5253000D01*
X5646000Y-5153000D02*
X5546000Y-5253000D01*
X5546000Y-5661000D02*
X5646000Y-5761000D01*
X5646000Y-5661000D02*
X5546000Y-5761000D01*
X5546000Y-5915000D02*
X5646000Y-6015000D01*
X5646000Y-5915000D02*
X5546000Y-6015000D01*
X5546000Y-6169000D02*
X5646000Y-6269000D01*
X5646000Y-6169000D02*
X5546000Y-6269000D01*
X5546000Y-6423000D02*
X5646000Y-6523000D01*
X5646000Y-6423000D02*
X5546000Y-6523000D01*
X5546000Y-6677000D02*
X5646000Y-6777000D01*
X5646000Y-6677000D02*
X5546000Y-6777000D01*
X5546000Y-6931000D02*
X5646000Y-7031000D01*
X5646000Y-6931000D02*
X5546000Y-7031000D01*
X5546000Y-7185000D02*
X5646000Y-7285000D01*
X5646000Y-7185000D02*
X5546000Y-7285000D01*
X5546000Y-7439000D02*
X5646000Y-7539000D01*
X5646000Y-7439000D02*
X5546000Y-7539000D01*
X5547000Y-8201000D02*
X5647000Y-8301000D01*
X5647000Y-8201000D02*
X5547000Y-8301000D01*
X5547000Y-8455000D02*
X5647000Y-8555000D01*
X5647000Y-8455000D02*
X5547000Y-8555000D01*
X5547000Y-8709000D02*
X5647000Y-8809000D01*
X5647000Y-8709000D02*
X5547000Y-8809000D01*
X5547000Y-8963000D02*
X5647000Y-9063000D01*
X5647000Y-8963000D02*
X5547000Y-9063000D01*
X5547000Y-9217000D02*
X5647000Y-9317000D01*
X5647000Y-9217000D02*
X5547000Y-9317000D01*
X5547000Y-9471000D02*
X5647000Y-9571000D01*
X5647000Y-9471000D02*
X5547000Y-9571000D01*
X5547000Y-9725000D02*
X5647000Y-9825000D01*
X5647000Y-9725000D02*
X5547000Y-9825000D01*
X5547000Y-9979000D02*
X5647000Y-10079000D01*
X5647000Y-9979000D02*
X5547000Y-10079000D01*
X5547000Y-10487000D02*
X5647000Y-10587000D01*
X5647000Y-10487000D02*
X5547000Y-10587000D01*
X5547000Y-10741000D02*
X5647000Y-10841000D01*
X5647000Y-10741000D02*
X5547000Y-10841000D01*
X5552000Y-4894000D02*
X5652000Y-4994000D01*
X5652000Y-4894000D02*
X5552000Y-4994000D01*
X5552000Y-5148000D02*
X5652000Y-5248000D01*
X5652000Y-5148000D02*
X5552000Y-5248000D01*
X5552000Y-5656000D02*
X5652000Y-5756000D01*
X5652000Y-5656000D02*
X5552000Y-5756000D01*
X5552000Y-5910000D02*
X5652000Y-6010000D01*
X5652000Y-5910000D02*
X5552000Y-6010000D01*
X5552000Y-6164000D02*
X5652000Y-6264000D01*
X5652000Y-6164000D02*
X5552000Y-6264000D01*
X5552000Y-6418000D02*
X5652000Y-6518000D01*
X5652000Y-6418000D02*
X5552000Y-6518000D01*
X5552000Y-6672000D02*
X5652000Y-6772000D01*
X5652000Y-6672000D02*
X5552000Y-6772000D01*
X5552000Y-6926000D02*
X5652000Y-7026000D01*
X5652000Y-6926000D02*
X5552000Y-7026000D01*
X5552000Y-7180000D02*
X5652000Y-7280000D01*
X5652000Y-7180000D02*
X5552000Y-7280000D01*
X5552000Y-7434000D02*
X5652000Y-7534000D01*
X5652000Y-7434000D02*
X5552000Y-7534000D01*
X5553000Y-8196000D02*
X5653000Y-8296000D01*
X5653000Y-8196000D02*
X5553000Y-8296000D01*
X5553000Y-8450000D02*
X5653000Y-8550000D01*
X5653000Y-8450000D02*
X5553000Y-8550000D01*
X5553000Y-8704000D02*
X5653000Y-8804000D01*
X5653000Y-8704000D02*
X5553000Y-8804000D01*
X5553000Y-8958000D02*
X5653000Y-9058000D01*
X5653000Y-8958000D02*
X5553000Y-9058000D01*
X5553000Y-9212000D02*
X5653000Y-9312000D01*
X5653000Y-9212000D02*
X5553000Y-9312000D01*
X5553000Y-9466000D02*
X5653000Y-9566000D01*
X5653000Y-9466000D02*
X5553000Y-9566000D01*
X5553000Y-9720000D02*
X5653000Y-9820000D01*
X5653000Y-9720000D02*
X5553000Y-9820000D01*
X5553000Y-9974000D02*
X5653000Y-10074000D01*
X5653000Y-9974000D02*
X5553000Y-10074000D01*
X5553000Y-10482000D02*
X5653000Y-10582000D01*
X5653000Y-10482000D02*
X5553000Y-10582000D01*
X5553000Y-10736000D02*
X5653000Y-10836000D01*
X5653000Y-10736000D02*
X5553000Y-10836000D01*
X5800000Y-4899000D02*
X5900000Y-4999000D01*
X5900000Y-4899000D02*
X5800000Y-4999000D01*
X5800000Y-5153000D02*
X5900000Y-5253000D01*
X5900000Y-5153000D02*
X5800000Y-5253000D01*
X5800000Y-5661000D02*
X5900000Y-5761000D01*
X5900000Y-5661000D02*
X5800000Y-5761000D01*
X5800000Y-5915000D02*
X5900000Y-6015000D01*
X5900000Y-5915000D02*
X5800000Y-6015000D01*
X5800000Y-6169000D02*
X5900000Y-6269000D01*
X5900000Y-6169000D02*
X5800000Y-6269000D01*
X5800000Y-6423000D02*
X5900000Y-6523000D01*
X5900000Y-6423000D02*
X5800000Y-6523000D01*
X5800000Y-6677000D02*
X5900000Y-6777000D01*
X5900000Y-6677000D02*
X5800000Y-6777000D01*
X5800000Y-6931000D02*
X5900000Y-7031000D01*
X5900000Y-6931000D02*
X5800000Y-7031000D01*
X5800000Y-7185000D02*
X5900000Y-7285000D01*
X5900000Y-7185000D02*
X5800000Y-7285000D01*
X5800000Y-7439000D02*
X5900000Y-7539000D01*
X5900000Y-7439000D02*
X5800000Y-7539000D01*
X5801000Y-8201000D02*
X5901000Y-8301000D01*
X5901000Y-8201000D02*
X5801000Y-8301000D01*
X5801000Y-8455000D02*
X5901000Y-8555000D01*
X5901000Y-8455000D02*
X5801000Y-8555000D01*
X5801000Y-8709000D02*
X5901000Y-8809000D01*
X5901000Y-8709000D02*
X5801000Y-8809000D01*
X5801000Y-8963000D02*
X5901000Y-9063000D01*
X5901000Y-8963000D02*
X5801000Y-9063000D01*
X5801000Y-9217000D02*
X5901000Y-9317000D01*
X5901000Y-9217000D02*
X5801000Y-9317000D01*
X5801000Y-9471000D02*
X5901000Y-9571000D01*
X5901000Y-9471000D02*
X5801000Y-9571000D01*
X5801000Y-9725000D02*
X5901000Y-9825000D01*
X5901000Y-9725000D02*
X5801000Y-9825000D01*
X5801000Y-9979000D02*
X5901000Y-10079000D01*
X5901000Y-9979000D02*
X5801000Y-10079000D01*
X5801000Y-10487000D02*
X5901000Y-10587000D01*
X5901000Y-10487000D02*
X5801000Y-10587000D01*
X5801000Y-10741000D02*
X5901000Y-10841000D01*
X5901000Y-10741000D02*
X5801000Y-10841000D01*
X5806000Y-4894000D02*
X5906000Y-4994000D01*
X5906000Y-4894000D02*
X5806000Y-4994000D01*
X5806000Y-5148000D02*
X5906000Y-5248000D01*
X5906000Y-5148000D02*
X5806000Y-5248000D01*
X5806000Y-5656000D02*
X5906000Y-5756000D01*
X5906000Y-5656000D02*
X5806000Y-5756000D01*
X5806000Y-5910000D02*
X5906000Y-6010000D01*
X5906000Y-5910000D02*
X5806000Y-6010000D01*
X5806000Y-6164000D02*
X5906000Y-6264000D01*
X5906000Y-6164000D02*
X5806000Y-6264000D01*
X5806000Y-6418000D02*
X5906000Y-6518000D01*
X5906000Y-6418000D02*
X5806000Y-6518000D01*
X5806000Y-6672000D02*
X5906000Y-6772000D01*
X5906000Y-6672000D02*
X5806000Y-6772000D01*
X5806000Y-6926000D02*
X5906000Y-7026000D01*
X5906000Y-6926000D02*
X5806000Y-7026000D01*
X5806000Y-7180000D02*
X5906000Y-7280000D01*
X5906000Y-7180000D02*
X5806000Y-7280000D01*
X5806000Y-7434000D02*
X5906000Y-7534000D01*
X5906000Y-7434000D02*
X5806000Y-7534000D01*
X5807000Y-8196000D02*
X5907000Y-8296000D01*
X5907000Y-8196000D02*
X5807000Y-8296000D01*
X5807000Y-8450000D02*
X5907000Y-8550000D01*
X5907000Y-8450000D02*
X5807000Y-8550000D01*
X5807000Y-8704000D02*
X5907000Y-8804000D01*
X5907000Y-8704000D02*
X5807000Y-8804000D01*
X5807000Y-8958000D02*
X5907000Y-9058000D01*
X5907000Y-8958000D02*
X5807000Y-9058000D01*
X5807000Y-9212000D02*
X5907000Y-9312000D01*
X5907000Y-9212000D02*
X5807000Y-9312000D01*
X5807000Y-9466000D02*
X5907000Y-9566000D01*
X5907000Y-9466000D02*
X5807000Y-9566000D01*
X5807000Y-9720000D02*
X5907000Y-9820000D01*
X5907000Y-9720000D02*
X5807000Y-9820000D01*
X5807000Y-9974000D02*
X5907000Y-10074000D01*
X5907000Y-9974000D02*
X5807000Y-10074000D01*
X5807000Y-10482000D02*
X5907000Y-10582000D01*
X5907000Y-10482000D02*
X5807000Y-10582000D01*
X5807000Y-10736000D02*
X5907000Y-10836000D01*
X5907000Y-10736000D02*
X5807000Y-10836000D01*
X6054000Y-4899000D02*
X6154000Y-4999000D01*
X6154000Y-4899000D02*
X6054000Y-4999000D01*
X6054000Y-5153000D02*
X6154000Y-5253000D01*
X6154000Y-5153000D02*
X6054000Y-5253000D01*
X6054000Y-5661000D02*
X6154000Y-5761000D01*
X6154000Y-5661000D02*
X6054000Y-5761000D01*
X6054000Y-5915000D02*
X6154000Y-6015000D01*
X6154000Y-5915000D02*
X6054000Y-6015000D01*
X6054000Y-6169000D02*
X6154000Y-6269000D01*
X6154000Y-6169000D02*
X6054000Y-6269000D01*
X6054000Y-6423000D02*
X6154000Y-6523000D01*
X6154000Y-6423000D02*
X6054000Y-6523000D01*
X6054000Y-6677000D02*
X6154000Y-6777000D01*
X6154000Y-6677000D02*
X6054000Y-6777000D01*
X6054000Y-6931000D02*
X6154000Y-7031000D01*
X6154000Y-6931000D02*
X6054000Y-7031000D01*
X6054000Y-7185000D02*
X6154000Y-7285000D01*
X6154000Y-7185000D02*
X6054000Y-7285000D01*
X6054000Y-7439000D02*
X6154000Y-7539000D01*
X6154000Y-7439000D02*
X6054000Y-7539000D01*
X6055000Y-8201000D02*
X6155000Y-8301000D01*
X6155000Y-8201000D02*
X6055000Y-8301000D01*
X6055000Y-8455000D02*
X6155000Y-8555000D01*
X6155000Y-8455000D02*
X6055000Y-8555000D01*
X6055000Y-8709000D02*
X6155000Y-8809000D01*
X6155000Y-8709000D02*
X6055000Y-8809000D01*
X6055000Y-8963000D02*
X6155000Y-9063000D01*
X6155000Y-8963000D02*
X6055000Y-9063000D01*
X6055000Y-9217000D02*
X6155000Y-9317000D01*
X6155000Y-9217000D02*
X6055000Y-9317000D01*
X6055000Y-9471000D02*
X6155000Y-9571000D01*
X6155000Y-9471000D02*
X6055000Y-9571000D01*
X6055000Y-9725000D02*
X6155000Y-9825000D01*
X6155000Y-9725000D02*
X6055000Y-9825000D01*
X6055000Y-9979000D02*
X6155000Y-10079000D01*
X6155000Y-9979000D02*
X6055000Y-10079000D01*
X6055000Y-10487000D02*
X6155000Y-10587000D01*
X6155000Y-10487000D02*
X6055000Y-10587000D01*
X6055000Y-10741000D02*
X6155000Y-10841000D01*
X6155000Y-10741000D02*
X6055000Y-10841000D01*
X6060000Y-4894000D02*
X6160000Y-4994000D01*
X6160000Y-4894000D02*
X6060000Y-4994000D01*
X6060000Y-5148000D02*
X6160000Y-5248000D01*
X6160000Y-5148000D02*
X6060000Y-5248000D01*
X6060000Y-5656000D02*
X6160000Y-5756000D01*
X6160000Y-5656000D02*
X6060000Y-5756000D01*
X6060000Y-5910000D02*
X6160000Y-6010000D01*
X6160000Y-5910000D02*
X6060000Y-6010000D01*
X6060000Y-6164000D02*
X6160000Y-6264000D01*
X6160000Y-6164000D02*
X6060000Y-6264000D01*
X6060000Y-6418000D02*
X6160000Y-6518000D01*
X6160000Y-6418000D02*
X6060000Y-6518000D01*
X6060000Y-6672000D02*
X6160000Y-6772000D01*
X6160000Y-6672000D02*
X6060000Y-6772000D01*
X6060000Y-6926000D02*
X6160000Y-7026000D01*
X6160000Y-6926000D02*
X6060000Y-7026000D01*
X6060000Y-7180000D02*
X6160000Y-7280000D01*
X6160000Y-7180000D02*
X6060000Y-7280000D01*
X6060000Y-7434000D02*
X6160000Y-7534000D01*
X6160000Y-7434000D02*
X6060000Y-7534000D01*
X6061000Y-8196000D02*
X6161000Y-8296000D01*
X6161000Y-8196000D02*
X6061000Y-8296000D01*
X6061000Y-8450000D02*
X6161000Y-8550000D01*
X6161000Y-8450000D02*
X6061000Y-8550000D01*
X6061000Y-8704000D02*
X6161000Y-8804000D01*
X6161000Y-8704000D02*
X6061000Y-8804000D01*
X6061000Y-8958000D02*
X6161000Y-9058000D01*
X6161000Y-8958000D02*
X6061000Y-9058000D01*
X6061000Y-9212000D02*
X6161000Y-9312000D01*
X6161000Y-9212000D02*
X6061000Y-9312000D01*
X6061000Y-9466000D02*
X6161000Y-9566000D01*
X6161000Y-9466000D02*
X6061000Y-9566000D01*
X6061000Y-9720000D02*
X6161000Y-9820000D01*
X6161000Y-9720000D02*
X6061000Y-9820000D01*
X6061000Y-9974000D02*
X6161000Y-10074000D01*
X6161000Y-9974000D02*
X6061000Y-10074000D01*
X6061000Y-10482000D02*
X6161000Y-10582000D01*
X6161000Y-10482000D02*
X6061000Y-10582000D01*
X6061000Y-10736000D02*
X6161000Y-10836000D01*
X6161000Y-10736000D02*
X6061000Y-10836000D01*
X6308000Y-4899000D02*
X6408000Y-4999000D01*
X6408000Y-4899000D02*
X6308000Y-4999000D01*
X6308000Y-5153000D02*
X6408000Y-5253000D01*
X6408000Y-5153000D02*
X6308000Y-5253000D01*
X6308000Y-5661000D02*
X6408000Y-5761000D01*
X6408000Y-5661000D02*
X6308000Y-5761000D01*
X6308000Y-5915000D02*
X6408000Y-6015000D01*
X6408000Y-5915000D02*
X6308000Y-6015000D01*
X6308000Y-6169000D02*
X6408000Y-6269000D01*
X6408000Y-6169000D02*
X6308000Y-6269000D01*
X6308000Y-6423000D02*
X6408000Y-6523000D01*
X6408000Y-6423000D02*
X6308000Y-6523000D01*
X6308000Y-6677000D02*
X6408000Y-6777000D01*
X6408000Y-6677000D02*
X6308000Y-6777000D01*
X6308000Y-6931000D02*
X6408000Y-7031000D01*
X6408000Y-6931000D02*
X6308000Y-7031000D01*
X6308000Y-7185000D02*
X6408000Y-7285000D01*
X6408000Y-7185000D02*
X6308000Y-7285000D01*
X6308000Y-7439000D02*
X6408000Y-7539000D01*
X6408000Y-7439000D02*
X6308000Y-7539000D01*
X6309000Y-8201000D02*
X6409000Y-8301000D01*
X6409000Y-8201000D02*
X6309000Y-8301000D01*
X6309000Y-8455000D02*
X6409000Y-8555000D01*
X6409000Y-8455000D02*
X6309000Y-8555000D01*
X6309000Y-8709000D02*
X6409000Y-8809000D01*
X6409000Y-8709000D02*
X6309000Y-8809000D01*
X6309000Y-8963000D02*
X6409000Y-9063000D01*
X6409000Y-8963000D02*
X6309000Y-9063000D01*
X6309000Y-9217000D02*
X6409000Y-9317000D01*
X6409000Y-9217000D02*
X6309000Y-9317000D01*
X6309000Y-9471000D02*
X6409000Y-9571000D01*
X6409000Y-9471000D02*
X6309000Y-9571000D01*
X6309000Y-9725000D02*
X6409000Y-9825000D01*
X6409000Y-9725000D02*
X6309000Y-9825000D01*
X6309000Y-9979000D02*
X6409000Y-10079000D01*
X6409000Y-9979000D02*
X6309000Y-10079000D01*
X6309000Y-10487000D02*
X6409000Y-10587000D01*
X6409000Y-10487000D02*
X6309000Y-10587000D01*
X6309000Y-10741000D02*
X6409000Y-10841000D01*
X6409000Y-10741000D02*
X6309000Y-10841000D01*
X6314000Y-4894000D02*
X6414000Y-4994000D01*
X6414000Y-4894000D02*
X6314000Y-4994000D01*
X6314000Y-5148000D02*
X6414000Y-5248000D01*
X6414000Y-5148000D02*
X6314000Y-5248000D01*
X6314000Y-5656000D02*
X6414000Y-5756000D01*
X6414000Y-5656000D02*
X6314000Y-5756000D01*
X6314000Y-5910000D02*
X6414000Y-6010000D01*
X6414000Y-5910000D02*
X6314000Y-6010000D01*
X6314000Y-6164000D02*
X6414000Y-6264000D01*
X6414000Y-6164000D02*
X6314000Y-6264000D01*
X6314000Y-6418000D02*
X6414000Y-6518000D01*
X6414000Y-6418000D02*
X6314000Y-6518000D01*
X6314000Y-6672000D02*
X6414000Y-6772000D01*
X6414000Y-6672000D02*
X6314000Y-6772000D01*
X6314000Y-6926000D02*
X6414000Y-7026000D01*
X6414000Y-6926000D02*
X6314000Y-7026000D01*
X6314000Y-7180000D02*
X6414000Y-7280000D01*
X6414000Y-7180000D02*
X6314000Y-7280000D01*
X6314000Y-7434000D02*
X6414000Y-7534000D01*
X6414000Y-7434000D02*
X6314000Y-7534000D01*
X6315000Y-8196000D02*
X6415000Y-8296000D01*
X6415000Y-8196000D02*
X6315000Y-8296000D01*
X6315000Y-8450000D02*
X6415000Y-8550000D01*
X6415000Y-8450000D02*
X6315000Y-8550000D01*
X6315000Y-8704000D02*
X6415000Y-8804000D01*
X6415000Y-8704000D02*
X6315000Y-8804000D01*
X6315000Y-8958000D02*
X6415000Y-9058000D01*
X6415000Y-8958000D02*
X6315000Y-9058000D01*
X6315000Y-9212000D02*
X6415000Y-9312000D01*
X6415000Y-9212000D02*
X6315000Y-9312000D01*
X6315000Y-9466000D02*
X6415000Y-9566000D01*
X6415000Y-9466000D02*
X6315000Y-9566000D01*
X6315000Y-9720000D02*
X6415000Y-9820000D01*
X6415000Y-9720000D02*
X6315000Y-9820000D01*
X6315000Y-9974000D02*
X6415000Y-10074000D01*
X6415000Y-9974000D02*
X6315000Y-10074000D01*
X6315000Y-10482000D02*
X6415000Y-10582000D01*
X6415000Y-10482000D02*
X6315000Y-10582000D01*
X6315000Y-10736000D02*
X6415000Y-10836000D01*
X6415000Y-10736000D02*
X6315000Y-10836000D01*
X6562000Y-4899000D02*
X6662000Y-4999000D01*
X6662000Y-4899000D02*
X6562000Y-4999000D01*
X6562000Y-5153000D02*
X6662000Y-5253000D01*
X6662000Y-5153000D02*
X6562000Y-5253000D01*
X6562000Y-5661000D02*
X6662000Y-5761000D01*
X6662000Y-5661000D02*
X6562000Y-5761000D01*
X6562000Y-5915000D02*
X6662000Y-6015000D01*
X6662000Y-5915000D02*
X6562000Y-6015000D01*
X6562000Y-6169000D02*
X6662000Y-6269000D01*
X6662000Y-6169000D02*
X6562000Y-6269000D01*
X6562000Y-6423000D02*
X6662000Y-6523000D01*
X6662000Y-6423000D02*
X6562000Y-6523000D01*
X6562000Y-6677000D02*
X6662000Y-6777000D01*
X6662000Y-6677000D02*
X6562000Y-6777000D01*
X6562000Y-6931000D02*
X6662000Y-7031000D01*
X6662000Y-6931000D02*
X6562000Y-7031000D01*
X6562000Y-7185000D02*
X6662000Y-7285000D01*
X6662000Y-7185000D02*
X6562000Y-7285000D01*
X6562000Y-7439000D02*
X6662000Y-7539000D01*
X6662000Y-7439000D02*
X6562000Y-7539000D01*
X6563000Y-8201000D02*
X6663000Y-8301000D01*
X6663000Y-8201000D02*
X6563000Y-8301000D01*
X6563000Y-8455000D02*
X6663000Y-8555000D01*
X6663000Y-8455000D02*
X6563000Y-8555000D01*
X6563000Y-8709000D02*
X6663000Y-8809000D01*
X6663000Y-8709000D02*
X6563000Y-8809000D01*
X6563000Y-8963000D02*
X6663000Y-9063000D01*
X6663000Y-8963000D02*
X6563000Y-9063000D01*
X6563000Y-9217000D02*
X6663000Y-9317000D01*
X6663000Y-9217000D02*
X6563000Y-9317000D01*
X6563000Y-9471000D02*
X6663000Y-9571000D01*
X6663000Y-9471000D02*
X6563000Y-9571000D01*
X6563000Y-9725000D02*
X6663000Y-9825000D01*
X6663000Y-9725000D02*
X6563000Y-9825000D01*
X6563000Y-9979000D02*
X6663000Y-10079000D01*
X6663000Y-9979000D02*
X6563000Y-10079000D01*
X6563000Y-10487000D02*
X6663000Y-10587000D01*
X6663000Y-10487000D02*
X6563000Y-10587000D01*
X6563000Y-10741000D02*
X6663000Y-10841000D01*
X6663000Y-10741000D02*
X6563000Y-10841000D01*
X6568000Y-4894000D02*
X6668000Y-4994000D01*
X6668000Y-4894000D02*
X6568000Y-4994000D01*
X6568000Y-5148000D02*
X6668000Y-5248000D01*
X6668000Y-5148000D02*
X6568000Y-5248000D01*
X6568000Y-5656000D02*
X6668000Y-5756000D01*
X6668000Y-5656000D02*
X6568000Y-5756000D01*
X6568000Y-5910000D02*
X6668000Y-6010000D01*
X6668000Y-5910000D02*
X6568000Y-6010000D01*
X6568000Y-6164000D02*
X6668000Y-6264000D01*
X6668000Y-6164000D02*
X6568000Y-6264000D01*
X6568000Y-6418000D02*
X6668000Y-6518000D01*
X6668000Y-6418000D02*
X6568000Y-6518000D01*
X6568000Y-6672000D02*
X6668000Y-6772000D01*
X6668000Y-6672000D02*
X6568000Y-6772000D01*
X6568000Y-6926000D02*
X6668000Y-7026000D01*
X6668000Y-6926000D02*
X6568000Y-7026000D01*
X6568000Y-7180000D02*
X6668000Y-7280000D01*
X6668000Y-7180000D02*
X6568000Y-7280000D01*
X6568000Y-7434000D02*
X6668000Y-7534000D01*
X6668000Y-7434000D02*
X6568000Y-7534000D01*
X6569000Y-8196000D02*
X6669000Y-8296000D01*
X6669000Y-8196000D02*
X6569000Y-8296000D01*
X6569000Y-8450000D02*
X6669000Y-8550000D01*
X6669000Y-8450000D02*
X6569000Y-8550000D01*
X6569000Y-8704000D02*
X6669000Y-8804000D01*
X6669000Y-8704000D02*
X6569000Y-8804000D01*
X6569000Y-8958000D02*
X6669000Y-9058000D01*
X6669000Y-8958000D02*
X6569000Y-9058000D01*
X6569000Y-9212000D02*
X6669000Y-9312000D01*
X6669000Y-9212000D02*
X6569000Y-9312000D01*
X6569000Y-9466000D02*
X6669000Y-9566000D01*
X6669000Y-9466000D02*
X6569000Y-9566000D01*
X6569000Y-9720000D02*
X6669000Y-9820000D01*
X6669000Y-9720000D02*
X6569000Y-9820000D01*
X6569000Y-9974000D02*
X6669000Y-10074000D01*
X6669000Y-9974000D02*
X6569000Y-10074000D01*
X6569000Y-10482000D02*
X6669000Y-10582000D01*
X6669000Y-10482000D02*
X6569000Y-10582000D01*
X6569000Y-10736000D02*
X6669000Y-10836000D01*
X6669000Y-10736000D02*
X6569000Y-10836000D01*
X6816000Y-4899000D02*
X6916000Y-4999000D01*
X6916000Y-4899000D02*
X6816000Y-4999000D01*
X6816000Y-5153000D02*
X6916000Y-5253000D01*
X6916000Y-5153000D02*
X6816000Y-5253000D01*
X6816000Y-5661000D02*
X6916000Y-5761000D01*
X6916000Y-5661000D02*
X6816000Y-5761000D01*
X6816000Y-5915000D02*
X6916000Y-6015000D01*
X6916000Y-5915000D02*
X6816000Y-6015000D01*
X6816000Y-6169000D02*
X6916000Y-6269000D01*
X6916000Y-6169000D02*
X6816000Y-6269000D01*
X6816000Y-6423000D02*
X6916000Y-6523000D01*
X6916000Y-6423000D02*
X6816000Y-6523000D01*
X6816000Y-6677000D02*
X6916000Y-6777000D01*
X6916000Y-6677000D02*
X6816000Y-6777000D01*
X6816000Y-6931000D02*
X6916000Y-7031000D01*
X6916000Y-6931000D02*
X6816000Y-7031000D01*
X6816000Y-7185000D02*
X6916000Y-7285000D01*
X6916000Y-7185000D02*
X6816000Y-7285000D01*
X6816000Y-7439000D02*
X6916000Y-7539000D01*
X6916000Y-7439000D02*
X6816000Y-7539000D01*
X6817000Y-8201000D02*
X6917000Y-8301000D01*
X6917000Y-8201000D02*
X6817000Y-8301000D01*
X6817000Y-8455000D02*
X6917000Y-8555000D01*
X6917000Y-8455000D02*
X6817000Y-8555000D01*
X6817000Y-8709000D02*
X6917000Y-8809000D01*
X6917000Y-8709000D02*
X6817000Y-8809000D01*
X6817000Y-8963000D02*
X6917000Y-9063000D01*
X6917000Y-8963000D02*
X6817000Y-9063000D01*
X6817000Y-9217000D02*
X6917000Y-9317000D01*
X6917000Y-9217000D02*
X6817000Y-9317000D01*
X6817000Y-9471000D02*
X6917000Y-9571000D01*
X6917000Y-9471000D02*
X6817000Y-9571000D01*
X6817000Y-9725000D02*
X6917000Y-9825000D01*
X6917000Y-9725000D02*
X6817000Y-9825000D01*
X6817000Y-9979000D02*
X6917000Y-10079000D01*
X6917000Y-9979000D02*
X6817000Y-10079000D01*
X6817000Y-10487000D02*
X6917000Y-10587000D01*
X6917000Y-10487000D02*
X6817000Y-10587000D01*
X6817000Y-10741000D02*
X6917000Y-10841000D01*
X6917000Y-10741000D02*
X6817000Y-10841000D01*
X6822000Y-4894000D02*
X6922000Y-4994000D01*
X6922000Y-4894000D02*
X6822000Y-4994000D01*
X6822000Y-5148000D02*
X6922000Y-5248000D01*
X6922000Y-5148000D02*
X6822000Y-5248000D01*
X6822000Y-5656000D02*
X6922000Y-5756000D01*
X6922000Y-5656000D02*
X6822000Y-5756000D01*
X6822000Y-5910000D02*
X6922000Y-6010000D01*
X6922000Y-5910000D02*
X6822000Y-6010000D01*
X6822000Y-6164000D02*
X6922000Y-6264000D01*
X6922000Y-6164000D02*
X6822000Y-6264000D01*
X6822000Y-6418000D02*
X6922000Y-6518000D01*
X6922000Y-6418000D02*
X6822000Y-6518000D01*
X6822000Y-6672000D02*
X6922000Y-6772000D01*
X6922000Y-6672000D02*
X6822000Y-6772000D01*
X6822000Y-6926000D02*
X6922000Y-7026000D01*
X6922000Y-6926000D02*
X6822000Y-7026000D01*
X6822000Y-7180000D02*
X6922000Y-7280000D01*
X6922000Y-7180000D02*
X6822000Y-7280000D01*
X6822000Y-7434000D02*
X6922000Y-7534000D01*
X6922000Y-7434000D02*
X6822000Y-7534000D01*
X6823000Y-8196000D02*
X6923000Y-8296000D01*
X6923000Y-8196000D02*
X6823000Y-8296000D01*
X6823000Y-8450000D02*
X6923000Y-8550000D01*
X6923000Y-8450000D02*
X6823000Y-8550000D01*
X6823000Y-8704000D02*
X6923000Y-8804000D01*
X6923000Y-8704000D02*
X6823000Y-8804000D01*
X6823000Y-8958000D02*
X6923000Y-9058000D01*
X6923000Y-8958000D02*
X6823000Y-9058000D01*
X6823000Y-9212000D02*
X6923000Y-9312000D01*
X6923000Y-9212000D02*
X6823000Y-9312000D01*
X6823000Y-9466000D02*
X6923000Y-9566000D01*
X6923000Y-9466000D02*
X6823000Y-9566000D01*
X6823000Y-9720000D02*
X6923000Y-9820000D01*
X6923000Y-9720000D02*
X6823000Y-9820000D01*
X6823000Y-9974000D02*
X6923000Y-10074000D01*
X6923000Y-9974000D02*
X6823000Y-10074000D01*
X6823000Y-10482000D02*
X6923000Y-10582000D01*
X6923000Y-10482000D02*
X6823000Y-10582000D01*
X6823000Y-10736000D02*
X6923000Y-10836000D01*
X6923000Y-10736000D02*
X6823000Y-10836000D01*
X7070000Y-4899000D02*
X7170000Y-4999000D01*
X7170000Y-4899000D02*
X7070000Y-4999000D01*
X7070000Y-5153000D02*
X7170000Y-5253000D01*
X7170000Y-5153000D02*
X7070000Y-5253000D01*
X7070000Y-5661000D02*
X7170000Y-5761000D01*
X7170000Y-5661000D02*
X7070000Y-5761000D01*
X7070000Y-5915000D02*
X7170000Y-6015000D01*
X7170000Y-5915000D02*
X7070000Y-6015000D01*
X7070000Y-6169000D02*
X7170000Y-6269000D01*
X7170000Y-6169000D02*
X7070000Y-6269000D01*
X7070000Y-6423000D02*
X7170000Y-6523000D01*
X7170000Y-6423000D02*
X7070000Y-6523000D01*
X7070000Y-6677000D02*
X7170000Y-6777000D01*
X7170000Y-6677000D02*
X7070000Y-6777000D01*
X7070000Y-6931000D02*
X7170000Y-7031000D01*
X7170000Y-6931000D02*
X7070000Y-7031000D01*
X7070000Y-7185000D02*
X7170000Y-7285000D01*
X7170000Y-7185000D02*
X7070000Y-7285000D01*
X7070000Y-7439000D02*
X7170000Y-7539000D01*
X7170000Y-7439000D02*
X7070000Y-7539000D01*
X7071000Y-8201000D02*
X7171000Y-8301000D01*
X7171000Y-8201000D02*
X7071000Y-8301000D01*
X7071000Y-8455000D02*
X7171000Y-8555000D01*
X7171000Y-8455000D02*
X7071000Y-8555000D01*
X7071000Y-8709000D02*
X7171000Y-8809000D01*
X7171000Y-8709000D02*
X7071000Y-8809000D01*
X7071000Y-8963000D02*
X7171000Y-9063000D01*
X7171000Y-8963000D02*
X7071000Y-9063000D01*
X7071000Y-9217000D02*
X7171000Y-9317000D01*
X7171000Y-9217000D02*
X7071000Y-9317000D01*
X7071000Y-9471000D02*
X7171000Y-9571000D01*
X7171000Y-9471000D02*
X7071000Y-9571000D01*
X7071000Y-9725000D02*
X7171000Y-9825000D01*
X7171000Y-9725000D02*
X7071000Y-9825000D01*
X7071000Y-9979000D02*
X7171000Y-10079000D01*
X7171000Y-9979000D02*
X7071000Y-10079000D01*
X7071000Y-10487000D02*
X7171000Y-10587000D01*
X7171000Y-10487000D02*
X7071000Y-10587000D01*
X7071000Y-10741000D02*
X7171000Y-10841000D01*
X7171000Y-10741000D02*
X7071000Y-10841000D01*
X7076000Y-4894000D02*
X7176000Y-4994000D01*
X7176000Y-4894000D02*
X7076000Y-4994000D01*
X7076000Y-5148000D02*
X7176000Y-5248000D01*
X7176000Y-5148000D02*
X7076000Y-5248000D01*
X7076000Y-5656000D02*
X7176000Y-5756000D01*
X7176000Y-5656000D02*
X7076000Y-5756000D01*
X7076000Y-5910000D02*
X7176000Y-6010000D01*
X7176000Y-5910000D02*
X7076000Y-6010000D01*
X7076000Y-6164000D02*
X7176000Y-6264000D01*
X7176000Y-6164000D02*
X7076000Y-6264000D01*
X7076000Y-6418000D02*
X7176000Y-6518000D01*
X7176000Y-6418000D02*
X7076000Y-6518000D01*
X7076000Y-6672000D02*
X7176000Y-6772000D01*
X7176000Y-6672000D02*
X7076000Y-6772000D01*
X7076000Y-6926000D02*
X7176000Y-7026000D01*
X7176000Y-6926000D02*
X7076000Y-7026000D01*
X7076000Y-7180000D02*
X7176000Y-7280000D01*
X7176000Y-7180000D02*
X7076000Y-7280000D01*
X7076000Y-7434000D02*
X7176000Y-7534000D01*
X7176000Y-7434000D02*
X7076000Y-7534000D01*
X7077000Y-8196000D02*
X7177000Y-8296000D01*
X7177000Y-8196000D02*
X7077000Y-8296000D01*
X7077000Y-8450000D02*
X7177000Y-8550000D01*
X7177000Y-8450000D02*
X7077000Y-8550000D01*
X7077000Y-8704000D02*
X7177000Y-8804000D01*
X7177000Y-8704000D02*
X7077000Y-8804000D01*
X7077000Y-8958000D02*
X7177000Y-9058000D01*
X7177000Y-8958000D02*
X7077000Y-9058000D01*
X7077000Y-9212000D02*
X7177000Y-9312000D01*
X7177000Y-9212000D02*
X7077000Y-9312000D01*
X7077000Y-9466000D02*
X7177000Y-9566000D01*
X7177000Y-9466000D02*
X7077000Y-9566000D01*
X7077000Y-9720000D02*
X7177000Y-9820000D01*
X7177000Y-9720000D02*
X7077000Y-9820000D01*
X7077000Y-9974000D02*
X7177000Y-10074000D01*
X7177000Y-9974000D02*
X7077000Y-10074000D01*
X7077000Y-10482000D02*
X7177000Y-10582000D01*
X7177000Y-10482000D02*
X7077000Y-10582000D01*
X7077000Y-10736000D02*
X7177000Y-10836000D01*
X7177000Y-10736000D02*
X7077000Y-10836000D01*
X7324000Y-4899000D02*
X7424000Y-4999000D01*
X7424000Y-4899000D02*
X7324000Y-4999000D01*
X7324000Y-5153000D02*
X7424000Y-5253000D01*
X7424000Y-5153000D02*
X7324000Y-5253000D01*
X7324000Y-5661000D02*
X7424000Y-5761000D01*
X7424000Y-5661000D02*
X7324000Y-5761000D01*
X7324000Y-5915000D02*
X7424000Y-6015000D01*
X7424000Y-5915000D02*
X7324000Y-6015000D01*
X7324000Y-6169000D02*
X7424000Y-6269000D01*
X7424000Y-6169000D02*
X7324000Y-6269000D01*
X7324000Y-6423000D02*
X7424000Y-6523000D01*
X7424000Y-6423000D02*
X7324000Y-6523000D01*
X7324000Y-6677000D02*
X7424000Y-6777000D01*
X7424000Y-6677000D02*
X7324000Y-6777000D01*
X7324000Y-6931000D02*
X7424000Y-7031000D01*
X7424000Y-6931000D02*
X7324000Y-7031000D01*
X7324000Y-7185000D02*
X7424000Y-7285000D01*
X7424000Y-7185000D02*
X7324000Y-7285000D01*
X7324000Y-7439000D02*
X7424000Y-7539000D01*
X7424000Y-7439000D02*
X7324000Y-7539000D01*
X7325000Y-8201000D02*
X7425000Y-8301000D01*
X7425000Y-8201000D02*
X7325000Y-8301000D01*
X7325000Y-8455000D02*
X7425000Y-8555000D01*
X7425000Y-8455000D02*
X7325000Y-8555000D01*
X7325000Y-8709000D02*
X7425000Y-8809000D01*
X7425000Y-8709000D02*
X7325000Y-8809000D01*
X7325000Y-8963000D02*
X7425000Y-9063000D01*
X7425000Y-8963000D02*
X7325000Y-9063000D01*
X7325000Y-9217000D02*
X7425000Y-9317000D01*
X7425000Y-9217000D02*
X7325000Y-9317000D01*
X7325000Y-9471000D02*
X7425000Y-9571000D01*
X7425000Y-9471000D02*
X7325000Y-9571000D01*
X7325000Y-9725000D02*
X7425000Y-9825000D01*
X7425000Y-9725000D02*
X7325000Y-9825000D01*
X7325000Y-9979000D02*
X7425000Y-10079000D01*
X7425000Y-9979000D02*
X7325000Y-10079000D01*
X7325000Y-10487000D02*
X7425000Y-10587000D01*
X7425000Y-10487000D02*
X7325000Y-10587000D01*
X7325000Y-10741000D02*
X7425000Y-10841000D01*
X7425000Y-10741000D02*
X7325000Y-10841000D01*
X7330000Y-4894000D02*
X7430000Y-4994000D01*
X7430000Y-4894000D02*
X7330000Y-4994000D01*
X7330000Y-5148000D02*
X7430000Y-5248000D01*
X7430000Y-5148000D02*
X7330000Y-5248000D01*
X7330000Y-5656000D02*
X7430000Y-5756000D01*
X7430000Y-5656000D02*
X7330000Y-5756000D01*
X7330000Y-5910000D02*
X7430000Y-6010000D01*
X7430000Y-5910000D02*
X7330000Y-6010000D01*
X7330000Y-6164000D02*
X7430000Y-6264000D01*
X7430000Y-6164000D02*
X7330000Y-6264000D01*
X7330000Y-6418000D02*
X7430000Y-6518000D01*
X7430000Y-6418000D02*
X7330000Y-6518000D01*
X7330000Y-6672000D02*
X7430000Y-6772000D01*
X7430000Y-6672000D02*
X7330000Y-6772000D01*
X7330000Y-6926000D02*
X7430000Y-7026000D01*
X7430000Y-6926000D02*
X7330000Y-7026000D01*
X7330000Y-7180000D02*
X7430000Y-7280000D01*
X7430000Y-7180000D02*
X7330000Y-7280000D01*
X7330000Y-7434000D02*
X7430000Y-7534000D01*
X7430000Y-7434000D02*
X7330000Y-7534000D01*
X7331000Y-8196000D02*
X7431000Y-8296000D01*
X7431000Y-8196000D02*
X7331000Y-8296000D01*
X7331000Y-8450000D02*
X7431000Y-8550000D01*
X7431000Y-8450000D02*
X7331000Y-8550000D01*
X7331000Y-8704000D02*
X7431000Y-8804000D01*
X7431000Y-8704000D02*
X7331000Y-8804000D01*
X7331000Y-8958000D02*
X7431000Y-9058000D01*
X7431000Y-8958000D02*
X7331000Y-9058000D01*
X7331000Y-9212000D02*
X7431000Y-9312000D01*
X7431000Y-9212000D02*
X7331000Y-9312000D01*
X7331000Y-9466000D02*
X7431000Y-9566000D01*
X7431000Y-9466000D02*
X7331000Y-9566000D01*
X7331000Y-9720000D02*
X7431000Y-9820000D01*
X7431000Y-9720000D02*
X7331000Y-9820000D01*
X7331000Y-9974000D02*
X7431000Y-10074000D01*
X7431000Y-9974000D02*
X7331000Y-10074000D01*
X7331000Y-10482000D02*
X7431000Y-10582000D01*
X7431000Y-10482000D02*
X7331000Y-10582000D01*
X7331000Y-10736000D02*
X7431000Y-10836000D01*
X7431000Y-10736000D02*
X7331000Y-10836000D01*
X7578000Y-4899000D02*
X7678000Y-4999000D01*
X7678000Y-4899000D02*
X7578000Y-4999000D01*
X7578000Y-5153000D02*
X7678000Y-5253000D01*
X7678000Y-5153000D02*
X7578000Y-5253000D01*
X7578000Y-5661000D02*
X7678000Y-5761000D01*
X7678000Y-5661000D02*
X7578000Y-5761000D01*
X7578000Y-5915000D02*
X7678000Y-6015000D01*
X7678000Y-5915000D02*
X7578000Y-6015000D01*
X7578000Y-6169000D02*
X7678000Y-6269000D01*
X7678000Y-6169000D02*
X7578000Y-6269000D01*
X7578000Y-6423000D02*
X7678000Y-6523000D01*
X7678000Y-6423000D02*
X7578000Y-6523000D01*
X7578000Y-6677000D02*
X7678000Y-6777000D01*
X7678000Y-6677000D02*
X7578000Y-6777000D01*
X7578000Y-6931000D02*
X7678000Y-7031000D01*
X7678000Y-6931000D02*
X7578000Y-7031000D01*
X7578000Y-7185000D02*
X7678000Y-7285000D01*
X7678000Y-7185000D02*
X7578000Y-7285000D01*
X7578000Y-7439000D02*
X7678000Y-7539000D01*
X7678000Y-7439000D02*
X7578000Y-7539000D01*
X7579000Y-8201000D02*
X7679000Y-8301000D01*
X7679000Y-8201000D02*
X7579000Y-8301000D01*
X7579000Y-8455000D02*
X7679000Y-8555000D01*
X7679000Y-8455000D02*
X7579000Y-8555000D01*
X7579000Y-8709000D02*
X7679000Y-8809000D01*
X7679000Y-8709000D02*
X7579000Y-8809000D01*
X7579000Y-8963000D02*
X7679000Y-9063000D01*
X7679000Y-8963000D02*
X7579000Y-9063000D01*
X7579000Y-9217000D02*
X7679000Y-9317000D01*
X7679000Y-9217000D02*
X7579000Y-9317000D01*
X7579000Y-9471000D02*
X7679000Y-9571000D01*
X7679000Y-9471000D02*
X7579000Y-9571000D01*
X7579000Y-9725000D02*
X7679000Y-9825000D01*
X7679000Y-9725000D02*
X7579000Y-9825000D01*
X7579000Y-9979000D02*
X7679000Y-10079000D01*
X7679000Y-9979000D02*
X7579000Y-10079000D01*
X7579000Y-10487000D02*
X7679000Y-10587000D01*
X7679000Y-10487000D02*
X7579000Y-10587000D01*
X7579000Y-10741000D02*
X7679000Y-10841000D01*
X7679000Y-10741000D02*
X7579000Y-10841000D01*
X7584000Y-4894000D02*
X7684000Y-4994000D01*
X7684000Y-4894000D02*
X7584000Y-4994000D01*
X7584000Y-5148000D02*
X7684000Y-5248000D01*
X7684000Y-5148000D02*
X7584000Y-5248000D01*
X7584000Y-5656000D02*
X7684000Y-5756000D01*
X7684000Y-5656000D02*
X7584000Y-5756000D01*
X7584000Y-5910000D02*
X7684000Y-6010000D01*
X7684000Y-5910000D02*
X7584000Y-6010000D01*
X7584000Y-6164000D02*
X7684000Y-6264000D01*
X7684000Y-6164000D02*
X7584000Y-6264000D01*
X7584000Y-6418000D02*
X7684000Y-6518000D01*
X7684000Y-6418000D02*
X7584000Y-6518000D01*
X7584000Y-6672000D02*
X7684000Y-6772000D01*
X7684000Y-6672000D02*
X7584000Y-6772000D01*
X7584000Y-6926000D02*
X7684000Y-7026000D01*
X7684000Y-6926000D02*
X7584000Y-7026000D01*
X7584000Y-7180000D02*
X7684000Y-7280000D01*
X7684000Y-7180000D02*
X7584000Y-7280000D01*
X7584000Y-7434000D02*
X7684000Y-7534000D01*
X7684000Y-7434000D02*
X7584000Y-7534000D01*
X7585000Y-8196000D02*
X7685000Y-8296000D01*
X7685000Y-8196000D02*
X7585000Y-8296000D01*
X7585000Y-8450000D02*
X7685000Y-8550000D01*
X7685000Y-8450000D02*
X7585000Y-8550000D01*
X7585000Y-8704000D02*
X7685000Y-8804000D01*
X7685000Y-8704000D02*
X7585000Y-8804000D01*
X7585000Y-8958000D02*
X7685000Y-9058000D01*
X7685000Y-8958000D02*
X7585000Y-9058000D01*
X7585000Y-9212000D02*
X7685000Y-9312000D01*
X7685000Y-9212000D02*
X7585000Y-9312000D01*
X7585000Y-9466000D02*
X7685000Y-9566000D01*
X7685000Y-9466000D02*
X7585000Y-9566000D01*
X7585000Y-9720000D02*
X7685000Y-9820000D01*
X7685000Y-9720000D02*
X7585000Y-9820000D01*
X7585000Y-9974000D02*
X7685000Y-10074000D01*
X7685000Y-9974000D02*
X7585000Y-10074000D01*
X7585000Y-10482000D02*
X7685000Y-10582000D01*
X7685000Y-10482000D02*
X7585000Y-10582000D01*
X7585000Y-10736000D02*
X7685000Y-10836000D01*
X7685000Y-10736000D02*
X7585000Y-10836000D01*
X7832000Y-4899000D02*
X7932000Y-4999000D01*
X7932000Y-4899000D02*
X7832000Y-4999000D01*
X7832000Y-5153000D02*
X7932000Y-5253000D01*
X7932000Y-5153000D02*
X7832000Y-5253000D01*
X7832000Y-5661000D02*
X7932000Y-5761000D01*
X7932000Y-5661000D02*
X7832000Y-5761000D01*
X7832000Y-5915000D02*
X7932000Y-6015000D01*
X7932000Y-5915000D02*
X7832000Y-6015000D01*
X7832000Y-6169000D02*
X7932000Y-6269000D01*
X7932000Y-6169000D02*
X7832000Y-6269000D01*
X7832000Y-6423000D02*
X7932000Y-6523000D01*
X7932000Y-6423000D02*
X7832000Y-6523000D01*
X7832000Y-6677000D02*
X7932000Y-6777000D01*
X7932000Y-6677000D02*
X7832000Y-6777000D01*
X7832000Y-6931000D02*
X7932000Y-7031000D01*
X7932000Y-6931000D02*
X7832000Y-7031000D01*
X7832000Y-7185000D02*
X7932000Y-7285000D01*
X7932000Y-7185000D02*
X7832000Y-7285000D01*
X7832000Y-7439000D02*
X7932000Y-7539000D01*
X7932000Y-7439000D02*
X7832000Y-7539000D01*
X7833000Y-8201000D02*
X7933000Y-8301000D01*
X7933000Y-8201000D02*
X7833000Y-8301000D01*
X7833000Y-8455000D02*
X7933000Y-8555000D01*
X7933000Y-8455000D02*
X7833000Y-8555000D01*
X7833000Y-8709000D02*
X7933000Y-8809000D01*
X7933000Y-8709000D02*
X7833000Y-8809000D01*
X7833000Y-8963000D02*
X7933000Y-9063000D01*
X7933000Y-8963000D02*
X7833000Y-9063000D01*
X7833000Y-9217000D02*
X7933000Y-9317000D01*
X7933000Y-9217000D02*
X7833000Y-9317000D01*
X7833000Y-9471000D02*
X7933000Y-9571000D01*
X7933000Y-9471000D02*
X7833000Y-9571000D01*
X7833000Y-9725000D02*
X7933000Y-9825000D01*
X7933000Y-9725000D02*
X7833000Y-9825000D01*
X7833000Y-9979000D02*
X7933000Y-10079000D01*
X7933000Y-9979000D02*
X7833000Y-10079000D01*
X7833000Y-10487000D02*
X7933000Y-10587000D01*
X7933000Y-10487000D02*
X7833000Y-10587000D01*
X7833000Y-10741000D02*
X7933000Y-10841000D01*
X7933000Y-10741000D02*
X7833000Y-10841000D01*
X7838000Y-4894000D02*
X7938000Y-4994000D01*
X7938000Y-4894000D02*
X7838000Y-4994000D01*
X7838000Y-5148000D02*
X7938000Y-5248000D01*
X7938000Y-5148000D02*
X7838000Y-5248000D01*
X7838000Y-5656000D02*
X7938000Y-5756000D01*
X7938000Y-5656000D02*
X7838000Y-5756000D01*
X7838000Y-5910000D02*
X7938000Y-6010000D01*
X7938000Y-5910000D02*
X7838000Y-6010000D01*
X7838000Y-6164000D02*
X7938000Y-6264000D01*
X7938000Y-6164000D02*
X7838000Y-6264000D01*
X7838000Y-6418000D02*
X7938000Y-6518000D01*
X7938000Y-6418000D02*
X7838000Y-6518000D01*
X7838000Y-6672000D02*
X7938000Y-6772000D01*
X7938000Y-6672000D02*
X7838000Y-6772000D01*
X7838000Y-6926000D02*
X7938000Y-7026000D01*
X7938000Y-6926000D02*
X7838000Y-7026000D01*
X7838000Y-7180000D02*
X7938000Y-7280000D01*
X7938000Y-7180000D02*
X7838000Y-7280000D01*
X7838000Y-7434000D02*
X7938000Y-7534000D01*
X7938000Y-7434000D02*
X7838000Y-7534000D01*
X7839000Y-8196000D02*
X7939000Y-8296000D01*
X7939000Y-8196000D02*
X7839000Y-8296000D01*
X7839000Y-8450000D02*
X7939000Y-8550000D01*
X7939000Y-8450000D02*
X7839000Y-8550000D01*
X7839000Y-8704000D02*
X7939000Y-8804000D01*
X7939000Y-8704000D02*
X7839000Y-8804000D01*
X7839000Y-8958000D02*
X7939000Y-9058000D01*
X7939000Y-8958000D02*
X7839000Y-9058000D01*
X7839000Y-9212000D02*
X7939000Y-9312000D01*
X7939000Y-9212000D02*
X7839000Y-9312000D01*
X7839000Y-9466000D02*
X7939000Y-9566000D01*
X7939000Y-9466000D02*
X7839000Y-9566000D01*
X7839000Y-9720000D02*
X7939000Y-9820000D01*
X7939000Y-9720000D02*
X7839000Y-9820000D01*
X7839000Y-9974000D02*
X7939000Y-10074000D01*
X7939000Y-9974000D02*
X7839000Y-10074000D01*
X7839000Y-10482000D02*
X7939000Y-10582000D01*
X7939000Y-10482000D02*
X7839000Y-10582000D01*
X7839000Y-10736000D02*
X7939000Y-10836000D01*
X7939000Y-10736000D02*
X7839000Y-10836000D01*
X8086000Y-4899000D02*
X8186000Y-4999000D01*
X8186000Y-4899000D02*
X8086000Y-4999000D01*
X8086000Y-5153000D02*
X8186000Y-5253000D01*
X8186000Y-5153000D02*
X8086000Y-5253000D01*
X8086000Y-5661000D02*
X8186000Y-5761000D01*
X8186000Y-5661000D02*
X8086000Y-5761000D01*
X8086000Y-5915000D02*
X8186000Y-6015000D01*
X8186000Y-5915000D02*
X8086000Y-6015000D01*
X8086000Y-6169000D02*
X8186000Y-6269000D01*
X8186000Y-6169000D02*
X8086000Y-6269000D01*
X8086000Y-6423000D02*
X8186000Y-6523000D01*
X8186000Y-6423000D02*
X8086000Y-6523000D01*
X8086000Y-6677000D02*
X8186000Y-6777000D01*
X8186000Y-6677000D02*
X8086000Y-6777000D01*
X8086000Y-6931000D02*
X8186000Y-7031000D01*
X8186000Y-6931000D02*
X8086000Y-7031000D01*
X8086000Y-7185000D02*
X8186000Y-7285000D01*
X8186000Y-7185000D02*
X8086000Y-7285000D01*
X8086000Y-7439000D02*
X8186000Y-7539000D01*
X8186000Y-7439000D02*
X8086000Y-7539000D01*
X8087000Y-8201000D02*
X8187000Y-8301000D01*
X8187000Y-8201000D02*
X8087000Y-8301000D01*
X8087000Y-8455000D02*
X8187000Y-8555000D01*
X8187000Y-8455000D02*
X8087000Y-8555000D01*
X8087000Y-8709000D02*
X8187000Y-8809000D01*
X8187000Y-8709000D02*
X8087000Y-8809000D01*
X8087000Y-8963000D02*
X8187000Y-9063000D01*
X8187000Y-8963000D02*
X8087000Y-9063000D01*
X8087000Y-9217000D02*
X8187000Y-9317000D01*
X8187000Y-9217000D02*
X8087000Y-9317000D01*
X8087000Y-9471000D02*
X8187000Y-9571000D01*
X8187000Y-9471000D02*
X8087000Y-9571000D01*
X8087000Y-9725000D02*
X8187000Y-9825000D01*
X8187000Y-9725000D02*
X8087000Y-9825000D01*
X8087000Y-9979000D02*
X8187000Y-10079000D01*
X8187000Y-9979000D02*
X8087000Y-10079000D01*
X8087000Y-10487000D02*
X8187000Y-10587000D01*
X8187000Y-10487000D02*
X8087000Y-10587000D01*
X8087000Y-10741000D02*
X8187000Y-10841000D01*
X8187000Y-10741000D02*
X8087000Y-10841000D01*
X8092000Y-4894000D02*
X8192000Y-4994000D01*
X8192000Y-4894000D02*
X8092000Y-4994000D01*
X8092000Y-5148000D02*
X8192000Y-5248000D01*
X8192000Y-5148000D02*
X8092000Y-5248000D01*
X8092000Y-5656000D02*
X8192000Y-5756000D01*
X8192000Y-5656000D02*
X8092000Y-5756000D01*
X8092000Y-5910000D02*
X8192000Y-6010000D01*
X8192000Y-5910000D02*
X8092000Y-6010000D01*
X8092000Y-6164000D02*
X8192000Y-6264000D01*
X8192000Y-6164000D02*
X8092000Y-6264000D01*
X8092000Y-6418000D02*
X8192000Y-6518000D01*
X8192000Y-6418000D02*
X8092000Y-6518000D01*
X8092000Y-6672000D02*
X8192000Y-6772000D01*
X8192000Y-6672000D02*
X8092000Y-6772000D01*
X8092000Y-6926000D02*
X8192000Y-7026000D01*
X8192000Y-6926000D02*
X8092000Y-7026000D01*
X8092000Y-7180000D02*
X8192000Y-7280000D01*
X8192000Y-7180000D02*
X8092000Y-7280000D01*
X8092000Y-7434000D02*
X8192000Y-7534000D01*
X8192000Y-7434000D02*
X8092000Y-7534000D01*
X8093000Y-8196000D02*
X8193000Y-8296000D01*
X8193000Y-8196000D02*
X8093000Y-8296000D01*
X8093000Y-8450000D02*
X8193000Y-8550000D01*
X8193000Y-8450000D02*
X8093000Y-8550000D01*
X8093000Y-8704000D02*
X8193000Y-8804000D01*
X8193000Y-8704000D02*
X8093000Y-8804000D01*
X8093000Y-8958000D02*
X8193000Y-9058000D01*
X8193000Y-8958000D02*
X8093000Y-9058000D01*
X8093000Y-9212000D02*
X8193000Y-9312000D01*
X8193000Y-9212000D02*
X8093000Y-9312000D01*
X8093000Y-9466000D02*
X8193000Y-9566000D01*
X8193000Y-9466000D02*
X8093000Y-9566000D01*
X8093000Y-9720000D02*
X8193000Y-9820000D01*
X8193000Y-9720000D02*
X8093000Y-9820000D01*
X8093000Y-9974000D02*
X8193000Y-10074000D01*
X8193000Y-9974000D02*
X8093000Y-10074000D01*
X8093000Y-10482000D02*
X8193000Y-10582000D01*
X8193000Y-10482000D02*
X8093000Y-10582000D01*
X8093000Y-10736000D02*
X8193000Y-10836000D01*
X8193000Y-10736000D02*
X8093000Y-10836000D01*
X8340000Y-4899000D02*
X8440000Y-4999000D01*
X8440000Y-4899000D02*
X8340000Y-4999000D01*
X8340000Y-5153000D02*
X8440000Y-5253000D01*
X8440000Y-5153000D02*
X8340000Y-5253000D01*
X8340000Y-5661000D02*
X8440000Y-5761000D01*
X8440000Y-5661000D02*
X8340000Y-5761000D01*
X8340000Y-5915000D02*
X8440000Y-6015000D01*
X8440000Y-5915000D02*
X8340000Y-6015000D01*
X8340000Y-6169000D02*
X8440000Y-6269000D01*
X8440000Y-6169000D02*
X8340000Y-6269000D01*
X8340000Y-6423000D02*
X8440000Y-6523000D01*
X8440000Y-6423000D02*
X8340000Y-6523000D01*
X8340000Y-6677000D02*
X8440000Y-6777000D01*
X8440000Y-6677000D02*
X8340000Y-6777000D01*
X8340000Y-6931000D02*
X8440000Y-7031000D01*
X8440000Y-6931000D02*
X8340000Y-7031000D01*
X8340000Y-7185000D02*
X8440000Y-7285000D01*
X8440000Y-7185000D02*
X8340000Y-7285000D01*
X8340000Y-7439000D02*
X8440000Y-7539000D01*
X8440000Y-7439000D02*
X8340000Y-7539000D01*
X8340500Y-7184500D02*
X8440500Y-7284500D01*
X8440500Y-7184500D02*
X8340500Y-7284500D01*
X8341000Y-8201000D02*
X8441000Y-8301000D01*
X8441000Y-8201000D02*
X8341000Y-8301000D01*
X8341000Y-8455000D02*
X8441000Y-8555000D01*
X8441000Y-8455000D02*
X8341000Y-8555000D01*
X8341000Y-8709000D02*
X8441000Y-8809000D01*
X8441000Y-8709000D02*
X8341000Y-8809000D01*
X8341000Y-8963000D02*
X8441000Y-9063000D01*
X8441000Y-8963000D02*
X8341000Y-9063000D01*
X8341000Y-9217000D02*
X8441000Y-9317000D01*
X8441000Y-9217000D02*
X8341000Y-9317000D01*
X8341000Y-9471000D02*
X8441000Y-9571000D01*
X8441000Y-9471000D02*
X8341000Y-9571000D01*
X8341000Y-9725000D02*
X8441000Y-9825000D01*
X8441000Y-9725000D02*
X8341000Y-9825000D01*
X8341000Y-9979000D02*
X8441000Y-10079000D01*
X8441000Y-9979000D02*
X8341000Y-10079000D01*
X8341000Y-10487000D02*
X8441000Y-10587000D01*
X8441000Y-10487000D02*
X8341000Y-10587000D01*
X8341000Y-10741000D02*
X8441000Y-10841000D01*
X8441000Y-10741000D02*
X8341000Y-10841000D01*
X8346000Y-4894000D02*
X8446000Y-4994000D01*
X8446000Y-4894000D02*
X8346000Y-4994000D01*
X8346000Y-5148000D02*
X8446000Y-5248000D01*
X8446000Y-5148000D02*
X8346000Y-5248000D01*
X8346000Y-5656000D02*
X8446000Y-5756000D01*
X8446000Y-5656000D02*
X8346000Y-5756000D01*
X8346000Y-5910000D02*
X8446000Y-6010000D01*
X8446000Y-5910000D02*
X8346000Y-6010000D01*
X8346000Y-6164000D02*
X8446000Y-6264000D01*
X8446000Y-6164000D02*
X8346000Y-6264000D01*
X8346000Y-6418000D02*
X8446000Y-6518000D01*
X8446000Y-6418000D02*
X8346000Y-6518000D01*
X8346000Y-6672000D02*
X8446000Y-6772000D01*
X8446000Y-6672000D02*
X8346000Y-6772000D01*
X8346000Y-6926000D02*
X8446000Y-7026000D01*
X8446000Y-6926000D02*
X8346000Y-7026000D01*
X8346000Y-7180000D02*
X8446000Y-7280000D01*
X8446000Y-7180000D02*
X8346000Y-7280000D01*
X8346000Y-7434000D02*
X8446000Y-7534000D01*
X8446000Y-7434000D02*
X8346000Y-7534000D01*
X8347000Y-8196000D02*
X8447000Y-8296000D01*
X8447000Y-8196000D02*
X8347000Y-8296000D01*
X8347000Y-8450000D02*
X8447000Y-8550000D01*
X8447000Y-8450000D02*
X8347000Y-8550000D01*
X8347000Y-8704000D02*
X8447000Y-8804000D01*
X8447000Y-8704000D02*
X8347000Y-8804000D01*
X8347000Y-8958000D02*
X8447000Y-9058000D01*
X8447000Y-8958000D02*
X8347000Y-9058000D01*
X8347000Y-9212000D02*
X8447000Y-9312000D01*
X8447000Y-9212000D02*
X8347000Y-9312000D01*
X8347000Y-9466000D02*
X8447000Y-9566000D01*
X8447000Y-9466000D02*
X8347000Y-9566000D01*
X8347000Y-9720000D02*
X8447000Y-9820000D01*
X8447000Y-9720000D02*
X8347000Y-9820000D01*
X8347000Y-9974000D02*
X8447000Y-10074000D01*
X8447000Y-9974000D02*
X8347000Y-10074000D01*
X8347000Y-10482000D02*
X8447000Y-10582000D01*
X8447000Y-10482000D02*
X8347000Y-10582000D01*
X8347000Y-10736000D02*
X8447000Y-10836000D01*
X8447000Y-10736000D02*
X8347000Y-10836000D01*
X8594000Y-4899000D02*
X8694000Y-4999000D01*
X8694000Y-4899000D02*
X8594000Y-4999000D01*
X8594000Y-5153000D02*
X8694000Y-5253000D01*
X8694000Y-5153000D02*
X8594000Y-5253000D01*
X8594000Y-5661000D02*
X8694000Y-5761000D01*
X8694000Y-5661000D02*
X8594000Y-5761000D01*
X8594000Y-5915000D02*
X8694000Y-6015000D01*
X8694000Y-5915000D02*
X8594000Y-6015000D01*
X8594000Y-6169000D02*
X8694000Y-6269000D01*
X8694000Y-6169000D02*
X8594000Y-6269000D01*
X8594000Y-6423000D02*
X8694000Y-6523000D01*
X8694000Y-6423000D02*
X8594000Y-6523000D01*
X8594000Y-6677000D02*
X8694000Y-6777000D01*
X8694000Y-6677000D02*
X8594000Y-6777000D01*
X8594000Y-6931000D02*
X8694000Y-7031000D01*
X8694000Y-6931000D02*
X8594000Y-7031000D01*
X8594000Y-7185000D02*
X8694000Y-7285000D01*
X8694000Y-7185000D02*
X8594000Y-7285000D01*
X8594000Y-7439000D02*
X8694000Y-7539000D01*
X8694000Y-7439000D02*
X8594000Y-7539000D01*
X8595000Y-8201000D02*
X8695000Y-8301000D01*
X8695000Y-8201000D02*
X8595000Y-8301000D01*
X8595000Y-8455000D02*
X8695000Y-8555000D01*
X8695000Y-8455000D02*
X8595000Y-8555000D01*
X8595000Y-8709000D02*
X8695000Y-8809000D01*
X8695000Y-8709000D02*
X8595000Y-8809000D01*
X8595000Y-8963000D02*
X8695000Y-9063000D01*
X8695000Y-8963000D02*
X8595000Y-9063000D01*
X8595000Y-9217000D02*
X8695000Y-9317000D01*
X8695000Y-9217000D02*
X8595000Y-9317000D01*
X8595000Y-9471000D02*
X8695000Y-9571000D01*
X8695000Y-9471000D02*
X8595000Y-9571000D01*
X8595000Y-9725000D02*
X8695000Y-9825000D01*
X8695000Y-9725000D02*
X8595000Y-9825000D01*
X8595000Y-9979000D02*
X8695000Y-10079000D01*
X8695000Y-9979000D02*
X8595000Y-10079000D01*
X8595000Y-10487000D02*
X8695000Y-10587000D01*
X8695000Y-10487000D02*
X8595000Y-10587000D01*
X8595000Y-10741000D02*
X8695000Y-10841000D01*
X8695000Y-10741000D02*
X8595000Y-10841000D01*
X8600000Y-4894000D02*
X8700000Y-4994000D01*
X8700000Y-4894000D02*
X8600000Y-4994000D01*
X8600000Y-5148000D02*
X8700000Y-5248000D01*
X8700000Y-5148000D02*
X8600000Y-5248000D01*
X8600000Y-5656000D02*
X8700000Y-5756000D01*
X8700000Y-5656000D02*
X8600000Y-5756000D01*
X8600000Y-5910000D02*
X8700000Y-6010000D01*
X8700000Y-5910000D02*
X8600000Y-6010000D01*
X8600000Y-6164000D02*
X8700000Y-6264000D01*
X8700000Y-6164000D02*
X8600000Y-6264000D01*
X8600000Y-6418000D02*
X8700000Y-6518000D01*
X8700000Y-6418000D02*
X8600000Y-6518000D01*
X8600000Y-6672000D02*
X8700000Y-6772000D01*
X8700000Y-6672000D02*
X8600000Y-6772000D01*
X8600000Y-6926000D02*
X8700000Y-7026000D01*
X8700000Y-6926000D02*
X8600000Y-7026000D01*
X8600000Y-7180000D02*
X8700000Y-7280000D01*
X8700000Y-7180000D02*
X8600000Y-7280000D01*
X8600000Y-7434000D02*
X8700000Y-7534000D01*
X8700000Y-7434000D02*
X8600000Y-7534000D01*
X8600500Y-8450500D02*
X8700500Y-8550500D01*
X8700500Y-8450500D02*
X8600500Y-8550500D01*
X8601000Y-8196000D02*
X8701000Y-8296000D01*
X8701000Y-8196000D02*
X8601000Y-8296000D01*
X8601000Y-8450000D02*
X8701000Y-8550000D01*
X8701000Y-8450000D02*
X8601000Y-8550000D01*
X8601000Y-8704000D02*
X8701000Y-8804000D01*
X8701000Y-8704000D02*
X8601000Y-8804000D01*
X8601000Y-8958000D02*
X8701000Y-9058000D01*
X8701000Y-8958000D02*
X8601000Y-9058000D01*
X8601000Y-9212000D02*
X8701000Y-9312000D01*
X8701000Y-9212000D02*
X8601000Y-9312000D01*
X8601000Y-9466000D02*
X8701000Y-9566000D01*
X8701000Y-9466000D02*
X8601000Y-9566000D01*
X8601000Y-9720000D02*
X8701000Y-9820000D01*
X8701000Y-9720000D02*
X8601000Y-9820000D01*
X8601000Y-9974000D02*
X8701000Y-10074000D01*
X8701000Y-9974000D02*
X8601000Y-10074000D01*
X8601000Y-10482000D02*
X8701000Y-10582000D01*
X8701000Y-10482000D02*
X8601000Y-10582000D01*
X8601000Y-10736000D02*
X8701000Y-10836000D01*
X8701000Y-10736000D02*
X8601000Y-10836000D01*
X8848000Y-4899000D02*
X8948000Y-4999000D01*
X8948000Y-4899000D02*
X8848000Y-4999000D01*
X8848000Y-5153000D02*
X8948000Y-5253000D01*
X8948000Y-5153000D02*
X8848000Y-5253000D01*
X8848000Y-5661000D02*
X8948000Y-5761000D01*
X8948000Y-5661000D02*
X8848000Y-5761000D01*
X8848000Y-5915000D02*
X8948000Y-6015000D01*
X8948000Y-5915000D02*
X8848000Y-6015000D01*
X8848000Y-6169000D02*
X8948000Y-6269000D01*
X8948000Y-6169000D02*
X8848000Y-6269000D01*
X8848000Y-6423000D02*
X8948000Y-6523000D01*
X8948000Y-6423000D02*
X8848000Y-6523000D01*
X8848000Y-6677000D02*
X8948000Y-6777000D01*
X8948000Y-6677000D02*
X8848000Y-6777000D01*
X8848000Y-6931000D02*
X8948000Y-7031000D01*
X8948000Y-6931000D02*
X8848000Y-7031000D01*
X8848000Y-7185000D02*
X8948000Y-7285000D01*
X8948000Y-7185000D02*
X8848000Y-7285000D01*
X8848000Y-7439000D02*
X8948000Y-7539000D01*
X8948000Y-7439000D02*
X8848000Y-7539000D01*
X8849000Y-8201000D02*
X8949000Y-8301000D01*
X8949000Y-8201000D02*
X8849000Y-8301000D01*
X8849000Y-8455000D02*
X8949000Y-8555000D01*
X8949000Y-8455000D02*
X8849000Y-8555000D01*
X8849000Y-8709000D02*
X8949000Y-8809000D01*
X8949000Y-8709000D02*
X8849000Y-8809000D01*
X8849000Y-8963000D02*
X8949000Y-9063000D01*
X8949000Y-8963000D02*
X8849000Y-9063000D01*
X8849000Y-9217000D02*
X8949000Y-9317000D01*
X8949000Y-9217000D02*
X8849000Y-9317000D01*
X8849000Y-9471000D02*
X8949000Y-9571000D01*
X8949000Y-9471000D02*
X8849000Y-9571000D01*
X8849000Y-9725000D02*
X8949000Y-9825000D01*
X8949000Y-9725000D02*
X8849000Y-9825000D01*
X8849000Y-9979000D02*
X8949000Y-10079000D01*
X8949000Y-9979000D02*
X8849000Y-10079000D01*
X8849000Y-10487000D02*
X8949000Y-10587000D01*
X8949000Y-10487000D02*
X8849000Y-10587000D01*
X8849000Y-10741000D02*
X8949000Y-10841000D01*
X8949000Y-10741000D02*
X8849000Y-10841000D01*
X8854000Y-4894000D02*
X8954000Y-4994000D01*
X8954000Y-4894000D02*
X8854000Y-4994000D01*
X8854000Y-5148000D02*
X8954000Y-5248000D01*
X8954000Y-5148000D02*
X8854000Y-5248000D01*
X8854000Y-5656000D02*
X8954000Y-5756000D01*
X8954000Y-5656000D02*
X8854000Y-5756000D01*
X8854000Y-5910000D02*
X8954000Y-6010000D01*
X8954000Y-5910000D02*
X8854000Y-6010000D01*
X8854000Y-6164000D02*
X8954000Y-6264000D01*
X8954000Y-6164000D02*
X8854000Y-6264000D01*
X8854000Y-6418000D02*
X8954000Y-6518000D01*
X8954000Y-6418000D02*
X8854000Y-6518000D01*
X8854000Y-6672000D02*
X8954000Y-6772000D01*
X8954000Y-6672000D02*
X8854000Y-6772000D01*
X8854000Y-6926000D02*
X8954000Y-7026000D01*
X8954000Y-6926000D02*
X8854000Y-7026000D01*
X8854000Y-7180000D02*
X8954000Y-7280000D01*
X8954000Y-7180000D02*
X8854000Y-7280000D01*
X8854000Y-7434000D02*
X8954000Y-7534000D01*
X8954000Y-7434000D02*
X8854000Y-7534000D01*
X8855000Y-8196000D02*
X8955000Y-8296000D01*
X8955000Y-8196000D02*
X8855000Y-8296000D01*
X8855000Y-8450000D02*
X8955000Y-8550000D01*
X8955000Y-8450000D02*
X8855000Y-8550000D01*
X8855000Y-8704000D02*
X8955000Y-8804000D01*
X8955000Y-8704000D02*
X8855000Y-8804000D01*
X8855000Y-8958000D02*
X8955000Y-9058000D01*
X8955000Y-8958000D02*
X8855000Y-9058000D01*
X8855000Y-9212000D02*
X8955000Y-9312000D01*
X8955000Y-9212000D02*
X8855000Y-9312000D01*
X8855000Y-9466000D02*
X8955000Y-9566000D01*
X8955000Y-9466000D02*
X8855000Y-9566000D01*
X8855000Y-9720000D02*
X8955000Y-9820000D01*
X8955000Y-9720000D02*
X8855000Y-9820000D01*
X8855000Y-9974000D02*
X8955000Y-10074000D01*
X8955000Y-9974000D02*
X8855000Y-10074000D01*
X8855000Y-10482000D02*
X8955000Y-10582000D01*
X8955000Y-10482000D02*
X8855000Y-10582000D01*
X8855000Y-10736000D02*
X8955000Y-10836000D01*
X8955000Y-10736000D02*
X8855000Y-10836000D01*
X9102000Y-4899000D02*
X9202000Y-4999000D01*
X9202000Y-4899000D02*
X9102000Y-4999000D01*
X9102000Y-5153000D02*
X9202000Y-5253000D01*
X9202000Y-5153000D02*
X9102000Y-5253000D01*
X9102000Y-5661000D02*
X9202000Y-5761000D01*
X9202000Y-5661000D02*
X9102000Y-5761000D01*
X9102000Y-5915000D02*
X9202000Y-6015000D01*
X9202000Y-5915000D02*
X9102000Y-6015000D01*
X9102000Y-6169000D02*
X9202000Y-6269000D01*
X9202000Y-6169000D02*
X9102000Y-6269000D01*
X9102000Y-6423000D02*
X9202000Y-6523000D01*
X9202000Y-6423000D02*
X9102000Y-6523000D01*
X9102000Y-6677000D02*
X9202000Y-6777000D01*
X9202000Y-6677000D02*
X9102000Y-6777000D01*
X9102000Y-6931000D02*
X9202000Y-7031000D01*
X9202000Y-6931000D02*
X9102000Y-7031000D01*
X9102000Y-7185000D02*
X9202000Y-7285000D01*
X9202000Y-7185000D02*
X9102000Y-7285000D01*
X9102000Y-7439000D02*
X9202000Y-7539000D01*
X9202000Y-7439000D02*
X9102000Y-7539000D01*
X9103000Y-8201000D02*
X9203000Y-8301000D01*
X9203000Y-8201000D02*
X9103000Y-8301000D01*
X9103000Y-8455000D02*
X9203000Y-8555000D01*
X9203000Y-8455000D02*
X9103000Y-8555000D01*
X9103000Y-8709000D02*
X9203000Y-8809000D01*
X9203000Y-8709000D02*
X9103000Y-8809000D01*
X9103000Y-8963000D02*
X9203000Y-9063000D01*
X9203000Y-8963000D02*
X9103000Y-9063000D01*
X9103000Y-9217000D02*
X9203000Y-9317000D01*
X9203000Y-9217000D02*
X9103000Y-9317000D01*
X9103000Y-9471000D02*
X9203000Y-9571000D01*
X9203000Y-9471000D02*
X9103000Y-9571000D01*
X9103000Y-9725000D02*
X9203000Y-9825000D01*
X9203000Y-9725000D02*
X9103000Y-9825000D01*
X9103000Y-9979000D02*
X9203000Y-10079000D01*
X9203000Y-9979000D02*
X9103000Y-10079000D01*
X9103000Y-10487000D02*
X9203000Y-10587000D01*
X9203000Y-10487000D02*
X9103000Y-10587000D01*
X9103000Y-10741000D02*
X9203000Y-10841000D01*
X9203000Y-10741000D02*
X9103000Y-10841000D01*
X9108000Y-4894000D02*
X9208000Y-4994000D01*
X9208000Y-4894000D02*
X9108000Y-4994000D01*
X9108000Y-5148000D02*
X9208000Y-5248000D01*
X9208000Y-5148000D02*
X9108000Y-5248000D01*
X9108000Y-5656000D02*
X9208000Y-5756000D01*
X9208000Y-5656000D02*
X9108000Y-5756000D01*
X9108000Y-5910000D02*
X9208000Y-6010000D01*
X9208000Y-5910000D02*
X9108000Y-6010000D01*
X9108000Y-6164000D02*
X9208000Y-6264000D01*
X9208000Y-6164000D02*
X9108000Y-6264000D01*
X9108000Y-6418000D02*
X9208000Y-6518000D01*
X9208000Y-6418000D02*
X9108000Y-6518000D01*
X9108000Y-6672000D02*
X9208000Y-6772000D01*
X9208000Y-6672000D02*
X9108000Y-6772000D01*
X9108000Y-6926000D02*
X9208000Y-7026000D01*
X9208000Y-6926000D02*
X9108000Y-7026000D01*
X9108000Y-7180000D02*
X9208000Y-7280000D01*
X9208000Y-7180000D02*
X9108000Y-7280000D01*
X9108000Y-7434000D02*
X9208000Y-7534000D01*
X9208000Y-7434000D02*
X9108000Y-7534000D01*
X9109000Y-8196000D02*
X9209000Y-8296000D01*
X9209000Y-8196000D02*
X9109000Y-8296000D01*
X9109000Y-8450000D02*
X9209000Y-8550000D01*
X9209000Y-8450000D02*
X9109000Y-8550000D01*
X9109000Y-8704000D02*
X9209000Y-8804000D01*
X9209000Y-8704000D02*
X9109000Y-8804000D01*
X9109000Y-8958000D02*
X9209000Y-9058000D01*
X9209000Y-8958000D02*
X9109000Y-9058000D01*
X9109000Y-9212000D02*
X9209000Y-9312000D01*
X9209000Y-9212000D02*
X9109000Y-9312000D01*
X9109000Y-9466000D02*
X9209000Y-9566000D01*
X9209000Y-9466000D02*
X9109000Y-9566000D01*
X9109000Y-9720000D02*
X9209000Y-9820000D01*
X9209000Y-9720000D02*
X9109000Y-9820000D01*
X9109000Y-9974000D02*
X9209000Y-10074000D01*
X9209000Y-9974000D02*
X9109000Y-10074000D01*
X9109000Y-10482000D02*
X9209000Y-10582000D01*
X9209000Y-10482000D02*
X9109000Y-10582000D01*
X9109000Y-10736000D02*
X9209000Y-10836000D01*
X9209000Y-10736000D02*
X9109000Y-10836000D01*
X9356000Y-4899000D02*
X9456000Y-4999000D01*
X9456000Y-4899000D02*
X9356000Y-4999000D01*
X9356000Y-5153000D02*
X9456000Y-5253000D01*
X9456000Y-5153000D02*
X9356000Y-5253000D01*
X9356000Y-5661000D02*
X9456000Y-5761000D01*
X9456000Y-5661000D02*
X9356000Y-5761000D01*
X9356000Y-5915000D02*
X9456000Y-6015000D01*
X9456000Y-5915000D02*
X9356000Y-6015000D01*
X9356000Y-6169000D02*
X9456000Y-6269000D01*
X9456000Y-6169000D02*
X9356000Y-6269000D01*
X9356000Y-6423000D02*
X9456000Y-6523000D01*
X9456000Y-6423000D02*
X9356000Y-6523000D01*
X9356000Y-6677000D02*
X9456000Y-6777000D01*
X9456000Y-6677000D02*
X9356000Y-6777000D01*
X9356000Y-6931000D02*
X9456000Y-7031000D01*
X9456000Y-6931000D02*
X9356000Y-7031000D01*
X9356000Y-7185000D02*
X9456000Y-7285000D01*
X9456000Y-7185000D02*
X9356000Y-7285000D01*
X9356000Y-7439000D02*
X9456000Y-7539000D01*
X9456000Y-7439000D02*
X9356000Y-7539000D01*
X9357000Y-8201000D02*
X9457000Y-8301000D01*
X9457000Y-8201000D02*
X9357000Y-8301000D01*
X9357000Y-8455000D02*
X9457000Y-8555000D01*
X9457000Y-8455000D02*
X9357000Y-8555000D01*
X9357000Y-8709000D02*
X9457000Y-8809000D01*
X9457000Y-8709000D02*
X9357000Y-8809000D01*
X9357000Y-8963000D02*
X9457000Y-9063000D01*
X9457000Y-8963000D02*
X9357000Y-9063000D01*
X9357000Y-9217000D02*
X9457000Y-9317000D01*
X9457000Y-9217000D02*
X9357000Y-9317000D01*
X9357000Y-9471000D02*
X9457000Y-9571000D01*
X9457000Y-9471000D02*
X9357000Y-9571000D01*
X9357000Y-9725000D02*
X9457000Y-9825000D01*
X9457000Y-9725000D02*
X9357000Y-9825000D01*
X9357000Y-9979000D02*
X9457000Y-10079000D01*
X9457000Y-9979000D02*
X9357000Y-10079000D01*
X9357000Y-10487000D02*
X9457000Y-10587000D01*
X9457000Y-10487000D02*
X9357000Y-10587000D01*
X9357000Y-10741000D02*
X9457000Y-10841000D01*
X9457000Y-10741000D02*
X9357000Y-10841000D01*
X9362000Y-4894000D02*
X9462000Y-4994000D01*
X9462000Y-4894000D02*
X9362000Y-4994000D01*
X9362000Y-5148000D02*
X9462000Y-5248000D01*
X9462000Y-5148000D02*
X9362000Y-5248000D01*
X9362000Y-5656000D02*
X9462000Y-5756000D01*
X9462000Y-5656000D02*
X9362000Y-5756000D01*
X9362000Y-5910000D02*
X9462000Y-6010000D01*
X9462000Y-5910000D02*
X9362000Y-6010000D01*
X9362000Y-6164000D02*
X9462000Y-6264000D01*
X9462000Y-6164000D02*
X9362000Y-6264000D01*
X9362000Y-6418000D02*
X9462000Y-6518000D01*
X9462000Y-6418000D02*
X9362000Y-6518000D01*
X9362000Y-6672000D02*
X9462000Y-6772000D01*
X9462000Y-6672000D02*
X9362000Y-6772000D01*
X9362000Y-6926000D02*
X9462000Y-7026000D01*
X9462000Y-6926000D02*
X9362000Y-7026000D01*
X9362000Y-7180000D02*
X9462000Y-7280000D01*
X9462000Y-7180000D02*
X9362000Y-7280000D01*
X9362000Y-7434000D02*
X9462000Y-7534000D01*
X9462000Y-7434000D02*
X9362000Y-7534000D01*
X9363000Y-8196000D02*
X9463000Y-8296000D01*
X9463000Y-8196000D02*
X9363000Y-8296000D01*
X9363000Y-8450000D02*
X9463000Y-8550000D01*
X9463000Y-8450000D02*
X9363000Y-8550000D01*
X9363000Y-8704000D02*
X9463000Y-8804000D01*
X9463000Y-8704000D02*
X9363000Y-8804000D01*
X9363000Y-8958000D02*
X9463000Y-9058000D01*
X9463000Y-8958000D02*
X9363000Y-9058000D01*
X9363000Y-9212000D02*
X9463000Y-9312000D01*
X9463000Y-9212000D02*
X9363000Y-9312000D01*
X9363000Y-9466000D02*
X9463000Y-9566000D01*
X9463000Y-9466000D02*
X9363000Y-9566000D01*
X9363000Y-9720000D02*
X9463000Y-9820000D01*
X9463000Y-9720000D02*
X9363000Y-9820000D01*
X9363000Y-9974000D02*
X9463000Y-10074000D01*
X9463000Y-9974000D02*
X9363000Y-10074000D01*
X9363000Y-10482000D02*
X9463000Y-10582000D01*
X9463000Y-10482000D02*
X9363000Y-10582000D01*
X9363000Y-10736000D02*
X9463000Y-10836000D01*
X9463000Y-10736000D02*
X9363000Y-10836000D01*
X9610000Y-4899000D02*
X9710000Y-4999000D01*
X9710000Y-4899000D02*
X9610000Y-4999000D01*
X9610000Y-5153000D02*
X9710000Y-5253000D01*
X9710000Y-5153000D02*
X9610000Y-5253000D01*
X9610000Y-5661000D02*
X9710000Y-5761000D01*
X9710000Y-5661000D02*
X9610000Y-5761000D01*
X9610000Y-5915000D02*
X9710000Y-6015000D01*
X9710000Y-5915000D02*
X9610000Y-6015000D01*
X9610000Y-6169000D02*
X9710000Y-6269000D01*
X9710000Y-6169000D02*
X9610000Y-6269000D01*
X9610000Y-6423000D02*
X9710000Y-6523000D01*
X9710000Y-6423000D02*
X9610000Y-6523000D01*
X9610000Y-6677000D02*
X9710000Y-6777000D01*
X9710000Y-6677000D02*
X9610000Y-6777000D01*
X9610000Y-6931000D02*
X9710000Y-7031000D01*
X9710000Y-6931000D02*
X9610000Y-7031000D01*
X9610000Y-7185000D02*
X9710000Y-7285000D01*
X9710000Y-7185000D02*
X9610000Y-7285000D01*
X9610000Y-7439000D02*
X9710000Y-7539000D01*
X9710000Y-7439000D02*
X9610000Y-7539000D01*
X9611000Y-8201000D02*
X9711000Y-8301000D01*
X9711000Y-8201000D02*
X9611000Y-8301000D01*
X9611000Y-8455000D02*
X9711000Y-8555000D01*
X9711000Y-8455000D02*
X9611000Y-8555000D01*
X9611000Y-8709000D02*
X9711000Y-8809000D01*
X9711000Y-8709000D02*
X9611000Y-8809000D01*
X9611000Y-8963000D02*
X9711000Y-9063000D01*
X9711000Y-8963000D02*
X9611000Y-9063000D01*
X9611000Y-9217000D02*
X9711000Y-9317000D01*
X9711000Y-9217000D02*
X9611000Y-9317000D01*
X9611000Y-9471000D02*
X9711000Y-9571000D01*
X9711000Y-9471000D02*
X9611000Y-9571000D01*
X9611000Y-9725000D02*
X9711000Y-9825000D01*
X9711000Y-9725000D02*
X9611000Y-9825000D01*
X9611000Y-9979000D02*
X9711000Y-10079000D01*
X9711000Y-9979000D02*
X9611000Y-10079000D01*
X9611000Y-10487000D02*
X9711000Y-10587000D01*
X9711000Y-10487000D02*
X9611000Y-10587000D01*
X9611000Y-10741000D02*
X9711000Y-10841000D01*
X9711000Y-10741000D02*
X9611000Y-10841000D01*
X9616000Y-4894000D02*
X9716000Y-4994000D01*
X9716000Y-4894000D02*
X9616000Y-4994000D01*
X9616000Y-5148000D02*
X9716000Y-5248000D01*
X9716000Y-5148000D02*
X9616000Y-5248000D01*
X9616000Y-5656000D02*
X9716000Y-5756000D01*
X9716000Y-5656000D02*
X9616000Y-5756000D01*
X9616000Y-5910000D02*
X9716000Y-6010000D01*
X9716000Y-5910000D02*
X9616000Y-6010000D01*
X9616000Y-6164000D02*
X9716000Y-6264000D01*
X9716000Y-6164000D02*
X9616000Y-6264000D01*
X9616000Y-6418000D02*
X9716000Y-6518000D01*
X9716000Y-6418000D02*
X9616000Y-6518000D01*
X9616000Y-6672000D02*
X9716000Y-6772000D01*
X9716000Y-6672000D02*
X9616000Y-6772000D01*
X9616000Y-6926000D02*
X9716000Y-7026000D01*
X9716000Y-6926000D02*
X9616000Y-7026000D01*
X9616000Y-7180000D02*
X9716000Y-7280000D01*
X9716000Y-7180000D02*
X9616000Y-7280000D01*
X9616000Y-7434000D02*
X9716000Y-7534000D01*
X9716000Y-7434000D02*
X9616000Y-7534000D01*
X9617000Y-8196000D02*
X9717000Y-8296000D01*
X9717000Y-8196000D02*
X9617000Y-8296000D01*
X9617000Y-8450000D02*
X9717000Y-8550000D01*
X9717000Y-8450000D02*
X9617000Y-8550000D01*
X9617000Y-8704000D02*
X9717000Y-8804000D01*
X9717000Y-8704000D02*
X9617000Y-8804000D01*
X9617000Y-8958000D02*
X9717000Y-9058000D01*
X9717000Y-8958000D02*
X9617000Y-9058000D01*
X9617000Y-9212000D02*
X9717000Y-9312000D01*
X9717000Y-9212000D02*
X9617000Y-9312000D01*
X9617000Y-9466000D02*
X9717000Y-9566000D01*
X9717000Y-9466000D02*
X9617000Y-9566000D01*
X9617000Y-9720000D02*
X9717000Y-9820000D01*
X9717000Y-9720000D02*
X9617000Y-9820000D01*
X9617000Y-9974000D02*
X9717000Y-10074000D01*
X9717000Y-9974000D02*
X9617000Y-10074000D01*
X9617000Y-10482000D02*
X9717000Y-10582000D01*
X9717000Y-10482000D02*
X9617000Y-10582000D01*
X9617000Y-10736000D02*
X9717000Y-10836000D01*
X9717000Y-10736000D02*
X9617000Y-10836000D01*
X9864000Y-4899000D02*
X9964000Y-4999000D01*
X9964000Y-4899000D02*
X9864000Y-4999000D01*
X9864000Y-5153000D02*
X9964000Y-5253000D01*
X9964000Y-5153000D02*
X9864000Y-5253000D01*
X9864000Y-5661000D02*
X9964000Y-5761000D01*
X9964000Y-5661000D02*
X9864000Y-5761000D01*
X9864000Y-5915000D02*
X9964000Y-6015000D01*
X9964000Y-5915000D02*
X9864000Y-6015000D01*
X9864000Y-6169000D02*
X9964000Y-6269000D01*
X9964000Y-6169000D02*
X9864000Y-6269000D01*
X9864000Y-6423000D02*
X9964000Y-6523000D01*
X9964000Y-6423000D02*
X9864000Y-6523000D01*
X9864000Y-6677000D02*
X9964000Y-6777000D01*
X9964000Y-6677000D02*
X9864000Y-6777000D01*
X9864000Y-6931000D02*
X9964000Y-7031000D01*
X9964000Y-6931000D02*
X9864000Y-7031000D01*
X9864000Y-7185000D02*
X9964000Y-7285000D01*
X9964000Y-7185000D02*
X9864000Y-7285000D01*
X9864000Y-7439000D02*
X9964000Y-7539000D01*
X9964000Y-7439000D02*
X9864000Y-7539000D01*
X9865000Y-8201000D02*
X9965000Y-8301000D01*
X9965000Y-8201000D02*
X9865000Y-8301000D01*
X9865000Y-8455000D02*
X9965000Y-8555000D01*
X9965000Y-8455000D02*
X9865000Y-8555000D01*
X9865000Y-8709000D02*
X9965000Y-8809000D01*
X9965000Y-8709000D02*
X9865000Y-8809000D01*
X9865000Y-8963000D02*
X9965000Y-9063000D01*
X9965000Y-8963000D02*
X9865000Y-9063000D01*
X9865000Y-9217000D02*
X9965000Y-9317000D01*
X9965000Y-9217000D02*
X9865000Y-9317000D01*
X9865000Y-9471000D02*
X9965000Y-9571000D01*
X9965000Y-9471000D02*
X9865000Y-9571000D01*
X9865000Y-9725000D02*
X9965000Y-9825000D01*
X9965000Y-9725000D02*
X9865000Y-9825000D01*
X9865000Y-9979000D02*
X9965000Y-10079000D01*
X9965000Y-9979000D02*
X9865000Y-10079000D01*
X9865000Y-10487000D02*
X9965000Y-10587000D01*
X9965000Y-10487000D02*
X9865000Y-10587000D01*
X9865000Y-10741000D02*
X9965000Y-10841000D01*
X9965000Y-10741000D02*
X9865000Y-10841000D01*
X9870000Y-4894000D02*
X9970000Y-4994000D01*
X9970000Y-4894000D02*
X9870000Y-4994000D01*
X9870000Y-5148000D02*
X9970000Y-5248000D01*
X9970000Y-5148000D02*
X9870000Y-5248000D01*
X9870000Y-5656000D02*
X9970000Y-5756000D01*
X9970000Y-5656000D02*
X9870000Y-5756000D01*
X9870000Y-5910000D02*
X9970000Y-6010000D01*
X9970000Y-5910000D02*
X9870000Y-6010000D01*
X9870000Y-6164000D02*
X9970000Y-6264000D01*
X9970000Y-6164000D02*
X9870000Y-6264000D01*
X9870000Y-6418000D02*
X9970000Y-6518000D01*
X9970000Y-6418000D02*
X9870000Y-6518000D01*
X9870000Y-6672000D02*
X9970000Y-6772000D01*
X9970000Y-6672000D02*
X9870000Y-6772000D01*
X9870000Y-6926000D02*
X9970000Y-7026000D01*
X9970000Y-6926000D02*
X9870000Y-7026000D01*
X9870000Y-7180000D02*
X9970000Y-7280000D01*
X9970000Y-7180000D02*
X9870000Y-7280000D01*
X9870000Y-7434000D02*
X9970000Y-7534000D01*
X9970000Y-7434000D02*
X9870000Y-7534000D01*
X9871000Y-8196000D02*
X9971000Y-8296000D01*
X9971000Y-8196000D02*
X9871000Y-8296000D01*
X9871000Y-8450000D02*
X9971000Y-8550000D01*
X9971000Y-8450000D02*
X9871000Y-8550000D01*
X9871000Y-8704000D02*
X9971000Y-8804000D01*
X9971000Y-8704000D02*
X9871000Y-8804000D01*
X9871000Y-8958000D02*
X9971000Y-9058000D01*
X9971000Y-8958000D02*
X9871000Y-9058000D01*
X9871000Y-9212000D02*
X9971000Y-9312000D01*
X9971000Y-9212000D02*
X9871000Y-9312000D01*
X9871000Y-9466000D02*
X9971000Y-9566000D01*
X9971000Y-9466000D02*
X9871000Y-9566000D01*
X9871000Y-9720000D02*
X9971000Y-9820000D01*
X9971000Y-9720000D02*
X9871000Y-9820000D01*
X9871000Y-9974000D02*
X9971000Y-10074000D01*
X9971000Y-9974000D02*
X9871000Y-10074000D01*
X9871000Y-10482000D02*
X9971000Y-10582000D01*
X9971000Y-10482000D02*
X9871000Y-10582000D01*
X9871000Y-10736000D02*
X9971000Y-10836000D01*
X9971000Y-10736000D02*
X9871000Y-10836000D01*
X10118000Y-4899000D02*
X10218000Y-4999000D01*
X10218000Y-4899000D02*
X10118000Y-4999000D01*
X10118000Y-5153000D02*
X10218000Y-5253000D01*
X10218000Y-5153000D02*
X10118000Y-5253000D01*
X10118000Y-5661000D02*
X10218000Y-5761000D01*
X10218000Y-5661000D02*
X10118000Y-5761000D01*
X10118000Y-5915000D02*
X10218000Y-6015000D01*
X10218000Y-5915000D02*
X10118000Y-6015000D01*
X10118000Y-6169000D02*
X10218000Y-6269000D01*
X10218000Y-6169000D02*
X10118000Y-6269000D01*
X10118000Y-6423000D02*
X10218000Y-6523000D01*
X10218000Y-6423000D02*
X10118000Y-6523000D01*
X10118000Y-6677000D02*
X10218000Y-6777000D01*
X10218000Y-6677000D02*
X10118000Y-6777000D01*
X10118000Y-6931000D02*
X10218000Y-7031000D01*
X10218000Y-6931000D02*
X10118000Y-7031000D01*
X10118000Y-7185000D02*
X10218000Y-7285000D01*
X10218000Y-7185000D02*
X10118000Y-7285000D01*
X10118000Y-7439000D02*
X10218000Y-7539000D01*
X10218000Y-7439000D02*
X10118000Y-7539000D01*
X10119000Y-8201000D02*
X10219000Y-8301000D01*
X10219000Y-8201000D02*
X10119000Y-8301000D01*
X10119000Y-8455000D02*
X10219000Y-8555000D01*
X10219000Y-8455000D02*
X10119000Y-8555000D01*
X10119000Y-8709000D02*
X10219000Y-8809000D01*
X10219000Y-8709000D02*
X10119000Y-8809000D01*
X10119000Y-8963000D02*
X10219000Y-9063000D01*
X10219000Y-8963000D02*
X10119000Y-9063000D01*
X10119000Y-9217000D02*
X10219000Y-9317000D01*
X10219000Y-9217000D02*
X10119000Y-9317000D01*
X10119000Y-9471000D02*
X10219000Y-9571000D01*
X10219000Y-9471000D02*
X10119000Y-9571000D01*
X10119000Y-9725000D02*
X10219000Y-9825000D01*
X10219000Y-9725000D02*
X10119000Y-9825000D01*
X10119000Y-9979000D02*
X10219000Y-10079000D01*
X10219000Y-9979000D02*
X10119000Y-10079000D01*
X10119000Y-10487000D02*
X10219000Y-10587000D01*
X10219000Y-10487000D02*
X10119000Y-10587000D01*
X10119000Y-10741000D02*
X10219000Y-10841000D01*
X10219000Y-10741000D02*
X10119000Y-10841000D01*
X10124000Y-4894000D02*
X10224000Y-4994000D01*
X10224000Y-4894000D02*
X10124000Y-4994000D01*
X10124000Y-5148000D02*
X10224000Y-5248000D01*
X10224000Y-5148000D02*
X10124000Y-5248000D01*
X10124000Y-5656000D02*
X10224000Y-5756000D01*
X10224000Y-5656000D02*
X10124000Y-5756000D01*
X10124000Y-5910000D02*
X10224000Y-6010000D01*
X10224000Y-5910000D02*
X10124000Y-6010000D01*
X10124000Y-6164000D02*
X10224000Y-6264000D01*
X10224000Y-6164000D02*
X10124000Y-6264000D01*
X10124000Y-6418000D02*
X10224000Y-6518000D01*
X10224000Y-6418000D02*
X10124000Y-6518000D01*
X10124000Y-6672000D02*
X10224000Y-6772000D01*
X10224000Y-6672000D02*
X10124000Y-6772000D01*
X10124000Y-6926000D02*
X10224000Y-7026000D01*
X10224000Y-6926000D02*
X10124000Y-7026000D01*
X10124000Y-7180000D02*
X10224000Y-7280000D01*
X10224000Y-7180000D02*
X10124000Y-7280000D01*
X10124000Y-7434000D02*
X10224000Y-7534000D01*
X10224000Y-7434000D02*
X10124000Y-7534000D01*
X10125000Y-8196000D02*
X10225000Y-8296000D01*
X10225000Y-8196000D02*
X10125000Y-8296000D01*
X10125000Y-8450000D02*
X10225000Y-8550000D01*
X10225000Y-8450000D02*
X10125000Y-8550000D01*
X10125000Y-8704000D02*
X10225000Y-8804000D01*
X10225000Y-8704000D02*
X10125000Y-8804000D01*
X10125000Y-8958000D02*
X10225000Y-9058000D01*
X10225000Y-8958000D02*
X10125000Y-9058000D01*
X10125000Y-9212000D02*
X10225000Y-9312000D01*
X10225000Y-9212000D02*
X10125000Y-9312000D01*
X10125000Y-9466000D02*
X10225000Y-9566000D01*
X10225000Y-9466000D02*
X10125000Y-9566000D01*
X10125000Y-9720000D02*
X10225000Y-9820000D01*
X10225000Y-9720000D02*
X10125000Y-9820000D01*
X10125000Y-9974000D02*
X10225000Y-10074000D01*
X10225000Y-9974000D02*
X10125000Y-10074000D01*
X10125000Y-10482000D02*
X10225000Y-10582000D01*
X10225000Y-10482000D02*
X10125000Y-10582000D01*
X10125000Y-10736000D02*
X10225000Y-10836000D01*
X10225000Y-10736000D02*
X10125000Y-10836000D01*
X10372000Y-4899000D02*
X10472000Y-4999000D01*
X10472000Y-4899000D02*
X10372000Y-4999000D01*
X10372000Y-5153000D02*
X10472000Y-5253000D01*
X10472000Y-5153000D02*
X10372000Y-5253000D01*
X10372000Y-5661000D02*
X10472000Y-5761000D01*
X10472000Y-5661000D02*
X10372000Y-5761000D01*
X10372000Y-5915000D02*
X10472000Y-6015000D01*
X10472000Y-5915000D02*
X10372000Y-6015000D01*
X10372000Y-6169000D02*
X10472000Y-6269000D01*
X10472000Y-6169000D02*
X10372000Y-6269000D01*
X10372000Y-6423000D02*
X10472000Y-6523000D01*
X10472000Y-6423000D02*
X10372000Y-6523000D01*
X10372000Y-6677000D02*
X10472000Y-6777000D01*
X10472000Y-6677000D02*
X10372000Y-6777000D01*
X10372000Y-6931000D02*
X10472000Y-7031000D01*
X10472000Y-6931000D02*
X10372000Y-7031000D01*
X10372000Y-7185000D02*
X10472000Y-7285000D01*
X10472000Y-7185000D02*
X10372000Y-7285000D01*
X10372000Y-7439000D02*
X10472000Y-7539000D01*
X10472000Y-7439000D02*
X10372000Y-7539000D01*
X10373000Y-8201000D02*
X10473000Y-8301000D01*
X10473000Y-8201000D02*
X10373000Y-8301000D01*
X10373000Y-8455000D02*
X10473000Y-8555000D01*
X10473000Y-8455000D02*
X10373000Y-8555000D01*
X10373000Y-8709000D02*
X10473000Y-8809000D01*
X10473000Y-8709000D02*
X10373000Y-8809000D01*
X10373000Y-8963000D02*
X10473000Y-9063000D01*
X10473000Y-8963000D02*
X10373000Y-9063000D01*
X10373000Y-9217000D02*
X10473000Y-9317000D01*
X10473000Y-9217000D02*
X10373000Y-9317000D01*
X10373000Y-9471000D02*
X10473000Y-9571000D01*
X10473000Y-9471000D02*
X10373000Y-9571000D01*
X10373000Y-9725000D02*
X10473000Y-9825000D01*
X10473000Y-9725000D02*
X10373000Y-9825000D01*
X10373000Y-9979000D02*
X10473000Y-10079000D01*
X10473000Y-9979000D02*
X10373000Y-10079000D01*
X10373000Y-10487000D02*
X10473000Y-10587000D01*
X10473000Y-10487000D02*
X10373000Y-10587000D01*
X10373000Y-10741000D02*
X10473000Y-10841000D01*
X10473000Y-10741000D02*
X10373000Y-10841000D01*
X10378000Y-4894000D02*
X10478000Y-4994000D01*
X10478000Y-4894000D02*
X10378000Y-4994000D01*
X10378000Y-5148000D02*
X10478000Y-5248000D01*
X10478000Y-5148000D02*
X10378000Y-5248000D01*
X10378000Y-5656000D02*
X10478000Y-5756000D01*
X10478000Y-5656000D02*
X10378000Y-5756000D01*
X10378000Y-5910000D02*
X10478000Y-6010000D01*
X10478000Y-5910000D02*
X10378000Y-6010000D01*
X10378000Y-6164000D02*
X10478000Y-6264000D01*
X10478000Y-6164000D02*
X10378000Y-6264000D01*
X10378000Y-6418000D02*
X10478000Y-6518000D01*
X10478000Y-6418000D02*
X10378000Y-6518000D01*
X10378000Y-6672000D02*
X10478000Y-6772000D01*
X10478000Y-6672000D02*
X10378000Y-6772000D01*
X10378000Y-6926000D02*
X10478000Y-7026000D01*
X10478000Y-6926000D02*
X10378000Y-7026000D01*
X10378000Y-7180000D02*
X10478000Y-7280000D01*
X10478000Y-7180000D02*
X10378000Y-7280000D01*
X10378000Y-7434000D02*
X10478000Y-7534000D01*
X10478000Y-7434000D02*
X10378000Y-7534000D01*
X10379000Y-8196000D02*
X10479000Y-8296000D01*
X10479000Y-8196000D02*
X10379000Y-8296000D01*
X10379000Y-8450000D02*
X10479000Y-8550000D01*
X10479000Y-8450000D02*
X10379000Y-8550000D01*
X10379000Y-8704000D02*
X10479000Y-8804000D01*
X10479000Y-8704000D02*
X10379000Y-8804000D01*
X10379000Y-8958000D02*
X10479000Y-9058000D01*
X10479000Y-8958000D02*
X10379000Y-9058000D01*
X10379000Y-9212000D02*
X10479000Y-9312000D01*
X10479000Y-9212000D02*
X10379000Y-9312000D01*
X10379000Y-9466000D02*
X10479000Y-9566000D01*
X10479000Y-9466000D02*
X10379000Y-9566000D01*
X10379000Y-9720000D02*
X10479000Y-9820000D01*
X10479000Y-9720000D02*
X10379000Y-9820000D01*
X10379000Y-9974000D02*
X10479000Y-10074000D01*
X10479000Y-9974000D02*
X10379000Y-10074000D01*
X10379000Y-10482000D02*
X10479000Y-10582000D01*
X10479000Y-10482000D02*
X10379000Y-10582000D01*
X10379000Y-10736000D02*
X10479000Y-10836000D01*
X10479000Y-10736000D02*
X10379000Y-10836000D01*
X10626000Y-4899000D02*
X10726000Y-4999000D01*
X10726000Y-4899000D02*
X10626000Y-4999000D01*
X10626000Y-5153000D02*
X10726000Y-5253000D01*
X10726000Y-5153000D02*
X10626000Y-5253000D01*
X10626000Y-5661000D02*
X10726000Y-5761000D01*
X10726000Y-5661000D02*
X10626000Y-5761000D01*
X10626000Y-5915000D02*
X10726000Y-6015000D01*
X10726000Y-5915000D02*
X10626000Y-6015000D01*
X10626000Y-6169000D02*
X10726000Y-6269000D01*
X10726000Y-6169000D02*
X10626000Y-6269000D01*
X10626000Y-6423000D02*
X10726000Y-6523000D01*
X10726000Y-6423000D02*
X10626000Y-6523000D01*
X10626000Y-6677000D02*
X10726000Y-6777000D01*
X10726000Y-6677000D02*
X10626000Y-6777000D01*
X10626000Y-6931000D02*
X10726000Y-7031000D01*
X10726000Y-6931000D02*
X10626000Y-7031000D01*
X10626000Y-7185000D02*
X10726000Y-7285000D01*
X10726000Y-7185000D02*
X10626000Y-7285000D01*
X10626000Y-7439000D02*
X10726000Y-7539000D01*
X10726000Y-7439000D02*
X10626000Y-7539000D01*
X10627000Y-8201000D02*
X10727000Y-8301000D01*
X10727000Y-8201000D02*
X10627000Y-8301000D01*
X10627000Y-8455000D02*
X10727000Y-8555000D01*
X10727000Y-8455000D02*
X10627000Y-8555000D01*
X10627000Y-8709000D02*
X10727000Y-8809000D01*
X10727000Y-8709000D02*
X10627000Y-8809000D01*
X10627000Y-8963000D02*
X10727000Y-9063000D01*
X10727000Y-8963000D02*
X10627000Y-9063000D01*
X10627000Y-9217000D02*
X10727000Y-9317000D01*
X10727000Y-9217000D02*
X10627000Y-9317000D01*
X10627000Y-9471000D02*
X10727000Y-9571000D01*
X10727000Y-9471000D02*
X10627000Y-9571000D01*
X10627000Y-9725000D02*
X10727000Y-9825000D01*
X10727000Y-9725000D02*
X10627000Y-9825000D01*
X10627000Y-9979000D02*
X10727000Y-10079000D01*
X10727000Y-9979000D02*
X10627000Y-10079000D01*
X10627000Y-10487000D02*
X10727000Y-10587000D01*
X10727000Y-10487000D02*
X10627000Y-10587000D01*
X10627000Y-10741000D02*
X10727000Y-10841000D01*
X10727000Y-10741000D02*
X10627000Y-10841000D01*
X10632000Y-4894000D02*
X10732000Y-4994000D01*
X10732000Y-4894000D02*
X10632000Y-4994000D01*
X10632000Y-5148000D02*
X10732000Y-5248000D01*
X10732000Y-5148000D02*
X10632000Y-5248000D01*
X10632000Y-5656000D02*
X10732000Y-5756000D01*
X10732000Y-5656000D02*
X10632000Y-5756000D01*
X10632000Y-5910000D02*
X10732000Y-6010000D01*
X10732000Y-5910000D02*
X10632000Y-6010000D01*
X10632000Y-6164000D02*
X10732000Y-6264000D01*
X10732000Y-6164000D02*
X10632000Y-6264000D01*
X10632000Y-6418000D02*
X10732000Y-6518000D01*
X10732000Y-6418000D02*
X10632000Y-6518000D01*
X10632000Y-6672000D02*
X10732000Y-6772000D01*
X10732000Y-6672000D02*
X10632000Y-6772000D01*
X10632000Y-6926000D02*
X10732000Y-7026000D01*
X10732000Y-6926000D02*
X10632000Y-7026000D01*
X10632000Y-7180000D02*
X10732000Y-7280000D01*
X10732000Y-7180000D02*
X10632000Y-7280000D01*
X10632000Y-7434000D02*
X10732000Y-7534000D01*
X10732000Y-7434000D02*
X10632000Y-7534000D01*
X10633000Y-8196000D02*
X10733000Y-8296000D01*
X10733000Y-8196000D02*
X10633000Y-8296000D01*
X10633000Y-8450000D02*
X10733000Y-8550000D01*
X10733000Y-8450000D02*
X10633000Y-8550000D01*
X10633000Y-8704000D02*
X10733000Y-8804000D01*
X10733000Y-8704000D02*
X10633000Y-8804000D01*
X10633000Y-8958000D02*
X10733000Y-9058000D01*
X10733000Y-8958000D02*
X10633000Y-9058000D01*
X10633000Y-9212000D02*
X10733000Y-9312000D01*
X10733000Y-9212000D02*
X10633000Y-9312000D01*
X10633000Y-9466000D02*
X10733000Y-9566000D01*
X10733000Y-9466000D02*
X10633000Y-9566000D01*
X10633000Y-9720000D02*
X10733000Y-9820000D01*
X10733000Y-9720000D02*
X10633000Y-9820000D01*
X10633000Y-9974000D02*
X10733000Y-10074000D01*
X10733000Y-9974000D02*
X10633000Y-10074000D01*
X10633000Y-10482000D02*
X10733000Y-10582000D01*
X10733000Y-10482000D02*
X10633000Y-10582000D01*
X10633000Y-10736000D02*
X10733000Y-10836000D01*
X10733000Y-10736000D02*
X10633000Y-10836000D01*
X10880000Y-4899000D02*
X10980000Y-4999000D01*
X10980000Y-4899000D02*
X10880000Y-4999000D01*
X10880000Y-5153000D02*
X10980000Y-5253000D01*
X10980000Y-5153000D02*
X10880000Y-5253000D01*
X10880000Y-5661000D02*
X10980000Y-5761000D01*
X10980000Y-5661000D02*
X10880000Y-5761000D01*
X10880000Y-5915000D02*
X10980000Y-6015000D01*
X10980000Y-5915000D02*
X10880000Y-6015000D01*
X10880000Y-6169000D02*
X10980000Y-6269000D01*
X10980000Y-6169000D02*
X10880000Y-6269000D01*
X10880000Y-6423000D02*
X10980000Y-6523000D01*
X10980000Y-6423000D02*
X10880000Y-6523000D01*
X10880000Y-6677000D02*
X10980000Y-6777000D01*
X10980000Y-6677000D02*
X10880000Y-6777000D01*
X10880000Y-6931000D02*
X10980000Y-7031000D01*
X10980000Y-6931000D02*
X10880000Y-7031000D01*
X10880000Y-7185000D02*
X10980000Y-7285000D01*
X10980000Y-7185000D02*
X10880000Y-7285000D01*
X10880000Y-7439000D02*
X10980000Y-7539000D01*
X10980000Y-7439000D02*
X10880000Y-7539000D01*
X10881000Y-8201000D02*
X10981000Y-8301000D01*
X10981000Y-8201000D02*
X10881000Y-8301000D01*
X10881000Y-8455000D02*
X10981000Y-8555000D01*
X10981000Y-8455000D02*
X10881000Y-8555000D01*
X10881000Y-8709000D02*
X10981000Y-8809000D01*
X10981000Y-8709000D02*
X10881000Y-8809000D01*
X10881000Y-8963000D02*
X10981000Y-9063000D01*
X10981000Y-8963000D02*
X10881000Y-9063000D01*
X10881000Y-9217000D02*
X10981000Y-9317000D01*
X10981000Y-9217000D02*
X10881000Y-9317000D01*
X10881000Y-9471000D02*
X10981000Y-9571000D01*
X10981000Y-9471000D02*
X10881000Y-9571000D01*
X10881000Y-9725000D02*
X10981000Y-9825000D01*
X10981000Y-9725000D02*
X10881000Y-9825000D01*
X10881000Y-9979000D02*
X10981000Y-10079000D01*
X10981000Y-9979000D02*
X10881000Y-10079000D01*
X10881000Y-10487000D02*
X10981000Y-10587000D01*
X10981000Y-10487000D02*
X10881000Y-10587000D01*
X10881000Y-10741000D02*
X10981000Y-10841000D01*
X10981000Y-10741000D02*
X10881000Y-10841000D01*
X10886000Y-4894000D02*
X10986000Y-4994000D01*
X10986000Y-4894000D02*
X10886000Y-4994000D01*
X10886000Y-5148000D02*
X10986000Y-5248000D01*
X10986000Y-5148000D02*
X10886000Y-5248000D01*
X10886000Y-5656000D02*
X10986000Y-5756000D01*
X10986000Y-5656000D02*
X10886000Y-5756000D01*
X10886000Y-5910000D02*
X10986000Y-6010000D01*
X10986000Y-5910000D02*
X10886000Y-6010000D01*
X10886000Y-6164000D02*
X10986000Y-6264000D01*
X10986000Y-6164000D02*
X10886000Y-6264000D01*
X10886000Y-6418000D02*
X10986000Y-6518000D01*
X10986000Y-6418000D02*
X10886000Y-6518000D01*
X10886000Y-6672000D02*
X10986000Y-6772000D01*
X10986000Y-6672000D02*
X10886000Y-6772000D01*
X10886000Y-6926000D02*
X10986000Y-7026000D01*
X10986000Y-6926000D02*
X10886000Y-7026000D01*
X10886000Y-7180000D02*
X10986000Y-7280000D01*
X10986000Y-7180000D02*
X10886000Y-7280000D01*
X10886000Y-7434000D02*
X10986000Y-7534000D01*
X10986000Y-7434000D02*
X10886000Y-7534000D01*
X10887000Y-8196000D02*
X10987000Y-8296000D01*
X10987000Y-8196000D02*
X10887000Y-8296000D01*
X10887000Y-8450000D02*
X10987000Y-8550000D01*
X10987000Y-8450000D02*
X10887000Y-8550000D01*
X10887000Y-8704000D02*
X10987000Y-8804000D01*
X10987000Y-8704000D02*
X10887000Y-8804000D01*
X10887000Y-8958000D02*
X10987000Y-9058000D01*
X10987000Y-8958000D02*
X10887000Y-9058000D01*
X10887000Y-9212000D02*
X10987000Y-9312000D01*
X10987000Y-9212000D02*
X10887000Y-9312000D01*
X10887000Y-9466000D02*
X10987000Y-9566000D01*
X10987000Y-9466000D02*
X10887000Y-9566000D01*
X10887000Y-9720000D02*
X10987000Y-9820000D01*
X10987000Y-9720000D02*
X10887000Y-9820000D01*
X10887000Y-9974000D02*
X10987000Y-10074000D01*
X10987000Y-9974000D02*
X10887000Y-10074000D01*
X10887000Y-10482000D02*
X10987000Y-10582000D01*
X10987000Y-10482000D02*
X10887000Y-10582000D01*
X10887000Y-10736000D02*
X10987000Y-10836000D01*
X10987000Y-10736000D02*
X10887000Y-10836000D01*
X11134000Y-4899000D02*
X11234000Y-4999000D01*
X11234000Y-4899000D02*
X11134000Y-4999000D01*
X11134000Y-5153000D02*
X11234000Y-5253000D01*
X11234000Y-5153000D02*
X11134000Y-5253000D01*
X11134000Y-5661000D02*
X11234000Y-5761000D01*
X11234000Y-5661000D02*
X11134000Y-5761000D01*
X11134000Y-5915000D02*
X11234000Y-6015000D01*
X11234000Y-5915000D02*
X11134000Y-6015000D01*
X11134000Y-6169000D02*
X11234000Y-6269000D01*
X11234000Y-6169000D02*
X11134000Y-6269000D01*
X11134000Y-6423000D02*
X11234000Y-6523000D01*
X11234000Y-6423000D02*
X11134000Y-6523000D01*
X11134000Y-6677000D02*
X11234000Y-6777000D01*
X11234000Y-6677000D02*
X11134000Y-6777000D01*
X11134000Y-6931000D02*
X11234000Y-7031000D01*
X11234000Y-6931000D02*
X11134000Y-7031000D01*
X11134000Y-7185000D02*
X11234000Y-7285000D01*
X11234000Y-7185000D02*
X11134000Y-7285000D01*
X11134000Y-7439000D02*
X11234000Y-7539000D01*
X11234000Y-7439000D02*
X11134000Y-7539000D01*
X11135000Y-8201000D02*
X11235000Y-8301000D01*
X11235000Y-8201000D02*
X11135000Y-8301000D01*
X11135000Y-8455000D02*
X11235000Y-8555000D01*
X11235000Y-8455000D02*
X11135000Y-8555000D01*
X11135000Y-8709000D02*
X11235000Y-8809000D01*
X11235000Y-8709000D02*
X11135000Y-8809000D01*
X11135000Y-8963000D02*
X11235000Y-9063000D01*
X11235000Y-8963000D02*
X11135000Y-9063000D01*
X11135000Y-9217000D02*
X11235000Y-9317000D01*
X11235000Y-9217000D02*
X11135000Y-9317000D01*
X11135000Y-9471000D02*
X11235000Y-9571000D01*
X11235000Y-9471000D02*
X11135000Y-9571000D01*
X11135000Y-9725000D02*
X11235000Y-9825000D01*
X11235000Y-9725000D02*
X11135000Y-9825000D01*
X11135000Y-9979000D02*
X11235000Y-10079000D01*
X11235000Y-9979000D02*
X11135000Y-10079000D01*
X11135000Y-10487000D02*
X11235000Y-10587000D01*
X11235000Y-10487000D02*
X11135000Y-10587000D01*
X11135000Y-10741000D02*
X11235000Y-10841000D01*
X11235000Y-10741000D02*
X11135000Y-10841000D01*
X11140000Y-4894000D02*
X11240000Y-4994000D01*
X11240000Y-4894000D02*
X11140000Y-4994000D01*
X11140000Y-5148000D02*
X11240000Y-5248000D01*
X11240000Y-5148000D02*
X11140000Y-5248000D01*
X11140000Y-5656000D02*
X11240000Y-5756000D01*
X11240000Y-5656000D02*
X11140000Y-5756000D01*
X11140000Y-5910000D02*
X11240000Y-6010000D01*
X11240000Y-5910000D02*
X11140000Y-6010000D01*
X11140000Y-6164000D02*
X11240000Y-6264000D01*
X11240000Y-6164000D02*
X11140000Y-6264000D01*
X11140000Y-6418000D02*
X11240000Y-6518000D01*
X11240000Y-6418000D02*
X11140000Y-6518000D01*
X11140000Y-6672000D02*
X11240000Y-6772000D01*
X11240000Y-6672000D02*
X11140000Y-6772000D01*
X11140000Y-6926000D02*
X11240000Y-7026000D01*
X11240000Y-6926000D02*
X11140000Y-7026000D01*
X11140000Y-7180000D02*
X11240000Y-7280000D01*
X11240000Y-7180000D02*
X11140000Y-7280000D01*
X11140000Y-7434000D02*
X11240000Y-7534000D01*
X11240000Y-7434000D02*
X11140000Y-7534000D01*
X11141000Y-8196000D02*
X11241000Y-8296000D01*
X11241000Y-8196000D02*
X11141000Y-8296000D01*
X11141000Y-8450000D02*
X11241000Y-8550000D01*
X11241000Y-8450000D02*
X11141000Y-8550000D01*
X11141000Y-8704000D02*
X11241000Y-8804000D01*
X11241000Y-8704000D02*
X11141000Y-8804000D01*
X11141000Y-8958000D02*
X11241000Y-9058000D01*
X11241000Y-8958000D02*
X11141000Y-9058000D01*
X11141000Y-9212000D02*
X11241000Y-9312000D01*
X11241000Y-9212000D02*
X11141000Y-9312000D01*
X11141000Y-9466000D02*
X11241000Y-9566000D01*
X11241000Y-9466000D02*
X11141000Y-9566000D01*
X11141000Y-9720000D02*
X11241000Y-9820000D01*
X11241000Y-9720000D02*
X11141000Y-9820000D01*
X11141000Y-9974000D02*
X11241000Y-10074000D01*
X11241000Y-9974000D02*
X11141000Y-10074000D01*
X11141000Y-10482000D02*
X11241000Y-10582000D01*
X11241000Y-10482000D02*
X11141000Y-10582000D01*
X11141000Y-10736000D02*
X11241000Y-10836000D01*
X11241000Y-10736000D02*
X11141000Y-10836000D01*
X11388000Y-4899000D02*
X11488000Y-4999000D01*
X11488000Y-4899000D02*
X11388000Y-4999000D01*
X11388000Y-5153000D02*
X11488000Y-5253000D01*
X11488000Y-5153000D02*
X11388000Y-5253000D01*
X11388000Y-5661000D02*
X11488000Y-5761000D01*
X11488000Y-5661000D02*
X11388000Y-5761000D01*
X11388000Y-5915000D02*
X11488000Y-6015000D01*
X11488000Y-5915000D02*
X11388000Y-6015000D01*
X11388000Y-6169000D02*
X11488000Y-6269000D01*
X11488000Y-6169000D02*
X11388000Y-6269000D01*
X11388000Y-6423000D02*
X11488000Y-6523000D01*
X11488000Y-6423000D02*
X11388000Y-6523000D01*
X11388000Y-6677000D02*
X11488000Y-6777000D01*
X11488000Y-6677000D02*
X11388000Y-6777000D01*
X11388000Y-6931000D02*
X11488000Y-7031000D01*
X11488000Y-6931000D02*
X11388000Y-7031000D01*
X11388000Y-7185000D02*
X11488000Y-7285000D01*
X11488000Y-7185000D02*
X11388000Y-7285000D01*
X11388000Y-7439000D02*
X11488000Y-7539000D01*
X11488000Y-7439000D02*
X11388000Y-7539000D01*
X11389000Y-8201000D02*
X11489000Y-8301000D01*
X11489000Y-8201000D02*
X11389000Y-8301000D01*
X11389000Y-8455000D02*
X11489000Y-8555000D01*
X11489000Y-8455000D02*
X11389000Y-8555000D01*
X11389000Y-8709000D02*
X11489000Y-8809000D01*
X11489000Y-8709000D02*
X11389000Y-8809000D01*
X11389000Y-8963000D02*
X11489000Y-9063000D01*
X11489000Y-8963000D02*
X11389000Y-9063000D01*
X11389000Y-9217000D02*
X11489000Y-9317000D01*
X11489000Y-9217000D02*
X11389000Y-9317000D01*
X11389000Y-9471000D02*
X11489000Y-9571000D01*
X11489000Y-9471000D02*
X11389000Y-9571000D01*
X11389000Y-9725000D02*
X11489000Y-9825000D01*
X11489000Y-9725000D02*
X11389000Y-9825000D01*
X11389000Y-9979000D02*
X11489000Y-10079000D01*
X11489000Y-9979000D02*
X11389000Y-10079000D01*
X11389000Y-10487000D02*
X11489000Y-10587000D01*
X11489000Y-10487000D02*
X11389000Y-10587000D01*
X11389000Y-10741000D02*
X11489000Y-10841000D01*
X11489000Y-10741000D02*
X11389000Y-10841000D01*
X11394000Y-4894000D02*
X11494000Y-4994000D01*
X11494000Y-4894000D02*
X11394000Y-4994000D01*
X11394000Y-5148000D02*
X11494000Y-5248000D01*
X11494000Y-5148000D02*
X11394000Y-5248000D01*
X11394000Y-5656000D02*
X11494000Y-5756000D01*
X11494000Y-5656000D02*
X11394000Y-5756000D01*
X11394000Y-5910000D02*
X11494000Y-6010000D01*
X11494000Y-5910000D02*
X11394000Y-6010000D01*
X11394000Y-6164000D02*
X11494000Y-6264000D01*
X11494000Y-6164000D02*
X11394000Y-6264000D01*
X11394000Y-6418000D02*
X11494000Y-6518000D01*
X11494000Y-6418000D02*
X11394000Y-6518000D01*
X11394000Y-6672000D02*
X11494000Y-6772000D01*
X11494000Y-6672000D02*
X11394000Y-6772000D01*
X11394000Y-6926000D02*
X11494000Y-7026000D01*
X11494000Y-6926000D02*
X11394000Y-7026000D01*
X11394000Y-7180000D02*
X11494000Y-7280000D01*
X11494000Y-7180000D02*
X11394000Y-7280000D01*
X11394000Y-7434000D02*
X11494000Y-7534000D01*
X11494000Y-7434000D02*
X11394000Y-7534000D01*
X11395000Y-8196000D02*
X11495000Y-8296000D01*
X11495000Y-8196000D02*
X11395000Y-8296000D01*
X11395000Y-8450000D02*
X11495000Y-8550000D01*
X11495000Y-8450000D02*
X11395000Y-8550000D01*
X11395000Y-8704000D02*
X11495000Y-8804000D01*
X11495000Y-8704000D02*
X11395000Y-8804000D01*
X11395000Y-8958000D02*
X11495000Y-9058000D01*
X11495000Y-8958000D02*
X11395000Y-9058000D01*
X11395000Y-9212000D02*
X11495000Y-9312000D01*
X11495000Y-9212000D02*
X11395000Y-9312000D01*
X11395000Y-9466000D02*
X11495000Y-9566000D01*
X11495000Y-9466000D02*
X11395000Y-9566000D01*
X11395000Y-9720000D02*
X11495000Y-9820000D01*
X11495000Y-9720000D02*
X11395000Y-9820000D01*
X11395000Y-9974000D02*
X11495000Y-10074000D01*
X11495000Y-9974000D02*
X11395000Y-10074000D01*
X11395000Y-10482000D02*
X11495000Y-10582000D01*
X11495000Y-10482000D02*
X11395000Y-10582000D01*
X11395000Y-10736000D02*
X11495000Y-10836000D01*
X11495000Y-10736000D02*
X11395000Y-10836000D01*
X11642000Y-4899000D02*
X11742000Y-4999000D01*
X11742000Y-4899000D02*
X11642000Y-4999000D01*
X11642000Y-5153000D02*
X11742000Y-5253000D01*
X11742000Y-5153000D02*
X11642000Y-5253000D01*
X11642000Y-5661000D02*
X11742000Y-5761000D01*
X11742000Y-5661000D02*
X11642000Y-5761000D01*
X11642000Y-5915000D02*
X11742000Y-6015000D01*
X11742000Y-5915000D02*
X11642000Y-6015000D01*
X11642000Y-6169000D02*
X11742000Y-6269000D01*
X11742000Y-6169000D02*
X11642000Y-6269000D01*
X11642000Y-6423000D02*
X11742000Y-6523000D01*
X11742000Y-6423000D02*
X11642000Y-6523000D01*
X11642000Y-6677000D02*
X11742000Y-6777000D01*
X11742000Y-6677000D02*
X11642000Y-6777000D01*
X11642000Y-6931000D02*
X11742000Y-7031000D01*
X11742000Y-6931000D02*
X11642000Y-7031000D01*
X11642000Y-7185000D02*
X11742000Y-7285000D01*
X11742000Y-7185000D02*
X11642000Y-7285000D01*
X11642000Y-7439000D02*
X11742000Y-7539000D01*
X11742000Y-7439000D02*
X11642000Y-7539000D01*
X11643000Y-8201000D02*
X11743000Y-8301000D01*
X11743000Y-8201000D02*
X11643000Y-8301000D01*
X11643000Y-8455000D02*
X11743000Y-8555000D01*
X11743000Y-8455000D02*
X11643000Y-8555000D01*
X11643000Y-8709000D02*
X11743000Y-8809000D01*
X11743000Y-8709000D02*
X11643000Y-8809000D01*
X11643000Y-8963000D02*
X11743000Y-9063000D01*
X11743000Y-8963000D02*
X11643000Y-9063000D01*
X11643000Y-9217000D02*
X11743000Y-9317000D01*
X11743000Y-9217000D02*
X11643000Y-9317000D01*
X11643000Y-9471000D02*
X11743000Y-9571000D01*
X11743000Y-9471000D02*
X11643000Y-9571000D01*
X11643000Y-9725000D02*
X11743000Y-9825000D01*
X11743000Y-9725000D02*
X11643000Y-9825000D01*
X11643000Y-9979000D02*
X11743000Y-10079000D01*
X11743000Y-9979000D02*
X11643000Y-10079000D01*
X11643000Y-10487000D02*
X11743000Y-10587000D01*
X11743000Y-10487000D02*
X11643000Y-10587000D01*
X11643000Y-10741000D02*
X11743000Y-10841000D01*
X11743000Y-10741000D02*
X11643000Y-10841000D01*
X11648000Y-4894000D02*
X11748000Y-4994000D01*
X11748000Y-4894000D02*
X11648000Y-4994000D01*
X11648000Y-5148000D02*
X11748000Y-5248000D01*
X11748000Y-5148000D02*
X11648000Y-5248000D01*
X11648000Y-5656000D02*
X11748000Y-5756000D01*
X11748000Y-5656000D02*
X11648000Y-5756000D01*
X11648000Y-5910000D02*
X11748000Y-6010000D01*
X11748000Y-5910000D02*
X11648000Y-6010000D01*
X11648000Y-6164000D02*
X11748000Y-6264000D01*
X11748000Y-6164000D02*
X11648000Y-6264000D01*
X11648000Y-6418000D02*
X11748000Y-6518000D01*
X11748000Y-6418000D02*
X11648000Y-6518000D01*
X11648000Y-6672000D02*
X11748000Y-6772000D01*
X11748000Y-6672000D02*
X11648000Y-6772000D01*
X11648000Y-6926000D02*
X11748000Y-7026000D01*
X11748000Y-6926000D02*
X11648000Y-7026000D01*
X11648000Y-7180000D02*
X11748000Y-7280000D01*
X11748000Y-7180000D02*
X11648000Y-7280000D01*
X11648000Y-7434000D02*
X11748000Y-7534000D01*
X11748000Y-7434000D02*
X11648000Y-7534000D01*
X11649000Y-8196000D02*
X11749000Y-8296000D01*
X11749000Y-8196000D02*
X11649000Y-8296000D01*
X11649000Y-8450000D02*
X11749000Y-8550000D01*
X11749000Y-8450000D02*
X11649000Y-8550000D01*
X11649000Y-8704000D02*
X11749000Y-8804000D01*
X11749000Y-8704000D02*
X11649000Y-8804000D01*
X11649000Y-8958000D02*
X11749000Y-9058000D01*
X11749000Y-8958000D02*
X11649000Y-9058000D01*
X11649000Y-9212000D02*
X11749000Y-9312000D01*
X11749000Y-9212000D02*
X11649000Y-9312000D01*
X11649000Y-9466000D02*
X11749000Y-9566000D01*
X11749000Y-9466000D02*
X11649000Y-9566000D01*
X11649000Y-9720000D02*
X11749000Y-9820000D01*
X11749000Y-9720000D02*
X11649000Y-9820000D01*
X11649000Y-9974000D02*
X11749000Y-10074000D01*
X11749000Y-9974000D02*
X11649000Y-10074000D01*
X11649000Y-10482000D02*
X11749000Y-10582000D01*
X11749000Y-10482000D02*
X11649000Y-10582000D01*
X11649000Y-10736000D02*
X11749000Y-10836000D01*
X11749000Y-10736000D02*
X11649000Y-10836000D01*
X11896000Y-4899000D02*
X11996000Y-4999000D01*
X11996000Y-4899000D02*
X11896000Y-4999000D01*
X11896000Y-5153000D02*
X11996000Y-5253000D01*
X11996000Y-5153000D02*
X11896000Y-5253000D01*
X11896000Y-5661000D02*
X11996000Y-5761000D01*
X11996000Y-5661000D02*
X11896000Y-5761000D01*
X11896000Y-5915000D02*
X11996000Y-6015000D01*
X11996000Y-5915000D02*
X11896000Y-6015000D01*
X11896000Y-6169000D02*
X11996000Y-6269000D01*
X11996000Y-6169000D02*
X11896000Y-6269000D01*
X11896000Y-6423000D02*
X11996000Y-6523000D01*
X11996000Y-6423000D02*
X11896000Y-6523000D01*
X11896000Y-6677000D02*
X11996000Y-6777000D01*
X11996000Y-6677000D02*
X11896000Y-6777000D01*
X11896000Y-6931000D02*
X11996000Y-7031000D01*
X11996000Y-6931000D02*
X11896000Y-7031000D01*
X11896000Y-7185000D02*
X11996000Y-7285000D01*
X11996000Y-7185000D02*
X11896000Y-7285000D01*
X11896000Y-7439000D02*
X11996000Y-7539000D01*
X11996000Y-7439000D02*
X11896000Y-7539000D01*
X11897000Y-8201000D02*
X11997000Y-8301000D01*
X11997000Y-8201000D02*
X11897000Y-8301000D01*
X11897000Y-8455000D02*
X11997000Y-8555000D01*
X11997000Y-8455000D02*
X11897000Y-8555000D01*
X11897000Y-8709000D02*
X11997000Y-8809000D01*
X11997000Y-8709000D02*
X11897000Y-8809000D01*
X11897000Y-8963000D02*
X11997000Y-9063000D01*
X11997000Y-8963000D02*
X11897000Y-9063000D01*
X11897000Y-9217000D02*
X11997000Y-9317000D01*
X11997000Y-9217000D02*
X11897000Y-9317000D01*
X11897000Y-9471000D02*
X11997000Y-9571000D01*
X11997000Y-9471000D02*
X11897000Y-9571000D01*
X11897000Y-9725000D02*
X11997000Y-9825000D01*
X11997000Y-9725000D02*
X11897000Y-9825000D01*
X11897000Y-9979000D02*
X11997000Y-10079000D01*
X11997000Y-9979000D02*
X11897000Y-10079000D01*
X11897000Y-10487000D02*
X11997000Y-10587000D01*
X11997000Y-10487000D02*
X11897000Y-10587000D01*
X11897000Y-10741000D02*
X11997000Y-10841000D01*
X11997000Y-10741000D02*
X11897000Y-10841000D01*
X11902000Y-4894000D02*
X12002000Y-4994000D01*
X12002000Y-4894000D02*
X11902000Y-4994000D01*
X11902000Y-5148000D02*
X12002000Y-5248000D01*
X12002000Y-5148000D02*
X11902000Y-5248000D01*
X11902000Y-5656000D02*
X12002000Y-5756000D01*
X12002000Y-5656000D02*
X11902000Y-5756000D01*
X11902000Y-5910000D02*
X12002000Y-6010000D01*
X12002000Y-5910000D02*
X11902000Y-6010000D01*
X11902000Y-6164000D02*
X12002000Y-6264000D01*
X12002000Y-6164000D02*
X11902000Y-6264000D01*
X11902000Y-6418000D02*
X12002000Y-6518000D01*
X12002000Y-6418000D02*
X11902000Y-6518000D01*
X11902000Y-6672000D02*
X12002000Y-6772000D01*
X12002000Y-6672000D02*
X11902000Y-6772000D01*
X11902000Y-6926000D02*
X12002000Y-7026000D01*
X12002000Y-6926000D02*
X11902000Y-7026000D01*
X11902000Y-7180000D02*
X12002000Y-7280000D01*
X12002000Y-7180000D02*
X11902000Y-7280000D01*
X11902000Y-7434000D02*
X12002000Y-7534000D01*
X12002000Y-7434000D02*
X11902000Y-7534000D01*
X11903000Y-8196000D02*
X12003000Y-8296000D01*
X12003000Y-8196000D02*
X11903000Y-8296000D01*
X11903000Y-8450000D02*
X12003000Y-8550000D01*
X12003000Y-8450000D02*
X11903000Y-8550000D01*
X11903000Y-8704000D02*
X12003000Y-8804000D01*
X12003000Y-8704000D02*
X11903000Y-8804000D01*
X11903000Y-8958000D02*
X12003000Y-9058000D01*
X12003000Y-8958000D02*
X11903000Y-9058000D01*
X11903000Y-9212000D02*
X12003000Y-9312000D01*
X12003000Y-9212000D02*
X11903000Y-9312000D01*
X11903000Y-9466000D02*
X12003000Y-9566000D01*
X12003000Y-9466000D02*
X11903000Y-9566000D01*
X11903000Y-9720000D02*
X12003000Y-9820000D01*
X12003000Y-9720000D02*
X11903000Y-9820000D01*
X11903000Y-9974000D02*
X12003000Y-10074000D01*
X12003000Y-9974000D02*
X11903000Y-10074000D01*
X11903000Y-10482000D02*
X12003000Y-10582000D01*
X12003000Y-10482000D02*
X11903000Y-10582000D01*
X11903000Y-10736000D02*
X12003000Y-10836000D01*
X12003000Y-10736000D02*
X11903000Y-10836000D01*
X12150000Y-4899000D02*
X12250000Y-4999000D01*
X12250000Y-4899000D02*
X12150000Y-4999000D01*
X12150000Y-5153000D02*
X12250000Y-5253000D01*
X12250000Y-5153000D02*
X12150000Y-5253000D01*
X12150000Y-5661000D02*
X12250000Y-5761000D01*
X12250000Y-5661000D02*
X12150000Y-5761000D01*
X12150000Y-5915000D02*
X12250000Y-6015000D01*
X12250000Y-5915000D02*
X12150000Y-6015000D01*
X12150000Y-6169000D02*
X12250000Y-6269000D01*
X12250000Y-6169000D02*
X12150000Y-6269000D01*
X12150000Y-6423000D02*
X12250000Y-6523000D01*
X12250000Y-6423000D02*
X12150000Y-6523000D01*
X12150000Y-6677000D02*
X12250000Y-6777000D01*
X12250000Y-6677000D02*
X12150000Y-6777000D01*
X12150000Y-6931000D02*
X12250000Y-7031000D01*
X12250000Y-6931000D02*
X12150000Y-7031000D01*
X12150000Y-7185000D02*
X12250000Y-7285000D01*
X12250000Y-7185000D02*
X12150000Y-7285000D01*
X12150000Y-7439000D02*
X12250000Y-7539000D01*
X12250000Y-7439000D02*
X12150000Y-7539000D01*
X12151000Y-8201000D02*
X12251000Y-8301000D01*
X12251000Y-8201000D02*
X12151000Y-8301000D01*
X12151000Y-8455000D02*
X12251000Y-8555000D01*
X12251000Y-8455000D02*
X12151000Y-8555000D01*
X12151000Y-8709000D02*
X12251000Y-8809000D01*
X12251000Y-8709000D02*
X12151000Y-8809000D01*
X12151000Y-8963000D02*
X12251000Y-9063000D01*
X12251000Y-8963000D02*
X12151000Y-9063000D01*
X12151000Y-9217000D02*
X12251000Y-9317000D01*
X12251000Y-9217000D02*
X12151000Y-9317000D01*
X12151000Y-9471000D02*
X12251000Y-9571000D01*
X12251000Y-9471000D02*
X12151000Y-9571000D01*
X12151000Y-9725000D02*
X12251000Y-9825000D01*
X12251000Y-9725000D02*
X12151000Y-9825000D01*
X12151000Y-9979000D02*
X12251000Y-10079000D01*
X12251000Y-9979000D02*
X12151000Y-10079000D01*
X12151000Y-10487000D02*
X12251000Y-10587000D01*
X12251000Y-10487000D02*
X12151000Y-10587000D01*
X12151000Y-10741000D02*
X12251000Y-10841000D01*
X12251000Y-10741000D02*
X12151000Y-10841000D01*
X12156000Y-4894000D02*
X12256000Y-4994000D01*
X12256000Y-4894000D02*
X12156000Y-4994000D01*
X12156000Y-5148000D02*
X12256000Y-5248000D01*
X12256000Y-5148000D02*
X12156000Y-5248000D01*
X12156000Y-5656000D02*
X12256000Y-5756000D01*
X12256000Y-5656000D02*
X12156000Y-5756000D01*
X12156000Y-5910000D02*
X12256000Y-6010000D01*
X12256000Y-5910000D02*
X12156000Y-6010000D01*
X12156000Y-6164000D02*
X12256000Y-6264000D01*
X12256000Y-6164000D02*
X12156000Y-6264000D01*
X12156000Y-6418000D02*
X12256000Y-6518000D01*
X12256000Y-6418000D02*
X12156000Y-6518000D01*
X12156000Y-6672000D02*
X12256000Y-6772000D01*
X12256000Y-6672000D02*
X12156000Y-6772000D01*
X12156000Y-6926000D02*
X12256000Y-7026000D01*
X12256000Y-6926000D02*
X12156000Y-7026000D01*
X12156000Y-7180000D02*
X12256000Y-7280000D01*
X12256000Y-7180000D02*
X12156000Y-7280000D01*
X12156000Y-7434000D02*
X12256000Y-7534000D01*
X12256000Y-7434000D02*
X12156000Y-7534000D01*
X12157000Y-8196000D02*
X12257000Y-8296000D01*
X12257000Y-8196000D02*
X12157000Y-8296000D01*
X12157000Y-8450000D02*
X12257000Y-8550000D01*
X12257000Y-8450000D02*
X12157000Y-8550000D01*
X12157000Y-8704000D02*
X12257000Y-8804000D01*
X12257000Y-8704000D02*
X12157000Y-8804000D01*
X12157000Y-8958000D02*
X12257000Y-9058000D01*
X12257000Y-8958000D02*
X12157000Y-9058000D01*
X12157000Y-9212000D02*
X12257000Y-9312000D01*
X12257000Y-9212000D02*
X12157000Y-9312000D01*
X12157000Y-9466000D02*
X12257000Y-9566000D01*
X12257000Y-9466000D02*
X12157000Y-9566000D01*
X12157000Y-9720000D02*
X12257000Y-9820000D01*
X12257000Y-9720000D02*
X12157000Y-9820000D01*
X12157000Y-9974000D02*
X12257000Y-10074000D01*
X12257000Y-9974000D02*
X12157000Y-10074000D01*
X12157000Y-10482000D02*
X12257000Y-10582000D01*
X12257000Y-10482000D02*
X12157000Y-10582000D01*
X12157000Y-10736000D02*
X12257000Y-10836000D01*
X12257000Y-10736000D02*
X12157000Y-10836000D01*
D11*
X4800523Y-11397984D02*
X4800523Y-11197984D01*
X4800523Y-11197984D02*
X4848142Y-11197984D01*
X4848142Y-11197984D02*
X4876714Y-11207508D01*
X4876714Y-11207508D02*
X4895761Y-11226555D01*
X4895761Y-11226555D02*
X4905285Y-11245603D01*
X4905285Y-11245603D02*
X4914809Y-11283698D01*
X4914809Y-11283698D02*
X4914809Y-11312269D01*
X4914809Y-11312269D02*
X4905285Y-11350365D01*
X4905285Y-11350365D02*
X4895761Y-11369412D01*
X4895761Y-11369412D02*
X4876714Y-11388460D01*
X4876714Y-11388460D02*
X4848142Y-11397984D01*
X4848142Y-11397984D02*
X4800523Y-11397984D01*
X5000523Y-11397984D02*
X5000523Y-11264650D01*
X5000523Y-11302746D02*
X5010047Y-11283698D01*
X5010047Y-11283698D02*
X5019571Y-11274174D01*
X5019571Y-11274174D02*
X5038618Y-11264650D01*
X5038618Y-11264650D02*
X5057666Y-11264650D01*
X5124333Y-11397984D02*
X5124333Y-11264650D01*
X5124333Y-11197984D02*
X5114809Y-11207508D01*
X5114809Y-11207508D02*
X5124333Y-11217031D01*
X5124333Y-11217031D02*
X5133856Y-11207508D01*
X5133856Y-11207508D02*
X5124333Y-11197984D01*
X5124333Y-11197984D02*
X5124333Y-11217031D01*
X5248142Y-11397984D02*
X5229094Y-11388460D01*
X5229094Y-11388460D02*
X5219571Y-11369412D01*
X5219571Y-11369412D02*
X5219571Y-11197984D01*
X5352904Y-11397984D02*
X5333856Y-11388460D01*
X5333856Y-11388460D02*
X5324333Y-11369412D01*
X5324333Y-11369412D02*
X5324333Y-11197984D01*
X5581475Y-11397984D02*
X5581475Y-11197984D01*
X5581475Y-11197984D02*
X5648142Y-11340841D01*
X5648142Y-11340841D02*
X5714809Y-11197984D01*
X5714809Y-11197984D02*
X5714809Y-11397984D01*
X5895761Y-11397984D02*
X5895761Y-11293222D01*
X5895761Y-11293222D02*
X5886237Y-11274174D01*
X5886237Y-11274174D02*
X5867190Y-11264650D01*
X5867190Y-11264650D02*
X5829094Y-11264650D01*
X5829094Y-11264650D02*
X5810047Y-11274174D01*
X5895761Y-11388460D02*
X5876713Y-11397984D01*
X5876713Y-11397984D02*
X5829094Y-11397984D01*
X5829094Y-11397984D02*
X5810047Y-11388460D01*
X5810047Y-11388460D02*
X5800523Y-11369412D01*
X5800523Y-11369412D02*
X5800523Y-11350365D01*
X5800523Y-11350365D02*
X5810047Y-11331317D01*
X5810047Y-11331317D02*
X5829094Y-11321793D01*
X5829094Y-11321793D02*
X5876713Y-11321793D01*
X5876713Y-11321793D02*
X5895761Y-11312269D01*
X5990999Y-11264650D02*
X5990999Y-11464650D01*
X5990999Y-11274174D02*
X6010047Y-11264650D01*
X6010047Y-11264650D02*
X6048142Y-11264650D01*
X6048142Y-11264650D02*
X6067190Y-11274174D01*
X6067190Y-11274174D02*
X6076713Y-11283698D01*
X6076713Y-11283698D02*
X6086237Y-11302746D01*
X6086237Y-11302746D02*
X6086237Y-11359888D01*
X6086237Y-11359888D02*
X6076713Y-11378936D01*
X6076713Y-11378936D02*
X6067190Y-11388460D01*
X6067190Y-11388460D02*
X6048142Y-11397984D01*
X6048142Y-11397984D02*
X6010047Y-11397984D01*
X6010047Y-11397984D02*
X5990999Y-11388460D01*
X6171952Y-11378936D02*
X6181475Y-11388460D01*
X6181475Y-11388460D02*
X6171952Y-11397984D01*
X6171952Y-11397984D02*
X6162428Y-11388460D01*
X6162428Y-11388460D02*
X6171952Y-11378936D01*
X6171952Y-11378936D02*
X6171952Y-11397984D01*
X6171952Y-11274174D02*
X6181475Y-11283698D01*
X6181475Y-11283698D02*
X6171952Y-11293222D01*
X6171952Y-11293222D02*
X6162428Y-11283698D01*
X6162428Y-11283698D02*
X6171952Y-11274174D01*
X6171952Y-11274174D02*
X6171952Y-11293222D01*
D12*
X4439746Y-11676500D02*
X4539746Y-11776500D01*
X4539746Y-11676500D02*
X4439746Y-11776500D01*
D11*
X4905285Y-11817984D02*
X4790999Y-11817984D01*
X4848142Y-11817984D02*
X4848142Y-11617984D01*
X4848142Y-11617984D02*
X4829094Y-11646555D01*
X4829094Y-11646555D02*
X4810047Y-11665603D01*
X4810047Y-11665603D02*
X4790999Y-11675127D01*
X4990999Y-11798936D02*
X5000523Y-11808460D01*
X5000523Y-11808460D02*
X4990999Y-11817984D01*
X4990999Y-11817984D02*
X4981475Y-11808460D01*
X4981475Y-11808460D02*
X4990999Y-11798936D01*
X4990999Y-11798936D02*
X4990999Y-11817984D01*
X5124333Y-11617984D02*
X5143380Y-11617984D01*
X5143380Y-11617984D02*
X5162428Y-11627508D01*
X5162428Y-11627508D02*
X5171952Y-11637031D01*
X5171952Y-11637031D02*
X5181475Y-11656079D01*
X5181475Y-11656079D02*
X5190999Y-11694174D01*
X5190999Y-11694174D02*
X5190999Y-11741793D01*
X5190999Y-11741793D02*
X5181475Y-11779888D01*
X5181475Y-11779888D02*
X5171952Y-11798936D01*
X5171952Y-11798936D02*
X5162428Y-11808460D01*
X5162428Y-11808460D02*
X5143380Y-11817984D01*
X5143380Y-11817984D02*
X5124333Y-11817984D01*
X5124333Y-11817984D02*
X5105285Y-11808460D01*
X5105285Y-11808460D02*
X5095761Y-11798936D01*
X5095761Y-11798936D02*
X5086237Y-11779888D01*
X5086237Y-11779888D02*
X5076714Y-11741793D01*
X5076714Y-11741793D02*
X5076714Y-11694174D01*
X5076714Y-11694174D02*
X5086237Y-11656079D01*
X5086237Y-11656079D02*
X5095761Y-11637031D01*
X5095761Y-11637031D02*
X5105285Y-11627508D01*
X5105285Y-11627508D02*
X5124333Y-11617984D01*
X5314809Y-11617984D02*
X5333856Y-11617984D01*
X5333856Y-11617984D02*
X5352904Y-11627508D01*
X5352904Y-11627508D02*
X5362428Y-11637031D01*
X5362428Y-11637031D02*
X5371952Y-11656079D01*
X5371952Y-11656079D02*
X5381475Y-11694174D01*
X5381475Y-11694174D02*
X5381475Y-11741793D01*
X5381475Y-11741793D02*
X5371952Y-11779888D01*
X5371952Y-11779888D02*
X5362428Y-11798936D01*
X5362428Y-11798936D02*
X5352904Y-11808460D01*
X5352904Y-11808460D02*
X5333856Y-11817984D01*
X5333856Y-11817984D02*
X5314809Y-11817984D01*
X5314809Y-11817984D02*
X5295761Y-11808460D01*
X5295761Y-11808460D02*
X5286237Y-11798936D01*
X5286237Y-11798936D02*
X5276714Y-11779888D01*
X5276714Y-11779888D02*
X5267190Y-11741793D01*
X5267190Y-11741793D02*
X5267190Y-11694174D01*
X5267190Y-11694174D02*
X5276714Y-11656079D01*
X5276714Y-11656079D02*
X5286237Y-11637031D01*
X5286237Y-11637031D02*
X5295761Y-11627508D01*
X5295761Y-11627508D02*
X5314809Y-11617984D01*
X5505285Y-11617984D02*
X5524333Y-11617984D01*
X5524333Y-11617984D02*
X5543380Y-11627508D01*
X5543380Y-11627508D02*
X5552904Y-11637031D01*
X5552904Y-11637031D02*
X5562428Y-11656079D01*
X5562428Y-11656079D02*
X5571952Y-11694174D01*
X5571952Y-11694174D02*
X5571952Y-11741793D01*
X5571952Y-11741793D02*
X5562428Y-11779888D01*
X5562428Y-11779888D02*
X5552904Y-11798936D01*
X5552904Y-11798936D02*
X5543380Y-11808460D01*
X5543380Y-11808460D02*
X5524333Y-11817984D01*
X5524333Y-11817984D02*
X5505285Y-11817984D01*
X5505285Y-11817984D02*
X5486237Y-11808460D01*
X5486237Y-11808460D02*
X5476714Y-11798936D01*
X5476714Y-11798936D02*
X5467190Y-11779888D01*
X5467190Y-11779888D02*
X5457666Y-11741793D01*
X5457666Y-11741793D02*
X5457666Y-11694174D01*
X5457666Y-11694174D02*
X5467190Y-11656079D01*
X5467190Y-11656079D02*
X5476714Y-11637031D01*
X5476714Y-11637031D02*
X5486237Y-11627508D01*
X5486237Y-11627508D02*
X5505285Y-11617984D01*
X5657666Y-11817984D02*
X5657666Y-11684650D01*
X5657666Y-11703698D02*
X5667190Y-11694174D01*
X5667190Y-11694174D02*
X5686237Y-11684650D01*
X5686237Y-11684650D02*
X5714809Y-11684650D01*
X5714809Y-11684650D02*
X5733856Y-11694174D01*
X5733856Y-11694174D02*
X5743380Y-11713222D01*
X5743380Y-11713222D02*
X5743380Y-11817984D01*
X5743380Y-11713222D02*
X5752904Y-11694174D01*
X5752904Y-11694174D02*
X5771952Y-11684650D01*
X5771952Y-11684650D02*
X5800523Y-11684650D01*
X5800523Y-11684650D02*
X5819571Y-11694174D01*
X5819571Y-11694174D02*
X5829094Y-11713222D01*
X5829094Y-11713222D02*
X5829094Y-11817984D01*
X5924333Y-11817984D02*
X5924333Y-11684650D01*
X5924333Y-11703698D02*
X5933856Y-11694174D01*
X5933856Y-11694174D02*
X5952904Y-11684650D01*
X5952904Y-11684650D02*
X5981475Y-11684650D01*
X5981475Y-11684650D02*
X6000523Y-11694174D01*
X6000523Y-11694174D02*
X6010047Y-11713222D01*
X6010047Y-11713222D02*
X6010047Y-11817984D01*
X6010047Y-11713222D02*
X6019571Y-11694174D01*
X6019571Y-11694174D02*
X6038618Y-11684650D01*
X6038618Y-11684650D02*
X6067190Y-11684650D01*
X6067190Y-11684650D02*
X6086237Y-11694174D01*
X6086237Y-11694174D02*
X6095761Y-11713222D01*
X6095761Y-11713222D02*
X6095761Y-11817984D01*
X6486237Y-11608460D02*
X6314809Y-11865603D01*
X6743380Y-11617984D02*
X6762428Y-11617984D01*
X6762428Y-11617984D02*
X6781476Y-11627508D01*
X6781476Y-11627508D02*
X6790999Y-11637031D01*
X6790999Y-11637031D02*
X6800523Y-11656079D01*
X6800523Y-11656079D02*
X6810047Y-11694174D01*
X6810047Y-11694174D02*
X6810047Y-11741793D01*
X6810047Y-11741793D02*
X6800523Y-11779888D01*
X6800523Y-11779888D02*
X6790999Y-11798936D01*
X6790999Y-11798936D02*
X6781476Y-11808460D01*
X6781476Y-11808460D02*
X6762428Y-11817984D01*
X6762428Y-11817984D02*
X6743380Y-11817984D01*
X6743380Y-11817984D02*
X6724333Y-11808460D01*
X6724333Y-11808460D02*
X6714809Y-11798936D01*
X6714809Y-11798936D02*
X6705285Y-11779888D01*
X6705285Y-11779888D02*
X6695761Y-11741793D01*
X6695761Y-11741793D02*
X6695761Y-11694174D01*
X6695761Y-11694174D02*
X6705285Y-11656079D01*
X6705285Y-11656079D02*
X6714809Y-11637031D01*
X6714809Y-11637031D02*
X6724333Y-11627508D01*
X6724333Y-11627508D02*
X6743380Y-11617984D01*
X6895761Y-11798936D02*
X6905285Y-11808460D01*
X6905285Y-11808460D02*
X6895761Y-11817984D01*
X6895761Y-11817984D02*
X6886237Y-11808460D01*
X6886237Y-11808460D02*
X6895761Y-11798936D01*
X6895761Y-11798936D02*
X6895761Y-11817984D01*
X7029095Y-11617984D02*
X7048142Y-11617984D01*
X7048142Y-11617984D02*
X7067190Y-11627508D01*
X7067190Y-11627508D02*
X7076714Y-11637031D01*
X7076714Y-11637031D02*
X7086237Y-11656079D01*
X7086237Y-11656079D02*
X7095761Y-11694174D01*
X7095761Y-11694174D02*
X7095761Y-11741793D01*
X7095761Y-11741793D02*
X7086237Y-11779888D01*
X7086237Y-11779888D02*
X7076714Y-11798936D01*
X7076714Y-11798936D02*
X7067190Y-11808460D01*
X7067190Y-11808460D02*
X7048142Y-11817984D01*
X7048142Y-11817984D02*
X7029095Y-11817984D01*
X7029095Y-11817984D02*
X7010047Y-11808460D01*
X7010047Y-11808460D02*
X7000523Y-11798936D01*
X7000523Y-11798936D02*
X6990999Y-11779888D01*
X6990999Y-11779888D02*
X6981476Y-11741793D01*
X6981476Y-11741793D02*
X6981476Y-11694174D01*
X6981476Y-11694174D02*
X6990999Y-11656079D01*
X6990999Y-11656079D02*
X7000523Y-11637031D01*
X7000523Y-11637031D02*
X7010047Y-11627508D01*
X7010047Y-11627508D02*
X7029095Y-11617984D01*
X7162428Y-11617984D02*
X7286237Y-11617984D01*
X7286237Y-11617984D02*
X7219571Y-11694174D01*
X7219571Y-11694174D02*
X7248142Y-11694174D01*
X7248142Y-11694174D02*
X7267190Y-11703698D01*
X7267190Y-11703698D02*
X7276714Y-11713222D01*
X7276714Y-11713222D02*
X7286237Y-11732269D01*
X7286237Y-11732269D02*
X7286237Y-11779888D01*
X7286237Y-11779888D02*
X7276714Y-11798936D01*
X7276714Y-11798936D02*
X7267190Y-11808460D01*
X7267190Y-11808460D02*
X7248142Y-11817984D01*
X7248142Y-11817984D02*
X7190999Y-11817984D01*
X7190999Y-11817984D02*
X7171952Y-11808460D01*
X7171952Y-11808460D02*
X7162428Y-11798936D01*
X7381476Y-11817984D02*
X7419571Y-11817984D01*
X7419571Y-11817984D02*
X7438618Y-11808460D01*
X7438618Y-11808460D02*
X7448142Y-11798936D01*
X7448142Y-11798936D02*
X7467190Y-11770365D01*
X7467190Y-11770365D02*
X7476714Y-11732269D01*
X7476714Y-11732269D02*
X7476714Y-11656079D01*
X7476714Y-11656079D02*
X7467190Y-11637031D01*
X7467190Y-11637031D02*
X7457666Y-11627508D01*
X7457666Y-11627508D02*
X7438618Y-11617984D01*
X7438618Y-11617984D02*
X7400523Y-11617984D01*
X7400523Y-11617984D02*
X7381476Y-11627508D01*
X7381476Y-11627508D02*
X7371952Y-11637031D01*
X7371952Y-11637031D02*
X7362428Y-11656079D01*
X7362428Y-11656079D02*
X7362428Y-11703698D01*
X7362428Y-11703698D02*
X7371952Y-11722746D01*
X7371952Y-11722746D02*
X7381476Y-11732269D01*
X7381476Y-11732269D02*
X7400523Y-11741793D01*
X7400523Y-11741793D02*
X7438618Y-11741793D01*
X7438618Y-11741793D02*
X7457666Y-11732269D01*
X7457666Y-11732269D02*
X7467190Y-11722746D01*
X7467190Y-11722746D02*
X7476714Y-11703698D01*
X7648142Y-11684650D02*
X7648142Y-11817984D01*
X7600523Y-11608460D02*
X7552904Y-11751317D01*
X7552904Y-11751317D02*
X7676714Y-11751317D01*
X7743380Y-11617984D02*
X7743380Y-11656079D01*
X7819571Y-11617984D02*
X7819571Y-11656079D01*
X8114809Y-11894174D02*
X8105285Y-11884650D01*
X8105285Y-11884650D02*
X8086238Y-11856079D01*
X8086238Y-11856079D02*
X8076714Y-11837031D01*
X8076714Y-11837031D02*
X8067190Y-11808460D01*
X8067190Y-11808460D02*
X8057666Y-11760841D01*
X8057666Y-11760841D02*
X8057666Y-11722746D01*
X8057666Y-11722746D02*
X8067190Y-11675127D01*
X8067190Y-11675127D02*
X8076714Y-11646555D01*
X8076714Y-11646555D02*
X8086238Y-11627508D01*
X8086238Y-11627508D02*
X8105285Y-11598936D01*
X8105285Y-11598936D02*
X8114809Y-11589412D01*
X8295761Y-11817984D02*
X8181476Y-11817984D01*
X8238618Y-11817984D02*
X8238618Y-11617984D01*
X8238618Y-11617984D02*
X8219571Y-11646555D01*
X8219571Y-11646555D02*
X8200523Y-11665603D01*
X8200523Y-11665603D02*
X8181476Y-11675127D01*
X8371952Y-11637031D02*
X8381476Y-11627508D01*
X8381476Y-11627508D02*
X8400523Y-11617984D01*
X8400523Y-11617984D02*
X8448142Y-11617984D01*
X8448142Y-11617984D02*
X8467190Y-11627508D01*
X8467190Y-11627508D02*
X8476714Y-11637031D01*
X8476714Y-11637031D02*
X8486238Y-11656079D01*
X8486238Y-11656079D02*
X8486238Y-11675127D01*
X8486238Y-11675127D02*
X8476714Y-11703698D01*
X8476714Y-11703698D02*
X8362428Y-11817984D01*
X8362428Y-11817984D02*
X8486238Y-11817984D01*
X8610047Y-11617984D02*
X8629095Y-11617984D01*
X8629095Y-11617984D02*
X8648142Y-11627508D01*
X8648142Y-11627508D02*
X8657666Y-11637031D01*
X8657666Y-11637031D02*
X8667190Y-11656079D01*
X8667190Y-11656079D02*
X8676714Y-11694174D01*
X8676714Y-11694174D02*
X8676714Y-11741793D01*
X8676714Y-11741793D02*
X8667190Y-11779888D01*
X8667190Y-11779888D02*
X8657666Y-11798936D01*
X8657666Y-11798936D02*
X8648142Y-11808460D01*
X8648142Y-11808460D02*
X8629095Y-11817984D01*
X8629095Y-11817984D02*
X8610047Y-11817984D01*
X8610047Y-11817984D02*
X8591000Y-11808460D01*
X8591000Y-11808460D02*
X8581476Y-11798936D01*
X8581476Y-11798936D02*
X8571952Y-11779888D01*
X8571952Y-11779888D02*
X8562428Y-11741793D01*
X8562428Y-11741793D02*
X8562428Y-11694174D01*
X8562428Y-11694174D02*
X8571952Y-11656079D01*
X8571952Y-11656079D02*
X8581476Y-11637031D01*
X8581476Y-11637031D02*
X8591000Y-11627508D01*
X8591000Y-11627508D02*
X8610047Y-11617984D01*
X8752904Y-11637031D02*
X8762428Y-11627508D01*
X8762428Y-11627508D02*
X8781476Y-11617984D01*
X8781476Y-11617984D02*
X8829095Y-11617984D01*
X8829095Y-11617984D02*
X8848142Y-11627508D01*
X8848142Y-11627508D02*
X8857666Y-11637031D01*
X8857666Y-11637031D02*
X8867190Y-11656079D01*
X8867190Y-11656079D02*
X8867190Y-11675127D01*
X8867190Y-11675127D02*
X8857666Y-11703698D01*
X8857666Y-11703698D02*
X8743381Y-11817984D01*
X8743381Y-11817984D02*
X8867190Y-11817984D01*
X9105285Y-11817984D02*
X9105285Y-11617984D01*
X9191000Y-11817984D02*
X9191000Y-11713222D01*
X9191000Y-11713222D02*
X9181476Y-11694174D01*
X9181476Y-11694174D02*
X9162428Y-11684650D01*
X9162428Y-11684650D02*
X9133857Y-11684650D01*
X9133857Y-11684650D02*
X9114809Y-11694174D01*
X9114809Y-11694174D02*
X9105285Y-11703698D01*
X9314809Y-11817984D02*
X9295762Y-11808460D01*
X9295762Y-11808460D02*
X9286238Y-11798936D01*
X9286238Y-11798936D02*
X9276714Y-11779888D01*
X9276714Y-11779888D02*
X9276714Y-11722746D01*
X9276714Y-11722746D02*
X9286238Y-11703698D01*
X9286238Y-11703698D02*
X9295762Y-11694174D01*
X9295762Y-11694174D02*
X9314809Y-11684650D01*
X9314809Y-11684650D02*
X9343381Y-11684650D01*
X9343381Y-11684650D02*
X9362428Y-11694174D01*
X9362428Y-11694174D02*
X9371952Y-11703698D01*
X9371952Y-11703698D02*
X9381476Y-11722746D01*
X9381476Y-11722746D02*
X9381476Y-11779888D01*
X9381476Y-11779888D02*
X9371952Y-11798936D01*
X9371952Y-11798936D02*
X9362428Y-11808460D01*
X9362428Y-11808460D02*
X9343381Y-11817984D01*
X9343381Y-11817984D02*
X9314809Y-11817984D01*
X9495762Y-11817984D02*
X9476714Y-11808460D01*
X9476714Y-11808460D02*
X9467190Y-11789412D01*
X9467190Y-11789412D02*
X9467190Y-11617984D01*
X9648143Y-11808460D02*
X9629095Y-11817984D01*
X9629095Y-11817984D02*
X9591000Y-11817984D01*
X9591000Y-11817984D02*
X9571952Y-11808460D01*
X9571952Y-11808460D02*
X9562428Y-11789412D01*
X9562428Y-11789412D02*
X9562428Y-11713222D01*
X9562428Y-11713222D02*
X9571952Y-11694174D01*
X9571952Y-11694174D02*
X9591000Y-11684650D01*
X9591000Y-11684650D02*
X9629095Y-11684650D01*
X9629095Y-11684650D02*
X9648143Y-11694174D01*
X9648143Y-11694174D02*
X9657666Y-11713222D01*
X9657666Y-11713222D02*
X9657666Y-11732269D01*
X9657666Y-11732269D02*
X9562428Y-11751317D01*
X9733857Y-11808460D02*
X9752904Y-11817984D01*
X9752904Y-11817984D02*
X9791000Y-11817984D01*
X9791000Y-11817984D02*
X9810047Y-11808460D01*
X9810047Y-11808460D02*
X9819571Y-11789412D01*
X9819571Y-11789412D02*
X9819571Y-11779888D01*
X9819571Y-11779888D02*
X9810047Y-11760841D01*
X9810047Y-11760841D02*
X9791000Y-11751317D01*
X9791000Y-11751317D02*
X9762428Y-11751317D01*
X9762428Y-11751317D02*
X9743381Y-11741793D01*
X9743381Y-11741793D02*
X9733857Y-11722746D01*
X9733857Y-11722746D02*
X9733857Y-11713222D01*
X9733857Y-11713222D02*
X9743381Y-11694174D01*
X9743381Y-11694174D02*
X9762428Y-11684650D01*
X9762428Y-11684650D02*
X9791000Y-11684650D01*
X9791000Y-11684650D02*
X9810047Y-11694174D01*
X9886238Y-11894174D02*
X9895762Y-11884650D01*
X9895762Y-11884650D02*
X9914809Y-11856079D01*
X9914809Y-11856079D02*
X9924333Y-11837031D01*
X9924333Y-11837031D02*
X9933857Y-11808460D01*
X9933857Y-11808460D02*
X9943381Y-11760841D01*
X9943381Y-11760841D02*
X9943381Y-11722746D01*
X9943381Y-11722746D02*
X9933857Y-11675127D01*
X9933857Y-11675127D02*
X9924333Y-11646555D01*
X9924333Y-11646555D02*
X9914809Y-11627508D01*
X9914809Y-11627508D02*
X9895762Y-11598936D01*
X9895762Y-11598936D02*
X9886238Y-11589412D01*
M02*
