%TF.GenerationSoftware,KiCad,Pcbnew,8.0.1*%
%TF.CreationDate,2024-04-20T13:05:09+02:00*%
%TF.ProjectId,proto_board,70726f74-6f5f-4626-9f61-72642e6b6963,rev?*%
%TF.SameCoordinates,Original*%
%TF.FileFunction,Copper,L2,Bot*%
%TF.FilePolarity,Positive*%
%FSLAX46Y46*%
G04 Gerber Fmt 4.6, Leading zero omitted, Abs format (unit mm)*
G04 Created by KiCad (PCBNEW 8.0.1) date 2024-04-20 13:05:09*
%MOMM*%
%LPD*%
G01*
G04 APERTURE LIST*
%TA.AperFunction,ComponentPad*%
%ADD10R,1.700000X1.700000*%
%TD*%
%TA.AperFunction,ComponentPad*%
%ADD11O,1.700000X1.700000*%
%TD*%
G04 APERTURE END LIST*
D10*
%TO.P,REF\u002A\u002A,1*%
%TO.N,N/C*%
X147465000Y-105325000D03*
D11*
%TO.P,REF\u002A\u002A,2*%
X144925000Y-105325000D03*
%TO.P,REF\u002A\u002A,3*%
X142385000Y-105325000D03*
%TO.P,REF\u002A\u002A,4*%
X139845000Y-105325000D03*
%TO.P,REF\u002A\u002A,5*%
X137305000Y-105325000D03*
%TO.P,REF\u002A\u002A,6*%
X134765000Y-105325000D03*
%TO.P,REF\u002A\u002A,7*%
X132225000Y-105325000D03*
%TO.P,REF\u002A\u002A,8*%
X129685000Y-105325000D03*
%TO.P,REF\u002A\u002A,9*%
X127145000Y-105325000D03*
%TO.P,REF\u002A\u002A,10*%
X124605000Y-105325000D03*
%TO.P,REF\u002A\u002A,11*%
X122065000Y-105325000D03*
%TO.P,REF\u002A\u002A,12*%
X119525000Y-105325000D03*
%TO.P,REF\u002A\u002A,13*%
X116985000Y-105325000D03*
%TO.P,REF\u002A\u002A,14*%
X114445000Y-105325000D03*
%TO.P,REF\u002A\u002A,15*%
X111905000Y-105325000D03*
%TO.P,REF\u002A\u002A,16*%
X109365000Y-105325000D03*
%TO.P,REF\u002A\u002A,17*%
X106825000Y-105325000D03*
%TO.P,REF\u002A\u002A,18*%
X104285000Y-105325000D03*
%TO.P,REF\u002A\u002A,19*%
X101745000Y-105325000D03*
%TO.P,REF\u002A\u002A,20*%
X99205000Y-105325000D03*
%TO.P,REF\u002A\u002A,21*%
X96665000Y-105325000D03*
%TO.P,REF\u002A\u002A,22*%
X94125000Y-105325000D03*
%TO.P,REF\u002A\u002A,23*%
X91585000Y-105325000D03*
%TO.P,REF\u002A\u002A,24*%
X89045000Y-105325000D03*
%TO.P,REF\u002A\u002A,25*%
X86505000Y-105325000D03*
%TO.P,REF\u002A\u002A,26*%
X83965000Y-105325000D03*
%TO.P,REF\u002A\u002A,27*%
X81425000Y-105325000D03*
%TO.P,REF\u002A\u002A,28*%
X78885000Y-105325000D03*
%TO.P,REF\u002A\u002A,29*%
X76345000Y-105325000D03*
%TO.P,REF\u002A\u002A,30*%
X73805000Y-105325000D03*
%TO.P,REF\u002A\u002A,31*%
X71265000Y-105325000D03*
%TO.P,REF\u002A\u002A,32*%
X68725000Y-105325000D03*
%TO.P,REF\u002A\u002A,33*%
X66185000Y-105325000D03*
%TO.P,REF\u002A\u002A,34*%
X63645000Y-105325000D03*
%TO.P,REF\u002A\u002A,35*%
X61105000Y-105325000D03*
%TO.P,REF\u002A\u002A,36*%
X58565000Y-105325000D03*
%TO.P,REF\u002A\u002A,37*%
X56025000Y-105325000D03*
%TO.P,REF\u002A\u002A,38*%
X53485000Y-105325000D03*
%TO.P,REF\u002A\u002A,39*%
X50945000Y-105325000D03*
%TO.P,REF\u002A\u002A,40*%
X48405000Y-105325000D03*
%TD*%
D10*
%TO.P,REF\u002A\u002A,1*%
%TO.N,N/C*%
X147455000Y-62145000D03*
D11*
%TO.P,REF\u002A\u002A,2*%
X144915000Y-62145000D03*
%TO.P,REF\u002A\u002A,3*%
X142375000Y-62145000D03*
%TO.P,REF\u002A\u002A,4*%
X139835000Y-62145000D03*
%TO.P,REF\u002A\u002A,5*%
X137295000Y-62145000D03*
%TO.P,REF\u002A\u002A,6*%
X134755000Y-62145000D03*
%TO.P,REF\u002A\u002A,7*%
X132215000Y-62145000D03*
%TO.P,REF\u002A\u002A,8*%
X129675000Y-62145000D03*
%TO.P,REF\u002A\u002A,9*%
X127135000Y-62145000D03*
%TO.P,REF\u002A\u002A,10*%
X124595000Y-62145000D03*
%TO.P,REF\u002A\u002A,11*%
X122055000Y-62145000D03*
%TO.P,REF\u002A\u002A,12*%
X119515000Y-62145000D03*
%TO.P,REF\u002A\u002A,13*%
X116975000Y-62145000D03*
%TO.P,REF\u002A\u002A,14*%
X114435000Y-62145000D03*
%TO.P,REF\u002A\u002A,15*%
X111895000Y-62145000D03*
%TO.P,REF\u002A\u002A,16*%
X109355000Y-62145000D03*
%TO.P,REF\u002A\u002A,17*%
X106815000Y-62145000D03*
%TO.P,REF\u002A\u002A,18*%
X104275000Y-62145000D03*
%TO.P,REF\u002A\u002A,19*%
X101735000Y-62145000D03*
%TO.P,REF\u002A\u002A,20*%
X99195000Y-62145000D03*
%TO.P,REF\u002A\u002A,21*%
X96655000Y-62145000D03*
%TO.P,REF\u002A\u002A,22*%
X94115000Y-62145000D03*
%TO.P,REF\u002A\u002A,23*%
X91575000Y-62145000D03*
%TO.P,REF\u002A\u002A,24*%
X89035000Y-62145000D03*
%TO.P,REF\u002A\u002A,25*%
X86495000Y-62145000D03*
%TO.P,REF\u002A\u002A,26*%
X83955000Y-62145000D03*
%TO.P,REF\u002A\u002A,27*%
X81415000Y-62145000D03*
%TO.P,REF\u002A\u002A,28*%
X78875000Y-62145000D03*
%TO.P,REF\u002A\u002A,29*%
X76335000Y-62145000D03*
%TO.P,REF\u002A\u002A,30*%
X73795000Y-62145000D03*
%TO.P,REF\u002A\u002A,31*%
X71255000Y-62145000D03*
%TO.P,REF\u002A\u002A,32*%
X68715000Y-62145000D03*
%TO.P,REF\u002A\u002A,33*%
X66175000Y-62145000D03*
%TO.P,REF\u002A\u002A,34*%
X63635000Y-62145000D03*
%TO.P,REF\u002A\u002A,35*%
X61095000Y-62145000D03*
%TO.P,REF\u002A\u002A,36*%
X58555000Y-62145000D03*
%TO.P,REF\u002A\u002A,37*%
X56015000Y-62145000D03*
%TO.P,REF\u002A\u002A,38*%
X53475000Y-62145000D03*
%TO.P,REF\u002A\u002A,39*%
X50935000Y-62145000D03*
%TO.P,REF\u002A\u002A,40*%
X48395000Y-62145000D03*
%TD*%
D10*
%TO.P,REF\u002A\u002A,1*%
%TO.N,N/C*%
X147465000Y-95165000D03*
D11*
%TO.P,REF\u002A\u002A,2*%
X144925000Y-95165000D03*
%TO.P,REF\u002A\u002A,3*%
X142385000Y-95165000D03*
%TO.P,REF\u002A\u002A,4*%
X139845000Y-95165000D03*
%TO.P,REF\u002A\u002A,5*%
X137305000Y-95165000D03*
%TO.P,REF\u002A\u002A,6*%
X134765000Y-95165000D03*
%TO.P,REF\u002A\u002A,7*%
X132225000Y-95165000D03*
%TO.P,REF\u002A\u002A,8*%
X129685000Y-95165000D03*
%TO.P,REF\u002A\u002A,9*%
X127145000Y-95165000D03*
%TO.P,REF\u002A\u002A,10*%
X124605000Y-95165000D03*
%TO.P,REF\u002A\u002A,11*%
X122065000Y-95165000D03*
%TO.P,REF\u002A\u002A,12*%
X119525000Y-95165000D03*
%TO.P,REF\u002A\u002A,13*%
X116985000Y-95165000D03*
%TO.P,REF\u002A\u002A,14*%
X114445000Y-95165000D03*
%TO.P,REF\u002A\u002A,15*%
X111905000Y-95165000D03*
%TO.P,REF\u002A\u002A,16*%
X109365000Y-95165000D03*
%TO.P,REF\u002A\u002A,17*%
X106825000Y-95165000D03*
%TO.P,REF\u002A\u002A,18*%
X104285000Y-95165000D03*
%TO.P,REF\u002A\u002A,19*%
X101745000Y-95165000D03*
%TO.P,REF\u002A\u002A,20*%
X99205000Y-95165000D03*
%TO.P,REF\u002A\u002A,21*%
X96665000Y-95165000D03*
%TO.P,REF\u002A\u002A,22*%
X94125000Y-95165000D03*
%TO.P,REF\u002A\u002A,23*%
X91585000Y-95165000D03*
%TO.P,REF\u002A\u002A,24*%
X89045000Y-95165000D03*
%TO.P,REF\u002A\u002A,25*%
X86505000Y-95165000D03*
%TO.P,REF\u002A\u002A,26*%
X83965000Y-95165000D03*
%TO.P,REF\u002A\u002A,27*%
X81425000Y-95165000D03*
%TO.P,REF\u002A\u002A,28*%
X78885000Y-95165000D03*
%TO.P,REF\u002A\u002A,29*%
X76345000Y-95165000D03*
%TO.P,REF\u002A\u002A,30*%
X73805000Y-95165000D03*
%TO.P,REF\u002A\u002A,31*%
X71265000Y-95165000D03*
%TO.P,REF\u002A\u002A,32*%
X68725000Y-95165000D03*
%TO.P,REF\u002A\u002A,33*%
X66185000Y-95165000D03*
%TO.P,REF\u002A\u002A,34*%
X63645000Y-95165000D03*
%TO.P,REF\u002A\u002A,35*%
X61105000Y-95165000D03*
%TO.P,REF\u002A\u002A,36*%
X58565000Y-95165000D03*
%TO.P,REF\u002A\u002A,37*%
X56025000Y-95165000D03*
%TO.P,REF\u002A\u002A,38*%
X53485000Y-95165000D03*
%TO.P,REF\u002A\u002A,39*%
X50945000Y-95165000D03*
%TO.P,REF\u002A\u002A,40*%
X48405000Y-95165000D03*
%TD*%
D10*
%TO.P,REF\u002A\u002A,1*%
%TO.N,N/C*%
X147455000Y-51985000D03*
D11*
%TO.P,REF\u002A\u002A,2*%
X144915000Y-51985000D03*
%TO.P,REF\u002A\u002A,3*%
X142375000Y-51985000D03*
%TO.P,REF\u002A\u002A,4*%
X139835000Y-51985000D03*
%TO.P,REF\u002A\u002A,5*%
X137295000Y-51985000D03*
%TO.P,REF\u002A\u002A,6*%
X134755000Y-51985000D03*
%TO.P,REF\u002A\u002A,7*%
X132215000Y-51985000D03*
%TO.P,REF\u002A\u002A,8*%
X129675000Y-51985000D03*
%TO.P,REF\u002A\u002A,9*%
X127135000Y-51985000D03*
%TO.P,REF\u002A\u002A,10*%
X124595000Y-51985000D03*
%TO.P,REF\u002A\u002A,11*%
X122055000Y-51985000D03*
%TO.P,REF\u002A\u002A,12*%
X119515000Y-51985000D03*
%TO.P,REF\u002A\u002A,13*%
X116975000Y-51985000D03*
%TO.P,REF\u002A\u002A,14*%
X114435000Y-51985000D03*
%TO.P,REF\u002A\u002A,15*%
X111895000Y-51985000D03*
%TO.P,REF\u002A\u002A,16*%
X109355000Y-51985000D03*
%TO.P,REF\u002A\u002A,17*%
X106815000Y-51985000D03*
%TO.P,REF\u002A\u002A,18*%
X104275000Y-51985000D03*
%TO.P,REF\u002A\u002A,19*%
X101735000Y-51985000D03*
%TO.P,REF\u002A\u002A,20*%
X99195000Y-51985000D03*
%TO.P,REF\u002A\u002A,21*%
X96655000Y-51985000D03*
%TO.P,REF\u002A\u002A,22*%
X94115000Y-51985000D03*
%TO.P,REF\u002A\u002A,23*%
X91575000Y-51985000D03*
%TO.P,REF\u002A\u002A,24*%
X89035000Y-51985000D03*
%TO.P,REF\u002A\u002A,25*%
X86495000Y-51985000D03*
%TO.P,REF\u002A\u002A,26*%
X83955000Y-51985000D03*
%TO.P,REF\u002A\u002A,27*%
X81415000Y-51985000D03*
%TO.P,REF\u002A\u002A,28*%
X78875000Y-51985000D03*
%TO.P,REF\u002A\u002A,29*%
X76335000Y-51985000D03*
%TO.P,REF\u002A\u002A,30*%
X73795000Y-51985000D03*
%TO.P,REF\u002A\u002A,31*%
X71255000Y-51985000D03*
%TO.P,REF\u002A\u002A,32*%
X68715000Y-51985000D03*
%TO.P,REF\u002A\u002A,33*%
X66175000Y-51985000D03*
%TO.P,REF\u002A\u002A,34*%
X63635000Y-51985000D03*
%TO.P,REF\u002A\u002A,35*%
X61095000Y-51985000D03*
%TO.P,REF\u002A\u002A,36*%
X58555000Y-51985000D03*
%TO.P,REF\u002A\u002A,37*%
X56015000Y-51985000D03*
%TO.P,REF\u002A\u002A,38*%
X53475000Y-51985000D03*
%TO.P,REF\u002A\u002A,39*%
X50935000Y-51985000D03*
%TO.P,REF\u002A\u002A,40*%
X48395000Y-51985000D03*
%TD*%
D10*
%TO.P,REF\u002A\u002A,1*%
%TO.N,N/C*%
X147465000Y-97705000D03*
D11*
%TO.P,REF\u002A\u002A,2*%
X144925000Y-97705000D03*
%TO.P,REF\u002A\u002A,3*%
X142385000Y-97705000D03*
%TO.P,REF\u002A\u002A,4*%
X139845000Y-97705000D03*
%TO.P,REF\u002A\u002A,5*%
X137305000Y-97705000D03*
%TO.P,REF\u002A\u002A,6*%
X134765000Y-97705000D03*
%TO.P,REF\u002A\u002A,7*%
X132225000Y-97705000D03*
%TO.P,REF\u002A\u002A,8*%
X129685000Y-97705000D03*
%TO.P,REF\u002A\u002A,9*%
X127145000Y-97705000D03*
%TO.P,REF\u002A\u002A,10*%
X124605000Y-97705000D03*
%TO.P,REF\u002A\u002A,11*%
X122065000Y-97705000D03*
%TO.P,REF\u002A\u002A,12*%
X119525000Y-97705000D03*
%TO.P,REF\u002A\u002A,13*%
X116985000Y-97705000D03*
%TO.P,REF\u002A\u002A,14*%
X114445000Y-97705000D03*
%TO.P,REF\u002A\u002A,15*%
X111905000Y-97705000D03*
%TO.P,REF\u002A\u002A,16*%
X109365000Y-97705000D03*
%TO.P,REF\u002A\u002A,17*%
X106825000Y-97705000D03*
%TO.P,REF\u002A\u002A,18*%
X104285000Y-97705000D03*
%TO.P,REF\u002A\u002A,19*%
X101745000Y-97705000D03*
%TO.P,REF\u002A\u002A,20*%
X99205000Y-97705000D03*
%TO.P,REF\u002A\u002A,21*%
X96665000Y-97705000D03*
%TO.P,REF\u002A\u002A,22*%
X94125000Y-97705000D03*
%TO.P,REF\u002A\u002A,23*%
X91585000Y-97705000D03*
%TO.P,REF\u002A\u002A,24*%
X89045000Y-97705000D03*
%TO.P,REF\u002A\u002A,25*%
X86505000Y-97705000D03*
%TO.P,REF\u002A\u002A,26*%
X83965000Y-97705000D03*
%TO.P,REF\u002A\u002A,27*%
X81425000Y-97705000D03*
%TO.P,REF\u002A\u002A,28*%
X78885000Y-97705000D03*
%TO.P,REF\u002A\u002A,29*%
X76345000Y-97705000D03*
%TO.P,REF\u002A\u002A,30*%
X73805000Y-97705000D03*
%TO.P,REF\u002A\u002A,31*%
X71265000Y-97705000D03*
%TO.P,REF\u002A\u002A,32*%
X68725000Y-97705000D03*
%TO.P,REF\u002A\u002A,33*%
X66185000Y-97705000D03*
%TO.P,REF\u002A\u002A,34*%
X63645000Y-97705000D03*
%TO.P,REF\u002A\u002A,35*%
X61105000Y-97705000D03*
%TO.P,REF\u002A\u002A,36*%
X58565000Y-97705000D03*
%TO.P,REF\u002A\u002A,37*%
X56025000Y-97705000D03*
%TO.P,REF\u002A\u002A,38*%
X53485000Y-97705000D03*
%TO.P,REF\u002A\u002A,39*%
X50945000Y-97705000D03*
%TO.P,REF\u002A\u002A,40*%
X48405000Y-97705000D03*
%TD*%
D10*
%TO.P,REF\u002A\u002A,1*%
%TO.N,N/C*%
X147465000Y-90085000D03*
D11*
%TO.P,REF\u002A\u002A,2*%
X144925000Y-90085000D03*
%TO.P,REF\u002A\u002A,3*%
X142385000Y-90085000D03*
%TO.P,REF\u002A\u002A,4*%
X139845000Y-90085000D03*
%TO.P,REF\u002A\u002A,5*%
X137305000Y-90085000D03*
%TO.P,REF\u002A\u002A,6*%
X134765000Y-90085000D03*
%TO.P,REF\u002A\u002A,7*%
X132225000Y-90085000D03*
%TO.P,REF\u002A\u002A,8*%
X129685000Y-90085000D03*
%TO.P,REF\u002A\u002A,9*%
X127145000Y-90085000D03*
%TO.P,REF\u002A\u002A,10*%
X124605000Y-90085000D03*
%TO.P,REF\u002A\u002A,11*%
X122065000Y-90085000D03*
%TO.P,REF\u002A\u002A,12*%
X119525000Y-90085000D03*
%TO.P,REF\u002A\u002A,13*%
X116985000Y-90085000D03*
%TO.P,REF\u002A\u002A,14*%
X114445000Y-90085000D03*
%TO.P,REF\u002A\u002A,15*%
X111905000Y-90085000D03*
%TO.P,REF\u002A\u002A,16*%
X109365000Y-90085000D03*
%TO.P,REF\u002A\u002A,17*%
X106825000Y-90085000D03*
%TO.P,REF\u002A\u002A,18*%
X104285000Y-90085000D03*
%TO.P,REF\u002A\u002A,19*%
X101745000Y-90085000D03*
%TO.P,REF\u002A\u002A,20*%
X99205000Y-90085000D03*
%TO.P,REF\u002A\u002A,21*%
X96665000Y-90085000D03*
%TO.P,REF\u002A\u002A,22*%
X94125000Y-90085000D03*
%TO.P,REF\u002A\u002A,23*%
X91585000Y-90085000D03*
%TO.P,REF\u002A\u002A,24*%
X89045000Y-90085000D03*
%TO.P,REF\u002A\u002A,25*%
X86505000Y-90085000D03*
%TO.P,REF\u002A\u002A,26*%
X83965000Y-90085000D03*
%TO.P,REF\u002A\u002A,27*%
X81425000Y-90085000D03*
%TO.P,REF\u002A\u002A,28*%
X78885000Y-90085000D03*
%TO.P,REF\u002A\u002A,29*%
X76345000Y-90085000D03*
%TO.P,REF\u002A\u002A,30*%
X73805000Y-90085000D03*
%TO.P,REF\u002A\u002A,31*%
X71265000Y-90085000D03*
%TO.P,REF\u002A\u002A,32*%
X68725000Y-90085000D03*
%TO.P,REF\u002A\u002A,33*%
X66185000Y-90085000D03*
%TO.P,REF\u002A\u002A,34*%
X63645000Y-90085000D03*
%TO.P,REF\u002A\u002A,35*%
X61105000Y-90085000D03*
%TO.P,REF\u002A\u002A,36*%
X58565000Y-90085000D03*
%TO.P,REF\u002A\u002A,37*%
X56025000Y-90085000D03*
%TO.P,REF\u002A\u002A,38*%
X53485000Y-90085000D03*
%TO.P,REF\u002A\u002A,39*%
X50945000Y-90085000D03*
%TO.P,REF\u002A\u002A,40*%
X48405000Y-90085000D03*
%TD*%
D10*
%TO.P,REF\u002A\u002A,1*%
%TO.N,N/C*%
X147465000Y-85005000D03*
D11*
%TO.P,REF\u002A\u002A,2*%
X144925000Y-85005000D03*
%TO.P,REF\u002A\u002A,3*%
X142385000Y-85005000D03*
%TO.P,REF\u002A\u002A,4*%
X139845000Y-85005000D03*
%TO.P,REF\u002A\u002A,5*%
X137305000Y-85005000D03*
%TO.P,REF\u002A\u002A,6*%
X134765000Y-85005000D03*
%TO.P,REF\u002A\u002A,7*%
X132225000Y-85005000D03*
%TO.P,REF\u002A\u002A,8*%
X129685000Y-85005000D03*
%TO.P,REF\u002A\u002A,9*%
X127145000Y-85005000D03*
%TO.P,REF\u002A\u002A,10*%
X124605000Y-85005000D03*
%TO.P,REF\u002A\u002A,11*%
X122065000Y-85005000D03*
%TO.P,REF\u002A\u002A,12*%
X119525000Y-85005000D03*
%TO.P,REF\u002A\u002A,13*%
X116985000Y-85005000D03*
%TO.P,REF\u002A\u002A,14*%
X114445000Y-85005000D03*
%TO.P,REF\u002A\u002A,15*%
X111905000Y-85005000D03*
%TO.P,REF\u002A\u002A,16*%
X109365000Y-85005000D03*
%TO.P,REF\u002A\u002A,17*%
X106825000Y-85005000D03*
%TO.P,REF\u002A\u002A,18*%
X104285000Y-85005000D03*
%TO.P,REF\u002A\u002A,19*%
X101745000Y-85005000D03*
%TO.P,REF\u002A\u002A,20*%
X99205000Y-85005000D03*
%TO.P,REF\u002A\u002A,21*%
X96665000Y-85005000D03*
%TO.P,REF\u002A\u002A,22*%
X94125000Y-85005000D03*
%TO.P,REF\u002A\u002A,23*%
X91585000Y-85005000D03*
%TO.P,REF\u002A\u002A,24*%
X89045000Y-85005000D03*
%TO.P,REF\u002A\u002A,25*%
X86505000Y-85005000D03*
%TO.P,REF\u002A\u002A,26*%
X83965000Y-85005000D03*
%TO.P,REF\u002A\u002A,27*%
X81425000Y-85005000D03*
%TO.P,REF\u002A\u002A,28*%
X78885000Y-85005000D03*
%TO.P,REF\u002A\u002A,29*%
X76345000Y-85005000D03*
%TO.P,REF\u002A\u002A,30*%
X73805000Y-85005000D03*
%TO.P,REF\u002A\u002A,31*%
X71265000Y-85005000D03*
%TO.P,REF\u002A\u002A,32*%
X68725000Y-85005000D03*
%TO.P,REF\u002A\u002A,33*%
X66185000Y-85005000D03*
%TO.P,REF\u002A\u002A,34*%
X63645000Y-85005000D03*
%TO.P,REF\u002A\u002A,35*%
X61105000Y-85005000D03*
%TO.P,REF\u002A\u002A,36*%
X58565000Y-85005000D03*
%TO.P,REF\u002A\u002A,37*%
X56025000Y-85005000D03*
%TO.P,REF\u002A\u002A,38*%
X53485000Y-85005000D03*
%TO.P,REF\u002A\u002A,39*%
X50945000Y-85005000D03*
%TO.P,REF\u002A\u002A,40*%
X48405000Y-85005000D03*
%TD*%
%TO.P,,25*%
%TO.N,N/C*%
X86505000Y-85005000D03*
%TD*%
D10*
%TO.P,REF\u002A\u002A,1*%
%TO.N,N/C*%
X147465000Y-107865000D03*
D11*
%TO.P,REF\u002A\u002A,2*%
X144925000Y-107865000D03*
%TO.P,REF\u002A\u002A,3*%
X142385000Y-107865000D03*
%TO.P,REF\u002A\u002A,4*%
X139845000Y-107865000D03*
%TO.P,REF\u002A\u002A,5*%
X137305000Y-107865000D03*
%TO.P,REF\u002A\u002A,6*%
X134765000Y-107865000D03*
%TO.P,REF\u002A\u002A,7*%
X132225000Y-107865000D03*
%TO.P,REF\u002A\u002A,8*%
X129685000Y-107865000D03*
%TO.P,REF\u002A\u002A,9*%
X127145000Y-107865000D03*
%TO.P,REF\u002A\u002A,10*%
X124605000Y-107865000D03*
%TO.P,REF\u002A\u002A,11*%
X122065000Y-107865000D03*
%TO.P,REF\u002A\u002A,12*%
X119525000Y-107865000D03*
%TO.P,REF\u002A\u002A,13*%
X116985000Y-107865000D03*
%TO.P,REF\u002A\u002A,14*%
X114445000Y-107865000D03*
%TO.P,REF\u002A\u002A,15*%
X111905000Y-107865000D03*
%TO.P,REF\u002A\u002A,16*%
X109365000Y-107865000D03*
%TO.P,REF\u002A\u002A,17*%
X106825000Y-107865000D03*
%TO.P,REF\u002A\u002A,18*%
X104285000Y-107865000D03*
%TO.P,REF\u002A\u002A,19*%
X101745000Y-107865000D03*
%TO.P,REF\u002A\u002A,20*%
X99205000Y-107865000D03*
%TO.P,REF\u002A\u002A,21*%
X96665000Y-107865000D03*
%TO.P,REF\u002A\u002A,22*%
X94125000Y-107865000D03*
%TO.P,REF\u002A\u002A,23*%
X91585000Y-107865000D03*
%TO.P,REF\u002A\u002A,24*%
X89045000Y-107865000D03*
%TO.P,REF\u002A\u002A,25*%
X86505000Y-107865000D03*
%TO.P,REF\u002A\u002A,26*%
X83965000Y-107865000D03*
%TO.P,REF\u002A\u002A,27*%
X81425000Y-107865000D03*
%TO.P,REF\u002A\u002A,28*%
X78885000Y-107865000D03*
%TO.P,REF\u002A\u002A,29*%
X76345000Y-107865000D03*
%TO.P,REF\u002A\u002A,30*%
X73805000Y-107865000D03*
%TO.P,REF\u002A\u002A,31*%
X71265000Y-107865000D03*
%TO.P,REF\u002A\u002A,32*%
X68725000Y-107865000D03*
%TO.P,REF\u002A\u002A,33*%
X66185000Y-107865000D03*
%TO.P,REF\u002A\u002A,34*%
X63645000Y-107865000D03*
%TO.P,REF\u002A\u002A,35*%
X61105000Y-107865000D03*
%TO.P,REF\u002A\u002A,36*%
X58565000Y-107865000D03*
%TO.P,REF\u002A\u002A,37*%
X56025000Y-107865000D03*
%TO.P,REF\u002A\u002A,38*%
X53485000Y-107865000D03*
%TO.P,REF\u002A\u002A,39*%
X50945000Y-107865000D03*
%TO.P,REF\u002A\u002A,40*%
X48405000Y-107865000D03*
%TD*%
D10*
%TO.P,REF\u002A\u002A,1*%
%TO.N,N/C*%
X147455000Y-74845000D03*
D11*
%TO.P,REF\u002A\u002A,2*%
X144915000Y-74845000D03*
%TO.P,REF\u002A\u002A,3*%
X142375000Y-74845000D03*
%TO.P,REF\u002A\u002A,4*%
X139835000Y-74845000D03*
%TO.P,REF\u002A\u002A,5*%
X137295000Y-74845000D03*
%TO.P,REF\u002A\u002A,6*%
X134755000Y-74845000D03*
%TO.P,REF\u002A\u002A,7*%
X132215000Y-74845000D03*
%TO.P,REF\u002A\u002A,8*%
X129675000Y-74845000D03*
%TO.P,REF\u002A\u002A,9*%
X127135000Y-74845000D03*
%TO.P,REF\u002A\u002A,10*%
X124595000Y-74845000D03*
%TO.P,REF\u002A\u002A,11*%
X122055000Y-74845000D03*
%TO.P,REF\u002A\u002A,12*%
X119515000Y-74845000D03*
%TO.P,REF\u002A\u002A,13*%
X116975000Y-74845000D03*
%TO.P,REF\u002A\u002A,14*%
X114435000Y-74845000D03*
%TO.P,REF\u002A\u002A,15*%
X111895000Y-74845000D03*
%TO.P,REF\u002A\u002A,16*%
X109355000Y-74845000D03*
%TO.P,REF\u002A\u002A,17*%
X106815000Y-74845000D03*
%TO.P,REF\u002A\u002A,18*%
X104275000Y-74845000D03*
%TO.P,REF\u002A\u002A,19*%
X101735000Y-74845000D03*
%TO.P,REF\u002A\u002A,20*%
X99195000Y-74845000D03*
%TO.P,REF\u002A\u002A,21*%
X96655000Y-74845000D03*
%TO.P,REF\u002A\u002A,22*%
X94115000Y-74845000D03*
%TO.P,REF\u002A\u002A,23*%
X91575000Y-74845000D03*
%TO.P,REF\u002A\u002A,24*%
X89035000Y-74845000D03*
%TO.P,REF\u002A\u002A,25*%
X86495000Y-74845000D03*
%TO.P,REF\u002A\u002A,26*%
X83955000Y-74845000D03*
%TO.P,REF\u002A\u002A,27*%
X81415000Y-74845000D03*
%TO.P,REF\u002A\u002A,28*%
X78875000Y-74845000D03*
%TO.P,REF\u002A\u002A,29*%
X76335000Y-74845000D03*
%TO.P,REF\u002A\u002A,30*%
X73795000Y-74845000D03*
%TO.P,REF\u002A\u002A,31*%
X71255000Y-74845000D03*
%TO.P,REF\u002A\u002A,32*%
X68715000Y-74845000D03*
%TO.P,REF\u002A\u002A,33*%
X66175000Y-74845000D03*
%TO.P,REF\u002A\u002A,34*%
X63635000Y-74845000D03*
%TO.P,REF\u002A\u002A,35*%
X61095000Y-74845000D03*
%TO.P,REF\u002A\u002A,36*%
X58555000Y-74845000D03*
%TO.P,REF\u002A\u002A,37*%
X56015000Y-74845000D03*
%TO.P,REF\u002A\u002A,38*%
X53475000Y-74845000D03*
%TO.P,REF\u002A\u002A,39*%
X50935000Y-74845000D03*
%TO.P,REF\u002A\u002A,40*%
X48395000Y-74845000D03*
%TD*%
D10*
%TO.P,REF\u002A\u002A,1*%
%TO.N,N/C*%
X147465000Y-92625000D03*
D11*
%TO.P,REF\u002A\u002A,2*%
X144925000Y-92625000D03*
%TO.P,REF\u002A\u002A,3*%
X142385000Y-92625000D03*
%TO.P,REF\u002A\u002A,4*%
X139845000Y-92625000D03*
%TO.P,REF\u002A\u002A,5*%
X137305000Y-92625000D03*
%TO.P,REF\u002A\u002A,6*%
X134765000Y-92625000D03*
%TO.P,REF\u002A\u002A,7*%
X132225000Y-92625000D03*
%TO.P,REF\u002A\u002A,8*%
X129685000Y-92625000D03*
%TO.P,REF\u002A\u002A,9*%
X127145000Y-92625000D03*
%TO.P,REF\u002A\u002A,10*%
X124605000Y-92625000D03*
%TO.P,REF\u002A\u002A,11*%
X122065000Y-92625000D03*
%TO.P,REF\u002A\u002A,12*%
X119525000Y-92625000D03*
%TO.P,REF\u002A\u002A,13*%
X116985000Y-92625000D03*
%TO.P,REF\u002A\u002A,14*%
X114445000Y-92625000D03*
%TO.P,REF\u002A\u002A,15*%
X111905000Y-92625000D03*
%TO.P,REF\u002A\u002A,16*%
X109365000Y-92625000D03*
%TO.P,REF\u002A\u002A,17*%
X106825000Y-92625000D03*
%TO.P,REF\u002A\u002A,18*%
X104285000Y-92625000D03*
%TO.P,REF\u002A\u002A,19*%
X101745000Y-92625000D03*
%TO.P,REF\u002A\u002A,20*%
X99205000Y-92625000D03*
%TO.P,REF\u002A\u002A,21*%
X96665000Y-92625000D03*
%TO.P,REF\u002A\u002A,22*%
X94125000Y-92625000D03*
%TO.P,REF\u002A\u002A,23*%
X91585000Y-92625000D03*
%TO.P,REF\u002A\u002A,24*%
X89045000Y-92625000D03*
%TO.P,REF\u002A\u002A,25*%
X86505000Y-92625000D03*
%TO.P,REF\u002A\u002A,26*%
X83965000Y-92625000D03*
%TO.P,REF\u002A\u002A,27*%
X81425000Y-92625000D03*
%TO.P,REF\u002A\u002A,28*%
X78885000Y-92625000D03*
%TO.P,REF\u002A\u002A,29*%
X76345000Y-92625000D03*
%TO.P,REF\u002A\u002A,30*%
X73805000Y-92625000D03*
%TO.P,REF\u002A\u002A,31*%
X71265000Y-92625000D03*
%TO.P,REF\u002A\u002A,32*%
X68725000Y-92625000D03*
%TO.P,REF\u002A\u002A,33*%
X66185000Y-92625000D03*
%TO.P,REF\u002A\u002A,34*%
X63645000Y-92625000D03*
%TO.P,REF\u002A\u002A,35*%
X61105000Y-92625000D03*
%TO.P,REF\u002A\u002A,36*%
X58565000Y-92625000D03*
%TO.P,REF\u002A\u002A,37*%
X56025000Y-92625000D03*
%TO.P,REF\u002A\u002A,38*%
X53485000Y-92625000D03*
%TO.P,REF\u002A\u002A,39*%
X50945000Y-92625000D03*
%TO.P,REF\u002A\u002A,40*%
X48405000Y-92625000D03*
%TD*%
D10*
%TO.P,REF\u002A\u002A,1*%
%TO.N,N/C*%
X147465000Y-100245000D03*
D11*
%TO.P,REF\u002A\u002A,2*%
X144925000Y-100245000D03*
%TO.P,REF\u002A\u002A,3*%
X142385000Y-100245000D03*
%TO.P,REF\u002A\u002A,4*%
X139845000Y-100245000D03*
%TO.P,REF\u002A\u002A,5*%
X137305000Y-100245000D03*
%TO.P,REF\u002A\u002A,6*%
X134765000Y-100245000D03*
%TO.P,REF\u002A\u002A,7*%
X132225000Y-100245000D03*
%TO.P,REF\u002A\u002A,8*%
X129685000Y-100245000D03*
%TO.P,REF\u002A\u002A,9*%
X127145000Y-100245000D03*
%TO.P,REF\u002A\u002A,10*%
X124605000Y-100245000D03*
%TO.P,REF\u002A\u002A,11*%
X122065000Y-100245000D03*
%TO.P,REF\u002A\u002A,12*%
X119525000Y-100245000D03*
%TO.P,REF\u002A\u002A,13*%
X116985000Y-100245000D03*
%TO.P,REF\u002A\u002A,14*%
X114445000Y-100245000D03*
%TO.P,REF\u002A\u002A,15*%
X111905000Y-100245000D03*
%TO.P,REF\u002A\u002A,16*%
X109365000Y-100245000D03*
%TO.P,REF\u002A\u002A,17*%
X106825000Y-100245000D03*
%TO.P,REF\u002A\u002A,18*%
X104285000Y-100245000D03*
%TO.P,REF\u002A\u002A,19*%
X101745000Y-100245000D03*
%TO.P,REF\u002A\u002A,20*%
X99205000Y-100245000D03*
%TO.P,REF\u002A\u002A,21*%
X96665000Y-100245000D03*
%TO.P,REF\u002A\u002A,22*%
X94125000Y-100245000D03*
%TO.P,REF\u002A\u002A,23*%
X91585000Y-100245000D03*
%TO.P,REF\u002A\u002A,24*%
X89045000Y-100245000D03*
%TO.P,REF\u002A\u002A,25*%
X86505000Y-100245000D03*
%TO.P,REF\u002A\u002A,26*%
X83965000Y-100245000D03*
%TO.P,REF\u002A\u002A,27*%
X81425000Y-100245000D03*
%TO.P,REF\u002A\u002A,28*%
X78885000Y-100245000D03*
%TO.P,REF\u002A\u002A,29*%
X76345000Y-100245000D03*
%TO.P,REF\u002A\u002A,30*%
X73805000Y-100245000D03*
%TO.P,REF\u002A\u002A,31*%
X71265000Y-100245000D03*
%TO.P,REF\u002A\u002A,32*%
X68725000Y-100245000D03*
%TO.P,REF\u002A\u002A,33*%
X66185000Y-100245000D03*
%TO.P,REF\u002A\u002A,34*%
X63645000Y-100245000D03*
%TO.P,REF\u002A\u002A,35*%
X61105000Y-100245000D03*
%TO.P,REF\u002A\u002A,36*%
X58565000Y-100245000D03*
%TO.P,REF\u002A\u002A,37*%
X56025000Y-100245000D03*
%TO.P,REF\u002A\u002A,38*%
X53485000Y-100245000D03*
%TO.P,REF\u002A\u002A,39*%
X50945000Y-100245000D03*
%TO.P,REF\u002A\u002A,40*%
X48405000Y-100245000D03*
%TD*%
D10*
%TO.P,REF\u002A\u002A,1*%
%TO.N,N/C*%
X147455000Y-64685000D03*
D11*
%TO.P,REF\u002A\u002A,2*%
X144915000Y-64685000D03*
%TO.P,REF\u002A\u002A,3*%
X142375000Y-64685000D03*
%TO.P,REF\u002A\u002A,4*%
X139835000Y-64685000D03*
%TO.P,REF\u002A\u002A,5*%
X137295000Y-64685000D03*
%TO.P,REF\u002A\u002A,6*%
X134755000Y-64685000D03*
%TO.P,REF\u002A\u002A,7*%
X132215000Y-64685000D03*
%TO.P,REF\u002A\u002A,8*%
X129675000Y-64685000D03*
%TO.P,REF\u002A\u002A,9*%
X127135000Y-64685000D03*
%TO.P,REF\u002A\u002A,10*%
X124595000Y-64685000D03*
%TO.P,REF\u002A\u002A,11*%
X122055000Y-64685000D03*
%TO.P,REF\u002A\u002A,12*%
X119515000Y-64685000D03*
%TO.P,REF\u002A\u002A,13*%
X116975000Y-64685000D03*
%TO.P,REF\u002A\u002A,14*%
X114435000Y-64685000D03*
%TO.P,REF\u002A\u002A,15*%
X111895000Y-64685000D03*
%TO.P,REF\u002A\u002A,16*%
X109355000Y-64685000D03*
%TO.P,REF\u002A\u002A,17*%
X106815000Y-64685000D03*
%TO.P,REF\u002A\u002A,18*%
X104275000Y-64685000D03*
%TO.P,REF\u002A\u002A,19*%
X101735000Y-64685000D03*
%TO.P,REF\u002A\u002A,20*%
X99195000Y-64685000D03*
%TO.P,REF\u002A\u002A,21*%
X96655000Y-64685000D03*
%TO.P,REF\u002A\u002A,22*%
X94115000Y-64685000D03*
%TO.P,REF\u002A\u002A,23*%
X91575000Y-64685000D03*
%TO.P,REF\u002A\u002A,24*%
X89035000Y-64685000D03*
%TO.P,REF\u002A\u002A,25*%
X86495000Y-64685000D03*
%TO.P,REF\u002A\u002A,26*%
X83955000Y-64685000D03*
%TO.P,REF\u002A\u002A,27*%
X81415000Y-64685000D03*
%TO.P,REF\u002A\u002A,28*%
X78875000Y-64685000D03*
%TO.P,REF\u002A\u002A,29*%
X76335000Y-64685000D03*
%TO.P,REF\u002A\u002A,30*%
X73795000Y-64685000D03*
%TO.P,REF\u002A\u002A,31*%
X71255000Y-64685000D03*
%TO.P,REF\u002A\u002A,32*%
X68715000Y-64685000D03*
%TO.P,REF\u002A\u002A,33*%
X66175000Y-64685000D03*
%TO.P,REF\u002A\u002A,34*%
X63635000Y-64685000D03*
%TO.P,REF\u002A\u002A,35*%
X61095000Y-64685000D03*
%TO.P,REF\u002A\u002A,36*%
X58555000Y-64685000D03*
%TO.P,REF\u002A\u002A,37*%
X56015000Y-64685000D03*
%TO.P,REF\u002A\u002A,38*%
X53475000Y-64685000D03*
%TO.P,REF\u002A\u002A,39*%
X50935000Y-64685000D03*
%TO.P,REF\u002A\u002A,40*%
X48395000Y-64685000D03*
%TD*%
D10*
%TO.P,REF\u002A\u002A,1*%
%TO.N,N/C*%
X147455000Y-72305000D03*
D11*
%TO.P,REF\u002A\u002A,2*%
X144915000Y-72305000D03*
%TO.P,REF\u002A\u002A,3*%
X142375000Y-72305000D03*
%TO.P,REF\u002A\u002A,4*%
X139835000Y-72305000D03*
%TO.P,REF\u002A\u002A,5*%
X137295000Y-72305000D03*
%TO.P,REF\u002A\u002A,6*%
X134755000Y-72305000D03*
%TO.P,REF\u002A\u002A,7*%
X132215000Y-72305000D03*
%TO.P,REF\u002A\u002A,8*%
X129675000Y-72305000D03*
%TO.P,REF\u002A\u002A,9*%
X127135000Y-72305000D03*
%TO.P,REF\u002A\u002A,10*%
X124595000Y-72305000D03*
%TO.P,REF\u002A\u002A,11*%
X122055000Y-72305000D03*
%TO.P,REF\u002A\u002A,12*%
X119515000Y-72305000D03*
%TO.P,REF\u002A\u002A,13*%
X116975000Y-72305000D03*
%TO.P,REF\u002A\u002A,14*%
X114435000Y-72305000D03*
%TO.P,REF\u002A\u002A,15*%
X111895000Y-72305000D03*
%TO.P,REF\u002A\u002A,16*%
X109355000Y-72305000D03*
%TO.P,REF\u002A\u002A,17*%
X106815000Y-72305000D03*
%TO.P,REF\u002A\u002A,18*%
X104275000Y-72305000D03*
%TO.P,REF\u002A\u002A,19*%
X101735000Y-72305000D03*
%TO.P,REF\u002A\u002A,20*%
X99195000Y-72305000D03*
%TO.P,REF\u002A\u002A,21*%
X96655000Y-72305000D03*
%TO.P,REF\u002A\u002A,22*%
X94115000Y-72305000D03*
%TO.P,REF\u002A\u002A,23*%
X91575000Y-72305000D03*
%TO.P,REF\u002A\u002A,24*%
X89035000Y-72305000D03*
%TO.P,REF\u002A\u002A,25*%
X86495000Y-72305000D03*
%TO.P,REF\u002A\u002A,26*%
X83955000Y-72305000D03*
%TO.P,REF\u002A\u002A,27*%
X81415000Y-72305000D03*
%TO.P,REF\u002A\u002A,28*%
X78875000Y-72305000D03*
%TO.P,REF\u002A\u002A,29*%
X76335000Y-72305000D03*
%TO.P,REF\u002A\u002A,30*%
X73795000Y-72305000D03*
%TO.P,REF\u002A\u002A,31*%
X71255000Y-72305000D03*
%TO.P,REF\u002A\u002A,32*%
X68715000Y-72305000D03*
%TO.P,REF\u002A\u002A,33*%
X66175000Y-72305000D03*
%TO.P,REF\u002A\u002A,34*%
X63635000Y-72305000D03*
%TO.P,REF\u002A\u002A,35*%
X61095000Y-72305000D03*
%TO.P,REF\u002A\u002A,36*%
X58555000Y-72305000D03*
%TO.P,REF\u002A\u002A,37*%
X56015000Y-72305000D03*
%TO.P,REF\u002A\u002A,38*%
X53475000Y-72305000D03*
%TO.P,REF\u002A\u002A,39*%
X50935000Y-72305000D03*
%TO.P,REF\u002A\u002A,40*%
X48395000Y-72305000D03*
%TD*%
D10*
%TO.P,REF\u002A\u002A,1*%
%TO.N,N/C*%
X147455000Y-49445000D03*
D11*
%TO.P,REF\u002A\u002A,2*%
X144915000Y-49445000D03*
%TO.P,REF\u002A\u002A,3*%
X142375000Y-49445000D03*
%TO.P,REF\u002A\u002A,4*%
X139835000Y-49445000D03*
%TO.P,REF\u002A\u002A,5*%
X137295000Y-49445000D03*
%TO.P,REF\u002A\u002A,6*%
X134755000Y-49445000D03*
%TO.P,REF\u002A\u002A,7*%
X132215000Y-49445000D03*
%TO.P,REF\u002A\u002A,8*%
X129675000Y-49445000D03*
%TO.P,REF\u002A\u002A,9*%
X127135000Y-49445000D03*
%TO.P,REF\u002A\u002A,10*%
X124595000Y-49445000D03*
%TO.P,REF\u002A\u002A,11*%
X122055000Y-49445000D03*
%TO.P,REF\u002A\u002A,12*%
X119515000Y-49445000D03*
%TO.P,REF\u002A\u002A,13*%
X116975000Y-49445000D03*
%TO.P,REF\u002A\u002A,14*%
X114435000Y-49445000D03*
%TO.P,REF\u002A\u002A,15*%
X111895000Y-49445000D03*
%TO.P,REF\u002A\u002A,16*%
X109355000Y-49445000D03*
%TO.P,REF\u002A\u002A,17*%
X106815000Y-49445000D03*
%TO.P,REF\u002A\u002A,18*%
X104275000Y-49445000D03*
%TO.P,REF\u002A\u002A,19*%
X101735000Y-49445000D03*
%TO.P,REF\u002A\u002A,20*%
X99195000Y-49445000D03*
%TO.P,REF\u002A\u002A,21*%
X96655000Y-49445000D03*
%TO.P,REF\u002A\u002A,22*%
X94115000Y-49445000D03*
%TO.P,REF\u002A\u002A,23*%
X91575000Y-49445000D03*
%TO.P,REF\u002A\u002A,24*%
X89035000Y-49445000D03*
%TO.P,REF\u002A\u002A,25*%
X86495000Y-49445000D03*
%TO.P,REF\u002A\u002A,26*%
X83955000Y-49445000D03*
%TO.P,REF\u002A\u002A,27*%
X81415000Y-49445000D03*
%TO.P,REF\u002A\u002A,28*%
X78875000Y-49445000D03*
%TO.P,REF\u002A\u002A,29*%
X76335000Y-49445000D03*
%TO.P,REF\u002A\u002A,30*%
X73795000Y-49445000D03*
%TO.P,REF\u002A\u002A,31*%
X71255000Y-49445000D03*
%TO.P,REF\u002A\u002A,32*%
X68715000Y-49445000D03*
%TO.P,REF\u002A\u002A,33*%
X66175000Y-49445000D03*
%TO.P,REF\u002A\u002A,34*%
X63635000Y-49445000D03*
%TO.P,REF\u002A\u002A,35*%
X61095000Y-49445000D03*
%TO.P,REF\u002A\u002A,36*%
X58555000Y-49445000D03*
%TO.P,REF\u002A\u002A,37*%
X56015000Y-49445000D03*
%TO.P,REF\u002A\u002A,38*%
X53475000Y-49445000D03*
%TO.P,REF\u002A\u002A,39*%
X50935000Y-49445000D03*
%TO.P,REF\u002A\u002A,40*%
X48395000Y-49445000D03*
%TD*%
D10*
%TO.P,REF\u002A\u002A,1*%
%TO.N,N/C*%
X147465000Y-82465000D03*
D11*
%TO.P,REF\u002A\u002A,2*%
X144925000Y-82465000D03*
%TO.P,REF\u002A\u002A,3*%
X142385000Y-82465000D03*
%TO.P,REF\u002A\u002A,4*%
X139845000Y-82465000D03*
%TO.P,REF\u002A\u002A,5*%
X137305000Y-82465000D03*
%TO.P,REF\u002A\u002A,6*%
X134765000Y-82465000D03*
%TO.P,REF\u002A\u002A,7*%
X132225000Y-82465000D03*
%TO.P,REF\u002A\u002A,8*%
X129685000Y-82465000D03*
%TO.P,REF\u002A\u002A,9*%
X127145000Y-82465000D03*
%TO.P,REF\u002A\u002A,10*%
X124605000Y-82465000D03*
%TO.P,REF\u002A\u002A,11*%
X122065000Y-82465000D03*
%TO.P,REF\u002A\u002A,12*%
X119525000Y-82465000D03*
%TO.P,REF\u002A\u002A,13*%
X116985000Y-82465000D03*
%TO.P,REF\u002A\u002A,14*%
X114445000Y-82465000D03*
%TO.P,REF\u002A\u002A,15*%
X111905000Y-82465000D03*
%TO.P,REF\u002A\u002A,16*%
X109365000Y-82465000D03*
%TO.P,REF\u002A\u002A,17*%
X106825000Y-82465000D03*
%TO.P,REF\u002A\u002A,18*%
X104285000Y-82465000D03*
%TO.P,REF\u002A\u002A,19*%
X101745000Y-82465000D03*
%TO.P,REF\u002A\u002A,20*%
X99205000Y-82465000D03*
%TO.P,REF\u002A\u002A,21*%
X96665000Y-82465000D03*
%TO.P,REF\u002A\u002A,22*%
X94125000Y-82465000D03*
%TO.P,REF\u002A\u002A,23*%
X91585000Y-82465000D03*
%TO.P,REF\u002A\u002A,24*%
X89045000Y-82465000D03*
%TO.P,REF\u002A\u002A,25*%
X86505000Y-82465000D03*
%TO.P,REF\u002A\u002A,26*%
X83965000Y-82465000D03*
%TO.P,REF\u002A\u002A,27*%
X81425000Y-82465000D03*
%TO.P,REF\u002A\u002A,28*%
X78885000Y-82465000D03*
%TO.P,REF\u002A\u002A,29*%
X76345000Y-82465000D03*
%TO.P,REF\u002A\u002A,30*%
X73805000Y-82465000D03*
%TO.P,REF\u002A\u002A,31*%
X71265000Y-82465000D03*
%TO.P,REF\u002A\u002A,32*%
X68725000Y-82465000D03*
%TO.P,REF\u002A\u002A,33*%
X66185000Y-82465000D03*
%TO.P,REF\u002A\u002A,34*%
X63645000Y-82465000D03*
%TO.P,REF\u002A\u002A,35*%
X61105000Y-82465000D03*
%TO.P,REF\u002A\u002A,36*%
X58565000Y-82465000D03*
%TO.P,REF\u002A\u002A,37*%
X56025000Y-82465000D03*
%TO.P,REF\u002A\u002A,38*%
X53485000Y-82465000D03*
%TO.P,REF\u002A\u002A,39*%
X50945000Y-82465000D03*
%TO.P,REF\u002A\u002A,40*%
X48405000Y-82465000D03*
%TD*%
D10*
%TO.P,REF\u002A\u002A,1*%
%TO.N,N/C*%
X147465000Y-87545000D03*
D11*
%TO.P,REF\u002A\u002A,2*%
X144925000Y-87545000D03*
%TO.P,REF\u002A\u002A,3*%
X142385000Y-87545000D03*
%TO.P,REF\u002A\u002A,4*%
X139845000Y-87545000D03*
%TO.P,REF\u002A\u002A,5*%
X137305000Y-87545000D03*
%TO.P,REF\u002A\u002A,6*%
X134765000Y-87545000D03*
%TO.P,REF\u002A\u002A,7*%
X132225000Y-87545000D03*
%TO.P,REF\u002A\u002A,8*%
X129685000Y-87545000D03*
%TO.P,REF\u002A\u002A,9*%
X127145000Y-87545000D03*
%TO.P,REF\u002A\u002A,10*%
X124605000Y-87545000D03*
%TO.P,REF\u002A\u002A,11*%
X122065000Y-87545000D03*
%TO.P,REF\u002A\u002A,12*%
X119525000Y-87545000D03*
%TO.P,REF\u002A\u002A,13*%
X116985000Y-87545000D03*
%TO.P,REF\u002A\u002A,14*%
X114445000Y-87545000D03*
%TO.P,REF\u002A\u002A,15*%
X111905000Y-87545000D03*
%TO.P,REF\u002A\u002A,16*%
X109365000Y-87545000D03*
%TO.P,REF\u002A\u002A,17*%
X106825000Y-87545000D03*
%TO.P,REF\u002A\u002A,18*%
X104285000Y-87545000D03*
%TO.P,REF\u002A\u002A,19*%
X101745000Y-87545000D03*
%TO.P,REF\u002A\u002A,20*%
X99205000Y-87545000D03*
%TO.P,REF\u002A\u002A,21*%
X96665000Y-87545000D03*
%TO.P,REF\u002A\u002A,22*%
X94125000Y-87545000D03*
%TO.P,REF\u002A\u002A,23*%
X91585000Y-87545000D03*
%TO.P,REF\u002A\u002A,24*%
X89045000Y-87545000D03*
%TO.P,REF\u002A\u002A,25*%
X86505000Y-87545000D03*
%TO.P,REF\u002A\u002A,26*%
X83965000Y-87545000D03*
%TO.P,REF\u002A\u002A,27*%
X81425000Y-87545000D03*
%TO.P,REF\u002A\u002A,28*%
X78885000Y-87545000D03*
%TO.P,REF\u002A\u002A,29*%
X76345000Y-87545000D03*
%TO.P,REF\u002A\u002A,30*%
X73805000Y-87545000D03*
%TO.P,REF\u002A\u002A,31*%
X71265000Y-87545000D03*
%TO.P,REF\u002A\u002A,32*%
X68725000Y-87545000D03*
%TO.P,REF\u002A\u002A,33*%
X66185000Y-87545000D03*
%TO.P,REF\u002A\u002A,34*%
X63645000Y-87545000D03*
%TO.P,REF\u002A\u002A,35*%
X61105000Y-87545000D03*
%TO.P,REF\u002A\u002A,36*%
X58565000Y-87545000D03*
%TO.P,REF\u002A\u002A,37*%
X56025000Y-87545000D03*
%TO.P,REF\u002A\u002A,38*%
X53485000Y-87545000D03*
%TO.P,REF\u002A\u002A,39*%
X50945000Y-87545000D03*
%TO.P,REF\u002A\u002A,40*%
X48405000Y-87545000D03*
%TD*%
D10*
%TO.P,REF\u002A\u002A,1*%
%TO.N,N/C*%
X147455000Y-59605000D03*
D11*
%TO.P,REF\u002A\u002A,2*%
X144915000Y-59605000D03*
%TO.P,REF\u002A\u002A,3*%
X142375000Y-59605000D03*
%TO.P,REF\u002A\u002A,4*%
X139835000Y-59605000D03*
%TO.P,REF\u002A\u002A,5*%
X137295000Y-59605000D03*
%TO.P,REF\u002A\u002A,6*%
X134755000Y-59605000D03*
%TO.P,REF\u002A\u002A,7*%
X132215000Y-59605000D03*
%TO.P,REF\u002A\u002A,8*%
X129675000Y-59605000D03*
%TO.P,REF\u002A\u002A,9*%
X127135000Y-59605000D03*
%TO.P,REF\u002A\u002A,10*%
X124595000Y-59605000D03*
%TO.P,REF\u002A\u002A,11*%
X122055000Y-59605000D03*
%TO.P,REF\u002A\u002A,12*%
X119515000Y-59605000D03*
%TO.P,REF\u002A\u002A,13*%
X116975000Y-59605000D03*
%TO.P,REF\u002A\u002A,14*%
X114435000Y-59605000D03*
%TO.P,REF\u002A\u002A,15*%
X111895000Y-59605000D03*
%TO.P,REF\u002A\u002A,16*%
X109355000Y-59605000D03*
%TO.P,REF\u002A\u002A,17*%
X106815000Y-59605000D03*
%TO.P,REF\u002A\u002A,18*%
X104275000Y-59605000D03*
%TO.P,REF\u002A\u002A,19*%
X101735000Y-59605000D03*
%TO.P,REF\u002A\u002A,20*%
X99195000Y-59605000D03*
%TO.P,REF\u002A\u002A,21*%
X96655000Y-59605000D03*
%TO.P,REF\u002A\u002A,22*%
X94115000Y-59605000D03*
%TO.P,REF\u002A\u002A,23*%
X91575000Y-59605000D03*
%TO.P,REF\u002A\u002A,24*%
X89035000Y-59605000D03*
%TO.P,REF\u002A\u002A,25*%
X86495000Y-59605000D03*
%TO.P,REF\u002A\u002A,26*%
X83955000Y-59605000D03*
%TO.P,REF\u002A\u002A,27*%
X81415000Y-59605000D03*
%TO.P,REF\u002A\u002A,28*%
X78875000Y-59605000D03*
%TO.P,REF\u002A\u002A,29*%
X76335000Y-59605000D03*
%TO.P,REF\u002A\u002A,30*%
X73795000Y-59605000D03*
%TO.P,REF\u002A\u002A,31*%
X71255000Y-59605000D03*
%TO.P,REF\u002A\u002A,32*%
X68715000Y-59605000D03*
%TO.P,REF\u002A\u002A,33*%
X66175000Y-59605000D03*
%TO.P,REF\u002A\u002A,34*%
X63635000Y-59605000D03*
%TO.P,REF\u002A\u002A,35*%
X61095000Y-59605000D03*
%TO.P,REF\u002A\u002A,36*%
X58555000Y-59605000D03*
%TO.P,REF\u002A\u002A,37*%
X56015000Y-59605000D03*
%TO.P,REF\u002A\u002A,38*%
X53475000Y-59605000D03*
%TO.P,REF\u002A\u002A,39*%
X50935000Y-59605000D03*
%TO.P,REF\u002A\u002A,40*%
X48395000Y-59605000D03*
%TD*%
D10*
%TO.P,REF\u002A\u002A,1*%
%TO.N,N/C*%
X147455000Y-57065000D03*
D11*
%TO.P,REF\u002A\u002A,2*%
X144915000Y-57065000D03*
%TO.P,REF\u002A\u002A,3*%
X142375000Y-57065000D03*
%TO.P,REF\u002A\u002A,4*%
X139835000Y-57065000D03*
%TO.P,REF\u002A\u002A,5*%
X137295000Y-57065000D03*
%TO.P,REF\u002A\u002A,6*%
X134755000Y-57065000D03*
%TO.P,REF\u002A\u002A,7*%
X132215000Y-57065000D03*
%TO.P,REF\u002A\u002A,8*%
X129675000Y-57065000D03*
%TO.P,REF\u002A\u002A,9*%
X127135000Y-57065000D03*
%TO.P,REF\u002A\u002A,10*%
X124595000Y-57065000D03*
%TO.P,REF\u002A\u002A,11*%
X122055000Y-57065000D03*
%TO.P,REF\u002A\u002A,12*%
X119515000Y-57065000D03*
%TO.P,REF\u002A\u002A,13*%
X116975000Y-57065000D03*
%TO.P,REF\u002A\u002A,14*%
X114435000Y-57065000D03*
%TO.P,REF\u002A\u002A,15*%
X111895000Y-57065000D03*
%TO.P,REF\u002A\u002A,16*%
X109355000Y-57065000D03*
%TO.P,REF\u002A\u002A,17*%
X106815000Y-57065000D03*
%TO.P,REF\u002A\u002A,18*%
X104275000Y-57065000D03*
%TO.P,REF\u002A\u002A,19*%
X101735000Y-57065000D03*
%TO.P,REF\u002A\u002A,20*%
X99195000Y-57065000D03*
%TO.P,REF\u002A\u002A,21*%
X96655000Y-57065000D03*
%TO.P,REF\u002A\u002A,22*%
X94115000Y-57065000D03*
%TO.P,REF\u002A\u002A,23*%
X91575000Y-57065000D03*
%TO.P,REF\u002A\u002A,24*%
X89035000Y-57065000D03*
%TO.P,REF\u002A\u002A,25*%
X86495000Y-57065000D03*
%TO.P,REF\u002A\u002A,26*%
X83955000Y-57065000D03*
%TO.P,REF\u002A\u002A,27*%
X81415000Y-57065000D03*
%TO.P,REF\u002A\u002A,28*%
X78875000Y-57065000D03*
%TO.P,REF\u002A\u002A,29*%
X76335000Y-57065000D03*
%TO.P,REF\u002A\u002A,30*%
X73795000Y-57065000D03*
%TO.P,REF\u002A\u002A,31*%
X71255000Y-57065000D03*
%TO.P,REF\u002A\u002A,32*%
X68715000Y-57065000D03*
%TO.P,REF\u002A\u002A,33*%
X66175000Y-57065000D03*
%TO.P,REF\u002A\u002A,34*%
X63635000Y-57065000D03*
%TO.P,REF\u002A\u002A,35*%
X61095000Y-57065000D03*
%TO.P,REF\u002A\u002A,36*%
X58555000Y-57065000D03*
%TO.P,REF\u002A\u002A,37*%
X56015000Y-57065000D03*
%TO.P,REF\u002A\u002A,38*%
X53475000Y-57065000D03*
%TO.P,REF\u002A\u002A,39*%
X50935000Y-57065000D03*
%TO.P,REF\u002A\u002A,40*%
X48395000Y-57065000D03*
%TD*%
D10*
%TO.P,REF\u002A\u002A,1*%
%TO.N,N/C*%
X147455000Y-67225000D03*
D11*
%TO.P,REF\u002A\u002A,2*%
X144915000Y-67225000D03*
%TO.P,REF\u002A\u002A,3*%
X142375000Y-67225000D03*
%TO.P,REF\u002A\u002A,4*%
X139835000Y-67225000D03*
%TO.P,REF\u002A\u002A,5*%
X137295000Y-67225000D03*
%TO.P,REF\u002A\u002A,6*%
X134755000Y-67225000D03*
%TO.P,REF\u002A\u002A,7*%
X132215000Y-67225000D03*
%TO.P,REF\u002A\u002A,8*%
X129675000Y-67225000D03*
%TO.P,REF\u002A\u002A,9*%
X127135000Y-67225000D03*
%TO.P,REF\u002A\u002A,10*%
X124595000Y-67225000D03*
%TO.P,REF\u002A\u002A,11*%
X122055000Y-67225000D03*
%TO.P,REF\u002A\u002A,12*%
X119515000Y-67225000D03*
%TO.P,REF\u002A\u002A,13*%
X116975000Y-67225000D03*
%TO.P,REF\u002A\u002A,14*%
X114435000Y-67225000D03*
%TO.P,REF\u002A\u002A,15*%
X111895000Y-67225000D03*
%TO.P,REF\u002A\u002A,16*%
X109355000Y-67225000D03*
%TO.P,REF\u002A\u002A,17*%
X106815000Y-67225000D03*
%TO.P,REF\u002A\u002A,18*%
X104275000Y-67225000D03*
%TO.P,REF\u002A\u002A,19*%
X101735000Y-67225000D03*
%TO.P,REF\u002A\u002A,20*%
X99195000Y-67225000D03*
%TO.P,REF\u002A\u002A,21*%
X96655000Y-67225000D03*
%TO.P,REF\u002A\u002A,22*%
X94115000Y-67225000D03*
%TO.P,REF\u002A\u002A,23*%
X91575000Y-67225000D03*
%TO.P,REF\u002A\u002A,24*%
X89035000Y-67225000D03*
%TO.P,REF\u002A\u002A,25*%
X86495000Y-67225000D03*
%TO.P,REF\u002A\u002A,26*%
X83955000Y-67225000D03*
%TO.P,REF\u002A\u002A,27*%
X81415000Y-67225000D03*
%TO.P,REF\u002A\u002A,28*%
X78875000Y-67225000D03*
%TO.P,REF\u002A\u002A,29*%
X76335000Y-67225000D03*
%TO.P,REF\u002A\u002A,30*%
X73795000Y-67225000D03*
%TO.P,REF\u002A\u002A,31*%
X71255000Y-67225000D03*
%TO.P,REF\u002A\u002A,32*%
X68715000Y-67225000D03*
%TO.P,REF\u002A\u002A,33*%
X66175000Y-67225000D03*
%TO.P,REF\u002A\u002A,34*%
X63635000Y-67225000D03*
%TO.P,REF\u002A\u002A,35*%
X61095000Y-67225000D03*
%TO.P,REF\u002A\u002A,36*%
X58555000Y-67225000D03*
%TO.P,REF\u002A\u002A,37*%
X56015000Y-67225000D03*
%TO.P,REF\u002A\u002A,38*%
X53475000Y-67225000D03*
%TO.P,REF\u002A\u002A,39*%
X50935000Y-67225000D03*
%TO.P,REF\u002A\u002A,40*%
X48395000Y-67225000D03*
%TD*%
D10*
%TO.P,REF\u002A\u002A,1*%
%TO.N,N/C*%
X147455000Y-69765000D03*
D11*
%TO.P,REF\u002A\u002A,2*%
X144915000Y-69765000D03*
%TO.P,REF\u002A\u002A,3*%
X142375000Y-69765000D03*
%TO.P,REF\u002A\u002A,4*%
X139835000Y-69765000D03*
%TO.P,REF\u002A\u002A,5*%
X137295000Y-69765000D03*
%TO.P,REF\u002A\u002A,6*%
X134755000Y-69765000D03*
%TO.P,REF\u002A\u002A,7*%
X132215000Y-69765000D03*
%TO.P,REF\u002A\u002A,8*%
X129675000Y-69765000D03*
%TO.P,REF\u002A\u002A,9*%
X127135000Y-69765000D03*
%TO.P,REF\u002A\u002A,10*%
X124595000Y-69765000D03*
%TO.P,REF\u002A\u002A,11*%
X122055000Y-69765000D03*
%TO.P,REF\u002A\u002A,12*%
X119515000Y-69765000D03*
%TO.P,REF\u002A\u002A,13*%
X116975000Y-69765000D03*
%TO.P,REF\u002A\u002A,14*%
X114435000Y-69765000D03*
%TO.P,REF\u002A\u002A,15*%
X111895000Y-69765000D03*
%TO.P,REF\u002A\u002A,16*%
X109355000Y-69765000D03*
%TO.P,REF\u002A\u002A,17*%
X106815000Y-69765000D03*
%TO.P,REF\u002A\u002A,18*%
X104275000Y-69765000D03*
%TO.P,REF\u002A\u002A,19*%
X101735000Y-69765000D03*
%TO.P,REF\u002A\u002A,20*%
X99195000Y-69765000D03*
%TO.P,REF\u002A\u002A,21*%
X96655000Y-69765000D03*
%TO.P,REF\u002A\u002A,22*%
X94115000Y-69765000D03*
%TO.P,REF\u002A\u002A,23*%
X91575000Y-69765000D03*
%TO.P,REF\u002A\u002A,24*%
X89035000Y-69765000D03*
%TO.P,REF\u002A\u002A,25*%
X86495000Y-69765000D03*
%TO.P,REF\u002A\u002A,26*%
X83955000Y-69765000D03*
%TO.P,REF\u002A\u002A,27*%
X81415000Y-69765000D03*
%TO.P,REF\u002A\u002A,28*%
X78875000Y-69765000D03*
%TO.P,REF\u002A\u002A,29*%
X76335000Y-69765000D03*
%TO.P,REF\u002A\u002A,30*%
X73795000Y-69765000D03*
%TO.P,REF\u002A\u002A,31*%
X71255000Y-69765000D03*
%TO.P,REF\u002A\u002A,32*%
X68715000Y-69765000D03*
%TO.P,REF\u002A\u002A,33*%
X66175000Y-69765000D03*
%TO.P,REF\u002A\u002A,34*%
X63635000Y-69765000D03*
%TO.P,REF\u002A\u002A,35*%
X61095000Y-69765000D03*
%TO.P,REF\u002A\u002A,36*%
X58555000Y-69765000D03*
%TO.P,REF\u002A\u002A,37*%
X56015000Y-69765000D03*
%TO.P,REF\u002A\u002A,38*%
X53475000Y-69765000D03*
%TO.P,REF\u002A\u002A,39*%
X50935000Y-69765000D03*
%TO.P,REF\u002A\u002A,40*%
X48395000Y-69765000D03*
%TD*%
D10*
%TO.P,REF\u002A\u002A,1*%
%TO.N,N/C*%
X48400000Y-57060000D03*
D11*
%TO.P,REF\u002A\u002A,2*%
X50940000Y-57060000D03*
%TO.P,REF\u002A\u002A,3*%
X53480000Y-57060000D03*
%TO.P,REF\u002A\u002A,4*%
X56020000Y-57060000D03*
%TO.P,REF\u002A\u002A,5*%
X58560000Y-57060000D03*
%TO.P,REF\u002A\u002A,6*%
X61100000Y-57060000D03*
%TO.P,REF\u002A\u002A,7*%
X63640000Y-57060000D03*
%TO.P,REF\u002A\u002A,8*%
X66180000Y-57060000D03*
%TO.P,REF\u002A\u002A,9*%
X68720000Y-57060000D03*
%TO.P,REF\u002A\u002A,10*%
X71260000Y-57060000D03*
%TO.P,REF\u002A\u002A,11*%
X73800000Y-57060000D03*
%TO.P,REF\u002A\u002A,12*%
X76340000Y-57060000D03*
%TO.P,REF\u002A\u002A,13*%
X78880000Y-57060000D03*
%TO.P,REF\u002A\u002A,14*%
X81420000Y-57060000D03*
%TO.P,REF\u002A\u002A,15*%
X83960000Y-57060000D03*
%TO.P,REF\u002A\u002A,16*%
X86500000Y-57060000D03*
%TO.P,REF\u002A\u002A,17*%
X89040000Y-57060000D03*
%TO.P,REF\u002A\u002A,18*%
X91580000Y-57060000D03*
%TO.P,REF\u002A\u002A,19*%
X94120000Y-57060000D03*
%TO.P,REF\u002A\u002A,20*%
X96660000Y-57060000D03*
%TO.P,REF\u002A\u002A,21*%
X99200000Y-57060000D03*
%TO.P,REF\u002A\u002A,22*%
X101740000Y-57060000D03*
%TO.P,REF\u002A\u002A,23*%
X104280000Y-57060000D03*
%TO.P,REF\u002A\u002A,24*%
X106820000Y-57060000D03*
%TO.P,REF\u002A\u002A,25*%
X109360000Y-57060000D03*
%TO.P,REF\u002A\u002A,26*%
X111900000Y-57060000D03*
%TO.P,REF\u002A\u002A,27*%
X114440000Y-57060000D03*
%TO.P,REF\u002A\u002A,28*%
X116980000Y-57060000D03*
%TO.P,REF\u002A\u002A,29*%
X119520000Y-57060000D03*
%TO.P,REF\u002A\u002A,30*%
X122060000Y-57060000D03*
%TO.P,REF\u002A\u002A,31*%
X124600000Y-57060000D03*
%TO.P,REF\u002A\u002A,32*%
X127140000Y-57060000D03*
%TO.P,REF\u002A\u002A,33*%
X129680000Y-57060000D03*
%TO.P,REF\u002A\u002A,34*%
X132220000Y-57060000D03*
%TO.P,REF\u002A\u002A,35*%
X134760000Y-57060000D03*
%TO.P,REF\u002A\u002A,36*%
X137300000Y-57060000D03*
%TO.P,REF\u002A\u002A,37*%
X139840000Y-57060000D03*
%TO.P,REF\u002A\u002A,38*%
X142380000Y-57060000D03*
%TO.P,REF\u002A\u002A,39*%
X144920000Y-57060000D03*
%TO.P,REF\u002A\u002A,40*%
X147460000Y-57060000D03*
%TD*%
D10*
%TO.P,REF\u002A\u002A,1*%
%TO.N,N/C*%
X48410000Y-92620000D03*
D11*
%TO.P,REF\u002A\u002A,2*%
X50950000Y-92620000D03*
%TO.P,REF\u002A\u002A,3*%
X53490000Y-92620000D03*
%TO.P,REF\u002A\u002A,4*%
X56030000Y-92620000D03*
%TO.P,REF\u002A\u002A,5*%
X58570000Y-92620000D03*
%TO.P,REF\u002A\u002A,6*%
X61110000Y-92620000D03*
%TO.P,REF\u002A\u002A,7*%
X63650000Y-92620000D03*
%TO.P,REF\u002A\u002A,8*%
X66190000Y-92620000D03*
%TO.P,REF\u002A\u002A,9*%
X68730000Y-92620000D03*
%TO.P,REF\u002A\u002A,10*%
X71270000Y-92620000D03*
%TO.P,REF\u002A\u002A,11*%
X73810000Y-92620000D03*
%TO.P,REF\u002A\u002A,12*%
X76350000Y-92620000D03*
%TO.P,REF\u002A\u002A,13*%
X78890000Y-92620000D03*
%TO.P,REF\u002A\u002A,14*%
X81430000Y-92620000D03*
%TO.P,REF\u002A\u002A,15*%
X83970000Y-92620000D03*
%TO.P,REF\u002A\u002A,16*%
X86510000Y-92620000D03*
%TO.P,REF\u002A\u002A,17*%
X89050000Y-92620000D03*
%TO.P,REF\u002A\u002A,18*%
X91590000Y-92620000D03*
%TO.P,REF\u002A\u002A,19*%
X94130000Y-92620000D03*
%TO.P,REF\u002A\u002A,20*%
X96670000Y-92620000D03*
%TO.P,REF\u002A\u002A,21*%
X99210000Y-92620000D03*
%TO.P,REF\u002A\u002A,22*%
X101750000Y-92620000D03*
%TO.P,REF\u002A\u002A,23*%
X104290000Y-92620000D03*
%TO.P,REF\u002A\u002A,24*%
X106830000Y-92620000D03*
%TO.P,REF\u002A\u002A,25*%
X109370000Y-92620000D03*
%TO.P,REF\u002A\u002A,26*%
X111910000Y-92620000D03*
%TO.P,REF\u002A\u002A,27*%
X114450000Y-92620000D03*
%TO.P,REF\u002A\u002A,28*%
X116990000Y-92620000D03*
%TO.P,REF\u002A\u002A,29*%
X119530000Y-92620000D03*
%TO.P,REF\u002A\u002A,30*%
X122070000Y-92620000D03*
%TO.P,REF\u002A\u002A,31*%
X124610000Y-92620000D03*
%TO.P,REF\u002A\u002A,32*%
X127150000Y-92620000D03*
%TO.P,REF\u002A\u002A,33*%
X129690000Y-92620000D03*
%TO.P,REF\u002A\u002A,34*%
X132230000Y-92620000D03*
%TO.P,REF\u002A\u002A,35*%
X134770000Y-92620000D03*
%TO.P,REF\u002A\u002A,36*%
X137310000Y-92620000D03*
%TO.P,REF\u002A\u002A,37*%
X139850000Y-92620000D03*
%TO.P,REF\u002A\u002A,38*%
X142390000Y-92620000D03*
%TO.P,REF\u002A\u002A,39*%
X144930000Y-92620000D03*
%TO.P,REF\u002A\u002A,40*%
X147470000Y-92620000D03*
%TD*%
D10*
%TO.P,REF\u002A\u002A,1*%
%TO.N,N/C*%
X48410000Y-85000000D03*
D11*
%TO.P,REF\u002A\u002A,2*%
X50950000Y-85000000D03*
%TO.P,REF\u002A\u002A,3*%
X53490000Y-85000000D03*
%TO.P,REF\u002A\u002A,4*%
X56030000Y-85000000D03*
%TO.P,REF\u002A\u002A,5*%
X58570000Y-85000000D03*
%TO.P,REF\u002A\u002A,6*%
X61110000Y-85000000D03*
%TO.P,REF\u002A\u002A,7*%
X63650000Y-85000000D03*
%TO.P,REF\u002A\u002A,8*%
X66190000Y-85000000D03*
%TO.P,REF\u002A\u002A,9*%
X68730000Y-85000000D03*
%TO.P,REF\u002A\u002A,10*%
X71270000Y-85000000D03*
%TO.P,REF\u002A\u002A,11*%
X73810000Y-85000000D03*
%TO.P,REF\u002A\u002A,12*%
X76350000Y-85000000D03*
%TO.P,REF\u002A\u002A,13*%
X78890000Y-85000000D03*
%TO.P,REF\u002A\u002A,14*%
X81430000Y-85000000D03*
%TO.P,REF\u002A\u002A,15*%
X83970000Y-85000000D03*
%TO.P,REF\u002A\u002A,16*%
X86510000Y-85000000D03*
%TO.P,REF\u002A\u002A,17*%
X89050000Y-85000000D03*
%TO.P,REF\u002A\u002A,18*%
X91590000Y-85000000D03*
%TO.P,REF\u002A\u002A,19*%
X94130000Y-85000000D03*
%TO.P,REF\u002A\u002A,20*%
X96670000Y-85000000D03*
%TO.P,REF\u002A\u002A,21*%
X99210000Y-85000000D03*
%TO.P,REF\u002A\u002A,22*%
X101750000Y-85000000D03*
%TO.P,REF\u002A\u002A,23*%
X104290000Y-85000000D03*
%TO.P,REF\u002A\u002A,24*%
X106830000Y-85000000D03*
%TO.P,REF\u002A\u002A,25*%
X109370000Y-85000000D03*
%TO.P,REF\u002A\u002A,26*%
X111910000Y-85000000D03*
%TO.P,REF\u002A\u002A,27*%
X114450000Y-85000000D03*
%TO.P,REF\u002A\u002A,28*%
X116990000Y-85000000D03*
%TO.P,REF\u002A\u002A,29*%
X119530000Y-85000000D03*
%TO.P,REF\u002A\u002A,30*%
X122070000Y-85000000D03*
%TO.P,REF\u002A\u002A,31*%
X124610000Y-85000000D03*
%TO.P,REF\u002A\u002A,32*%
X127150000Y-85000000D03*
%TO.P,REF\u002A\u002A,33*%
X129690000Y-85000000D03*
%TO.P,REF\u002A\u002A,34*%
X132230000Y-85000000D03*
%TO.P,REF\u002A\u002A,35*%
X134770000Y-85000000D03*
%TO.P,REF\u002A\u002A,36*%
X137310000Y-85000000D03*
%TO.P,REF\u002A\u002A,37*%
X139850000Y-85000000D03*
%TO.P,REF\u002A\u002A,38*%
X142390000Y-85000000D03*
%TO.P,REF\u002A\u002A,39*%
X144930000Y-85000000D03*
%TO.P,REF\u002A\u002A,40*%
X147470000Y-85000000D03*
%TD*%
D10*
%TO.P,REF\u002A\u002A,1*%
%TO.N,N/C*%
X48410000Y-87540000D03*
D11*
%TO.P,REF\u002A\u002A,2*%
X50950000Y-87540000D03*
%TO.P,REF\u002A\u002A,3*%
X53490000Y-87540000D03*
%TO.P,REF\u002A\u002A,4*%
X56030000Y-87540000D03*
%TO.P,REF\u002A\u002A,5*%
X58570000Y-87540000D03*
%TO.P,REF\u002A\u002A,6*%
X61110000Y-87540000D03*
%TO.P,REF\u002A\u002A,7*%
X63650000Y-87540000D03*
%TO.P,REF\u002A\u002A,8*%
X66190000Y-87540000D03*
%TO.P,REF\u002A\u002A,9*%
X68730000Y-87540000D03*
%TO.P,REF\u002A\u002A,10*%
X71270000Y-87540000D03*
%TO.P,REF\u002A\u002A,11*%
X73810000Y-87540000D03*
%TO.P,REF\u002A\u002A,12*%
X76350000Y-87540000D03*
%TO.P,REF\u002A\u002A,13*%
X78890000Y-87540000D03*
%TO.P,REF\u002A\u002A,14*%
X81430000Y-87540000D03*
%TO.P,REF\u002A\u002A,15*%
X83970000Y-87540000D03*
%TO.P,REF\u002A\u002A,16*%
X86510000Y-87540000D03*
%TO.P,REF\u002A\u002A,17*%
X89050000Y-87540000D03*
%TO.P,REF\u002A\u002A,18*%
X91590000Y-87540000D03*
%TO.P,REF\u002A\u002A,19*%
X94130000Y-87540000D03*
%TO.P,REF\u002A\u002A,20*%
X96670000Y-87540000D03*
%TO.P,REF\u002A\u002A,21*%
X99210000Y-87540000D03*
%TO.P,REF\u002A\u002A,22*%
X101750000Y-87540000D03*
%TO.P,REF\u002A\u002A,23*%
X104290000Y-87540000D03*
%TO.P,REF\u002A\u002A,24*%
X106830000Y-87540000D03*
%TO.P,REF\u002A\u002A,25*%
X109370000Y-87540000D03*
%TO.P,REF\u002A\u002A,26*%
X111910000Y-87540000D03*
%TO.P,REF\u002A\u002A,27*%
X114450000Y-87540000D03*
%TO.P,REF\u002A\u002A,28*%
X116990000Y-87540000D03*
%TO.P,REF\u002A\u002A,29*%
X119530000Y-87540000D03*
%TO.P,REF\u002A\u002A,30*%
X122070000Y-87540000D03*
%TO.P,REF\u002A\u002A,31*%
X124610000Y-87540000D03*
%TO.P,REF\u002A\u002A,32*%
X127150000Y-87540000D03*
%TO.P,REF\u002A\u002A,33*%
X129690000Y-87540000D03*
%TO.P,REF\u002A\u002A,34*%
X132230000Y-87540000D03*
%TO.P,REF\u002A\u002A,35*%
X134770000Y-87540000D03*
%TO.P,REF\u002A\u002A,36*%
X137310000Y-87540000D03*
%TO.P,REF\u002A\u002A,37*%
X139850000Y-87540000D03*
%TO.P,REF\u002A\u002A,38*%
X142390000Y-87540000D03*
%TO.P,REF\u002A\u002A,39*%
X144930000Y-87540000D03*
%TO.P,REF\u002A\u002A,40*%
X147470000Y-87540000D03*
%TD*%
D10*
%TO.P,REF\u002A\u002A,1*%
%TO.N,N/C*%
X48400000Y-62140000D03*
D11*
%TO.P,REF\u002A\u002A,2*%
X50940000Y-62140000D03*
%TO.P,REF\u002A\u002A,3*%
X53480000Y-62140000D03*
%TO.P,REF\u002A\u002A,4*%
X56020000Y-62140000D03*
%TO.P,REF\u002A\u002A,5*%
X58560000Y-62140000D03*
%TO.P,REF\u002A\u002A,6*%
X61100000Y-62140000D03*
%TO.P,REF\u002A\u002A,7*%
X63640000Y-62140000D03*
%TO.P,REF\u002A\u002A,8*%
X66180000Y-62140000D03*
%TO.P,REF\u002A\u002A,9*%
X68720000Y-62140000D03*
%TO.P,REF\u002A\u002A,10*%
X71260000Y-62140000D03*
%TO.P,REF\u002A\u002A,11*%
X73800000Y-62140000D03*
%TO.P,REF\u002A\u002A,12*%
X76340000Y-62140000D03*
%TO.P,REF\u002A\u002A,13*%
X78880000Y-62140000D03*
%TO.P,REF\u002A\u002A,14*%
X81420000Y-62140000D03*
%TO.P,REF\u002A\u002A,15*%
X83960000Y-62140000D03*
%TO.P,REF\u002A\u002A,16*%
X86500000Y-62140000D03*
%TO.P,REF\u002A\u002A,17*%
X89040000Y-62140000D03*
%TO.P,REF\u002A\u002A,18*%
X91580000Y-62140000D03*
%TO.P,REF\u002A\u002A,19*%
X94120000Y-62140000D03*
%TO.P,REF\u002A\u002A,20*%
X96660000Y-62140000D03*
%TO.P,REF\u002A\u002A,21*%
X99200000Y-62140000D03*
%TO.P,REF\u002A\u002A,22*%
X101740000Y-62140000D03*
%TO.P,REF\u002A\u002A,23*%
X104280000Y-62140000D03*
%TO.P,REF\u002A\u002A,24*%
X106820000Y-62140000D03*
%TO.P,REF\u002A\u002A,25*%
X109360000Y-62140000D03*
%TO.P,REF\u002A\u002A,26*%
X111900000Y-62140000D03*
%TO.P,REF\u002A\u002A,27*%
X114440000Y-62140000D03*
%TO.P,REF\u002A\u002A,28*%
X116980000Y-62140000D03*
%TO.P,REF\u002A\u002A,29*%
X119520000Y-62140000D03*
%TO.P,REF\u002A\u002A,30*%
X122060000Y-62140000D03*
%TO.P,REF\u002A\u002A,31*%
X124600000Y-62140000D03*
%TO.P,REF\u002A\u002A,32*%
X127140000Y-62140000D03*
%TO.P,REF\u002A\u002A,33*%
X129680000Y-62140000D03*
%TO.P,REF\u002A\u002A,34*%
X132220000Y-62140000D03*
%TO.P,REF\u002A\u002A,35*%
X134760000Y-62140000D03*
%TO.P,REF\u002A\u002A,36*%
X137300000Y-62140000D03*
%TO.P,REF\u002A\u002A,37*%
X139840000Y-62140000D03*
%TO.P,REF\u002A\u002A,38*%
X142380000Y-62140000D03*
%TO.P,REF\u002A\u002A,39*%
X144920000Y-62140000D03*
%TO.P,REF\u002A\u002A,40*%
X147460000Y-62140000D03*
%TD*%
D10*
%TO.P,REF\u002A\u002A,1*%
%TO.N,N/C*%
X48410000Y-95160000D03*
D11*
%TO.P,REF\u002A\u002A,2*%
X50950000Y-95160000D03*
%TO.P,REF\u002A\u002A,3*%
X53490000Y-95160000D03*
%TO.P,REF\u002A\u002A,4*%
X56030000Y-95160000D03*
%TO.P,REF\u002A\u002A,5*%
X58570000Y-95160000D03*
%TO.P,REF\u002A\u002A,6*%
X61110000Y-95160000D03*
%TO.P,REF\u002A\u002A,7*%
X63650000Y-95160000D03*
%TO.P,REF\u002A\u002A,8*%
X66190000Y-95160000D03*
%TO.P,REF\u002A\u002A,9*%
X68730000Y-95160000D03*
%TO.P,REF\u002A\u002A,10*%
X71270000Y-95160000D03*
%TO.P,REF\u002A\u002A,11*%
X73810000Y-95160000D03*
%TO.P,REF\u002A\u002A,12*%
X76350000Y-95160000D03*
%TO.P,REF\u002A\u002A,13*%
X78890000Y-95160000D03*
%TO.P,REF\u002A\u002A,14*%
X81430000Y-95160000D03*
%TO.P,REF\u002A\u002A,15*%
X83970000Y-95160000D03*
%TO.P,REF\u002A\u002A,16*%
X86510000Y-95160000D03*
%TO.P,REF\u002A\u002A,17*%
X89050000Y-95160000D03*
%TO.P,REF\u002A\u002A,18*%
X91590000Y-95160000D03*
%TO.P,REF\u002A\u002A,19*%
X94130000Y-95160000D03*
%TO.P,REF\u002A\u002A,20*%
X96670000Y-95160000D03*
%TO.P,REF\u002A\u002A,21*%
X99210000Y-95160000D03*
%TO.P,REF\u002A\u002A,22*%
X101750000Y-95160000D03*
%TO.P,REF\u002A\u002A,23*%
X104290000Y-95160000D03*
%TO.P,REF\u002A\u002A,24*%
X106830000Y-95160000D03*
%TO.P,REF\u002A\u002A,25*%
X109370000Y-95160000D03*
%TO.P,REF\u002A\u002A,26*%
X111910000Y-95160000D03*
%TO.P,REF\u002A\u002A,27*%
X114450000Y-95160000D03*
%TO.P,REF\u002A\u002A,28*%
X116990000Y-95160000D03*
%TO.P,REF\u002A\u002A,29*%
X119530000Y-95160000D03*
%TO.P,REF\u002A\u002A,30*%
X122070000Y-95160000D03*
%TO.P,REF\u002A\u002A,31*%
X124610000Y-95160000D03*
%TO.P,REF\u002A\u002A,32*%
X127150000Y-95160000D03*
%TO.P,REF\u002A\u002A,33*%
X129690000Y-95160000D03*
%TO.P,REF\u002A\u002A,34*%
X132230000Y-95160000D03*
%TO.P,REF\u002A\u002A,35*%
X134770000Y-95160000D03*
%TO.P,REF\u002A\u002A,36*%
X137310000Y-95160000D03*
%TO.P,REF\u002A\u002A,37*%
X139850000Y-95160000D03*
%TO.P,REF\u002A\u002A,38*%
X142390000Y-95160000D03*
%TO.P,REF\u002A\u002A,39*%
X144930000Y-95160000D03*
%TO.P,REF\u002A\u002A,40*%
X147470000Y-95160000D03*
%TD*%
D10*
%TO.P,REF\u002A\u002A,1*%
%TO.N,N/C*%
X48400000Y-51980000D03*
D11*
%TO.P,REF\u002A\u002A,2*%
X50940000Y-51980000D03*
%TO.P,REF\u002A\u002A,3*%
X53480000Y-51980000D03*
%TO.P,REF\u002A\u002A,4*%
X56020000Y-51980000D03*
%TO.P,REF\u002A\u002A,5*%
X58560000Y-51980000D03*
%TO.P,REF\u002A\u002A,6*%
X61100000Y-51980000D03*
%TO.P,REF\u002A\u002A,7*%
X63640000Y-51980000D03*
%TO.P,REF\u002A\u002A,8*%
X66180000Y-51980000D03*
%TO.P,REF\u002A\u002A,9*%
X68720000Y-51980000D03*
%TO.P,REF\u002A\u002A,10*%
X71260000Y-51980000D03*
%TO.P,REF\u002A\u002A,11*%
X73800000Y-51980000D03*
%TO.P,REF\u002A\u002A,12*%
X76340000Y-51980000D03*
%TO.P,REF\u002A\u002A,13*%
X78880000Y-51980000D03*
%TO.P,REF\u002A\u002A,14*%
X81420000Y-51980000D03*
%TO.P,REF\u002A\u002A,15*%
X83960000Y-51980000D03*
%TO.P,REF\u002A\u002A,16*%
X86500000Y-51980000D03*
%TO.P,REF\u002A\u002A,17*%
X89040000Y-51980000D03*
%TO.P,REF\u002A\u002A,18*%
X91580000Y-51980000D03*
%TO.P,REF\u002A\u002A,19*%
X94120000Y-51980000D03*
%TO.P,REF\u002A\u002A,20*%
X96660000Y-51980000D03*
%TO.P,REF\u002A\u002A,21*%
X99200000Y-51980000D03*
%TO.P,REF\u002A\u002A,22*%
X101740000Y-51980000D03*
%TO.P,REF\u002A\u002A,23*%
X104280000Y-51980000D03*
%TO.P,REF\u002A\u002A,24*%
X106820000Y-51980000D03*
%TO.P,REF\u002A\u002A,25*%
X109360000Y-51980000D03*
%TO.P,REF\u002A\u002A,26*%
X111900000Y-51980000D03*
%TO.P,REF\u002A\u002A,27*%
X114440000Y-51980000D03*
%TO.P,REF\u002A\u002A,28*%
X116980000Y-51980000D03*
%TO.P,REF\u002A\u002A,29*%
X119520000Y-51980000D03*
%TO.P,REF\u002A\u002A,30*%
X122060000Y-51980000D03*
%TO.P,REF\u002A\u002A,31*%
X124600000Y-51980000D03*
%TO.P,REF\u002A\u002A,32*%
X127140000Y-51980000D03*
%TO.P,REF\u002A\u002A,33*%
X129680000Y-51980000D03*
%TO.P,REF\u002A\u002A,34*%
X132220000Y-51980000D03*
%TO.P,REF\u002A\u002A,35*%
X134760000Y-51980000D03*
%TO.P,REF\u002A\u002A,36*%
X137300000Y-51980000D03*
%TO.P,REF\u002A\u002A,37*%
X139840000Y-51980000D03*
%TO.P,REF\u002A\u002A,38*%
X142380000Y-51980000D03*
%TO.P,REF\u002A\u002A,39*%
X144920000Y-51980000D03*
%TO.P,REF\u002A\u002A,40*%
X147460000Y-51980000D03*
%TD*%
D10*
%TO.P,REF\u002A\u002A,1*%
%TO.N,N/C*%
X48400000Y-64680000D03*
D11*
%TO.P,REF\u002A\u002A,2*%
X50940000Y-64680000D03*
%TO.P,REF\u002A\u002A,3*%
X53480000Y-64680000D03*
%TO.P,REF\u002A\u002A,4*%
X56020000Y-64680000D03*
%TO.P,REF\u002A\u002A,5*%
X58560000Y-64680000D03*
%TO.P,REF\u002A\u002A,6*%
X61100000Y-64680000D03*
%TO.P,REF\u002A\u002A,7*%
X63640000Y-64680000D03*
%TO.P,REF\u002A\u002A,8*%
X66180000Y-64680000D03*
%TO.P,REF\u002A\u002A,9*%
X68720000Y-64680000D03*
%TO.P,REF\u002A\u002A,10*%
X71260000Y-64680000D03*
%TO.P,REF\u002A\u002A,11*%
X73800000Y-64680000D03*
%TO.P,REF\u002A\u002A,12*%
X76340000Y-64680000D03*
%TO.P,REF\u002A\u002A,13*%
X78880000Y-64680000D03*
%TO.P,REF\u002A\u002A,14*%
X81420000Y-64680000D03*
%TO.P,REF\u002A\u002A,15*%
X83960000Y-64680000D03*
%TO.P,REF\u002A\u002A,16*%
X86500000Y-64680000D03*
%TO.P,REF\u002A\u002A,17*%
X89040000Y-64680000D03*
%TO.P,REF\u002A\u002A,18*%
X91580000Y-64680000D03*
%TO.P,REF\u002A\u002A,19*%
X94120000Y-64680000D03*
%TO.P,REF\u002A\u002A,20*%
X96660000Y-64680000D03*
%TO.P,REF\u002A\u002A,21*%
X99200000Y-64680000D03*
%TO.P,REF\u002A\u002A,22*%
X101740000Y-64680000D03*
%TO.P,REF\u002A\u002A,23*%
X104280000Y-64680000D03*
%TO.P,REF\u002A\u002A,24*%
X106820000Y-64680000D03*
%TO.P,REF\u002A\u002A,25*%
X109360000Y-64680000D03*
%TO.P,REF\u002A\u002A,26*%
X111900000Y-64680000D03*
%TO.P,REF\u002A\u002A,27*%
X114440000Y-64680000D03*
%TO.P,REF\u002A\u002A,28*%
X116980000Y-64680000D03*
%TO.P,REF\u002A\u002A,29*%
X119520000Y-64680000D03*
%TO.P,REF\u002A\u002A,30*%
X122060000Y-64680000D03*
%TO.P,REF\u002A\u002A,31*%
X124600000Y-64680000D03*
%TO.P,REF\u002A\u002A,32*%
X127140000Y-64680000D03*
%TO.P,REF\u002A\u002A,33*%
X129680000Y-64680000D03*
%TO.P,REF\u002A\u002A,34*%
X132220000Y-64680000D03*
%TO.P,REF\u002A\u002A,35*%
X134760000Y-64680000D03*
%TO.P,REF\u002A\u002A,36*%
X137300000Y-64680000D03*
%TO.P,REF\u002A\u002A,37*%
X139840000Y-64680000D03*
%TO.P,REF\u002A\u002A,38*%
X142380000Y-64680000D03*
%TO.P,REF\u002A\u002A,39*%
X144920000Y-64680000D03*
%TO.P,REF\u002A\u002A,40*%
X147460000Y-64680000D03*
%TD*%
D10*
%TO.P,REF\u002A\u002A,1*%
%TO.N,N/C*%
X48410000Y-82460000D03*
D11*
%TO.P,REF\u002A\u002A,2*%
X50950000Y-82460000D03*
%TO.P,REF\u002A\u002A,3*%
X53490000Y-82460000D03*
%TO.P,REF\u002A\u002A,4*%
X56030000Y-82460000D03*
%TO.P,REF\u002A\u002A,5*%
X58570000Y-82460000D03*
%TO.P,REF\u002A\u002A,6*%
X61110000Y-82460000D03*
%TO.P,REF\u002A\u002A,7*%
X63650000Y-82460000D03*
%TO.P,REF\u002A\u002A,8*%
X66190000Y-82460000D03*
%TO.P,REF\u002A\u002A,9*%
X68730000Y-82460000D03*
%TO.P,REF\u002A\u002A,10*%
X71270000Y-82460000D03*
%TO.P,REF\u002A\u002A,11*%
X73810000Y-82460000D03*
%TO.P,REF\u002A\u002A,12*%
X76350000Y-82460000D03*
%TO.P,REF\u002A\u002A,13*%
X78890000Y-82460000D03*
%TO.P,REF\u002A\u002A,14*%
X81430000Y-82460000D03*
%TO.P,REF\u002A\u002A,15*%
X83970000Y-82460000D03*
%TO.P,REF\u002A\u002A,16*%
X86510000Y-82460000D03*
%TO.P,REF\u002A\u002A,17*%
X89050000Y-82460000D03*
%TO.P,REF\u002A\u002A,18*%
X91590000Y-82460000D03*
%TO.P,REF\u002A\u002A,19*%
X94130000Y-82460000D03*
%TO.P,REF\u002A\u002A,20*%
X96670000Y-82460000D03*
%TO.P,REF\u002A\u002A,21*%
X99210000Y-82460000D03*
%TO.P,REF\u002A\u002A,22*%
X101750000Y-82460000D03*
%TO.P,REF\u002A\u002A,23*%
X104290000Y-82460000D03*
%TO.P,REF\u002A\u002A,24*%
X106830000Y-82460000D03*
%TO.P,REF\u002A\u002A,25*%
X109370000Y-82460000D03*
%TO.P,REF\u002A\u002A,26*%
X111910000Y-82460000D03*
%TO.P,REF\u002A\u002A,27*%
X114450000Y-82460000D03*
%TO.P,REF\u002A\u002A,28*%
X116990000Y-82460000D03*
%TO.P,REF\u002A\u002A,29*%
X119530000Y-82460000D03*
%TO.P,REF\u002A\u002A,30*%
X122070000Y-82460000D03*
%TO.P,REF\u002A\u002A,31*%
X124610000Y-82460000D03*
%TO.P,REF\u002A\u002A,32*%
X127150000Y-82460000D03*
%TO.P,REF\u002A\u002A,33*%
X129690000Y-82460000D03*
%TO.P,REF\u002A\u002A,34*%
X132230000Y-82460000D03*
%TO.P,REF\u002A\u002A,35*%
X134770000Y-82460000D03*
%TO.P,REF\u002A\u002A,36*%
X137310000Y-82460000D03*
%TO.P,REF\u002A\u002A,37*%
X139850000Y-82460000D03*
%TO.P,REF\u002A\u002A,38*%
X142390000Y-82460000D03*
%TO.P,REF\u002A\u002A,39*%
X144930000Y-82460000D03*
%TO.P,REF\u002A\u002A,40*%
X147470000Y-82460000D03*
%TD*%
D10*
%TO.P,REF\u002A\u002A,1*%
%TO.N,N/C*%
X48400000Y-49440000D03*
D11*
%TO.P,REF\u002A\u002A,2*%
X50940000Y-49440000D03*
%TO.P,REF\u002A\u002A,3*%
X53480000Y-49440000D03*
%TO.P,REF\u002A\u002A,4*%
X56020000Y-49440000D03*
%TO.P,REF\u002A\u002A,5*%
X58560000Y-49440000D03*
%TO.P,REF\u002A\u002A,6*%
X61100000Y-49440000D03*
%TO.P,REF\u002A\u002A,7*%
X63640000Y-49440000D03*
%TO.P,REF\u002A\u002A,8*%
X66180000Y-49440000D03*
%TO.P,REF\u002A\u002A,9*%
X68720000Y-49440000D03*
%TO.P,REF\u002A\u002A,10*%
X71260000Y-49440000D03*
%TO.P,REF\u002A\u002A,11*%
X73800000Y-49440000D03*
%TO.P,REF\u002A\u002A,12*%
X76340000Y-49440000D03*
%TO.P,REF\u002A\u002A,13*%
X78880000Y-49440000D03*
%TO.P,REF\u002A\u002A,14*%
X81420000Y-49440000D03*
%TO.P,REF\u002A\u002A,15*%
X83960000Y-49440000D03*
%TO.P,REF\u002A\u002A,16*%
X86500000Y-49440000D03*
%TO.P,REF\u002A\u002A,17*%
X89040000Y-49440000D03*
%TO.P,REF\u002A\u002A,18*%
X91580000Y-49440000D03*
%TO.P,REF\u002A\u002A,19*%
X94120000Y-49440000D03*
%TO.P,REF\u002A\u002A,20*%
X96660000Y-49440000D03*
%TO.P,REF\u002A\u002A,21*%
X99200000Y-49440000D03*
%TO.P,REF\u002A\u002A,22*%
X101740000Y-49440000D03*
%TO.P,REF\u002A\u002A,23*%
X104280000Y-49440000D03*
%TO.P,REF\u002A\u002A,24*%
X106820000Y-49440000D03*
%TO.P,REF\u002A\u002A,25*%
X109360000Y-49440000D03*
%TO.P,REF\u002A\u002A,26*%
X111900000Y-49440000D03*
%TO.P,REF\u002A\u002A,27*%
X114440000Y-49440000D03*
%TO.P,REF\u002A\u002A,28*%
X116980000Y-49440000D03*
%TO.P,REF\u002A\u002A,29*%
X119520000Y-49440000D03*
%TO.P,REF\u002A\u002A,30*%
X122060000Y-49440000D03*
%TO.P,REF\u002A\u002A,31*%
X124600000Y-49440000D03*
%TO.P,REF\u002A\u002A,32*%
X127140000Y-49440000D03*
%TO.P,REF\u002A\u002A,33*%
X129680000Y-49440000D03*
%TO.P,REF\u002A\u002A,34*%
X132220000Y-49440000D03*
%TO.P,REF\u002A\u002A,35*%
X134760000Y-49440000D03*
%TO.P,REF\u002A\u002A,36*%
X137300000Y-49440000D03*
%TO.P,REF\u002A\u002A,37*%
X139840000Y-49440000D03*
%TO.P,REF\u002A\u002A,38*%
X142380000Y-49440000D03*
%TO.P,REF\u002A\u002A,39*%
X144920000Y-49440000D03*
%TO.P,REF\u002A\u002A,40*%
X147460000Y-49440000D03*
%TD*%
D10*
%TO.P,REF\u002A\u002A,1*%
%TO.N,N/C*%
X48400000Y-72300000D03*
D11*
%TO.P,REF\u002A\u002A,2*%
X50940000Y-72300000D03*
%TO.P,REF\u002A\u002A,3*%
X53480000Y-72300000D03*
%TO.P,REF\u002A\u002A,4*%
X56020000Y-72300000D03*
%TO.P,REF\u002A\u002A,5*%
X58560000Y-72300000D03*
%TO.P,REF\u002A\u002A,6*%
X61100000Y-72300000D03*
%TO.P,REF\u002A\u002A,7*%
X63640000Y-72300000D03*
%TO.P,REF\u002A\u002A,8*%
X66180000Y-72300000D03*
%TO.P,REF\u002A\u002A,9*%
X68720000Y-72300000D03*
%TO.P,REF\u002A\u002A,10*%
X71260000Y-72300000D03*
%TO.P,REF\u002A\u002A,11*%
X73800000Y-72300000D03*
%TO.P,REF\u002A\u002A,12*%
X76340000Y-72300000D03*
%TO.P,REF\u002A\u002A,13*%
X78880000Y-72300000D03*
%TO.P,REF\u002A\u002A,14*%
X81420000Y-72300000D03*
%TO.P,REF\u002A\u002A,15*%
X83960000Y-72300000D03*
%TO.P,REF\u002A\u002A,16*%
X86500000Y-72300000D03*
%TO.P,REF\u002A\u002A,17*%
X89040000Y-72300000D03*
%TO.P,REF\u002A\u002A,18*%
X91580000Y-72300000D03*
%TO.P,REF\u002A\u002A,19*%
X94120000Y-72300000D03*
%TO.P,REF\u002A\u002A,20*%
X96660000Y-72300000D03*
%TO.P,REF\u002A\u002A,21*%
X99200000Y-72300000D03*
%TO.P,REF\u002A\u002A,22*%
X101740000Y-72300000D03*
%TO.P,REF\u002A\u002A,23*%
X104280000Y-72300000D03*
%TO.P,REF\u002A\u002A,24*%
X106820000Y-72300000D03*
%TO.P,REF\u002A\u002A,25*%
X109360000Y-72300000D03*
%TO.P,REF\u002A\u002A,26*%
X111900000Y-72300000D03*
%TO.P,REF\u002A\u002A,27*%
X114440000Y-72300000D03*
%TO.P,REF\u002A\u002A,28*%
X116980000Y-72300000D03*
%TO.P,REF\u002A\u002A,29*%
X119520000Y-72300000D03*
%TO.P,REF\u002A\u002A,30*%
X122060000Y-72300000D03*
%TO.P,REF\u002A\u002A,31*%
X124600000Y-72300000D03*
%TO.P,REF\u002A\u002A,32*%
X127140000Y-72300000D03*
%TO.P,REF\u002A\u002A,33*%
X129680000Y-72300000D03*
%TO.P,REF\u002A\u002A,34*%
X132220000Y-72300000D03*
%TO.P,REF\u002A\u002A,35*%
X134760000Y-72300000D03*
%TO.P,REF\u002A\u002A,36*%
X137300000Y-72300000D03*
%TO.P,REF\u002A\u002A,37*%
X139840000Y-72300000D03*
%TO.P,REF\u002A\u002A,38*%
X142380000Y-72300000D03*
%TO.P,REF\u002A\u002A,39*%
X144920000Y-72300000D03*
%TO.P,REF\u002A\u002A,40*%
X147460000Y-72300000D03*
%TD*%
D10*
%TO.P,REF\u002A\u002A,1*%
%TO.N,N/C*%
X48400000Y-67220000D03*
D11*
%TO.P,REF\u002A\u002A,2*%
X50940000Y-67220000D03*
%TO.P,REF\u002A\u002A,3*%
X53480000Y-67220000D03*
%TO.P,REF\u002A\u002A,4*%
X56020000Y-67220000D03*
%TO.P,REF\u002A\u002A,5*%
X58560000Y-67220000D03*
%TO.P,REF\u002A\u002A,6*%
X61100000Y-67220000D03*
%TO.P,REF\u002A\u002A,7*%
X63640000Y-67220000D03*
%TO.P,REF\u002A\u002A,8*%
X66180000Y-67220000D03*
%TO.P,REF\u002A\u002A,9*%
X68720000Y-67220000D03*
%TO.P,REF\u002A\u002A,10*%
X71260000Y-67220000D03*
%TO.P,REF\u002A\u002A,11*%
X73800000Y-67220000D03*
%TO.P,REF\u002A\u002A,12*%
X76340000Y-67220000D03*
%TO.P,REF\u002A\u002A,13*%
X78880000Y-67220000D03*
%TO.P,REF\u002A\u002A,14*%
X81420000Y-67220000D03*
%TO.P,REF\u002A\u002A,15*%
X83960000Y-67220000D03*
%TO.P,REF\u002A\u002A,16*%
X86500000Y-67220000D03*
%TO.P,REF\u002A\u002A,17*%
X89040000Y-67220000D03*
%TO.P,REF\u002A\u002A,18*%
X91580000Y-67220000D03*
%TO.P,REF\u002A\u002A,19*%
X94120000Y-67220000D03*
%TO.P,REF\u002A\u002A,20*%
X96660000Y-67220000D03*
%TO.P,REF\u002A\u002A,21*%
X99200000Y-67220000D03*
%TO.P,REF\u002A\u002A,22*%
X101740000Y-67220000D03*
%TO.P,REF\u002A\u002A,23*%
X104280000Y-67220000D03*
%TO.P,REF\u002A\u002A,24*%
X106820000Y-67220000D03*
%TO.P,REF\u002A\u002A,25*%
X109360000Y-67220000D03*
%TO.P,REF\u002A\u002A,26*%
X111900000Y-67220000D03*
%TO.P,REF\u002A\u002A,27*%
X114440000Y-67220000D03*
%TO.P,REF\u002A\u002A,28*%
X116980000Y-67220000D03*
%TO.P,REF\u002A\u002A,29*%
X119520000Y-67220000D03*
%TO.P,REF\u002A\u002A,30*%
X122060000Y-67220000D03*
%TO.P,REF\u002A\u002A,31*%
X124600000Y-67220000D03*
%TO.P,REF\u002A\u002A,32*%
X127140000Y-67220000D03*
%TO.P,REF\u002A\u002A,33*%
X129680000Y-67220000D03*
%TO.P,REF\u002A\u002A,34*%
X132220000Y-67220000D03*
%TO.P,REF\u002A\u002A,35*%
X134760000Y-67220000D03*
%TO.P,REF\u002A\u002A,36*%
X137300000Y-67220000D03*
%TO.P,REF\u002A\u002A,37*%
X139840000Y-67220000D03*
%TO.P,REF\u002A\u002A,38*%
X142380000Y-67220000D03*
%TO.P,REF\u002A\u002A,39*%
X144920000Y-67220000D03*
%TO.P,REF\u002A\u002A,40*%
X147460000Y-67220000D03*
%TD*%
D10*
%TO.P,REF\u002A\u002A,1*%
%TO.N,N/C*%
X48400000Y-59600000D03*
D11*
%TO.P,REF\u002A\u002A,2*%
X50940000Y-59600000D03*
%TO.P,REF\u002A\u002A,3*%
X53480000Y-59600000D03*
%TO.P,REF\u002A\u002A,4*%
X56020000Y-59600000D03*
%TO.P,REF\u002A\u002A,5*%
X58560000Y-59600000D03*
%TO.P,REF\u002A\u002A,6*%
X61100000Y-59600000D03*
%TO.P,REF\u002A\u002A,7*%
X63640000Y-59600000D03*
%TO.P,REF\u002A\u002A,8*%
X66180000Y-59600000D03*
%TO.P,REF\u002A\u002A,9*%
X68720000Y-59600000D03*
%TO.P,REF\u002A\u002A,10*%
X71260000Y-59600000D03*
%TO.P,REF\u002A\u002A,11*%
X73800000Y-59600000D03*
%TO.P,REF\u002A\u002A,12*%
X76340000Y-59600000D03*
%TO.P,REF\u002A\u002A,13*%
X78880000Y-59600000D03*
%TO.P,REF\u002A\u002A,14*%
X81420000Y-59600000D03*
%TO.P,REF\u002A\u002A,15*%
X83960000Y-59600000D03*
%TO.P,REF\u002A\u002A,16*%
X86500000Y-59600000D03*
%TO.P,REF\u002A\u002A,17*%
X89040000Y-59600000D03*
%TO.P,REF\u002A\u002A,18*%
X91580000Y-59600000D03*
%TO.P,REF\u002A\u002A,19*%
X94120000Y-59600000D03*
%TO.P,REF\u002A\u002A,20*%
X96660000Y-59600000D03*
%TO.P,REF\u002A\u002A,21*%
X99200000Y-59600000D03*
%TO.P,REF\u002A\u002A,22*%
X101740000Y-59600000D03*
%TO.P,REF\u002A\u002A,23*%
X104280000Y-59600000D03*
%TO.P,REF\u002A\u002A,24*%
X106820000Y-59600000D03*
%TO.P,REF\u002A\u002A,25*%
X109360000Y-59600000D03*
%TO.P,REF\u002A\u002A,26*%
X111900000Y-59600000D03*
%TO.P,REF\u002A\u002A,27*%
X114440000Y-59600000D03*
%TO.P,REF\u002A\u002A,28*%
X116980000Y-59600000D03*
%TO.P,REF\u002A\u002A,29*%
X119520000Y-59600000D03*
%TO.P,REF\u002A\u002A,30*%
X122060000Y-59600000D03*
%TO.P,REF\u002A\u002A,31*%
X124600000Y-59600000D03*
%TO.P,REF\u002A\u002A,32*%
X127140000Y-59600000D03*
%TO.P,REF\u002A\u002A,33*%
X129680000Y-59600000D03*
%TO.P,REF\u002A\u002A,34*%
X132220000Y-59600000D03*
%TO.P,REF\u002A\u002A,35*%
X134760000Y-59600000D03*
%TO.P,REF\u002A\u002A,36*%
X137300000Y-59600000D03*
%TO.P,REF\u002A\u002A,37*%
X139840000Y-59600000D03*
%TO.P,REF\u002A\u002A,38*%
X142380000Y-59600000D03*
%TO.P,REF\u002A\u002A,39*%
X144920000Y-59600000D03*
%TO.P,REF\u002A\u002A,40*%
X147460000Y-59600000D03*
%TD*%
D10*
%TO.P,REF\u002A\u002A,1*%
%TO.N,N/C*%
X48410000Y-105320000D03*
D11*
%TO.P,REF\u002A\u002A,2*%
X50950000Y-105320000D03*
%TO.P,REF\u002A\u002A,3*%
X53490000Y-105320000D03*
%TO.P,REF\u002A\u002A,4*%
X56030000Y-105320000D03*
%TO.P,REF\u002A\u002A,5*%
X58570000Y-105320000D03*
%TO.P,REF\u002A\u002A,6*%
X61110000Y-105320000D03*
%TO.P,REF\u002A\u002A,7*%
X63650000Y-105320000D03*
%TO.P,REF\u002A\u002A,8*%
X66190000Y-105320000D03*
%TO.P,REF\u002A\u002A,9*%
X68730000Y-105320000D03*
%TO.P,REF\u002A\u002A,10*%
X71270000Y-105320000D03*
%TO.P,REF\u002A\u002A,11*%
X73810000Y-105320000D03*
%TO.P,REF\u002A\u002A,12*%
X76350000Y-105320000D03*
%TO.P,REF\u002A\u002A,13*%
X78890000Y-105320000D03*
%TO.P,REF\u002A\u002A,14*%
X81430000Y-105320000D03*
%TO.P,REF\u002A\u002A,15*%
X83970000Y-105320000D03*
%TO.P,REF\u002A\u002A,16*%
X86510000Y-105320000D03*
%TO.P,REF\u002A\u002A,17*%
X89050000Y-105320000D03*
%TO.P,REF\u002A\u002A,18*%
X91590000Y-105320000D03*
%TO.P,REF\u002A\u002A,19*%
X94130000Y-105320000D03*
%TO.P,REF\u002A\u002A,20*%
X96670000Y-105320000D03*
%TO.P,REF\u002A\u002A,21*%
X99210000Y-105320000D03*
%TO.P,REF\u002A\u002A,22*%
X101750000Y-105320000D03*
%TO.P,REF\u002A\u002A,23*%
X104290000Y-105320000D03*
%TO.P,REF\u002A\u002A,24*%
X106830000Y-105320000D03*
%TO.P,REF\u002A\u002A,25*%
X109370000Y-105320000D03*
%TO.P,REF\u002A\u002A,26*%
X111910000Y-105320000D03*
%TO.P,REF\u002A\u002A,27*%
X114450000Y-105320000D03*
%TO.P,REF\u002A\u002A,28*%
X116990000Y-105320000D03*
%TO.P,REF\u002A\u002A,29*%
X119530000Y-105320000D03*
%TO.P,REF\u002A\u002A,30*%
X122070000Y-105320000D03*
%TO.P,REF\u002A\u002A,31*%
X124610000Y-105320000D03*
%TO.P,REF\u002A\u002A,32*%
X127150000Y-105320000D03*
%TO.P,REF\u002A\u002A,33*%
X129690000Y-105320000D03*
%TO.P,REF\u002A\u002A,34*%
X132230000Y-105320000D03*
%TO.P,REF\u002A\u002A,35*%
X134770000Y-105320000D03*
%TO.P,REF\u002A\u002A,36*%
X137310000Y-105320000D03*
%TO.P,REF\u002A\u002A,37*%
X139850000Y-105320000D03*
%TO.P,REF\u002A\u002A,38*%
X142390000Y-105320000D03*
%TO.P,REF\u002A\u002A,39*%
X144930000Y-105320000D03*
%TO.P,REF\u002A\u002A,40*%
X147470000Y-105320000D03*
%TD*%
D10*
%TO.P,REF\u002A\u002A,1*%
%TO.N,N/C*%
X48410000Y-97700000D03*
D11*
%TO.P,REF\u002A\u002A,2*%
X50950000Y-97700000D03*
%TO.P,REF\u002A\u002A,3*%
X53490000Y-97700000D03*
%TO.P,REF\u002A\u002A,4*%
X56030000Y-97700000D03*
%TO.P,REF\u002A\u002A,5*%
X58570000Y-97700000D03*
%TO.P,REF\u002A\u002A,6*%
X61110000Y-97700000D03*
%TO.P,REF\u002A\u002A,7*%
X63650000Y-97700000D03*
%TO.P,REF\u002A\u002A,8*%
X66190000Y-97700000D03*
%TO.P,REF\u002A\u002A,9*%
X68730000Y-97700000D03*
%TO.P,REF\u002A\u002A,10*%
X71270000Y-97700000D03*
%TO.P,REF\u002A\u002A,11*%
X73810000Y-97700000D03*
%TO.P,REF\u002A\u002A,12*%
X76350000Y-97700000D03*
%TO.P,REF\u002A\u002A,13*%
X78890000Y-97700000D03*
%TO.P,REF\u002A\u002A,14*%
X81430000Y-97700000D03*
%TO.P,REF\u002A\u002A,15*%
X83970000Y-97700000D03*
%TO.P,REF\u002A\u002A,16*%
X86510000Y-97700000D03*
%TO.P,REF\u002A\u002A,17*%
X89050000Y-97700000D03*
%TO.P,REF\u002A\u002A,18*%
X91590000Y-97700000D03*
%TO.P,REF\u002A\u002A,19*%
X94130000Y-97700000D03*
%TO.P,REF\u002A\u002A,20*%
X96670000Y-97700000D03*
%TO.P,REF\u002A\u002A,21*%
X99210000Y-97700000D03*
%TO.P,REF\u002A\u002A,22*%
X101750000Y-97700000D03*
%TO.P,REF\u002A\u002A,23*%
X104290000Y-97700000D03*
%TO.P,REF\u002A\u002A,24*%
X106830000Y-97700000D03*
%TO.P,REF\u002A\u002A,25*%
X109370000Y-97700000D03*
%TO.P,REF\u002A\u002A,26*%
X111910000Y-97700000D03*
%TO.P,REF\u002A\u002A,27*%
X114450000Y-97700000D03*
%TO.P,REF\u002A\u002A,28*%
X116990000Y-97700000D03*
%TO.P,REF\u002A\u002A,29*%
X119530000Y-97700000D03*
%TO.P,REF\u002A\u002A,30*%
X122070000Y-97700000D03*
%TO.P,REF\u002A\u002A,31*%
X124610000Y-97700000D03*
%TO.P,REF\u002A\u002A,32*%
X127150000Y-97700000D03*
%TO.P,REF\u002A\u002A,33*%
X129690000Y-97700000D03*
%TO.P,REF\u002A\u002A,34*%
X132230000Y-97700000D03*
%TO.P,REF\u002A\u002A,35*%
X134770000Y-97700000D03*
%TO.P,REF\u002A\u002A,36*%
X137310000Y-97700000D03*
%TO.P,REF\u002A\u002A,37*%
X139850000Y-97700000D03*
%TO.P,REF\u002A\u002A,38*%
X142390000Y-97700000D03*
%TO.P,REF\u002A\u002A,39*%
X144930000Y-97700000D03*
%TO.P,REF\u002A\u002A,40*%
X147470000Y-97700000D03*
%TD*%
D10*
%TO.P,REF\u002A\u002A,1*%
%TO.N,N/C*%
X48410000Y-100240000D03*
D11*
%TO.P,REF\u002A\u002A,2*%
X50950000Y-100240000D03*
%TO.P,REF\u002A\u002A,3*%
X53490000Y-100240000D03*
%TO.P,REF\u002A\u002A,4*%
X56030000Y-100240000D03*
%TO.P,REF\u002A\u002A,5*%
X58570000Y-100240000D03*
%TO.P,REF\u002A\u002A,6*%
X61110000Y-100240000D03*
%TO.P,REF\u002A\u002A,7*%
X63650000Y-100240000D03*
%TO.P,REF\u002A\u002A,8*%
X66190000Y-100240000D03*
%TO.P,REF\u002A\u002A,9*%
X68730000Y-100240000D03*
%TO.P,REF\u002A\u002A,10*%
X71270000Y-100240000D03*
%TO.P,REF\u002A\u002A,11*%
X73810000Y-100240000D03*
%TO.P,REF\u002A\u002A,12*%
X76350000Y-100240000D03*
%TO.P,REF\u002A\u002A,13*%
X78890000Y-100240000D03*
%TO.P,REF\u002A\u002A,14*%
X81430000Y-100240000D03*
%TO.P,REF\u002A\u002A,15*%
X83970000Y-100240000D03*
%TO.P,REF\u002A\u002A,16*%
X86510000Y-100240000D03*
%TO.P,REF\u002A\u002A,17*%
X89050000Y-100240000D03*
%TO.P,REF\u002A\u002A,18*%
X91590000Y-100240000D03*
%TO.P,REF\u002A\u002A,19*%
X94130000Y-100240000D03*
%TO.P,REF\u002A\u002A,20*%
X96670000Y-100240000D03*
%TO.P,REF\u002A\u002A,21*%
X99210000Y-100240000D03*
%TO.P,REF\u002A\u002A,22*%
X101750000Y-100240000D03*
%TO.P,REF\u002A\u002A,23*%
X104290000Y-100240000D03*
%TO.P,REF\u002A\u002A,24*%
X106830000Y-100240000D03*
%TO.P,REF\u002A\u002A,25*%
X109370000Y-100240000D03*
%TO.P,REF\u002A\u002A,26*%
X111910000Y-100240000D03*
%TO.P,REF\u002A\u002A,27*%
X114450000Y-100240000D03*
%TO.P,REF\u002A\u002A,28*%
X116990000Y-100240000D03*
%TO.P,REF\u002A\u002A,29*%
X119530000Y-100240000D03*
%TO.P,REF\u002A\u002A,30*%
X122070000Y-100240000D03*
%TO.P,REF\u002A\u002A,31*%
X124610000Y-100240000D03*
%TO.P,REF\u002A\u002A,32*%
X127150000Y-100240000D03*
%TO.P,REF\u002A\u002A,33*%
X129690000Y-100240000D03*
%TO.P,REF\u002A\u002A,34*%
X132230000Y-100240000D03*
%TO.P,REF\u002A\u002A,35*%
X134770000Y-100240000D03*
%TO.P,REF\u002A\u002A,36*%
X137310000Y-100240000D03*
%TO.P,REF\u002A\u002A,37*%
X139850000Y-100240000D03*
%TO.P,REF\u002A\u002A,38*%
X142390000Y-100240000D03*
%TO.P,REF\u002A\u002A,39*%
X144930000Y-100240000D03*
%TO.P,REF\u002A\u002A,40*%
X147470000Y-100240000D03*
%TD*%
D10*
%TO.P,REF\u002A\u002A,1*%
%TO.N,N/C*%
X48410000Y-90080000D03*
D11*
%TO.P,REF\u002A\u002A,2*%
X50950000Y-90080000D03*
%TO.P,REF\u002A\u002A,3*%
X53490000Y-90080000D03*
%TO.P,REF\u002A\u002A,4*%
X56030000Y-90080000D03*
%TO.P,REF\u002A\u002A,5*%
X58570000Y-90080000D03*
%TO.P,REF\u002A\u002A,6*%
X61110000Y-90080000D03*
%TO.P,REF\u002A\u002A,7*%
X63650000Y-90080000D03*
%TO.P,REF\u002A\u002A,8*%
X66190000Y-90080000D03*
%TO.P,REF\u002A\u002A,9*%
X68730000Y-90080000D03*
%TO.P,REF\u002A\u002A,10*%
X71270000Y-90080000D03*
%TO.P,REF\u002A\u002A,11*%
X73810000Y-90080000D03*
%TO.P,REF\u002A\u002A,12*%
X76350000Y-90080000D03*
%TO.P,REF\u002A\u002A,13*%
X78890000Y-90080000D03*
%TO.P,REF\u002A\u002A,14*%
X81430000Y-90080000D03*
%TO.P,REF\u002A\u002A,15*%
X83970000Y-90080000D03*
%TO.P,REF\u002A\u002A,16*%
X86510000Y-90080000D03*
%TO.P,REF\u002A\u002A,17*%
X89050000Y-90080000D03*
%TO.P,REF\u002A\u002A,18*%
X91590000Y-90080000D03*
%TO.P,REF\u002A\u002A,19*%
X94130000Y-90080000D03*
%TO.P,REF\u002A\u002A,20*%
X96670000Y-90080000D03*
%TO.P,REF\u002A\u002A,21*%
X99210000Y-90080000D03*
%TO.P,REF\u002A\u002A,22*%
X101750000Y-90080000D03*
%TO.P,REF\u002A\u002A,23*%
X104290000Y-90080000D03*
%TO.P,REF\u002A\u002A,24*%
X106830000Y-90080000D03*
%TO.P,REF\u002A\u002A,25*%
X109370000Y-90080000D03*
%TO.P,REF\u002A\u002A,26*%
X111910000Y-90080000D03*
%TO.P,REF\u002A\u002A,27*%
X114450000Y-90080000D03*
%TO.P,REF\u002A\u002A,28*%
X116990000Y-90080000D03*
%TO.P,REF\u002A\u002A,29*%
X119530000Y-90080000D03*
%TO.P,REF\u002A\u002A,30*%
X122070000Y-90080000D03*
%TO.P,REF\u002A\u002A,31*%
X124610000Y-90080000D03*
%TO.P,REF\u002A\u002A,32*%
X127150000Y-90080000D03*
%TO.P,REF\u002A\u002A,33*%
X129690000Y-90080000D03*
%TO.P,REF\u002A\u002A,34*%
X132230000Y-90080000D03*
%TO.P,REF\u002A\u002A,35*%
X134770000Y-90080000D03*
%TO.P,REF\u002A\u002A,36*%
X137310000Y-90080000D03*
%TO.P,REF\u002A\u002A,37*%
X139850000Y-90080000D03*
%TO.P,REF\u002A\u002A,38*%
X142390000Y-90080000D03*
%TO.P,REF\u002A\u002A,39*%
X144930000Y-90080000D03*
%TO.P,REF\u002A\u002A,40*%
X147470000Y-90080000D03*
%TD*%
D10*
%TO.P,REF\u002A\u002A,1*%
%TO.N,N/C*%
X48400000Y-74840000D03*
D11*
%TO.P,REF\u002A\u002A,2*%
X50940000Y-74840000D03*
%TO.P,REF\u002A\u002A,3*%
X53480000Y-74840000D03*
%TO.P,REF\u002A\u002A,4*%
X56020000Y-74840000D03*
%TO.P,REF\u002A\u002A,5*%
X58560000Y-74840000D03*
%TO.P,REF\u002A\u002A,6*%
X61100000Y-74840000D03*
%TO.P,REF\u002A\u002A,7*%
X63640000Y-74840000D03*
%TO.P,REF\u002A\u002A,8*%
X66180000Y-74840000D03*
%TO.P,REF\u002A\u002A,9*%
X68720000Y-74840000D03*
%TO.P,REF\u002A\u002A,10*%
X71260000Y-74840000D03*
%TO.P,REF\u002A\u002A,11*%
X73800000Y-74840000D03*
%TO.P,REF\u002A\u002A,12*%
X76340000Y-74840000D03*
%TO.P,REF\u002A\u002A,13*%
X78880000Y-74840000D03*
%TO.P,REF\u002A\u002A,14*%
X81420000Y-74840000D03*
%TO.P,REF\u002A\u002A,15*%
X83960000Y-74840000D03*
%TO.P,REF\u002A\u002A,16*%
X86500000Y-74840000D03*
%TO.P,REF\u002A\u002A,17*%
X89040000Y-74840000D03*
%TO.P,REF\u002A\u002A,18*%
X91580000Y-74840000D03*
%TO.P,REF\u002A\u002A,19*%
X94120000Y-74840000D03*
%TO.P,REF\u002A\u002A,20*%
X96660000Y-74840000D03*
%TO.P,REF\u002A\u002A,21*%
X99200000Y-74840000D03*
%TO.P,REF\u002A\u002A,22*%
X101740000Y-74840000D03*
%TO.P,REF\u002A\u002A,23*%
X104280000Y-74840000D03*
%TO.P,REF\u002A\u002A,24*%
X106820000Y-74840000D03*
%TO.P,REF\u002A\u002A,25*%
X109360000Y-74840000D03*
%TO.P,REF\u002A\u002A,26*%
X111900000Y-74840000D03*
%TO.P,REF\u002A\u002A,27*%
X114440000Y-74840000D03*
%TO.P,REF\u002A\u002A,28*%
X116980000Y-74840000D03*
%TO.P,REF\u002A\u002A,29*%
X119520000Y-74840000D03*
%TO.P,REF\u002A\u002A,30*%
X122060000Y-74840000D03*
%TO.P,REF\u002A\u002A,31*%
X124600000Y-74840000D03*
%TO.P,REF\u002A\u002A,32*%
X127140000Y-74840000D03*
%TO.P,REF\u002A\u002A,33*%
X129680000Y-74840000D03*
%TO.P,REF\u002A\u002A,34*%
X132220000Y-74840000D03*
%TO.P,REF\u002A\u002A,35*%
X134760000Y-74840000D03*
%TO.P,REF\u002A\u002A,36*%
X137300000Y-74840000D03*
%TO.P,REF\u002A\u002A,37*%
X139840000Y-74840000D03*
%TO.P,REF\u002A\u002A,38*%
X142380000Y-74840000D03*
%TO.P,REF\u002A\u002A,39*%
X144920000Y-74840000D03*
%TO.P,REF\u002A\u002A,40*%
X147460000Y-74840000D03*
%TD*%
D10*
%TO.P,REF\u002A\u002A,1*%
%TO.N,N/C*%
X48410000Y-107860000D03*
D11*
%TO.P,REF\u002A\u002A,2*%
X50950000Y-107860000D03*
%TO.P,REF\u002A\u002A,3*%
X53490000Y-107860000D03*
%TO.P,REF\u002A\u002A,4*%
X56030000Y-107860000D03*
%TO.P,REF\u002A\u002A,5*%
X58570000Y-107860000D03*
%TO.P,REF\u002A\u002A,6*%
X61110000Y-107860000D03*
%TO.P,REF\u002A\u002A,7*%
X63650000Y-107860000D03*
%TO.P,REF\u002A\u002A,8*%
X66190000Y-107860000D03*
%TO.P,REF\u002A\u002A,9*%
X68730000Y-107860000D03*
%TO.P,REF\u002A\u002A,10*%
X71270000Y-107860000D03*
%TO.P,REF\u002A\u002A,11*%
X73810000Y-107860000D03*
%TO.P,REF\u002A\u002A,12*%
X76350000Y-107860000D03*
%TO.P,REF\u002A\u002A,13*%
X78890000Y-107860000D03*
%TO.P,REF\u002A\u002A,14*%
X81430000Y-107860000D03*
%TO.P,REF\u002A\u002A,15*%
X83970000Y-107860000D03*
%TO.P,REF\u002A\u002A,16*%
X86510000Y-107860000D03*
%TO.P,REF\u002A\u002A,17*%
X89050000Y-107860000D03*
%TO.P,REF\u002A\u002A,18*%
X91590000Y-107860000D03*
%TO.P,REF\u002A\u002A,19*%
X94130000Y-107860000D03*
%TO.P,REF\u002A\u002A,20*%
X96670000Y-107860000D03*
%TO.P,REF\u002A\u002A,21*%
X99210000Y-107860000D03*
%TO.P,REF\u002A\u002A,22*%
X101750000Y-107860000D03*
%TO.P,REF\u002A\u002A,23*%
X104290000Y-107860000D03*
%TO.P,REF\u002A\u002A,24*%
X106830000Y-107860000D03*
%TO.P,REF\u002A\u002A,25*%
X109370000Y-107860000D03*
%TO.P,REF\u002A\u002A,26*%
X111910000Y-107860000D03*
%TO.P,REF\u002A\u002A,27*%
X114450000Y-107860000D03*
%TO.P,REF\u002A\u002A,28*%
X116990000Y-107860000D03*
%TO.P,REF\u002A\u002A,29*%
X119530000Y-107860000D03*
%TO.P,REF\u002A\u002A,30*%
X122070000Y-107860000D03*
%TO.P,REF\u002A\u002A,31*%
X124610000Y-107860000D03*
%TO.P,REF\u002A\u002A,32*%
X127150000Y-107860000D03*
%TO.P,REF\u002A\u002A,33*%
X129690000Y-107860000D03*
%TO.P,REF\u002A\u002A,34*%
X132230000Y-107860000D03*
%TO.P,REF\u002A\u002A,35*%
X134770000Y-107860000D03*
%TO.P,REF\u002A\u002A,36*%
X137310000Y-107860000D03*
%TO.P,REF\u002A\u002A,37*%
X139850000Y-107860000D03*
%TO.P,REF\u002A\u002A,38*%
X142390000Y-107860000D03*
%TO.P,REF\u002A\u002A,39*%
X144930000Y-107860000D03*
%TO.P,REF\u002A\u002A,40*%
X147470000Y-107860000D03*
%TD*%
D10*
%TO.P,REF\u002A\u002A,1*%
%TO.N,N/C*%
X48400000Y-69760000D03*
D11*
%TO.P,REF\u002A\u002A,2*%
X50940000Y-69760000D03*
%TO.P,REF\u002A\u002A,3*%
X53480000Y-69760000D03*
%TO.P,REF\u002A\u002A,4*%
X56020000Y-69760000D03*
%TO.P,REF\u002A\u002A,5*%
X58560000Y-69760000D03*
%TO.P,REF\u002A\u002A,6*%
X61100000Y-69760000D03*
%TO.P,REF\u002A\u002A,7*%
X63640000Y-69760000D03*
%TO.P,REF\u002A\u002A,8*%
X66180000Y-69760000D03*
%TO.P,REF\u002A\u002A,9*%
X68720000Y-69760000D03*
%TO.P,REF\u002A\u002A,10*%
X71260000Y-69760000D03*
%TO.P,REF\u002A\u002A,11*%
X73800000Y-69760000D03*
%TO.P,REF\u002A\u002A,12*%
X76340000Y-69760000D03*
%TO.P,REF\u002A\u002A,13*%
X78880000Y-69760000D03*
%TO.P,REF\u002A\u002A,14*%
X81420000Y-69760000D03*
%TO.P,REF\u002A\u002A,15*%
X83960000Y-69760000D03*
%TO.P,REF\u002A\u002A,16*%
X86500000Y-69760000D03*
%TO.P,REF\u002A\u002A,17*%
X89040000Y-69760000D03*
%TO.P,REF\u002A\u002A,18*%
X91580000Y-69760000D03*
%TO.P,REF\u002A\u002A,19*%
X94120000Y-69760000D03*
%TO.P,REF\u002A\u002A,20*%
X96660000Y-69760000D03*
%TO.P,REF\u002A\u002A,21*%
X99200000Y-69760000D03*
%TO.P,REF\u002A\u002A,22*%
X101740000Y-69760000D03*
%TO.P,REF\u002A\u002A,23*%
X104280000Y-69760000D03*
%TO.P,REF\u002A\u002A,24*%
X106820000Y-69760000D03*
%TO.P,REF\u002A\u002A,25*%
X109360000Y-69760000D03*
%TO.P,REF\u002A\u002A,26*%
X111900000Y-69760000D03*
%TO.P,REF\u002A\u002A,27*%
X114440000Y-69760000D03*
%TO.P,REF\u002A\u002A,28*%
X116980000Y-69760000D03*
%TO.P,REF\u002A\u002A,29*%
X119520000Y-69760000D03*
%TO.P,REF\u002A\u002A,30*%
X122060000Y-69760000D03*
%TO.P,REF\u002A\u002A,31*%
X124600000Y-69760000D03*
%TO.P,REF\u002A\u002A,32*%
X127140000Y-69760000D03*
%TO.P,REF\u002A\u002A,33*%
X129680000Y-69760000D03*
%TO.P,REF\u002A\u002A,34*%
X132220000Y-69760000D03*
%TO.P,REF\u002A\u002A,35*%
X134760000Y-69760000D03*
%TO.P,REF\u002A\u002A,36*%
X137300000Y-69760000D03*
%TO.P,REF\u002A\u002A,37*%
X139840000Y-69760000D03*
%TO.P,REF\u002A\u002A,38*%
X142380000Y-69760000D03*
%TO.P,REF\u002A\u002A,39*%
X144920000Y-69760000D03*
%TO.P,REF\u002A\u002A,40*%
X147460000Y-69760000D03*
%TD*%
M02*
